<?xml version="1.0" standalone="no"?><!DOCTYPE svg PUBLIC "-//W3C//DTD SVG 1.1//EN" "http://www.w3.org/Graphics/SVG/1.1/DTD/svg11.dtd"><svg t="1589353423797" class="icon" viewBox="0 0 1024 1024" version="1.1" xmlns="http://www.w3.org/2000/svg" p-id="7279" xmlns:xlink="http://www.w3.org/1999/xlink" width="26" height="26"><defs><style type="text/css"></style></defs><path d="M574.6176 511.232l231.1168-231.424a43.6736 43.6736 0 0 0 0-61.44l-1.792-1.536a43.5712 43.5712 0 0 0-61.44 0l-231.2704 231.424-231.168-231.424a43.5712 43.5712 0 0 0-61.44 0l-1.8432 1.536a42.9568 42.9568 0 0 0 0 61.44l231.168 231.424-231.168 231.424a43.776 43.776 0 0 0 0 61.44l1.8432 1.536a43.5712 43.5712 0 0 0 61.44 0l231.168-230.912 231.1168 230.912a43.5712 43.5712 0 0 0 61.44 0l1.792-1.536a43.6736 43.6736 0 0 0 0-61.44z m0 0" p-id="7280"></path></svg>