<?xml version="1.0" standalone="no"?><!DOCTYPE svg PUBLIC "-//W3C//DTD SVG 1.1//EN" "http://www.w3.org/Graphics/SVG/1.1/DTD/svg11.dtd"><svg t="1589349244652" class="icon" viewBox="0 0 1024 1024" version="1.1" xmlns="http://www.w3.org/2000/svg" p-id="6115" width="26" height="26" xmlns:xlink="http://www.w3.org/1999/xlink"><defs><style type="text/css"></style></defs><path d="M512 102.4C314.5728 102.4 153.9072 239.616 153.9072 408.064a247.7056 247.7056 0 0 0 65.1776 175.616c14.9504 14.336 30.3616 26.624 44.9024 38.4a281.088 281.088 0 0 1 108.288 161.28 15.36 15.36 0 0 0 14.6944 11.776h250.5216a15.36 15.36 0 0 0 14.6432-11.776 281.6 281.6 0 0 1 108.3392-161.28c15.36-11.776 30.0544-24.576 44.2368-37.888a229.9904 229.9904 0 0 0 65.8432-176.128c0-168.448-161.1264-305.664-358.4-305.664z m196.7616 328.192l-147.1488 121.344a10.24 10.24 0 0 0-3.7376 8.192v161.792a13.1584 13.1584 0 0 1-13.568 12.288H479.744a12.8512 12.8512 0 0 1-13.312-12.288v-161.792a10.8544 10.8544 0 0 0-3.9424-8.192L315.2896 430.08a33.9968 33.9968 0 0 1-13.3632-26.624 33.024 33.024 0 0 1 13.568-26.624 46.08 46.08 0 0 1 32.1536-11.264 52.0192 52.0192 0 0 1 32.3072 11.264L500.736 476.16a17.2032 17.2032 0 0 0 22.5792 0l120.7808-99.328a48.7936 48.7936 0 0 1 32.3072-11.264 54.8352 54.8352 0 0 1 33.28 11.264 31.7952 31.7952 0 0 1 14.2336 27.136 33.2288 33.2288 0 0 1-15.36 26.624z m-63.2832 439.296h-266.24a18.3296 18.3296 0 0 0-20.48 10.24v31.232a18.432 18.432 0 0 0 20.48 10.24h266.24a18.3296 18.3296 0 0 0 20.48-10.24v-31.232a18.4832 18.4832 0 0 0-20.48-10.24z m0 0" p-id="6116"></path></svg>