<?xml version="1.0" standalone="no"?><!DOCTYPE svg PUBLIC "-//W3C//DTD SVG 1.1//EN" "http://www.w3.org/Graphics/SVG/1.1/DTD/svg11.dtd"><svg t="1589331306536" class="icon" viewBox="0 0 1024 1024" version="1.1" xmlns="http://www.w3.org/2000/svg" p-id="3809" width="18" height="18" xmlns:xlink="http://www.w3.org/1999/xlink"><defs><style type="text/css"></style></defs><path d="M710.3488 870.4H614.4a43.4176 43.4176 0 0 1-51.2-51.2v-204.8H460.8v204.8a41.4208 41.4208 0 0 1-51.2 51.2H305.3056c-42.5984 0-49.3056-8.704-49.3568-51.2v-256l-42.1888 3.584a58.0608 58.0608 0 0 1-42.6496-17.408A59.8016 59.8016 0 0 1 153.6 506.368a58.112 58.112 0 0 1 16.7424-41.472l259.9424-276.48a112.64 112.64 0 0 1 158.72-4.096 6.7584 6.7584 0 0 0 4.5056 4.096l259.9424 276.48a60.0576 60.0576 0 0 1 12.3904 65.536 59.3408 59.3408 0 0 1-55.9104 36.352L768 563.2v256c0 42.496-15.104 51.2-57.7024 51.2zM716.8 870.4" p-id="3810"></path></svg>