<?xml version="1.0" standalone="no"?><!DOCTYPE svg PUBLIC "-//W3C//DTD SVG 1.1//EN" "http://www.w3.org/Graphics/SVG/1.1/DTD/svg11.dtd"><svg t="1589339920327" class="icon" viewBox="0 0 1024 1024" version="1.1" xmlns="http://www.w3.org/2000/svg" p-id="1756" xmlns:xlink="http://www.w3.org/1999/xlink" width="200" height="200"><defs><style type="text/css"></style></defs><path d="M989.72416 842.8032l-254.464-153.6v86.2208a99.7888 99.7888 0 0 1-26.624 67.072 84.8896 84.8896 0 0 1-62.464 27.2896H89.11616A92.16 92.16 0 0 1 0.02816 775.424V248.4224a99.328 99.328 0 0 1 26.112-67.072 86.016 86.016 0 0 1 62.976-27.2896h557.056a84.5312 84.5312 0 0 1 62.464 27.2896 99.7888 99.7888 0 0 1 26.624 67.072v106.1888l254.976-150.8352a20.7872 20.7872 0 0 1 22.528-0.9728 23.8592 23.8592 0 0 1 11.776 20.736v599.5008a24.2176 24.2176 0 0 1-11.776 20.9408 21.6064 21.6064 0 0 1-23.04-1.1776zM217.62816 305.2032a82.7904 82.7904 0 1 0 76.8 82.5856 86.1696 86.1696 0 0 0-22.528-58.368 73.728 73.728 0 0 0-54.272-24.2176z m0 0" p-id="1757"></path></svg>