<?xml version="1.0" standalone="no"?><!DOCTYPE svg PUBLIC "-//W3C//DTD SVG 1.1//EN" "http://www.w3.org/Graphics/SVG/1.1/DTD/svg11.dtd"><svg t="1589350578349" class="icon" viewBox="0 0 1024 1024" version="1.1" xmlns="http://www.w3.org/2000/svg" p-id="6877" xmlns:xlink="http://www.w3.org/1999/xlink" width="26" height="26"><defs><style type="text/css"></style></defs><path d="M836.949333 652.117333a363.2128 363.2128 0 0 1-108.202666 115.029334c54.613333 16.418133 88.405333 38.877867 88.405333 63.7952C817.152 881.015467 680.277333 921.6 512 921.6s-305.152-40.584533-305.152-90.658133c0-24.849067 33.450667-47.274667 88.064-63.6928a363.178667 363.178667 0 0 1-107.861333-115.131734 359.662933 359.662933 0 0 1 0-367.616 366.626133 366.626133 0 0 1 136.192-133.12A375.1936 375.1936 0 0 1 512 102.4a377.719467 377.719467 0 0 1 324.949333 182.101333 359.662933 359.662933 0 0 1 0 367.616z m-181.930666-322.935466a204.8 204.8 0 0 0-286.037334 0 192.6144 192.6144 0 0 0 0 278.2208 207.121067 207.121067 0 0 0 286.037334 0 192.6144 192.6144 0 0 0 0-278.2208zM512 589.7216a123.426133 123.426133 0 0 1-88.405333-35.396267 118.784 118.784 0 0 1 0-172.032 125.8496 125.8496 0 0 1 176.810666 0 118.784 118.784 0 0 1 0 172.032A123.426133 123.426133 0 0 1 512 589.7216z" p-id="6878"></path></svg>