<?xml version="1.0" standalone="no"?><!DOCTYPE svg PUBLIC "-//W3C//DTD SVG 1.1//EN" "http://www.w3.org/Graphics/SVG/1.1/DTD/svg11.dtd"><svg t="1589348982164" class="icon" viewBox="0 0 1024 1024" version="1.1" xmlns="http://www.w3.org/2000/svg" p-id="5981" xmlns:xlink="http://www.w3.org/1999/xlink" width="26" height="26"><defs><style type="text/css"></style></defs><path d="M857.6 720.896a144.0768 144.0768 0 1 1-288 0 153.6 153.6 0 0 1 2.8672-29.696H451.4816a153.6 153.6 0 0 1 2.9184 29.696 144.0768 144.0768 0 1 1-288 0c0-10.24-14.6944-45.568-12.8-55.296H102.4a80.7936 80.7936 0 0 1-51.2-51.2V204.8a80.7936 80.7936 0 0 1 51.2-51.2h563.2a58.368 58.368 0 0 1 51.2 51.2v102.4h153.6a138.24 138.24 0 0 1 46.8992 38.912l50.6368 218.112a31.5392 31.5392 0 0 1 4.8128 16.384v80.896a29.2352 29.2352 0 0 1-28.7744 29.696h-89.2928a153.6 153.6 0 0 1 2.9184 29.696zM310.3744 810.496a89.6512 89.6512 0 1 0-86.3744-89.6 87.9104 87.9104 0 0 0 86.3744 89.6z m403.2 0a89.6512 89.6512 0 1 0-86.3744-89.6 87.9616 87.9616 0 0 0 86.3744 89.6zM716.8 409.6v153.6h153.6l-51.2-153.6h-102.4z" p-id="5982"></path></svg>