<svg xmlns="http://www.w3.org/2000/svg" width="16" height="16" viewBox="0 0 16 16">
  <metadata><?xpacket begin="﻿" id="W5M0MpCehiHzreSzNTczkc9d"?>
<x:xmpmeta xmlns:x="adobe:ns:meta/" x:xmptk="Adobe XMP Core 5.6-c142 79.160924, 2017/07/13-01:06:39        ">
   <rdf:RDF xmlns:rdf="http://www.w3.org/1999/02/22-rdf-syntax-ns#">
      <rdf:Description rdf:about=""/>
   </rdf:RDF>
</x:xmpmeta>
                                                                                                    
                                                                                                    
                                                                                                    
                                                                                                    
                                                                                                    
                                                                                                    
                                                                                                    
                                                                                                    
                                                                                                    
                                                                                                    
                                                                                                    
                                                                                                    
                                                                                                    
                                                                                                    
                                                                                                    
                                                                                                    
                                                                                                    
                                                                                                    
                                                                                                    
                                                                                                    
                           
<?xpacket end="w"?></metadata>
<defs>
    <style>
      .cls-1 {
        fill: #fff;
        fill-rule: evenodd;
      }
    </style>
  </defs>
  <path id="发送" class="cls-1" d="M9436.35,1903.47a0.7,0.7,0,0,1-.28.45,0.652,0.652,0,0,1-.51.09l-6.42-1.54v2.42l1.28-1.2a0.655,0.655,0,0,1,.85-0.07,0.643,0.643,0,0,1,.04.97l-2.37,2.24a0.631,0.631,0,0,1-.43.17,0.616,0.616,0,0,1-.26-0.06,0.635,0.635,0,0,1-.38-0.58v-4.7a0.5,0.5,0,0,1,.03-0.13c0.01-.03.01-0.06,0.02-0.09a1.093,1.093,0,0,1,.08-0.15,0.218,0.218,0,0,1,.04-0.05l3.38-3.8a0.634,0.634,0,0,1,.9-0.04,0.644,0.644,0,0,1,.05.9l-2.66,2.99,5.48,1.31,1.32-9.39a0.181,0.181,0,0,0-.27-0.18l-11.94,6.93,2.18,0.56a0.642,0.642,0,0,1,.5.68,0.627,0.627,0,0,1-.79.56l-3.71-.95a0.606,0.606,0,0,1-.47-0.53,0.626,0.626,0,0,1,.31-0.64l14.72-8.55a0.622,0.622,0,0,1,.68.02,0.611,0.611,0,0,1,.27.61Z" transform="translate(-9422 -1891)"/>
</svg>
