<svg xmlns="http://www.w3.org/2000/svg" width="14" height="14" viewBox="0 0 14 14">
  <metadata><?xpacket begin="﻿" id="W5M0MpCehiHzreSzNTczkc9d"?>
<x:xmpmeta xmlns:x="adobe:ns:meta/" x:xmptk="Adobe XMP Core 5.6-c142 79.160924, 2017/07/13-01:06:39        ">
   <rdf:RDF xmlns:rdf="http://www.w3.org/1999/02/22-rdf-syntax-ns#">
      <rdf:Description rdf:about=""/>
   </rdf:RDF>
</x:xmpmeta>
                                                                                                    
                                                                                                    
                                                                                                    
                                                                                                    
                                                                                                    
                                                                                                    
                                                                                                    
                                                                                                    
                                                                                                    
                                                                                                    
                                                                                                    
                                                                                                    
                                                                                                    
                                                                                                    
                                                                                                    
                                                                                                    
                                                                                                    
                                                                                                    
                                                                                                    
                                                                                                    
                           
<?xpacket end="w"?></metadata>
<defs>
    <style>
      .cls-1 {
        fill: #fff;
        fill-rule: evenodd;
      }
    </style>
  </defs>
  <path id="分组" class="cls-1" d="M629.61,1513.02a1.631,1.631,0,0,0-1.144-.36h-0.9v-1.64a0.431,0.431,0,0,0-.445-0.41h-3.849v-1.27h0.9a1.632,1.632,0,0,0,1.145-.36,1.367,1.367,0,0,0,.381-1.07v-2.48a1.4,1.4,0,0,0-.382-1.07,1.635,1.635,0,0,0-1.145-.36h-2.658a1.63,1.63,0,0,0-1.144.36,1.4,1.4,0,0,0-.386,1.07v2.48a1.374,1.374,0,0,0,.386,1.07,1.633,1.633,0,0,0,1.144.36h0.872v1.27h-3.538a0.43,0.43,0,0,0-.445.41v1.64h-0.87a1.633,1.633,0,0,0-1.144.36,1.37,1.37,0,0,0-.385,1.07v2.48a1.4,1.4,0,0,0,.385,1.07,1.633,1.633,0,0,0,1.144.36h2.659a1.633,1.633,0,0,0,1.144-.36,1.4,1.4,0,0,0,.385-1.07v-2.48a1.37,1.37,0,0,0-.385-1.07,1.633,1.633,0,0,0-1.144-.36h-0.9v-1.22h7.386v1.22h-0.87a1.633,1.633,0,0,0-1.144.36,1.369,1.369,0,0,0-.384,1.07v2.48a1.4,1.4,0,0,0,.384,1.07,1.633,1.633,0,0,0,1.144.36h2.659a1.631,1.631,0,0,0,1.144-.36,1.4,1.4,0,0,0,.385-1.07v-2.48a1.37,1.37,0,0,0-.385-1.07h0Zm0,0" transform="translate(-616 -1504)"/>
</svg>
