<svg xmlns="http://www.w3.org/2000/svg" width="14" height="14" viewBox="0 0 14 14">
  <metadata><?xpacket begin="﻿" id="W5M0MpCehiHzreSzNTczkc9d"?>
<x:xmpmeta xmlns:x="adobe:ns:meta/" x:xmptk="Adobe XMP Core 5.6-c142 79.160924, 2017/07/13-01:06:39        ">
   <rdf:RDF xmlns:rdf="http://www.w3.org/1999/02/22-rdf-syntax-ns#">
      <rdf:Description rdf:about=""/>
   </rdf:RDF>
</x:xmpmeta>
                                                                                                    
                                                                                                    
                                                                                                    
                                                                                                    
                                                                                                    
                                                                                                    
                                                                                                    
                                                                                                    
                                                                                                    
                                                                                                    
                                                                                                    
                                                                                                    
                                                                                                    
                                                                                                    
                                                                                                    
                                                                                                    
                                                                                                    
                                                                                                    
                                                                                                    
                                                                                                    
                           
<?xpacket end="w"?></metadata>
<defs>
    <style>
      .cls-1 {
        fill: #fff;
        fill-rule: evenodd;
      }
    </style>
  </defs>
  <path id="复检" class="cls-1" d="M2373.55,405.888h-2.45a0.778,0.778,0,0,1,0-1.555h2.34v-7.778h-7.78v2.334a0.775,0.775,0,0,1-1.55,0v-2.443a1.446,1.446,0,0,1,1.44-1.446h8a1.449,1.449,0,0,1,1.45,1.446v8a1.451,1.451,0,0,1-1.45,1.438h0Zm-7.89,0a0.788,0.788,0,0,1-.55-0.225l-1.55-1.555a0.776,0.776,0,0,1,1.09-1.1l1.01,1,2.55-2.56a0.779,0.779,0,0,1,1.1,1.1l-3.11,3.111a0.783,0.783,0,0,1-.54.226h0Zm4.78,3.112h-7.99a1.449,1.449,0,0,1-1.45-1.447v-8a1.441,1.441,0,0,1,1.45-1.447h7.99a1.449,1.449,0,0,1,1.45,1.447v8a1.446,1.446,0,0,1-1.45,1.439h0Zm-7.89-1.556h7.78v-7.778h-7.78v7.778Zm0,0" transform="translate(-2361 -395)"/>
</svg>
