<svg xmlns="http://www.w3.org/2000/svg" width="14" height="14" viewBox="0 0 14 14">
  <metadata><?xpacket begin="﻿" id="W5M0MpCehiHzreSzNTczkc9d"?>
<x:xmpmeta xmlns:x="adobe:ns:meta/" x:xmptk="Adobe XMP Core 5.6-c142 79.160924, 2017/07/13-01:06:39        ">
   <rdf:RDF xmlns:rdf="http://www.w3.org/1999/02/22-rdf-syntax-ns#">
      <rdf:Description rdf:about=""/>
   </rdf:RDF>
</x:xmpmeta>
                                                                                                    
                                                                                                    
                                                                                                    
                                                                                                    
                                                                                                    
                                                                                                    
                                                                                                    
                                                                                                    
                                                                                                    
                                                                                                    
                                                                                                    
                                                                                                    
                                                                                                    
                                                                                                    
                                                                                                    
                                                                                                    
                                                                                                    
                                                                                                    
                                                                                                    
                                                                                                    
                           
<?xpacket end="w"?></metadata>
<defs>
    <style>
      .cls-1 {
        fill: #fff;
        fill-rule: evenodd;
      }
    </style>
  </defs>
  <path id="申请" class="cls-1" d="M278.871,268.525V270h1.507l4.359-4.315-1.5-1.477ZM282.04,256h-7.947A2.073,2.073,0,0,0,272,258.051v9.9A2.074,2.074,0,0,0,274.093,270h2.891v-1.837L284.135,261v-2.944A2.074,2.074,0,0,0,282.04,256h0Zm-3.727,8.96h-2.6a0.844,0.844,0,1,1,0-1.688h2.6a0.844,0.844,0,1,1,0,1.688h0Zm1.746-3.394h-4.343a0.844,0.844,0,1,1,0-1.688h4.343a0.844,0.844,0,1,1,0,1.688h0Zm4.92,1.559a0.38,0.38,0,0,0-.279-0.115,0.4,0.4,0,0,0-.279.115l-0.715.7,1.5,1.475,0.672-.741a0.378,0.378,0,0,0,.117-0.274,0.384,0.384,0,0,0-.117-0.273Zm0,0" transform="translate(-272 -256)"/>
</svg>
