<svg xmlns="http://www.w3.org/2000/svg" width="16" height="16" viewBox="0 0 16 16">
  <metadata><?xpacket begin="﻿" id="W5M0MpCehiHzreSzNTczkc9d"?>
<x:xmpmeta xmlns:x="adobe:ns:meta/" x:xmptk="Adobe XMP Core 5.6-c142 79.160924, 2017/07/13-01:06:39        ">
   <rdf:RDF xmlns:rdf="http://www.w3.org/1999/02/22-rdf-syntax-ns#">
      <rdf:Description rdf:about=""/>
   </rdf:RDF>
</x:xmpmeta>
                                                                                                    
                                                                                                    
                                                                                                    
                                                                                                    
                                                                                                    
                                                                                                    
                                                                                                    
                                                                                                    
                                                                                                    
                                                                                                    
                                                                                                    
                                                                                                    
                                                                                                    
                                                                                                    
                                                                                                    
                                                                                                    
                                                                                                    
                                                                                                    
                                                                                                    
                                                                                                    
                           
<?xpacket end="w"?></metadata>
<defs>
    <style>
      .cls-1 {
        <!-- fill: #919699; -->
        fill-rule: evenodd;
      }
    </style>
  </defs>
  <path id="审核" class="cls-1" d="M140.675,552.4A4.044,4.044,0,1,1,145,548.361,4.2,4.2,0,0,1,140.675,552.4Zm0-6.723a2.7,2.7,0,1,0,2.883,2.689A2.8,2.8,0,0,0,140.675,545.672Zm1.369,3.361h-1.369a0.66,0.66,0,0,1-.721-0.672v-1.277a0.723,0.723,0,0,1,1.442,0v0.605h0.648a0.659,0.659,0,0,1,.721.672A0.7,0.7,0,0,1,142.044,549.033Zm-10.594-8.672a0.659,0.659,0,0,1,.72-0.672h8.073a0.659,0.659,0,0,1,.72.672,0.7,0.7,0,0,1-.72.672H132.17A0.658,0.658,0,0,1,131.45,540.361Zm4.757,3.227H132.17a0.674,0.674,0,1,1,0-1.344h4.037a0.658,0.658,0,0,1,.72.672A0.7,0.7,0,0,1,136.207,543.588Zm6.774,0.4a0.659,0.659,0,0,1-.72-0.672v-4.37a0.625,0.625,0,0,0-.649-0.6H131.089a0.625,0.625,0,0,0-.648.6v12.1a0.625,0.625,0,0,0,.648.605h5.55a0.659,0.659,0,0,1,.72.673,0.7,0.7,0,0,1-.72.672h-5.55A2.024,2.024,0,0,1,129,551.05v-12.1A2.024,2.024,0,0,1,131.089,537h10.523a2.025,2.025,0,0,1,2.09,1.949v4.37A0.659,0.659,0,0,1,142.981,543.991Z" transform="translate(-129 -537)"/>
</svg>
