<svg xmlns="http://www.w3.org/2000/svg" width="12" height="14" viewBox="0 0 12 14">
  <metadata><?xpacket begin="﻿" id="W5M0MpCehiHzreSzNTczkc9d"?>
<x:xmpmeta xmlns:x="adobe:ns:meta/" x:xmptk="Adobe XMP Core 5.6-c142 79.160924, 2017/07/13-01:06:39        ">
   <rdf:RDF xmlns:rdf="http://www.w3.org/1999/02/22-rdf-syntax-ns#">
      <rdf:Description rdf:about=""/>
   </rdf:RDF>
</x:xmpmeta>
                                                                                                    
                                                                                                    
                                                                                                    
                                                                                                    
                                                                                                    
                                                                                                    
                                                                                                    
                                                                                                    
                                                                                                    
                                                                                                    
                                                                                                    
                                                                                                    
                                                                                                    
                                                                                                    
                                                                                                    
                                                                                                    
                                                                                                    
                                                                                                    
                                                                                                    
                                                                                                    
                           
<?xpacket end="w"?></metadata>
<defs>
    <style>
      .cls-1 {
        <!-- fill: #fff; -->
        fill-rule: evenodd;
      }
    </style>
  </defs>
  <path id="文件" class="cls-1" d="M933.593,605h-9.185A1.371,1.371,0,0,1,923,603.687V592.313A1.434,1.434,0,0,1,924.406,591l5.9,0.011a0.969,0.969,0,0,1,.658.25l3.754,3.45h0a0.851,0.851,0,0,1,.281.625v8.352A1.408,1.408,0,0,1,933.593,605Zm-2.611-12.514s0,1.421,0,1.838a0.469,0.469,0,0,0,.469.438h1.994Zm3.08,3.15h-2.611a1.447,1.447,0,0,1-1.406-1.314v-2.449h-5.637a0.48,0.48,0,0,0-.471.437v11.375a0.468,0.468,0,0,0,.471.438h9.185a0.449,0.449,0,0,0,.469-0.438v-8.049Zm-2.518,6.549H926.48a0.439,0.439,0,1,1,0-.875h5.064A0.439,0.439,0,1,1,931.544,602.185Zm0-2.208H926.48a0.439,0.439,0,1,1,0-.876h5.064A0.439,0.439,0,1,1,931.544,599.977Zm0-2.209H926.48a0.439,0.439,0,1,1,0-.875h5.064A0.439,0.439,0,1,1,931.544,597.768Zm-5.534-.438h0Z" transform="translate(-923 -591)"/>
</svg>
