<svg xmlns="http://www.w3.org/2000/svg" width="14" height="14" viewBox="0 0 14 14">
  <metadata><?xpacket begin="﻿" id="W5M0MpCehiHzreSzNTczkc9d"?>
<x:xmpmeta xmlns:x="adobe:ns:meta/" x:xmptk="Adobe XMP Core 5.6-c142 79.160924, 2017/07/13-01:06:39        ">
   <rdf:RDF xmlns:rdf="http://www.w3.org/1999/02/22-rdf-syntax-ns#">
      <rdf:Description rdf:about=""/>
   </rdf:RDF>
</x:xmpmeta>
                                                                                                    
                                                                                                    
                                                                                                    
                                                                                                    
                                                                                                    
                                                                                                    
                                                                                                    
                                                                                                    
                                                                                                    
                                                                                                    
                                                                                                    
                                                                                                    
                                                                                                    
                                                                                                    
                                                                                                    
                                                                                                    
                                                                                                    
                                                                                                    
                                                                                                    
                                                                                                    
                           
<?xpacket end="w"?></metadata>
<defs>
    <style>
      .cls-1 {
        fill: #a9a9a9;
        fill-rule: evenodd;
      }
    </style>
  </defs>
  <path id="新增" class="cls-1" d="M7476.3,1650.3v-2.41a0.7,0.7,0,1,1,1.4,0v2.41h2.41a0.7,0.7,0,1,1,0,1.4h-2.41v2.41a0.7,0.7,0,1,1-1.4,0v-2.41h-2.41a0.7,0.7,0,1,1,0-1.4h2.41Zm0.7-6.3a7,7,0,1,1-7,7,6.995,6.995,0,0,1,7-7h0Zm0,1.4a5.6,5.6,0,1,0,5.6,5.6,5.6,5.6,0,0,0-5.6-5.6h0Zm0,0" transform="translate(-7470 -1644)"/>
</svg>
