<svg xmlns="http://www.w3.org/2000/svg" width="16" height="16" viewBox="0 0 16 16">
  <metadata><?xpacket begin="﻿" id="W5M0MpCehiHzreSzNTczkc9d"?>
<x:xmpmeta xmlns:x="adobe:ns:meta/" x:xmptk="Adobe XMP Core 5.6-c142 79.160924, 2017/07/13-01:06:39        ">
   <rdf:RDF xmlns:rdf="http://www.w3.org/1999/02/22-rdf-syntax-ns#">
      <rdf:Description rdf:about=""/>
   </rdf:RDF>
</x:xmpmeta>
                                                                                                    
                                                                                                    
                                                                                                    
                                                                                                    
                                                                                                    
                                                                                                    
                                                                                                    
                                                                                                    
                                                                                                    
                                                                                                    
                                                                                                    
                                                                                                    
                                                                                                    
                                                                                                    
                                                                                                    
                                                                                                    
                                                                                                    
                                                                                                    
                                                                                                    
                                                                                                    
                           
<?xpacket end="w"?></metadata>
<defs>
    <style>
      .cls-1 {
        <!-- fill: #1aa0ff; -->
        fill-rule: evenodd;
      }
    </style>
  </defs>
  <path id="医院" class="cls-1" d="M2988.58,332h-13.33a1.246,1.246,0,0,1-1.25-1.231V317.846a1.863,1.863,0,0,1,1.88-1.846h7.68a1.863,1.863,0,0,1,1.88,1.846v3.872h3.3a1.244,1.244,0,0,1,1.26,1.23v7.821A1.4,1.4,0,0,1,2988.58,332Zm-4.29-14.234a0.638,0.638,0,0,0-.64-0.623h-7.88a0.636,0.636,0,0,0-.63.623v13.091h9.15V317.766Zm4.57,5.091h-3.43v8h3.43v-8Zm-10-2.286h1.71v2.572h2.57v1.714h-2.57v2.571h-1.71v-2.571h-2.57v-1.714h2.57v-2.572Z" transform="translate(-2974 -316)"/>
</svg>
