<?xml version="1.0" standalone="no"?><!DOCTYPE svg PUBLIC "-//W3C//DTD SVG 1.1//EN" "http://www.w3.org/Graphics/SVG/1.1/DTD/svg11.dtd"><svg t="1618392208208" class="icon" viewBox="0 0 1024 1024" version="1.1" xmlns="http://www.w3.org/2000/svg" p-id="3684" xmlns:xlink="http://www.w3.org/1999/xlink" width="16" height="16"><defs><style type="text/css"></style></defs><path d="M128.042667 896a128 128 0 0 1-127.786667-120.490667L0.042667 768V341.333333a128 128 0 0 1 120.490666-127.786666L128 213.333333h42.581333L170.666667 128A128 128 0 0 1 291.157333 0.213333L298.666667 0h426.666666a128 128 0 0 1 127.786667 120.490667L853.333333 128l-0.042666 85.333333h42.752a128 128 0 0 1 127.786666 120.490667L1024 341.333333v426.666667a128 128 0 0 1-120.490667 127.786667l-7.509333 0.213333h-42.666667a128 128 0 0 1-128 128h-426.666666a128 128 0 0 1-128-128h-42.666667z m597.333333-170.666667h-426.666667a42.666667 42.666667 0 0 0-42.666666 42.666667v128a42.666667 42.666667 0 0 0 42.666666 42.666667h426.666667a42.666667 42.666667 0 0 0 42.666667-42.666667v-128a42.666667 42.666667 0 0 0-42.666667-42.666667z m42.666667-341.333333a42.666667 42.666667 0 0 1 0 85.333333h-256a42.666667 42.666667 0 0 1 0-85.333333h256zM725.333333 85.333333H298.666667a42.666667 42.666667 0 0 0-42.368 37.674667L256 128v85.333333h512V128a42.666667 42.666667 0 0 0-32.853333-41.557333l-4.821334-0.853334L725.333333 85.333333z m128.042667 725.333334h42.666667a42.666667 42.666667 0 0 0 42.368-37.674667l0.298666-4.992V341.333333a42.666667 42.666667 0 0 0-42.666666-42.666666h-768a42.666667 42.666667 0 0 0-42.368 37.674666L85.333333 341.333333v426.666667a42.666667 42.666667 0 0 0 37.674667 42.368l4.992 0.298667h42.666667v-42.666667a128 128 0 0 1 128-128h426.666666a128 128 0 0 1 128 128v42.666667z" fill="#ffffff" p-id="3685"></path></svg>