<!-- Generated by IcoMoon.io -->
<svg version="1.1" xmlns="http://www.w3.org/2000/svg" width="32" height="32" viewBox="0 0 32 32">
<title>fblist_fadb</title>
<path d="M32 13.184c0-0.011 0-0.023 0-0.035 0-7.277-5.899-13.176-13.176-13.176-5.072 0-9.475 2.866-11.677 7.067l-0.035 0.072c-4.241 2.247-7.082 6.633-7.082 11.682 0 7.277 5.899 13.176 13.176 13.176 5.049 0 9.435-2.84 11.648-7.010l0.035-0.071c4.245-2.259 7.091-6.647 7.112-11.702v-0.003zM21.035 26.667c-0.981 1.004-2.162 1.808-3.479 2.349l-0.069 0.025c-1.276 0.56-2.763 0.887-4.326 0.887-0.017 0-0.033-0-0.050-0h0.003c-1.579-0.002-3.081-0.328-4.444-0.915l0.073 0.028c-1.379-0.592-2.558-1.393-3.557-2.375l0.002 0.002c-1.008-0.983-1.815-2.166-2.358-3.487l-0.025-0.069c-0.56-1.276-0.887-2.763-0.887-4.326 0-0.016 0-0.031 0-0.047v0.002c0.002-1.579 0.327-3.082 0.915-4.446l-0.028 0.073c0.592-1.379 1.392-2.558 2.375-3.557l-0.002 0.002 0.666-0.668c-0.126 0.579-0.231 1.287-0.291 2.007l-0.004 0.064v0.817c0.021 4.267 2.035 8.059 5.158 10.496l0.030 0.022 0.149 0.147c0.075 0.075 0.147 0.075 0.147 0.147 0.146 0.079 0.271 0.178 0.375 0.296l0.001 0.001c2.027 1.338 4.511 2.138 7.182 2.148h0.817c0.783-0.064 1.491-0.169 2.183-0.315l-0.112 0.020c0 0.222-0.218 0.442-0.442 0.666zM25.999 21.704c0.127-0.58 0.231-1.288 0.291-2.008l0.004-0.062v-0.817c0-0.002 0-0.005 0-0.008 0-4.81-2.593-9.014-6.457-11.291l-0.061-0.033c-0.049-0.051-0.117-0.082-0.193-0.082-0.009 0-0.018 0-0.027 0.001l0.001-0c-0.077-0.075-0.149-0.075-0.224-0.147l-0.444-0.224c-1.677-0.841-3.654-1.333-5.746-1.333-0.037 0-0.075 0-0.112 0l0.006-0h-0.821c-0.783 0.064-1.491 0.169-2.183 0.315l0.112-0.020 0.666-0.666c0.984-1.004 2.168-1.808 3.488-2.349l0.069-0.025c1.276-0.56 2.763-0.887 4.326-0.887 0.016 0 0.032 0 0.048 0h-0.002c1.579 0.002 3.082 0.328 4.446 0.915l-0.073-0.028c1.379 0.593 2.558 1.393 3.557 2.375l-0.002-0.002c1.004 0.983 1.807 2.167 2.347 3.487l0.025 0.069c0.562 1.277 0.889 2.765 0.889 4.33 0 0.014-0 0.028-0 0.043v-0.002c-0.002 1.58-0.328 3.082-0.917 4.446l0.028-0.073c-0.592 1.379-1.392 2.558-2.373 3.557l0.002-0.002c-0.252 0.152-0.47 0.324-0.664 0.519l-0 0z"></path>
</svg>
