<!-- Generated by IcoMoon.io -->
<svg version="1.1" xmlns="http://www.w3.org/2000/svg" width="32" height="32" viewBox="0 0 32 32">
<title>fblist_daochu</title>
<path d="M26.166 32h-20.332c-0 0-0 0-0.001 0-3.187 0-5.777-2.557-5.831-5.731l-0-0.005v-20.432c0.001-3.188 2.558-5.778 5.733-5.832l0.005-0h5.692c1.012 0.001 1.832 0.822 1.832 1.834 0 0 0 0 0 0v0c-0.001 1-0.802 1.813-1.798 1.832l-0.002 0h-5.626c-0 0-0 0-0 0-1.184 0-2.147 0.95-2.166 2.13l-0 0.002v20.37c0 0 0 0 0 0 0 1.184 0.95 2.147 2.13 2.166l0.002 0h20.368c0 0 0 0 0 0 1.184 0 2.147-0.95 2.166-2.13l0-0.002v-5.6c0.001-1.012 0.822-1.833 1.834-1.834h0c1 0.001 1.813 0.802 1.832 1.798l0 0.002v5.6c-0.001 3.188-2.558 5.778-5.733 5.832l-0.005 0zM11.966 20.2c-0.334-0.332-0.541-0.792-0.541-1.3s0.207-0.968 0.541-1.3l11.652-11.652h-5.242c-1.012-0.001-1.832-0.822-1.832-1.834 0 0 0 0 0 0v0c0-1.012 0.82-1.832 1.832-1.832v0h9.666c1.012 0 1.832 0.82 1.832 1.832v0 9.666c0 1.012-0.82 1.833-1.832 1.834h-0c-1.012-0.001-1.832-0.822-1.832-1.834 0 0 0 0 0 0v0-5.24l-1.26 1.258-10.4 10.4c-0.331 0.331-0.788 0.536-1.292 0.536-0.001 0-0.003 0-0.004 0h0c-0.503-0.001-0.958-0.205-1.288-0.534l0 0z"></path>
</svg>
