<!-- Generated by IcoMoon.io -->
<svg version="1.1" xmlns="http://www.w3.org/2000/svg" width="32" height="32" viewBox="0 0 32 32">
<title>fblist_fabg</title>
<path d="M16.070 0c-0.080-0.003-0.175-0.004-0.27-0.004-0.418 0-0.829 0.028-1.231 0.081l0.047-0.005c-6.568 0.786-11.611 6.324-11.611 13.040 0 4.514 2.278 8.496 5.748 10.859l0.046 0.029v2.182c0.002 0.802 0.652 1.452 1.454 1.454h11.636c0.802-0.002 1.452-0.652 1.454-1.454v-2.182c3.53-2.385 5.82-6.372 5.82-10.894 0-7.233-5.86-13.098-13.091-13.106h-0.001zM21.742 21.528l-1.31 0.872v2.326h-8.728v-2.26l-1.31-0.872c-2.756-1.906-4.539-5.050-4.539-8.61 0-0.272 0.010-0.541 0.031-0.807l-0.002 0.035c0.442-4.815 4.167-8.639 8.896-9.231l0.050-0.005c0.316-0.047 0.681-0.074 1.052-0.074 0.065 0 0.13 0.001 0.194 0.002l-0.010-0c5.617 0.017 10.165 4.566 10.182 10.18v0.002c0 0.012 0 0.025 0 0.039 0 3.491-1.776 6.567-4.474 8.374l-0.036 0.023zM21.16 29.092h-10.182c-0.804 0-1.455 0.651-1.455 1.455s0.651 1.455 1.455 1.455v0h10.182c0.804 0 1.455-0.651 1.455-1.455s-0.651-1.455-1.455-1.455v0z"></path>
<path d="M16.434 5.454c-0.804 0-1.455 0.651-1.455 1.455s0.651 1.455 1.455 1.455v0c2.407 0.007 4.357 1.957 4.364 4.363v0.001c0 0.804 0.651 1.455 1.455 1.455s1.455-0.651 1.455-1.455v0c-0.011-4.013-3.261-7.263-7.273-7.274h-0.001z"></path>
</svg>
