<!-- Generated by IcoMoon.io -->
<svg version="1.1" xmlns="http://www.w3.org/2000/svg" width="32" height="32" viewBox="0 0 32 32">
<title>fblist_fabu</title>
<path d="M29.493 1.99l-28.774 13.041c-0.403 0.192-0.684 0.581-0.719 1.039l-0 0.004c0.013 0.416 0.261 0.771 0.615 0.938l0.007 0.003 8.388 3.857c1.088 0.663 2.718-2.319 1.63-2.974l-4.64-1.926 17.803-8.128-11.592 12.265c-0.063 0.067-0.102 0.158-0.102 0.258 0 0.020 0.002 0.040 0.005 0.059l-0-0.002v0.307l-0.213 9.114c0.041 0.436 0.276 0.81 0.616 1.040l0.005 0.003c0.142 0.073 0.31 0.116 0.488 0.116 0.249 0 0.478-0.084 0.661-0.225l-0.003 0.002 6.31-4.589 6.31 2.921c0.108 0.067 0.24 0.106 0.38 0.106 0.010 0 0.020-0 0.029-0.001l-0.001 0c0.202-0.003 0.386-0.081 0.524-0.208l-0.001 0.001c0.286-0.181 0.483-0.481 0.523-0.829l0-0.005 3.3-25.144c0.009-0.049 0.014-0.105 0.014-0.162 0-0.325-0.167-0.611-0.419-0.777l-0.003-0.002c-0.184-0.135-0.414-0.216-0.664-0.216-0.175 0-0.341 0.040-0.489 0.111l0.007-0.003zM14.562 27.366l0.117-3.676 2.524 1.566zM24.988 25.12l-9.495-4.015 12.192-13.47z"></path>
</svg>
