<!-- Generated by IcoMoon.io -->
<svg version="1.1" xmlns="http://www.w3.org/2000/svg" width="32" height="32" viewBox="0 0 32 32">
<title>header_arrow</title>
<path d="M18.33 23.955c-0.484 0.605-1.222 0.989-2.049 0.989-0.048 0-0.096-0.001-0.143-0.004l0.007 0c-0.771 0.128-1.501-0.47-2.099-0.986l-13.334-13.421c-0.396-0.43-0.639-1.007-0.639-1.64 0-1.34 1.086-2.426 2.426-2.426 0.633 0 1.21 0.243 1.642 0.64l-0.002-0.002 12.048 12.518 12.086-12.518c0.43-0.396 1.007-0.639 1.64-0.639 1.34 0 2.426 1.086 2.426 2.426 0 0.633-0.243 1.21-0.64 1.642l0.002-0.002z"></path>
</svg>
