<!-- Generated by IcoMoon.io -->
<svg version="1.1" xmlns="http://www.w3.org/2000/svg" width="32" height="32" viewBox="0 0 32 32">
<title>menu_2</title>
<path d="M3.318 32c-1.835-0.006-3.32-1.494-3.32-3.33 0-0.004 0-0.008 0-0.013v0.001-25.316c0-0.003 0-0.006 0-0.010 0-1.836 1.485-3.325 3.319-3.332h25.367c1.832 0.007 3.314 1.493 3.314 3.326 0 0.006 0 0.011-0 0.017v-0.001 25.316c0 0.004 0 0.008 0 0.012 0 1.834-1.483 3.322-3.315 3.33h-0.001zM3.318 28.658h25.364v-25.316h-25.364zM11.884 23.962l-4.326-4.174c-0.276-0.263-0.448-0.633-0.448-1.043s0.172-0.78 0.447-1.042l0.001-0.001c0.536-0.698 1.734-0.57 1.978-0.57h13.2c0.008-0 0.017-0 0.026-0 0.822 0 1.489 0.659 1.504 1.477l0 0.001c-0.013 0.819-0.681 1.478-1.502 1.478-0.009 0-0.017-0-0.025-0l0.001 0h-10.552l1.856 1.8c0.276 0.263 0.448 0.633 0.448 1.043s-0.172 0.78-0.447 1.042l-0.001 0.001c-0.279 0.269-0.658 0.434-1.076 0.434-0.001 0-0.002 0-0.004 0h0c-0.42-0.003-0.801-0.173-1.078-0.446l0 0zM21.842 14.374h-13.2c-0.007 0-0.016 0-0.024 0-0.822 0-1.49-0.659-1.506-1.477l-0-0.001c0.015-0.819 0.682-1.478 1.504-1.478 0.008 0 0.016 0 0.023 0h10.551l-1.856-1.8c-0.276-0.263-0.447-0.633-0.447-1.043s0.171-0.78 0.447-1.042l0.001-0.001c0.281-0.267 0.661-0.431 1.080-0.431s0.799 0.164 1.081 0.432l-0.001-0.001 4.328 4.176c0.276 0.263 0.447 0.633 0.447 1.043s-0.171 0.78-0.447 1.042l-0.001 0.001c-0.365 0.364-0.869 0.589-1.425 0.589-0.066 0-0.131-0.003-0.195-0.009l0.008 0.001c-0.17 0.008-0.302 0-0.366 0z"></path>
</svg>
