<!-- Generated by IcoMoon.io -->
<svg version="1.1" xmlns="http://www.w3.org/2000/svg" width="32" height="32" viewBox="0 0 32 32">
<title>xuanke_fb</title>
<path d="M3.319 32c-1.834-0.006-3.319-1.495-3.319-3.33 0-0.004 0-0.008 0-0.012v0.001-25.314c0-0.003 0-0.006 0-0.009 0-1.836 1.484-3.325 3.318-3.333h25.372c1.832 0.006 3.314 1.493 3.314 3.326 0 0.006 0 0.011-0 0.017v-0.001 25.314c0 0.003 0 0.007 0 0.011 0 1.834-1.483 3.322-3.316 3.33h-0.001zM3.319 28.658h25.371v-25.314h-25.371zM11.886 23.963l-4.327-4.174c-0.276-0.262-0.447-0.632-0.447-1.042s0.172-0.78 0.447-1.042l0.001-0.001c0.537-0.697 1.735-0.571 1.977-0.571h13.202c0.008-0 0.016-0 0.025-0 0.821 0 1.488 0.658 1.504 1.475l0 0.001c-0.014 0.819-0.681 1.477-1.502 1.477-0.009 0-0.018-0-0.027-0l0.001 0h-10.551l1.856 1.792c0.276 0.262 0.447 0.632 0.447 1.042s-0.172 0.78-0.447 1.042l-0.001 0.001c-0.279 0.269-0.658 0.434-1.077 0.434-0.002 0-0.003 0-0.005 0h0c-0.419-0-0.8-0.167-1.079-0.437l0 0zM21.842 14.377h-13.202c-0.007 0-0.015 0-0.023 0-0.822 0-1.489-0.658-1.506-1.475l-0-0.002c0.015-0.82 0.684-1.479 1.506-1.479 0.007 0 0.015 0 0.022 0h10.552l-1.856-1.79c-0.275-0.263-0.446-0.633-0.446-1.042s0.171-0.78 0.446-1.042l0.001-0.001c0.281-0.266 0.661-0.43 1.080-0.43s0.799 0.164 1.081 0.431l-0.001-0.001 4.327 4.176c0.275 0.263 0.446 0.633 0.446 1.042s-0.171 0.78-0.446 1.042l-0.001 0.001c-0.365 0.363-0.868 0.587-1.424 0.587-0.066 0-0.131-0.003-0.196-0.009l0.008 0.001c-0.169-0.005-0.302-0.011-0.368-0.011z"></path>
</svg>
