<!-- Generated by IcoMoon.io -->
<svg version="1.1" xmlns="http://www.w3.org/2000/svg" width="32" height="32" viewBox="0 0 32 32">
<title>xuanke_upload</title>
<path fill="#1ba4b3" d="M3.024 30.365h-0.038c-0.805-0.023-1.537-0.317-2.112-0.793l0.006 0.005c-0.505-0.511-0.832-1.2-0.879-1.964l-0-0.009c0-0.019 0-0.038 0-0.057v-7.286c-0.003-0.066-0.004-0.143-0.004-0.22 0-0.6 0.089-1.18 0.255-1.726l-0.011 0.042c0.174-0.59 0.398-1.102 0.676-1.579l-0.018 0.034 2.855-5.051c0.014-0.026 0.030-0.050 0.046-0.074 0.332-0.484 0.739-0.89 1.208-1.21l0.016-0.010c0.505-0.291 1.111-0.463 1.757-0.463 0.003 0 0.006 0 0.009 0h18.103c0.675 0.044 1.299 0.225 1.857 0.515l-0.026-0.012c0.525 0.333 0.97 0.737 1.337 1.205l0.009 0.011c0.019 0.024 0.039 0.052 0.057 0.081l0.002 0.004 3.39 5.372c0.014 0.024 0.030 0.049 0.042 0.074 0.215 0.404 0.409 0.877 0.555 1.37l0.014 0.055c0.11 0.431 0.187 0.934 0.213 1.451l0.001 0.019v7.337c0 0.006 0 0.013 0 0.020 0 0.821-0.349 1.56-0.906 2.077l-0.002 0.002c-0.593 0.487-1.361 0.782-2.197 0.782-0.007 0-0.014-0-0.022-0h-26.193zM2.731 17.969c-0.161 0.291-0.304 0.628-0.41 0.982l-0.010 0.037c-0.096 0.317-0.151 0.68-0.151 1.057 0 0.065 0.002 0.13 0.005 0.194l-0-0.009v7.301c0.022 0.175 0.088 0.332 0.185 0.464l-0.002-0.003 0.014 0.015 0.017 0.013c0.19 0.101 0.412 0.166 0.648 0.182l0.005 0h26.181c0.002 0 0.004 0 0.007 0 0.284 0 0.547-0.085 0.767-0.232l-0.005 0.003c0.105-0.108 0.175-0.251 0.189-0.41l0-0.002v-7.33c-0.020-0.363-0.071-0.704-0.151-1.033l0.008 0.038c-0.108-0.358-0.233-0.664-0.383-0.956l0.015 0.031-0.012-0.022-3.327-5.273-0.010-0.013c-0.193-0.236-0.414-0.439-0.66-0.608l-0.011-0.007c-0.25-0.113-0.54-0.191-0.845-0.216l-0.010-0.001h-17.995c-0 0-0 0-0.001 0-0.227 0-0.441 0.050-0.634 0.14l0.009-0.004c-0.21 0.156-0.39 0.339-0.539 0.545l-0.005 0.007-0.009 0.012-2.836 5.019-0.031 0.051s-0.013 0.025-0.013 0.025zM16.066 8.42c-0.598-0-1.083-0.485-1.084-1.084v-6.236c0 0 0 0 0 0 0-0.598 0.485-1.084 1.083-1.085h0c0.599 0 1.084 0.485 1.084 1.084v6.232c-0 0.598-0.485 1.083-1.084 1.084h-0zM23.33 8.379c-0.599-0-1.084-0.486-1.084-1.085 0-0.001 0-0.002 0-0.003v0c0-0.001 0-0.002 0-0.003 0-0.259 0.090-0.496 0.242-0.682l-0.002 0.002 2.479-3.054c0.2-0.245 0.501-0.4 0.839-0.4 0.001 0 0.002 0 0.003 0h-0c0.002 0 0.004-0 0.006-0 0.257 0 0.493 0.091 0.677 0.241l-0.002-0.002c0.218 0.176 0.365 0.433 0.395 0.725l0 0.005c0.004 0.033 0.006 0.072 0.006 0.111 0 0.261-0.093 0.5-0.247 0.686l0.001-0.002-2.479 3.054c-0.199 0.245-0.5 0.4-0.837 0.4-0.001 0-0.003 0-0.004 0h0zM8.924 8.299c-0.001 0-0.002 0-0.004 0-0.341 0-0.645-0.158-0.842-0.406l-0.002-0.002-2.435-3.054c-0.146-0.183-0.234-0.418-0.234-0.673 0-0.341 0.158-0.646 0.404-0.845l0.002-0.002c0.182-0.149 0.418-0.24 0.674-0.24h0c0.001 0 0.001 0 0.002 0 0.342 0 0.646 0.159 0.844 0.407l0.002 0.002 2.435 3.054c0.146 0.183 0.235 0.418 0.235 0.674 0 0.341-0.158 0.645-0.404 0.844l-0.002 0.002c-0.183 0.148-0.418 0.238-0.675 0.24h-0z"></path>
<path fill="#1ba4b3" d="M16.113 24.309c-0.007 0-0.015 0-0.023 0-2.431 0-4.476-1.655-5.069-3.899l-0.008-0.037-0.048-0.186-9.622-0.006c-0.598-0.001-1.083-0.486-1.084-1.084v-0c0.001-0.598 0.486-1.082 1.084-1.083l10.596 0.006c0.598 0.001 1.082 0.486 1.083 1.084v0c0 0.003 0 0.006 0 0.009 0 1.674 1.357 3.031 3.031 3.031 0.021 0 0.042-0 0.063-0.001l-0.003 0c0.016 0 0.035 0 0.054 0 1.671 0 3.026-1.355 3.026-3.026 0-0.005 0-0.009-0-0.014v0.001c0.001-0.598 0.485-1.082 1.083-1.084l10.498-0.006c0 0 0 0 0 0 0.598 0 1.084 0.485 1.084 1.083v0c-0 0.598-0.485 1.083-1.083 1.084l-9.526 0.006-0.047 0.187c-0.599 2.28-2.641 3.935-5.071 3.935-0.007 0-0.013 0-0.020-0h0.001z"></path>
</svg>
