<svg xmlns="http://www.w3.org/2000/svg" width="14" height="14" viewBox="0 0 14 14"><defs><style>.a{fill:#fff;}</style></defs><path class="a" d="M-426.552-2716h-8.9A2.552,2.552,0,0,1-438-2718.51v-8.939a2.553,2.553,0,0,1,2.51-2.552H-433a.8.8,0,0,1,.8.8.8.8,0,0,1-.788.8h-2.461a.947.947,0,0,0-.948.932v8.912a.948.948,0,0,0,.932.948h8.911a.947.947,0,0,0,.948-.932v-2.451a.8.8,0,0,1,.8-.8.8.8,0,0,1,.8.789v2.448a2.552,2.552,0,0,1-2.51,2.552Zm-6.213-5.164a.8.8,0,0,1,0-1.134l5.1-5.1h-2.293a.8.8,0,0,1-.8-.8.8.8,0,0,1,.8-.8h4.229a.8.8,0,0,1,.8.8v4.229a.8.8,0,0,1-.8.8.8.8,0,0,1-.8-.8v-2.292l-.552.551-4.546,4.546a.8.8,0,0,1-.567.235A.8.8,0,0,1-432.765-2721.165Z" transform="translate(438 2730)"/></svg>