<?xml version="1.0" standalone="no"?><!DOCTYPE svg PUBLIC "-//W3C//DTD SVG 1.1//EN" "http://www.w3.org/Graphics/SVG/1.1/DTD/svg11.dtd"><svg t="1615353821690" class="icon" viewBox="0 0 1024 1024" version="1.1" xmlns="http://www.w3.org/2000/svg" p-id="2079" xmlns:xlink="http://www.w3.org/1999/xlink" width="16" height="16"><defs><style type="text/css"></style></defs><path d="M614.4 261.12H179.2l122.88-122.88c20.48-20.48 20.48-51.2 0-71.68-20.48-20.48-51.2-20.48-71.68 0L15.36 281.6c-10.24 10.24-15.36 25.6-15.36 35.84 0 15.36 5.12 25.6 15.36 35.84l215.04 215.04c20.48 20.48 51.2 20.48 71.68 0 20.48-20.48 20.48-51.2 0-71.68L153.6 348.16h460.8c174.08 0 317.44 117.76 317.44 261.12S788.48 870.4 614.4 870.4H250.88c-25.6 5.12-46.08 25.6-46.08 51.2s20.48 46.08 46.08 46.08H614.4c225.28 0 409.6-158.72 409.6-353.28 0-194.56-184.32-353.28-409.6-353.28z" p-id="2080" fill="#ffffff"></path></svg>