<svg xmlns="http://www.w3.org/2000/svg" xmlns:xlink="http://www.w3.org/1999/xlink" width="16" height="16" viewBox="0 0 16 16"><defs><style>.a{fill:#eb7438;}.b{clip-path:url(#a);}</style><clipPath id="a"><rect class="a" width="16" height="16"/></clipPath></defs><g class="b"><path class="a" d="M-76.125,40.619A7.989,7.989,0,0,0-84.12,48.6a7.989,7.989,0,0,0,7.995,7.983A7.99,7.99,0,0,0-68.131,48.6a7.989,7.989,0,0,0-7.995-7.983Zm-.024,13.675A1.153,1.153,0,0,1-77.3,53.14a1.154,1.154,0,0,1,1.155-1.153,1.154,1.154,0,0,1,1.155,1.153,1.153,1.153,0,0,1-1.155,1.153Zm1.513-8.574s0,0,0,.008v0l0,.008v.014s-.975,4.533-.976,4.542.067-.342,0,0-.238.53-.53.53-.447-.217-.537-.568-.95-4.4-.95-4.407v-.007a.039.039,0,0,1,0-.008v-.012a.053.053,0,0,1,0-.006V45.81l0-.009V45.79a.082.082,0,0,0,0-.008.013.013,0,0,0,0,0v0l0-.008V45.74l0-.008v-.006a.041.041,0,0,1,0-.006,1.553,1.553,0,0,1-.032-.313,1.543,1.543,0,0,1,1.545-1.543A1.543,1.543,0,0,1-74.6,45.407a1.555,1.555,0,0,1-.032.313Zm0,0" transform="translate(84.117 -40.606)"/></g></svg>