<!-- Generated by IcoMoon.io -->
<svg version="1.1" xmlns="http://www.w3.org/2000/svg" width="32" height="32" viewBox="0 0 32 32">
<title>back</title>
<path fill="#333" d="M18.708 21.292c0.181 0.181 0.293 0.431 0.293 0.708 0 0.553-0.448 1.001-1.001 1.001-0.276 0-0.527-0.112-0.708-0.293v0l-6-6c-0.181-0.181-0.294-0.431-0.294-0.708s0.112-0.527 0.294-0.708l6-6c0.181-0.181 0.431-0.293 0.708-0.293 0.553 0 1.001 0.448 1.001 1.001 0 0.277-0.112 0.527-0.293 0.708v0l-5.294 5.292 5.294 5.292zM16 32c-8.837 0-16-7.163-16-16s7.163-16 16-16v0c8.837 0 16 7.163 16 16s-7.163 16-16 16v0zM16 30c7.732 0 14-6.268 14-14s-6.268-14-14-14v0c-7.732 0-14 6.268-14 14s6.268 14 14 14v0z"></path>
</svg>
