<!-- Generated by IcoMoon.io -->
<svg version="1.1" xmlns="http://www.w3.org/2000/svg" width="34" height="32" viewBox="0 0 34 32">
<title>cksp</title>
<path fill="#3498db" d="M29.831 32h-25.399c-2.457-0.045-4.431-2.047-4.431-4.51 0-0.020 0-0.041 0-0.061v0.003-22.864c0-0.017 0-0.037 0-0.058 0-2.463 1.975-4.466 4.427-4.51h25.403c2.457 0.045 4.431 2.047 4.431 4.51 0 0.020 0 0.041 0 0.061v-0.003 22.864c0 0.017 0 0.037 0 0.058 0 2.463-1.975 4.466-4.427 4.51h-0.004zM5.939 2.444l-2.353 0.023c-0.813 0.361-1.37 1.162-1.37 2.093 0 0.003 0 0.006 0 0.008v0 2.307c0.015-0.014 0.036-0.023 0.058-0.023 0.004 0 0.007 0 0.010 0.001v0h5.802zM11.512 2.284h-3.335l2.558 4.568h3.335zM17.314 2.284h-3.152l2.558 4.568h3.152zM23.115 2.284h-3.152l2.558 4.568h3.152zM32.046 4.568c0-0.011 0-0.024 0-0.037 0-1.23-0.988-2.229-2.214-2.247h-4.068l2.558 4.568h3.723v-2.284zM32.046 27.386v-18.25h-29.83v18.25c0 0.014 0 0.030 0 0.047 0 1.238 0.984 2.245 2.213 2.283h25.402c1.232-0.038 2.216-1.046 2.216-2.283 0-0.016 0-0.033-0.001-0.049v0.002zM21.494 20.237l-5.939 3.586c-0.119 0.066-0.259 0.108-0.409 0.114h-0.002c-0.456-0.009-0.822-0.381-0.822-0.838 0-0.002 0-0.005 0-0.007v0-7.263c-0.003-0.025-0.005-0.054-0.005-0.084 0-0.416 0.324-0.757 0.733-0.784h0.002c0.269 0.025 0.512 0.124 0.711 0.277l-0.003-0.002 5.802 3.495c0.249 0.159 0.411 0.433 0.411 0.746 0 0.003 0 0.006 0 0.009v0c-0.003 0.331-0.196 0.616-0.475 0.752l-0.005 0.002z"></path>
</svg>
