<!-- Generated by IcoMoon.io -->
<svg version="1.1" xmlns="http://www.w3.org/2000/svg" width="32" height="32" viewBox="0 0 32 32">
<title>classroom</title>
<path fill="#0e88fd" d="M1.576 21.66c0.91 0.755 2.091 1.213 3.379 1.213 0.025 0 0.051 0 0.077-0.001h-0.004c-0.257-0.378-0.411-0.845-0.413-1.347v-0.404c-1.32-0.131-2.345-1.221-2.376-2.557v-11.724c0 0 0-0.001 0-0.002 0-0.699 0.312-1.325 0.805-1.747l0.003-0.003c0.445-0.422 1.048-0.681 1.711-0.681 0.069 0 0.138 0.003 0.205 0.008l-0.009-0.001h22.633c0.056-0.004 0.121-0.007 0.187-0.007 1.372 0 2.493 1.073 2.569 2.425v11.727c-0.066 1.428-1.24 2.561-2.678 2.561-0.028 0-0.055 0-0.083-0.001h-10.062l-0.978 0.943c-0.135 0.374-0.274 0.685-0.432 0.984l0.020-0.041h11.317c1.29-0.029 2.456-0.536 3.334-1.35l-0.003 0.003c0.83-0.732 1.368-1.78 1.422-2.955v-11.864c-0.022-1.232-0.565-2.333-1.418-3.095l-0.004-0.003c-0.862-0.754-1.999-1.213-3.243-1.213-0.031 0-0.061 0-0.092 0.001h-22.629c-0.049-0.002-0.107-0.003-0.165-0.003-2.448 0-4.453 1.896-4.627 4.299l-0.001 0.015v11.855c0.075 1.207 0.665 2.262 1.551 2.957l0.008 0.007zM13.741 23.95v-0.808c0.012 0 0.025 0 0.040 0 0.439 0 0.843-0.152 1.16-0.408l-0.003 0.003c0.289-0.323 0.475-0.744 0.501-1.208v-0.005l6.563-5.928c0.025-0.060 0.040-0.129 0.040-0.202s-0.014-0.142-0.040-0.205l0.002 0.003c-0.067-0.109-0.154-0.198-0.256-0.268l-0.003-0.002h-0.339l-5.997 5.523v-5.254c-0.084-1.184-0.988-2.134-2.143-2.289l-0.013-0.002-0.943-0.135-1.886 3.503-1.924-3.503-0.905 0.135c-1.177 0.152-2.092 1.101-2.19 2.281l-0.001 0.009v6.332c-0.001 0.019-0.002 0.043-0.002 0.066 0 0.45 0.186 0.856 0.486 1.146h0.001c0.259 0.262 0.62 0.424 1.017 0.424 0.083 0 0.165-0.007 0.244-0.021l-0.008 0.001v0.674zM18.001 25.432h-3.549c-0.866 0.035-1.643 0.388-2.224 0.944l0.002-0.001c-0.578 0.488-0.942 1.212-0.943 2.021v1.078h9.773v-1.078c0-0.015 0.001-0.033 0.001-0.051 0-0.787-0.349-1.491-0.903-1.968l-0.003-0.003c-0.586-0.501-1.324-0.84-2.136-0.941l-0.020-0.002zM31.435 26.375c-0.598-0.501-1.347-0.84-2.17-0.941l-0.020-0.002h-3.549c-0.854 0.104-1.613 0.442-2.231 0.949l0.008-0.006c-0.557 0.499-0.904 1.219-0.905 2.021v1.078h9.773v-1.213c-0.038-0.753-0.379-1.419-0.903-1.884l-0.003-0.003zM6.684 25.432h-3.549c-0.844 0.102-1.593 0.441-2.197 0.948l0.007-0.005c-0.535 0.467-0.888 1.13-0.942 1.877l-0.001 0.009v1.213h9.773v-1.213c0-0.013 0-0.028 0-0.043 0-0.748-0.353-1.413-0.9-1.839l-0.005-0.004c-0.569-0.552-1.336-0.905-2.184-0.943h-0.008zM8.002 10.343c0.119 0.333 0.329 0.609 0.601 0.805l0.005 0.003c0.674 2.156 2.942 2.156 3.772 0 0.269-0.206 0.477-0.48 0.602-0.796l0.004-0.013c0-0.404 0-0.808-0.38-0.808 0-0.003 0-0.007 0-0.010 0-0.577-0.238-1.098-0.622-1.471l-0.001-0.001c-0.339-0.265-0.771-0.424-1.24-0.424-0.102 0-0.201 0.008-0.299 0.022l0.011-0.002c-0.088-0.013-0.189-0.020-0.292-0.020-0.478 0-0.92 0.159-1.273 0.429l0.005-0.004c-0.401 0.371-0.653 0.896-0.663 1.48v0.002h0.113c-0.348 0-0.348 0.404-0.348 0.808v0z"></path>
</svg>
