<!-- Generated by IcoMoon.io -->
<svg version="1.1" xmlns="http://www.w3.org/2000/svg" width="32" height="32" viewBox="0 0 32 32">
<title>college</title>
<path fill="#d5f0ff" d="M31.037 8.939c0.013 0.013 0.026 0.013 0.040 0.026 0.045 0.018 0.085 0.041 0.12 0.067l-0.002-0.001c0.030 0.019 0.056 0.041 0.079 0.066v0c0.013 0.013 0.040 0.026 0.053 0.040s0.053 0.066 0.079 0.093 0.026 0.040 0.040 0.053c0.017 0.041 0.035 0.076 0.055 0.109l-0.002-0.003c0.013 0.013 0.013 0.026 0.026 0.040 0.018 0.038 0.032 0.082 0.039 0.129v0.003c0 0.013 0.013 0.026 0.013 0.040 0.011 0.055 0.018 0.118 0.018 0.182 0 0.129-0.026 0.252-0.073 0.364l0.003-0.006c-0.023 0.050-0.049 0.093-0.080 0.133l0.001-0.002v0.013c-0.033 0.044-0.067 0.083-0.105 0.118l-0.014 0.014c-0.029 0.037-0.064 0.068-0.104 0.092l-0.002 0.001c-0.005 0.012-0.015 0.021-0.026 0.026v0c-0.030 0.022-0.065 0.040-0.103 0.052l-0.003 0.001c-0.012 0.016-0.031 0.026-0.053 0.026v0l-0.119 0.040c-0.013 0-0.026 0.013-0.040 0.013-0.066 0-0.131 0.013-0.197 0.013h-1.344v0.448c0 0.004 0 0.009 0 0.015 0 0.745-0.6 1.349-1.343 1.355h-24.385c-0.75-0.001-1.357-0.609-1.357-1.358 0-0.004 0-0.009 0-0.012v0.001-0.448h-1.33c-0.066 0-0.131-0.013-0.197-0.013l-0.053-0.026c-0.039-0.003-0.074-0.012-0.107-0.027l0.002 0.001c-0.035-0.016-0.066-0.034-0.094-0.054l0.002 0.001c-0.018-0.014-0.041-0.023-0.065-0.026h-0.001c-0.029-0.037-0.064-0.068-0.104-0.092l-0.002-0.001c-0.012-0.005-0.022-0.015-0.026-0.026v0c-0.17-0.166-0.277-0.397-0.277-0.654 0-0.384 0.238-0.712 0.573-0.846l0.006-0.003 14.846-6.653c0.107-0.050 0.233-0.079 0.365-0.079 0.001 0 0.003 0 0.003 0v0c0.129 0.001 0.252 0.030 0.361 0.081l-0.005-0.003zM27.533 9.36l-11.738-5.27-11.738 5.27v0.883c0.004 0.248 0.207 0.448 0.456 0.448 0.002 0 0.003 0 0.005 0h22.553c0.002 0 0.003 0 0.005 0 0.249 0 0.451-0.2 0.456-0.447v-0.883zM0.896 28.015h1.357v-2.516c0 0 0-0.001 0-0.002 0-0.749 0.607-1.355 1.355-1.355 0.001 0 0.001 0 0.002 0h2.477v-10.947h1.805v10.934h4.057v-10.934h1.805v10.934h4.071v-10.934h1.805v10.934h4.057v-10.934h1.805v10.934h2.477c0.751 0.005 1.357 0.615 1.357 1.366 0 0.002 0 0.003 0 0.004v0 2.503h1.357c0.496 0.003 0.896 0.404 0.896 0.899 0 0.003 0 0.007 0 0.009v-0.001 0.909h-31.577v-0.909c0.001-0.495 0.401-0.895 0.896-0.896v0zM4.057 28.015h23.475v-1.607c0-0.001 0-0.003 0-0.004 0-0.246-0.199-0.444-0.444-0.444-0.002 0-0.003 0-0.004 0h-22.566c-0.002 0-0.003 0-0.005 0-0.249 0-0.451 0.2-0.456 0.447v1.608z"></path>
</svg>
