<!-- Generated by IcoMoon.io -->
<svg version="1.1" xmlns="http://www.w3.org/2000/svg" width="32" height="32" viewBox="0 0 32 32">
<title>da_dmtsyl</title>
<path fill="#ccf8dd" d="M32 16c0 8.837-7.163 16-16 16s-16-7.163-16-16c0-8.837 7.163-16 16-16s16 7.163 16 16z"></path>
<path fill="#00b845" d="M23.142 24.64h-2.048c-0.382 0-0.691-0.309-0.691-0.691s0.309-0.691 0.691-0.691h2.048c0.441-0.011 0.794-0.371 0.794-0.814 0-0.006 0-0.013 0-0.019v0.001-12.237c0-0.005 0-0.012 0-0.018 0-0.442-0.353-0.803-0.793-0.814h-14.875c-0.441 0.011-0.794 0.371-0.794 0.814 0 0.006 0 0.013 0 0.019v-0.001 12.237c0 0.005 0 0.012 0 0.018 0 0.442 0.353 0.802 0.793 0.814h8.321c0.382 0 0.691 0.309 0.691 0.691s-0.309 0.691-0.691 0.691h-8.32c-1.205-0.013-2.176-0.992-2.176-2.199 0-0.005 0-0.011 0-0.016v0.001-12.237c0-0.008 0-0.017 0-0.026 0-1.207 0.971-2.187 2.175-2.201h14.875c1.205 0.014 2.176 0.994 2.176 2.201 0 0.009 0 0.018 0 0.027v-0.001 12.237c0 0.005 0 0.010 0 0.015 0 1.206-0.971 2.186-2.175 2.199h-0.001zM13.184 18.803v-5.005c-0.008-0.042-0.013-0.090-0.013-0.139 0-0.405 0.328-0.733 0.733-0.733 0.185 0 0.355 0.069 0.484 0.182l-0.001-0.001 4.326 2.509c0.292 0.099 0.499 0.371 0.499 0.691s-0.207 0.592-0.494 0.69l-0.005 0.002-4.326 2.509c-0.128 0.109-0.295 0.176-0.478 0.176-0.408 0-0.739-0.331-0.739-0.739 0-0.050 0.005-0.099 0.014-0.146l-0.001 0.005z"></path>
</svg>
