<!-- Generated by IcoMoon.io -->
<svg version="1.1" xmlns="http://www.w3.org/2000/svg" width="32" height="32" viewBox="0 0 32 32">
<title>da_jskkl</title>
<path fill="#ccf8dd" d="M32 16c0 8.837-7.163 16-16 16s-16-7.163-16-16c0-8.837 7.163-16 16-16s16 7.163 16 16z"></path>
<path fill="#00b845" d="M20.020 23.91h-8.042c-0.323 0.004-0.583 0.266-0.586 0.589v0c0.004 0.319 0.263 0.576 0.582 0.576 0.001 0 0.003 0 0.004 0h8.042c0.001 0 0.003 0 0.004 0 0.319 0 0.579-0.257 0.582-0.576v0c-0.003-0.323-0.263-0.584-0.586-0.589v0zM22.79 6.925h-13.582c-1.242 0.002-2.252 0.991-2.29 2.224v10.397c0.018 1.234 1.022 2.227 2.259 2.227 0.011 0 0.022 0 0.033 0h13.58c1.242-0.002 2.252-0.991 2.29-2.224v-10.397c-0.018-1.234-1.022-2.227-2.259-2.227-0.011 0-0.022 0-0.033 0h0.002zM23.962 19.597c-0.004 0.615-0.503 1.113-1.119 1.114h-13.635c-0.009 0-0.020 0-0.031 0-0.601 0-1.088-0.487-1.088-1.088 0-0.009 0-0.018 0-0.027v0.001-10.445c0.004-0.615 0.503-1.112 1.119-1.114h13.582c0.009 0 0.020 0 0.031 0 0.601 0 1.088 0.487 1.088 1.088 0 0.009 0 0.018 0 0.027v-0.001 10.445h0.052zM21.139 10.803l-4.155 4.8-2.45-2.56c-0.149-0.152-0.356-0.247-0.586-0.247-0.203 0-0.389 0.074-0.532 0.197l0.001-0.001-3.356 3.034c-0.105 0.112-0.169 0.264-0.169 0.43 0 0.136 0.043 0.262 0.116 0.366l-0.001-0.002c0.108 0.118 0.262 0.191 0.434 0.191 0.139 0 0.266-0.048 0.366-0.128l-0.001 0.001 3.090-2.829 2.45 2.611c0.149 0.152 0.357 0.247 0.587 0.247 0.203 0 0.39-0.074 0.533-0.197l-0.001 0.001 0.052-0.051 4.367-5.107c0.084-0.101 0.134-0.232 0.134-0.375 0-0.17-0.072-0.323-0.186-0.431v0c-0.078-0.096-0.196-0.157-0.328-0.157-0.154 0-0.289 0.083-0.363 0.206l-0.001 0.002z"></path>
</svg>
