<!-- Generated by IcoMoon.io -->
<svg version="1.1" xmlns="http://www.w3.org/2000/svg" width="32" height="32" viewBox="0 0 32 32">
<title>da_jsyxlyl</title>
<path fill="#ccf8dd" d="M32 16c0 8.837-7.163 16-16 16s-16-7.163-16-16c0-8.837 7.163-16 16-16s16 7.163 16 16z"></path>
<path fill="#00b845" d="M23.898 17.498h-0.243v4.928c0.003 0.050 0.005 0.108 0.005 0.167 0 1.364-1.053 2.481-2.39 2.584l-0.009 0.001h-10.56c-1.345-0.102-2.398-1.219-2.398-2.581 0-0.056 0.002-0.111 0.005-0.165v0.007-4.928h-0.243c-0.942-0.069-1.68-0.851-1.68-1.804 0-0.036 0.001-0.072 0.003-0.108v0.005c0-0.012 0-0.026 0-0.040 0-0.519 0.2-0.991 0.526-1.344l-0.001 0.001 7.565-7.526c0.365-0.421 0.9-0.687 1.497-0.691h0.001c0.61 0.007 1.154 0.283 1.521 0.714l0.002 0.003 7.578 7.501c0.31 0.361 0.499 0.834 0.499 1.351 0 0.007 0 0.013 0 0.020v-0.001c0.002 0.033 0.003 0.072 0.003 0.111 0 0.952-0.739 1.731-1.675 1.795h-0.006zM24.422 15.027l-7.578-7.501c-0.202-0.265-0.517-0.435-0.873-0.435-0.338 0-0.64 0.154-0.841 0.395l-0.001 0.002-7.565 7.526c-0.135 0.156-0.218 0.361-0.218 0.585 0 0.001 0 0.002 0 0.004v0c-0.001 0.011-0.001 0.024-0.001 0.037 0 0.41 0.314 0.746 0.715 0.782h1.206v6.029c-0.002 0.030-0.003 0.065-0.003 0.1 0 0.815 0.632 1.482 1.432 1.538h10.565c0.805-0.057 1.437-0.724 1.437-1.539 0-0.035-0.001-0.070-0.003-0.104v0.005-6.029h1.203c0.403-0.031 0.718-0.365 0.718-0.774 0-0.016 0-0.032-0.001-0.048v0.002c-0.001-0.217-0.073-0.417-0.194-0.579l0.002 0.003zM20.941 17.6h-4.070c-0.187 0-0.339-0.152-0.339-0.339s0.152-0.339 0.339-0.339v0h4.070c0 0 0.001 0 0.001 0 0.19 0 0.344 0.154 0.344 0.344 0 0 0 0.001 0 0.001v0c-0.001 0.184-0.15 0.333-0.334 0.333-0.004 0-0.008 0-0.012 0h0.001zM17.318 15.565c-0.444 0.297-0.986 0.481-1.57 0.499h-0.453c-2.17 0.224-3.848 2.040-3.853 4.249v0.026c0.004 0.355 0.293 0.64 0.648 0.64 0.006 0 0.013 0 0.019 0h3.775c0.186 0.008 0.335 0.161 0.335 0.349 0 0.012-0.001 0.024-0.002 0.036v-0.002c0 0.005 0 0.010 0 0.016 0 0.189-0.147 0.343-0.332 0.355h-3.803c-0.767-0.014-1.382-0.639-1.382-1.408 0-0.005 0-0.009 0-0.014v0.001c0.005-2.114 1.314-3.922 3.166-4.66l0.034-0.012 0.205-0.077-0.218-0.128c-0.681-0.559-1.113-1.4-1.114-2.342v0c0-1.608 1.304-2.912 2.912-2.912s2.912 1.304 2.912 2.912v0c-0.001 0.942-0.432 1.784-1.108 2.338l-0.005 0.004zM15.706 10.893c-0.004 0-0.008 0-0.013 0-1.223 0-2.214 0.991-2.214 2.214s0.991 2.214 2.214 2.214c1.223 0 2.214-0.991 2.214-2.214v0c-0.004-1.217-0.986-2.204-2.201-2.214h-0.001zM16.755 19.738h2.65c0.134 0.031 0.233 0.149 0.233 0.291 0 0.015-0.001 0.029-0.003 0.043v-0.002c0.003 0.015 0.004 0.032 0.004 0.050 0 0.139-0.092 0.257-0.219 0.295l-0.002 0.001h-2.662c-0.135-0.033-0.234-0.153-0.234-0.296 0-0.017 0.001-0.034 0.004-0.051v0.002c-0.002-0.013-0.003-0.027-0.003-0.042 0-0.142 0.099-0.26 0.231-0.291h0.002zM16.538 18.675c0-0.006-0.001-0.014-0.001-0.021 0-0.165 0.122-0.301 0.281-0.324h3.356c0.16 0.023 0.282 0.16 0.282 0.325 0 0.007 0 0.015-0.001 0.022v-0.001c0 0.006 0.001 0.013 0.001 0.020 0 0.162-0.123 0.296-0.281 0.313h-3.355c-0.159-0.017-0.282-0.151-0.282-0.313 0-0.007 0-0.014 0.001-0.021v0.001z"></path>
</svg>
