<!-- Generated by IcoMoon.io -->
<svg version="1.1" xmlns="http://www.w3.org/2000/svg" width="32" height="32" viewBox="0 0 32 32">
<title>da_jskqzcl</title>
<path fill="#ccf8dd" d="M32 16c0 8.837-7.163 16-16 16s-16-7.163-16-16c0-8.837 7.163-16 16-16s16 7.163 16 16z"></path>
<path fill="#00b845" d="M15.68 17.062c-3.657 0.223-6.546 3.214-6.605 6.893v0.006c0 0.258-0.209 0.467-0.467 0.467s-0.467-0.209-0.467-0.467v0c0.029-3.442 2.271-6.353 5.372-7.382l0.055-0.016c-1.778-0.822-2.993-2.584-3.008-4.632v-0.002c0.092-2.86 2.432-5.143 5.306-5.143s5.214 2.284 5.305 5.135v0.008c-0.006 1.948-1.103 3.638-2.712 4.492l-0.028 0.013c1.334 0.38 2.483 1.049 3.421 1.936l-0.004-0.004c0.090 0.081 0.146 0.197 0.146 0.326 0 0.123-0.051 0.234-0.133 0.314v0c-0.087 0.087-0.207 0.141-0.339 0.141-0.126 0-0.241-0.049-0.326-0.128v0c-1.267-1.193-2.969-1.937-4.844-1.971h-0.007c-0.122 0.014-0.263 0.021-0.407 0.021-0.091 0-0.181-0.003-0.271-0.009l0.012 0.001zM15.667 16.154c0.127-0.011 0.276-0.017 0.426-0.017 0.075 0 0.15 0.002 0.225 0.005h-0.011c2.244-0.215 3.985-2.091 3.985-4.374 0-2.426-1.967-4.393-4.393-4.393s-4.393 1.967-4.393 4.393c0 2.344 1.837 4.26 4.149 4.386h0.011zM19.866 23.501l3.994-4.442c0.077-0.092 0.192-0.151 0.32-0.154v0c0.014-0.001 0.030-0.002 0.046-0.002 0.114 0 0.218 0.039 0.301 0.105l0.037 0.037c0.103 0.083 0.168 0.209 0.168 0.351 0 0.116-0.044 0.223-0.117 0.303v0l-4.339 4.838c-0.090 0.096-0.219 0.156-0.361 0.156-0.116 0-0.222-0.040-0.306-0.106l0.001 0.001-3.098-2.611c-0.099-0.083-0.161-0.207-0.161-0.345 0-0.113 0.042-0.216 0.11-0.295v0.001l0.051-0.051c0.077-0.092 0.192-0.151 0.32-0.154v0c0.014-0.001 0.030-0.002 0.046-0.002 0.114 0 0.218 0.039 0.301 0.105l-0.001-0.001z"></path>
</svg>
