<!-- Generated by IcoMoon.io -->
<svg version="1.1" xmlns="http://www.w3.org/2000/svg" width="32" height="32" viewBox="0 0 32 32">
<title>da_jssxjt</title>
<path fill="#ccf8dd" d="M32 16c0 8.837-7.163 16-16 16s-16-7.163-16-16c0-8.837 7.163-16 16-16s16 7.163 16 16z"></path>
<path fill="#00b845" d="M24.102 22.413c-0.094 0.102-0.228 0.166-0.378 0.166-0.002 0-0.004 0-0.007 0h-1.484v2.458c0 0.002 0 0.005 0 0.008 0 0.301-0.239 0.545-0.537 0.555h-10.228c-0.151-0.004-0.286-0.067-0.384-0.166v0c-0.095-0.102-0.154-0.239-0.154-0.39 0-0.002 0-0.005 0-0.007v0-2.458h-1.485c-0.002 0-0.004 0-0.006 0-0.149 0-0.284-0.064-0.377-0.166v0c-0.095-0.097-0.154-0.231-0.154-0.378 0-0.002 0-0.004 0-0.006v0-4.198c0-0.002 0-0.004 0-0.007 0-0.151 0.058-0.288 0.154-0.39v0c0.097-0.095 0.231-0.154 0.378-0.154 0.002 0 0.004 0 0.007 0h14.272c0.002 0 0.004 0 0.006 0 0.147 0 0.28 0.059 0.378 0.154v0c0.095 0.102 0.154 0.239 0.154 0.39 0 0.002 0 0.005 0 0.007v0 4.198c0 0.002 0 0.004 0 0.006 0 0.147-0.059 0.28-0.154 0.378v0zM11.725 24.781h9.715v-2.202h-9.715v2.202zM23.462 18.086h-13.76v3.686h13.76v-3.686zM20.979 16.666c-0.182-0.004-0.329-0.15-0.333-0.332v0c0-0.011 0-0.024 0-0.037 0-1.946-1.339-3.579-3.146-4.028l-0.029-0.006c0.141 0.691 0.397 1.984 0.397 2.227-0.19 0.679-0.662 1.222-1.278 1.504l-0.015 0.006c-0.665-0.239-1.159-0.804-1.291-1.498l-0.002-0.012c0-0.243 0.256-1.536 0.41-2.24-0.408 0.11-0.766 0.267-1.092 0.471l0.017-0.010c-0.223 0.126-0.416 0.262-0.594 0.414l0.005-0.004c-0.059 0.055-0.138 0.088-0.225 0.088-0.099 0-0.188-0.044-0.249-0.114v0c-0.055-0.061-0.088-0.142-0.088-0.23 0-0.101 0.044-0.193 0.114-0.256v0c0.064-0.051 0.141-0.090 0.205-0.141l-0.026-0.026c0.211-0.156 0.45-0.305 0.7-0.434l0.030-0.014c0.161-0.086 0.355-0.172 0.555-0.245l0.033-0.011 0.013-0.013c-0.784-0.522-1.293-1.402-1.293-2.4 0-0.007 0-0.013 0-0.020v0.001c-0.001-0.025-0.001-0.055-0.001-0.084 0-1.524 1.236-2.76 2.76-2.76s2.76 1.236 2.76 2.76c0 0.030 0 0.059-0.001 0.088v-0.004c0 0.006 0 0.012 0 0.019 0 0.999-0.509 1.879-1.282 2.394l-0.011 0.007c1.925 0.685 3.28 2.487 3.29 4.607v0.001c-0.004 0.182-0.15 0.329-0.332 0.333v0zM16.576 15.347c0.288-0.214 0.515-0.494 0.66-0.819l0.005-0.013c0-0.154-0.333-2.33-0.333-2.33h-0.64s-0.333 2.176-0.333 2.33c0.12 0.348 0.344 0.634 0.634 0.828l0.006 0.004zM18.701 9.318c-0.022-1.157-0.964-2.086-2.124-2.086-1.174 0-2.125 0.951-2.125 2.125s0.951 2.125 2.124 2.125v0c1.177-0.017 2.125-0.976 2.125-2.155 0-0.003 0-0.006 0-0.008v0zM13.005 14.4c-0.297 0.557-0.472 1.218-0.474 1.919v0.001c0 0 0 0.001 0 0.001 0 0.19-0.154 0.344-0.344 0.344 0 0-0.001 0-0.001 0v0c-0.182-0.014-0.326-0.162-0.333-0.345v-0.001c0.002-0.964 0.283-1.862 0.767-2.618l-0.012 0.020 0.026 0.013c0.059-0.075 0.149-0.123 0.251-0.123 0.069 0 0.133 0.022 0.185 0.060l-0.001-0.001c0.083 0.065 0.136 0.166 0.136 0.278 0 0.073-0.022 0.14-0.060 0.197l0.001-0.001c-0.050 0.073-0.097 0.157-0.137 0.246l-0.004 0.010z"></path>
</svg>
