<!-- Generated by IcoMoon.io -->
<svg version="1.1" xmlns="http://www.w3.org/2000/svg" width="32" height="32" viewBox="0 0 32 32">
<title>da_qpjzl</title>
<path fill="#ccf8dd" d="M32 16c0 8.837-7.163 16-16 16s-16-7.163-16-16c0-8.837 7.163-16 16-16s16 7.163 16 16z"></path>
<path fill="#00b845" d="M8.218 8.269c0.576-0.369 1.279-0.589 2.033-0.589 0.19 0 0.377 0.014 0.56 0.041l-0.021-0.003h9.331c0.96 0.051 2.189-0.102 2.778 0.832 0.627 1.011 0.32 2.278 0.435 3.405 0.845 0.563 1.933 1.165 1.805 2.33 0.026 3.2 0.115 6.4-0.038 9.587-0.614 2.688-5.261 2.291-5.798-0.333h-7.731c-0.563 0.845-1.050 2.099-2.291 2.048-1.357 0.205-3.328-0.013-3.546-1.677-0.154-3.187-0.077-6.4-0.051-9.6-0.128-1.19 0.986-1.805 1.843-2.368 0.166-1.216-0.32-2.739 0.691-3.674zM8.922 8.934c-0.241 0.773-0.38 1.662-0.38 2.583 0 0.14 0.003 0.28 0.010 0.419l-0.001-0.020c0.909 0.435 2.253 0.397 2.598 1.549 0.133 0.877 0.209 1.889 0.209 2.919 0 0.531-0.020 1.058-0.060 1.579l0.004-0.069c2.752 0.013 5.491 0 8.23 0-0.022-0.387-0.035-0.839-0.035-1.294 0-1.124 0.078-2.229 0.229-3.311l-0.014 0.125c0.397-1.050 1.613-1.165 2.547-1.434-0.23-0.998 0.55-3.046-0.986-3.149-4.122 0-8.256-0.192-12.352 0.102zM6.797 13.939c-0.192 2.662-0.013 5.35-0.077 8.026 0.077 0.819-0.23 1.856 0.499 2.483 0.388 0.071 0.836 0.112 1.292 0.112 0.43 0 0.851-0.036 1.261-0.105l-0.044 0.006c0.362-0.553 0.609-1.214 0.689-1.925l0.002-0.021c3.328-0.090 6.643-0.038 9.958-0.051 0.192 0.614 0.358 1.242 0.512 1.856 1.037 0.294 3.149 0.704 3.187-0.87 0.077-3.021 0.064-6.054 0.013-9.075 0.038-1.677-2.253-1.293-3.315-0.896-0.142 1.285-0.222 2.775-0.222 4.284 0 0.424 0.006 0.847 0.019 1.269l-0.001-0.062h-10.342c-0.179-1.856 0.461-3.955-0.41-5.658-0.96-0.051-2.65-0.614-3.021 0.627v0z"></path>
</svg>
