<!-- Generated by IcoMoon.io -->
<svg version="1.1" xmlns="http://www.w3.org/2000/svg" width="32" height="32" viewBox="0 0 32 32">
<title>da_sjl</title>
<path fill="#ccf8dd" d="M32 16c0 8.837-7.163 16-16 16s-16-7.163-16-16c0-8.837 7.163-16 16-16s16 7.163 16 16z"></path>
<path fill="#00b845" d="M26.918 10.522l-2.266 1.101c-0.040 0.016-0.086 0.026-0.135 0.026-0.085 0-0.163-0.029-0.225-0.078l0.001 0.001c-0.067-0.062-0.108-0.15-0.108-0.248 0-0.039 0.007-0.077 0.019-0.113l-0.001 0.002 0.858-2.496-1.818 0.96c-0.044 0.025-0.097 0.039-0.154 0.039-0.121 0-0.226-0.067-0.28-0.166l-0.001-0.002c-0.025-0.045-0.040-0.099-0.040-0.157 0-0.127 0.073-0.237 0.179-0.291l0.002-0.001 2.534-1.344c0.046-0.025 0.1-0.040 0.158-0.040 0.082 0 0.156 0.030 0.214 0.079v0c0.069 0.054 0.113 0.138 0.113 0.231 0 0.041-0.009 0.081-0.024 0.116l0.001-0.002-0.87 2.547 1.562-0.755c0.040-0.018 0.086-0.029 0.135-0.029 0.18 0 0.326 0.146 0.326 0.326 0 0.127-0.072 0.237-0.178 0.291l-0.002 0.001zM22.221 15.91c0.053-0.039 0.119-0.063 0.191-0.063 0.104 0 0.197 0.049 0.256 0.126l0.001 0.001c0.045 0.056 0.072 0.127 0.072 0.205 0 0.103-0.048 0.195-0.123 0.255h-0.001c-0.504 0.331-1.121 0.528-1.785 0.528-0.047 0-0.095-0.001-0.142-0.003h0.007c-0.049 0.003-0.107 0.004-0.165 0.004-0.651 0-1.256-0.203-1.753-0.549l0.010 0.007c-0.071-0.060-0.116-0.15-0.116-0.25 0-0.181 0.146-0.327 0.327-0.327 0.081 0 0.155 0.029 0.212 0.078v0c0.386 0.243 0.855 0.387 1.358 0.387 0.045 0 0.089-0.001 0.133-0.003h-0.006c0.033 0.001 0.072 0.002 0.111 0.002 0.522 0 1.010-0.149 1.423-0.406l-0.011 0.007zM19.469 20.595c0 0.919-0.745 1.664-1.664 1.664s-1.664-0.745-1.664-1.664c0-0.919 0.745-1.664 1.664-1.664v0c0.919 0 1.664 0.745 1.664 1.664v0zM16.806 20.595c0.004 0.552 0.452 0.998 1.005 0.998 0.555 0 1.005-0.45 1.005-1.005s-0.45-1.005-1.005-1.005c-0.002 0-0.005 0-0.007 0v0c-0.553 0.007-0.998 0.457-0.998 1.011 0 0 0 0 0 0v0zM13.158 16.422c-0.071-0.060-0.117-0.149-0.117-0.249 0-0.081 0.030-0.155 0.079-0.212v0c0.062-0.069 0.151-0.112 0.251-0.112 0.080 0 0.153 0.028 0.211 0.074l-0.001-0.001c0.383 0.243 0.85 0.388 1.35 0.388 0.047 0 0.094-0.001 0.141-0.004h-0.007c0.036 0.002 0.077 0.003 0.119 0.003 0.516 0 0.996-0.149 1.402-0.406l-0.011 0.006c0.055-0.039 0.123-0.062 0.196-0.062 0.107 0 0.202 0.049 0.264 0.126v0.001c0.042 0.054 0.067 0.122 0.067 0.197 0 0.016-0.001 0.032-0.004 0.048v-0.002c-0.015 0.089-0.062 0.164-0.127 0.217l-0.001 0.001c-0.497 0.331-1.108 0.528-1.765 0.528-0.050 0-0.1-0.001-0.15-0.003h0.007c-0.051 0.003-0.111 0.005-0.172 0.005-0.649 0-1.251-0.203-1.745-0.549l0.010 0.007zM19.418 13.67c0.021 0.042 0.033 0.091 0.033 0.143 0 0.129-0.076 0.24-0.185 0.292l-0.002 0.001-1.267 0.614c-0.041 0.019-0.089 0.030-0.139 0.030-0.084 0-0.161-0.031-0.22-0.082v0c-0.064-0.064-0.103-0.151-0.103-0.249 0-0.035 0.005-0.068 0.014-0.1l-0.001 0.002 0.358-1.050-0.678 0.371c-0.042 0.021-0.092 0.034-0.145 0.034-0.125 0-0.234-0.070-0.29-0.173l-0.001-0.002c-0.025-0.045-0.040-0.098-0.040-0.155 0-0.121 0.067-0.226 0.167-0.279l0.002-0.001 1.408-0.755c0.046-0.026 0.1-0.041 0.158-0.041 0.082 0 0.156 0.030 0.214 0.079v0c0.069 0.059 0.112 0.145 0.112 0.242 0 0.042-0.008 0.082-0.023 0.119l0.001-0.002-0.371 1.088 0.563-0.282c0.040-0.019 0.087-0.029 0.137-0.029 0.129 0 0.242 0.074 0.297 0.181l0.001 0.002zM16.205 24.307c-0.006 0-0.013 0-0.020 0-4.609 0-8.346-3.736-8.346-8.346s3.736-8.346 8.346-8.346c1.109 0 2.167 0.216 3.135 0.609l-0.056-0.020c0.080 0.036 0.143 0.099 0.178 0.177l0.001 0.002c0.012 0.036 0.019 0.078 0.019 0.122s-0.007 0.085-0.020 0.124l0.001-0.003c-0.036 0.080-0.099 0.143-0.177 0.178l-0.002 0.001c-0.035 0.018-0.077 0.029-0.122 0.029s-0.086-0.011-0.123-0.029l0.002 0.001c-0.834-0.336-1.802-0.533-2.814-0.538h-0.002c-0.008 0-0.018 0-0.028 0-4.242 0-7.68 3.438-7.68 7.68s3.438 7.68 7.68 7.68c4.242 0 7.68-3.438 7.68-7.68 0-1.306-0.326-2.536-0.901-3.612l0.020 0.041-1.792 0.883c-0.044 0.022-0.095 0.035-0.149 0.035-0.079 0-0.152-0.028-0.21-0.074h0.001c-0.069-0.059-0.112-0.145-0.112-0.242 0-0.042 0.008-0.082 0.023-0.119l-0.001 0.002 0.614-1.805-1.28 0.678c-0.044 0.025-0.097 0.040-0.153 0.040-0.125 0-0.232-0.073-0.282-0.179l-0.001-0.002c-0.024-0.044-0.039-0.097-0.039-0.153 0-0.121 0.067-0.226 0.165-0.281l0.002-0.001 2.010-1.075c0.044-0.017 0.095-0.027 0.148-0.027 0.083 0 0.16 0.024 0.225 0.067l-0.002-0.001c0.010 0.020 0.023 0.037 0.038 0.051v0c1.441 1.498 2.329 3.537 2.329 5.784 0 4.596-3.714 8.324-8.305 8.347h-0.002zM22.054 11.008l-0.448 1.318 1.037-0.512c-0.193-0.305-0.387-0.568-0.598-0.817l0.009 0.011zM20.25 9.37c-0.182-0.004-0.329-0.15-0.333-0.332v0c0.004-0.178 0.149-0.32 0.328-0.32 0.002 0 0.004 0 0.005 0v0c0.001 0 0.002 0 0.003 0 0.175 0 0.317 0.142 0.317 0.317 0 0.001 0 0.002 0 0.003v0c0 0.002 0 0.003 0 0.005 0 0.178-0.142 0.323-0.32 0.328v0z"></path>
</svg>
