<!-- Generated by IcoMoon.io -->
<svg version="1.1" xmlns="http://www.w3.org/2000/svg" width="32" height="32" viewBox="0 0 32 32">
<title>da_tpkrwjd</title>
<path fill="#ccf8dd" d="M32 16c0 8.837-7.163 16-16 16s-16-7.163-16-16c0-8.837 7.163-16 16-16s16 7.163 16 16z"></path>
<path fill="#00b845" d="M24 16.038h-1.114v-5.568c-0.001-1.23-0.997-2.226-2.227-2.227h-1.114c-1.23 0.001-2.226 0.997-2.227 2.227v3.341h-3.341c0.001-1.23 0.997-2.226 2.227-2.227v0-0.55c0-2.153 1.745-3.898 3.898-3.898s3.898 1.745 3.898 3.898v0 0.55c1.23 0 2.227 0.997 2.227 2.227s-0.997 2.227-2.227 2.227v0zM20.659 17.152v3.341c-0.001 1.23-0.997 2.226-2.227 2.227h-4.378l-2.304 1.114v-1.114c-1.23-0.001-2.226-0.997-2.227-2.227v-3.341c0.001-1.23 0.997-2.226 2.227-2.227h6.682c1.23 0.001 2.226 0.997 2.227 2.227v0zM10.637 17.152v3.341c0.001 0.615 0.499 1.113 1.114 1.114v0 1.114l2.189-1.114h4.493c0.615-0.001 1.113-0.499 1.114-1.114v-3.341c-0.001-0.615-0.499-1.113-1.114-1.114h-6.682c-0.615 0.001-1.113 0.499-1.114 1.114v0z"></path>
</svg>
