<!-- Generated by IcoMoon.io -->
<svg version="1.1" xmlns="http://www.w3.org/2000/svg" width="32" height="32" viewBox="0 0 32 32">
<title>de_calendar</title>
<path fill="#34495e" d="M29.282 31.059h-26.445c-1.544-0.038-2.788-1.279-2.829-2.819v-22.591c0.042-1.544 1.285-2.784 2.825-2.823h6.625v-0.941c-0.001-0.018-0.002-0.040-0.002-0.060 0-0.488 0.395-0.883 0.883-0.883 0.022 0 0.043 0.001 0.065 0.003h-0.003c0.015-0.001 0.034-0.002 0.052-0.002 0.493 0 0.893 0.4 0.893 0.893 0 0.018-0.001 0.035-0.002 0.052v-0.003 0.941h9.431v-0.941c-0.001-0.015-0.001-0.032-0.001-0.050 0-0.493 0.4-0.893 0.893-0.893 0.018 0 0.036 0.001 0.054 0.002h-0.003c0.019-0.002 0.040-0.002 0.062-0.002 0.488 0 0.883 0.395 0.883 0.883 0 0.022-0.001 0.042-0.002 0.063v-0.003 0.941h6.621c1.544 0.040 2.787 1.279 2.829 2.819v22.586c-0.040 1.546-1.283 2.789-2.825 2.827h-0.004zM30.225 5.653c0.001-0.015 0.001-0.032 0.001-0.050 0-0.493-0.4-0.893-0.893-0.893-0.018 0-0.036 0.001-0.054 0.002h-6.618v0.941c0.002 0.019 0.002 0.040 0.002 0.062 0 0.487-0.394 0.881-0.881 0.881-0.023 0-0.045-0.001-0.068-0.003h0.003c-0.016 0.001-0.035 0.002-0.054 0.002-0.492 0-0.891-0.399-0.891-0.891 0-0.018 0.001-0.037 0.002-0.055v0.003-0.941h-9.431v0.941c0.001 0.015 0.002 0.034 0.002 0.052 0 0.492-0.399 0.891-0.891 0.891-0.019 0-0.038-0.001-0.056-0.002h0.003c-0.020 0.002-0.041 0.003-0.064 0.003-0.487 0-0.881-0.394-0.881-0.881 0-0.022 0.001-0.044 0.003-0.066v0.003-0.941h-6.621c-0.015-0.001-0.033-0.002-0.052-0.002-0.493 0-0.893 0.4-0.893 0.893 0 0.018 0.001 0.035 0.002 0.052v-0.003 2.824h28.331v-2.824zM30.225 10.358h-28.331v17.878c-0.001 0.015-0.002 0.034-0.002 0.052 0 0.492 0.399 0.891 0.891 0.891 0.019 0 0.038-0.001 0.056-0.002h26.442c0.016 0.001 0.035 0.002 0.054 0.002 0.492 0 0.891-0.399 0.891-0.891 0-0.018-0.001-0.037-0.002-0.055v0.003-17.878zM21.717 21.651h3.792v1.88h-3.792v-1.88zM21.717 16.004h3.792v1.882h-3.792v-1.876zM14.173 21.651h3.772v1.88h-3.772v-1.88zM14.173 16.004h3.772v1.882h-3.772v-1.876zM6.608 21.651h3.792v1.88h-3.792v-1.88zM6.608 16.004h3.792v1.882h-3.792v-1.876z"></path>
</svg>
