<!-- Generated by IcoMoon.io -->
<svg version="1.1" xmlns="http://www.w3.org/2000/svg" width="32" height="32" viewBox="0 0 32 32">
<title>de_inf</title>
<path fill="#eace49" d="M32.047 27.653c0 1.206-0.978 2.185-2.185 2.185v0h-27.676c-1.204-0.003-2.178-0.981-2.178-2.185 0-0.726 0.354-1.368 0.898-1.765l0.006-0.004 12.927-22.264h0.131c0.306-0.855 1.11-1.456 2.054-1.456s1.748 0.601 2.049 1.442l0.005 0.016h0.131l12.927 22.264c0.553 0.4 0.91 1.043 0.911 1.77v0zM16.023 26.925c0.804 0 1.456-0.652 1.456-1.456s-0.652-1.456-1.456-1.456c-0.804 0-1.456 0.652-1.456 1.456v0c0.003 0.803 0.653 1.454 1.456 1.456v0zM16.023 10.173c-1.207 0-2.185 0.978-2.185 2.185v0l0.728 8.011c0 0.804 0.652 1.456 1.456 1.456s1.456-0.652 1.456-1.456v0l0.728-8.011c0-1.207-0.978-2.185-2.185-2.185v0z"></path>
</svg>
