<!-- Generated by IcoMoon.io -->
<svg version="1.1" xmlns="http://www.w3.org/2000/svg" width="32" height="32" viewBox="0 0 32 32">
<title>de_show</title>
<path fill="#3498db" d="M22.452 0.001h-18.054c-0.021-0.001-0.046-0.001-0.072-0.001-1.257 0-2.28 0.998-2.321 2.245v27.506c0.042 1.251 1.066 2.249 2.323 2.249 0.025 0 0.049 0 0.073-0.001h22.836c0.020 0.001 0.043 0.001 0.066 0.001 1.262 0 2.292-0.995 2.348-2.244v-21.843l-7.2-7.905zM25.528 7.355h-3.162v-3.619l3.162 3.619zM26.789 29.576h-21.879c-0.014 0.002-0.030 0.003-0.046 0.003-0.172 0-0.317-0.117-0.359-0.276l-0.001-0.003v-26.631c0.043-0.161 0.188-0.279 0.36-0.279 0.016 0 0.032 0.001 0.048 0.003h14.869v5.803c0.012 1.065 0.878 1.923 1.944 1.923 0.008 0 0.015 0 0.023 0h5.426v19.168c-0.039 0.161-0.183 0.279-0.353 0.279-0.011 0-0.022 0-0.033-0.001h0.001zM17.666 9.74c0 0.001 0 0.001 0 0.002 0 0.34-0.139 0.647-0.363 0.867v0c-0.226 0.221-0.535 0.359-0.876 0.361h-6.774c-0.453-0.002-0.849-0.246-1.065-0.61l-0.003-0.006c-0.111-0.175-0.176-0.387-0.176-0.615s0.066-0.441 0.179-0.62l-0.003 0.005c0.219-0.369 0.615-0.612 1.068-0.613h6.773c0.684 0.003 1.239 0.548 1.261 1.227v0.002h-0.021zM23.563 15.85c0 0.001 0 0.002 0 0.004 0 0.339-0.139 0.646-0.363 0.866v0c-0.228 0.222-0.539 0.359-0.883 0.359-0.005 0-0.010 0-0.015 0h-12.541c-0.459-0.002-0.861-0.244-1.087-0.608l-0.003-0.006c-0.101-0.177-0.16-0.389-0.16-0.615s0.059-0.438 0.164-0.622l-0.003 0.006c0.228-0.37 0.63-0.613 1.089-0.615h12.542c0.006 0 0.012 0 0.019 0 0.682 0 1.235 0.55 1.241 1.23v0.001zM23.563 21.959c0 0.001 0 0.003 0 0.004 0 0.34-0.139 0.647-0.363 0.867v0c-0.23 0.222-0.544 0.359-0.89 0.359-0.003 0-0.005 0-0.008 0h-12.541c-0.459-0.002-0.862-0.245-1.087-0.61l-0.003-0.006c-0.101-0.177-0.16-0.389-0.16-0.614s0.059-0.437 0.163-0.62l-0.003 0.006c0.228-0.37 0.63-0.613 1.089-0.615h12.542c0.006 0 0.014 0 0.021 0 0.681 0 1.233 0.549 1.239 1.228v0.001z"></path>
</svg>
