<!-- Generated by IcoMoon.io -->
<svg version="1.1" xmlns="http://www.w3.org/2000/svg" width="32" height="32" viewBox="0 0 32 32">
<title>de_save</title>
<path fill="#333" d="M24.626 17.141l-14.856 14.276c-0.339 0.327-0.801 0.529-1.309 0.531v0c-0.002 0-0.003 0-0.005 0-0.498 0-0.951-0.194-1.287-0.511l0.001 0.001c-0.331-0.309-0.537-0.747-0.537-1.234s0.206-0.925 0.536-1.233l0.001-0.001 13.57-13.036-13.703-12.903c-0.331-0.309-0.537-0.747-0.537-1.234s0.206-0.925 0.536-1.233l0.001-0.001c0.339-0.317 0.795-0.512 1.298-0.512s0.959 0.195 1.299 0.513l-0.001-0.001 15.007 14.136c0.319 0.307 0.517 0.738 0.517 1.214 0 0.483-0.204 0.919-0.53 1.226l-0.001 0.001z"></path>
</svg>
