<!-- Generated by IcoMoon.io -->
<svg version="1.1" xmlns="http://www.w3.org/2000/svg" width="32" height="32" viewBox="0 0 32 32">
<title>img_kc</title>
<path fill="#f5bf2d" d="M30.449 31.341c-0.417 0.405-0.985 0.656-1.613 0.659h-25.555c-0.628-0.003-1.196-0.254-1.614-0.659l0.001 0.001c-0.412-0.399-0.668-0.957-0.668-1.575 0-0.002 0-0.004 0-0.006v0-25.958c0.006-0.619 0.261-1.177 0.668-1.581v0c0.417-0.405 0.985-0.656 1.613-0.659h2.224c0.003 0 0.007 0 0.011 0 0.624 0 1.129 0.506 1.129 1.129 0 0 0 0 0 0v0c-0.011 0.616-0.512 1.111-1.129 1.111-0.004 0-0.008 0-0.012 0h-1.317c-0.499 0.002-0.904 0.405-0.909 0.903v6.739h25.555v-6.739c-0.005-0.499-0.41-0.901-0.909-0.904h-1.318c-0.003 0-0.007 0-0.011 0-0.617 0-1.119-0.495-1.129-1.11v-0.001c0 0 0 0 0 0 0-0.624 0.506-1.129 1.129-1.129 0.004 0 0.008 0 0.012 0h2.222c0.628 0.003 1.196 0.254 1.614 0.659l-0.001-0.001c0.408 0.404 0.662 0.962 0.668 1.58v25.959c0 0.004 0 0.009 0 0.013 0 0.614-0.253 1.17-0.66 1.568v0zM28.836 13.685h-25.555v15.191c0.006 0.49 0.405 0.885 0.896 0.885 0.005 0 0.009 0 0.014 0h23.736c0.004 0 0.009 0 0.013 0 0.491 0 0.89-0.395 0.896-0.884v-15.191zM25.414 26.165h-18.711c-0.044 0.006-0.094 0.009-0.146 0.009-0.624 0-1.129-0.506-1.129-1.129s0.506-1.129 1.129-1.129c0.051 0 0.102 0.003 0.151 0.010l-0.006-0.001h18.711c0.044-0.006 0.094-0.009 0.145-0.009 0.624 0 1.129 0.506 1.129 1.129s-0.506 1.129-1.129 1.129c-0.051 0-0.102-0.003-0.151-0.010l0.006 0.001zM25.414 19.915h-18.711c-0.003 0-0.007 0-0.011 0-0.617 0-1.119-0.495-1.129-1.11v-0.001c0 0 0 0 0 0 0-0.624 0.506-1.129 1.129-1.129 0.004 0 0.008 0 0.012 0h18.71c0.003 0 0.007 0 0.011 0 0.624 0 1.129 0.506 1.129 1.129 0 0 0 0 0 0v0c-0.011 0.616-0.512 1.111-1.129 1.111-0.004 0-0.008 0-0.012 0h0.001zM23.46 5.384c-0.003 0-0.007 0-0.011 0-0.624 0-1.129-0.506-1.129-1.129 0 0 0 0 0 0v0-3.125c0-0.63 0.511-1.141 1.141-1.141s1.141 0.511 1.141 1.141v0 3.125c0 0 0 0 0 0 0 0.624-0.506 1.129-1.129 1.129-0.004 0-0.008 0-0.012 0h0.001zM20.311 3.802h-8.504c-0.003 0-0.007 0-0.011 0-0.617 0-1.119-0.495-1.129-1.11v-0.001c0 0 0 0 0 0 0-0.624 0.506-1.129 1.129-1.129 0.004 0 0.008 0 0.012 0h8.504c0.003 0 0.007 0 0.011 0 0.624 0 1.129 0.506 1.129 1.129 0 0 0 0 0 0v0c-0.011 0.616-0.512 1.111-1.129 1.111-0.004 0-0.008 0-0.012 0h0.001zM8.657 5.384c-0.003 0-0.007 0-0.011 0-0.624 0-1.129-0.506-1.129-1.129 0 0 0 0 0 0v0-3.125c0-0.63 0.511-1.141 1.141-1.141s1.141 0.511 1.141 1.141v0 3.125c0 0 0 0 0 0 0 0.624-0.506 1.129-1.129 1.129-0.004 0-0.008 0-0.012 0h0.001z"></path>
</svg>
