<!-- Generated by IcoMoon.io -->
<svg version="1.1" xmlns="http://www.w3.org/2000/svg" width="32" height="32" viewBox="0 0 32 32">
<title>img_sk</title>
<path fill="#3aa1ff" d="M31.316 16.758h-5.817c-1.268-2.787-3.66-4.875-6.58-5.709l-0.073-0.018c1.871-0.991 3.123-2.925 3.123-5.152 0-3.209-2.601-5.811-5.811-5.811s-5.811 2.601-5.811 5.811c0 2.227 1.253 4.161 3.092 5.137l0.031 0.015c-2.993 0.851-5.384 2.939-6.626 5.662l-0.026 0.065h-5.819v2.543h2.105v12.699h2.526v-12.699h21.053v12.699h2.526v-12.699h2.105v-2.543zM16.158 2.543c0.005 0 0.012 0 0.019 0 1.823 0 3.301 1.478 3.301 3.301s-1.478 3.301-3.301 3.301c-1.823 0-3.301-1.478-3.301-3.301v0c-0.001-0.025-0.001-0.055-0.001-0.085 0-1.777 1.44-3.217 3.217-3.217 0.024 0 0.047 0 0.070 0.001h-0.004zM16.158 13.204c2.706 0.011 5.083 1.411 6.456 3.524l0.018 0.030h-12.947c1.391-2.142 3.767-3.542 6.471-3.554h0.002z"></path>
</svg>
