<!-- Generated by IcoMoon.io -->
<svg version="1.1" xmlns="http://www.w3.org/2000/svg" width="32" height="32" viewBox="0 0 32 32">
<title>img_ssb</title>
<path fill="#f47a8f" d="M25.478 28.488h-3.673c-0.528 0-0.955-0.428-0.955-0.955s0.428-0.955 0.955-0.955h3.673c2.654-0.002 4.807-2.15 4.816-4.803v-12.034c-0.052-2.406-2.015-4.336-4.428-4.336-0.137 0-0.272 0.006-0.404 0.018l0.017-0.002h-12.751c-0.045-0.002-0.098-0.002-0.151-0.002-2.053 0-3.8 1.303-4.46 3.128l-0.010 0.033c-0.168 0.433-0.581 0.734-1.065 0.734-0.008 0-0.015 0-0.023 0h0.001c-0.080-0.002-0.156-0.013-0.229-0.031l0.008 0.002c-0.407-0.101-0.702-0.462-0.702-0.893 0-0.091 0.013-0.177 0.037-0.26l-0.002 0.006c0.803-2.704 3.266-4.642 6.181-4.642 0.151 0 0.301 0.005 0.45 0.016l-0.020-0.001h12.739c0.030-0.001 0.065-0.001 0.1-0.001 1.817 0 3.476 0.674 4.742 1.786l-0.008-0.007c1.235 1.090 2.010 2.676 2.010 4.443 0 0.003 0 0.006 0 0.009v-0.001 12.032c-0.085 3.719-3.115 6.703-6.843 6.714h-0.001zM27.12 10.402h-7.434c-0.015 0.001-0.032 0.002-0.049 0.002-0.455 0-0.824-0.369-0.824-0.824s0.369-0.824 0.824-0.824c0.017 0 0.034 0.001 0.052 0.002h7.437c0.014-0.001 0.030-0.002 0.046-0.002 0.455 0 0.824 0.369 0.824 0.824s-0.369 0.824-0.824 0.824c-0.018 0-0.037-0.001-0.055-0.002h0.002zM27.278 14.222h-5.609c-0.404-0.061-0.711-0.406-0.711-0.823s0.307-0.762 0.706-0.822l0.005-0.001h5.609c0.404 0.061 0.711 0.406 0.711 0.823s-0.307 0.762-0.706 0.822l-0.005 0.001zM4.003 14.193l-4.003-1.367 10.156-3.482 10.156 3.482-4.003 1.367v1.88c-0.035 0.409-0.258 0.759-0.582 0.966l-0.005 0.003c0.002 0.018 0.002 0.038 0.002 0.059s-0.001 0.041-0.002 0.062v-0.002c0.001 0.037 0.002 0.081 0.002 0.126 0 1.705-0.891 3.202-2.233 4.050l-0.020 0.012c1.686 0.642 3.027 1.869 3.802 3.426l0.018 0.041 5.521-7.404c0.089-0.105 0.22-0.173 0.367-0.176h0.001c0.095 0.002 0.183 0.029 0.259 0.075l-0.002-0.002 0.596 0.396c0.090 0.068 0.155 0.165 0.18 0.276l0.001 0.003c0.005 0.023 0.009 0.051 0.009 0.079 0 0.094-0.034 0.18-0.091 0.245l0.001-0.001-6.213 8.33c0.013 0.059 0.043 0.118 0.055 0.176 0.025 0.084 0.040 0.18 0.041 0.279v0.001c0.005 0.030 0.007 0.066 0.007 0.101 0 0.407-0.317 0.74-0.717 0.766h-0.114c-0.33-0.005-0.613-0.2-0.745-0.48l-0.002-0.005h-0.082v-0.191c-0.016-0.051-0.028-0.111-0.035-0.172v-0.034c-0.536-3.1-2.601-4.672-6.117-4.672-3.313 0-5.751 1.822-6.206 4.657-0.026 0.443-0.392 0.794-0.839 0.794-0.003 0-0.006 0-0.009 0h-0.099c-0.405-0.040-0.719-0.379-0.719-0.791 0-0.006 0-0.012 0-0.018v0.001h-0.030l0.035-0.206c-0.002-0.007-0.002-0.014-0.002-0.022s0.001-0.016 0.002-0.023v0.001c0.413-2.537 2.146-4.589 4.457-5.449l0.048-0.016c-1.361-0.855-2.252-2.347-2.252-4.048 0-0.044 0.001-0.087 0.002-0.131v0.006c-0.002-0.020-0.002-0.043-0.002-0.066s0.001-0.046 0.002-0.069v0.003c-0.325-0.208-0.548-0.552-0.587-0.95l-0.001-0.005v-1.88zM10.156 20.834c0.040 0.002 0.086 0.002 0.133 0.002 1.794 0 3.305-1.216 3.753-2.869l0.006-0.027c-1.126 0.464-2.432 0.756-3.799 0.808l-0.021 0.001c-1.439-0.050-2.796-0.347-4.047-0.852l0.080 0.028c0.45 1.688 1.965 2.911 3.765 2.911 0.045 0 0.091-0.001 0.137-0.002h-0.006zM5.844 15.75c0.063 0.044 0.216 0.132 0.32 0.191 0.115 0.053 0.211 0.107 0.303 0.167l-0.009-0.005c0.048 0.033 0.106 0.066 0.165 0.098l0.011 0.005c1.023 0.531 2.233 0.845 3.515 0.852h0.002c1.284-0.010 2.493-0.318 3.565-0.859l-0.046 0.021 0.182-0.103v-0.015c0.104-0.066 0.224-0.13 0.35-0.184l0.017-0.007c0.1-0.059 0.245-0.132 0.31-0.176v-0.793l-4.389 1.395-4.312-1.396v0.808zM10.145 14.663l5.638-1.837-5.638-1.851-5.609 1.851z"></path>
</svg>
