<!-- Generated by IcoMoon.io -->
<svg version="1.1" xmlns="http://www.w3.org/2000/svg" width="32" height="32" viewBox="0 0 32 32">
<title>img_jxb</title>
<path fill="#f5bf2d" d="M9.066 14.595c0.025-0.226 0.214-0.399 0.444-0.399 0.212 0 0.389 0.148 0.436 0.346l0.001 0.003c-0.021 1.054-0.085 2.041-0.15 2.979-0.080 0.943-0.209 1.795-0.389 2.628l0.024-0.134c-0.065 0.228-0.271 0.392-0.516 0.392-0.030 0-0.060-0.003-0.090-0.007h0.004c-0.279-0.050-0.364-0.251-0.279-0.569 0.143-0.644 0.257-1.422 0.319-2.215l0.004-0.060q0.129-1.18 0.194-2.962zM5.435 14.862c-0.018 0.004-0.039 0.005-0.060 0.005-0.205 0-0.372-0.166-0.372-0.372 0-0.012 0.001-0.025 0.002-0.036v0.002c0-0.004 0-0.008 0-0.012 0-0.234 0.189-0.423 0.423-0.423 0.003 0 0.004 0 0.007 0h2.836c0.207 0.026 0.365 0.2 0.365 0.412 0 0.008 0 0.016-0.001 0.024v-0.001c0.001 0.012 0.002 0.025 0.002 0.038 0 0.201-0.163 0.363-0.363 0.363-0.001 0-0.003 0-0.004 0h-1.076v3.012h0.836c0.205 0.012 0.368 0.18 0.368 0.388 0 0.011-0.001 0.021-0.001 0.032v-0.002c0.001 0.012 0.002 0.025 0.002 0.038 0 0.201-0.163 0.363-0.363 0.363-0.002 0-0.004 0-0.005 0h-0.836v2.962c0.134-0.099 0.288-0.198 0.448-0.289l0.024-0.012c0.142-0.056 0.263-0.135 0.365-0.235v0c0.080-0.067 0.184-0.108 0.297-0.108 0.139 0 0.263 0.060 0.348 0.157v0.001c0.060 0.073 0.096 0.167 0.096 0.269 0 0.144-0.072 0.272-0.182 0.348l-0.002 0.001c-0.928 0.661-2.022 1.16-3.204 1.428l-0.060 0.012c-0.031 0.007-0.068 0.011-0.104 0.011-0.231 0-0.428-0.15-0.497-0.358l-0.001-0.004c0-0.001 0-0.001 0-0.002 0-0.245 0.188-0.446 0.428-0.467h0.002c0.42-0.077 0.796-0.199 1.147-0.364l-0.028 0.012v-3.347h-0.749c-0.021 0.004-0.046 0.007-0.072 0.007-0.197 0-0.358-0.16-0.358-0.358 0-0.012 0.001-0.024 0.002-0.036v0.002c-0.001-0.011-0.002-0.022-0.002-0.035 0-0.222 0.18-0.402 0.402-0.402 0.010 0 0.020 0 0.029 0.001h0.752v-3.028h-0.836zM10.998 13.859c0.232 0.001 0.423 0.175 0.452 0.399v5.24c0.020 0.154 0.033 0.332 0.033 0.512 0 1.928-1.356 3.54-3.165 3.933l-0.027 0.004c-0.060 0.022-0.131 0.035-0.204 0.035-0.237 0-0.444-0.135-0.546-0.332l-0.002-0.004c-0.007-0.032-0.012-0.068-0.012-0.106 0-0.252 0.194-0.459 0.44-0.48h0.002c1.482-0.29 2.585-1.578 2.585-3.123 0-0.149-0.011-0.297-0.030-0.441l0.002 0.017v-5.254c0.006-0.225 0.19-0.405 0.417-0.405 0.020 0 0.039 0.002 0.058 0.004h-0.002zM15.572 22.844c0.006 0 0.013-0.001 0.020-0.001 0.227 0 0.41 0.183 0.41 0.41 0 0.009 0 0.018-0.001 0.027v-0.001c0 0.007 0.001 0.015 0.001 0.024 0 0.241-0.191 0.436-0.43 0.444h-3.888c-0.004 0-0.007 0-0.011 0-0.233 0-0.421-0.188-0.421-0.421 0-0.017 0.001-0.033 0.003-0.049v0.002c-0.003-0.017-0.004-0.037-0.004-0.057 0-0.211 0.171-0.381 0.381-0.381 0.019 0 0.037 0.002 0.055 0.004h1.588v-3.664h-1.031c-0.018 0.003-0.037 0.004-0.059 0.004-0.207 0-0.375-0.168-0.375-0.375 0-0.017 0.001-0.034 0.004-0.050v0.002c-0.001-0.010-0.002-0.021-0.002-0.033 0-0.223 0.18-0.404 0.404-0.404 0.010 0 0.020 0 0.029 0.001h1.030v-3.38h-0.988c-0.020 0.003-0.042 0.004-0.064 0.004-0.234 0-0.426-0.177-0.451-0.404v-0.002c0.034-0.247 0.244-0.436 0.498-0.436 0.006 0 0.012 0 0.019 0h3.156c0.207 0.019 0.368 0.191 0.368 0.402 0 0.012-0.001 0.023-0.002 0.035v-0.002c0.001 0.012 0.002 0.025 0.002 0.038 0 0.201-0.163 0.363-0.363 0.363-0.002 0-0.004 0-0.005 0h-1.267v3.347h0.924c0.234 0.012 0.42 0.2 0.43 0.434v0.001c0.001 0.012 0.002 0.025 0.002 0.038 0 0.22-0.179 0.398-0.398 0.398-0.012 0-0.023-0.001-0.036-0.002h-0.922v3.681h1.396zM30.673 17.088c-0.006 0-0.014 0-0.022 0-0.596 0-1.081-0.476-1.094-1.070v-5.523h-27.301v14.34c0.028 1.799 1.494 3.247 3.298 3.247 0.027 0 0.053 0 0.080-0.001h11.225c0.477-2.386 2.113-4.304 4.283-5.171l0.047-0.017c-0.884-0.716-1.45-1.796-1.464-3.010v-0.003c0.213-2.274 2.113-4.039 4.424-4.039 2.317 0 4.22 1.774 4.424 4.039l0.001 0.017c-0.015 1.176-0.554 2.224-1.393 2.923l-0.006 0.005c2.627 0.98 4.479 3.435 4.556 6.332v0.009c0 0.593-0.481 1.074-1.074 1.074s-1.074-0.481-1.074-1.074v0c-0.286-2.726-2.573-4.833-5.351-4.833-2.66 0-4.868 1.931-5.302 4.467l-0.004 0.032c0.036 0.094 0.060 0.203 0.065 0.316v0.002c-0.007 0.593-0.49 1.071-1.084 1.071-0.012 0-0.023 0-0.036-0.001h-12.241c-0.045 0.002-0.099 0.002-0.152 0.002-2.983 0-5.409-2.384-5.476-5.35v-17.708c0.066-2.99 2.506-5.389 5.505-5.389 0.044 0 0.087 0.001 0.13 0.002h20.508c0.041-0.001 0.090-0.002 0.139-0.002 3.001 0 5.442 2.398 5.51 5.383v8.858c-0.013 0.595-0.498 1.071-1.094 1.071-0.008 0-0.017 0-0.025 0h0.001zM24.148 17.908c-0.996 0.133-1.756 0.978-1.756 1.999 0 1.114 0.903 2.016 2.016 2.016s2.016-0.903 2.016-2.016c0-0.003 0-0.006 0-0.009v0c-0.077-1.118-1.003-1.996-2.133-1.996-0.050 0-0.099 0.002-0.147 0.005h0.006zM26.182 3.919h-2.858v2.292c0 0.593-0.481 1.074-1.074 1.074s-1.074-0.481-1.074-1.074v0-2.292h-10.782v2.292c-0.012 0.575-0.48 1.037-1.057 1.037-0.006 0-0.012 0-0.018 0h0.001c-0.010 0-0.020 0.001-0.032 0.001-0.574 0-1.040-0.464-1.043-1.037v-2.292h-2.617c-0.019 0-0.042-0.001-0.064-0.001-1.805 0-3.274 1.446-3.309 3.244v1.191h27.301v-1.188c-0.036-1.801-1.503-3.246-3.309-3.246-0.022 0-0.045 0-0.068 0.001h0.004z"></path>
</svg>
