<!-- Generated by IcoMoon.io -->
<svg version="1.1" xmlns="http://www.w3.org/2000/svg" width="32" height="32" viewBox="0 0 32 32">
<title>imgDown</title>
<path fill="#f47a8f" d="M17.975 1.86v23.815l8.65-8.984c0.333-0.346 0.8-0.561 1.317-0.561 1.010 0 1.828 0.818 1.828 1.828 0 0.492-0.195 0.939-0.511 1.268l0.001-0.001-11.77 12.221c-0.335 0.341-0.802 0.553-1.317 0.553s-0.982-0.211-1.317-0.552v0l-11.842-12.297c-0.311-0.322-0.502-0.76-0.502-1.244 0-0.004 0-0.008 0-0.012v0.001c0-0.003 0-0.007 0-0.011 0-1.010 0.819-1.829 1.829-1.829 0.517 0 0.984 0.215 1.317 0.56l0.001 0.001 8.648 8.984v-23.79c0.005-0.965 0.76-1.751 1.712-1.807h0.005c0.032-0.002 0.070-0.003 0.108-0.003 1.019 0 1.845 0.826 1.845 1.845 0 0.006 0 0.011 0 0.017v-0.001z"></path>
</svg>
