<!-- Generated by IcoMoon.io -->
<svg version="1.1" xmlns="http://www.w3.org/2000/svg" width="32" height="32" viewBox="0 0 32 32">
<title>jiaoshi</title>
<path fill="#333" d="M23.98 8.98l0.3 0.18 0.3 0.2 0.020 0.34c0.003 0.077 0.005 0.166 0.005 0.257 0 0.813-0.149 1.591-0.42 2.308l0.015-0.045c-0.228 0.563-0.625 1.018-1.128 1.313l-0.012 0.007c-0.324 1.2-0.775 2.251-1.352 3.218l0.032-0.058c-0.631 1.061-1.594 1.869-2.743 2.288l-0.037 0.012c-0.791 0.177-1.699 0.278-2.631 0.278-0.235 0-0.469-0.006-0.701-0.019l0.032 0.001c-0.092 0.003-0.201 0.004-0.31 0.004-1.013 0-1.994-0.133-2.929-0.382l0.079 0.018c-1.077-0.505-1.938-1.321-2.486-2.332l-0.014-0.028c-0.482-0.855-0.892-1.845-1.178-2.887l-0.022-0.093c-0.536-0.281-0.949-0.734-1.174-1.283l-0.006-0.017c-0.258-0.666-0.408-1.437-0.408-2.243 0-0.111 0.003-0.222 0.008-0.332l-0.001 0.015v-0.36l0.3-0.18c0.069-0.050 0.148-0.097 0.231-0.136l0.009-0.004c-0.34-4.040-0.22-5.54 1.36-7.24 3.080-2.4 10.12-2.3 13.24-0.14 2.12 1.9 2.26 4.040 1.62 7.34v0zM17.52 20.66l0.040 0.92-0.58 0.9 0.82 5.020 3.28-6.72 5.020-0.18c2.409 2.73 3.88 6.337 3.88 10.289 0 0.391-0.014 0.779-0.043 1.163l0.003-0.051h-27.94c0.060-3.14 0.68-8.5 3.96-11.24l4.54 0.040 4.24 6.66 0.8-4.98-0.58-0.9 0.040-0.92c0.377-0.029 0.817-0.045 1.26-0.045s0.883 0.016 1.318 0.048l-0.058-0.003zM21.26 7.54c-0.848 0.226-1.821 0.355-2.824 0.355-1.617 0-3.156-0.337-4.549-0.944l0.074 0.029c-0.9-0.48-2.22 0.52-3.3 0.4-0.313 0.594-0.562 1.284-0.711 2.009l-0.009 0.051-0.12 0.6-0.64-0.060c-0.016-0.001-0.036-0.002-0.055-0.002-0.117 0-0.229 0.023-0.331 0.064l0.006-0.002c-0.068 0.012-0.128 0.033-0.184 0.062l0.004-0.002c0 0.006 0 0.012 0 0.019 0 0.583 0.11 1.14 0.311 1.652l-0.011-0.031c0.111 0.326 0.358 0.58 0.672 0.697l0.008 0.003 0.38 0.1 0.1 0.36c0.299 1.143 0.695 2.14 1.196 3.074l-0.036-0.074c0.419 0.779 1.059 1.393 1.836 1.769l0.024 0.011c0.707 0.167 1.52 0.262 2.354 0.262 0.079 0 0.159-0.001 0.238-0.003h-0.012c0.147 0.006 0.32 0.010 0.494 0.010 0.815 0 1.613-0.076 2.386-0.222l-0.080 0.012c0.88-0.326 1.593-0.929 2.050-1.702l0.010-0.018c0.531-0.899 0.958-1.939 1.224-3.042l0.016-0.078 0.1-0.34 0.36-0.12c0.312-0.136 0.55-0.394 0.658-0.712l0.002-0.008c0.179-0.441 0.282-0.952 0.282-1.488 0-0.046-0.001-0.093-0.002-0.139v0.007c-0.043-0.020-0.096-0.040-0.15-0.057l-0.010-0.003c-0.077-0.030-0.166-0.047-0.26-0.047-0.035 0-0.070 0.002-0.104 0.007h0.004l-0.62 0.040-0.12-0.6c-0.149-0.717-0.377-1.352-0.68-1.943l0.020 0.043z"></path>
</svg>
