<!-- Generated by IcoMoon.io -->
<svg version="1.1" xmlns="http://www.w3.org/2000/svg" width="32" height="32" viewBox="0 0 32 32">
<title>jpg</title>
<path fill="#f68052" d="M29.384 31.374c-0.385 0.385-0.917 0.623-1.503 0.626h-23.809c-1.151-0.029-2.073-0.969-2.073-2.124 0-0.018 0-0.036 0.001-0.055v0.003-27.674c0-0.002 0-0.004 0-0.006 0-1.177 0.949-2.132 2.123-2.142h19.521l6.356 6.402v23.47c0 0.003 0 0.006 0 0.010 0 0.582-0.235 1.108-0.616 1.49v0zM13.12 10.4c-0.868 0.039-1.557 0.753-1.557 1.627 0 0.899 0.729 1.628 1.628 1.628s1.628-0.729 1.628-1.628c0 0 0 0 0 0v0c-0.020-0.903-0.757-1.627-1.662-1.627-0.013 0-0.026 0-0.040 0h0.002zM24.664 22.536l-5.576-8.008c-0.11-0.167-0.296-0.276-0.508-0.276s-0.398 0.109-0.507 0.274l-0.001 0.002-4.32 5.666-2.092-2.774c-0.107-0.167-0.292-0.276-0.502-0.276s-0.395 0.109-0.501 0.273l-0.001 0.002-3.32 5.114c-0.28 0.368-0.112 0.665 0.368 0.665h16.596c0.48 0 0.64-0.298 0.364-0.664z"></path>
<path fill="#fff" opacity="0.5" d="M29.944 6.408h-4.176c-1.167-0.003-2.112-0.949-2.112-2.117 0-0.005 0-0.010 0-0.014v0.001-4.277z"></path>
</svg>
