<!-- Generated by IcoMoon.io -->
<svg version="1.1" xmlns="http://www.w3.org/2000/svg" width="32" height="32" viewBox="0 0 32 32">
<title>kechengleibie</title>
<path fill="#8f9094" d="M29.714 13.714h-9.143c-1.262 0-2.286-1.023-2.286-2.286v0-9.143c0-1.262 1.023-2.286 2.286-2.286v0h9.143c1.262 0 2.286 1.023 2.286 2.286v0 9.143c0 1.262-1.023 2.286-2.286 2.286v0zM11.429 32h-9.143c-1.262 0-2.286-1.023-2.286-2.286v0-9.143c0-1.262 1.023-2.286 2.286-2.286v0h9.143c1.262 0 2.286 1.023 2.286 2.286v0 9.143c0 1.262-1.023 2.286-2.286 2.286v0zM11.429 13.714h-9.143c-1.262 0-2.286-1.023-2.286-2.286v0-9.143c0-1.262 1.023-2.286 2.286-2.286v0h9.143c1.262 0 2.286 1.023 2.286 2.286v0 9.143c0 1.262-1.023 2.286-2.286 2.286v0zM19.429 18.286h11.429c0.631 0 1.143 0.512 1.143 1.143s-0.512 1.143-1.143 1.143v0h-11.429c-0.631 0-1.143-0.512-1.143-1.143s0.512-1.143 1.143-1.143v0zM19.429 22.857h6.857c0.631 0 1.143 0.512 1.143 1.143s-0.512 1.143-1.143 1.143v0h-6.857c-0.631 0-1.143-0.512-1.143-1.143s0.512-1.143 1.143-1.143v0zM19.429 27.429h4.571c0.631 0 1.143 0.512 1.143 1.143s-0.512 1.143-1.143 1.143v0h-4.571c-0.631 0-1.143-0.512-1.143-1.143s0.512-1.143 1.143-1.143v0z"></path>
</svg>
