<!-- Generated by IcoMoon.io -->
<svg version="1.1" xmlns="http://www.w3.org/2000/svg" width="32" height="32" viewBox="0 0 32 32">
<title>normal</title>
<path fill="#14cc8f" opacity="0.6" d="M32 15.981c0 0.006 0 0.012 0 0.019 0 8.837-7.163 16-16 16s-16-7.163-16-16c0-8.837 7.163-16 16-16 3.273 0 6.317 0.983 8.852 2.67l-0.059-0.037-0.091 0.091c0.293 0.278 0.476 0.67 0.476 1.106 0 0.841-0.681 1.522-1.522 1.522-0.477 0-0.902-0.219-1.181-0.563l-0.002-0.003c-1.849-1.081-4.071-1.72-6.442-1.72-7.139 0-12.926 5.787-12.926 12.926s5.787 12.926 12.926 12.926c7.139 0 12.926-5.787 12.926-12.926 0-0.004 0-0.008 0-0.012v0.001c-0.001-0.398-0.023-0.79-0.065-1.175l0.004 0.049 0.107-0.030c-0.029-0.11-0.045-0.235-0.046-0.365v-0c-0-0.008-0-0.017-0-0.025 0-0.841 0.681-1.522 1.522-1.522s1.522 0.681 1.522 1.522c0 0.142-0.019 0.279-0.056 0.409l0.003-0.011c0.030 0.38 0.053 0.761 0.053 1.149zM28.872 10.486l0.084 0.167-14.459 14.459-7.61-6.849 0.137-0.137c-0.087-0.179-0.137-0.39-0.137-0.613 0-0.004 0-0.008 0-0.012v0.001c0-0.002 0-0.003 0-0.005 0-0.838 0.679-1.517 1.517-1.517 0.002 0 0.004 0 0.006 0h-0c0.003-0 0.007-0 0.011-0 0.223 0 0.433 0.051 0.621 0.141l-0.009-0.004 0.137-0.137 5.327 5.327 12.937-13.698 0.084 0.16c0.205-0.109 0.447-0.174 0.705-0.174 0.838 0 1.518 0.68 1.518 1.518 0 0.603-0.351 1.123-0.86 1.368l-0.009 0.004z"></path>
</svg>
