<!-- Generated by IcoMoon.io -->
<svg version="1.1" xmlns="http://www.w3.org/2000/svg" width="32" height="32" viewBox="0 0 32 32">
<title>ppt</title>
<path fill="#f69242" d="M29.384 31.374c-0.385 0.385-0.917 0.623-1.503 0.626h-23.809c-1.151-0.029-2.073-0.969-2.073-2.124 0-0.018 0-0.036 0.001-0.055v0.003-27.674c0-0.002 0-0.004 0-0.006 0-1.177 0.949-2.132 2.123-2.142h19.521l6.356 6.402v23.47c0 0.003 0 0.006 0 0.010 0 0.582-0.235 1.108-0.616 1.49v0zM21.148 11.214c-0.511-0.689-1.233-1.197-2.069-1.43l-0.027-0.006c-0.743-0.111-1.6-0.175-2.473-0.175-0.367 0-0.732 0.011-1.093 0.033l0.050-0.002h-4.736v14.367h2.96v-5.403h1.892c0.11 0.002 0.24 0.004 0.37 0.004 0.951 0 1.884-0.074 2.795-0.217l-0.101 0.013c0.582-0.136 1.094-0.375 1.54-0.698l-0.012 0.009c0.523-0.371 0.942-0.853 1.23-1.415l0.010-0.022c0.323-0.61 0.513-1.334 0.513-2.102 0-0.029 0-0.058-0.001-0.087v0.004c0.004-0.069 0.006-0.151 0.006-0.232 0-0.992-0.32-1.91-0.863-2.655l0.009 0.013zM17.652 15.898c-0.564 0.155-1.212 0.244-1.881 0.244-0.159 0-0.316-0.005-0.472-0.015l0.021 0.001h-1.604v-4.080l1.456 0.014c0.119-0.003 0.259-0.005 0.4-0.005 0.609 0 1.21 0.033 1.801 0.098l-0.073-0.006c0.473 0.077 0.881 0.31 1.178 0.644l0.002 0.002c0.291 0.319 0.47 0.745 0.47 1.213 0 0.028-0.001 0.056-0.002 0.085v-0.004c0 0.005 0 0.011 0 0.018 0 0.83-0.537 1.535-1.283 1.787l-0.013 0.004z"></path>
<path fill="#fff" opacity="0.5" d="M29.944 6.408h-4.176c-1.167-0.003-2.112-0.949-2.112-2.117 0-0.005 0-0.010 0-0.014v0.001-4.277z"></path>
</svg>
