<!-- Generated by IcoMoon.io -->
<svg version="1.1" xmlns="http://www.w3.org/2000/svg" width="32" height="32" viewBox="0 0 32 32">
<title>qita</title>
<path fill="#00cd9a" d="M29.382 31.374c-0.385 0.385-0.915 0.624-1.501 0.626h-23.809c-1.151-0.029-2.073-0.968-2.073-2.123 0-0.019 0-0.037 0.001-0.056v0.003-27.673c0-0.002 0-0.004 0-0.006 0-1.176 0.948-2.131 2.122-2.142h19.521l6.357 6.402v23.47c0 0.003 0 0.006 0 0.009 0 0.582-0.236 1.11-0.618 1.491v0zM15.67 24.4c0.017 0.001 0.037 0.001 0.057 0.001 0.759 0 1.374-0.615 1.374-1.374s-0.615-1.374-1.374-1.374c-0.020 0-0.040 0-0.060 0.001h0.003c-0.758 0-1.372 0.614-1.372 1.372s0.614 1.372 1.372 1.372v0zM20.026 9.791q-1.58-1.391-4.244-1.391c-1.696 0-3.060 0.46-4.098 1.392-0.961 0.814-1.594 1.991-1.684 3.317l-0.001 0.015c-0.031 1.17 2.743 0.929 2.856 0.366 0.154-0.811 0.544-1.512 1.095-2.049l0.001-0.001c0.487-0.414 1.123-0.666 1.818-0.666 0.056 0 0.111 0.002 0.167 0.005h-0.008c0.052-0.003 0.113-0.005 0.174-0.005 0.672 0 1.288 0.238 1.768 0.634l-0.005-0.004c0.436 0.375 0.715 0.922 0.732 1.534v0.003c-0.009 0.46-0.172 0.88-0.441 1.212l0.003-0.004c-0.486 0.519-1.013 0.987-1.58 1.405l-0.032 0.022c-0.717 0.541-1.315 1.198-1.775 1.948l-0.017 0.031c-0.301 0.63-0.477 1.369-0.477 2.149 0 0.042 0.001 0.084 0.002 0.126v-0.006c0.013 0.083 0.018 0.331 0.036 0.733h2.819c-0.014-0.131-0.022-0.284-0.022-0.438 0-0.472 0.075-0.927 0.213-1.353l-0.009 0.031c0.33-0.524 0.744-0.962 1.229-1.308l0.014-0.009c0.93-0.726 1.736-1.546 2.427-2.457l0.024-0.033c0.364-0.545 0.583-1.215 0.587-1.935v-0.001c-0.012-1.314-0.619-2.485-1.566-3.255l-0.008-0.006z"></path>
<path fill="#fff" opacity="0.5" d="M29.943 6.408h-4.174c-1.169-0.003-2.115-0.951-2.115-2.12 0-0.004 0-0.007 0-0.011v0.001-4.277z"></path>
</svg>
