<!-- Generated by IcoMoon.io -->
<svg version="1.1" xmlns="http://www.w3.org/2000/svg" width="32" height="32" viewBox="0 0 32 32">
<title>quchuli</title>
<path fill="#333" d="M27.468 8.374l-5.291-5.153 2.646-2.577c0.412-0.393 0.971-0.635 1.587-0.635s1.175 0.242 1.588 0.636l-0.001-0.001 2.116 2.047c0.415 0.389 0.673 0.941 0.673 1.553s-0.258 1.164-0.672 1.552l-0.001 0.001zM12.078 23.373l-5.314-5.153 14.424-13.918 5.291 5.153zM2.508 27.606l3.221-8.397 5.268 5.13zM26.318 29.377c0.718 0 1.3 0.582 1.3 1.3s-0.582 1.3-1.3 1.3h-23.741c-0.023 0.001-0.050 0.002-0.077 0.002-0.719 0-1.302-0.583-1.302-1.302s0.583-1.302 1.302-1.302c0.027 0 0.054 0.001 0.081 0.002h23.737z"></path>
</svg>
