<!-- Generated by IcoMoon.io -->
<svg version="1.1" xmlns="http://www.w3.org/2000/svg" width="32" height="32" viewBox="0 0 32 32">
<title>queding</title>
<path fill="#333" d="M16 32c-8.837 0-16-7.163-16-16s7.163-16 16-16c8.837 0 16 7.163 16 16v0c0 8.837-7.163 16-16 16v0zM16 2.14c-7.655 0-13.86 6.205-13.86 13.86s6.205 13.86 13.86 13.86c7.655 0 13.86-6.205 13.86-13.86v0c-0.012-7.65-6.21-13.848-13.859-13.86h-0.001zM14.648 23.16c-0.197 0.186-0.462 0.3-0.755 0.3s-0.558-0.114-0.756-0.3h0.001l-6.428-6.44c-0.205-0.194-0.333-0.469-0.333-0.773 0-0.588 0.476-1.064 1.064-1.064 0.306 0 0.582 0.129 0.777 0.337l5.677 5.681 9.914-9.92c0.193-0.195 0.46-0.315 0.756-0.315s0.563 0.121 0.756 0.315v0c0.195 0.191 0.315 0.456 0.315 0.75s-0.121 0.559-0.315 0.75v0z"></path>
</svg>
