<!-- Generated by IcoMoon.io -->
<svg version="1.1" xmlns="http://www.w3.org/2000/svg" width="32" height="32" viewBox="0 0 32 32">
<title>shengchengzhong</title>
<path fill="#333" d="M28.571 32h-25.143c-1.262 0-2.286-1.023-2.286-2.286v0-9.143c0-1.262 1.023-2.286 2.286-2.286h2.286v-16c0-1.262 1.023-2.286 2.286-2.286v0h16c1.262 0 2.286 1.023 2.286 2.286v0 16h2.286c1.262 0 2.286 1.023 2.286 2.286v0 9.143c0 1.262-1.023 2.286-2.286 2.286v0zM24 4.571c0-1.262-1.023-2.286-2.286-2.286v0h-11.429c-1.262 0-2.286 1.023-2.286 2.286v0 16c0 1.262 1.023 2.286 2.286 2.286h11.429c1.262 0 2.286-1.023 2.286-2.286v0-16zM28.571 22.857c0-1.262-1.023-2.286-2.286-2.286v0 2.286c0 1.262-1.023 2.286-2.286 2.286v0h-16c-1.262 0-2.286-1.023-2.286-2.286v-2.286c-1.262 0-2.286 1.023-2.286 2.286v0 4.571c0 1.262 1.023 2.286 2.286 2.286v0h20.571c1.262 0 2.286-1.023 2.286-2.286v0-4.571zM20.571 16h-9.143c-0.631 0-1.143-0.512-1.143-1.143s0.512-1.143 1.143-1.143h9.143c0.631 0 1.143 0.512 1.143 1.143s-0.512 1.143-1.143 1.143v0zM20.571 11.429h-9.143c0 0 0 0 0 0-0.631 0-1.143-0.512-1.143-1.143s0.512-1.143 1.143-1.143c0 0 0 0 0 0h9.143c0 0 0 0 0 0 0.631 0 1.143 0.512 1.143 1.143s-0.512 1.143-1.143 1.143c0 0 0 0 0 0v0zM20.571 6.857h-9.143c0 0 0 0 0 0-0.631 0-1.143-0.512-1.143-1.143s0.512-1.143 1.143-1.143c0 0 0 0 0 0h9.143c0 0 0 0 0 0 0.631 0 1.143 0.512 1.143 1.143s-0.512 1.143-1.143 1.143c0 0 0 0 0 0v0z"></path>
</svg>
