<!-- Generated by IcoMoon.io -->
<svg version="1.1" xmlns="http://www.w3.org/2000/svg" width="32" height="32" viewBox="0 0 32 32">
<title>shijian</title>
<path opacity="0.5" fill="#333" d="M16.012 32c-0.003 0-0.007 0-0.011 0-8.836 0-16-7.163-16-16s7.163-16 16-16c8.836 0 16 7.163 16 16 0 0.004 0 0.008 0 0.012v-0.001c0 8.83-7.158 15.988-15.988 15.988v0zM21.105 16.309h-4.774v-7.515c0-0.896-0.726-1.622-1.622-1.622s-1.622 0.726-1.622 1.622v0 9.136c0 0.003 0 0.006 0 0.009 0 0.891 0.722 1.613 1.613 1.613 0.003 0 0.006 0 0.010 0h6.395c0.006 0 0.013 0 0.020 0 0.592 0 1.11-0.318 1.392-0.792l0.004-0.007c0.139-0.232 0.221-0.512 0.221-0.811s-0.082-0.579-0.225-0.818l0.004 0.007c-0.288-0.493-0.813-0.82-1.416-0.822v0z"></path>
</svg>
