<!-- Generated by IcoMoon.io -->
<svg version="1.1" xmlns="http://www.w3.org/2000/svg" width="32" height="32" viewBox="0 0 32 32">
<title>soushuo</title>
<path fill="#808080" d="M10.587 0.613l14.48 14.64c0.194 0.19 0.316 0.454 0.32 0.746v0.001c0 0.008 0 0.018 0 0.027 0 0.285-0.123 0.542-0.32 0.719l-0.001 0.001-14.48 14.64c-0.417 0.392-0.98 0.633-1.599 0.633-0.646 0-1.231-0.262-1.654-0.686v0c-0.414-0.398-0.67-0.955-0.67-1.573s0.257-1.176 0.67-1.573l0.001-0.001 11.947-12.187-11.947-12.16c-0.414-0.403-0.67-0.965-0.67-1.587s0.257-1.184 0.67-1.586v0c0.423-0.424 1.008-0.687 1.654-0.687 0.619 0 1.182 0.241 1.6 0.634l-0.001-0.001z"></path>
</svg>
