<!-- Generated by IcoMoon.io -->
<svg version="1.1" xmlns="http://www.w3.org/2000/svg" width="32" height="32" viewBox="0 0 32 32">
<title>sqwzc</title>
<path fill="#59b1ee" opacity="0.08" d="M0 16c0 8.837 7.163 16 16 16s16-7.163 16-16v0c0-8.837-7.163-16-16-16s-16 7.163-16 16v0z"></path>
<path fill="#59b1ee" d="M16 25.6c-5.302 0-9.6-4.298-9.6-9.6s4.298-9.6 9.6-9.6c5.302 0 9.6 4.298 9.6 9.6v0c0 5.302-4.298 9.6-9.6 9.6v0zM16 7.68c-4.595 0-8.32 3.725-8.32 8.32s3.725 8.32 8.32 8.32c4.595 0 8.32-3.725 8.32-8.32v0c0-4.595-3.725-8.32-8.32-8.32v0zM20.608 16.422h-3.866l-0.013 4.237c0.008 0.039 0.012 0.084 0.012 0.13 0 0.381-0.309 0.69-0.69 0.69-0.014 0-0.028 0-0.041-0.001h0.002c-0.73 0-0.653-0.435-0.653-0.768v-4.288h-4.237c-0.282 0-0.614 0-0.614-0.806 0-0.602 0.768-0.538 0.768-0.538h4.083v-4.083c0.023-0.284 0.259-0.506 0.547-0.506 0.051 0 0.101 0.007 0.148 0.020l-0.004-0.001c0.474 0.026 0.691 0.218 0.691 0.486v4.083h3.866c0.053-0.015 0.114-0.023 0.177-0.023 0.384 0 0.695 0.311 0.695 0.695s-0.311 0.695-0.695 0.695c-0.063 0-0.124-0.008-0.182-0.024l0.005 0.001z"></path>
</svg>
