<!-- Generated by IcoMoon.io -->
<svg version="1.1" xmlns="http://www.w3.org/2000/svg" width="32" height="32" viewBox="0 0 32 32">
<title>subject</title>
<path fill="#d5f0ff" d="M28.040 6.314v0c0.543 0 0.984-0.441 0.984-0.984s-0.441-0.984-0.984-0.984h-21.794c-0.652 0-1.181-0.529-1.181-1.181s0.529-1.181 1.181-1.181h18.733c0.545-0.006 0.985-0.446 0.991-0.991v-0.001c-0.007-0.54-0.448-0.976-0.99-0.976-0.001 0-0.001 0-0.002 0h-18.728c-0.033-0.001-0.067-0.002-0.101-0.002-1.74 0-3.15 1.41-3.15 3.15s1.41 3.15 3.15 3.15c0.034 0 0.067-0.001 0.096-0.001h21.794zM27.049 30.032h0.991c0.002 0 0.003 0 0.005 0 0.536 0 0.973 0.428 0.987 0.962v-25.657c0-0.003 0-0.005 0-0.008 0-0.548-0.444-0.991-0.991-0.991-0.545 0-0.987 0.44-0.991 0.984v24.71h-20.805c-0.647-0.023-1.164-0.555-1.164-1.208 0-0.001 0-0.002 0-0.002v-25.657c0-0.547-0.444-0.991-0.991-0.991s-0.991 0.444-0.991 0.991v25.657c0 0.002 0 0.004 0 0.006 0 1.741 1.409 3.153 3.149 3.158h21.882zM24.95 6.314c-0.539 0-0.977-0.437-0.977-0.977v0-4.344c0-0.539 0.437-0.977 0.977-0.977v0c0 0 0.001 0 0.002 0 0.542 0 0.982 0.436 0.99 0.976v4.345c0 0.001 0 0.001 0 0.002 0 0.273-0.111 0.52-0.291 0.698v0c-0.163 0.172-0.393 0.279-0.648 0.279-0.018 0-0.037-0.001-0.055-0.002h0.003zM21.728 12.699v0c0.003 0 0.006 0 0.009 0 0.543 0 0.983-0.44 0.983-0.983 0-0.003 0-0.006 0-0.009v-0.001c-0.006-0.545-0.446-0.985-0.991-0.991h-11.78c-0.545 0.006-0.985 0.446-0.991 0.991v0c0 0.003 0 0.006 0 0.009 0 0.543 0.44 0.983 0.983 0.983 0.003 0 0.006 0 0.009 0h11.779zM16.057 17.13v0c0.547 0 0.991-0.444 0.991-0.991s-0.444-0.991-0.991-0.991h-6.108c-0.547 0-0.991 0.444-0.991 0.991s0.444 0.991 0.991 0.991h6.108zM28.040 31.985h-21.794c-1.74-0.005-3.149-1.417-3.149-3.158 0-0.002 0-0.004 0-0.006v0c0-0.547 0.444-0.991 0.991-0.991s0.991 0.444 0.991 0.991v0c0 0.004 0 0.008 0 0.012 0 0.651 0.518 1.18 1.165 1.198h21.796c0.547 0.001 0.99 0.444 0.991 0.991v0c-0.031 0.529-0.46 0.947-0.99 0.962h-0.001z"></path>
</svg>
