<!-- Generated by IcoMoon.io -->
<svg version="1.1" xmlns="http://www.w3.org/2000/svg" width="32" height="32" viewBox="0 0 32 32">
<title>swf</title>
<path fill="#ff4669" d="M29.384 31.374c-0.385 0.385-0.917 0.623-1.503 0.626h-23.809c-1.151-0.029-2.073-0.969-2.073-2.124 0-0.018 0-0.036 0.001-0.055v0.003-27.674c0-0.002 0-0.004 0-0.006 0-1.177 0.949-2.132 2.123-2.142h19.521l6.356 6.402v23.47c0 0.003 0 0.006 0 0.010 0 0.582-0.235 1.108-0.616 1.49v0zM22 9.205c-0.058-0.002-0.126-0.003-0.194-0.003-2.020 0-3.816 0.961-4.955 2.451l-0.011 0.015c-0.49 0.633-0.919 1.354-1.258 2.123l-0.026 0.066-0.952 2.4c-0.287 0.86-0.583 1.574-0.923 2.262l0.047-0.105c-0.26 0.615-0.563 1.145-0.92 1.632l0.016-0.022c-0.3 0.415-0.695 0.743-1.154 0.958l-0.018 0.008c-0.484 0.234-1.052 0.37-1.652 0.37v0 3.040c0.056 0.002 0.121 0.003 0.187 0.003 2.021 0 3.818-0.961 4.958-2.451l0.011-0.015c0.371-0.503 0.72-1.072 1.018-1.672l0.030-0.067 0.812-1.915h3.476v-2.994h-2.272c0.203-0.5 0.432-0.929 0.701-1.33l-0.017 0.026c0.212-0.367 0.471-0.681 0.772-0.946l0.004-0.004c0.277-0.265 0.611-0.474 0.981-0.606l0.019-0.006c0.383-0.133 0.824-0.209 1.283-0.209 0.013 0 0.026 0 0.039 0h-0.002v-3.010z"></path>
<path fill="#fff" opacity="0.5" d="M29.944 6.408h-4.176c-1.17-0.004-2.116-0.953-2.116-2.124 0-0.002 0-0.005 0-0.007v0-4.277z"></path>
</svg>
