<!-- Generated by IcoMoon.io -->
<svg version="1.1" xmlns="http://www.w3.org/2000/svg" width="32" height="32" viewBox="0 0 32 32">
<title>tijiao</title>
<path fill="#333" d="M30.73 13.739h-0.080c-0.605 0.012-1.092 0.506-1.092 1.113 0 0.094 0.012 0.186 0.034 0.274l-0.002-0.008v13.592h-27.185v-13.413c0.004-0.039 0.007-0.084 0.007-0.13 0-0.69-0.559-1.249-1.249-1.249-0.006 0-0.012 0-0.018 0h0.121c-0.005 0-0.011 0-0.017 0-0.69 0-1.249 0.559-1.249 1.249 0 0.046 0.002 0.091 0.007 0.136v-0.006 14.372c0.024 0.735 0.626 1.323 1.365 1.323 0.033 0 0.066-0.001 0.099-0.004h29.080c0.006 0 0.013 0 0.021 0 0.759 0 1.376-0.604 1.399-1.357v-14.494c0.006-0.047 0.010-0.102 0.010-0.158 0-0.686-0.556-1.241-1.241-1.241-0.003 0-0.006 0-0.009 0v0zM9.701 9.801l5.137-4.837v15.471c-0.020 0.081-0.032 0.175-0.032 0.271 0 0.625 0.491 1.136 1.108 1.168h0.003c0.722-0.002 1.306-0.587 1.306-1.309 0-0.046-0.002-0.091-0.007-0.136v0.006-15.391l5.497 4.977c0.21 0.249 0.521 0.405 0.87 0.405s0.66-0.157 0.868-0.404l0.001-0.002c0.209-0.245 0.336-0.565 0.336-0.915 0-0.457-0.217-0.863-0.553-1.121l-0.003-0.002-7.156-6.536c-0.287-0.252-0.665-0.406-1.079-0.406s-0.793 0.154-1.081 0.407l0.002-0.002-7.156 6.736c-0.307 0.239-0.502 0.608-0.502 1.023 0 0.714 0.579 1.293 1.293 1.293 0.496 0 0.928-0.28 1.144-0.69l0.003-0.007z"></path>
</svg>
