<!-- Generated by IcoMoon.io -->
<svg version="1.1" xmlns="http://www.w3.org/2000/svg" width="32" height="32" viewBox="0 0 32 32">
<title>txt</title>
<path fill="#2baeef" d="M29.382 31.374c-0.385 0.385-0.915 0.624-1.501 0.626h-23.81c-1.15-0.029-2.071-0.969-2.071-2.123 0-0.019 0-0.038 0.001-0.056v0.003-27.673c0-0.002 0-0.004 0-0.006 0-1.176 0.948-2.131 2.122-2.142h19.523l6.355 6.402v23.47c0 0.003 0 0.006 0 0.009 0 0.582-0.236 1.11-0.618 1.491v0zM22.4 10.8h-12.4v2.8h4.8v9.6h2.8v-9.6h4.8v-2.8z"></path>
<path fill="#fff" opacity="0.5" d="M29.944 6.408h-4.175c-1.169-0.003-2.115-0.951-2.115-2.12 0-0.004 0-0.007 0-0.011v0.001-4.277z"></path>
</svg>
