<!-- Generated by IcoMoon.io -->
<svg version="1.1" xmlns="http://www.w3.org/2000/svg" width="32" height="32" viewBox="0 0 32 32">
<title>wentishu</title>
<path fill="#fff5ea" d="M0 16c0 8.837 7.163 16 16 16s16-7.163 16-16v0c0-8.837-7.163-16-16-16s-16 7.163-16 16v0z"></path>
<path fill="#f93" d="M24.602 14.349h-5.376c-0.001 0-0.002 0-0.003 0-0.585 0-1.060-0.475-1.060-1.060 0-0.001 0-0.002 0-0.003v0-5.286c0-0.001 0-0.002 0-0.003 0-0.585 0.474-1.060 1.060-1.060 0.001 0 0.002 0 0.003 0v0c3.518 0.005 6.376 2.826 6.438 6.33v0.006c-0.003 0.293-0.12 0.559-0.308 0.756v0c-0.192 0.196-0.459 0.318-0.755 0.32v0zM20.288 9.203v3.021h3.085c-0.426-1.485-1.588-2.625-3.055-3.014l-0.030-0.007zM16.41 8.474c-0.001 0-0.002 0-0.003 0-4.109 0-7.439 3.331-7.439 7.439s3.331 7.439 7.439 7.439c4.101 0 7.426-3.318 7.439-7.415v-0.001h2.138c-0.008 1.293-0.266 2.524-0.728 3.649l0.024-0.065c-0.508 1.231-1.218 2.282-2.099 3.162v0c-0.886 0.878-1.94 1.588-3.11 2.075l-0.064 0.024c-1.064 0.445-2.3 0.704-3.597 0.704s-2.533-0.259-3.66-0.727l0.063 0.023c-2.409-0.989-4.285-2.864-5.25-5.21l-0.023-0.063c-0.441-1.062-0.696-2.295-0.696-3.588 0-3.991 2.438-7.413 5.907-8.856l0.063-0.023c1.049-0.437 2.267-0.691 3.545-0.691 0.023 0 0.046 0 0.069 0h-0.003v2.125h-0.013z"></path>
</svg>
