<!-- Generated by IcoMoon.io -->
<svg version="1.1" xmlns="http://www.w3.org/2000/svg" width="37" height="32" viewBox="0 0 37 32">
<title>xh</title>
<path fill="#c7e8f7" d="M10.667 0h23.982c1.473 0 2.667 1.194 2.667 2.667s-1.194 2.667-2.667 2.667v0h-23.982c-1.473 0-2.667-1.194-2.667-2.667s1.194-2.667 2.667-2.667v0zM2.667 5.333c-1.473 0-2.667-1.194-2.667-2.667s1.194-2.667 2.667-2.667c1.473 0 2.667 1.194 2.667 2.667v0c0 1.473-1.194 2.667-2.667 2.667v0zM10.667 13.333h23.982c1.473 0 2.667 1.194 2.667 2.667s-1.194 2.667-2.667 2.667h-23.982c-1.473 0-2.667-1.194-2.667-2.667s1.194-2.667 2.667-2.667v0zM2.667 18.667c-1.473 0-2.667-1.194-2.667-2.667s1.194-2.667 2.667-2.667c1.473 0 2.667 1.194 2.667 2.667v0c0 1.473-1.194 2.667-2.667 2.667v0zM10.667 26.667h23.982c1.473 0 2.667 1.194 2.667 2.667s-1.194 2.667-2.667 2.667v0h-23.982c-1.473 0-2.667-1.194-2.667-2.667s1.194-2.667 2.667-2.667v0zM2.667 32c-1.473 0-2.667-1.194-2.667-2.667s1.194-2.667 2.667-2.667c1.473 0 2.667 1.194 2.667 2.667v0c0 1.473-1.194 2.667-2.667 2.667v0z"></path>
</svg>
