<!-- Generated by IcoMoon.io -->
<svg version="1.1" xmlns="http://www.w3.org/2000/svg" width="32" height="32" viewBox="0 0 32 32">
<title>xiafa</title>
<path fill="#333" d="M2.14 27.728v-23.456c-0.002-0.035-0.003-0.077-0.003-0.119 0-0.56 0.228-1.067 0.595-1.433v0c0.354-0.359 0.847-0.581 1.391-0.581 0.051 0 0.102 0.002 0.152 0.006h23.385c0.042-0.003 0.090-0.005 0.139-0.005 0.551 0 1.050 0.222 1.413 0.581v0c0.358 0.371 0.579 0.878 0.579 1.436 0 0.041-0.001 0.082-0.004 0.122v-0.006 8.56h2.128v-8.56c0-0.003 0-0.007 0-0.011 0-2.352-1.905-4.258-4.256-4.261h-23.392c-2.351 0.003-4.256 1.909-4.256 4.261 0 0.004 0 0.008 0 0.012v-0.001 23.44c0 0.002 0 0.004 0 0.006 0 1.178 0.477 2.245 1.248 3.018v0c0.765 0.78 1.83 1.264 3.008 1.264h8.528v-2.144h-8.528c-0.030 0.002-0.065 0.003-0.101 0.003-1.121 0-2.030-0.909-2.030-2.030 0-0.041 0.001-0.081 0.004-0.122v0.022zM7.452 8.544c-0.002 0-0.005 0-0.007 0-0.29 0-0.553 0.116-0.745 0.304v0c-0.179 0.179-0.29 0.426-0.29 0.699 0 0.024 0.001 0.048 0.003 0.072v-0.003c-0.003 0.027-0.004 0.057-0.004 0.088 0 0.264 0.105 0.504 0.276 0.68v0c0.182 0.188 0.437 0.305 0.72 0.305 0.017 0 0.034 0 0.051-0.001h17.006c0.018 0.001 0.039 0.002 0.060 0.002 0.276 0 0.526-0.111 0.708-0.29v0c0.179-0.179 0.29-0.426 0.29-0.699 0-0.024-0.001-0.048-0.003-0.072v0.003c0.002-0.021 0.002-0.046 0.002-0.070 0-0.278-0.111-0.53-0.291-0.714v0c-0.179-0.179-0.426-0.29-0.699-0.29-0.024 0-0.048 0.001-0.072 0.003h0.003zM15.98 17.104h-8.528c-0.392 0.002-0.735 0.211-0.925 0.523l-0.003 0.005c-0.091 0.154-0.144 0.339-0.144 0.536s0.054 0.382 0.147 0.541l-0.003-0.005c0.186 0.318 0.525 0.528 0.914 0.528 0.005 0 0.010 0 0.015 0h8.527c0.004 0 0.008 0 0.013 0 0.584 0 1.057-0.472 1.059-1.056v0c0-0.592-0.48-1.072-1.072-1.072v0zM31.708 23.712c-0.187-0.197-0.451-0.32-0.744-0.32s-0.557 0.123-0.744 0.319v0l-4.704 4.656v-10.24c0-0.588-0.476-1.064-1.064-1.064s-1.064 0.476-1.064 1.064v0 10.24l-4.464-4.48c-0.192-0.186-0.455-0.3-0.744-0.3s-0.552 0.114-0.744 0.301v0c-0.189 0.191-0.306 0.454-0.306 0.744s0.117 0.553 0.306 0.744v0l6.16 6.192c0.078 0.127 0.217 0.21 0.374 0.21 0.015 0 0.029-0.001 0.044-0.002h0.878c0.208 0 0.208-0.208 0.416-0.208l6.16-6.192c0.277-0.173 0.47-0.461 0.511-0.795l0.001-0.005c0.005-0.040 0.008-0.086 0.008-0.133 0-0.294-0.112-0.563-0.297-0.764l0.001 0.001z"></path>
</svg>
