<!-- Generated by IcoMoon.io -->
<svg version="1.1" xmlns="http://www.w3.org/2000/svg" width="32" height="32" viewBox="0 0 32 32">
<title>xlsx</title>
<path fill="#6ec038" d="M29.384 31.374c-0.385 0.385-0.917 0.623-1.503 0.626h-23.809c-1.151-0.029-2.073-0.969-2.073-2.124 0-0.018 0-0.036 0.001-0.055v0.003-27.674c0-0.002 0-0.004 0-0.006 0-1.177 0.949-2.132 2.123-2.142h19.521l6.356 6.402v23.47c0 0.003 0 0.006 0 0.010 0 0.582-0.235 1.108-0.616 1.49v0zM18.692 9.996l-2.86 4.666-2.86-4.666h-3.292l4.504 6.887-4.584 6.711h3.36l2.804-4.489 2.868 4.489h3.364l-4.516-6.711 4.572-6.887h-3.36z"></path>
<path fill="#fff" opacity="0.5" d="M29.944 6.408h-4.176c-1.167-0.003-2.112-0.949-2.112-2.117 0-0.005 0-0.010 0-0.014v0.001-4.277z"></path>
</svg>
