<!-- Generated by IcoMoon.io -->
<svg version="1.1" xmlns="http://www.w3.org/2000/svg" width="32" height="32" viewBox="0 0 32 32">
<title>yichu</title>
<path fill="#59a6ee" d="M27.601 27.26c-2.908 2.916-6.929 4.72-11.371 4.72-0.010 0-0.020 0-0.030 0h0.002c-0.053 0.001-0.115 0.001-0.177 0.001-4.381 0-8.349-1.773-11.223-4.641v0c-2.959-2.783-4.801-6.723-4.801-11.093 0-0.066 0-0.131 0.001-0.197v0.010c0-0.035 0-0.077 0-0.119 0-4.374 1.756-8.337 4.602-11.223l-0.002 0.002c2.97-2.918 7.045-4.72 11.541-4.72 4.456 0 8.498 1.769 11.463 4.644l-0.004-0.004c2.918 2.884 4.725 6.886 4.725 11.31s-1.807 8.426-4.724 11.308l-0.002 0.002zM26.401 5.78c-2.644-2.585-6.265-4.18-10.259-4.18-4.034 0-7.688 1.627-10.342 4.261l0.001-0.001c-2.593 2.538-4.201 6.075-4.201 9.987 0 0.068 0 0.136 0.001 0.204v-0.010c0 0.016 0 0.034 0 0.053 0 7.903 6.407 14.31 14.31 14.31 0.102 0 0.204-0.001 0.305-0.003h-0.015c7.957-0.023 14.399-6.479 14.399-14.44 0-3.972-1.604-7.57-4.2-10.181l0.001 0.001zM23.201 18.18h-14.2c-0.548-0.035-1.036-0.265-1.4-0.62v0c-0.371-0.381-0.6-0.901-0.6-1.476 0-0.016 0-0.031 0-0.046v0.002c-0.001-0.030-0.002-0.065-0.002-0.1 0-0.589 0.229-1.124 0.603-1.521l-0.001 0.001c0.364-0.355 0.852-0.585 1.394-0.62h14.206c0.010 0 0.022 0 0.034 0 0.607 0 1.158 0.236 1.568 0.621l-0.001-0.001c0.371 0.385 0.6 0.91 0.6 1.489 0 0.011 0 0.022 0 0.033v-0.002c0.001 0.030 0.002 0.065 0.002 0.1 0 0.589-0.229 1.124-0.603 1.521l0.001-0.001c-0.408 0.384-0.96 0.62-1.566 0.62-0.012 0-0.024 0-0.035 0h0.002z"></path>
</svg>
