<!-- Generated by IcoMoon.io -->
<svg version="1.1" xmlns="http://www.w3.org/2000/svg" width="32" height="32" viewBox="0 0 32 32">
<title>zongshu</title>
<path fill="#e4fbed" d="M0 16c0 8.837 7.163 16 16 16s16-7.163 16-16v0c0-8.837-7.163-16-16-16s-16 7.163-16 16v0z"></path>
<path fill="#00b845" d="M25.894 16.435c-0.165 1.46-0.648 2.781-1.379 3.928l0.022-0.037c-0.682 1.085-1.535 1.996-2.532 2.72l-0.028 0.019c-0.981 0.702-2.132 1.241-3.375 1.547l-0.069 0.014c-0.474 0.102-0.947 0.179-1.395 0.23-0.286 0.029-0.617 0.046-0.952 0.046-1.854 0-3.588-0.512-5.070-1.402l0.045 0.025c-1.113-0.652-2.049-1.481-2.799-2.46l-0.017-0.023c-0.725-0.949-1.281-2.071-1.598-3.288l-0.014-0.065c-0.169-0.668-0.265-1.435-0.265-2.225 0-4.492 3.132-8.254 7.331-9.219l0.064-0.012c0.353-0.095 0.775-0.172 1.208-0.215l0.034-0.003 0.115-0.013c0.297-0.032 0.642-0.050 0.991-0.050 1.523 0 2.965 0.344 4.253 0.959l-0.060-0.026c0.245 0.118 0.411 0.363 0.411 0.648 0 0.118-0.029 0.23-0.080 0.329l0.002-0.004c-0.13 0.251-0.387 0.42-0.685 0.42-0.109 0-0.212-0.023-0.306-0.063l0.005 0.002-0.013-0.013c-1.044-0.492-2.267-0.779-3.558-0.779-0.695 0-1.37 0.083-2.017 0.24l0.058-0.012c-2.146 0.52-3.921 1.832-5.036 3.601l-0.020 0.034c-0.752 1.175-1.199 2.607-1.199 4.144 0 0.678 0.087 1.337 0.251 1.964l-0.012-0.054c0.561 2.116 1.907 3.85 3.7 4.908l0.037 0.020c1.218 0.723 2.686 1.151 4.253 1.151 0.278 0 0.553-0.013 0.825-0.040l-0.034 0.003h0.013c0.435-0.041 0.831-0.113 1.215-0.216l-0.050 0.012c2.152-0.506 3.934-1.816 5.049-3.589l0.020-0.034c0.571-0.891 0.966-1.949 1.11-3.086l0.004-0.037h0.026c0.020-0.252 0.169-0.465 0.38-0.574l0.004-0.002c0.11-0.063 0.243-0.1 0.383-0.1 0.121 0 0.236 0.027 0.338 0.076l-0.005-0.002c0.211 0.11 0.364 0.309 0.409 0.546l0.001 0.005 0.013 0.026v0.026zM12.954 14.618l2.893 2.778 6.31-5.76c0.136-0.133 0.321-0.215 0.527-0.215 0.096 0 0.188 0.018 0.272 0.051l-0.005-0.002c0.265 0.099 0.452 0.347 0.461 0.639v0.001c0 0.010 0.001 0.021 0.001 0.032 0 0.186-0.073 0.355-0.193 0.48v0l-0.013 0.013-6.848 6.285c-0.036 0.036-0.079 0.066-0.125 0.088l-0.003 0.001c-0.026 0.013-0.064 0.038-0.090 0.051-0.081 0.036-0.176 0.058-0.275 0.058s-0.194-0.021-0.28-0.059l0.004 0.002c-0.038-0.013-0.064-0.026-0.102-0.038v-0.013c-0.055-0.022-0.101-0.052-0.141-0.090v0l-0.026-0.026-3.405-3.251c-0.129-0.133-0.211-0.312-0.218-0.511v-0.001c0-0.002 0-0.004 0-0.006 0-0.195 0.084-0.371 0.217-0.493h0.001c0.132-0.134 0.315-0.218 0.518-0.218 0.002 0 0.005 0 0.008 0v0c0.198 0.003 0.378 0.080 0.512 0.205v0z"></path>
</svg>
