<!-- Generated by IcoMoon.io -->
<svg version="1.1" xmlns="http://www.w3.org/2000/svg" width="32" height="32" viewBox="0 0 32 32">
<title>auth_setting</title>
<path d="M31.696 12.944l-0.274-1.292h-1.28c-0.068 0.005-0.148 0.007-0.229 0.007-1.383 0-2.588-0.768-3.21-1.9l-0.010-0.019c-0.306-0.545-0.486-1.197-0.486-1.89 0-0.801 0.24-1.546 0.653-2.167l-0.009 0.014 0.67-1.134-0.944-0.882c-1.524-1.425-3.341-2.559-5.348-3.3l-0.11-0.036-1.22-0.346-0.6 1.166c-0.594 1.247-1.844 2.093-3.291 2.093s-2.697-0.846-3.282-2.071l-0.009-0.022-0.6-1.166-1.22 0.346c-2.116 0.721-3.939 1.798-5.491 3.174l0.017-0.014-0.944 0.882 0.67 1.134c0.445 0.627 0.711 1.408 0.711 2.251 0 0.684-0.175 1.327-0.484 1.887l0.010-0.020c-0.628 1.163-1.838 1.94-3.23 1.94-0.106 0-0.21-0.005-0.314-0.013l0.014 0.001h-1.28l-0.274 1.386c-0.189 0.942-0.3 2.027-0.304 3.136v0.003c0.005 1.117 0.116 2.205 0.322 3.259l-0.018-0.109 0.274 1.292h1.28c0.049-0.002 0.106-0.004 0.163-0.004 1.369 0 2.56 0.757 3.18 1.875l0.009 0.019c0.339 0.568 0.539 1.253 0.539 1.984s-0.2 1.416-0.549 2.002l0.010-0.018-0.67 1.134 0.944 0.882c1.531 1.356 3.348 2.43 5.344 3.117l0.112 0.033 1.22 0.44 0.6-1.166c0.594-1.247 1.844-2.093 3.291-2.093s2.697 0.846 3.282 2.071l0.009 0.022 0.6 1.166 1.22-0.44c2.108-0.72 3.925-1.794 5.473-3.165l-0.017 0.015 0.944-0.882-0.732-1.040c-0.381-0.594-0.608-1.318-0.608-2.096 0-0.737 0.204-1.427 0.558-2.016l-0.010 0.018c0.629-1.136 1.82-1.893 3.188-1.893 0.064 0 0.127 0.002 0.19 0.005l-0.009-0h1.28l0.274-1.26c0.189-0.945 0.3-2.034 0.306-3.147l0-0.005c-0.004-1.116-0.114-2.205-0.322-3.258l0.018 0.108zM28.86 17.706c-2.087 0.357-3.817 1.637-4.782 3.395l-0.018 0.035c-0.548 0.987-0.871 2.164-0.871 3.417 0 0.936 0.18 1.83 0.508 2.649l-0.017-0.048c-0.715 0.539-1.525 1.032-2.382 1.443l-0.086 0.037c-1.219-1.558-3.099-2.55-5.211-2.55s-3.992 0.992-5.2 2.535l-0.011 0.014c-0.943-0.448-1.753-0.941-2.505-1.506l0.037 0.026c0.273-0.73 0.432-1.574 0.432-2.455 0-1.272-0.33-2.466-0.908-3.503l0.019 0.037c-0.926-1.862-2.633-3.217-4.68-3.646l-0.044-0.008c-0.058-0.444-0.091-0.958-0.091-1.48s0.033-1.036 0.098-1.54l-0.006 0.060c2.045-0.37 3.741-1.62 4.707-3.336l0.018-0.034c0.56-1 0.89-2.195 0.89-3.467 0-0.881-0.158-1.725-0.448-2.505l0.016 0.050c0.715-0.539 1.525-1.032 2.382-1.443l0.086-0.037c1.219 1.558 3.099 2.55 5.211 2.55s3.992-0.992 5.2-2.535l0.011-0.014c0.943 0.448 1.753 0.941 2.505 1.506l-0.037-0.026c-0.311 0.771-0.491 1.665-0.491 2.601 0 1.253 0.323 2.43 0.89 3.453l-0.019-0.037c0.983 1.793 2.713 3.073 4.76 3.424l0.040 0.006c0.058 0.444 0.091 0.958 0.091 1.48s-0.033 1.036-0.098 1.54l0.006-0.060z"></path>
<path d="M16 10.276c-0.001 0-0.001 0-0.002 0-3.215 0-5.822 2.607-5.822 5.822s2.607 5.822 5.822 5.822c3.215 0 5.822-2.607 5.822-5.822v0c0-3.215-2.605-5.821-5.82-5.822h-0zM16 18.876c-1.532 0-2.774-1.242-2.774-2.774s1.242-2.774 2.774-2.774c1.532 0 2.774 1.242 2.774 2.774v0c-0.003 1.529-1.244 2.768-2.774 2.768 0 0 0 0 0 0v0z"></path>
</svg>
