<!-- Generated by IcoMoon.io -->
<svg version="1.1" xmlns="http://www.w3.org/2000/svg" width="32" height="32" viewBox="0 0 32 32">
<title>icon-_back</title>
<path d="M16 0c-8.837 0-16 7.163-16 16s7.163 16 16 16c8.837 0 16-7.163 16-16v0c0-8.837-7.163-16-16-16v0zM16 29.333c-7.364 0-13.333-5.969-13.333-13.333s5.969-13.333 13.333-13.333c7.364 0 13.333 5.969 13.333 13.333v0c0 7.364-5.969 13.333-13.333 13.333v0z"></path>
<path d="M20.11 7.696c-0.269-0.263-0.639-0.426-1.046-0.426s-0.776 0.163-1.046 0.426l0-0-7.392 7.275c-0.267 0.262-0.432 0.626-0.432 1.029s0.165 0.767 0.432 1.029l0 0 7.392 7.275c0.269 0.264 0.639 0.426 1.046 0.426s0.776-0.163 1.046-0.426l-0 0c0.267-0.262 0.432-0.626 0.432-1.029s-0.166-0.767-0.432-1.029l-0-0-6.347-6.24 6.347-6.24c0.271-0.262 0.439-0.629 0.439-1.035s-0.168-0.773-0.439-1.035l-0-0z"></path>
</svg>
