<!-- Generated by IcoMoon.io -->
<svg version="1.1" xmlns="http://www.w3.org/2000/svg" width="32" height="32" viewBox="0 0 32 32">
<title>menu_1</title>
<path d="M16 0c4.158 0 7.529 3.371 7.529 7.529v0 1.882h1.882c0.003 0 0.006 0 0.010 0 3.002 0 5.457 2.343 5.637 5.3l0.001 0.016v11.625c0 3.119-2.528 5.647-5.647 5.647v0h-18.824c-3.119 0-5.647-2.528-5.647-5.647v0-11.294c0-3.119 2.528-5.647 5.647-5.647v0h1.882v-1.882c0-0.003 0-0.006 0-0.009 0-4.026 3.16-7.314 7.135-7.519l0.018-0.001zM25.412 13.176h-18.824c-1.040 0-1.882 0.843-1.882 1.882v0 11.294c0 1.040 0.843 1.882 1.882 1.882v0h18.824c1.040 0 1.882-0.843 1.882-1.882v0-11.294c0-1.040-0.843-1.882-1.882-1.882v0zM16 15.059c2.079 0 3.765 1.686 3.765 3.765 0 1.386-0.749 2.597-1.864 3.251l-0.018 0.010v2.387c0 1.040-0.843 1.882-1.882 1.882s-1.882-0.843-1.882-1.882v0-2.387c-1.133-0.663-1.882-1.874-1.882-3.26 0-2.079 1.685-3.765 3.765-3.765v0zM16 3.765c-2.079 0-3.765 1.686-3.765 3.765v0 1.882h7.529v-1.882c0-0 0-0.001 0-0.001 0-1.98-1.528-3.603-3.469-3.753l-0.013-0.001z"></path>
</svg>
