<!-- Generated by IcoMoon.io -->
<svg version="1.1" xmlns="http://www.w3.org/2000/svg" width="32" height="32" viewBox="0 0 32 32">
<title>op_daoru</title>
<path d="M26.166 32h-20.332c-0 0-0 0-0.001 0-3.187 0-5.777-2.557-5.831-5.731l-0-0.005v-20.43c0-0 0-0.001 0-0.001 0-3.188 2.556-5.778 5.731-5.833l0.005-0h5.692c1.012 0 1.833 0.82 1.834 1.832v0c0 0 0 0 0 0 0 1.001-0.802 1.815-1.798 1.834l-0.002 0h-5.624c-0 0-0 0-0 0-1.184 0-2.147 0.95-2.166 2.13l-0 0.002v20.368c0.001 1.184 0.951 2.147 2.13 2.168l0.002 0h20.368c0 0 0 0 0 0 1.185 0 2.147-0.95 2.168-2.13l0-0.002v-5.6c0-1.012 0.82-1.833 1.832-1.834h0c0 0 0 0 0 0 1.001 0 1.815 0.802 1.834 1.798l0 0.002v5.6c0 0 0 0.001 0 0.001 0 3.188-2.556 5.778-5.731 5.833l-0.005 0zM13.262 20.732c-1.012 0-1.833-0.82-1.834-1.832v-9.668c0.001-1.012 0.822-1.832 1.834-1.832 0 0 0 0 0 0v0c1.012 0 1.832 0.82 1.832 1.832v0 5.242l11.66-11.66c0.332-0.334 0.792-0.541 1.3-0.541s0.968 0.207 1.3 0.541l0 0c0.334 0.332 0.541 0.792 0.541 1.3s-0.207 0.968-0.541 1.3l-11.65 11.652h5.24c1.012 0.001 1.832 0.822 1.832 1.834 0 0 0 0 0 0v0c0 1.012-0.82 1.832-1.832 1.832v0z"></path>
</svg>
