<!-- Generated by IcoMoon.io -->
<svg version="1.1" xmlns="http://www.w3.org/2000/svg" width="32" height="32" viewBox="0 0 32 32">
<title>xuanke_del</title>
<path d="M2.133 6.948c-0.002-0.033-0.003-0.071-0.003-0.109 0-1.216 0.986-2.202 2.202-2.202 0.038 0 0.077 0.001 0.115 0.003l-0.005-0h4.457l0.484-3.119c0.23-0.866 1.007-1.494 1.931-1.494 0.019 0 0.039 0 0.058 0.001l-0.003-0h9.235c0.011-0 0.025-0 0.039-0 0.922 0 1.697 0.628 1.921 1.48l0.003 0.014 0.508 3.119h4.457c1.228 0.11 2.198 1.080 2.308 2.298l0.001 0.010v2.308h-27.706zM20.604 2.33h-9.233v2.308h9.235zM4.444 11.571h23.089c1.266 0.021 2.287 1.042 2.308 2.306l0 0.002-2.308 16.162c-0.37 1.293-1.509 2.235-2.879 2.308l-0.008 0h-17.894c-1.231-0.104-2.204-1.078-2.308-2.299l-0.001-0.009-2.31-16.166c0.021-1.266 1.042-2.287 2.306-2.308l0.002-0zM20.606 28.311h3.462l1.154-14.142h-4.617zM13.679 28.311h4.619v-14.142h-4.619zM7.906 28.311h3.465v-14.142h-4.619z"></path>
</svg>
