<!-- Generated by IcoMoon.io -->
<svg version="1.1" xmlns="http://www.w3.org/2000/svg" width="32" height="32" viewBox="0 0 32 32">
<title>xuanke_import</title>
<path d="M18.286 0c0.994 0.024 1.79 0.836 1.79 1.833 0 0.987-0.78 1.792-1.757 1.832l-0.004 0h-12.482c-0 0-0 0-0 0-1.184 0-2.145 0.949-2.166 2.128l-0 0.002v20.37c0 0 0 0 0 0 0 1.184 0.949 2.145 2.128 2.166l0.002 0h20.37c0 0 0 0 0 0 1.184 0 2.145-0.949 2.166-2.128l0-0.002v-12.458c0.024-0.994 0.836-1.79 1.833-1.79 0.987 0 1.792 0.78 1.832 1.757l0 0.004v12.452c0 0 0 0.001 0 0.001 0 3.188-2.556 5.778-5.731 5.833l-0.005 0h-20.43c-0 0-0.001 0-0.001 0-3.188 0-5.778-2.556-5.833-5.731l-0-0.005v-20.43c0-0 0-0.001 0-0.001 0-3.188 2.556-5.778 5.731-5.833l0.005-0h12.548zM28.286 3.708c0.334 0.332 0.54 0.792 0.54 1.3s-0.207 0.968-0.54 1.3l-11.65 11.65h5.24c0.018-0.001 0.039-0.001 0.061-0.001 1.013 0 1.834 0.821 1.834 1.834s-0.821 1.834-1.834 1.834c-0.021 0-0.043-0-0.064-0.001l0.003 0h-9.666c-1.013 0-1.834-0.821-1.834-1.834v0-9.67c-0.001-0.018-0.001-0.039-0.001-0.061 0-1.013 0.821-1.834 1.834-1.834s1.834 0.821 1.834 1.834c0 0.021-0 0.043-0.001 0.064l0-0.003v5.24l11.66-11.66c0.331-0.328 0.787-0.531 1.291-0.531 0.508 0 0.967 0.206 1.299 0.539l0 0z"></path>
</svg>
