<!-- Generated by IcoMoon.io -->
<svg version="1.1" xmlns="http://www.w3.org/2000/svg" width="32" height="32" viewBox="0 0 32 32">
<title>xuanke_ckjg</title>
<path d="M27.823 1.579h-5.082c-0.532-0.942-1.523-1.57-2.661-1.579h-8.159c-1.14 0.009-2.131 0.636-2.654 1.563l-0.008 0.015h-5.103c-1.71 0.017-3.089 1.407-3.089 3.119 0 0.009 0 0.018 0 0.027v-0.001 24.158c-0 0.007-0 0.015-0 0.024 0 1.713 1.38 3.104 3.090 3.121h23.682c1.711-0.018 3.091-1.409 3.091-3.123 0-0.008-0-0.015-0-0.023v0.001-24.16c0-0.004 0-0.008 0-0.013 0-1.72-1.388-3.116-3.105-3.13h-0.001zM20.073 3.172v3.14l-8.151-0.015v-3.142zM4.171 28.881l-0.013-24.149h4.668v1.562c-0 0.010-0 0.022-0 0.034 0 1.719 1.382 3.115 3.096 3.138l0.002 0h8.158c1.716-0.023 3.098-1.419 3.098-3.138 0-0.012-0-0.024-0-0.036l0 0.002v-1.562l4.655-0.013 0.013 24.147zM23.386 12.612c-0.273-0.256-0.642-0.413-1.048-0.413-0.455 0-0.863 0.198-1.144 0.512l-0.001 0.002-7.358 8.179-3.012-3.433c-0.283-0.324-0.696-0.527-1.157-0.527-0.399 0-0.762 0.152-1.035 0.402l0.001-0.001c-0.319 0.293-0.518 0.712-0.518 1.177 0 0.403 0.149 0.771 0.396 1.052l-0.002-0.002 4.156 4.734c0.281 0.321 0.69 0.523 1.147 0.527h0.001c0.454-0.001 0.862-0.198 1.144-0.511l0.001-0.001 8.516-9.468c0.254-0.282 0.409-0.656 0.409-1.068 0-0.456-0.191-0.868-0.498-1.159l-0.001-0.001z"></path>
</svg>
