<svg xmlns="http://www.w3.org/2000/svg" width="16" height="16" viewBox="0 0 16 16"><defs><style>.a{fill:#85898c;}</style></defs><path class="a" d="M8,10.78A2.78,2.78,0,1,0,8,5.22a2.78,2.78,0,1,0,0,5.56ZM8,3.83A6.64,6.64,0,0,1,14.2,8,6.694,6.694,0,0,1,1.8,8,6.641,6.641,0,0,1,8,3.83Zm0,2.5A1.679,1.679,0,0,1,9.69,8a1.661,1.661,0,0,1-.845,1.443,1.71,1.71,0,0,1-1.69,0A1.66,1.66,0,0,1,6.31,8,1.679,1.679,0,0,1,8,6.333ZM15.543.47A1.568,1.568,0,0,1,16,1.593V4.456a.89.89,0,0,1-1.776,0V1.9a.12.12,0,0,0-.12-.12h-2.56a.9.9,0,0,1-.888-.888A.889.889,0,0,1,11.544,0h2.872a1.578,1.578,0,0,1,1.127.47ZM4.456,0a.889.889,0,0,1,.888.888.9.9,0,0,1-.888.888H1.9a.12.12,0,0,0-.12.12v2.56A.889.889,0,0,1,0,4.456V1.592A1.582,1.582,0,0,1,1.584,0H4.456Zm0,14.224a.9.9,0,0,1,.888.888A.889.889,0,0,1,4.456,16H1.584A1.582,1.582,0,0,1,0,14.407V11.544a.889.889,0,0,1,1.776,0V14.1a.12.12,0,0,0,.12.12Zm10.656-3.568a.889.889,0,0,1,.888.888v2.864A1.582,1.582,0,0,1,14.416,16H11.544a.889.889,0,0,1-.888-.888.9.9,0,0,1,.888-.888H14.1a.12.12,0,0,0,.12-.12v-2.56a.889.889,0,0,1,.888-.888Z" transform="translate(0)"/></svg>