<svg width="16" height="14" viewBox="0 0 16 14" fill="none" xmlns="http://www.w3.org/2000/svg">
<path d="M6.80001 2.72982H9.19995V1.21121H6.80001V2.72982ZM12.3999 2.72982H13.6043C13.7123 2.73305 13.8186 2.7564 13.9171 2.79854C14.0156 2.84068 14.1043 2.90079 14.1782 2.97541C14.2521 3.05004 14.3098 3.13771 14.3478 3.23343C14.3858 3.32914 14.4035 3.43101 14.3998 3.5332V11.678C14.4058 11.8853 14.3245 12.0864 14.1738 12.2371C14.023 12.3877 13.8152 12.4756 13.5961 12.4814H2.40411C2.2955 12.4787 2.18851 12.4558 2.08928 12.414C1.99005 12.3721 1.90053 12.3122 1.82584 12.2375C1.75115 12.1629 1.69277 12.0751 1.65404 11.979C1.6153 11.883 1.59698 11.7807 1.60013 11.678V3.5332C1.59688 3.43027 1.61521 3.32775 1.65405 3.23154C1.69289 3.13534 1.75148 3.04737 1.82644 2.97268C1.9014 2.898 1.99125 2.83809 2.09081 2.79641C2.19037 2.75473 2.29766 2.7321 2.40651 2.72982H3.63648V1.21121H2.40651C2.08716 1.21376 1.77149 1.27589 1.47758 1.39405C1.18368 1.5122 0.917315 1.68407 0.693766 1.89978C0.470217 2.11549 0.293877 2.37081 0.174854 2.65111C0.0558318 2.9314 -0.00353315 3.23116 0.000162525 3.5332V11.678C-0.00340154 11.9798 0.0559744 12.2794 0.174895 12.5594C0.293815 12.8395 0.469946 13.0947 0.693215 13.3104C0.916485 13.526 1.18251 13.6979 1.47608 13.8163C1.76965 13.9346 2.08501 13.997 2.40411 14H13.5957C13.9147 13.9969 14.23 13.9344 14.5235 13.816C14.8171 13.6976 15.0831 13.5257 15.3063 13.3101C15.5296 13.0945 15.7057 12.8394 15.8247 12.5593C15.9437 12.2793 16.0032 11.9798 15.9998 11.678V3.5332C16.0039 3.23192 15.9452 2.93283 15.827 2.65303C15.7088 2.37323 15.5335 2.1182 15.311 1.90255C15.0886 1.68689 14.8233 1.51483 14.5305 1.39621C14.2377 1.27758 13.923 1.21472 13.6045 1.21121H12.3999V2.72982ZM4.40006 0.756655C4.40006 0.555977 4.48434 0.363519 4.63437 0.221619C4.7844 0.0797188 4.98787 5.63752e-08 5.20004 5.63752e-08C5.41221 5.63752e-08 5.61569 0.0797188 5.76572 0.221619C5.91574 0.363519 6.00002 0.555977 6.00002 0.756655V3.18816C6.00002 3.38884 5.91574 3.5813 5.76572 3.7232C5.61569 3.8651 5.41221 3.94482 5.20004 3.94482C4.98787 3.94482 4.7844 3.8651 4.63437 3.7232C4.48434 3.5813 4.40006 3.38884 4.40006 3.18816V0.756655ZM9.99993 0.756655C9.99993 0.555977 10.0842 0.363519 10.2342 0.221619C10.3843 0.0797187 10.5877 0 10.7999 0C11.0121 0 11.2156 0.0797187 11.3656 0.221619C11.5156 0.363519 11.5999 0.555977 11.5999 0.756655V3.1857C11.5999 3.38638 11.5156 3.57884 11.3656 3.72074C11.2156 3.86264 11.0121 3.94236 10.7999 3.94236C10.5877 3.94236 10.3843 3.86264 10.2342 3.72074C10.0842 3.57884 9.99993 3.38638 9.99993 3.1857V0.756655ZM4.40006 6.66764C4.40019 6.56775 4.42113 6.46887 4.46169 6.37665C4.50224 6.28442 4.56161 6.20065 4.6364 6.13014C4.7112 6.05962 4.79995 6.00374 4.89759 5.96568C4.99523 5.92762 5.09984 5.90814 5.20544 5.90834H10.7943C10.9008 5.90675 11.0066 5.92521 11.1055 5.96266C11.2044 6.00011 11.2944 6.0558 11.3703 6.12647C11.4462 6.19715 11.5065 6.2814 11.5476 6.37432C11.5888 6.46725 11.61 6.56699 11.61 6.66773C11.61 6.76848 11.5888 6.86822 11.5476 6.96115C11.5065 7.05407 11.4462 7.13832 11.3703 7.209C11.2944 7.27967 11.2044 7.33535 11.1055 7.3728C11.0066 7.41025 10.9008 7.42872 10.7943 7.42713H5.20544C5.09971 7.42753 4.99494 7.40816 4.89715 7.37012C4.79937 7.33209 4.7105 7.27614 4.63565 7.20551C4.5608 7.13487 4.50146 7.05094 4.46103 6.95854C4.4206 6.86613 4.39988 6.76764 4.40006 6.66764ZM4.40006 9.63354C4.40019 9.53365 4.42113 9.43477 4.46169 9.34254C4.50224 9.25032 4.56161 9.16655 4.6364 9.09604C4.7112 9.02552 4.79995 8.96964 4.89759 8.93158C4.99523 8.89352 5.09984 8.87403 5.20544 8.87423H10.7943C11.0072 8.87423 11.2114 8.95423 11.362 9.09663C11.5125 9.23903 11.5971 9.43216 11.5971 9.63354C11.5971 9.83492 11.5125 10.028 11.362 10.1704C11.2114 10.3128 11.0072 10.3928 10.7943 10.3928H5.20544C5.09972 10.3933 4.99496 10.3739 4.89717 10.3359C4.79938 10.2979 4.71051 10.242 4.63566 10.1713C4.56081 10.1007 4.50146 10.0168 4.46103 9.9244C4.4206 9.83201 4.39988 9.73353 4.40006 9.63354Z" fill="#AAAEB3"/>
</svg>
