<!-- Generated by IcoMoon.io -->
<svg version="1.1" xmlns="http://www.w3.org/2000/svg" width="32" height="32" viewBox="0 0 32 32">
<path fill="#ffb367" d="M18.208 22.992c0 1.006-0.813 1.82-1.812 1.82-1.002 0-1.812-0.813-1.812-1.82 0-1.003 0.81-1.816 1.812-1.816s1.812 0.813 1.812 1.816z"></path>
<path fill="#ffb367" d="M17.598 16.459c0 1.329-0.54 2.41-1.202 2.41s-1.202-1.081-1.194-2.41l-1.202-6.049c0-1.33 1.072-2.41 2.4-2.41 1.324 0 2.4 1.077 2.4 2.41l-1.202 6.049z"></path>
<path fill="#ffb367" d="M7.111 29.303c2.631 1.758 5.725 2.697 8.889 2.697 4.243 0 8.313-1.686 11.314-4.686s4.686-7.070 4.686-11.314c0-3.165-0.938-6.258-2.697-8.889s-4.257-4.682-7.181-5.893-6.141-1.528-9.244-0.91c-3.104 0.617-5.955 2.141-8.192 4.379s-3.761 5.089-4.379 8.192c-0.617 3.104-0.3 6.321 0.91 9.244s3.262 5.423 5.893 7.181zM8.889 5.357c2.105-1.406 4.58-2.157 7.111-2.157 3.395 0 6.651 1.349 9.051 3.749s3.749 5.656 3.749 9.051c0 2.532-0.751 5.006-2.157 7.111s-3.406 3.745-5.744 4.714c-2.339 0.969-4.913 1.222-7.396 0.728s-4.764-1.713-6.554-3.503-3.009-4.071-3.503-6.554c-0.494-2.483-0.24-5.057 0.728-7.396s2.609-4.338 4.714-5.744z"></path>
</svg>
