<!-- Generated by IcoMoon.io -->
<svg version="1.1" xmlns="http://www.w3.org/2000/svg" width="32" height="32" viewBox="0 0 32 32">
<path d="M28.559 16c0-6.752-5.535-12.267-12.413-12.267s-12.413 5.514-12.413 12.267c0 6.752 5.535 12.267 12.413 12.267s12.413-5.514 12.413-12.267zM30.959 16c0 8.1-6.632 14.667-14.813 14.667s-14.813-6.567-14.813-14.667c0-8.1 6.632-14.667 14.813-14.667s14.813 6.566 14.813 14.667zM19.459 10.742l-5.311 5.258 5.311 5.258c0.471 0.466 0.475 1.226 0.008 1.697s-1.226 0.475-1.697 0.008l-6.172-6.111c-0.228-0.225-0.356-0.532-0.356-0.853s0.128-0.627 0.356-0.853l6.172-6.111c0.471-0.466 1.231-0.463 1.697 0.008s0.463 1.231-0.008 1.697z"></path>
</svg>
