<?xml version="1.0" standalone="no"?><!DOCTYPE svg PUBLIC "-//W3C//DTD SVG 1.1//EN" "http://www.w3.org/Graphics/SVG/1.1/DTD/svg11.dtd"><svg t="1611036775313" class="icon" viewBox="0 0 1024 1024" version="1.1" xmlns="http://www.w3.org/2000/svg" p-id="7608" xmlns:xlink="http://www.w3.org/1999/xlink" width="200" height="200"><defs><style type="text/css"></style></defs><path d="M967.159081 682.690935a53.729968 53.729968 0 0 0-56.860575 56.860576v170.654532H113.813614v-170.654532a53.729968 53.729968 0 0 0-56.860576-56.860576 53.729968 53.729968 0 0 0-56.860576 56.860576v284.448489h1023.927195v-284.448489a53.729968 53.729968 0 0 0-56.860576-56.860576z" fill="#4BBC89" p-id="7609"></path><path d="M460.874261 830.557554a110.008105 110.008105 0 0 0 159.296978 0L898.868146 546.03626a56.350942 56.350942 0 0 0-79.648489-79.648489L597.383326 693.975684V56.860576a56.860576 56.860576 0 1 0-113.793957 0v637.187913L261.753038 466.460576A56.350942 56.350942 0 0 0 182.104549 546.03626l278.769712 284.448489z" fill="#4BBC89" p-id="7610"></path></svg>