<!-- Generated by IcoMoon.io -->
<svg version="1.1" xmlns="http://www.w3.org/2000/svg" width="32" height="32" viewBox="0 0 32 32">
<path d="M12.77 13.323c0.884 0 1.6 0.716 1.6 1.6v6.462c0 0.884-0.716 1.6-1.6 1.6s-1.6-0.716-1.6-1.6v-6.462c0-0.884 0.716-1.6 1.6-1.6z"></path>
<path d="M20.831 14.923c0-0.884-0.716-1.6-1.6-1.6s-1.6 0.716-1.6 1.6v6.462c0 0.884 0.716 1.6 1.6 1.6s1.6-0.716 1.6-1.6v-6.462z"></path>
<path d="M12.829 0.4c-0.6 0-1.149 0.335-1.423 0.869l-1.767 3.439h-7.639c-0.884 0-1.6 0.716-1.6 1.6s0.716 1.6 1.6 1.6h2.707v22.092c0 0.884 0.716 1.6 1.6 1.6h19.385c0.884 0 1.6-0.716 1.6-1.6v-22.092h2.709c0.884 0 1.6-0.716 1.6-1.6s-0.716-1.6-1.6-1.6h-7.63l-1.726-3.427c-0.272-0.54-0.825-0.88-1.429-0.88h-6.386zM10.6 7.908c0.005 0 0.010 0 0.016 0h10.769c0.005 0 0.010-0 0.016-0h2.691v20.492h-16.185v-20.492h2.693zM18.788 4.708l-0.558-1.108h-4.424l-0.569 1.108h5.551z"></path>
</svg>
