<svg width="26" height="26" viewBox="0 0 26 26" fill="none" xmlns="http://www.w3.org/2000/svg">
<path fill-rule="evenodd" clip-rule="evenodd" d="M13 26C5.8203 26 0 20.1797 0 13C0 5.8203 5.8203 0 13 0C20.1797 0 26 5.8203 26 13C26 20.1797 20.1797 26 13 26ZM12.4926 7.29289C12.8831 7.68342 12.8831 8.31658 12.4926 8.70711L9.56492 11.6348H20C20.5523 11.6348 21 12.0825 21 12.6348C21 13.187 20.5523 13.6348 20 13.6348H9.56429L12.4926 16.5631C12.8831 16.9536 12.8831 17.5867 12.4926 17.9773C12.1021 18.3678 11.4689 18.3678 11.0784 17.9773L6.44328 13.3422C6.38244 13.2813 6.33025 13.2135 6.28749 13.1405C6.20729 13.0035 6.16031 12.8485 6.1518 12.6881C6.15086 12.6705 6.15039 12.6528 6.15039 12.6351C6.15039 12.3513 6.2686 12.0948 6.45847 11.9128L11.0784 7.29289C11.4689 6.90237 12.1021 6.90237 12.4926 7.29289Z" fill="#2ABF8E"/>
</svg>
