<?xml version="1.0" standalone="no"?><!DOCTYPE svg PUBLIC "-//W3C//DTD SVG 1.1//EN" "http://www.w3.org/Graphics/SVG/1.1/DTD/svg11.dtd"><svg t="1611036818229" class="icon" viewBox="0 0 1024 1024" version="1.1" xmlns="http://www.w3.org/2000/svg" p-id="9617" xmlns:xlink="http://www.w3.org/1999/xlink" width="200" height="200"><defs><style type="text/css"></style></defs><path d="M0 0m102.4 0l819.2 0q102.4 0 102.4 102.4l0 819.2q0 102.4-102.4 102.4l-819.2 0q-102.4 0-102.4-102.4l0-819.2q0-102.4 102.4-102.4Z" fill="#A7ADB3" fill-opacity="0.08" p-id="9618"></path><path d="M486.4 729.6256v-192h-192a38.4 38.4 0 0 1-38.4-38.4 38.4 38.4 0 0 1 38.4-38.4H486.4v-192a38.4 38.4 0 0 1 38.4-38.4 38.4 38.4 0 0 1 38.4 38.4v192h192a38.4 38.4 0 0 1 38.4 38.4 38.4 38.4 0 0 1-38.4 38.4H563.2v192a38.4 38.4 0 0 1-38.4 38.4 38.4 38.4 0 0 1-38.4-38.4z" fill="#919599" p-id="9619"></path></svg>