<svg width="16" height="16" viewBox="0 0 16 16" fill="none" xmlns="http://www.w3.org/2000/svg">
<path fill-rule="evenodd" clip-rule="evenodd" d="M10.7063 12.3565C9.89318 12.7681 8.97367 13 8 13C4.68629 13 2 10.3137 2 7C2 3.68629 4.68629 1 8 1C11.3137 1 14 3.68629 14 7C14 8.86455 13.1495 10.5304 11.8153 11.6309L12.9561 13.1643C13.1544 13.4308 13.0779 13.8262 12.7858 14.0435C12.4936 14.2605 12.0928 14.2202 11.8945 13.9536L10.7063 12.3565ZM12.6 7C12.6 9.54051 10.5405 11.6 8 11.6C5.45949 11.6 3.4 9.54051 3.4 7C3.4 4.45949 5.45949 2.4 8 2.4C10.5405 2.4 12.6 4.45949 12.6 7Z" fill="#ffffff"/>
</svg>
