<svg width="14" height="14" viewBox="0 0 14 14" fill="none" xmlns="http://www.w3.org/2000/svg">
<path d="M5.9664 0C6.50038 0 6.76676 0.269986 6.76676 0.808759C6.76676 1.56472 6.0708 1.59952 5.9772 1.60072H1.60072V12.3993H12.3993V8C12.3993 8 12.4053 7.17924 13.1996 7.17924C13.7288 7.17924 13.9952 7.45283 14 8V12.3993C14 13.2836 13.2836 14 12.3993 14H1.60072C1.39047 14.0002 1.18224 13.9589 0.987965 13.8785C0.793685 13.7981 0.61716 13.6802 0.468489 13.5315C0.319817 13.3828 0.201914 13.2063 0.121527 13.012C0.0411388 12.8178 -0.000157339 12.6095 4.50471e-07 12.3993V1.60072C4.50471e-07 0.716364 0.716365 0 1.60072 0H5.9664ZM4.83651 9.16589C4.52452 8.85391 4.52452 8.34753 4.83651 8.03435L10.1002 2.77306H8.22754C7.82676 2.77306 7.49438 2.47668 7.43678 2.09029L7.42838 1.9727C7.42838 1.76064 7.51254 1.55725 7.66237 1.40718C7.81221 1.25712 8.01548 1.17266 8.22754 1.17234H11.7309L11.8773 1.18194C12.1222 1.19547 12.3533 1.29987 12.5253 1.47473C12.7461 1.69671 12.8109 1.9283 12.8253 2.23309L12.8277 5.77246C12.8196 5.97921 12.7319 6.17482 12.5828 6.31827C12.4337 6.46171 12.2348 6.54184 12.0279 6.54184C11.821 6.54184 11.6221 6.46171 11.473 6.31827C11.3239 6.17482 11.2361 5.97921 11.2281 5.77246L11.2269 3.9082L5.96805 9.16589C5.65607 9.47787 5.14849 9.47787 4.83651 9.16589Z" fill="#ffffff"/>
</svg>
