<!-- Generated by IcoMoon.io -->
<svg version="1.1" xmlns="http://www.w3.org/2000/svg" width="32" height="32" viewBox="0 0 32 32">
<path d="M14.915 13.195v10.941c0 0.599 0.486 1.085 1.085 1.085s1.085-0.486 1.085-1.085v-10.941l3.572 3.572c0.424 0.424 1.111 0.424 1.534 0s0.424-1.111 0-1.534l-5.424-5.424c-0.196-0.196-0.466-0.317-0.764-0.318h-0.006c-0.146 0-0.285 0.030-0.412 0.082-0.128 0.053-0.248 0.131-0.352 0.235l-5.424 5.424c-0.424 0.424-0.424 1.111 0 1.534s1.11 0.424 1.534 0l3.572-3.572z"></path>
<path d="M0 16c0-8.837 7.163-16 16-16s16 7.163 16 16c0 8.837-7.163 16-16 16s-16-7.163-16-16zM16 2.17c-7.638 0-13.831 6.192-13.831 13.831s6.192 13.831 13.831 13.831c7.638 0 13.831-6.192 13.831-13.831s-6.192-13.831-13.831-13.831z"></path>
</svg>
