<!-- Generated by IcoMoon.io -->
<svg version="1.1" xmlns="http://www.w3.org/2000/svg" width="32" height="32" viewBox="0 0 32 32">
<path fill="#2abf8e" d="M8.954 8.747c1.74-1.332 3.864-2.050 6.048-2.046 1.319 0.001 2.626 0.265 3.844 0.776s2.325 1.259 3.257 2.202c0.932 0.943 1.671 2.062 2.175 3.293s0.762 2.55 0.761 3.883c0.001 1.332-0.258 2.651-0.762 3.882s-1.243 2.35-2.175 3.292c-0.932 0.943-2.039 1.691-3.258 2.202s-2.525 0.774-3.844 0.775c-1.319-0.001-2.626-0.265-3.844-0.776s-2.325-1.259-3.257-2.202c-0.932-0.943-1.671-2.062-2.175-3.293s-0.762-2.55-0.761-3.882c0.007-0.201-0.026-0.401-0.097-0.589s-0.179-0.359-0.317-0.504c-0.138-0.145-0.304-0.26-0.487-0.338s-0.38-0.119-0.579-0.119c-0.199 0-0.396 0.041-0.58 0.119s-0.349 0.194-0.487 0.338c-0.138 0.145-0.246 0.316-0.317 0.504s-0.104 0.388-0.097 0.589c0 7.26 5.82 13.147 13 13.147 7.179 0 12.999-5.886 12.999-13.147s-5.82-13.151-13.001-13.151c-2.729-0.003-5.388 0.865-7.599 2.48l0.664-2.5c0.060-0.226 0.061-0.464 0.001-0.691s-0.177-0.433-0.341-0.599c-0.164-0.166-0.368-0.285-0.592-0.346s-0.46-0.061-0.684-0.001c-0.224 0.061-0.428 0.181-0.591 0.347s-0.281 0.373-0.34 0.599l-1.527 5.79c-0.090 0.341-0.043 0.704 0.132 1.009s0.462 0.529 0.799 0.621l5.721 1.55c0.224 0.062 0.46 0.063 0.684 0.003s0.429-0.179 0.593-0.344c0.164-0.165 0.282-0.372 0.342-0.598s0.059-0.465-0.002-0.691c-0.060-0.226-0.178-0.432-0.343-0.597s-0.369-0.283-0.592-0.343l-2.369-0.644z"></path>
</svg>
