<!-- Generated by IcoMoon.io -->
<svg version="1.1" xmlns="http://www.w3.org/2000/svg" width="32" height="32" viewBox="0 0 32 32">
<path d="M8.731 8.996c1.728-2.086 4.213-3.482 7.055-3.482s5.327 1.396 7.055 3.482c0.705 0.851 0.586 2.111-0.264 2.816s-2.111 0.586-2.816-0.264c-1.095-1.322-2.509-2.033-3.975-2.033s-2.88 0.712-3.975 2.034c-0.705 0.851-1.965 0.969-2.816 0.264s-0.969-1.965-0.264-2.816z"></path>
<path d="M0 15.788c0-8.719 7.069-15.788 15.788-15.788s15.788 7.069 15.788 15.788c0 3.639-1.231 6.99-3.299 9.66l3.138 3.138c0.781 0.781 0.781 2.047 0 2.828s-2.047 0.781-2.828 0l-3.138-3.138c-2.67 2.068-6.021 3.299-9.66 3.299-8.719 0-15.788-7.069-15.788-15.788zM15.788 4c-6.51 0-11.788 5.278-11.788 11.788s5.278 11.788 11.788 11.788c6.51 0 11.788-5.278 11.788-11.788s-5.278-11.788-11.788-11.788z"></path>
</svg>
