<!-- Generated by IcoMoon.io -->
<svg version="1.1" xmlns="http://www.w3.org/2000/svg" width="32" height="32" viewBox="0 0 32 32">
<path d="M23.998 16c0-1.105-0.895-2-2-2s-2 0.895-2 2v4c0 1.105 0.895 2 2 2s2-0.895 2-2v-4z"></path>
<path d="M16.002 8c1.105 0 2 0.895 2 2v10c0 1.105-0.895 2-2 2s-2-0.895-2-2v-10c0-1.105 0.895-2 2-2z"></path>
<path d="M11.998 12c0-1.105-0.895-2-2-2s-2 0.895-2 2v8c0 1.105 0.895 2 2 2s2-0.895 2-2v-8z"></path>
<path d="M3.4 0c-2.147 0-3.4 1.913-3.4 3.625v22.75c0 1.712 1.253 3.625 3.4 3.625h25.2c2.147 0 3.4-1.913 3.4-3.625v-22.75c0-1.712-1.253-3.625-3.4-3.625h-25.2zM4 26v-22h24v22h-24z"></path>
</svg>
