<!-- Generated by IcoMoon.io -->
<svg version="1.1" xmlns="http://www.w3.org/2000/svg" width="32" height="32" viewBox="0 0 32 32">
<path d="M8.234 11.883c0-1.105 0.895-2 2-2h11.529c1.105 0 2 0.895 2 2s-0.895 2-2 2h-11.529c-1.105 0-2-0.895-2-2z"></path>
<path d="M10.234 18.117c-1.105 0-2 0.895-2 2s0.895 2 2 2h11.529c1.105 0 2-0.895 2-2s-0.895-2-2-2h-11.529z"></path>
<path d="M0 2c0-1.105 0.895-2 2-2h28c1.105 0 2 0.895 2 2v28c0 1.105-0.895 2-2 2h-28c-1.105 0-2-0.895-2-2v-28zM4 4v24h24v-24h-24z"></path>
</svg>
