<svg width="24" height="24" viewBox="0 0 24 24" fill="none" xmlns="http://www.w3.org/2000/svg">
<path fill-rule="evenodd" clip-rule="evenodd" d="M12.5813 4.18627C12.2336 3.93791 11.7665 3.93791 11.4188 4.18627L4.78696 8.92332C4.69605 8.94314 4.60716 8.97582 4.52302 9.02148C4.20072 9.19639 4 9.53368 4 9.90039V17.5368C4 18.4271 4.68099 19.3004 5.7 19.3004H18.3C19.319 19.3004 20 18.4271 20 17.5368V10.0164C20.0002 10.006 20.0002 9.99567 20 9.98533V9.90039C20 9.53368 19.7993 9.19639 19.477 9.02148C19.3929 8.97585 19.3041 8.94318 19.2132 8.92336L12.5813 4.18627ZM17.1521 9.90889L12.0001 6.2289L6.84804 9.90893L12 13.2577L17.1521 9.90889ZM6 17.3004V11.7431L11.455 15.2888C11.7864 15.5043 12.2136 15.5043 12.545 15.2888L18 11.7431V17.3004H6Z" fill="#C0C6CC"/>
</svg>
