<svg width="16" height="16" viewBox="0 0 16 16" fill="none" xmlns="http://www.w3.org/2000/svg">
<path d="M5.9084 5.74316C5.46657 5.74316 5.1084 6.10134 5.1084 6.54316C5.1084 6.98499 5.46657 7.34316 5.9084 7.34316L11.0887 7.34316C11.5305 7.34316 11.8887 6.98499 11.8887 6.54316C11.8887 6.10134 11.5305 5.74316 11.0887 5.74316L5.9084 5.74316Z" fill="#ffffff"/>
<path fill-rule="evenodd" clip-rule="evenodd" d="M3.51229 1C2.7308 1 2 1.60361 2 2.46408V15.0817C2 15.3569 2.14145 15.6128 2.37451 15.7591C2.60756 15.9055 2.89948 15.9218 3.14739 15.8023L8.49833 13.2229L13.8493 15.8023C14.0972 15.9218 14.3891 15.9055 14.6222 15.7591C14.8552 15.6128 14.9967 15.3569 14.9967 15.0817V2.46408C14.9967 1.60362 14.2659 1 13.4844 1H3.51229ZM3.6 13.8079V2.6H13.3967V13.8079L8.84571 11.6141C8.62621 11.5083 8.37045 11.5083 8.15094 11.6141L3.6 13.8079Z" fill="#ffffff"/>
</svg>
