<!-- Generated by IcoMoon.io -->
<svg version="1.1" xmlns="http://www.w3.org/2000/svg" width="32" height="32" viewBox="0 0 32 32">
<title>fujian</title>
<path d="M28.954 6.47c-1.567-3.825-5.261-6.47-9.573-6.47-1.398 0-2.73 0.278-3.946 0.781l0.068-0.025c-1.332 0.551-2.467 1.324-3.413 2.284l-0.001 0.001-9.337 9.394c-0.257 0.26-0.416 0.617-0.416 1.011s0.159 0.752 0.416 1.011l-0-0c0.257 0.259 0.613 0.419 1.006 0.419s0.749-0.16 1.006-0.419l0-0 9.337-9.394c1.353-1.357 3.224-2.197 5.291-2.197s3.938 0.84 5.291 2.197l0 0c1.349 1.369 2.182 3.25 2.182 5.325s-0.833 3.956-2.183 5.326l0.001-0.001-12.070 12.148c-0.794 0.797-1.892 1.29-3.106 1.29s-2.312-0.493-3.106-1.29l-0-0c-0.793-0.803-1.283-1.907-1.283-3.125s0.49-2.323 1.284-3.126l-0 0 10.564-10.621c0.257-0.255 0.61-0.413 1.001-0.413 0.784 0 1.42 0.636 1.42 1.42 0 0.393-0.16 0.75-0.419 1.007l-0 0-8.267 8.329c-0.259 0.259-0.419 0.616-0.419 1.010s0.16 0.752 0.419 1.010v0c0.256 0.258 0.611 0.417 1.003 0.417s0.747-0.16 1.003-0.417l8.276-8.329c0.769-0.778 1.244-1.848 1.244-3.028s-0.475-2.251-1.244-3.029l0 0c-0.769-0.772-1.833-1.25-3.009-1.25s-2.24 0.478-3.009 1.25l-0 0-6.096 6.134c-0.017 0.016-0.033 0.032-0.047 0.049l-0.001 0.001-4.425 4.445c-1.302 1.322-2.107 3.138-2.107 5.142s0.804 3.82 2.108 5.143l-0.001-0.001c1.308 1.312 3.116 2.124 5.115 2.124s3.808-0.812 5.115-2.124l12.079-12.146c0.952-0.953 1.717-2.093 2.236-3.36l0.025-0.068c0.476-1.151 0.752-2.488 0.752-3.889 0-0.008 0-0.015-0-0.023v0.001c-0-1.41-0.277-2.754-0.78-3.983l0.025 0.070z"></path>
</svg>
