<!-- Generated by IcoMoon.io -->
<svg version="1.1" xmlns="http://www.w3.org/2000/svg" width="32" height="32" viewBox="0 0 32 32">
<title>jian11tou</title>
<path d="M23.868 23.602c-0.231-0.202-0.376-0.496-0.376-0.825 0-0.219 0.064-0.422 0.175-0.593l-0.003 0.004 5.72-6.18-5.72-6.18c-0.108-0.166-0.172-0.37-0.172-0.589 0-0.329 0.145-0.623 0.375-0.824l0.001-0.001c0.417-0.452 1.003-0.55 1.308-0.22l6.659 7.193c0.109 0.177 0.174 0.391 0.174 0.62s-0.065 0.443-0.177 0.625l0.003-0.005-6.659 7.192c-0.114 0.121-0.276 0.196-0.455 0.196-0.006 0-0.012-0-0.018-0l0.001 0c-0.335-0.019-0.631-0.175-0.835-0.412l-0.001-0.002zM19.218 16.001c0-0.884 0.717-1.601 1.601-1.601s1.601 0.717 1.601 1.601c0 0.884-0.717 1.601-1.601 1.601v0c-0.884 0-1.601-0.717-1.601-1.601v0zM12.812 16.001c0-0.884 0.717-1.601 1.601-1.601s1.601 0.717 1.601 1.601c0 0.884-0.717 1.601-1.601 1.601v0c-0 0-0.001 0-0.001 0-0.884 0-1.601-0.717-1.601-1.601v0zM6.406 16.001c0-0.884 0.717-1.601 1.601-1.601s1.601 0.717 1.601 1.601c0 0.884-0.717 1.601-1.601 1.601v0c-0 0-0.001 0-0.001 0-0.884 0-1.601-0.717-1.601-1.601v0zM0 16.001c0-0.884 0.717-1.601 1.601-1.601s1.601 0.717 1.601 1.601c0 0.884-0.717 1.601-1.601 1.601v0c-0.884 0-1.601-0.717-1.601-1.601v0z"></path>
</svg>
