<!-- Generated by IcoMoon.io -->
<svg version="1.1" xmlns="http://www.w3.org/2000/svg" width="32" height="32" viewBox="0 0 32 32">
<title>jiazaizhong</title>
<path d="M32.004 16.534c-0.041-2.349-0.542-4.57-1.416-6.592l0.043 0.113c-0.9-2.098-2.13-3.889-3.644-5.393l-0.001-0.001c-1.482-1.476-3.25-2.667-5.212-3.483l-0.107-0.039c-1.727-0.718-3.732-1.135-5.835-1.135-2.324 0-4.53 0.509-6.511 1.422l0.097-0.040c-1.98 0.911-3.662 2.141-5.057 3.64l-0.009 0.010c-2.697 2.925-4.351 6.849-4.351 11.158 0 2.315 0.477 4.519 1.339 6.518l-0.041-0.107c0.848 1.964 2.002 3.641 3.42 5.052l0.001 0.001c1.389 1.379 3.046 2.491 4.886 3.251l0.101 0.037c1.611 0.669 3.482 1.057 5.444 1.057 2.183 0 4.253-0.481 6.112-1.342l-0.090 0.037c1.846-0.854 3.414-2.005 4.713-3.409l0.009-0.010c2.084-2.253 3.501-5.151 3.922-8.362l0.008-0.077h0.117c1.145-0.018 2.067-0.95 2.067-2.098 0-0.012-0-0.025-0-0.037l0 0.002v-0.179zM28.722 22.197c-0.792 1.83-1.871 3.391-3.198 4.702l-0.002 0.001c-1.296 1.284-2.843 2.319-4.559 3.024l-0.094 0.034c-1.497 0.617-3.234 0.974-5.055 0.974-0.115 0-0.229-0.001-0.343-0.004l0.017 0c-1.925-0.047-3.735-0.491-5.367-1.253l0.083 0.035c-1.715-0.8-3.171-1.877-4.374-3.189l-0.009-0.010c-1.2-1.302-2.166-2.841-2.817-4.537l-0.033-0.098c-0.573-1.494-0.905-3.222-0.905-5.027 0-0.116 0.001-0.231 0.004-0.346l-0 0.017c0.043-1.908 0.458-3.708 1.174-5.346l-0.035 0.091c0.736-1.696 1.74-3.142 2.974-4.355l0.002-0.002c1.204-1.187 2.638-2.144 4.229-2.797l0.087-0.032c1.382-0.566 2.986-0.895 4.667-0.895 0.113 0 0.226 0.002 0.338 0.004l-0.017-0c1.78 0.048 3.451 0.462 4.958 1.168l-0.076-0.032c1.585 0.741 2.931 1.736 4.045 2.948l0.008 0.009c1.108 1.204 1.999 2.629 2.596 4.198l0.030 0.090c0.521 1.367 0.823 2.948 0.823 4.6 0 0.123-0.002 0.245-0.005 0.367l0-0.018v0.179c-0 0.008-0 0.018-0 0.028 0 1.071 0.798 1.955 1.832 2.091l0.011 0.001c-0.222 1.268-0.568 2.398-1.035 3.464l0.038-0.096z"></path>
</svg>
