<!-- Generated by IcoMoon.io -->
<svg version="1.1" xmlns="http://www.w3.org/2000/svg" width="32" height="32" viewBox="0 0 32 32">
<title>nantouxiang</title>
<path fill="#d9ebf4" d="M32 15.927c-0.049 8.808-7.201 15.93-16.016 15.93-3.58 0-6.886-1.175-9.553-3.16l0.043 0.030c-3.895-2.942-6.387-7.564-6.387-12.768 0-8.813 7.144-15.957 15.957-15.957 8.801 0 15.939 7.126 15.957 15.923v0.002z"></path>
<path fill="#fff" d="M11.515 7.702v0zM16.349 6.302c-0.084 0-0.167-0.006-0.252-0.006s-0.177 0.004-0.267 0.007c0.085 0 0.171 0.003 0.254 0.009 0.088-0.005 0.176-0.009 0.267-0.009zM14.755 11.115c-1.565 2.733-4.215 5.153-6.792 3.555 0.183 4.351 3.754 7.808 8.133 7.808 4.381 0 7.953-3.46 8.133-7.797l0.001-0.016c-2.153 1.333-7.8-0.6-9.476-3.55zM11.793 7.521v0zM19.375 6.981c0.797 0.366 1.483 0.81 2.096 1.336l-0.012-0.010c-0.599-0.525-1.287-0.969-2.034-1.304l-0.052-0.021z"></path>
<path fill="#7fbef7" d="M19.929 23.119c-0.102 0.285-0.222 0.531-0.363 0.761l0.010-0.017c0.579 0.888 0.434 4.759-0.437 4.151l-1.524-1.067-1.519-1.067 0.099-0.070h-0.203l0.101 0.070-3.044 2.133c-0.875 0.609-1.021-3.276-0.435-4.155-0.13-0.211-0.248-0.454-0.341-0.709l-0.009-0.028c-2.685 0.927-4.779 2.96-5.769 5.539l-0.022 0.064c2.63 1.955 5.941 3.13 9.527 3.13 3.653 0 7.022-1.22 9.721-3.274l-0.039 0.029c-1.031-2.59-3.103-4.576-5.685-5.47l-0.066-0.020zM12.263 23.119l0.058-0.021z"></path>
<path fill="#fefefe" d="M12.614 23.857c0.116-0.175 0.261-0.231 0.435-0.109l2.943 2.061h0.204l2.944-2.061c0.175-0.123 0.32-0.067 0.437 0.114 0.132-0.213 0.251-0.458 0.345-0.715l0.009-0.028-0.077-0.025q-0.161-0.055-0.324-0.105l-0.107-0.033q-0.442-0.133-0.893-0.225l-0.117-0.023q-0.412-0.082-0.829-0.133c-0.045-0.005-0.089-0.012-0.133-0.017q-0.238-0.027-0.477-0.045h-1.745q-0.24 0.018-0.479 0.045l-0.127 0.016q-0.427 0.053-0.85 0.137l-0.095 0.019q-0.462 0.096-0.914 0.231l-0.061 0.019q-0.192 0.059-0.38 0.124l-0.058 0.021c0.102 0.283 0.22 0.526 0.36 0.754l-0.010-0.017z"></path>
<path fill="#368bd8" d="M19.139 23.748l-3.044 2.128 1.519 1.067 1.524 1.067c0.87 0.609 1.015-3.263 0.437-4.15-0.116-0.179-0.262-0.237-0.437-0.114zM13.049 23.748c-0.174-0.122-0.319-0.067-0.435 0.109-0.585 0.879-0.44 4.765 0.435 4.155l3.044-2.133-0.1-0.067-1.419-0.994z"></path>
<path fill="#368bd8" d="M14.643 11.155c1.705 2.996 7.44 4.962 9.627 3.607l0.007-0.004c0.008-0.132 0.012-0.286 0.012-0.441 0-2.416-1.098-4.575-2.823-6.006l-0.013-0.010c-0.611-0.524-1.308-0.974-2.061-1.322l-0.055-0.023c-0.9-0.432-1.957-0.687-3.073-0.691h-0.001c-0.090 0-0.18 0.003-0.267 0.010 0.286 1.009-0.284 3.016-1.351 4.881z"></path>
<path fill="#368bd8" d="M14.881 11.167c1.071-1.867 1.642-3.882 1.355-4.893q-0.129-0.008-0.259-0.009c-1.492 0.017-2.877 0.455-4.049 1.2l0.031-0.019c-0.033 0.019-0.067 0.041-0.097 0.061-0.082 0.051-0.165 0.103-0.245 0.157l-0.037 0.025c-2.207 1.436-3.645 3.891-3.645 6.682 0 0.144 0.004 0.287 0.011 0.429l-0.001-0.020 0.015 0.009c2.625 1.628 5.325-0.838 6.919-3.621z"></path>
</svg>
