<!-- Generated by IcoMoon.io -->
<svg version="1.1" xmlns="http://www.w3.org/2000/svg" width="32" height="32" viewBox="0 0 32 32">
<title>piliangtuisu</title>
<path d="M3.398 31.994v-21.535l-0.736 0.37c-0.252 0.128-0.55 0.203-0.865 0.203-0.56 0-1.066-0.237-1.421-0.616l-0.001-0.001-0.144-0.2c-0.141-0.221-0.225-0.491-0.225-0.78 0-0.522 0.273-0.981 0.684-1.24l0.006-0.004 0.224-0.13 16.098-8.064 14.052 8.060c0.546 0.232 0.922 0.763 0.922 1.382 0 0.242-0.058 0.471-0.16 0.674l0.004-0.009c-0.334 0.561-0.937 0.931-1.626 0.931-0.226 0-0.444-0.040-0.645-0.113l0.013 0.004-0.24-0.098-12.317-7.21-10.491 5.265c0.031 0.077 0.056 0.168 0.071 0.262l0.001 0.008 0.014 0.2v19.763h17.038c0.020-0.001 0.044-0.001 0.067-0.001 0.751 0 1.379 0.529 1.531 1.235l0.002 0.010 0.014 0.2c-0.039 0.763-0.64 1.373-1.395 1.427l-0.005 0-0.22 0.012zM13.63 25.276l-0.246-0.014c-0.873-0.055-1.56-0.777-1.56-1.658 0-0.011 0-0.022 0-0.033l-0 0.002c0.125-0.847 0.846-1.49 1.718-1.49 0.029 0 0.057 0.001 0.085 0.002l-0.004-0h3.145l0.246 0.016c0.873 0.055 1.56 0.777 1.56 1.658 0 0.011-0 0.022-0 0.033l0-0.002c-0.125 0.846-0.845 1.488-1.716 1.488-0.029 0-0.059-0.001-0.088-0.002l0.004 0zM21.272 23.234c-0.267-0.265-0.433-0.632-0.433-1.038 0-0.384 0.148-0.733 0.39-0.994l-0.001 0.001 2.399-2.383-12.087-0.010c-0.808 0-1.464-0.655-1.464-1.464s0.655-1.464 1.464-1.464h12.085l-2.399-2.383c-0.241-0.26-0.388-0.609-0.388-0.993 0-0.406 0.165-0.773 0.432-1.038l0-0c0.268-0.266 0.637-0.43 1.045-0.43 0.385 0 0.736 0.146 1 0.387l-0.001-0.001 4.891 4.849c0.197 0.183 0.343 0.419 0.416 0.686l0.002 0.010c0.006 0.017 0.011 0.039 0.016 0.061l0 0.003 0.010 0.060c0.007 0.031 0.013 0.068 0.016 0.106l0 0.002v0.018c0.001 0.020 0.002 0.043 0.002 0.066s-0.001 0.046-0.002 0.069l0-0.003v0.144c0 0.036 0 0.072-0.016 0.108l-0.012 0.060-0.014 0.064c-0.071 0.26-0.204 0.483-0.382 0.66l-0 0-0.038 0.034-4.887 4.853c-0.263 0.24-0.613 0.386-0.999 0.386-0.407 0-0.775-0.164-1.043-0.429l0 0zM12.138 12.609l-0.23-0.016c-0.82-0.076-1.457-0.76-1.457-1.593 0-0.023 0.001-0.047 0.002-0.070l-0 0.003c0.094-0.826 0.79-1.462 1.634-1.462 0.018 0 0.037 0 0.055 0.001l-0.003-0h4.759l0.23 0.014c0.82 0.076 1.457 0.76 1.457 1.593 0 0.024-0.001 0.048-0.002 0.072l0-0.003c-0.094 0.826-0.79 1.462-1.634 1.462-0.018 0-0.037-0-0.055-0.001l0.003 0z"></path>
</svg>
