<!-- Generated by IcoMoon.io -->
<svg version="1.1" xmlns="http://www.w3.org/2000/svg" width="32" height="32" viewBox="0 0 32 32">
<title>shanchu</title>
<path d="M26.297 4.395h-20.592c-0.004 0-0.008-0-0.012-0-0.937 0-1.789 0.368-2.418 0.966l0.001-0.001c-0.618 0.587-1.004 1.413-1.008 2.329v0.198h27.465v-0.197c-0.002-0.917-0.387-1.744-1.005-2.329l-0.001-0.001c-0.628-0.597-1.479-0.965-2.416-0.965-0.003 0-0.007 0-0.010 0h0.001zM19.856 2.627l0.508 3.034h-8.733l0.51-3.039h7.722zM20.569-0.005h-9.147c-0.969 0.010-1.773 0.703-1.955 1.62l-0.002 0.013-0.67 4.596c-0.011 0.066-0.018 0.143-0.018 0.221 0 0.356 0.135 0.68 0.357 0.923l-0.001-0.001c0.271 0.295 0.659 0.479 1.090 0.479 0.019 0 0.038-0 0.056-0.001l-0.003 0h11.433c0.015 0.001 0.033 0.001 0.051 0.001 0.432 0 0.82-0.184 1.092-0.478l0.001-0.001c0.217-0.242 0.35-0.563 0.35-0.916 0-0.085-0.008-0.167-0.022-0.247l0.001 0.008-0.665-4.594c-0.187-0.923-0.986-1.61-1.947-1.624l-0.002-0zM26.864 10.116h-21.742c-0.014-0-0.030-0.001-0.046-0.001-0.593 0-1.129 0.247-1.509 0.645l-0.001 0.001c-0.332 0.343-0.536 0.811-0.536 1.326 0 0.076 0.005 0.152 0.013 0.226l-0.001-0.009 1.875 17.5c0.167 1.241 1.22 2.188 2.494 2.188 0 0 0.001 0 0.001 0h17.164c0 0 0 0 0.001 0 1.274 0 2.327-0.947 2.493-2.175l0.001-0.013 1.877-17.5c0.008-0.064 0.012-0.139 0.012-0.214 0-0.517-0.206-0.986-0.541-1.329l0 0c-0.38-0.398-0.916-0.645-1.508-0.645-0.016 0-0.031 0-0.047 0.001l0.002-0zM10.974 28.888h-3.439l-1.143-15.449h4.594zM17.834 28.888h-3.668v-15.449h3.679zM24.45 28.888h-3.43v-15.449h4.573z"></path>
</svg>
