<!-- Generated by IcoMoon.io -->
<svg version="1.1" xmlns="http://www.w3.org/2000/svg" width="32" height="32" viewBox="0 0 32 32">
<title>shebeiguanli</title>
<path d="M27.438 4.56h-22.865c-0.001 0-0.001 0-0.002 0-2.525 0-4.572 2.047-4.572 4.572 0 0.001 0 0.001 0 0.002v-0 13.719c0 0.001 0 0.001 0 0.002 0 2.525 2.047 4.572 4.572 4.572 0.001 0 0.001 0 0.002 0h22.865c0.001 0 0.001 0 0.002 0 2.525 0 4.572-2.047 4.572-4.572 0-0.001 0-0.001 0-0.002v0-13.719c0-0.001 0-0.001 0-0.002 0-2.525-2.047-4.572-4.572-4.572-0.001 0-0.001 0-0.002 0h0zM27.811 23.445h-23.787v-15.028h23.787z"></path>
</svg>
