<!-- Generated by IcoMoon.io -->
<svg version="1.1" xmlns="http://www.w3.org/2000/svg" width="32" height="32" viewBox="0 0 32 32">
<title>shezhikaobei3</title>
<path d="M28.156 17.573c0.051-0.393 0.080-0.848 0.080-1.309 0-0.102-0.001-0.204-0.004-0.305l0 0.015c0-0.55-0.076-1.050-0.076-1.599l3.421-2.647c0.189-0.14 0.31-0.363 0.31-0.613 0-0.162-0.051-0.313-0.138-0.437l0.002 0.002-3.275-5.512c-0.143-0.23-0.395-0.381-0.681-0.381-0.105 0-0.206 0.020-0.298 0.057l0.005-0.002-4.1 1.599c-0.8-0.625-1.715-1.162-2.697-1.571l-0.078-0.029-0.576-4.242c-0.121-0.347-0.443-0.593-0.823-0.6h-6.55c-0.389 0.023-0.712 0.287-0.822 0.643l-0.002 0.006-0.652 4.244c-1.059 0.457-1.972 0.992-2.809 1.624l0.034-0.024-4.1-1.599c-0.091-0.041-0.197-0.066-0.309-0.066-0.284 0-0.532 0.155-0.663 0.386l-0.002 0.004-3.275 5.488c-0.050 0.112-0.079 0.242-0.079 0.379 0 0.248 0.095 0.474 0.251 0.644l-0.001-0.001 3.527 2.647c0 0.548-0.076 1.046-0.076 1.599s0.076 1.048 0.076 1.599l-3.449 2.649c-0.188 0.142-0.309 0.364-0.309 0.615 0 0.162 0.050 0.313 0.136 0.437l-0.002-0.003 3.275 5.51c0.143 0.231 0.395 0.382 0.682 0.382 0.106 0 0.207-0.021 0.299-0.058l-0.005 0.002 4.098-1.599c0.8 0.625 1.715 1.163 2.697 1.571l0.078 0.029 0.652 4.242c0.066 0.372 0.388 0.651 0.774 0.651 0.017 0 0.033-0.001 0.050-0.002l-0.002 0h6.549c0.391-0.022 0.715-0.286 0.826-0.643l0.002-0.006 0.65-4.242c1.059-0.458 1.971-0.994 2.807-1.624l-0.034 0.025 4.1 1.599c0.091 0.041 0.198 0.065 0.31 0.065 0.285 0 0.534-0.156 0.666-0.387l0.002-0.004 3.275-5.51c0.054-0.116 0.085-0.251 0.085-0.394 0-0.254-0.099-0.485-0.262-0.656l0 0c0.024 0-3.573-2.649-3.573-2.649zM15.991 22.852c-0.003 0-0.006 0-0.010 0-3.775 0-6.835-3.060-6.835-6.835s3.060-6.835 6.835-6.835c3.774 0 6.834 3.059 6.835 6.833v0c0 0.018 0 0.039 0 0.060 0 3.743-3.034 6.777-6.777 6.777-0.017 0-0.034-0-0.051-0h0.003z"></path>
</svg>
