<!-- Generated by IcoMoon.io -->
<svg version="1.1" xmlns="http://www.w3.org/2000/svg" width="32" height="32" viewBox="0 0 32 32">
<title>sousuokaobei2</title>
<path d="M28.832 31.442c0.333 0.333 0.794 0.539 1.302 0.539 1.017 0 1.842-0.825 1.842-1.842 0-0.509-0.206-0.969-0.539-1.302v0l-5.529-5.523c-0.717-0.72-3.324 1.883-2.605 2.6zM14.988 29.969c0.001 0 0.001 0 0.002 0 8.276 0 14.984-6.709 14.984-14.984s-6.709-14.984-14.984-14.984c-8.276 0-14.984 6.709-14.984 14.984 0 0.002 0 0.003 0 0.005v-0c0.003 8.273 6.709 14.978 14.982 14.98h0zM14.988 26.788c-0.001 0-0.001 0-0.002 0-6.513 0-11.792-5.28-11.792-11.792s5.28-11.792 11.792-11.792c6.512 0 11.791 5.278 11.792 11.79v0c0 0.001 0 0.003 0 0.005 0 6.511-5.279 11.79-11.79 11.79v0z"></path>
</svg>
