<!-- Generated by IcoMoon.io -->
<svg version="1.1" xmlns="http://www.w3.org/2000/svg" width="32" height="32" viewBox="0 0 32 32">
<title>wenjian</title>
<path d="M2.994 31.197h-0.035c-0.792-0.023-1.514-0.308-2.085-0.772l0.006 0.005c-0.497-0.495-0.82-1.165-0.867-1.91l-0-0.009v-7.987c-0.002-0.060-0.004-0.131-0.004-0.201 0-0.589 0.089-1.158 0.254-1.693l-0.011 0.041c0.172-0.574 0.393-1.072 0.667-1.535l-0.017 0.032 2.823-4.915c0.016-0.028 0.031-0.052 0.047-0.075l-0.002 0.003c0.328-0.471 0.73-0.866 1.193-1.177l0.016-0.010c0.5-0.284 1.098-0.451 1.735-0.451 0.004 0 0.007 0 0.011 0h17.895c0.667 0.043 1.283 0.219 1.836 0.502l-0.026-0.012c0.518 0.323 0.958 0.716 1.322 1.173l0.008 0.010 0.058 0.080 3.352 5.228c0.014 0.023 0.029 0.046 0.042 0.072 0.461 0.812 0.744 1.778 0.775 2.807l0 0.009v7.977c0 0.007 0 0.014 0 0.022 0 0.8-0.345 1.52-0.894 2.019l-0.002 0.002c-0.589 0.474-1.346 0.761-2.17 0.761-0.008 0-0.016-0-0.023-0h0.001zM2.147 20.485v7.947c0.023 0.171 0.088 0.324 0.183 0.452l-0.002-0.003 0.015 0.015 0.018 0.012c0.188 0.098 0.408 0.162 0.641 0.177l0.005 0h25.878c0.002 0 0.005 0 0.007 0 0.28 0 0.541-0.083 0.759-0.226l-0.005 0.003c0.103-0.104 0.171-0.243 0.185-0.397l0-0.003v-8.020l-8.822 0.006-0.046 0.182c-0.632 2.226-2.647 3.829-5.036 3.829s-4.404-1.603-5.027-3.792l-0.009-0.037-0.046-0.182-8.696-0.006c-0.002 0.008-0.002 0.016-0.002 0.025 0 0.005 0 0.010 0.001 0.015l-0-0.001zM11.801 18.339c0.002 0 0.004-0 0.006-0 0.584 0 1.059 0.471 1.064 1.054v0c0.048 1.648 1.395 2.966 3.050 2.966s3.002-1.318 3.050-2.961l0-0.004c0.006-0.584 0.481-1.054 1.066-1.054 0.002 0 0.004 0 0.006 0l9.098-0.006-3.118-4.864-0.011-0.012c-0.191-0.229-0.408-0.427-0.65-0.591l-0.011-0.007c-0.247-0.11-0.534-0.186-0.835-0.21l-0.010-0.001h-17.791c-0.001 0-0.002 0-0.003 0-0.223 0-0.435 0.049-0.625 0.137l0.009-0.004c-0.208 0.152-0.385 0.329-0.532 0.53l-0.005 0.007-0.008 0.011-2.804 4.883-0.031 0.050-0.014 0.024-0.026 0.048zM14.816 7.938v-6.067c0-0.592 0.48-1.071 1.071-1.071s1.071 0.48 1.071 1.071v0 6.067c0 0.592-0.48 1.071-1.071 1.071s-1.071-0.48-1.071-1.071v0zM21.997 7.899c0-0 0-0 0-0 0-0.253 0.091-0.485 0.241-0.666l-0.001 0.002 2.449-2.974c0.2-0.24 0.498-0.391 0.832-0.391 0.256 0 0.491 0.089 0.677 0.238l-0.002-0.002c0.214 0.171 0.359 0.421 0.39 0.705l0 0.005c0.004 0.034 0.006 0.074 0.006 0.114 0 0.251-0.090 0.481-0.24 0.66l0.001-0.002-2.45 2.973c-0.197 0.239-0.493 0.391-0.824 0.391-0.002 0-0.005 0-0.007-0h0c-0.002 0-0.005 0-0.008 0-0.584 0-1.058-0.47-1.065-1.052v-0.001zM7.99 8.476l-2.406-2.974c-0.145-0.178-0.232-0.407-0.232-0.657 0-0.334 0.157-0.631 0.4-0.823l0.002-0.002c0.182-0.143 0.414-0.23 0.667-0.23 0.337 0 0.638 0.154 0.837 0.396l0.002 0.002 2.406 2.972c0.145 0.178 0.233 0.407 0.233 0.658 0 0.334-0.157 0.631-0.4 0.822l-0.002 0.002c-0.182 0.144-0.414 0.23-0.666 0.23-0 0-0 0-0 0h-0.006c-0.001 0-0.002 0-0.003 0-0.334 0-0.633-0.153-0.829-0.394l-0.002-0.002z"></path>
</svg>
