<!-- Generated by IcoMoon.io -->
<svg version="1.1" xmlns="http://www.w3.org/2000/svg" width="32" height="32" viewBox="0 0 32 32">
<title>x</title>
<path d="M27.062 31.15l-11.061-11.061-11.060 11.060c-0.521 0.511-1.236 0.826-2.024 0.826-1.597 0-2.891-1.294-2.891-2.891 0-0.786 0.314-1.499 0.823-2.020l-0.001 0.001 11.065-11.061-11.065-11.065c-0.509-0.521-0.823-1.234-0.823-2.020 0-1.597 1.294-2.891 2.891-2.891 0.788 0 1.503 0.315 2.024 0.827l11.060 11.060 11.060-11.060c0.523-0.523 1.245-0.846 2.042-0.846 1.595 0 2.888 1.293 2.888 2.888 0 0.798-0.323 1.52-0.846 2.042l-11.061 11.064 11.060 11.060c0.523 0.523 0.846 1.245 0.846 2.042 0 1.595-1.293 2.888-2.888 2.888-0.798 0-1.52-0.323-2.042-0.846v0z"></path>
</svg>
