<!-- Generated by IcoMoon.io -->
<svg version="1.1" xmlns="http://www.w3.org/2000/svg" width="32" height="32" viewBox="0 0 32 32">
<title>yichu</title>
<path d="M27.281 27.104c-2.874 2.882-6.849 4.665-11.24 4.665-0.010 0-0.020 0-0.030-0h0.002c-0.052 0.001-0.114 0.001-0.175 0.001-4.331 0-8.252-1.753-11.093-4.587l0 0c-2.924-2.75-4.746-6.645-4.746-10.965 0-0.065 0-0.13 0.001-0.195l-0 0.010c-0-0.035-0-0.076-0-0.117 0-4.323 1.736-8.24 4.549-11.093l-0.002 0.002c2.935-2.885 6.963-4.665 11.407-4.665 4.404 0 8.4 1.749 11.33 4.59l-0.004-0.004c2.884 2.85 4.671 6.806 4.671 11.179s-1.786 8.329-4.669 11.177l-0.002 0.002zM26.095 5.873c-2.613-2.555-6.193-4.132-10.141-4.132-3.987 0-7.599 1.608-10.222 4.212l0.001-0.001c-2.563 2.509-4.153 6.004-4.153 9.871 0 0.067 0 0.134 0.001 0.201l-0-0.010c-0 0.016-0 0.034-0 0.052 0 7.812 6.333 14.144 14.144 14.144 0.101 0 0.201-0.001 0.302-0.003l-0.015 0c7.865-0.023 14.232-6.404 14.232-14.273 0-3.926-1.585-7.482-4.151-10.063l0.001 0.001zM22.932 18.129h-14.036c-0.541-0.034-1.024-0.262-1.384-0.613l0 0c-0.367-0.376-0.593-0.891-0.593-1.459 0-0.015 0-0.031 0-0.046l-0 0.002c-0.001-0.029-0.002-0.064-0.002-0.099 0-0.582 0.227-1.111 0.596-1.504l-0.001 0.001c0.36-0.351 0.843-0.579 1.377-0.613l0.006-0h14.036c0.010-0 0.022-0 0.033-0 0.6 0 1.145 0.233 1.549 0.614l-0.001-0.001c0.367 0.381 0.593 0.9 0.593 1.471 0 0.011-0 0.022-0 0.033l0-0.002c0.001 0.029 0.002 0.064 0.002 0.099 0 0.582-0.227 1.111-0.596 1.504l0.001-0.001c-0.404 0.38-0.949 0.613-1.548 0.613-0.012 0-0.023-0-0.035-0l0.002 0z"></path>
</svg>
