<!-- Generated by IcoMoon.io -->
<svg version="1.1" xmlns="http://www.w3.org/2000/svg" width="32" height="32" viewBox="0 0 32 32">
<title>yichangqiandao</title>
<path fill="#fc8181" opacity="0.149" d="M0 16c0 8.837 7.163 16 16 16s16-7.163 16-16v0c0-8.837-7.163-16-16-16s-16 7.163-16 16v0z"></path>
<path fill="#fc7272" d="M10.467 23.333c-0.032 0.002-0.070 0.003-0.109 0.003-0.888 0-1.616-0.681-1.691-1.55l-0-0.006v-10.475c0-0.849 0.344-1.306 1.333-1.306h1.333v0.667c-0 0.006-0 0.013-0 0.020 0 0.725 0.588 1.313 1.313 1.313 0.007 0 0.014-0 0.021-0h-0.001c0.023 0.001 0.049 0.002 0.076 0.002 0.696 0 1.259-0.564 1.259-1.259 0-0.027-0.001-0.053-0.002-0.080l0 0.004v-0.667h4v0.667c-0.006 0.046-0.010 0.099-0.010 0.152 0 0.658 0.533 1.191 1.191 1.191 0.054 0 0.107-0.004 0.159-0.010l-0.006 0.001c0.006 0 0.013 0 0.019 0 0.726 0 1.314-0.588 1.314-1.314 0-0.007-0-0.014-0-0.021v0.001-0.667h1.333c0.034-0.003 0.074-0.005 0.114-0.005 0.676 0 1.225 0.548 1.225 1.225 0 0.040-0.002 0.080-0.006 0.119l0-0.005v10.448c-0.076 0.874-0.804 1.555-1.691 1.555-0.038 0-0.076-0.001-0.114-0.004l0.005 0zM10 21.333c0.039 0.351 0.315 0.628 0.663 0.666l0.003 0h10.667c0.351-0.039 0.628-0.315 0.666-0.663l0-0.003v-7.333h-12zM17.667 20.497l-1.667-1.667-1.667 1.667c-0.106 0.102-0.249 0.164-0.408 0.164-0.325 0-0.589-0.264-0.589-0.589 0-0.158 0.063-0.302 0.164-0.408l1.666-1.666-1.667-1.667c-0.101-0.106-0.164-0.249-0.164-0.408 0-0.325 0.264-0.589 0.589-0.589 0.159 0 0.302 0.063 0.408 0.165l1.666 1.666 1.667-1.667c0.105-0.098 0.246-0.158 0.402-0.158 0.325 0 0.589 0.264 0.589 0.589 0 0.155-0.060 0.297-0.159 0.402l0-0-1.667 1.667 1.667 1.667c0.098 0.105 0.158 0.246 0.158 0.402 0 0.325-0.264 0.589-0.589 0.589-0.155 0-0.297-0.060-0.402-0.159l0 0zM18.659 10.938v-1.871c0-0.216 0.313-0.395 0.667-0.395s0.667 0.181 0.667 0.395v1.867c0 0.216-0.313 0.395-0.667 0.395s-0.67-0.176-0.67-0.39zM11.997 10.938v-1.875c0-0.216 0.311-0.395 0.667-0.395s0.667 0.181 0.667 0.395v1.87c0 0.216-0.313 0.395-0.667 0.395-0.025 0.003-0.053 0.005-0.083 0.005-0.265 0-0.493-0.164-0.586-0.396l-0.002-0.004z"></path>
</svg>
