<!-- Generated by IcoMoon.io -->
<svg version="1.1" xmlns="http://www.w3.org/2000/svg" width="32" height="32" viewBox="0 0 32 32">
<title>zhengchangqiandao</title>
<path fill="#509be6" opacity="0.149" d="M0 16c0 8.837 7.163 16 16 16s16-7.163 16-16v0c0-8.837-7.163-16-16-16s-16 7.163-16 16v0z"></path>
<path fill="#398fe5" d="M10.467 22.667c-0.033 0.002-0.071 0.004-0.109 0.004-0.887 0-1.616-0.681-1.69-1.549l-0-0.006v-10.475c0-0.849 0.343-1.306 1.333-1.306h1.333v0.667c-0 0.006-0 0.013-0 0.019 0 0.726 0.588 1.314 1.314 1.314 0.007 0 0.014-0 0.021-0h-0.001c0.023 0.001 0.049 0.002 0.076 0.002 0.696 0 1.259-0.564 1.259-1.259 0-0.027-0.001-0.053-0.002-0.080l0 0.004v-0.667h4v0.667c-0.006 0.046-0.010 0.099-0.010 0.153 0 0.657 0.533 1.19 1.19 1.19 0.054 0 0.107-0.004 0.159-0.011l-0.006 0.001c0.006 0 0.013 0 0.020 0 0.725 0 1.313-0.588 1.313-1.313 0-0.007-0-0.014-0-0.021v0.001-0.667h1.333c0.034-0.003 0.074-0.005 0.115-0.005 0.676 0 1.224 0.548 1.224 1.224 0 0.040-0.002 0.080-0.006 0.12l0-0.005v10.448c-0.076 0.874-0.804 1.555-1.691 1.555-0.038 0-0.076-0.001-0.114-0.004l0.005 0zM10 20.667c0.040 0.351 0.316 0.627 0.663 0.666l0.003 0h10.667c0.351-0.040 0.627-0.316 0.666-0.663l0-0.003v-7.333h-12zM14.892 19.848l-1.791-2.087c-0.11-0.123-0.178-0.287-0.178-0.467s0.068-0.343 0.179-0.467l-0.001 0.001c0.101-0.121 0.251-0.198 0.42-0.198s0.319 0.077 0.419 0.197l0.001 0.001 1.371 1.617 3.259-3.784c0.101-0.121 0.251-0.198 0.42-0.198s0.319 0.077 0.419 0.197l0.001 0.001c0.111 0.124 0.179 0.288 0.179 0.469s-0.068 0.345-0.18 0.469l0.001-0.001-3.679 4.253c-0.101 0.121-0.251 0.198-0.42 0.198s-0.319-0.077-0.419-0.197l-0.001-0.001zM18.657 10.271v-1.871c0-0.216 0.312-0.395 0.667-0.395s0.667 0.181 0.667 0.395v1.867c0 0.216-0.313 0.395-0.667 0.395s-0.667-0.176-0.667-0.389zM11.995 10.271v-1.875c0-0.216 0.312-0.394 0.667-0.394s0.667 0.181 0.667 0.394v1.87c0 0.216-0.312 0.395-0.667 0.395-0.024 0.003-0.051 0.005-0.079 0.005-0.265 0-0.493-0.164-0.587-0.395l-0.002-0.004z"></path>
</svg>
