<!-- Generated by IcoMoon.io -->
<svg version="1.1" xmlns="http://www.w3.org/2000/svg" width="32" height="32" viewBox="0 0 32 32">
<title>zu303</title>
<path d="M4.255 18.634v-11.7c0-0 0-0 0-0 0-1.175-0.953-2.128-2.128-2.128s-2.128 0.953-2.128 2.128c0 0 0 0 0 0v0 18.081c0 0 0 0 0 0 0 1.175 0.953 2.128 2.128 2.128s2.128-0.953 2.128-2.128c0-0 0-0 0-0v0-2.13h23.404v2.124c-0.001 0.019-0.001 0.042-0.001 0.065 0 1.175 0.953 2.128 2.128 2.128s2.128-0.953 2.128-2.128c0-0.023-0-0.046-0.001-0.068l0 0.003v-12.764c0.001-0.019 0.001-0.042 0.001-0.065 0-1.175-0.953-2.128-2.128-2.128s-2.128 0.953-2.128 2.128c0 0.023 0 0.046 0.001 0.068l-0-0.003v6.387zM8.513 17.57c1.467-0.001 2.657-1.191 2.657-2.659s-1.19-2.659-2.659-2.659c-1.467 0-2.656 1.188-2.659 2.654v0c0 1.47 1.191 2.661 2.66 2.663h0zM12.233 14.908c0.001-1.174 0.953-2.126 2.128-2.126 0.001 0 0.001 0 0.002 0h9.58c0.019-0.001 0.042-0.001 0.065-0.001 1.176 0 2.13 0.953 2.13 2.13s-0.953 2.13-2.13 2.13c-0.023 0-0.046-0-0.069-0.001l0.003 0h-9.58c-1.176-0.001-2.128-0.954-2.13-2.13v-0z"></path>
</svg>
