<?xml version="1.0" standalone="no"?><!DOCTYPE svg PUBLIC "-//W3C//DTD SVG 1.1//EN" "http://www.w3.org/Graphics/SVG/1.1/DTD/svg11.dtd"><svg t="1586328400156" class="icon" viewBox="0 0 1024 1024" version="1.1" xmlns="http://www.w3.org/2000/svg" p-id="3593" xmlns:xlink="http://www.w3.org/1999/xlink" width="200" height="200"><defs><style type="text/css"></style></defs><path d="M895.488 336.384c-11.264-17.92-42.496-67.072-93.696-116.736-37.376-36.352-77.824-65.024-119.296-85.504-52.736-26.112-108.032-39.424-164.352-39.424h-10.24c-56.32 0-111.616 13.312-164.352 39.424-41.472 20.992-81.92 49.664-119.296 85.504-51.2 49.152-82.944 97.792-94.208 116.736-21.504 10.24-73.216 41.984-70.656 100.352 1.536 27.648 4.608 101.888 34.304 180.736 16.384 45.056 39.424 84.48 67.072 118.272 30.72 36.864 68.096 66.56 111.104 88.064 3.072 17.92 12.288 35.328 26.624 50.176 20.992 21.504 52.736 37.376 94.208 48.128 36.352 9.216 77.824 13.824 120.32 12.8h8.704c39.936 0 78.336-4.608 111.616-12.8 41.472-10.752 73.216-26.624 94.208-48.128 14.336-14.336 23.552-31.232 26.624-50.176 43.008-21.504 80.384-50.688 111.104-88.064 27.648-33.28 50.176-72.704 67.072-118.272 29.184-79.36 32.768-153.088 34.304-180.736 2.56-58.368-49.664-90.112-71.168-100.352zM871.936 471.04c-5.12 7.68-13.312 13.312-23.04 15.36-92.672 17.92-199.68 27.136-316.928 27.136-41.472 0-88.064-1.536-138.24-4.096-119.808-7.168-201.728-20.48-217.088-23.04-19.456-3.072-32.768-22.016-29.184-41.472 3.072-17.408 17.92-29.696 35.328-29.696 2.048 0 4.096 0 5.632 0.512h1.024c7.68 1.024 90.112 14.848 208.896 22.016 41.472 2.56 86.528 3.584 134.144 3.584 112.128 0 214.016-8.704 302.592-25.6 2.048-0.512 4.608-0.512 7.168-0.512 17.408 0 31.744 11.776 34.816 28.672 2.56 9.216 0.512 18.432-5.12 27.136z" p-id="3594"></path></svg>