<?xml version="1.0" standalone="no"?><!DOCTYPE svg PUBLIC "-//W3C//DTD SVG 1.1//EN" "http://www.w3.org/Graphics/SVG/1.1/DTD/svg11.dtd"><svg t="1586315924238" class="icon" viewBox="0 0 1024 1024" version="1.1" xmlns="http://www.w3.org/2000/svg" p-id="2717" xmlns:xlink="http://www.w3.org/1999/xlink" width="200" height="200"><defs><style type="text/css"></style></defs><path d="M944 633.472c23.04-39.936-15.04-75.52-29.76-98.176 3.136-27.712 34.048-43.968 20.864-91.264-24.32-87.104-227.392-50.88-318.464-48.64v-0.96c42.688-61.056 92.608-149.632 65.472-252.032-10.176-38.4-19.008-77.056-68.48-76.416l-9.92 4.032c-7.552 64-50.24 115.968-81.28 158.72-7.68 15.168-15.232 30.4-22.848 45.632-18.048 32.192-53.824 59.264-83.328 80.384C388.736 374.336 293.76 424.064 281.28 448c-9.152 17.664-1.728 43.264 1.984 62.464l13.888 146.88 1.984 137.856c0 22.08-4.032 49.472 4.992 62.528 12.992 18.816 100.224 27.008 128 35.712 39.552 12.352 61.056 40.704 99.2 52.544 54.336 16.96 184.96 13.696 246.016 3.968 36.48-5.76 69.76-3.392 95.232-18.816 17.6-10.688 39.808-40.064 29.76-73.408-3.648-12.288-19.456-20.288-14.848-39.68 5.44-23.04 38.4-27.712 47.616-49.6 22.4-52.992-31.104-70.912-25.792-96.256 3.84-18.432 26.24-24.064 34.752-38.72zM250.624 521.408c-5.632-30.848-5.184-71.36-24.832-88.32-17.472-15.104-96.192-25.408-126.976-26.752-6.912 8.512-16.512 14.464-20.8 25.792-10.24 26.816-3.008 74.496 1.92 104.128 13.632 81.472 18.752 165.504 33.792 244.096 4.992 26.304 5.632 88.448 21.76 101.12 21.12 16.64 93.312 14.72 122.048 6.016 15.232-22.528 9.344-81.728 8.96-117.12-1.024-85.184-2.176-173.632-15.872-248.96z" p-id="2718"></path></svg>