<svg xmlns="http://www.w3.org/2000/svg" viewBox="0 0 559.85 69.95"><defs><style>.cls-1{fill:#fff;}</style></defs><title>资源 1</title><g id="图层_2" data-name="图层 2"><g id="图层_1-2" data-name="图层 1"><path class="cls-1" d="M73.26,32.86H68.41L70,29.34V7.71H99.76v3H74.82v18.6Zm18.63-6.44L93,25h-16V22.6h20.2v2.82l-.79,1H99.8v2.81H95.49v1.14a2.6,2.6,0,0,1-.77,1.89,2.56,2.56,0,0,1-1.9.78H79l.92-2.49H91a.75.75,0,0,0,.55-.23.76.76,0,0,0,.24-.56v-.53H75.64V26.42Zm7.23-8.13a3.18,3.18,0,0,1-.27,1.32,3.36,3.36,0,0,1-.71,1.05,3.18,3.18,0,0,1-1.07.71,3.22,3.22,0,0,1-1.3.27H76.07V11.38H99.12ZM80.2,13.7v1.64H95V13.7Zm14.25,5.24a.52.52,0,0,0,.38-.17.57.57,0,0,0,.16-.41v-.78H80.2v1.36Z"/><path class="cls-1" d="M127.59,8.85h4.88V12h-8.66v6.13h8.66v3.13H101.33V18.12H110V12h-8.62V8.85h4.88l-.78-1.32h5.48l.79,1.32H122l.78-1.32h5.59ZM102.36,22h29.07v7.3a3.62,3.62,0,0,1-.32,1.53,4.32,4.32,0,0,1-.85,1.25A4.07,4.07,0,0,1,129,33a3.63,3.63,0,0,1-1.5.31H102.36V22ZM109,17.3H104l-1.39-4.57h4.95Zm16.81,7.83H108v1.14H125.8Zm-1.1,5a1.06,1.06,0,0,0,.78-.32,1,1,0,0,0,.32-.78v-.08H108v1.18ZM118.32,12h-2.85v6.13h2.85Zm6.49,5.31,1.39-4.57h5l-1.39,4.57Z"/><path class="cls-1" d="M154.06,16.41h-4.71L147,10.56h-5.92l-2.42,5.52H134l3.67-8.55h12.64Zm-7.27,7.94a1.14,1.14,0,0,0,.82-.32,1.09,1.09,0,0,0,.32-.79V20.82h-7.59v7.91a1.05,1.05,0,0,0,.34.82,1.13,1.13,0,0,0,.8.32h11.33l-1.18,3.39H139.77a3.7,3.7,0,0,1-1.53-.31,3.87,3.87,0,0,1-2.39-3.61V17.47h16.57v6.35a3.92,3.92,0,0,1-3.92,3.92h-5.31l1.25-3.39ZM159.72,9.24v19.1h-4.1V9.24Zm5.59,20.13a3.82,3.82,0,0,1-.3,1.52,4,4,0,0,1-.84,1.23,3.91,3.91,0,0,1-1.24.83,3.78,3.78,0,0,1-1.54.31h-2.92l1.32-3.5h.29a1.11,1.11,0,0,0,1.14-1.13V7.5h4.09Z"/><path class="cls-1" d="M169.84,17.23h-3l3.95-9.66h4.81l-2.45,6h1.28v19.7h-4.56Zm9.65-2.11h-3.28V11.74h3.28V7.53h4.92v4.21h6.8L189.47,7.5h5.31l3.13,7.62h-13.5V28l-2.71,5.28h-5.31l3.1-6Zm14,2.25V28.63a1.06,1.06,0,0,0,.32.78,1.11,1.11,0,0,0,.82.32h3.49l-1.57,3.53h-4.1a3.61,3.61,0,0,1-1.51-.31,4.1,4.1,0,0,1-1.23-.83,3.88,3.88,0,0,1-1.14-2.78v-12Z"/><path class="cls-1" d="M212.8,6.08V10q-4.2.21-5.81,3.2t-1.49,8.56q0,6,2.24,8.58a5.41,5.41,0,0,0,2,1.48,10.63,10.63,0,0,0,3.06.66v4a18.19,18.19,0,0,1-5.45-1.07q-7-2.9-7-13.93,0-8.48,4.31-12.54a9.83,9.83,0,0,1,5.48-2.67A23.69,23.69,0,0,1,212.8,6.08Z"/><path class="cls-1" d="M241.41,33.33l-1.85-4.53-2.68,4.49h-5.13l5.7-9.94L233.68,13.2H222v3h9.84V29.37a3.7,3.7,0,0,1-.29,1.53,4.63,4.63,0,0,1-.86,1.25,4.76,4.76,0,0,1-1.24.86,4.27,4.27,0,0,1-1.53.28h-3.85l1.35-3.53h.79a1.15,1.15,0,0,0,.85-.35,1,1,0,0,0,.29-.75v-9H222v10l-1.46,3.64h-4.45l1.46-3.64v-20h14.78l-.82-2.18h4.78l.89,2.18h3.6l-.93-2.14H245l2.49,5.7h-8.94l2,4.95L242.33,15h5.17l-4.88,8.44,3.95,9.87Z"/><path class="cls-1" d="M257.33,15.62V12h-6.62V8.68h6.62V7.57h4.17V8.68h6.63V12H261.5v3.6h1.18L264,13h3.85l-1.28,2.67h2v3.24h-9.69l-1,1.53h9.54v8.84A3.94,3.94,0,0,1,266.28,32a3.64,3.64,0,0,1-1.18.84,3.48,3.48,0,0,1-1.42.3h-11V24h-2.38l3.52-5.13h-3.49V15.62Zm5.38,7.7h-5.38V25.2h5.38Zm0,4.81h-5.38v2.06h4.35a1,1,0,0,0,.73-.32,1.09,1.09,0,0,0,.3-.78Zm19-20.49-2.6,11.22h2.6l-3.77,12.86h-4.21l3-9.93h-2.82l2.6-10.66h-3.17V33.19h-4.06V7.64h12.43Z"/><path class="cls-1" d="M283.55,6.08a14.84,14.84,0,0,1,5.17.92,10.91,10.91,0,0,1,5.56,5.63A20.89,20.89,0,0,1,296,21.5q0,8.58-4.2,12.25a9.89,9.89,0,0,1-3.35,1.89,20,20,0,0,1-4.85.86v-4a10.79,10.79,0,0,0,3.05-.66,5.37,5.37,0,0,0,2-1.48q2.25-2.53,2.25-8.58c0-4.09-.57-7-1.69-8.86s-3-2.78-5.62-2.9Z"/><path class="cls-1" d="M329.55,29.34a3.77,3.77,0,0,1-.31,1.51,3.85,3.85,0,0,1-.84,1.23,3.78,3.78,0,0,1-1.24.84,3.94,3.94,0,0,1-1.53.3h-4l1.46-3.53h.75a1.08,1.08,0,0,0,.82-.32,1.06,1.06,0,0,0,.32-.78V12.17a1.1,1.1,0,0,0-.32-.79,1.12,1.12,0,0,0-.82-.32h-21V33.22h-4.6V7.53h27.4a3.94,3.94,0,0,1,3.61,2.39,4,4,0,0,1,.31,1.53ZM313.3,13a24.15,24.15,0,0,1-.78,3.15c-.34,1-.67,2-1,2.8s-.82,1.87-1.25,2.74q.54.86,1.2,1.71a20.07,20.07,0,0,0,1.44,1.68v4.24a16.53,16.53,0,0,1-2.53-2.07,22.89,22.89,0,0,1-2.07-2.38,22.78,22.78,0,0,1-2.06,2.38,16,16,0,0,1-2.57,2.07V25.1a15.94,15.94,0,0,0,1.46-1.68c.43-.57.83-1.14,1.21-1.71-.42-.87-.84-1.79-1.24-2.74s-.67-1.76-1-2.8a24.18,24.18,0,0,1-.79-3.15h3.39a13.19,13.19,0,0,0,.41,1.71c.18.59.36,1.13.55,1.6l.64,1.68c.22-.55.43-1.11.64-1.68a16.56,16.56,0,0,0,.54-1.6q.24-.88.39-1.71Zm1,12.08a20.07,20.07,0,0,0,1.44-1.68q.66-.86,1.2-1.71c-.43-.87-.84-1.79-1.25-2.74s-.66-1.76-1-2.8a24.15,24.15,0,0,1-.78-3.15h3.42a17.28,17.28,0,0,0,.39,1.71,16.56,16.56,0,0,0,.54,1.6c.21.57.42,1.13.64,1.68.24-.55.46-1.11.67-1.68a16.56,16.56,0,0,0,.54-1.6,17.28,17.28,0,0,0,.39-1.71h3.39a25.91,25.91,0,0,1-.79,3.15c-.33,1-.66,2-1,2.8s-.81,1.87-1.24,2.74c.38.57.78,1.14,1.21,1.71a15.94,15.94,0,0,0,1.46,1.68v4.24a17.2,17.2,0,0,1-2.55-2.07,21.87,21.87,0,0,1-2.08-2.38,22.89,22.89,0,0,1-2.07,2.38,16.53,16.53,0,0,1-2.53,2.07Z"/><path class="cls-1" d="M337.45,8h5.88l-4.56,8.2h4l-4.45,8.83h4.45V28.3H331.29l4.7-8.83h-4.7Zm5.31,22v3.25H331.29V30Zm.57-11.22c.52-.05,1.2-.14,2-.27s1.75-.32,2.75-.58a16.88,16.88,0,0,1-2.3-2,14.17,14.17,0,0,1-1.87-2.4h5.52A9.73,9.73,0,0,0,351,15a15.64,15.64,0,0,0,1.78,1.12,12.18,12.18,0,0,0,2.24-1.55,5.59,5.59,0,0,0,1.5-2H343.37l2.21-5h5.16L350,9.32H362v3.24a15.45,15.45,0,0,1-4.53,5.23c1,.22,1.9.37,2.71.47s1.41.15,1.82.17v3.89a36.45,36.45,0,0,1-4.76-.61,25.34,25.34,0,0,1-4.58-1.32,31.8,31.8,0,0,1-9.37,1.93Zm5.45,14.47h-4.95V23.1H362v6.24a4,4,0,0,1-.31,1.53A3.79,3.79,0,0,1,359.65,33a3.66,3.66,0,0,1-1.5.31Zm0-6.92V30H356a1,1,0,0,0,.78-.32,1.06,1.06,0,0,0,.32-.78V26.34Z"/><path class="cls-1" d="M372.05,11.17v2.56h4.42V16.8h-4.42V33h-3.74V16.8h-4.46V13.73h4.46V11.28l-4.1.14V8.18l12.4-.4V11ZM363.89,33l.71-15.17h2.92L366.81,33Zm12-15.17L376.61,33h-2.92L373,17.87Zm16.1,5.7h3v3.2h-3V33h-4.84V26.77h-9.76v-3.2h9.76V7.71H392Zm-5.91-7.77h-2.53l2.53,6.13h-4.74l-3.13-7.66h2.52l-2.52-6.13H383Z"/><path class="cls-1" d="M405.71,13.13v3.06h4.92l-4.92,6.31v7a3.78,3.78,0,0,1-1.14,2.74,3.78,3.78,0,0,1-1.24.84,4,4,0,0,1-1.54.3h-3.7l1.39-3.06h.57a1.09,1.09,0,0,0,1.1-1.11v-2.1h-4.59l4.59-5.88V13.13h-3.77V9.6h3.77V7.43h4.56V9.6h4v3.53Zm21.34,6.48a10.86,10.86,0,0,1-1.81,3.56,24.8,24.8,0,0,1-3.53,3.92,27,27,0,0,0,3.08,1.85,12.5,12.5,0,0,0,3.12,1.15v3.27a15.17,15.17,0,0,1-4.62-1.3,24.74,24.74,0,0,1-4.47-2.62,23.91,23.91,0,0,1-4.49,2.62,15.23,15.23,0,0,1-4.63,1.3V30.09a12.5,12.5,0,0,0,3.12-1.15,27,27,0,0,0,3.08-1.85,26.19,26.19,0,0,1-3.08-3.33,13.42,13.42,0,0,1-1.9-3.19H415a14.42,14.42,0,0,0,1.53,1.91,31.33,31.33,0,0,0,2.31,2.26,29.23,29.23,0,0,0,3-3.08,7.78,7.78,0,0,0,1.35-2.05H410.56V16.33h5.88V13.59h-5.88V10.31h5.88V7.57h4.34v2.74h6.27v3.28h-6.27v2.74h6.27Z"/><path class="cls-1" d="M429.58,20.11l4.52-7.77h-3.7V8.85h5.74l.71-1.24h4.81L441,8.85h19.49v3.49H438.92l-1.21,2.11h18.38a3.35,3.35,0,0,1,3.35,3.34V30.51a2.63,2.63,0,0,1-2.68,2.68h-5.52l1.36-3.1h1.67a.68.68,0,0,0,.54-.24.77.77,0,0,0,.21-.55v-1h-17v4.85h-4.41V20.11Zm8.48-2.21v2.21h17V19a1.08,1.08,0,0,0-.32-.82,1.07,1.07,0,0,0-.79-.32Zm17,7.34V23.17h-17v2.07Z"/><path class="cls-1" d="M466.92,33.08h-4.78V7.61h14.18l-3.06,11h3.06L472,31.26H467.2l3.46-9.76h-3.28l3-10.47h-3.49ZM480.81,7.53h12.43v10.9a3.78,3.78,0,0,1-.3,1.52,4,4,0,0,1-.84,1.23,3.78,3.78,0,0,1-1.24.84,3.94,3.94,0,0,1-1.53.3h-8.52v7a1.14,1.14,0,0,0,.32.82,1.09,1.09,0,0,0,.79.32h2.81l1.18,2.67h-5.35a3.73,3.73,0,0,1-1.51-.3,4.34,4.34,0,0,1-1.23-.82A3.74,3.74,0,0,1,477,30.8a3.94,3.94,0,0,1-.3-1.53V7.53h4.13Zm0,3.21v2.64h8.27V10.74ZM488,19.15A1.11,1.11,0,0,0,489.08,18V16.51h-8.27v2.64Zm3.46,9.51h-1.78l2.63,4.6h-4.56l-5.55-9.66h4.56L488.08,26,489,24.1h4.42Z"/><path class="cls-1" d="M500.26,18.83h-5.38l6.63-11.26h5.38Zm20.2,2.71,5.74,11.65h-5.59l-.29-.61H495l9.16-15.53H510l-7.48,12.07h16.14l-3.78-7.58Zm-1.39-14,7.06,11.26h-5.38L513.69,7.57Z"/><path class="cls-1" d="M528.19,7.78h28.47v0h1.82V30.34a2.56,2.56,0,0,1-.79,1.9,2.6,2.6,0,0,1-1.89.77h-5.38l1.32-3.49h1.53a.82.82,0,0,0,.56-.22.7.7,0,0,0,.23-.53V11.28H528.19Zm22.38,8.91H529.19V13.2h21.38ZM550,18.61V28.2a2.61,2.61,0,0,1-2.64,2.63H529.58V18.61H550Zm-4.77,8.73a.72.72,0,0,0,.53-.21.7.7,0,0,0,.22-.54V22.1H534v5.24Z"/><path class="cls-1" d="M80.92,45.85V60h-3V54.14H72.46V60h-3V45.85h3v5.77h5.47V45.85Z"/><path class="cls-1" d="M88.52,49.52a5.17,5.17,0,0,1,4.22,1.65A5.78,5.78,0,0,1,94,55a5,5,0,0,1-1.57,3.86,5.63,5.63,0,0,1-4,1.31,5.44,5.44,0,0,1-4-1.48,6,6,0,0,1-.06-7.51A5.35,5.35,0,0,1,88.52,49.52Zm0,2.16c-1.71,0-2.57,1.06-2.57,3.18a3.81,3.81,0,0,0,.42,2A2.37,2.37,0,0,0,88.56,58c1.68,0,2.52-1,2.52-3.16S90.23,51.71,88.54,51.68Z"/><path class="cls-1" d="M96.09,49.67h5a9.86,9.86,0,0,1,2.18.18,3.72,3.72,0,0,1,1.42.71A5.25,5.25,0,0,1,106.5,55a5,5,0,0,1-1.36,3.67,4,4,0,0,1-1.56,1,6.37,6.37,0,0,1-2.15.32h-2.5v3.88H96.09Zm2.84,2.2v5.92h1.74a2.89,2.89,0,0,0,2-.59,3.7,3.7,0,0,0,.19-4.57,2.57,2.57,0,0,0-2-.76Z"/><path class="cls-1" d="M117,53.72v2.2h-6a1.9,1.9,0,0,0,.65,1.45,3.25,3.25,0,0,0,1.87.42H117V60h-3.78a7.32,7.32,0,0,1-2-.23,4.22,4.22,0,0,1-1.45-.73,5.15,5.15,0,0,1-1.89-4.35,5.43,5.43,0,0,1,1-3.26,3.77,3.77,0,0,1,1.63-1.36,6.47,6.47,0,0,1,2.5-.4h4v2.2h-3.78a2.59,2.59,0,0,0-1.63.4,2.11,2.11,0,0,0-.57,1.45Z"/><path class="cls-1" d="M132.82,45.85v8.48a5.44,5.44,0,0,0,.17,1.58,2.21,2.21,0,0,0,.57,1,3.39,3.39,0,0,0,2.48.87,4.2,4.2,0,0,0,1.77-.35,2.1,2.1,0,0,0,1.05-.95,5.16,5.16,0,0,0,.3-2.12V45.85h3v8.34a9,9,0,0,1-.35,2.72,4,4,0,0,1-1.07,1.73A7,7,0,0,1,136,60.1q-3.28,0-4.79-1.44A3.91,3.91,0,0,1,130.12,57a9.26,9.26,0,0,1-.29-2.6V45.85Z"/><path class="cls-1" d="M162.38,43.84v2.35a3.82,3.82,0,0,0-3.46,1.91,11.38,11.38,0,0,0-.89,5.09c0,2.4.45,4.11,1.34,5.11a3.08,3.08,0,0,0,1.19.88,6.29,6.29,0,0,0,1.82.39V62a10.47,10.47,0,0,1-3.24-.64Q155,59.6,155,53c0-3.37.86-5.85,2.57-7.47A5.88,5.88,0,0,1,160.81,44C161.19,43.91,161.72,43.86,162.38,43.84Z"/><path class="cls-1" d="M175.27,57.47V60h-4.94a11.58,11.58,0,0,1-2.14-.15,4.91,4.91,0,0,1-3.71-2.91,9.75,9.75,0,0,1-.72-4,8.73,8.73,0,0,1,1.1-4.62A4.85,4.85,0,0,1,167,46.44a8.8,8.8,0,0,1,3.47-.59h4.79v2.52h-4.45a3.69,3.69,0,0,0-2.95,1.09,5,5,0,0,0-.78,3.22c0,2.09.4,3.46,1.21,4.11a4.16,4.16,0,0,0,2.65.68Z"/><path class="cls-1" d="M180.15,45.85v3.82h2.91a8.12,8.12,0,0,1,2,.2,2.7,2.7,0,0,1,1.24.71,3.89,3.89,0,0,1,1,3V60h-2.84V54.12a6.35,6.35,0,0,0-.08-1.18,1.31,1.31,0,0,0-.3-.6,2.31,2.31,0,0,0-1.62-.47h-2.31V60h-2.84V45.85Z"/><path class="cls-1" d="M198.39,53.72v2.2h-6a1.93,1.93,0,0,0,.66,1.45,3.19,3.19,0,0,0,1.86.42h3.46V60h-3.77a7.4,7.4,0,0,1-2-.23,4.31,4.31,0,0,1-1.45-.73,5.15,5.15,0,0,1-1.89-4.35,5.43,5.43,0,0,1,1-3.26,3.83,3.83,0,0,1,1.63-1.36,6.51,6.51,0,0,1,2.5-.4h4v2.2h-3.77a2.6,2.6,0,0,0-1.64.4,2.11,2.11,0,0,0-.57,1.45Z"/><path class="cls-1" d="M200.7,49.67h5.47a7.45,7.45,0,0,1,1.88.18,2.93,2.93,0,0,1,1.18.65,4.07,4.07,0,0,1,1.08,3.13V60h-2.84V53.32a1.57,1.57,0,0,0-.34-1.11,1.59,1.59,0,0,0-1.13-.34h-2.46V60H200.7Z"/><path class="cls-1" d="M222.86,49.67V59.93a5.25,5.25,0,0,1-.2,1.55,3.36,3.36,0,0,1-.58,1.15,2.57,2.57,0,0,1-1.18.81,6.79,6.79,0,0,1-2,.23h-5.66V61.46h5.28a1.81,1.81,0,0,0,1.22-.29A1.71,1.71,0,0,0,220,60h-2.61a6.64,6.64,0,0,1-2.06-.27,3.94,3.94,0,0,1-1.48-.88,5.28,5.28,0,0,1-1.55-4,4.85,4.85,0,0,1,1.89-4.26,4.2,4.2,0,0,1,1.43-.69,7.85,7.85,0,0,1,1.92-.2ZM220,51.87h-2.35q-2.46,0-2.46,3a3.2,3.2,0,0,0,.67,2.2,2.45,2.45,0,0,0,1.94.75H220Z"/><path class="cls-1" d="M232.58,49.67V45.85h2.82V60h-4.88a8,8,0,0,1-2.25-.24,4.45,4.45,0,0,1-2.69-2.25,5.62,5.62,0,0,1-.62-2.75,5.06,5.06,0,0,1,1.78-4.12,4.8,4.8,0,0,1,3.17-1Zm0,8.12V51.87h-2.06a2.45,2.45,0,0,0-2.06.92,3,3,0,0,0-.61,2,3,3,0,0,0,1,2.52,2.7,2.7,0,0,0,1.65.51Z"/><path class="cls-1" d="M244.92,57.79V49.67h2.84V60h-5.6a7.44,7.44,0,0,1-1.86-.18,2.82,2.82,0,0,1-1.17-.65A4.07,4.07,0,0,1,238.05,56V49.67h2.82v6.64a1.52,1.52,0,0,0,.37,1.09,1.33,1.33,0,0,0,1,.39Z"/><path class="cls-1" d="M249.86,43.84a8.92,8.92,0,0,1,3.08.55,6.43,6.43,0,0,1,3.3,3.35,12.28,12.28,0,0,1,1,5.28q0,5.11-2.5,7.29a6,6,0,0,1-2,1.13,12.28,12.28,0,0,1-2.89.51V59.57a6.29,6.29,0,0,0,1.81-.39,3.12,3.12,0,0,0,1.2-.88c.89-1,1.34-2.71,1.34-5.11a10.41,10.41,0,0,0-1-5.27,3.84,3.84,0,0,0-3.34-1.73Z"/><path class="cls-1" d="M273.1,49.63V60h-2.88V45.85h3.86l5.62,10.54V45.85h2.86V60h-3.69Z"/><path class="cls-1" d="M293.82,53.72v2.2h-6a1.93,1.93,0,0,0,.66,1.45,3.23,3.23,0,0,0,1.87.42h3.45V60h-3.77a7.27,7.27,0,0,1-2-.23,4.26,4.26,0,0,1-1.46-.73,5.15,5.15,0,0,1-1.89-4.35,5.5,5.5,0,0,1,1-3.26,3.83,3.83,0,0,1,1.63-1.36,6.56,6.56,0,0,1,2.51-.4h4v2.2h-3.77a2.57,2.57,0,0,0-1.63.4,2.07,2.07,0,0,0-.58,1.45Z"/><path class="cls-1" d="M296.9,49.67V45.85h2.84v3.82h2.63v2.2h-2.63v3.76a3.45,3.45,0,0,0,.24,1.65,1.44,1.44,0,0,0,1.27.51h1.12V60h-2.06a3.34,3.34,0,0,1-2.62-.89,4.51,4.51,0,0,1-.79-3V51.87h-1.8v-2.2Z"/><path class="cls-1" d="M310.22,57.79V49.67h2.84v8.12h3.05V49.67h2.82V60H308.5a7.87,7.87,0,0,1-2.16-.22,2.49,2.49,0,0,1-1.23-.74,4,4,0,0,1-.94-2.8V49.67H307V55.8a4.83,4.83,0,0,0,.08,1,1.3,1.3,0,0,0,.28.53,1.91,1.91,0,0,0,1.34.42Z"/><path class="cls-1" d="M326.51,49.52a5.17,5.17,0,0,1,4.22,1.65A5.78,5.78,0,0,1,332,55a5,5,0,0,1-1.57,3.86,5.64,5.64,0,0,1-4,1.31,5.44,5.44,0,0,1-4-1.48,6,6,0,0,1-.06-7.51A5.35,5.35,0,0,1,326.51,49.52Zm0,2.16c-1.71,0-2.57,1.06-2.57,3.18a3.81,3.81,0,0,0,.42,2A2.37,2.37,0,0,0,326.55,58c1.68,0,2.52-1,2.52-3.16S328.22,51.71,326.53,51.68Z"/><path class="cls-1" d="M334.08,49.67h4.19a8.65,8.65,0,0,1,2,.18,2.81,2.81,0,0,1,1.18.6,2.28,2.28,0,0,1,.65,1.06,6.68,6.68,0,0,1,.19,1.83v1h-2.73v-.55a2.24,2.24,0,0,0-.38-1.5,2,2,0,0,0-1.47-.41h-.8V60h-2.84Z"/><path class="cls-1" d="M346.84,45.85v7.91l3.8-4.09h3.18l-4,4.09h.76a2.28,2.28,0,0,1,2.06.87,6,6,0,0,1,.57,3.08V60h-2.84V57.58a2,2,0,0,0-.32-1.31,1.81,1.81,0,0,0-1.25-.32h-1.93v4H344V45.85Z"/><path class="cls-1" d="M369.32,48.37h-4.49V45.85H377v2.52h-4.69V60h-3Z"/><path class="cls-1" d="M387,53.72v2.2h-6a1.9,1.9,0,0,0,.65,1.45,3.25,3.25,0,0,0,1.87.42H387V60h-3.78a7.27,7.27,0,0,1-2-.23,4.35,4.35,0,0,1-1.46-.73,5.17,5.17,0,0,1-1.88-4.35,5.49,5.49,0,0,1,1-3.26,3.86,3.86,0,0,1,1.64-1.36,6.47,6.47,0,0,1,2.5-.4h4v2.2h-3.78a2.57,2.57,0,0,0-1.63.4,2.11,2.11,0,0,0-.57,1.45Z"/><path class="cls-1" d="M397.89,49.67v2.2H394.5a3,3,0,0,0-2.38.77,3.26,3.26,0,0,0-.64,2.2,2.8,2.8,0,0,0,1,2.42,2.5,2.5,0,0,0,.93.41,6.16,6.16,0,0,0,1.38.12h3.06V60H394a7.77,7.77,0,0,1-2.48-.32,3.88,3.88,0,0,1-1.62-1.1,5.44,5.44,0,0,1-1.33-3.78,5.09,5.09,0,0,1,1.59-4.11,3.72,3.72,0,0,1,1.53-.79,9.63,9.63,0,0,1,2.31-.23Z"/><path class="cls-1" d="M402.89,45.85v3.82h2.91a8.12,8.12,0,0,1,2,.2,2.73,2.73,0,0,1,1.25.71,3.89,3.89,0,0,1,1,3V60H407.2V54.12a7.7,7.7,0,0,0-.07-1.18,1.33,1.33,0,0,0-.31-.6,2.28,2.28,0,0,0-1.61-.47h-2.32V60h-2.84V45.85Z"/><path class="cls-1" d="M412.69,49.67h5.47a7.45,7.45,0,0,1,1.88.18,2.93,2.93,0,0,1,1.18.65,4.07,4.07,0,0,1,1.08,3.13V60h-2.84V53.32a1.57,1.57,0,0,0-.34-1.11,1.59,1.59,0,0,0-1.13-.34h-2.46V60h-2.84Z"/><path class="cls-1" d="M429.72,49.52a5.14,5.14,0,0,1,4.22,1.65,5.72,5.72,0,0,1,1.25,3.8,5,5,0,0,1-1.57,3.86,5.6,5.6,0,0,1-3.94,1.31,5.41,5.41,0,0,1-4.05-1.48,6,6,0,0,1-.07-7.51A5.37,5.37,0,0,1,429.72,49.52Zm0,2.16c-1.71,0-2.56,1.06-2.56,3.18a3.81,3.81,0,0,0,.42,2A2.36,2.36,0,0,0,429.76,58c1.69,0,2.53-1,2.53-3.16S431.44,51.71,429.74,51.68Z"/><path class="cls-1" d="M440.13,60h-2.84V45.85h2.84Z"/><path class="cls-1" d="M447.71,49.52a5.17,5.17,0,0,1,4.22,1.65,5.78,5.78,0,0,1,1.25,3.8,5,5,0,0,1-1.57,3.86,5.63,5.63,0,0,1-3.95,1.31,5.44,5.44,0,0,1-4.05-1.48,6,6,0,0,1-.06-7.51A5.35,5.35,0,0,1,447.71,49.52Zm0,2.16c-1.71,0-2.57,1.06-2.57,3.18a3.71,3.71,0,0,0,.43,2A2.34,2.34,0,0,0,447.75,58c1.68,0,2.52-1,2.52-3.16S449.42,51.71,447.73,51.68Z"/><path class="cls-1" d="M465.18,49.67V59.93a5.6,5.6,0,0,1-.2,1.55,3.55,3.55,0,0,1-.58,1.15,2.57,2.57,0,0,1-1.18.81,6.82,6.82,0,0,1-2,.23h-5.66V61.46h5.28a1.81,1.81,0,0,0,1.22-.29,1.7,1.7,0,0,0,.29-1.17h-2.61a6.71,6.71,0,0,1-2.07-.27,4,4,0,0,1-1.47-.88,5.28,5.28,0,0,1-1.55-4,4.85,4.85,0,0,1,1.89-4.26,4.2,4.2,0,0,1,1.43-.69,7.79,7.79,0,0,1,1.92-.2Zm-2.84,2.2H460q-2.46,0-2.46,3a3.25,3.25,0,0,0,.67,2.2,2.47,2.47,0,0,0,1.94.75h2.21Z"/><path class="cls-1" d="M474.72,57.79V49.67h2.84V59.78a3.71,3.71,0,0,1-1.06,2.95,5,5,0,0,1-3.37.94h-5.07V61.46h5.07a2.35,2.35,0,0,0,1.19-.19.64.64,0,0,0,.28-.33,6.05,6.05,0,0,0,.12-.94H472.2q-4.36.11-4.14-4.56V49.67h2.85v5.49a5.07,5.07,0,0,0,.28,2.12,1.26,1.26,0,0,0,1.2.51Z"/><path class="cls-1" d="M501.53,57.47V60h-4.94a11.63,11.63,0,0,1-2.15-.15,4.93,4.93,0,0,1-3.71-2.91,9.75,9.75,0,0,1-.72-4,8.64,8.64,0,0,1,1.11-4.62,4.74,4.74,0,0,1,2.15-1.89,8.77,8.77,0,0,1,3.47-.59h4.79v2.52h-4.45a3.66,3.66,0,0,0-2.95,1.09,4.91,4.91,0,0,0-.79,3.22c0,2.09.41,3.46,1.21,4.11a4.18,4.18,0,0,0,2.65.68Z"/><path class="cls-1" d="M508.34,49.52a5.15,5.15,0,0,1,4.22,1.65,5.78,5.78,0,0,1,1.25,3.8,5,5,0,0,1-1.57,3.86,5.62,5.62,0,0,1-3.94,1.31,5.45,5.45,0,0,1-4.06-1.48,6,6,0,0,1-.06-7.51A5.35,5.35,0,0,1,508.34,49.52Zm0,2.16c-1.71,0-2.57,1.06-2.57,3.18a3.71,3.71,0,0,0,.43,2A2.34,2.34,0,0,0,508.38,58c1.68,0,2.52-1,2.52-3.16S510.06,51.71,508.36,51.68Z"/><path class="cls-1" d="M518.18,57.24V60h-2.57V57.24Z"/><path class="cls-1" d="M523.12,57.24V59.7l-1.63,3.2h-1.3l1.3-2.9h-.94V57.24Z"/><path class="cls-1" d="M525.49,45.85h3V53.8c0,1,.09,1.67.13,2a1.59,1.59,0,0,0,.93,1.32,7.43,7.43,0,0,0,2.76.35h2.89V60H532a14.87,14.87,0,0,1-3.28-.26,4,4,0,0,1-3-3,12.75,12.75,0,0,1-.24-3Z"/><path class="cls-1" d="M537.65,49.67V45.85h2.84v3.82h2.63v2.2h-2.63v3.76a3.63,3.63,0,0,0,.23,1.65,1.46,1.46,0,0,0,1.27.51h1.13V60h-2.06a3.36,3.36,0,0,1-2.63-.89,4.57,4.57,0,0,1-.78-3V51.87h-1.81v-2.2Z"/><path class="cls-1" d="M552,49.67V45.85h2.82V60h-4.87a7.93,7.93,0,0,1-2.25-.24,4.5,4.5,0,0,1-2.7-2.25,5.62,5.62,0,0,1-.61-2.75,5,5,0,0,1,1.78-4.12,4.77,4.77,0,0,1,3.16-1Zm0,8.12V51.87h-2.05a2.42,2.42,0,0,0-2.06.92,3,3,0,0,0-.62,2,3,3,0,0,0,1,2.52,2.75,2.75,0,0,0,1.66.51Z"/><path class="cls-1" d="M559.85,57.24V60h-2.57V57.24Z"/><path class="cls-1" d="M28.24,52.93a4.15,4.15,0,0,1-2.94-7.09L40.87,30.28A12.88,12.88,0,0,0,22.66,12.07L7.09,27.63a4.15,4.15,0,0,1-5.87-5.87L16.78,6.19a21.18,21.18,0,0,1,30,30L31.17,51.72A4.13,4.13,0,0,1,28.24,52.93Z"/><path class="cls-1" d="M27.65,70a21.18,21.18,0,0,1-15-36.15L28.24,18.24a4.15,4.15,0,0,1,5.87,5.87L18.54,39.68A12.88,12.88,0,0,0,36.75,57.89L52.32,42.32a4.15,4.15,0,0,1,5.87,5.87L42.63,63.76A21.12,21.12,0,0,1,27.65,70Z"/></g></g></svg>