<?xml version="1.0" standalone="no"?><!DOCTYPE svg PUBLIC "-//W3C//DTD SVG 1.1//EN" "http://www.w3.org/Graphics/SVG/1.1/DTD/svg11.dtd"><svg t="1586316022827" class="icon" viewBox="0 0 1024 1024" version="1.1" xmlns="http://www.w3.org/2000/svg" p-id="3661" xmlns:xlink="http://www.w3.org/1999/xlink" width="200" height="200"><defs><style type="text/css"></style></defs><path d="M764.814 625.778a187.392 187.392 0 0 1-126.407-51.2 181.59 181.59 0 0 1-252.814 0 187.392 187.392 0 0 1-126.407 51.2A216.178 216.178 0 0 1 56.889 398.222c0-125.667 151.723-341.333 151.723-341.333h606.776s151.723 215.666 151.723 341.333a216.178 216.178 0 0 1-202.297 227.556z m-374.727 0a189.212 189.212 0 0 0 243.826 0 188.302 188.302 0 0 0 219.42 17.066v225.11a98.19 98.19 0 0 1-97.507 99.157H268.174a98.19 98.19 0 0 1-97.507-98.873v-225.11a188.302 188.302 0 0 0 219.42-17.35z" fill="#707070" p-id="3662"></path></svg>