<?xml version="1.0" standalone="no"?><!DOCTYPE svg PUBLIC "-//W3C//DTD SVG 1.1//EN" "http://www.w3.org/Graphics/SVG/1.1/DTD/svg11.dtd"><svg t="1586328589351" class="icon" viewBox="0 0 1024 1024" version="1.1" xmlns="http://www.w3.org/2000/svg" p-id="4397" xmlns:xlink="http://www.w3.org/1999/xlink" width="200" height="200"><defs><style type="text/css"></style></defs><path d="M774.832028 951.008737A511.844764 511.844764 0 1 0 0.011648 508.531556C-1.929609 792.084496 239.562763 1024 523.115703 1024h464.219259a36.625049 36.625049 0 0 0 36.625049-36.625049 36.625049 36.625049 0 0 0-36.625049-36.495632H774.832028z m127.34646-439.112335c0 78.815034-34.29554 142.358847-76.873778 142.358847s-215.738362-63.932064-215.738362-142.358847 173.289542-142.358847 215.738362-142.358848 76.873777 63.932064 76.873778 142.358848zM511.856412 121.83316c78.815034 0 142.358847 34.554375 142.358847 76.873778S590.930281 414.186466 511.856412 414.186466s-142.358847-173.418959-142.358847-215.86778 63.932064-76.873777 142.358847-76.873777zM122.052005 511.896402c0-78.815034 34.29554-142.358847 76.744361-142.358848S414.146476 433.340201 414.146476 511.896402s-173.418959 142.358847-215.738362 142.358847-76.74436-63.932064-76.74436-142.358847z m247.316143 313.448298c0-42.319403 63.67323-215.738362 142.358847-215.738362s142.358847 173.418959 142.358847 215.738362-63.67323 76.873777-142.358847 76.873777-142.358847-34.29554-142.358847-76.873777z" p-id="4398"></path></svg>