<?xml version="1.0" standalone="no"?><!DOCTYPE svg PUBLIC "-//W3C//DTD SVG 1.1//EN" "http://www.w3.org/Graphics/SVG/1.1/DTD/svg11.dtd"><svg t="1587524976233" class="icon" viewBox="0 0 1024 1024" version="1.1" xmlns="http://www.w3.org/2000/svg" p-id="1518" xmlns:xlink="http://www.w3.org/1999/xlink" width="200" height="200"><defs><style type="text/css"></style></defs><path d="M627.434 713.613c1.996-1.177 23.548-14.026 29.895-17.66 11.671-6.707 21.295-11.774 30.919-15.87 67.725-29.434 127.464-8.65 206.45 79.345 48.836 54.467 63.323 102.79 44.433 145.841-14.026 32.148-41.105 54.313-89.327 81.751-3.071 1.74-30.867 17.149-37.983 21.346-112.158 66.036-369.286-85.078-554.185-343.179C72.225 406.37 24.259 130.454 137.902 63.497l14.998-9.06 16.33-10.085c57.436-35.475 94.19-49.655 137.855-42.59 43.563 7.166 80.625 37.88 111.954 93.831 66.137 118.403 51.548 174.559-33.479 225.596-6.143 3.736-27.847 16.227-29.895 17.455-20.834 12.286 14.487 94.651 96.494 209.164C535.24 663.6 604.654 726.974 627.383 713.664h0.051z" fill="#6D7278" p-id="1519"></path></svg>