<?xml version="1.0" standalone="no"?><!DOCTYPE svg PUBLIC "-//W3C//DTD SVG 1.1//EN" "http://www.w3.org/Graphics/SVG/1.1/DTD/svg11.dtd"><svg t="1587525603577" class="icon" viewBox="0 0 1024 1024" version="1.1" xmlns="http://www.w3.org/2000/svg" p-id="3544" xmlns:xlink="http://www.w3.org/1999/xlink" width="200" height="200"><defs><style type="text/css"></style></defs><path d="M512 1022.976c-282.258286 0-511.853714-229.302857-511.853714-511.158857C0.146286 229.961143 229.814857 0.658286 512 0.658286c282.221714 0 511.853714 229.266286 511.853714 511.122285 0 281.856-229.595429 511.195429-511.853714 511.195429z m0-949.284571c-241.92 0-438.784 196.534857-438.784 438.125714 0 241.590857 196.864 438.162286 438.784 438.162286 241.92 0 438.784-196.571429 438.784-438.125715 0-241.627429-196.864-438.162286-438.784-438.162285zM337.225143 504.064c-30.281143 0-54.857143-24.539429-54.857143-54.784v-73.033143c0-30.244571 24.576-54.784 54.857143-54.784 30.317714 0 54.857143 24.502857 54.857143 54.784v73.033143c0 30.244571-24.539429 54.784-54.857143 54.784z m351.963428 0c-30.281143 0-54.857143-24.539429-54.857142-54.784v-73.033143c0-30.244571 24.576-54.784 54.857142-54.784s54.857143 24.502857 54.857143 54.784v73.033143a54.857143 54.857143 0 0 1-54.857143 54.784z m-64.731428 261.632a35.218286 35.218286 0 0 1-22.089143-7.753143c-19.748571-15.725714-54.381714-25.563429-90.368-25.563428s-70.619429 9.801143-90.368 25.563428a35.510857 35.510857 0 0 1-48.054857-6.912 35.401143 35.401143 0 0 1 3.84-48.310857c32.694857-26.075429 81.737143-40.96 134.582857-40.96 52.845714 0 101.888 14.921143 134.582857 40.96a35.291429 35.291429 0 0 1-22.125714 62.976z" p-id="3545"></path></svg>