<?xml version="1.0" standalone="no"?><!DOCTYPE svg PUBLIC "-//W3C//DTD SVG 1.1//EN" "http://www.w3.org/Graphics/SVG/1.1/DTD/svg11.dtd"><svg t="1586330743177" class="icon" viewBox="0 0 1024 1024" version="1.1" xmlns="http://www.w3.org/2000/svg" p-id="11545" xmlns:xlink="http://www.w3.org/1999/xlink" width="200" height="200"><defs><style type="text/css"></style></defs><path d="M1012.872533 221.866667a37.546667 37.546667 0 0 0-26.862933-11.1616H849.237333A143.36 143.36 0 0 0 722.6368 0c-77.892267 0-142.1312 60.5184-173.499733 96.597333A407.415467 407.415467 0 0 0 512 146.432a419.1232 419.1232 0 0 0-37.1712-49.834667C443.426133 60.5184 379.255467 0 301.329067 0A143.36 143.36 0 0 0 174.762667 210.6368H38.024533A38.058667 38.058667 0 0 0 0 248.661333v158.0032a38.058667 38.058667 0 0 0 38.024533 38.024534h14.6432v488.584533A90.794667 90.794667 0 0 0 143.36 1024h737.28a90.794667 90.794667 0 0 0 90.692267-90.7264V444.689067h14.6432A38.058667 38.058667 0 0 0 1024 406.664533V248.695467a37.751467 37.751467 0 0 0-11.127467-26.897067z m-551.662933-11.1616H301.329067a67.310933 67.310933 0 1 1 0-134.587734 173.636267 173.636267 0 0 1 116.053333 70.4512 323.1744 323.1744 0 0 1 43.690667 64.136534z m98.986667 46.933333V981.674667h-96.426667V257.570133h96.426667z m229.751466-114.210133a67.3792 67.3792 0 0 1-67.310933 67.2768h-159.812267a324.266667 324.266667 0 0 1 43.690667-64.136534 173.636267 173.636267 0 0 1 116.053333-70.4512 67.3792 67.3792 0 0 1 67.310934 67.310934z m0 0" p-id="11546"></path></svg>