<!-- Generated by IcoMoon.io -->
<svg version="1.1" xmlns="http://www.w3.org/2000/svg" width="32" height="32" viewBox="0 0 32 32">
<title>15</title>
<path d="M26.56 13.026c-0.368-1.494-1.026-2.901-1.937-4.14s-2.058-2.287-3.374-3.083c-1.316-0.796-2.777-1.325-4.298-1.557s-3.073-0.162-4.566 0.207c-1.56 0.379-3.030 1.062-4.325 2.010s-2.391 2.143-3.223 3.516c-0.832 1.373-1.385 2.896-1.627 4.483s-0.168 3.206 0.217 4.764c0.4 1.615 1.114 3.136 2.102 4.475s2.23 2.47 3.655 3.329 3.005 1.429 4.651 1.677c1.645 0.248 3.323 0.17 4.939-0.231 11.039-3.131 10.076-13.835 10.076-13.835s1.925 10.694-9.805 14.752c-7.338 2.164-15.271-2.045-17.487-9.667-2.226-7.569 2.135-15.766 10.017-18.026 7.897-2.388 16.34 2.154 18.674 10.313 0 0 0.526 1.962-1.401 2.528-1.847 0.495-2.287-1.515-2.287-1.515z"></path>
</svg>
