<!-- Generated by IcoMoon.io -->
<svg version="1.1" xmlns="http://www.w3.org/2000/svg" width="39" height="32" viewBox="0 0 39 32">
<title>17</title>
<path d="M27.269 0.126c4.798 0 7.304 3.599 7.457 9.554l0.007 0.583v10.137h3.011c0.197-0 0.39 0.053 0.561 0.154s0.311 0.246 0.408 0.421c0.097 0.175 0.147 0.372 0.145 0.573s-0.057 0.397-0.158 0.569l-5.5 9.334c-0.099 0.168-0.239 0.306-0.406 0.402s-0.356 0.147-0.548 0.147-0.381-0.050-0.548-0.147c-0.167-0.096-0.307-0.235-0.406-0.402l-5.5-9.334c-0.102-0.172-0.156-0.369-0.158-0.57s0.048-0.399 0.145-0.573c0.097-0.175 0.239-0.32 0.409-0.421s0.364-0.154 0.561-0.153h3.008v-10.137c0-3.667-0.739-4.957-2.274-5.062l-0.214-0.007h-4.977v-5.069l4.977 0zM7.186 0.162c0.156 0.096 0.287 0.229 0.381 0.388l5.5 9.334c0.101 0.172 0.156 0.369 0.158 0.57s-0.048 0.399-0.145 0.573c-0.097 0.175-0.239 0.32-0.409 0.421s-0.364 0.154-0.561 0.153h-3.006v10.137c0 3.667 0.739 4.957 2.273 5.062l0.214 0.007h4.977v5.069h-4.977c-4.798 0-7.304-3.599-7.457-9.554l-0.007-0.583v-10.137h-3.013c-0.197 0-0.39-0.053-0.561-0.154s-0.311-0.246-0.408-0.421c-0.097-0.175-0.147-0.372-0.145-0.573s0.057-0.397 0.158-0.569l5.5-9.334c0.152-0.258 0.398-0.443 0.685-0.516s0.59-0.027 0.843 0.128z"></path>
</svg>
