<!-- Generated by IcoMoon.io -->
<svg version="1.1" xmlns="http://www.w3.org/2000/svg" width="27" height="32" viewBox="0 0 27 32">
<title>19</title>
<path d="M22.797 9.41l0.033 0.079 0.037 0.078c0.485 1.023 0.73 2.211 0.902 3.726-0.033 1.784-0.538 3.757-1.481 5.692-0.767 1.501-1.991 3.133-3.526 4.831-1.883 1.961-3.855 3.395-5.054 4.177-1.196-0.777-3.185-2.221-5.071-4.204l0-0-0.020-0.021c-1.525-1.579-2.667-3.196-3.469-4.763-1.004-2.125-1.492-3.991-1.492-5.895 0-1.168 0.261-2.416 0.767-3.645 0.475-1.023 1.274-2.088 2.209-3.023 0.79-0.79 1.846-1.492 3.093-1.996l0.078-0.032 0.077-0.035c1.072-0.492 2.281-0.721 3.76-0.721 1.337 0 2.647 0.275 3.915 0.788 1.159 0.469 2.166 1.156 3.213 2.111 0.905 0.826 1.563 1.738 2.029 2.854zM25.562 20.618c1.183-2.418 1.867-5.018 1.867-7.509-0.185-1.727-0.48-3.473-1.257-5.109-0.684-1.636-1.663-2.982-2.939-4.145s-2.643-2.127-4.306-2.8-3.438-1.055-5.286-1.055c-1.867 0-3.623 0.291-5.286 1.055-1.663 0.673-3.142 1.636-4.306 2.8s-2.273 2.6-2.976 4.145c-0.684 1.636-1.072 3.382-1.072 5.109 0 2.6 0.684 5.018 1.867 7.509 0.98 1.927 2.347 3.855 4.122 5.691 2.939 3.091 6.081 5.018 6.95 5.491 0.203 0.2 0.591 0.2 0.776 0.2 0.296 0 0.591-0.091 0.776-0.2 0.887-0.491 4.011-2.418 6.95-5.491 1.663-1.836 3.142-3.764 4.122-5.691zM9.143 13.714c0-2.598 1.973-4.571 4.571-4.571s4.571 1.973 4.571 4.571c0 2.598-1.973 4.571-4.571 4.571s-4.571-1.973-4.571-4.571z"></path>
</svg>
