<!-- Generated by IcoMoon.io -->
<svg version="1.1" xmlns="http://www.w3.org/2000/svg" width="32" height="32" viewBox="0 0 32 32">
<title>20</title>
<path d="M3.657 11.276h7.619v-7.619h-7.619v7.619zM0 2.286c0-1.262 1.023-2.286 2.286-2.286h10.362c1.262 0 2.286 1.023 2.286 2.286v10.362c0 1.262-1.023 2.286-2.286 2.286h-10.362c-1.262 0-2.286-1.023-2.286-2.286v-10.362zM3.657 28.343h7.619v-7.619h-7.619v7.619zM0 19.352c0-1.262 1.023-2.286 2.286-2.286h10.362c1.262 0 2.286 1.023 2.286 2.286v10.362c0 1.262-1.023 2.286-2.286 2.286h-10.362c-1.262 0-2.286-1.023-2.286-2.286v-10.362zM20.724 3.657h7.619v7.619h-7.619v-7.619zM19.352 0c-1.262 0-2.286 1.023-2.286 2.286v10.362c0 1.262 1.023 2.286 2.286 2.286h10.362c1.262 0 2.286-1.023 2.286-2.286v-10.362c0-1.262-1.023-2.286-2.286-2.286h-10.362zM20.724 28.343h7.619v-7.619h-7.619v7.619zM17.067 19.352c0-1.262 1.023-2.286 2.286-2.286h10.362c1.262 0 2.286 1.023 2.286 2.286v10.362c0 1.262-1.023 2.286-2.286 2.286h-10.362c-1.262 0-2.286-1.023-2.286-2.286v-10.362z"></path>
</svg>
