<!-- Generated by IcoMoon.io -->
<svg version="1.1" xmlns="http://www.w3.org/2000/svg" width="30" height="32" viewBox="0 0 30 32">
<title>23</title>
<path fill="none" stroke-linejoin="miter" stroke-linecap="butt" stroke-miterlimit="4" stroke-width="3.6571" stroke="#000" d="M13.333 3.482l1.497 2.175 1.51-2.166c0.718-1.030 1.852-1.662 3.063-1.662h7.995c0.070 0 0.168 0.027 0.275 0.141s0.198 0.296 0.213 0.52v25.236c0 0.464-0.317 0.616-0.453 0.616h-9.173l-0.539 0.56c-0.808 0.839-1.821 1.269-2.863 1.269-1.037 0-2.069-0.445-2.863-1.269l-0.539-0.56h-9.173c-0.088 0-0.184-0.034-0.277-0.134-0.097-0.104-0.176-0.271-0.176-0.483v-25.281c0-0.464 0.317-0.617 0.453-0.617h7.995c1.222 0 2.347 0.622 3.057 1.653z"></path>
</svg>
