<!-- Generated by IcoMoon.io -->
<svg version="1.1" xmlns="http://www.w3.org/2000/svg" width="32" height="32" viewBox="0 0 32 32">
<title>26</title>
<path d="M0 16c0-8.837 7.163-16 16-16s16 7.163 16 16c0 8.837-7.163 16-16 16s-16-7.163-16-16zM16 4c-6.627 0-12 5.373-12 12s5.373 12 12 12c6.627 0 12-5.373 12-12s-5.373-12-12-12z"></path>
<path d="M23.482 10.547c-0.335-0.359-0.768-0.527-1.205-0.546-0.486-0.019-0.98 0.149-1.351 0.546l-6.859 6.833-2.999-3.011c-0.371-0.397-0.861-0.569-1.346-0.546-0.441 0.019-0.874 0.187-1.209 0.546-0.335 0.35-0.499 0.812-0.512 1.274-0.022 0.513 0.141 1.036 0.512 1.423l4.278 4.374c0.353 0.373 0.812 0.56 1.275 0.56s0.927-0.191 1.28-0.56l8.134-8.191c0.371-0.387 0.538-0.91 0.516-1.423-0.018-0.467-0.181-0.929-0.516-1.279z"></path>
</svg>
