<!-- Generated by IcoMoon.io -->
<svg version="1.1" xmlns="http://www.w3.org/2000/svg" width="33" height="32" viewBox="0 0 33 32">
<title>29</title>
<path d="M3.068 31.46l0.039 0.001 26.873-0c0.323 0 1.443-0.058 2.275-0.802 0.878-0.787 0.935-1.845 0.931-2.154v-7.801l-0.001-0.047c-0.006-0.137-0.048-0.857-0.22-1.507-0.174-0.658-0.518-1.334-0.585-1.462-0.014-0.026-0.029-0.051-0.044-0.076l-3.478-5.512c-0.019-0.030-0.039-0.059-0.061-0.087-0.107-0.137-0.675-0.844-1.38-1.248-0.739-0.423-1.694-0.503-1.878-0.515-0.024-0.002-0.048-0.002-0.072-0.002h-18.5c-0.246 0-1.103 0.034-1.812 0.475-0.673 0.419-1.164 1.116-1.255 1.252-0.017 0.024-0.032 0.050-0.047 0.076l-2.929 5.181c-0.092 0.153-0.414 0.721-0.675 1.585-0.272 0.902-0.256 1.713-0.245 1.954v7.8c-0 0.020 0 0.039 0.002 0.058 0.011 0.207 0.106 1.278 0.9 2.023 0.775 0.726 1.938 0.801 2.161 0.808zM2.781 18.464c0.011-0.020 0.020-0.037 0.028-0.050 0 0 0.013-0.023 0.014-0.025l-0 0.001 0.031-0.053 2.91-5.149 0.009-0.012c0.102-0.139 0.349-0.436 0.557-0.566 0.148-0.093 0.469-0.138 0.641-0.14l18.464 0.001c0.225 0.021 0.662 0.1 0.877 0.222 0.248 0.142 0.558 0.475 0.687 0.631l0.011 0.013 3.235 5.127-9.442 0.006c-0.295 0.001-0.577 0.118-0.785 0.327s-0.326 0.491-0.326 0.785c0 1.747-1.388 3.116-3.16 3.116-1.778 0-3.171-1.368-3.171-3.116-0-0.295-0.118-0.577-0.326-0.785s-0.491-0.326-0.785-0.327l-9.469-0.006zM2.227 20.687l9.024 0.005 0.049 0.192c0.604 2.377 2.756 4.037 5.232 4.037 2.472 0 4.619-1.66 5.222-4.037l0.049-0.192 9.156-0.006c0.001 0.018 0.002 0.035 0.003 0.051v7.774l0.002 0.067c0 0.039-0.035 0.282-0.193 0.423-0.176 0.158-0.566 0.232-0.789 0.235l-26.859-0c-0.134-0.008-0.516-0.073-0.671-0.187l-0.018-0.013-0.015-0.016c-0.11-0.115-0.174-0.369-0.188-0.474l-0.002-0.016v-7.799c-0-0.015-0.001-0.030-0.001-0.045zM15.703 8.292c0.208 0.208 0.491 0.326 0.786 0.326s0.577-0.118 0.786-0.326c0.208-0.208 0.326-0.491 0.326-0.786v-6.394c-0-0.295-0.118-0.577-0.326-0.786s-0.491-0.326-0.786-0.326c-0.295 0-0.577 0.118-0.785 0.326s-0.325 0.491-0.326 0.786v6.394c0 0.295 0.118 0.577 0.326 0.786zM23.156 8.249c0.208 0.208 0.491 0.326 0.786 0.326l0.002-0c0.165 0 0.329-0.036 0.478-0.108s0.281-0.175 0.384-0.304l2.541-3.134c0.092-0.113 0.161-0.244 0.203-0.383s0.055-0.287 0.039-0.432c-0.015-0.145-0.058-0.286-0.128-0.415s-0.164-0.242-0.278-0.333c-0.2-0.162-0.442-0.248-0.699-0.248-0.166-0-0.329 0.036-0.479 0.108s-0.281 0.175-0.386 0.304l-2.541 3.134c-0.16 0.198-0.248 0.445-0.248 0.7 0 0.295 0.118 0.577 0.326 0.786zM8.679 8.381c0.15 0.073 0.315 0.11 0.482 0.11h0.002c0.252-0 0.496-0.086 0.693-0.242 0.23-0.184 0.378-0.452 0.411-0.745s-0.052-0.587-0.235-0.817l-2.498-3.134c-0.212-0.266-0.529-0.419-0.87-0.419-0.252-0.001-0.496 0.085-0.692 0.243-0.23 0.184-0.378 0.452-0.411 0.745s0.051 0.587 0.235 0.818l2.498 3.134c0.104 0.131 0.236 0.237 0.386 0.309z"></path>
</svg>
