<!-- Generated by IcoMoon.io -->
<svg version="1.1" xmlns="http://www.w3.org/2000/svg" width="32" height="32" viewBox="0 0 32 32">
<title>34</title>
<path d="M28.835 31.44c0.17 0.175 0.373 0.315 0.598 0.411s0.466 0.146 0.71 0.149c0.244 0.002 0.486-0.045 0.712-0.137s0.432-0.229 0.604-0.402 0.309-0.378 0.402-0.604c0.093-0.226 0.14-0.468 0.138-0.712s-0.052-0.485-0.148-0.71-0.235-0.428-0.41-0.598l-5.53-5.523c-0.72-0.72-3.327 1.885-2.607 2.603l5.531 5.523zM14.986 29.969c2.964 0 5.861-0.879 8.326-2.525s4.385-3.987 5.52-6.725c1.134-2.738 1.431-5.751 0.853-8.658s-2.006-5.577-4.101-7.672c-2.096-2.096-4.766-3.523-7.673-4.101s-5.92-0.281-8.659 0.853c-2.738 1.134-5.079 3.055-6.725 5.519s-2.526 5.361-2.525 8.325c0 3.974 1.579 7.785 4.389 10.595s6.622 4.389 10.596 4.389zM14.994 26.787c-2.333 0-4.613-0.692-6.553-1.988s-3.451-3.138-4.344-5.293-1.126-4.526-0.671-6.814c0.455-2.288 1.578-4.389 3.228-6.039s3.751-2.773 6.039-3.228c2.288-0.455 4.66-0.221 6.815 0.671s3.997 2.404 5.293 4.344c1.296 1.939 1.988 4.22 1.988 6.552 0 3.128-1.242 6.128-3.455 8.34s-5.212 3.454-8.34 3.454v0z"></path>
</svg>
