<!-- Generated by IcoMoon.io -->
<svg version="1.1" xmlns="http://www.w3.org/2000/svg" width="32" height="32" viewBox="0 0 32 32">
<title>37</title>
<path d="M31.848 15.679l-5.286-4.283c-0.061-0.049-0.134-0.080-0.212-0.089s-0.156 0.004-0.227 0.038-0.13 0.087-0.172 0.153c-0.042 0.066-0.064 0.143-0.063 0.221v2.96h-8.567v-8.565h2.958c0.078 0.001 0.155-0.021 0.222-0.063s0.12-0.101 0.154-0.172c0.034-0.071 0.047-0.149 0.038-0.227s-0.040-0.151-0.089-0.212l-4.282-5.288c-0.039-0.048-0.088-0.086-0.143-0.113s-0.116-0.040-0.178-0.040c-0.061 0-0.122 0.014-0.178 0.040s-0.104 0.065-0.143 0.113l-4.286 5.286c-0.049 0.061-0.080 0.134-0.089 0.212s0.004 0.156 0.038 0.227c0.034 0.071 0.087 0.13 0.153 0.172s0.143 0.064 0.221 0.063h2.96v8.563h-8.565v-2.958c0-0.079-0.022-0.156-0.063-0.223s-0.102-0.12-0.173-0.154c-0.071-0.034-0.15-0.047-0.228-0.038s-0.152 0.041-0.213 0.090l-5.282 4.288c-0.048 0.039-0.086 0.088-0.113 0.143s-0.040 0.116-0.040 0.178c0 0.061 0.014 0.122 0.040 0.178s0.065 0.104 0.113 0.143l5.286 4.286c0.267 0.219 0.677 0.028 0.677-0.323v-2.962h8.563v8.565h-2.958c-0.078-0-0.155 0.021-0.222 0.063s-0.12 0.101-0.154 0.172c-0.034 0.071-0.047 0.149-0.038 0.227s0.040 0.152 0.089 0.212l4.286 5.284c0.039 0.048 0.088 0.086 0.143 0.112s0.116 0.040 0.178 0.040c0.061 0 0.122-0.014 0.178-0.040s0.104-0.065 0.143-0.112l4.283-5.282c0.049-0.061 0.080-0.134 0.089-0.212s-0.004-0.156-0.038-0.227c-0.034-0.070-0.087-0.13-0.153-0.172s-0.143-0.064-0.221-0.063h-2.962v-8.567h8.565v2.959c0 0.349 0.403 0.544 0.674 0.324l5.284-4.286c0.048-0.038 0.087-0.087 0.114-0.142s0.041-0.116 0.041-0.178c0-0.062-0.013-0.122-0.039-0.178s-0.065-0.105-0.112-0.144v0z"></path>
</svg>
