<!-- Generated by IcoMoon.io -->
<svg version="1.1" xmlns="http://www.w3.org/2000/svg" width="32" height="32" viewBox="0 0 32 32">
<title>38</title>
<path d="M32 10c0-5.524-4.476-10-10-10-2.476 0-4.704 0.942-6.442 2.438-0.378 0.364-0.62 0.87-0.62 1.438 0 1.104 0.896 2 2 2 0.486 0 0.918-0.196 1.262-0.484l0.012 0.010c1.030-0.862 2.334-1.402 3.788-1.402 3.312 0 6 2.686 6 6 0 1.832-0.84 3.452-2.136 4.552h0.004l-11.315 11.317c-1.102 1.292-2.72 2.132-4.552 2.132-3.314 0-6-2.688-6-6 0-1.828 0.833-3.448 2.125-4.545l5.746-5.742c0.354-0.32 0.812-0.53 1.328-0.53 1.104 0 2 0.894 2 2 0 0.428-0.164 0.802-0.394 1.128l-5.554 5.646c-0.316 0.354-0.522 0.808-0.522 1.32 0 1.104 0.896 2 2 2 0.512 0 0.968-0.208 1.32-0.524l5.388-5.356 0.216-0.228c0.948-1.062 1.546-2.448 1.546-3.986 0-3.314-2.688-6-6-6-1.504 0-2.862 0.576-3.916 1.49l-0.326 0.298-5.653 5.649c-2.016 1.828-3.304 4.442-3.304 7.38 0 5.524 4.476 10 10 10 2.92 0 5.524-1.278 7.352-3.274l11.372-11.378c1.998-1.826 3.276-4.428 3.276-7.348z"></path>
</svg>
