<!-- Generated by IcoMoon.io -->
<svg version="1.1" xmlns="http://www.w3.org/2000/svg" width="32" height="32" viewBox="0 0 32 32">
<title>42</title>
<path fill="#4ea6ff" d="M32 16c0 8.837-7.163 16-16 16s-16-7.163-16-16c0-8.837 7.163-16 16-16s16 7.163 16 16z"></path>
<path fill="#fff" d="M25.6 11.459c0 0.337-0.116 0.623-0.347 0.858l-10.662 10.799c-0.231 0.234-0.509 0.352-0.834 0.352s-0.603-0.117-0.834-0.352l-6.176-6.268c-0.231-0.235-0.347-0.517-0.347-0.847s0.116-0.612 0.347-0.847l1.69-1.715c0.231-0.235 0.513-0.352 0.845-0.352s0.614 0.117 0.845 0.352l3.641 3.717 8.105-8.27c0.231-0.235 0.513-0.352 0.845-0.352s0.614 0.117 0.845 0.352l1.69 1.715c0.231 0.235 0.347 0.521 0.347 0.858z"></path>
</svg>
