<!-- Generated by IcoMoon.io -->
<svg version="1.1" xmlns="http://www.w3.org/2000/svg" width="32" height="32" viewBox="0 0 32 32">
<title>44</title>
<path d="M16 28.8c-7.069 0-12.8-5.731-12.8-12.8s5.731-12.8 12.8-12.8c7.069 0 12.8 5.731 12.8 12.8s-5.731 12.8-12.8 12.8zM16 32c8.837 0 16-7.163 16-16s-7.163-16-16-16c-8.837 0-16 7.163-16 16s7.163 16 16 16zM6.857 16c0 1.262 1.023 2.286 2.286 2.286h4.571v4.571c0 1.262 1.023 2.286 2.286 2.286s2.286-1.023 2.286-2.286v-4.571h4.571c1.262 0 2.286-1.023 2.286-2.286s-1.023-2.286-2.286-2.286h-4.571v-4.571c0-1.262-1.023-2.286-2.286-2.286s-2.286 1.023-2.286 2.286v4.571h-4.571c-1.262 0-2.286 1.023-2.286 2.286z"></path>
</svg>
