<!-- Generated by IcoMoon.io -->
<svg version="1.1" xmlns="http://www.w3.org/2000/svg" width="70" height="32" viewBox="0 0 70 32">
<title>46</title>
<path fill="#f0f2f5" d="M0.198 0.198h69.531v31.605h-69.531v-31.605z"></path>
<path fill="#d5dbe0" d="M38.264-26.672l0.559 0.559-57.826 57.826-0.559-0.559 57.826-57.826z"></path>
<path fill="#d5dbe0" d="M34.912-30.025l0.559 0.559-57.826 57.826-0.559-0.559 57.826-57.826z"></path>
<path fill="#d5dbe0" d="M48.321-16.616l0.559 0.559-57.826 57.826-0.559-0.559 57.826-57.826z"></path>
<path fill="#d5dbe0" d="M65.68-7.157l0.559 0.559-57.826 57.826-0.559-0.559 57.826-57.826z"></path>
<path fill="#d5dbe0" d="M71.786 6.85l0.559 0.559-57.826 57.826-0.559-0.559 57.826-57.826z"></path>
<path fill="#d5dbe0" d="M81.843 16.907l0.559 0.559-57.826 57.826-0.559-0.559 57.826-57.826z"></path>
<path fill="#d5dbe0" d="M41.617-23.32l0.559 0.559-57.826 57.826-0.559-0.559 57.826-57.826z"></path>
<path fill="#d5dbe0" d="M51.673-13.264l0.559 0.559-57.826 57.826-0.559-0.559 57.826-57.826z"></path>
<path fill="#d5dbe0" d="M69.033-3.805l0.559 0.559-57.826 57.826-0.559-0.559 57.826-57.826z"></path>
<path fill="#d5dbe0" d="M75.138 10.202l0.559 0.559-57.826 57.826-0.559-0.559 57.826-57.826z"></path>
<path fill="#d5dbe0" d="M44.969-19.968l0.559 0.559-57.826 57.826-0.559-0.559 57.826-57.826z"></path>
<path fill="#d5dbe0" d="M62.328-10.51l0.559 0.559-57.826 57.826-0.559-0.559 57.826-57.826z"></path>
<path fill="#d5dbe0" d="M55.025-9.911l0.559 0.559-57.826 57.826-0.559-0.559 57.826-57.826z"></path>
<path fill="#d5dbe0" d="M72.385-0.453l0.559 0.559-57.826 57.826-0.559-0.559 57.826-57.826z"></path>
<path fill="#d5dbe0" d="M78.491 13.554l0.559 0.559-57.826 57.826-0.559-0.559 57.826-57.826z"></path>
</svg>
