<!-- Generated by IcoMoon.io -->
<svg version="1.1" xmlns="http://www.w3.org/2000/svg" width="36" height="32" viewBox="0 0 36 32">
<title>49</title>
<path d="M11.376 31.96c-0.247-0.002-0.491-0.052-0.717-0.149s-0.427-0.237-0.592-0.412l-9.518-9.544c-0.352-0.368-0.547-0.846-0.549-1.343 0.007-0.5 0.21-0.979 0.57-1.343l9.497-9.544c0.163-0.177 0.364-0.319 0.59-0.416s0.471-0.147 0.718-0.146c0.242 0.001 0.481 0.056 0.696 0.16 0.354 0.148 0.654 0.393 0.861 0.704s0.311 0.673 0.3 1.041v3.569h11.059c0.341 0.043 0.655 0.199 0.886 0.441 0.292 0.291 0.452 0.68 0.443 1.083v2.386l6.859-7.018-6.986-6.917 0.127 2.446c0.002 0.392-0.148 0.77-0.422 1.063-0.239 0.24-0.561 0.39-0.907 0.421h-6.163c-0.267-0.007-0.526-0.081-0.753-0.215s-0.411-0.323-0.535-0.547c-0.135-0.234-0.206-0.496-0.206-0.762s0.071-0.528 0.206-0.762c0.125-0.222 0.31-0.408 0.537-0.538s0.486-0.201 0.751-0.203h4.643v-3.529c0.009-0.363 0.122-0.718 0.326-1.025s0.493-0.556 0.835-0.719c0.222-0.084 0.458-0.131 0.696-0.14 0.25 0.001 0.498 0.052 0.727 0.149s0.434 0.237 0.603 0.413l9.497 9.544c0.35 0.368 0.544 0.847 0.544 1.343s-0.194 0.975-0.544 1.343l-9.497 9.544c-0.17 0.168-0.373 0.302-0.597 0.395s-0.466 0.143-0.711 0.147c-0.247 0.006-0.493-0.042-0.718-0.14-0.354-0.148-0.654-0.393-0.861-0.703s-0.311-0.673-0.3-1.041v-3.549h-11.059c-0.375-0.058-0.715-0.241-0.959-0.517s-0.376-0.626-0.371-0.987v-2.466l-6.838 7.018 6.965 6.917-0.127-2.446c0.005-0.394 0.163-0.772 0.443-1.063 0.134-0.139 0.297-0.25 0.479-0.326s0.378-0.115 0.576-0.116h6.331c0.264 0.006 0.521 0.080 0.744 0.214s0.404 0.323 0.522 0.548c0.129 0.232 0.197 0.49 0.197 0.752s-0.068 0.52-0.197 0.752c-0.124 0.224-0.308 0.413-0.535 0.547s-0.486 0.208-0.753 0.215h-4.896v3.509c0.020 0.248-0.012 0.498-0.095 0.734s-0.215 0.454-0.388 0.641-0.384 0.339-0.62 0.447c-0.236 0.108-0.492 0.171-0.754 0.183l-0.063-0.040z"></path>
</svg>
