<!-- Generated by IcoMoon.io -->
<svg version="1.1" xmlns="http://www.w3.org/2000/svg" width="32" height="32" viewBox="0 0 32 32">
<title>_13</title>
<path d="M17.058 7.384c-0.267-0.004-0.532 0.047-0.779 0.149s-0.47 0.253-0.657 0.443c-0.19 0.187-0.341 0.409-0.444 0.655s-0.156 0.509-0.156 0.775c0 0.266 0.053 0.53 0.156 0.775s0.254 0.468 0.444 0.655c0.382 0.376 0.896 0.587 1.432 0.587s1.051-0.211 1.432-0.587c0.192-0.184 0.344-0.406 0.447-0.652s0.153-0.51 0.149-0.776c-0-0.266-0.053-0.529-0.154-0.775s-0.251-0.469-0.439-0.657c-0.188-0.188-0.411-0.337-0.657-0.439s-0.509-0.154-0.775-0.154h0.001zM18.102 23.168c-0.141 0.062-0.294 0.096-0.448 0.1-0.186 0.020-0.372-0.033-0.52-0.148-0.125-0.222-0.175-0.479-0.143-0.732 0.006-0.253 0.027-0.505 0.063-0.756 0.040-0.332 0.087-0.636 0.142-0.904l0.662-3.364c0.071-0.348 0.117-0.701 0.138-1.056 0.026-0.376 0.038-0.64 0.038-0.792 0.028-0.682-0.176-1.353-0.58-1.904-0.201-0.253-0.46-0.454-0.755-0.588s-0.617-0.195-0.939-0.18c-0.431 0.010-0.854 0.111-1.243 0.296-0.434 0.204-0.859 0.428-1.272 0.672l-0.108 0.064-0.296 1.736 0.502-0.292c0.141-0.079 0.287-0.149 0.437-0.208 0.131-0.062 0.274-0.095 0.419-0.096 0.088-0.011 0.177-0.003 0.262 0.022s0.163 0.068 0.231 0.126c0.116 0.228 0.163 0.486 0.134 0.74-0.002 0.252-0.021 0.503-0.058 0.752-0.040 0.284-0.088 0.588-0.147 0.904l-0.666 3.392c-0.060 0.36-0.105 0.688-0.132 0.968-0.028 0.285-0.041 0.57-0.040 0.856-0.022 0.679 0.187 1.344 0.594 1.888 0.204 0.256 0.466 0.459 0.765 0.594s0.624 0.197 0.951 0.182c0.422 0.007 0.841-0.084 1.223-0.264 0.313-0.152 0.735-0.38 1.289-0.696l0.112-0.064 0.303-1.78-0.52 0.34c-0.125 0.077-0.258 0.141-0.395 0.192h-0zM16.157 0c-8.757 0-16.157 7.412-16.157 16.188 0 8.72 7.248 15.812 16.157 15.812 4.196-0 8.221-1.665 11.191-4.63s4.643-6.986 4.652-11.182c0-8.776-7.255-16.188-15.843-16.188zM16 29.204c-2.611 0-5.164-0.773-7.335-2.224s-3.864-3.512-4.863-5.924c-1-2.412-1.261-5.067-0.752-7.628s1.766-4.914 3.612-6.76 4.198-3.104 6.759-3.614c2.561-0.51 5.215-0.249 7.628 0.75s4.475 2.691 5.926 4.862c1.451 2.171 2.226 4.723 2.226 7.334-0.004 3.5-1.395 6.856-3.87 9.331s-5.83 3.868-9.33 3.873v0z"></path>
</svg>
