<!-- Generated by IcoMoon.io -->
<svg version="1.1" xmlns="http://www.w3.org/2000/svg" width="32" height="32" viewBox="0 0 32 32">
<title>_2</title>
<path fill="#39f" opacity="0.3" d="M4 0h24c2.209 0 4 1.791 4 4v24c0 2.209-1.791 4-4 4h-24c-2.209 0-4-1.791-4-4v-24c0-2.209 1.791-4 4-4z"></path>
<path fill="#fff" d="M26 10.5c0 0.287-0.095 0.532-0.284 0.733l-10.197 11.001-1.379 1.465c-0.189 0.201-0.419 0.302-0.689 0.302s-0.5-0.101-0.689-0.302l-1.379-1.465-5.099-5.5c-0.189-0.201-0.284-0.445-0.284-0.733s0.095-0.532 0.284-0.733l1.379-1.465c0.189-0.201 0.419-0.302 0.689-0.302s0.5 0.101 0.689 0.302l4.409 4.778 9.508-10.279c0.189-0.201 0.419-0.302 0.689-0.302s0.5 0.101 0.689 0.302l1.379 1.465c0.189 0.201 0.284 0.445 0.284 0.733z"></path>
</svg>
