<!-- Generated by IcoMoon.io -->
<svg version="1.1" xmlns="http://www.w3.org/2000/svg" width="32" height="32" viewBox="0 0 32 32">
<title>_4</title>
<path fill="none" stroke="#aaaeb3" stroke-linejoin="miter" stroke-linecap="butt" stroke-miterlimit="4" stroke-width="2" d="M4 1h24c1.657 0 3 1.343 3 3v24c0 1.657-1.343 3-3 3h-24c-1.657 0-3-1.343-3-3v-24c0-1.657 1.343-3 3-3z"></path>
<path fill="#409fff" d="M4 0h24c2.209 0 4 1.791 4 4v24c0 2.209-1.791 4-4 4h-24c-2.209 0-4-1.791-4-4v-24c0-2.209 1.791-4 4-4zM25.716 11.232c0.189-0.201 0.284-0.445 0.284-0.733s-0.095-0.532-0.284-0.733l-1.379-1.465c-0.189-0.201-0.419-0.302-0.689-0.302s-0.5 0.101-0.689 0.302l-9.508 10.279-4.409-4.778c-0.189-0.201-0.419-0.302-0.689-0.302s-0.5 0.101-0.689 0.302l-1.379 1.465c-0.189 0.201-0.284 0.445-0.284 0.733s0.095 0.532 0.284 0.733l5.099 5.5 1.379 1.465c0.189 0.201 0.419 0.302 0.689 0.302s0.5-0.101 0.689-0.302l1.379-1.465 10.197-11.001z"></path>
</svg>
