<!-- Generated by IcoMoon.io -->
<svg version="1.1" xmlns="http://www.w3.org/2000/svg" width="956" height="1024" viewBox="0 0 956 1024">
<title></title>
<g id="icomoon-ignore">
</g>
<path d="M860.174 637.133c22.617 0 40.96 18.338 40.96 40.96v223.416c0 44.162-32.051 90.61-83.797 90.61h-139.209c-22.622 0-40.96-18.336-40.96-40.96s18.338-40.96 40.96-40.96h138.172c0.089-0.089 0.191-0.198 0.314-0.335 1.106-1.283 2.601-4.11 2.601-8.356v-223.416c0-22.622 18.336-40.96 40.96-40.96z"></path>
<path d="M0 86.471c0-52.159 45.93-86.471 92.16-86.471h716.8c46.23 0 92.16 34.313 92.16 86.471v227.555c0 22.622-18.336 40.96-40.96 40.96s-40.96-18.338-40.96-40.96v-227.551c0-0.003 0-0.005 0-0.008-0.014-0.022-0.027-0.059-0.048-0.112-0.102-0.212-0.423-0.758-1.201-1.451-1.604-1.428-4.663-2.984-8.991-2.984h-716.8c-4.324 0-7.385 1.556-8.991 2.984-0.78 0.693-1.098 1.24-1.199 1.451-0.029 0.061-0.044 0.1-0.050 0.12v819.191c0 0 0 0 0 0 0.007 0.020 0.021 0.061 0.050 0.123 0.1 0.212 0.418 0.758 1.199 1.447 1.606 1.427 4.667 2.983 8.991 2.983h153.6c22.622 0 40.96 18.343 40.96 40.96 0 22.624-18.338 40.96-40.96 40.96h-153.6c-46.23 0-92.16-34.311-92.16-86.467v-819.202z"></path>
<path d="M273.067 314.027c0-22.622 18.338-40.96 40.96-40.96h273.067c22.622 0 40.96 18.338 40.96 40.96s-18.338 40.96-40.96 40.96h-273.067c-22.622 0-40.96-18.338-40.96-40.96z"></path>
<path d="M889.132 467.13c15.995 15.996 15.995 41.93 0 57.926l-455.109 455.109c-15.996 15.995-41.93 15.995-57.926 0s-15.996-41.929 0-57.924l455.111-455.111c15.995-15.996 41.929-15.996 57.924 0z"></path>
<path d="M273.067 496.093c0-22.622 18.338-40.96 40.96-40.96h182.045c22.622 0 40.96 18.338 40.96 40.96s-18.338 40.96-40.96 40.96h-182.045c-22.622 0-40.96-18.338-40.96-40.96z"></path>
</svg>
