<!-- Generated by IcoMoon.io -->
<svg version="1.1" xmlns="http://www.w3.org/2000/svg" width="32" height="32" viewBox="0 0 32 32">
<title>untitled</title>
<path fill="#409fff" d="M4 32h24c2.209 0 4-1.791 4-4v-24c0-2.209-1.791-4-4-4h-24c-2.209 0-4 1.791-4 4v24c0 2.209 1.791 4 4 4z"></path>
<path fill="#fff" d="M19.685 16.634c0.186-0.18 0.357-0.423 0.305-0.653 0.040-0.231-0.146-0.448-0.305-0.628l-5.407-5.142c-0.291-0.281-0.769-0.281-1.060 0s-0.291 0.744 0 1.025l5.129 4.758-5.128 4.771c-0.291 0.281-0.291 0.744 0 1.025s0.769 0.281 1.060 0l5.407-5.155z"></path>
</svg>
