<svg id="组_49" data-name="组 49" xmlns="http://www.w3.org/2000/svg" width="154" height="154" viewBox="0 0 154 154">
  <defs>
    <style>
      .cls-1 {
        fill: #242c38;
        stroke: #3f4751;
        stroke-linejoin: round;
        stroke-width: 1px;
      }

      .cls-2 {
        fill: #94a0b6;
      }

      .cls-10, .cls-2, .cls-3, .cls-4, .cls-5, .cls-6, .cls-7, .cls-8, .cls-9 {
        fill-rule: evenodd;
      }

      .cls-3 {
        fill: #6d83a7;
      }

      .cls-4 {
        fill: #818fa7;
      }

      .cls-5 {
        fill: #536583;
      }

      .cls-6 {
        fill: #aebad0;
      }

      .cls-7 {
        fill: #bbc3d0;
      }

      .cls-8 {
        fill: #d6e0f0;
      }

      .cls-9 {
        fill: #1d2532;
      }

      .cls-10 {
        fill: none;
        stroke: #1d2532;
        stroke-width: 2px;
      }
    </style>
  </defs>
  <circle id="椭圆_2" data-name="椭圆 2" class="cls-1" cx="76.25" cy="76.359" r="75.25"/>
  <path id="椭圆_2_拷贝_4" data-name="椭圆 2 拷贝 4" class="cls-2" d="M76.056,151.714a75.143,75.143,0,0,1-62.292-33.357V93.885l62.292,17.028v40.8Z"/>
  <path id="椭圆_2_拷贝_3" data-name="椭圆 2 拷贝 3" class="cls-3" d="M138.348,118.916a75.128,75.128,0,0,1-62.1,32.8c-0.7,0-1.388-.034-2.082-0.053V116.59l64.18-22.705v25.031Z"/>
  <path id="形状_8" data-name="形状 8" class="cls-4" d="M13.764,93.885l60.4-30.274,64.18,30.274L76.056,127.942Z"/>
  <path id="矩形_1811124" data-name="矩形 1811124" class="cls-5" d="M68,61l66.562,31,2,13.986L114.15,124.521l-49.181,3.01Z"/>
  <path id="椭圆_2_拷贝_2" data-name="椭圆 2 拷贝 2" class="cls-6" d="M5.725,102.675l8.039-8.79,62.292,34.057-21.97,20.449A75.479,75.479,0,0,1,5.725,102.675Z"/>
  <path id="椭圆_2_拷贝" data-name="椭圆 2 拷贝" class="cls-2" d="M74.169,127.942l62.293-35.949,10.839,9.194A75.412,75.412,0,0,1,94.086,149.57Z"/>
  <path id="椭圆_3" data-name="椭圆 3" class="cls-7" d="M65.007,22.92a44.694,44.694,0,0,1,23.135,86.342c-3.14.841-11.447,8.255-18.532,8.594-2.661.13,3.82-7.1,1.231-7.439A44.712,44.712,0,0,1,65.007,22.92Z"/>
  <path id="形状_13" data-name="形状 13" class="cls-8" d="M86.2,65.235S107.6,74.046,109,105l7-8s-6.963-33.09-26.565-33.112Z"/>
  <path id="形状_14" data-name="形状 14" class="cls-8" d="M53.4,64.134S37.057,78.416,36.543,95.869L31.223,82.778s9.907-18,20.036-19.885Z"/>
  <path id="椭圆_4" data-name="椭圆 4" class="cls-9" d="M85.521,55.528a5.258,5.258,0,1,1-3.71,6.438A5.254,5.254,0,0,1,85.521,55.528Z"/>
  <path id="椭圆_4_拷贝" data-name="椭圆 4 拷贝" class="cls-9" d="M51.135,55.669a5.258,5.258,0,1,1-3.71,6.438A5.254,5.254,0,0,1,51.135,55.669Z"/>
  <path id="形状_11" data-name="形状 11" class="cls-10" d="M58.847,84.449l7.091-7.344,9.483,8.346"/>
  <path id="形状_12" data-name="形状 12" class="cls-10" d="M79.872,47.969s10.152,0.9,13.523-3.623"/>
  <path id="形状_12_拷贝" data-name="形状 12 拷贝" class="cls-10" d="M61.237,48.234a12.629,12.629,0,0,1-9.995-6.176"/>
</svg>
