<svg xmlns="http://www.w3.org/2000/svg" width="14" height="14" viewBox="0 0 14 14">
  <defs>
    <style>
      .cls-1 {
        fill: #fff;
        fill-rule: evenodd;
      }
    </style>
  </defs>
  <path id="批量" class="cls-1" d="M4457.58,1326.59h-0.96v0.48a1.931,1.931,0,0,1-1.93,1.93h-6.76a1.912,1.912,0,0,1-1.93-1.93v-6.76a1.929,1.929,0,0,1,1.93-1.93h0.48v-0.96a2.416,2.416,0,0,1,2.42-2.42h6.75a2.424,2.424,0,0,1,2.42,2.42v6.75A2.416,2.416,0,0,1,4457.58,1326.59Zm-9.65-7.24a0.969,0.969,0,0,0-.97.96v6.76a0.977,0.977,0,0,0,.97.97h6.76a0.969,0.969,0,0,0,.96-0.97v-6.76a0.956,0.956,0,0,0-.96-0.96h-6.76Zm11.1-1.93a1.451,1.451,0,0,0-1.45-1.45h-6.75a1.451,1.451,0,0,0-1.45,1.45v0.96h5.31a1.946,1.946,0,0,1,1.93,1.93v5.31h0.96a1.451,1.451,0,0,0,1.45-1.45v-6.75Zm-6.72,7.46-0.05.05a1.431,1.431,0,0,1-2.04,0l-0.9-.9a0.481,0.481,0,0,1,.68-0.68l0.9,0.9a0.482,0.482,0,0,0,.36.14,0.465,0.465,0,0,0,.35-0.18l1.88-2.27a0.48,0.48,0,0,1,.74.61Z" transform="translate(-4446 -1315)"/>
</svg>
