<svg xmlns="http://www.w3.org/2000/svg" width="14" height="14" viewBox="0 0 14 14">
  <defs>
    <style>
      .cls-1 {
        fill: #fff;
        fill-rule: evenodd;
      }
    </style>
  </defs>
  <path id="搜索" class="cls-1" d="M5149.86,134.627a1.255,1.255,0,1,0,1.77-1.779l-1.75-1.775c-0.49-.491-2.25,1.288-1.77,1.779ZM5144,134c3.62,0,7-2.377,7-6s-2.82-7-6.44-7a6.555,6.555,0,0,0-6.56,6.559c0,3.623,2.38,6.442,6,6.442h0Zm0.5-2a4.506,4.506,0,1,1,4.5-4.505,4.507,4.507,0,0,1-4.5,4.505h0Zm0,0" transform="translate(-5138 -121)"/>
</svg>
