<svg xmlns="http://www.w3.org/2000/svg" width="14" height="13.968" viewBox="0 0 14 13.968">
  <defs>
    <style>
      .cls-1 {
        <!-- fill: #c2c7cc; -->
        fill-rule: evenodd;
      }
    </style>
  </defs>
  <path id="删除" class="cls-1" d="M9267.92,216.218a0.862,0.862,0,0,1-.86.87h-6.13a0.859,0.859,0,0,1-.85-0.87v-9.247h7.84v9.247Zm-6.14-10.81a0.166,0.166,0,0,1,.17-0.175h4.1a0.166,0.166,0,0,1,.17.175v0.528h-4.44v-0.528Zm8.7,0.528h-3.23v-0.528a1.218,1.218,0,0,0-1.2-1.22h-4.1a1.218,1.218,0,0,0-1.2,1.22v0.528h-3.24a0.527,0.527,0,0,0,0,1.054h1.53v9.228a1.909,1.909,0,0,0,1.89,1.924h6.13a1.9,1.9,0,0,0,1.89-1.924v-9.247h1.53a0.517,0.517,0,0,0,.51-0.527,0.5,0.5,0,0,0-.51-0.508h0Zm-6.48,9.58a0.518,0.518,0,0,0,.51-0.528v-5.575a0.515,0.515,0,1,0-1.03,0v5.575a0.525,0.525,0,0,0,.52.528m-2.39,0a0.518,0.518,0,0,0,.51-0.528v-5.575a0.515,0.515,0,1,0-1.03,0v5.575a0.539,0.539,0,0,0,.52.528m4.78,0a0.518,0.518,0,0,0,.51-0.528v-5.575a0.515,0.515,0,1,0-1.03,0v5.575a0.532,0.532,0,0,0,.52.528" transform="translate(-9257 -204.188)"/>
</svg>
