<svg id="组_111" data-name="组 111" xmlns="http://www.w3.org/2000/svg" width="24" height="24" viewBox="0 0 24 24">
  <defs>
    <style>
      .cls-1 {
        fill: none;
      }

      .cls-2 {
        fill: #666;
      }
    </style>
  </defs>
  <rect id="矩形_108" data-name="矩形 108" class="cls-1" width="24" height="24"/>
  <g id="组_46" data-name="组 46" transform="translate(0.75 0.75)">
    <path id="路径_30" data-name="路径 30" class="cls-2" d="M728,230.25A11.25,11.25,0,1,1,739.25,219,11.263,11.263,0,0,1,728,230.25Zm0-21a9.75,9.75,0,1,0,9.75,9.75A9.761,9.761,0,0,0,728,209.25Z" transform="translate(-716.75 -207.75)"/>
  </g>
  <g id="组_112" data-name="组 112" transform="translate(-146.145 -296.25)">
    <path id="路径_81" data-name="路径 81" class="cls-2" d="M157.978,315.75c-3.119,0-4.833-8.011-4.833-10.667a4.833,4.833,0,1,1,9.666,0C162.811,307.739,161.1,315.75,157.978,315.75Zm0-14a3.337,3.337,0,0,0-3.333,3.333c0,3.238,1.959,9.167,3.333,9.167s3.333-5.929,3.333-9.167A3.337,3.337,0,0,0,157.978,301.75Z"/>
    <path id="路径_82" data-name="路径 82" class="cls-2" d="M157.978,307.75a2.25,2.25,0,1,1,2.25-2.25A2.252,2.252,0,0,1,157.978,307.75Zm0-3a.75.75,0,1,0,.75.75A.75.75,0,0,0,157.978,304.75Z"/>
  </g>
</svg>
