<svg id="组_64" data-name="组 64" xmlns="http://www.w3.org/2000/svg" width="24" height="24" viewBox="0 0 24 24">
  <defs>
    <style>
      .cls-1 {
        fill: none;
      }

      .cls-2 {
        fill: #666;
      }
    </style>
  </defs>
  <rect id="矩形_108" data-name="矩形 108" class="cls-1" width="24" height="24"/>
  <g id="组_46" data-name="组 46" transform="translate(0.75 0.75)">
    <path id="路径_30" data-name="路径 30" class="cls-2" d="M728,230.25A11.25,11.25,0,1,1,739.25,219,11.263,11.263,0,0,1,728,230.25Zm0-21a9.75,9.75,0,1,0,9.75,9.75A9.761,9.761,0,0,0,728,209.25Z" transform="translate(-716.75 -207.75)"/>
    <path id="路径_31" data-name="路径 31" class="cls-2" d="M728.541,226.75a.75.75,0,0,1,0-1.5,5.238,5.238,0,0,0,4.435-2.467,6.235,6.235,0,0,0,.38-.562c.057-.094.112-.189.164-.285a.75.75,0,1,1,1.322.709q-.1.177-.2.348a7.346,7.346,0,0,1-.475.7A6.668,6.668,0,0,1,728.541,226.75Z" transform="translate(-716.75 -207.75)"/>
    <path id="路径_32" data-name="路径 32" class="cls-2" d="M735.75,219h-1.5a6.25,6.25,0,0,0-12.5,0h-1.5a7.75,7.75,0,0,1,15.5,0Z" transform="translate(-716.75 -207.75)"/>
    <path id="路径_33" data-name="路径 33" class="cls-2" d="M721,222.75a1.752,1.752,0,0,1-1.75-1.75v-1a1.75,1.75,0,0,1,3.5,0v1A1.752,1.752,0,0,1,721,222.75Zm0-3a.25.25,0,0,0-.25.25v1c0,.275.5.275.5,0v-1A.25.25,0,0,0,721,219.75Z" transform="translate(-716.75 -207.75)"/>
    <path id="路径_34" data-name="路径 34" class="cls-2" d="M735,222.75a1.752,1.752,0,0,1-1.75-1.75v-1a1.75,1.75,0,0,1,3.5,0v1A1.752,1.752,0,0,1,735,222.75Zm0-3a.25.25,0,0,0-.25.25v1c0,.275.5.275.5,0v-1A.25.25,0,0,0,735,219.75Z" transform="translate(-716.75 -207.75)"/>
  </g>
</svg>
