<svg id="组_110" data-name="组 110" xmlns="http://www.w3.org/2000/svg" width="24" height="24" viewBox="0 0 24 24">
  <defs>
    <style>
      .cls-1 {
        fill: none;
      }

      .cls-2 {
        fill: #666;
      }
    </style>
  </defs>
  <rect id="矩形_109" data-name="矩形 109" class="cls-1" width="24" height="24"/>
  <g id="组_48" data-name="组 48" transform="translate(0.75 0.75)">
    <path id="路径_35" data-name="路径 35" class="cls-2" d="M770,230.25A11.25,11.25,0,1,1,781.25,219,11.263,11.263,0,0,1,770,230.25Zm0-21a9.75,9.75,0,1,0,9.75,9.75A9.761,9.761,0,0,0,770,209.25Z" transform="translate(-758.75 -207.75)"/>
    <path id="路径_36" data-name="路径 36" class="cls-2" d="M774,224.75h-3.743a7.169,7.169,0,0,1-5.1-2.147,6.568,6.568,0,0,1-1.9-4.772,6.74,6.74,0,0,1,6.579-6.579,6.6,6.6,0,0,1,4.772,1.9,7.165,7.165,0,0,1,2.147,5.1V222A2.753,2.753,0,0,1,774,224.75Zm-4.008-12c-.042,0-.083,0-.124,0a5.241,5.241,0,0,0-5.116,5.116,5.07,5.07,0,0,0,1.477,3.687,5.657,5.657,0,0,0,4.028,1.7H774a1.252,1.252,0,0,0,1.25-1.25v-3.743a5.659,5.659,0,0,0-1.7-4.028A5.079,5.079,0,0,0,769.992,212.75Z" transform="translate(-758.75 -206.75)"/>
    <circle id="椭圆_21" data-name="椭圆 21" class="cls-2" cx="1" cy="1" r="1" transform="translate(7.25 10.25)"/>
    <circle id="椭圆_22" data-name="椭圆 22" class="cls-2" cx="1" cy="1" r="1" transform="translate(10.25 10.25)"/>
    <circle id="椭圆_23" data-name="椭圆 23" class="cls-2" cx="1" cy="1" r="1" transform="translate(13.25 10.25)"/>
  </g>
</svg>
