<svg xmlns="http://www.w3.org/2000/svg" xmlns:xlink="http://www.w3.org/1999/xlink" width="1152" height="120" viewBox="0 0 1152 120"><defs><style>.a{fill:#b6c3d4;}.b{fill:url(#a);}.c{clip-path:url(#b);}.d,.m{fill:#00bfa6;}.e{fill:#444053;}.f{fill:#d5d6db;}.ad,.g,.m,.v{opacity:0.1;}.ad,.g,.h,.k,.m,.v,.z{isolation:isolate;}.ac,.h,.k{fill:#fff;}.ah,.h{opacity:0.3;}.i{fill:#f2f2f2;}.j{fill:#3a3768;}.k{opacity:0.45;}.l{fill:#f4f4f5;}.n{fill:#ffd037;}.o{fill:#65617d;}.p{fill:#9d9cb5;}.q{fill:#67954d;}.r{fill:#78b257;}.s{fill:#dbdbdb;}.t,.v{fill:#2e8ae6;}.u{fill:#2a73bc;}.w{fill:#f9c9cb;}.x{fill:#3e373a;}.y{fill:#4b4b5b;}.z{opacity:0.02;}.aa{fill:#f28f4d;}.ab{fill:#c3c7d9;}.ad{fill:none;stroke:#000;stroke-miterlimit:10;}.ae{fill:#89d14b;}.af{fill:#77bb3d;}.ag{opacity:0.62;fill:url(#c);}.ah{fill:url(#d);}</style><linearGradient id="a" x1="0.952" y1="0.643" x2="0.066" y2="0.692" gradientUnits="objectBoundingBox"><stop offset="0" stop-color="#9accfe"/><stop offset="1" stop-color="#6aa9e6"/></linearGradient><clipPath id="b"><rect class="a" width="1152" height="120" transform="translate(264 88)"/></clipPath><linearGradient id="c" x1="0.89" y1="0.257" x2="-0.428" y2="1.32" gradientUnits="objectBoundingBox"><stop offset="0" stop-color="#2e8ae6" stop-opacity="0"/><stop offset="1" stop-color="#2e8ae6"/></linearGradient><linearGradient id="d" x1="-0.193" y1="0.298" x2="1" y2="0.997" xlink:href="#c"/></defs><g transform="translate(-264 -88)"><path class="b" d="M0,0H1152V120H0Z" transform="translate(264 88)"/><g class="c"><g transform="translate(1243.914 88.135)"><path class="d" d="M80.276,449.765l60.5-.3,6.011-14.1-21.256-1.543,3.7-15.459L87.193,412.92l40.259-14-3.556-.845L59.16,408.641l3.565,24.125,5.1,13.258Z" transform="translate(23.843 -332.15)"/><path class="d" d="M104.359,655.151s-3.712-.594-5.939,2.029c0,0,1.633,1.287,5.147-.495Z" transform="translate(59.331 -543.736)"/><path class="d" d="M88.531,655.09s2.368,2.914,1.2,6.16c0,0-1.93-.772-2.14-4.707Z" transform="translate(75.547 -543.734)"/><path class="d" d="M91.6,623.59s-1.485-2.724-7.424,1.089a3.333,3.333,0,0,0,3.415,1.683A4.025,4.025,0,0,0,91.6,623.59Z" transform="translate(74.603 -517.025)"/><path class="d" d="M63.695,626.856s3.081-.353,3.379,6.7a3.335,3.335,0,0,1-3.341-1.826A4.019,4.019,0,0,1,63.695,626.856Z" transform="translate(102.895 -520.488)"/><path class="d" d="M79.877,582.874s-1.732-4.8-8.017-1.386c0,0,1.435,4.4,7.374,3.019Z" transform="translate(88.507 -482.131)"/><path class="d" d="M70,543.894s-3.266-4.85-9.057-.353c0,0,2.029,4.553,8.562,2.079Z" transform="translate(100.317 -450.327)"/><path class="d" d="M66.565,506.576s-3.811-4.456-9.545,0c0,0,3.613,3.91,9.545,1.138Z" transform="translate(104.443 -419.839)"/><path class="d" d="M63.014,468.289s-3.86-4.652-9.354-.247c0,0,4.355,4.108,9.354,1.336Z" transform="translate(108.587 -388.186)"/><path class="d" d="M64.825,429.39s-4.065-5.988-9.205-1.93c0,0,4.355,5.147,9.205,3.068Z" transform="translate(106.429 -355.176)"/><path class="d" d="M70.244,391.575s-4.306-5.939-9.3-1.386c0,0,5.1,5.147,9.3,2.475Z" transform="translate(100.07 -324.24)"/><path class="d" d="M77.345,353.161s-5.1-5.582-9.545-3.358c0,0,5.311,5.928,9.767,4.839Z" transform="translate(91.534 -291.975)"/><path class="d" d="M86.084,314.879s-5.882-6.837-9.3-4.553c0,0,4.334,5.3,9.721,5.833Z" transform="translate(81.013 -259.522)"/><path class="d" d="M98.69,279.436s-5.149-5.582-8.91-4.2c0,0,4.4,5.79,9.6,5.939Z" transform="translate(65.836 -230.841)"/><path class="d" d="M113.626,243.2s-5.691-5.345-8.166-4.4c0,0,4.108,5.939,8.413,5.592Z" transform="translate(48.572 -200.926)"/><path class="d" d="M127.314,203.624s-4.9-6.386-7.574-5.891c0,0,2.971,5.693,7.574,6.54Z" transform="translate(32.607 -167.192)"/><path class="d" d="M139.381,163.894s-4.33-4.894-6.671-4.884c0,0,3.418,6.54,6.849,6.48Z" transform="translate(18.07 -135.336)"/><path class="d" d="M143.175,109.5l-4.184-10.2s-.209,9.216,4.716,12.086Z" transform="translate(12.812 -86.18)"/><path class="d" d="M152.949,50.487s-.693-8.514-.247-9.207c0,0-2.991,7.079.276,12.968Z" transform="translate(1.34 -38.415)"/><path class="d" d="M31.021,591.867s4.337-2.688,7.146,3.888c0,0-3.86,2.563-7.657-2.211Z" transform="translate(137.526 -491.237)"/><path class="d" d="M15.934,550.952s5.32-2.427,7.9,4.44c0,0-4.109,2.828-8.385-2.7Z" transform="translate(154.52 -457.659)"/><path class="d" d="M1.62,508.886s3.811-4.456,9.545,0c0,0-3.613,3.91-9.545,1.138Z" transform="translate(169.635 -421.741)"/><path class="d" d="M0,468.289s3.86-4.652,9.354-.247c0,0-4.355,4.108-9.354,1.336Z" transform="translate(171.732 -388.186)"/><path class="d" d="M7,424.747s2.708-6.708,8.594-3.823c0,0-3.182,5.948-8.353,4.937Z" transform="translate(164.255 -350.363)"/><path class="d" d="M13.87,384.892s2.692-6.824,8.661-3.661c0,0-3.655,6.255-8.4,4.714Z" transform="translate(156.103 -317.59)"/><path class="d" d="M38.31,333.462s1.061-7.482,6.01-8.152c0,0-1.05,7.89-5.343,9.5Z" transform="translate(129.995 -272.242)"/><path class="d" d="M54.36,294.889s.414-9.014,4.505-9.329c0,0-.138,6.842-4.044,10.605Z" transform="translate(112.612 -239.518)"/><path class="d" d="M67.09,259.4s1.22-7.5,5.126-8.412c0,0-.484,7.259-4.739,10.252Z" transform="translate(97.011 -211.059)"/><path class="d" d="M93.828,222.866s.041-7.809,2.427-8.956c0,0,1.479,7.07-1.736,9.953Z" transform="translate(67.907 -180.533)"/><path class="d" d="M104.348,187.963s.334-8.04,2.805-9.173c0,0,.845,6.363-2.436,9.7Z" transform="translate(55.392 -151.62)"/><path class="d" d="M122.35,152.664s.014-6.54,1.778-8.074c0,0,1.753,7.164-.857,9.389Z" transform="translate(34.755 -123.465)"/><path class="d" d="M127.491,104.464l1.716-10.884s2.331,8.919-1.8,12.85Z" transform="translate(28.702 -81.471)"/><path class="d" d="M120,56.081s4.4-7.318,4.314-8.131c0,0-.468,7.669-6.01,11.489Z" transform="translate(35.862 -43.906)"/><path class="e" d="M134.454,98.827l.285-.087c-3.508-11.441-4.383-18.736-2.466-20.565l-.2-.216C130.035,79.89,130.861,87.105,134.454,98.827Z" transform="translate(23.196 -68.612)"/><path class="e" d="M85.469,218.914l.421-.15c-.373-1.048-.774-2.112-1.195-3.16-3.662-9.127-6.78-17.619-8.779-24.137l-.366-.177c2,6.531,5.066,15.347,8.732,24.487C84.7,216.806,85.1,217.864,85.469,218.914Z" transform="translate(81.842 -161.911)"/><path class="e" d="M51.711,405.926a57.816,57.816,0,0,0,9.707-17.4,64.368,64.368,0,0,0,3.83-19.934,75.226,75.226,0,0,0-4.571-26.635l-.332.389c6.865,19.367,4.138,35.962.52,45.955a57.274,57.274,0,0,1-9.6,17.23Z" transform="translate(106.748 -285.95)"/><path class="f" d="M419.69,626.94s4.007,4.891.825,12.284L452.507,653.1l3.07.643,1.414-6.186-.946-7.807v-4.267Z" transform="translate(-350.087 -520.559)"/><path class="d" d="M162.112,571.462l-44.28-8.072L59.16,572.737,95.6,585.857Z" transform="translate(8.517 -468.242)"/><path class="d" d="M162.112,571.462l-44.28-8.072L59.16,572.737,95.6,585.857Z" transform="translate(8.517 -468.242)"/><path class="d" d="M116.233,609.05s4.141,7.846-.631,15.093L49.939,638.371s4.076-6.25-.21-14.925Z" transform="translate(54.395 -505.831)"/><path class="g" d="M116.233,609.05s4.141,7.846-.631,15.093L49.939,638.371s4.076-6.25-.21-14.925Z" transform="translate(54.395 -505.831)"/><path class="g" d="M64.279,624.44s2.367,5.741,0,9.456" transform="translate(104.393 -518.501)"/><path class="d" d="M100.559,702.082,63.9,686.44s-2.05.442-.725,1.944,36.676,15.2,36.676,15.2l66.37-15.731Z" transform="translate(3.776 -569.542)"/><path class="g" d="M100.559,702.082,63.9,686.44s-2.05.442-.725,1.944,36.676,15.2,36.676,15.2l66.37-15.731Z" transform="translate(3.776 -569.542)"/><path class="g" d="M408.341,699.44s3.535,4.242,0,10.6" transform="translate(-301.002 -580.245)"/><rect class="g" width="16.715" height="0.177" transform="matrix(-0.949, -0.316, 0.316, -0.949, 106.025, 124.581)"/><rect class="g" width="20.367" height="0.177" transform="translate(106.024 126.002) rotate(-159.18)"/><rect class="g" width="23.607" height="0.177" transform="translate(105.913 127.678) rotate(-157.74)"/><rect class="g" width="27.174" height="0.177" transform="translate(105.652 129.154) rotate(-155.69)"/><rect class="g" width="29.721" height="0.177" transform="translate(105.458 129.875) rotate(-156.39)"/><rect class="g" width="35.566" height="0.177" transform="translate(105.048 131.084) rotate(-156.64)"/><path class="h" d="M202.289,583.48l-31.108-6.54-18.951,3.623,25.491,8.219Z" transform="translate(-48.111 -479.397)"/><path class="d" d="M436.381,616.27s-1.608.649-.665,1.651,37.113,11.47,37.113,11.47Z" transform="translate(-368.705 -511.775)"/><path class="i" d="M518.99,530.76s4.005,4.889.824,12.284l31.992,13.875,3.07.647,1.414-6.186-.96-7.805V539.3Z" transform="translate(-466.936 -441.379)"/><path class="j" d="M261.412,475.28l-44.278-8.07-58.674,9.347,36.443,13.12Z" transform="translate(-108.335 -389.062)"/><path class="j" d="M215.492,512.87s4.143,7.846-.629,15.093L149.2,542.191s4.074-6.255-.217-14.927Z" transform="translate(-62.407 -426.651)"/><path class="g" d="M215.492,512.87s4.143,7.846-.629,15.093L149.2,542.191s4.074-6.255-.217-14.927l20.765-4.495Z" transform="translate(-62.407 -426.651)"/><path class="g" d="M163.573,528.26s2.365,5.739,0,9.456" transform="translate(-12.451 -439.321)"/><path class="j" d="M199.849,605.9l-36.66-15.643s-2.049.442-.723,1.944,36.676,15.2,36.676,15.2l66.37-15.731Z" transform="translate(-113.064 -490.362)"/><path class="g" d="M199.849,605.9l-36.66-15.643s-2.049.442-.723,1.944,36.676,15.2,36.676,15.2l66.37-15.731Z" transform="translate(-113.064 -490.362)"/><path class="g" d="M507.631,603.26s3.535,4.242,0,10.605" transform="translate(-417.841 -501.065)"/><rect class="g" width="16.715" height="0.177" transform="matrix(-0.949, -0.316, 0.316, -0.949, 88.475, 107.583)"/><rect class="g" width="20.367" height="0.177" transform="translate(88.47 109.003) rotate(-159.18)"/><rect class="g" width="23.607" height="0.177" transform="translate(88.363 110.677) rotate(-157.74)"/><rect class="g" width="27.174" height="0.177" transform="translate(88.1 112.153) rotate(-155.69)"/><rect class="g" width="29.721" height="0.177" transform="translate(87.908 112.872) rotate(-156.39)"/><rect class="g" width="35.566" height="0.177" transform="translate(87.497 114.081) rotate(-156.64)"/><path class="k" d="M301.589,487.3l-31.108-6.54-18.951,3.623,25.491,8.219Z" transform="translate(-164.962 -400.217)"/><path class="j" d="M535.711,520.09s-1.607.649-.665,1.649,37.107,11.469,37.107,11.469Z" transform="translate(-485.586 -432.595)"/><path class="l" d="M528.42,420.73s4.007,8.779.826,16.173l31.992,9.986,3.063.649,1.414-6.186-.946-7.807v-4.272Z" transform="translate(-478.028 -350.797)"/><path class="d" d="M270.844,365.252l-44.28-8.072-58.674,9.347,36.444,13.12Z" transform="translate(-119.433 -298.479)"/><path class="d" d="M224.934,402.84s4.148,7.846-.624,15.093l-65.663,14.228s4.076-6.255-.216-14.925Z" transform="translate(-73.523 -336.069)"/><path class="g" d="M224.934,402.84s4.148,7.846-.624,15.093l-65.663,14.228s4.076-6.255-.216-14.925Z" transform="translate(-73.523 -336.069)"/><path class="g" d="M173.009,418.23s2.367,5.741,0,9.456" transform="translate(-23.555 -348.739)"/><path class="d" d="M209.289,502.458,172.631,490.7s-2.05.442-.725,1.944,36.676,11.312,36.676,11.312l66.37-15.731Z" transform="translate(-124.172 -406.366)"/><path class="g" d="M209.289,502.458,172.631,490.7s-2.05.442-.725,1.944,36.676,11.312,36.676,11.312l66.37-15.731Z" transform="translate(-124.172 -406.366)"/><path class="g" d="M517.071,493.23s3.535,4.242,0,10.605" transform="translate(-428.95 -410.482)"/><rect class="g" width="16.715" height="0.177" transform="matrix(-0.949, -0.316, 0.316, -0.949, 86.805, 88.135)"/><rect class="g" width="20.367" height="0.177" transform="translate(86.803 89.555) rotate(-159.18)"/><rect class="g" width="23.607" height="0.177" transform="translate(86.696 91.23) rotate(-157.74)"/><rect class="g" width="27.174" height="0.177" transform="translate(86.431 92.705) rotate(-155.69)"/><rect class="g" width="29.721" height="0.177" transform="translate(86.239 93.425) rotate(-156.39)"/><rect class="g" width="35.566" height="0.177" transform="translate(85.828 94.636) rotate(-156.64)"/><path class="h" d="M311.019,377.27l-31.108-6.54-18.951,3.623,25.491,8.219Z" transform="translate(-176.059 -309.635)"/><path class="d" d="M545.142,410.06s-1.609.649-.665,1.651,37.107,11.47,37.107,11.47Z" transform="translate(-496.683 -342.013)"/><path class="d" d="M276.634,106.459s6.716-.4,5.932,4.307a1.15,1.15,0,0,1-.6,1.211s-.012-.354-.689-.232a3.009,3.009,0,0,1-.732.035,1.525,1.525,0,0,1-.893-.368h0s-1.889-.781-2.625-3.871c0,0-.544-.673-.53-.847l1.138.484a2.039,2.039,0,0,0-.083,1.5s.037-1.469.256-1.435c.044,0,.589.285.589.285a3.354,3.354,0,0,0-.163,2.462s-.191-1.757.371-2.36l.8.467a3.526,3.526,0,0,0-.251,2.674,5.011,5.011,0,0,1,.419-2.561l.725.566a3.444,3.444,0,0,0-.286,2.448s.058-2.146.442-2.308a4.366,4.366,0,0,1,.73.788s-.5,1.061-.189,1.61c0,0,.189-1.43.353-1.437a4.758,4.758,0,0,1,.7,1.591,3.438,3.438,0,0,0-.543-1.686,1.893,1.893,0,0,1,.965.5s-.1-.67-1.122-.728a4.341,4.341,0,0,0-.661-.762,4.138,4.138,0,0,1,1.637.187,1.854,1.854,0,0,0-1.822-.353l-.707-.583a6.1,6.1,0,0,1,1.909.019,2.326,2.326,0,0,0-2.1-.152l-.779-.465a7.083,7.083,0,0,1,1.824-.157,2.8,2.8,0,0,0-2.052.032l-.555-.249s.836-.164,1.082-.191.258-.094.258-.094a2.918,2.918,0,0,0-1.573.177A7.012,7.012,0,0,1,276.634,106.459Z" transform="translate(-150.415 -92.067)"/><path class="m" d="M332.442,253.008s2.927-6.068,6.653-3.077a1.148,1.148,0,0,1,.765,1.112s-.309-.161-.53.49a3.129,3.129,0,0,1-.325.654,1.526,1.526,0,0,1-.758.6h0s-1.6,1.269-4.659.4a3.024,3.024,0,0,1-.993.044l.976-.755a2.052,2.052,0,0,0,1.269.8s-1.266-.748-1.13-.921c.028-.035.53-.376.53-.376a3.357,3.357,0,0,0,2.07,1.343s-1.626-.689-1.877-1.476l.8-.47a3.527,3.527,0,0,0,2.213,1.524s-1.676-.779-2.031-1.614l.845-.354s.91,1.347,2,1.444c0,0-1.845-1.1-1.8-1.513a4.479,4.479,0,0,1,1.045-.253s.675.953,1.312.953c0,0-1.154-.864-1.083-1a4.661,4.661,0,0,1,1.732.177,3.442,3.442,0,0,0-1.737-.353,1.9,1.9,0,0,1,.909-.6s-.633-.24-1.182.624a4.36,4.36,0,0,0-.988.205,4.15,4.15,0,0,1,.962-1.335s-.817.164-1.189,1.414l-.857.339a5.9,5.9,0,0,1,.947-1.656s-.806.3-1.158,1.768l-.785.453a7,7,0,0,1,.751-1.669,2.8,2.8,0,0,0-.972,1.806l-.49.364s.265-.811.354-1.037.044-.272.044-.272a2.9,2.9,0,0,0-.615,1.458A6.594,6.594,0,0,1,332.442,253.008Z" transform="translate(-217.536 -209.505)"/><path class="m" d="M716.223,149.389s2.925-6.068,6.653-3.077a1.15,1.15,0,0,1,.765,1.112s-.311-.159-.53.49a3.059,3.059,0,0,1-.327.656,1.516,1.516,0,0,1-.757.6h0s-1.6,1.269-4.659.4a3.038,3.038,0,0,1-.995.042l.97-.757a2.051,2.051,0,0,0,1.267.8s-1.264-.749-1.128-.923c.028-.035.53-.376.53-.376a3.351,3.351,0,0,0,2.07,1.343s-1.628-.689-1.879-1.474l.808-.467a3.528,3.528,0,0,0,2.213,1.524s-1.675-.781-2.033-1.616l.847-.353s.91,1.349,2,1.444c0,0-1.843-1.1-1.8-1.511a4.375,4.375,0,0,1,1.043-.253s.675.951,1.313.951c0,0-1.156-.864-1.085-1a4.674,4.674,0,0,1,1.734.177,3.439,3.439,0,0,0-1.737-.353,1.892,1.892,0,0,1,.907-.6s-.633-.24-1.182.624a4.377,4.377,0,0,0-.988.207,4.139,4.139,0,0,1,.963-1.336s-.817.166-1.19,1.423l-.859.339a5.9,5.9,0,0,1,.947-1.658s-.806.3-1.156,1.768l-.787.452a7.053,7.053,0,0,1,.753-1.669,2.791,2.791,0,0,0-.972,1.806l-.49.364s.263-.811.353-1.038.044-.27.044-.27a2.907,2.907,0,0,0-.613,1.458A6.784,6.784,0,0,1,716.223,149.389Z" transform="translate(-669.15 -124.2)"/><path class="m" d="M769.083,319.191s2.925-6.07,6.658-3.079a1.15,1.15,0,0,1,.765,1.112s-.311-.159-.53.49a3.072,3.072,0,0,1-.325.656,1.517,1.517,0,0,1-.757.6h0s-1.6,1.271-4.661.4c0,0-.852.147-.993.042l.976-.755a2.051,2.051,0,0,0,1.269.8s-1.264-.749-1.128-.923c.028-.035.53-.377.53-.377a3.358,3.358,0,0,0,2.07,1.345s-1.628-.691-1.879-1.476l.8-.47a3.522,3.522,0,0,0,2.213,1.524s-1.676-.781-2.033-1.616l.847-.353s.91,1.347,2,1.444c0,0-1.845-1.1-1.8-1.513a4.39,4.39,0,0,1,1.044-.253s.675.951,1.313.951c0,0-1.156-.864-1.085-1a4.672,4.672,0,0,1,1.734.177,3.45,3.45,0,0,0-1.739-.354,1.889,1.889,0,0,1,.909-.6s-.633-.242-1.182.624a4.356,4.356,0,0,0-.988.205,4.169,4.169,0,0,1,.961-1.336s-.816.166-1.189,1.423l-.857.339a5.874,5.874,0,0,1,.947-1.656s-.806.3-1.156,1.768l-.787.451a7.058,7.058,0,0,1,.753-1.669,2.8,2.8,0,0,0-.974,1.808l-.49.353s.265-.811.353-1.037.044-.27.044-.27a2.889,2.889,0,0,0-.613,1.458A7.146,7.146,0,0,1,769.083,319.191Z" transform="translate(-731.358 -263.988)"/><ellipse class="m" cx="4.064" cy="0.454" rx="4.064" ry="0.454" transform="translate(141.327 133.261)"/><ellipse class="m" cx="4.064" cy="0.454" rx="4.064" ry="0.454" transform="translate(167.965 125.541)"/><ellipse class="m" cx="4.064" cy="0.454" rx="4.064" ry="0.454" transform="translate(121.022 138.389)"/><ellipse class="m" cx="4.064" cy="0.454" rx="4.064" ry="0.454" transform="translate(16.968 127.22)"/><ellipse class="m" cx="4.064" cy="0.454" rx="4.064" ry="0.454" transform="translate(50.783 125.016)"/><ellipse class="m" cx="4.806" cy="0.825" rx="4.806" ry="0.825" transform="translate(71.915 135.023)"/><path class="d" d="M579.32,746.72s6.692,3.457,3.235,7.53a1.294,1.294,0,0,1-1.266.822s.187-.343-.53-.617a3.442,3.442,0,0,1-.723-.383,1.7,1.7,0,0,1-.647-.865h0s-1.368-1.831-.307-5.219a3.36,3.36,0,0,1-.018-1.113l.813,1.115a2.277,2.277,0,0,0-.937,1.393s.884-1.391,1.061-1.237c.039.032.4.61.4.61a3.743,3.743,0,0,0-1.564,2.271s.82-1.8,1.706-2.054l.507.9a3.931,3.931,0,0,0-1.767,2.425s.924-1.847,1.868-2.22l.373.956s-1.534.976-1.676,2.188c0,0,1.283-2.027,1.745-1.964a4.9,4.9,0,0,1,.251,1.175s-1.083.725-1.1,1.437c0,0,1-1.264,1.154-1.181a5.331,5.331,0,0,1-.244,1.932,3.813,3.813,0,0,0,.444-1.932,2.121,2.121,0,0,1,.642,1.032s.288-.7-.661-1.342a4.894,4.894,0,0,0-.2-1.11,4.659,4.659,0,0,1,1.464,1.117s-.161-.918-1.554-1.373l-.354-.969a6.59,6.59,0,0,1,1.822,1.11s-.309-.91-1.932-1.347l-.481-.884a8.117,8.117,0,0,1,1.842.884,3.131,3.131,0,0,0-1.99-1.144l-.391-.557s.9.32,1.149.435.3.058.3.058a3.251,3.251,0,0,0-1.61-.732A7.869,7.869,0,0,1,579.32,746.72Z" transform="translate(-504.743 -619.167)"/><path class="d" d="M935.451,618.21s-1.048,1.37.484,3.44,2.794,3.816,2.285,5.106c0,0-2.312-3.842-4.193-3.9S933.385,620.52,935.451,618.21Z" transform="translate(-922.177 -513.372)"/><path class="g" d="M935.79,618.21a1.707,1.707,0,0,0-.214.43c-1.835,2.156-2.814,4.169-1.048,4.219,1.644.048,3.615,2.987,4.086,3.728a1.749,1.749,0,0,1-.055.177s-2.312-3.843-4.193-3.9S933.724,620.52,935.79,618.21Z" transform="translate(-922.516 -513.372)"/><path class="n" d="M959.05,626.654c0,.483.055.873.12.873s.122-.391.122-.873-.067-.254-.134-.254S959.05,626.171,959.05,626.654Z" transform="translate(-947.72 -520.07)"/><path class="n" d="M959.795,629.766c.422.23.792.369.823.311s-.284-.294-.707-.53-.256-.064-.288,0S959.37,629.534,959.795,629.766Z" transform="translate(-949.135 -522.606)"/><path class="d" d="M907.663,618.21s1.048,1.37-.484,3.44-2.795,3.816-2.284,5.106c0,0,2.31-3.842,4.193-3.9S909.724,620.52,907.663,618.21Z" transform="translate(-888.849 -513.372)"/><path class="g" d="M907.6,618.21a1.7,1.7,0,0,1,.214.43c1.835,2.156,2.814,4.169,1.048,4.219-1.642.048-3.615,2.987-4.087,3.728a1.4,1.4,0,0,0,.057.177s2.31-3.843,4.193-3.9S909.665,620.52,907.6,618.21Z" transform="translate(-888.791 -513.372)"/><path class="n" d="M907.3,626.654c0,.483-.053.873-.12.873s-.122-.391-.122-.873.069-.254.134-.254S907.3,626.171,907.3,626.654Z" transform="translate(-886.54 -520.07)"/><path class="n" d="M902.651,629.766c-.422.23-.792.369-.824.311s.284-.294.707-.53.256-.064.288,0S903.075,629.534,902.651,629.766Z" transform="translate(-881.221 -522.606)"/><ellipse class="m" cx="10.959" cy="1.681" rx="10.959" ry="1.681" transform="translate(5.086 121.448)"/><path class="o" d="M901.82,653.194l.053.471.074.665.03.278.074.665.032.278.073.663.84,7.567c.074.675,1.076,1.2,2.287,1.2h4.357c1.211,0,2.211-.527,2.287-1.2l.84-7.567.074-.663.03-.278.074-.665.032-.278.073-.665.053-.471c.041-.389-.5-.7-1.186-.7H903C902.32,652.49,901.778,652.811,901.82,653.194Z" transform="translate(-891.416 -541.593)"/><path class="p" d="M902.13,658.53l.072.6h11.029l.074-.6Z" transform="translate(-891.673 -546.565)"/><path class="p" d="M902.72,663.38l.073.6h10.821l.074-.6Z" transform="translate(-892.158 -550.558)"/><path class="p" d="M903.32,668.23l.074.6H914l.072-.6Z" transform="translate(-892.654 -554.551)"/></g><g transform="translate(1195.854 110.55) rotate(3)"><path class="q" d="M82.237,457.739l66.115-.341,6.569-16.274-23.23-1.781s6.738-8.534,8.82-14.5-.488-9.312-.488-9.312l-50.229-.32,44-16.154-3.886-.975L59.16,410.27l3.9,27.846,5.569,15.3Z" transform="translate(-6.807 -324.275)"/><path class="r" d="M277.558,478.848,226.6,467.21,158.46,480.519,200.782,499.2Z" transform="translate(-144.34 -387.595)"/><path class="k" d="M309.721,489.933,273.56,480.76l-22.03,5.082,29.632,11.528Z" transform="translate(-192.93 -397.227)"/><path class="s" d="M528.42,420.73s4.774,10.815.983,19.924l38.117,12.3,3.649.8,1.685-7.621-1.127-9.618v-5.263Z" transform="translate(-512.067 -347.36)"/><path class="t" d="M283.513,369.268,236.031,357.18,167.89,370.489l42.324,18.683,67.241-17.844Z" transform="translate(-153.501 -296.738)"/><path class="u" d="M232.314,403.554s7.192,5.387,1.69,14.226L158.68,438.6s5.369-4.648.422-15.222Z" transform="translate(-102.543 -331.092)"/><path class="g" d="M517.071,493.23s6.079,5.43,0,13.575" transform="translate(-530.887 -313.799) rotate(-9)"/><rect class="g" width="19.219" height="0.203" transform="matrix(-0.949, -0.316, 0.316, -0.949, 59.832, 94.214)"/><rect class="g" width="23.418" height="0.203" transform="translate(59.828 95.847) rotate(-159.18)"/><rect class="g" width="27.143" height="0.203" transform="translate(59.706 97.773) rotate(-157.74)"/><rect class="g" width="31.244" height="0.203" transform="translate(59.401 99.468) rotate(-155.69)"/><rect class="g" width="34.172" height="0.203" transform="translate(59.18 100.297) rotate(-156.39)"/><rect class="g" width="40.893" height="0.203" transform="translate(58.708 101.689) rotate(-156.64)"/><path class="h" d="M319.151,379.9,282.99,370.73l-22.03,5.082,29.632,11.528Z" transform="translate(-204.03 -307.568)"/><path class="v" d="M769.083,320.168s3.463-7.587,7.882-3.849a1.424,1.424,0,0,1,.906,1.39s-.368-.2-.628.612a3.923,3.923,0,0,1-.385.82,1.815,1.815,0,0,1-.9.749h0s-1.9,1.589-5.518.506c0,0-1.008.183-1.176.053l1.155-.943a2.432,2.432,0,0,0,1.5,1.005s-1.5-.937-1.335-1.153c.033-.044.628-.471.628-.471a3.985,3.985,0,0,0,2.45,1.681s-1.927-.864-2.224-1.845l.944-.588a4.2,4.2,0,0,0,2.62,1.9s-1.984-.977-2.406-2.019l1-.442s1.077,1.684,2.364,1.805c0,0-2.184-1.372-2.13-1.891a4.977,4.977,0,0,1,1.236-.316s.8,1.189,1.555,1.189c0,0-1.368-1.08-1.285-1.255a5.253,5.253,0,0,1,2.053.221,3.9,3.9,0,0,0-2.059-.442,2.23,2.23,0,0,1,1.076-.749s-.749-.3-1.4.78a4.924,4.924,0,0,0-1.17.256,5.228,5.228,0,0,1,1.138-1.67s-.967.208-1.408,1.778l-1.015.424a7.471,7.471,0,0,1,1.122-2.07s-.954.371-1.368,2.209l-.931.563a9.076,9.076,0,0,1,.891-2.086,3.531,3.531,0,0,0-1.153,2.26l-.579.442s.314-1.014.418-1.3.052-.338.052-.338a3.719,3.719,0,0,0-.726,1.823A8.527,8.527,0,0,1,769.083,320.168Z" transform="translate(-765.948 -263.413)"/><path class="w" d="M608.088,223.616s-3.738,8.227-5.864,7.4-1.549-4.319-1.955-5.278-.855-8.227-.855-8.227-.205-5.142-.611-6.183a47.964,47.964,0,0,1-.733-6.539v-.1l.4-5.965,2.282-.479,5.293,1.645.733,3.523.286,1.376.122.586Z" transform="translate(-561.407 -170.089)"/><path class="g" d="M608.656,314.88s-3.1,2.567-4.037,2.793-1.509,2.228-1.509,2.228" transform="translate(-562.997 -263.092)"/><path class="w" d="M437.42,225.366s3.738,8.227,5.864,7.4,1.549-4.319,1.955-5.278.855-8.227.855-8.227.205-5.142.611-6.183a48,48,0,0,0,.733-6.539v-.1l-.406-5.965L444.751,200l-5.293,1.645-.733,3.523-.286,1.376-.122.586Z" transform="translate(-368.109 -171.483)"/><rect class="x" width="7.497" height="11.166" transform="translate(50.193 10.019)"/><rect class="g" width="7.497" height="11.166" transform="translate(50.193 10.019)"/><path class="y" d="M495.519,360.713s2.421,2.924,1.523,3.455-6.71,10.484-6.71,10.484-19.088,2.582-22.688-1.292-3.527-10.8-3.527-10.8,2.892.684,3.208.312,2.048-2.163,2.048-2.163S493.859,359.081,495.519,360.713Z" transform="translate(-423.372 -299.008)"/><path class="z" d="M495.519,360.713s2.421,2.924,1.523,3.455-6.71,10.484-6.71,10.484-19.088,2.582-22.688-1.292-3.527-10.8-3.527-10.8,2.892.684,3.208.312,2.048-2.163,2.048-2.163S493.859,359.081,495.519,360.713Z" transform="translate(-423.372 -299.008)"/><path class="w" d="M439.086,129.25l6.283,5.29,1.9.146.7.053,11.713.9,12.146-.935,1.807-.139,2.3-.176,4.817-4.85a84.573,84.573,0,0,0-6.4-6.439,13.082,13.082,0,0,0-3.1-2.18l-.138-.051a3.452,3.452,0,0,1-1.328-.974c-2.358-2.559-4.538-8.875-4.538-8.875s-10.4-5.656-9.145,1.764-4.676,5.586-4.676,5.586l-1.956.939-.773.373-1.971.95-4.446,2.147C438.8,124.473,439.086,129.25,439.086,129.25Z" transform="translate(-401.804 -98.968)"/><ellipse class="g" cx="9.541" cy="9.541" rx="9.541" ry="9.541" transform="translate(48.997 -0.708)"/><path class="g" d="M437.619,179.267h41.469v-.115l-.343-6.776a86.974,86.974,0,0,0-6.311-6.825L446.4,164.384l-1.211-1.444-4.387,2.276c-3.444,1.79-3.168,6.853-3.168,6.853S437.163,177.935,437.619,179.267Z" transform="translate(-399.805 -142.005)"/><path class="aa" d="M436.326,179.748l42.07-.415,1.845-.109s-.436-6.893-2.343-10.564-2.334-1.384-5.283-4.121l-26.054-1.162-1.212-1.437s-6.153,1.881-7.539,4.65S436.058,178.971,436.326,179.748Z" transform="translate(-400.01 -141.204)"/><path class="g" d="M512.8,143.625s-6.775,8.6-15.8-.177-1,19.576-1,19.576l19.474,2.3Z" transform="translate(-447.398 -125.109)"/><path class="aa" d="M512.8,145.625s-6.775,8.6-15.8-.177-1,19.577-1,19.577l19.474,2.3Z" transform="translate(-447.398 -126.702)"/><path class="g" d="M466.505,158.277l-.733,10.735-.785,3.572-.6,2.732s-1.531,21.012-1.094,22.063-.219,1.891-.311,2.45.092,1.963.02,2.593,0,.91,1.675.685,4.011-.616,4.011-.616,5.905.42,7.946-.279a24.227,24.227,0,0,1,5.905-.7s5.833.141,7.727-.069,2.917,2.242,4.156,1.54-1.457-7.493-2.331-9.456,1.166-6.934,1.166-6.934L490.633,172.6l-.584-3.171v-9.968l-.144-.048a3.605,3.605,0,0,1-1.387-.929l-.656,10.031-20.559.7V157.93" transform="translate(-420.632 -137.932)"/><path class="aa" d="M466.505,156.277l-.733,10.735-.785,3.572-.6,2.732s-1.531,21.012-1.094,22.063-.219,1.891-.311,2.45.092,1.963.02,2.593,0,.91,1.675.685,4.011-.616,4.011-.616,5.905.42,7.946-.279a24.22,24.22,0,0,1,5.905-.7s5.833.141,7.727-.069,2.917,2.242,4.156,1.54-1.457-7.493-2.331-9.456,1.166-6.934,1.166-6.934L490.633,170.6l-.584-3.171v-9.968l-.144-.048a3.605,3.605,0,0,1-1.387-.929l-.656,10.031-20.559.7V155.93" transform="translate(-420.632 -136.338)"/><path class="x" d="M454.433,9.719c4.143-5.837,15.293-8.163,18.428-2.75s4.974,3.356,7.042,7.167.426,5.811.137,8.133c-.651,5.194,5.083,9.8,4,14.925-.632,2.988-3.475,5.093-6.417,6.16-1.036.377-2.22.753-2.7,1.719-.217.422-.254.909-.458,1.335-.686,1.421-2.943,1.476-4.156.441a6.188,6.188,0,0,1-1.738-4.272c-.582-6.824,2.233-13.565,1.905-20.406-.1-2.069-.7-4.416-2.607-5.352-2.57-1.265-5.661.843-8.489.441a15.9,15.9,0,0,0-.812,9.976c.45,1.82,2.155,3.791,2.212,5.667a19.022,19.022,0,0,1-2.311,8.869,4.173,4.173,0,0,0-.58,1.541,3.623,3.623,0,0,0,.311,1.613c.776,2.026.62,2.827.772,4.984a.959.959,0,0,1-.163.721.947.947,0,0,1-.56.245c-2.346.39-4.375-1.628-5.52-3.654-1.276-2.238-4.46-4.86-4.617-7.414-.237-4.293,4.77-7.123,4.672-11.42C452.666,23.5,450.289,15.556,454.433,9.719Z" transform="translate(-407.431 -14.234)"/><path class="ab" d="M590.154,470.7l-8.364.276,1.2-6.393,6.407.628Z" transform="translate(-540.166 -382.366)"/><path class="y" d="M521.726,374.827c.557.742,2.712,2.079,2.921,2.525s2.781,1.783,4.1,2.006,5.493,1.19,6.259,1.709a57.962,57.962,0,0,0,7.847,2.217,20.992,20.992,0,0,0,2.376.457c1.252.073,14.951-4.9,14.951-4.9l-2.641-2.9-.146-.053c-.747-.27-4.2-1.515-6.113-2.108-2.157-.668-4.661-3.416-4.661-3.416s-3.685-1.337-4.172-1.486,1.252-5.2,1.252-5.2a107.23,107.23,0,0,1-11.126-2.191c-3.13-1.005-10.363-.633-11.683,3.3S521.16,374.085,521.726,374.827Z" transform="translate(-497.756 -299.807)"/><path class="ac" d="M445.38,451.719s1.61,1.748,3.223,1.6a71.014,71.014,0,0,1,7.251.437,11.215,11.215,0,0,1,2.84,1.711c1.318,1.079,2.018.219,2.148.035l.023-.035c.7,2.3,2.312.546,2.312.546s-.7-6.992-.486-7.866-1.385-2.375-1.385-2.375l-1.892-.5L454.621,444l-6.868,2.476Z" transform="translate(-385.48 -365.953)"/><path class="g" d="M445.38,449.84l1.579,9.673.026-.033c.781,2.171,2.574.516,2.574.516s-.779-6.611-.54-7.437-1.542-2.246-1.542-2.246Z" transform="translate(-371.842 -370.609)"/><path class="g" d="M517.146,316.66s-3.6,2.008-6.725,0" transform="translate(-452.652 -264.522)"/><path class="g" d="M573.366,328a2.232,2.232,0,0,1-2.656,0" transform="translate(-521.119 -273.558)"/><path class="g" d="M573.709,335.467s-2.521.458-3-.466" transform="translate(-521.463 -279.136)"/><path class="g" d="M572.652,350.058s-4.76-.741-5.942-1.728" transform="translate(-519.596 -289.754)"/><path class="g" d="M500.715,348.33s-2.681,1.74-4.675,1.661" transform="translate(-433.296 -289.754)"/><path class="g" d="M520.388,435.329a20.391,20.391,0,0,0,2.363.468c1.245.075,14.867-5.017,14.867-5.017l-2.627-2.964-.145-.055c-.415.322-.755.6-1,.807-1.143.99-2.247-.3-2.662-.3s-4.01,3.268-4.01,3.268-3.319.837-3.873,1.6-2.49.609-2.834,1.14A2.223,2.223,0,0,0,520.388,435.329Z" transform="translate(-475.159 -353.026)"/><path class="y" d="M407.945,365.105a14.446,14.446,0,0,0,5.341-.661c1.954-.867,8.444-2.867,10.329-1.462s6.422,2.646,4.328,8.234-3.072,5.733-3.072,5.733a7.793,7.793,0,0,0-1.675,1.83c-.628,1.03-6.491,3.381-7.957,3.381a11.736,11.736,0,0,0-7.676,2.646,15.288,15.288,0,0,1-6.91,2.942s-4.607,1.985-6.041,2.426-7.988,2.351-9.525,1.764-2.513-4.265-2.513-4.265-.7-3.308-.348-3.822,2.3-.368,2.86-1.1S389,381.205,389,381.205s3.62-3.162,4.039-3.162,1.533,1.248,2.686.293a60.961,60.961,0,0,1,7.226-4.851C405.6,372.014,407.945,365.105,407.945,365.105Z" transform="translate(-337.968 -300.97)"/><path class="g" d="M458.367,383.7a3.764,3.764,0,0,0-3.41.974c-1.665,1.5-7.266,4.513-7.266,4.513" transform="translate(-381.129 -317.857)"/><path class="g" d="M605.38,383.58s7.353,1.287,8.726,3.034" transform="translate(-568.913 -317.837)"/><path class="ac" d="M600.041,455.266h.326a51.661,51.661,0,0,1,5.914,0c.9.225,12.828,0,12.828,0l-2.332-.525s.865-3.285.316-3.558c0,0,3.12-2.226.767-3.729a6.8,6.8,0,0,0-4.888-.87l-5.906-2.167L605.934,444s-6.656.376-8.458,5.333S600.041,455.266,600.041,455.266Z" transform="translate(-572.238 -365.957)"/><path class="g" d="M658.017,454.7h.336c-1.992-1.637-6.5-6.622,6.892-10.255l-1.166-.394s-6.847.356-8.7,5.047S658.017,454.7,658.017,454.7Z" transform="translate(-630.122 -365.997)"/><ellipse class="y" cx="0.374" cy="0.374" rx="0.374" ry="0.374" transform="translate(39.833 82.199)"/><ellipse class="y" cx="0.374" cy="0.374" rx="0.374" ry="0.374" transform="translate(41.9 82.787)"/><path class="ad" d="M615.416,465.991A6.814,6.814,0,0,1,606.73,463" transform="translate(-570.497 -381.115)"/><path class="ad" d="M621.314,490.073a7.709,7.709,0,0,0-9.6-.125" transform="translate(-577.408 -401.306)"/><path class="ad" d="M479.925,483.549s-1.791-4.62-6.575-1.1" transform="translate(-407.897 -395.561)"/><path class="g" d="M483.71,186.836l-3.657-3.738s-14.181-1.051-14.768,4.4c0,0-5.027-6.462-15.6-5.023L445.21,186.5l12.365,6.135,12.016,4.713,8.85-4.479Z" transform="translate(-406.006 -157.405)"/><path class="ac" d="M483.71,187.836l-3.657-3.738s-14.181-1.051-14.768,4.4c0,0-5.027-6.462-15.6-5.023L445.21,187.5l12.365,6.135,12.016,4.713,8.85-4.479Z" transform="translate(-406.006 -158.202)"/><path class="g" d="M456.854,204.83l-1.679,19.935-17.8.887.772-19.85.015-.334Z" transform="translate(-377.532 -175.366)"/><path class="ae" d="M456.854,202.83l-1.679,19.935-17.8.887.772-19.85.015-.334Z" transform="translate(-377.532 -173.773)"/><path class="g" d="M549.71,202.83l18.514,2.715v19.9l-18.092-2.557Z" transform="translate(-511.728 -173.768)"/><path class="ae" d="M549.71,200.83l18.514,2.715v19.9l-18.092-2.557Z" transform="translate(-511.728 -172.174)"/><path class="h" d="M568.89,223.79l9.609,1.164-.21,3.569L568.9,227.4Z" transform="translate(-525.891 -190.516)"/><path class="w" d="M461.531,280.747l-1.033,2.659a3.56,3.56,0,0,1-3.215.63c-1.679-.63-1.823-1.129-3.742-3.49s-2.911-5.115-3.933-5.954-3.728-12.406,0-11.275,6.578,11.625,6.578,11.625a2.623,2.623,0,0,0,1.607.839c.95.071,2.851-.141,3.217.63S462.627,279.209,461.531,280.747Z" transform="translate(-384.739 -221.904)"/><path class="g" d="M524.6,210.687a8.106,8.106,0,0,0,6.167-1.287l-.887,19.174a6.925,6.925,0,0,1-5.28,1.46Z" transform="translate(-469.151 -179.006)"/><path class="af" d="M524.6,208.687a8.106,8.106,0,0,0,6.167-1.287l-.887,19.174a6.925,6.925,0,0,1-5.28,1.46Z" transform="translate(-469.151 -177.412)"/><path class="g" d="M560.72,196.209s-7.147-2.7-9.01-2.317" transform="translate(-504.621 -166.671)"/><path class="g" d="M473.35,194.029s6.907-2.17,8.062-1.554" transform="translate(-409.386 -165.485)"/><path class="g" d="M580.165,200.374s-4.77-2.25-6.495-1.18" transform="translate(-528.525 -170.697)"/><path class="g" d="M567.906,405.049a15.926,15.926,0,0,0-2.405-1.57,38.975,38.975,0,0,1-3.561-2.288" transform="translate(-513.881 -331.865)"/><path class="g" d="M447.25,316.66s3.1,2.567,4.037,2.793,1.509,2.228,1.509,2.228" transform="translate(-375.462 -264.511)"/><path class="w" d="M564.148,278.991l1.022,2.665a3.563,3.563,0,0,0,3.217.63c1.682-.63,2.151-.542,4.07-2.9s2.581-5.7,3.605-6.541,3.728-12.405,0-11.274-6.579,11.625-6.579,11.625a2.623,2.623,0,0,1-1.607.839c-.95.071-2.851-.141-3.217.63S563.052,277.459,564.148,278.991Z" transform="translate(-524.314 -220.51)"/><path class="g" d="M620.643,321.52s-2.082,1.292-2.073,2.837" transform="translate(-578.122 -268.389)"/><ellipse class="w" cx="9.541" cy="9.541" rx="9.541" ry="9.541" transform="translate(48.965 -1.153)"/><path class="x" d="M503.78,50.414a18.128,18.128,0,0,1-3.192-1.311c-2.41-.919-5.075-.289-7.514.539a9.093,9.093,0,0,1-2.867.677,2.833,2.833,0,0,1-2.524-1.354,3.3,3.3,0,0,1,.017-2.828,7.877,7.877,0,0,1,1.7-2.273c2.162-2.216,4.845-4.288,7.812-4.063a10.117,10.117,0,0,1,3.433,1.068,36.782,36.782,0,0,1,4.03,2.2c1,.63,2.853,1.472,3.428,2.623C509.408,48.288,505.818,50.762,503.78,50.414Z" transform="translate(-439.219 -43.891)"/><path class="g" d="M487.675,70.433a2.71,2.71,0,0,0,2.486,1.585,7.794,7.794,0,0,0,2.826-.777c2.4-.97,5.026-1.71,7.4-.632a15.585,15.585,0,0,0,3.143,1.533c1.618.328,4.223-1.49,4.505-3.8.318,2.671-2.7,4.96-4.505,4.6a16.477,16.477,0,0,1-3.143-1.533c-2.376-1.078-5-.338-7.4.632a7.481,7.481,0,0,1-2.826.777,2.73,2.73,0,0,1-2.486-1.585,3.869,3.869,0,0,1-.287-1.932A3.451,3.451,0,0,0,487.675,70.433Z" transform="translate(-438.901 -66.659)"/></g><g transform="translate(1128.041 274.471) rotate(-97)"><path class="d" d="M68.176,355.836s8.611-9.429,16.123-5.673c0,0-8.972,10.014-16.5,8.175Z" transform="translate(-18.726 -232.257)"/><path class="d" d="M77.485,318.339s9.936-11.549,15.717-7.691c0,0-7.321,8.957-16.421,9.853Z" transform="translate(-25.025 -204.607)"/><path class="d" d="M90.947,282.481s8.7-9.429,15.051-7.088c0,0-7.44,9.781-16.218,10.032Z" transform="translate(-34.143 -180.169)"/><path class="d" d="M105.878,246.31s9.614-9.029,13.794-7.44c0,0-6.939,10.032-14.212,9.447Z" transform="translate(-45.142 -154.681)"/><path class="d" d="M119.74,207.7s8.276-10.787,12.794-9.951c0,0-5.019,9.617-12.794,11.047Z" transform="translate(-55.158 -125.939)"/><path class="d" d="M133.012,167.259s7.315-8.267,11.268-8.249c0,0-5.774,11.047-11.57,10.946Z" transform="translate(-64.256 -98.797)"/><path class="d" d="M139.889,116.521,146.956,99.3s.352,15.567-7.966,20.416Z" transform="translate(-68.661 -56.914)"/><path class="d" d="M151.5,56.832s1.17-14.382.418-15.552c0,0,5.052,11.958-.466,21.906Z" transform="translate(-77.401 -16.217)"/><path class="d" d="M48.461,339.08S46.67,326.442,38.31,325.31c0,0,1.773,13.328,9.026,16.048Z" transform="translate(1.959 -215.445)"/><path class="d" d="M61.971,301.318s-.7-15.227-7.611-15.758c0,0,.233,11.558,6.831,17.914Z" transform="translate(-9.299 -187.563)"/><path class="d" d="M75.748,265.2s-2.06-12.662-8.658-14.209c0,0,.818,12.262,8,17.317Z" transform="translate(-18.228 -163.314)"/><path class="d" d="M98.5,229.038s-.069-13.191-4.1-15.128c0,0-2.5,11.943,2.932,16.812Z" transform="translate(-36.982 -137.305)"/><path class="d" d="M109.251,194.286s-.564-13.582-4.738-15.5c0,0-1.427,10.748,4.114,16.385Z" transform="translate(-44.361 -112.671)"/><path class="d" d="M126.327,158.229s-.024-11.047-3-13.639c0,0-2.962,12.1,1.448,15.86Z" transform="translate(-56.989 -88.682)"/><path class="d" d="M131.417,111.966l-2.9-18.386s-3.938,15.066,3.036,21.706Z" transform="translate(-60.538 -52.902)"/><path class="d" d="M125.593,61.684s-7.44-12.361-7.288-13.734c0,0,.791,12.955,10.151,19.407Z" transform="translate(-54.15 -20.896)"/><path class="d" d="M121.679,37.137s-7.022-17.556-10.2-18.977c0,0,10.032,5.1,10.784,18.475Z" transform="translate(-49.364)"/><path class="e" d="M131.461,113.209l-.481-.146c5.927-19.326,7.4-31.648,4.165-34.738l.343-.364C138.925,81.22,137.531,93.408,131.461,113.209Z" transform="translate(-63.042 -41.946)"/><path class="e" d="M76.261,237.953l-.711-.254c.63-1.771,1.308-3.568,2.018-5.338,6.186-15.418,11.453-29.761,14.83-40.772l.618-.3c-3.383,11.032-8.557,25.925-14.749,41.364C77.559,234.391,76.885,236.18,76.261,237.953Z" transform="translate(-24.162 -121.439)"/><path class="e" d="M51.55,449.028c.036-.1,3.661-10.822,6.189-29.12a268.582,268.582,0,0,0,2.442-33.366,316.441,316.441,0,0,0-2.914-44.581l-.212.651a292.426,292.426,0,0,1,.331,76.921c-2.5,18.133-6.085,28.733-6.12,28.839Z" transform="translate(-16.06 -227.124)"/></g><circle class="ag" cx="52" cy="52" r="52" transform="translate(424 32)"/><circle class="ah" cx="10.5" cy="10.5" r="10.5" transform="matrix(0.588, -0.809, 0.809, 0.588, 1138.667, 120.989)"/><circle class="ah" cx="30" cy="30" r="30" transform="matrix(0.052, 0.999, -0.999, 0.052, 770.485, 174.567)"/></g></g></svg>