<svg xmlns="http://www.w3.org/2000/svg" width="14" height="14" viewBox="0 0 14 14"><defs><style>.a{fill:#fff;}</style></defs><path class="a" d="M136,128a.8.8,0,0,1,.013,1.6h-5.461a.948.948,0,0,0-.948.932v8.912a.948.948,0,0,0,.932.948h8.912a.948.948,0,0,0,.948-.932v-5.45A.8.8,0,0,1,142,134v5.448A2.552,2.552,0,0,1,139.49,142h-8.938A2.552,2.552,0,0,1,128,139.49v-8.938A2.552,2.552,0,0,1,130.51,128H136Zm4.377,1.623a.8.8,0,0,1,0,1.134l-5.1,5.1h2.293a.8.8,0,1,1,0,1.6h-4.229a.8.8,0,0,1-.8-.8v-4.229a.8.8,0,1,1,1.6,0v2.293l.551-.551,4.546-4.546A.8.8,0,0,1,140.377,129.623Z" transform="translate(-128 -128)"/></svg>