<svg xmlns="http://www.w3.org/2000/svg" xmlns:xlink="http://www.w3.org/1999/xlink" width="13" height="13" viewBox="0 0 13 13"><defs><style>.a{fill:#85898c;}.b{clip-path:url(#a);}</style><clipPath id="a"><rect class="a" width="13" height="13"/></clipPath></defs><g transform="translate(-10 -134)"><g transform="translate(10 134)"><g class="b" transform="translate(0 0)"><path class="a" d="M17.312,138.719,12.32,143.7l.585.578L17.9,139.3Zm1.2,1.192-4.992,4.976,1.169,1.16,4.992-4.977Zm-1.772-1.772-.585-.58-4.992,4.977.585.581Zm6.022-1.3-2.366-2.354a.772.772,0,0,0-.575-.253.792.792,0,0,0-.585.253l-1.438,1.433,3.526,3.511L22.759,138a.846.846,0,0,0,0-1.159ZM10,147.208h2.5L10,144.72Zm5.846,0h5.846v-.817H15.846Zm0,0" transform="translate(-10 -134.23)"/></g></g></g></svg>