<svg xmlns="http://www.w3.org/2000/svg" xmlns:xlink="http://www.w3.org/1999/xlink" width="16" height="14" viewBox="0 0 16 14"><defs><style>.a{fill:#fff;}.b{clip-path:url(#a);}</style><clipPath id="a"><rect class="a" width="16" height="14"/></clipPath></defs><g class="b" transform="translate(0 0)"><path class="a" d="M-94.127,76.839a1.822,1.822,0,0,1-.863-.205l-6.574-3.62a.977.977,0,0,1-.556-.851.979.979,0,0,1,.557-.853l6.573-3.618a1.971,1.971,0,0,1,1.726,0l6.574,3.618a.98.98,0,0,1,.556.854.979.979,0,0,1-.556.852l-6.574,3.618a1.815,1.815,0,0,1-.863.206Zm-6.352-4.677,6.12,3.369a.541.541,0,0,0,.232.044.533.533,0,0,0,.232-.044l6.12-3.369-6.12-3.368a.543.543,0,0,0-.233-.044.525.525,0,0,0-.232.044Zm6.354,9.3c-2.716,0-5.474-.851-5.6-2.48a.609.609,0,0,1-.009-.1V74.072a.638.638,0,0,1,.644-.632.639.639,0,0,1,.644.632V78.8a.579.579,0,0,1,0,.069c.005.468,1.647,1.327,4.313,1.327s4.308-.859,4.313-1.327v-4.8a.638.638,0,0,1,.644-.632.638.638,0,0,1,.644.632v4.807c0,.017,0,.033,0,.049-.065,1.664-2.854,2.535-5.6,2.535Zm7.254-1.644a.639.639,0,0,1-.644-.632V74.169a.638.638,0,0,1,.644-.632.638.638,0,0,1,.644.632v5.018a.638.638,0,0,1-.644.632Zm0,0" transform="translate(102.118 -67.482)"/></g></svg>