<svg xmlns="http://www.w3.org/2000/svg" width="13" height="13" viewBox="0 0 13 13"><defs><style>.a{fill:#85898c;}</style></defs><path class="a" d="M11.815.565H9.88A1.184,1.184,0,0,0,8.866,0H4.134A1.182,1.182,0,0,0,3.12.565H1.176A1.152,1.152,0,0,0,0,1.692V11.874A1.154,1.154,0,0,0,1.177,13H11.823A1.154,1.154,0,0,0,13,11.874V1.692A1.157,1.157,0,0,0,11.815.565ZM1.181,11.874,1.176,1.7H2.954v.56a1.16,1.16,0,0,0,1.18,1.136H8.866a1.159,1.159,0,0,0,1.18-1.136V1.7l1.773,0,0,10.178-10.642,0ZM9.312,5.283a.61.61,0,0,0-.834.036l-2.8,2.93L4.529,7.02a.609.609,0,0,0-.834-.045.548.548,0,0,0-.048.8l1.583,1.7a.607.607,0,0,0,.437.189h0a.606.606,0,0,0,.436-.184L9.35,6.083a.548.548,0,0,0-.037-.8Z" transform="translate(0 0)"/></svg>