<svg xmlns="http://www.w3.org/2000/svg" xmlns:xlink="http://www.w3.org/1999/xlink" width="11.127" height="13" viewBox="0 0 11.127 13"><defs><style>.a{fill:#85898c;}.b{clip-path:url(#a);}</style><clipPath id="a"><rect class="a" width="11.127" height="13"/></clipPath></defs><g transform="translate(-51 -134)"><g transform="translate(51 134)"><g class="b" transform="translate(0)"><path class="a" d="M51,137.166a.884.884,0,0,1,.926-.926h1.788l.195-1.252a.8.8,0,0,1,.8-.6h3.705a.8.8,0,0,1,.787.6l.2,1.252h1.788a1.019,1.019,0,0,1,.926.926v.926H51Zm7.411-1.853H54.706v.926h3.705Zm-6.485,3.705h9.264a.94.94,0,0,1,.926.926l-.926,6.485a1.27,1.27,0,0,1-1.158.926H52.853a1.013,1.013,0,0,1-.926-.926L51,139.945a.94.94,0,0,1,.926-.926Zm6.485,6.716H59.8l.463-5.674H58.412Zm-2.779,0h1.853v-5.674H55.633Zm-2.316,0h1.39v-5.674H52.853Zm0,0" transform="translate(-51 -134.377)"/></g></g></g></svg>