<svg xmlns="http://www.w3.org/2000/svg" width="14.286" height="14.407" viewBox="0 0 14.286 14.407"><defs><style>.a{fill:#85898c;}</style></defs><path class="a" d="M11.885,5.162h2.281s.12,0,.12-.24a.526.526,0,0,0-.12-.36C14.046,4.442,11.285.48,11.285.48S11.165,0,10.8,0a.52.52,0,0,0-.48.24l-2.881,4.2a.58.58,0,0,0,0,.48.235.235,0,0,0,.24.24H9.845V9.244s-.48,3.121-1.561,3.121c0,0,3.722,0,3.722-3.241m-9.484.12H.12S0,9.244,0,9.6c0,.12.12.24.12.36C.24,10.085,3,14.046,3,14.046a.828.828,0,0,0,.6.36.52.52,0,0,0,.48-.24l2.881-4.2s.12-.12,0-.36c0-.36-.12-.36-.12-.36H4.562V5.162s.48-3.241,1.561-3.241c0,0-3.722,0-3.722,3.241"/></svg>