<svg xmlns="http://www.w3.org/2000/svg" width="13" height="13.001" viewBox="0 0 13 13.001"><defs><style>.a{fill:#85898c;}</style></defs><path class="a" d="M-1516.164-1435h0a6.813,6.813,0,0,1-1.758-.729,1.789,1.789,0,0,0-.367-1.982,1.744,1.744,0,0,0-1.25-.522,1.8,1.8,0,0,0-.731.155,6.738,6.738,0,0,1-.728-1.76,1.794,1.794,0,0,0,1.144-1.663,1.772,1.772,0,0,0-1.144-1.663,6.667,6.667,0,0,1,.728-1.76,1.772,1.772,0,0,0,.721.153,1.777,1.777,0,0,0,1.253-.52,1.762,1.762,0,0,0,.367-1.982,6.745,6.745,0,0,1,1.76-.728,1.792,1.792,0,0,0,1.663,1.144,1.792,1.792,0,0,0,1.662-1.144,6.723,6.723,0,0,1,1.76.728,1.787,1.787,0,0,0,.367,1.982,1.746,1.746,0,0,0,1.251.522,1.8,1.8,0,0,0,.73-.155,6.725,6.725,0,0,1,.728,1.76,1.772,1.772,0,0,0-1.144,1.663,1.783,1.783,0,0,0,1.15,1.663,6.484,6.484,0,0,1-.727,1.76,1.762,1.762,0,0,0-.722-.153,1.769,1.769,0,0,0-1.259.52,1.759,1.759,0,0,0-.367,1.982,6.8,6.8,0,0,1-1.76.728,1.774,1.774,0,0,0-1.664-1.144,1.771,1.771,0,0,0-1.663,1.144Zm1.664-9a2.5,2.5,0,0,0-2.5,2.5,2.5,2.5,0,0,0,2.5,2.5,2.5,2.5,0,0,0,2.5-2.5A2.5,2.5,0,0,0-1514.5-1444Z" transform="translate(1521 1448)"/></svg>