<svg xmlns="http://www.w3.org/2000/svg" width="16.199" height="16" viewBox="0 0 16.199 16"><defs><style>.a{fill:#2e8ae6;}</style></defs><path class="a" d="M100.539,93.866h1.738a1.467,1.467,0,0,1,1.294.819l.053.122a.242.242,0,0,1,.007.056l.019,1.7.081-.066a1.467,1.467,0,0,1,.405-.22l.112-.034.115-.026,1.709-.3A1.467,1.467,0,0,1,107.747,97l2.3,10.84a1.467,1.467,0,0,1-1.063,1.673l-.126.028-1.709.3a1.466,1.466,0,0,1-1.673-1.058l-.028-.124-1.7-7.918v7.606a1.467,1.467,0,0,1-1.259,1.453l-.1.011-.1,0h-1.736a1.467,1.467,0,0,1-1.463-1.362l0-.105V95.333a1.467,1.467,0,0,1,1.362-1.463l.1,0Zm6.55,6.194-2.233.378,1.769,8.007a.269.269,0,0,0,.071.139l.04.034a.268.268,0,0,0,.149.048l.053,0,1.708-.3a.271.271,0,0,0,.221-.239v-.049l-1.775-8.016ZM102.543,98.1h-2.272v10.247a.269.269,0,0,0,.215.263l.054.005h1.736a.268.268,0,0,0,.263-.216l.005-.053V98.1Zm3.852-1-.052-.006-.063.006-1.689.3a.268.268,0,0,0-.144.067l-.036.04a.269.269,0,0,0-.052.15l0,.053.274,1.531,2.239-.379-.274-1.545a.268.268,0,0,0-.07-.139l-.04-.034a.268.268,0,0,0-.1-.042Zm-4.121-2.038h-1.736a.269.269,0,0,0-.263.215l-.005.054V96.9h2.272v-1.57a.269.269,0,0,0-.045-.149l-.033-.041a.268.268,0,0,0-.19-.079ZM97.068,96.99a1.468,1.468,0,0,1,1.452,1.26l.011.1,0,.1v9.891a1.468,1.468,0,0,1-1.26,1.452l-.1.011-.1,0H95.333a1.468,1.468,0,0,1-1.451-1.26l-.011-.1,0-.1V98.457A1.468,1.468,0,0,1,95.126,97l.1-.011.1,0h1.736Zm.269,4.236H95.064v7.124a.271.271,0,0,0,.173.253l.044.011.052,0h1.736a.271.271,0,0,0,.253-.173l.011-.043,0-.052v-7.124Zm-.268-3.036H95.333a.271.271,0,0,0-.253.173l-.011.043,0,.052v1.57h2.272v-1.57a.269.269,0,0,0-.214-.263l-.054-.005Z" transform="translate(-93.866 -93.866)"/></svg>