<svg xmlns="http://www.w3.org/2000/svg" width="15.92" height="14" viewBox="0 0 15.92 14"><defs><style>.a{fill:#666;}</style></defs><path class="a" d="M92.5,116.381a.93.93,0,0,1-.308.691h0l-3.1,2.792h0a.93.93,0,0,1-1.243-1.384h0l1.3-1.169h-6.69a.93.93,0,0,1,0-1.861h6.69l-1.3-1.169h0A.93.93,0,1,1,89.1,112.9h0l3.1,2.791h0a.931.931,0,0,1,.308.692Zm-8.225-5.139H78.44V121.52h5.837a.93.93,0,0,1,0,1.861H77.511a.93.93,0,0,1-.929-.931V110.311a.93.93,0,0,1,.929-.931h6.766a.931.931,0,0,1,0,1.862Zm0,0" transform="translate(-76.582 -109.381)"/></svg>