<svg xmlns="http://www.w3.org/2000/svg" width="15" height="14" viewBox="0 0 15 14"><defs><style>.a{fill:#fff;}</style></defs><path class="a" d="M14.875,8.548a.605.605,0,0,1-.474.481,2.451,2.451,0,0,0-1.587,1.157,2.352,2.352,0,0,0-.221,1.923.578.578,0,0,1-.189.635,7.357,7.357,0,0,1-2.431,1.391.631.631,0,0,1-.663-.163,2.478,2.478,0,0,0-3.466-.135c-.047.044-.087.088-.134.135a.627.627,0,0,1-.458.193,1,1,0,0,1-.205,0,7.538,7.538,0,0,1-2.432-1.413.579.579,0,0,1-.189-.636A2.353,2.353,0,0,0,2.2,10.192,2.474,2.474,0,0,0,.61,9.051.627.627,0,0,1,.136,8.57,7.547,7.547,0,0,1,0,7.17,7.4,7.4,0,0,1,.136,5.786.622.622,0,0,1,.61,5.306,2.464,2.464,0,0,0,2.194,4.154a2.4,2.4,0,0,0,.224-1.927.593.593,0,0,1,.189-.636A7.282,7.282,0,0,1,5.047.207.617.617,0,0,1,5.7.362a2.517,2.517,0,0,0,1.745.777A2.522,2.522,0,0,0,9.239.471.8.8,0,0,1,9.318.4.614.614,0,0,1,9.973.244a7.36,7.36,0,0,1,2.439,1.384.593.593,0,0,1,.189.636,2.38,2.38,0,0,0,.213,1.923A2.48,2.48,0,0,0,14.41,5.3a.6.6,0,0,1,.466.481A6.8,6.8,0,0,1,15,7.173a7.309,7.309,0,0,1-.126,1.376ZM11.062,2.615a5.933,5.933,0,0,0-1.3-.731,3.6,3.6,0,0,1-4.508,0,5.9,5.9,0,0,0-1.3.732A3.4,3.4,0,0,1,1.7,6.463a4.967,4.967,0,0,0,0,1.478A3.482,3.482,0,0,1,3.981,11.78a5.522,5.522,0,0,0,1.271.74,3.6,3.6,0,0,1,4.508,0,6.205,6.205,0,0,0,1.295-.74,3.394,3.394,0,0,1,2.258-3.839,4.646,4.646,0,0,0,.055-.74,5.8,5.8,0,0,0-.055-.74,3.461,3.461,0,0,1-1.839-1.517,3.3,3.3,0,0,1-.411-2.333Zm-.932,5.513a.69.69,0,0,1-.505.106.716.716,0,0,1-.458-.292.637.637,0,0,1-.095-.519,1.579,1.579,0,0,0-1.291-1.83A1.6,1.6,0,0,0,5.923,6.862,1.578,1.578,0,0,0,7.21,8.7a1.644,1.644,0,0,0,.308.025,1.577,1.577,0,0,0,.284,0,.686.686,0,0,1,.839.476.673.673,0,0,1-.484.826.894.894,0,0,1-.118.019,2.776,2.776,0,0,1-.521,0A2.892,2.892,0,1,1,10.47,7.164a2.764,2.764,0,0,1-.047.51.674.674,0,0,1-.292.455Z" transform="translate(-0.002 -0.17)"/></svg>