<svg xmlns="http://www.w3.org/2000/svg" width="12.228" height="13.118" viewBox="0 0 12.228 13.118"><defs><style>.a{fill:#85898c;}</style></defs><path class="a" d="M42.847,4.4A5.026,5.026,0,0,1,47.82,9.486a5.027,5.027,0,0,1-4.973,5.086H40.69a.344.344,0,0,1-.342-.378v-.86a.387.387,0,0,1,.368-.4h2.13a3.445,3.445,0,0,0,0-6.888H39.191a1.4,1.4,0,0,0-.289.027c-.21.108-.158.269.026.458l1.29,1.318a.4.4,0,0,1-.027.566L39.612,9a.339.339,0,0,1-.5.027l-3.42-3.5a.346.346,0,0,1,0-.485l3.393-3.471a.378.378,0,0,1,.554,0l.551.566a.4.4,0,0,1,0,.566L38.9,4.024c-.159.162-.159.35.105.35h.184l3.657.027h0Zm0,0" transform="translate(-35.592 -1.455)"/></svg>