<svg xmlns="http://www.w3.org/2000/svg" width="67.671" height="72" viewBox="0 0 67.671 72"><defs><style>.a{fill:#4eb7fe;}.b{fill:#f44336;}.c{fill:#ffca28;}.d{fill:#1fdb7e;}.e{fill:#39be7c;}.f{fill:#fff;}</style></defs><g transform="translate(-72 -44)"><path class="a" d="M870.836,522.875l-6.036,5.06V508h7.255v12.254A3.667,3.667,0,0,1,870.836,522.875Z" transform="translate(-732.383 -428.64)"/><path class="b" d="M872.055,362.639l-7.255,6.036V348.8h7.255Z" transform="translate(-732.383 -281.572)"/><path class="c" d="M872.055,160.4l-7.255,6.1V144h7.255Z" transform="translate(-732.383 -92.379)"/><path class="d" d="M840.84,55.157,832,62.412,834.5,44h4.694a2.576,2.576,0,0,1,2.561,2.561v6.645A2.588,2.588,0,0,1,840.84,55.157Z" transform="translate(-702.083)"/><path class="d" d="M130.039,116H75.414A3.408,3.408,0,0,1,72,112.586V47.414A3.408,3.408,0,0,1,75.414,44h58.039v68.525A3.422,3.422,0,0,1,130.039,116Z" transform="translate(0)"/><path class="e" d="M75.414,44A3.408,3.408,0,0,0,72,47.414v65.111a3.408,3.408,0,0,0,3.414,3.414h7.133V44Z" transform="translate(0)"/><rect class="f" width="29" height="5" rx="2.5" transform="translate(93 62)"/><rect class="f" width="29" height="5" rx="2.5" transform="translate(93 75)"/></g></svg>