<svg xmlns="http://www.w3.org/2000/svg" width="32" height="32" viewBox="0 0 32 32"><defs><style>.a{fill:#2e8ae6;}</style></defs><path class="a" d="M16,32A16,16,0,1,1,32,16,16,16,0,0,1,16,32ZM16,5.518a4.972,4.972,0,1,0,4.719,5.212c0-.081.006-.163.006-.245A4.858,4.858,0,0,0,16,5.514ZM24.267,21.9a5.092,5.092,0,0,0-4.96-5.214h-.619A6.16,6.16,0,0,1,16,17.311a6.24,6.24,0,0,1-2.7-.621h-.619A5.092,5.092,0,0,0,7.723,21.9v1.614A1.813,1.813,0,0,0,9.486,25.38H22.5a1.813,1.813,0,0,0,1.771-1.855V21.9Z"/></svg>