<!-- Generated by IcoMoon.io -->
<svg version="1.1" xmlns="http://www.w3.org/2000/svg" width="32" height="32" viewBox="0 0 32 32">
<title>bofang1</title>
<path d="M16 0c-8.837 0-16 7.163-16 16s7.163 16 16 16c8.837 0 16-7.163 16-16s-7.163-16-16-16v0zM16 30.4c-7.953 0-14.4-6.447-14.4-14.4s6.447-14.4 14.4-14.4 14.4 6.447 14.4 14.4c0 7.953-6.447 14.4-14.4 14.4v0zM23.263 14.866c-2.49-1.694-7.005-4.23-9.576-5.801-1.054-0.665-1.94-0.398-2.025 0.776-0.062 3.144 0 9.211 0 12.41 0.053 1.192 1.104 1.349 2.016 0.87 2.568-1.556 6.981-4.23 9.562-5.793-0.017-0.010 1.96-1.097 0.022-2.462v0z"></path>
</svg>
