<!-- Generated by IcoMoon.io -->
<svg version="1.1" xmlns="http://www.w3.org/2000/svg" width="32" height="32" viewBox="0 0 32 32">
<title>ck</title>
<path d="M16 25.6c-10.288 0-14.4-9.6-14.4-9.6s4.112-9.6 14.4-9.6 14.4 9.6 14.4 9.6-4.112 9.6-14.4 9.6zM16 10.24c-0.046-0.001-0.101-0.002-0.156-0.002-2.199 0-4.136 1.123-5.269 2.827l-0.015 0.023c-0.527 0.826-0.84 1.832-0.84 2.912s0.313 2.086 0.853 2.934l-0.013-0.022c1.147 1.727 3.085 2.85 5.284 2.85 0.055 0 0.11-0.001 0.164-0.002h-0.008c3.181 0 5.76-2.579 5.76-5.76s-2.579-5.76-5.76-5.76v0zM16 19.712c-2.030-0.032-3.664-1.685-3.664-3.72 0-2.054 1.665-3.72 3.72-3.72s3.72 1.665 3.72 3.72c0 0.003 0 0.005 0 0.008v0c-0.015 2.053-1.683 3.712-3.739 3.712-0.013 0-0.026 0-0.039 0h0.002z"></path>
</svg>
