<!-- Generated by IcoMoon.io -->
<svg version="1.1" xmlns="http://www.w3.org/2000/svg" width="32" height="32" viewBox="0 0 32 32">
<title>dx01</title>
<path d="M16 27.2c-6.186 0-11.2-5.014-11.2-11.2s5.014-11.2 11.2-11.2c6.186 0 11.2 5.014 11.2 11.2v0c0 0.002 0 0.005 0 0.008 0 6.181-5.011 11.192-11.192 11.192-0.003 0-0.006 0-0.008 0v0zM16 7.584c-4.648 0-8.416 3.768-8.416 8.416s3.768 8.416 8.416 8.416v0-0.016c0.167 0.013 0.363 0.020 0.56 0.020 4.349 0 7.875-3.526 7.875-7.875 0-0.192-0.007-0.382-0.020-0.57l0.001 0.025c0-4.648-3.768-8.416-8.416-8.416v0zM16 21.584c0 0 0 0 0 0-3.087 0-5.591-2.498-5.6-5.583v-0.001c0-0.005 0-0.010 0-0.016 0-3.093 2.507-5.6 5.6-5.6s5.6 2.507 5.6 5.6c0 3.093-2.507 5.6-5.6 5.6v0z"></path>
</svg>
