<!-- Generated by IcoMoon.io -->
<svg version="1.1" xmlns="http://www.w3.org/2000/svg" width="32" height="32" viewBox="0 0 32 32">
<title>fanhui</title>
<path d="M16 32c-8.837 0-16-7.163-16-16s7.163-16 16-16c8.837 0 16 7.163 16 16v0c-0.012 8.832-7.168 15.988-15.999 16h-0.001zM16 2.419c-7.5 0-13.581 6.080-13.581 13.581s6.080 13.581 13.581 13.581c7.5 0 13.581-6.080 13.581-13.581v0c-0.009-7.497-6.084-13.572-13.58-13.581h-0.001zM22.042 17.203h-9.165l3.84 3.853c0.22 0.222 0.356 0.527 0.356 0.865 0 0.163-0.032 0.319-0.090 0.462l0.003-0.008c-0.188 0.438-0.616 0.74-1.113 0.742v0c-0.335-0.001-0.639-0.138-0.857-0.358v0l-5.914-5.901c-0.214-0.222-0.346-0.524-0.346-0.858s0.132-0.636 0.346-0.858v0l5.914-5.901c0.218-0.218 0.519-0.353 0.851-0.353 0.665 0 1.204 0.539 1.204 1.204 0 0.332-0.135 0.633-0.353 0.851v0l-3.84 3.853h9.165c0.665 0 1.203 0.539 1.203 1.203s-0.539 1.203-1.203 1.203v0z"></path>
</svg>
