<!-- Generated by IcoMoon.io -->
<svg version="1.1" xmlns="http://www.w3.org/2000/svg" width="32" height="32" viewBox="0 0 32 32">
<title>fz</title>
<path d="M23.2 23.2v-12.8c-0.187-0.797-0.803-1.413-1.586-1.597l-0.014-0.003h-11.2c0.016-0.048 0-1.552 0-1.6-0.001-0.017-0.001-0.037-0.001-0.057 0-0.853 0.691-1.544 1.544-1.544 0.020 0 0.040 0 0.060 0.001h11.197c0.108-0.014 0.233-0.023 0.36-0.023 1.581 0 2.862 1.282 2.862 2.862 0 0.127-0.008 0.252-0.024 0.375l0.002-0.014v11.2c-0.005 1.765-1.435 3.195-3.199 3.2h-0.001zM21.6 13.6v9.6c0 2.256-0.8 3.2-3.2 3.2h-9.6c-2.832 0-3.2-1.248-3.2-3.2v-9.6c-0.008-0.083-0.013-0.18-0.013-0.277 0-1.621 1.314-2.936 2.936-2.936 0.098 0 0.194 0.005 0.289 0.014l-0.012-0.001h9.6c2.88 0 3.040 1.536 3.2 3.2zM16.8 16.8h-1.6v-1.6c0-0.884-0.716-1.6-1.6-1.6s-1.6 0.716-1.6 1.6v0 1.6h-1.6c-0.884 0-1.6 0.716-1.6 1.6s0.716 1.6 1.6 1.6h1.6v1.6c0 0.884 0.716 1.6 1.6 1.6s1.6-0.716 1.6-1.6v0-1.6h1.6c0.884 0 1.6-0.716 1.6-1.6s-0.716-1.6-1.6-1.6v0z"></path>
</svg>
