<!-- Generated by IcoMoon.io -->
<svg version="1.1" xmlns="http://www.w3.org/2000/svg" width="32" height="32" viewBox="0 0 32 32">
<title>gj</title>
<path d="M25.856 25.105c0.003 0 0.006 0 0.010 0 0.31 0 0.562 0.249 0.566 0.558v0.98c-0.005 0.309-0.256 0.558-0.566 0.558-0.003 0-0.007 0-0.010 0h-19.626c0 0-0.001 0-0.001 0-0.309 0-0.561-0.249-0.564-0.558v-0.98c0.004-0.309 0.255-0.558 0.564-0.558 0 0 0.001 0 0.001 0h2.155c0.002 0 0.004 0 0.006 0 0.131 0 0.237-0.105 0.239-0.236v-7.983c-0.001-0.053-0.002-0.115-0.002-0.178 0-4.098 3.322-7.421 7.421-7.421s7.421 3.322 7.421 7.421c0 0.063-0.001 0.125-0.002 0.187v-0.009 7.983c0.001 0.13 0.105 0.235 0.235 0.236h2.155zM19.019 16.825h-2.197c-0.001 0-0.002 0-0.003 0-0.13 0-0.235-0.105-0.235-0.235 0-0.013 0.001-0.026 0.003-0.039v0.001l0.448-2.773v-0.037c0-0.142 0-0.142-0.16-0.142h-0.053c-0.076 0-0.144 0.032-0.192 0.083v0l-3.659 4.202c-0.032 0.042-0.052 0.095-0.053 0.152v0c0.001 0.13 0.105 0.235 0.235 0.236h1.952c0.003 0 0.006 0 0.009 0 0.127 0 0.229 0.103 0.229 0.229 0 0.015-0.001 0.030-0.004 0.044v-0.001l-0.437 2.773c-0.007 0.008-0.011 0.019-0.011 0.031 0 0.002 0 0.004 0 0.006v0c0 0.143 0.011 0.143 0.171 0.143h0.053c0.071 0 0.136-0.030 0.181-0.079v0l3.819-4.204c0.040-0.043 0.064-0.101 0.064-0.164 0-0.001 0-0.001 0-0.002v0c-0.011-0.123-0.032-0.225-0.16-0.225zM15.221 4.8h1.248c0 0 0.001 0 0.001 0 0.309 0 0.561 0.249 0.564 0.558v1.789c-0.004 0.309-0.255 0.558-0.564 0.558 0 0-0.001 0-0.001 0h-1.003c-0.003 0-0.006 0-0.009 0-0.31 0-0.562-0.249-0.567-0.557v-2.027c0.017-0.173 0.157-0.308 0.33-0.32h0.001zM9.451 6.734l1.301-0.794 0.032-0.028c0.16-0.128 0.309 0.007 0.459 0.155 0.018 0.013 0.032 0.029 0.042 0.047v0.001l1.12 1.89 0.032 0.033c0.030 0.048 0.048 0.106 0.048 0.168 0 0.132-0.080 0.246-0.195 0.295l-0.002 0.001c-0.032 0.009-0.061 0.023-0.086 0.040l0.001-0.001-1.269 0.931c-0.149 0.155-0.309 0.014-0.469-0.139l-0.032-0.048-1.141-1.9c0-0.001 0-0.001 0-0.002 0-0.007-0.004-0.013-0.011-0.015v0c-0.036-0.066-0.057-0.144-0.057-0.228 0-0.173 0.090-0.324 0.225-0.411l0.002-0.001zM5.333 11.407l0.8-1.255 0.032-0.062c0.083-0.087 0.199-0.141 0.328-0.141 0.031 0 0.062 0.003 0.091 0.009l-0.003-0.001c0 0 0 0 0 0 0.047 0 0.091 0.012 0.129 0.033l-0.001-0.001 1.888 1.078c0.024 0.015 0.045 0.032 0.064 0.050v0c0.081 0.091 0.13 0.211 0.13 0.342 0 0.016-0.001 0.031-0.002 0.047v-0.002c0.001 0.006 0.001 0.014 0.001 0.021 0 0.035-0.008 0.068-0.023 0.098l0.001-0.001-0.779 1.363c-0.013 0.026-0.031 0.048-0.053 0.065v0c-0.099 0.081-0.228 0.13-0.367 0.13-0.010 0-0.019 0-0.029-0.001h0.001c0 0 0 0 0 0-0.047 0-0.091-0.012-0.129-0.033l0.001 0.001-1.877-1.076c-0.029-0.014-0.054-0.034-0.074-0.057v0c-0.083-0.149-0.132-0.327-0.132-0.517 0-0.032 0.001-0.063 0.004-0.094v0.004zM23.467 11.087l1.952-1.116c0.017-0.007 0.031-0.016 0.043-0.028v0c0.149-0.126 0.299 0 0.448 0.149 0.019 0.017 0.033 0.037 0.042 0.061v0.001l0.64 1.236c0.003 0.014 0.011 0.026 0.021 0.034v0c0.030 0.048 0.048 0.106 0.048 0.168 0 0.132-0.080 0.246-0.195 0.295l-0.002 0.001c-0.024 0.006-0.046 0.014-0.065 0.025l0.001-0.001-1.92 1.095c-0.017 0.006-0.031 0.016-0.043 0.028v0c-0.149 0.126-0.299 0-0.448-0.149-0.018-0.017-0.033-0.037-0.042-0.061v-0.001l-0.619-1.199c-0.016-0.026-0.025-0.057-0.025-0.090 0-0.013 0.001-0.025 0.004-0.037v0.001c0.008-0.158 0.067-0.302 0.161-0.415l-0.001 0.001zM19.669 8.187l1.141-1.904c0.013-0.024 0.031-0.045 0.053-0.060h0.001c0.096-0.082 0.222-0.131 0.36-0.131 0.012 0 0.024 0 0.037 0.001h-0.002c0.002 0 0.005 0 0.008 0 0.040 0 0.078 0.009 0.111 0.025l-0.002-0.001 1.227 0.601c0.030 0.014 0.055 0.033 0.074 0.057v0c0.080 0.094 0.129 0.217 0.129 0.352 0 0.010 0 0.020-0.001 0.029v-0.001c0 0 0 0 0 0.001 0 0.044-0.012 0.086-0.033 0.122l0.001-0.001-1.099 1.847c-0.017 0.022-0.034 0.042-0.053 0.061v0c-0.097 0.081-0.223 0.131-0.361 0.131-0.008 0-0.016 0-0.024-0.001h0.001c-0.002 0-0.005 0-0.008 0-0.048 0-0.094-0.014-0.132-0.037l0.001 0.001-1.216-0.747c-0.025-0.013-0.053-0.023-0.084-0.028h-0.001c-0.149-0.023-0.277-0.172-0.128-0.32z"></path>
</svg>
