<!-- Generated by IcoMoon.io -->
<svg version="1.1" xmlns="http://www.w3.org/2000/svg" width="32" height="32" viewBox="0 0 32 32">
<title>jdpj</title>
<path d="M8.656 8.656h3.488v5.6h5.6v5.6h5.6v3.488h-14.688v-14.688zM5.6 7.634v16.726c0 0 0 0.001 0 0.002 0 1.123 0.909 2.034 2.032 2.037h16.736c1.123-0.002 2.032-0.912 2.032-2.035 0-0.001 0-0.001 0-0.002v0-5.526c0 0 0-0.001 0-0.002 0-1.123-0.909-2.033-2.032-2.035h-3.568v-3.563c0 0 0-0.001 0-0.002 0-1.123-0.909-2.033-2.032-2.035h-3.568v-3.562c0 0 0-0.001 0-0.002 0-1.123-0.909-2.034-2.032-2.037h-5.536c-1.123 0.003-2.032 0.914-2.032 2.037 0 0.001 0 0.001 0 0.002v0z"></path>
</svg>
