<!-- Generated by IcoMoon.io -->
<svg version="1.1" xmlns="http://www.w3.org/2000/svg" width="32" height="32" viewBox="0 0 32 32">
<title>js</title>
<path d="M22.080 10.848c0.075 0.043 0.149 0.085 0.235 0.139l0.224 0.139 0.011 0.256c0.004 0.067 0.006 0.146 0.006 0.226 0 0.583-0.112 1.139-0.315 1.65l0.011-0.030c-0.173 0.421-0.479 0.758-0.865 0.966l-0.010 0.005c-0.245 0.883-0.587 1.656-1.025 2.364l0.022-0.039c-0.487 0.781-1.218 1.37-2.084 1.666l-0.028 0.008c-0.597 0.132-1.282 0.207-1.985 0.207-0.191 0-0.381-0.006-0.569-0.017l0.026 0.001c-0.084 0.003-0.182 0.005-0.281 0.005-0.749 0-1.475-0.099-2.166-0.285l0.058 0.013c-0.816-0.363-1.475-0.957-1.909-1.698l-0.011-0.019c-0.356-0.626-0.665-1.352-0.888-2.114l-0.018-0.073c-0.404-0.205-0.718-0.539-0.891-0.948l-0.005-0.012c-0.201-0.478-0.317-1.034-0.317-1.617 0-0.092 0.003-0.183 0.009-0.273l-0.001 0.012v-0.256l0.235-0.149c0.053-0.032 0.117-0.064 0.171-0.096-0.256-2.965-0.16-4.053 1.045-5.312 2.336-1.749 7.712-1.685 10.080-0.096 1.621 1.397 1.728 2.965 1.237 5.376zM17.163 19.413l0.032 0.672-0.437 0.672 0.608 3.68 2.507-4.939 3.819-0.117c1.973 1.707 3.243 5.728 2.923 8.352h-21.28c0.053-2.304 0.512-6.24 3.019-8.245l3.456 0.032 3.232 4.875 0.608-3.648-0.448-0.661 0.043-0.672c0.287-0.020 0.622-0.032 0.96-0.032s0.673 0.012 1.005 0.034l-0.045-0.002zM20.011 9.803c-0.64 0.16-1.375 0.252-2.131 0.252-1.235 0-2.413-0.246-3.487-0.691l0.060 0.022c-0.693-0.352-1.696 0.373-2.517 0.299-0.247 0.434-0.439 0.937-0.549 1.47l-0.006 0.034-0.096 0.448-0.48-0.043c-0.022-0.002-0.047-0.004-0.072-0.004-0.077 0-0.152 0.013-0.221 0.037l0.005-0.001c-0.049 0.010-0.091 0.025-0.132 0.044l0.004-0.002c0 0.016 0 0.034 0 0.053 0 0.415 0.082 0.812 0.232 1.173l-0.007-0.020c0.086 0.24 0.272 0.426 0.506 0.51l0.006 0.002 0.288 0.085 0.085 0.256c0.221 0.84 0.52 1.574 0.9 2.257l-0.025-0.049c0.324 0.572 0.812 1.019 1.4 1.283l0.019 0.008c0.511 0.125 1.099 0.197 1.703 0.197 0.091 0 0.183-0.002 0.273-0.005h-0.013c0.139 0.007 0.302 0.012 0.466 0.012 0.593 0 1.173-0.055 1.736-0.159l-0.058 0.009c0.66-0.236 1.198-0.678 1.55-1.246l0.007-0.013c0.4-0.663 0.728-1.429 0.946-2.241l0.014-0.063 0.064-0.245 0.277-0.085c0.235-0.095 0.416-0.283 0.499-0.517l0.002-0.006c0.135-0.345 0.213-0.744 0.213-1.161 0-0.008 0-0.016 0-0.024v0.001c-0.034-0.019-0.073-0.034-0.115-0.042h-0.002c-0.079-0.027-0.169-0.043-0.264-0.043-0.005 0-0.009 0-0.014 0h0.001l-0.469 0.032-0.096-0.427c-0.107-0.527-0.281-0.994-0.515-1.424l0.013 0.027z"></path>
</svg>
