<!-- Generated by IcoMoon.io -->
<svg version="1.1" xmlns="http://www.w3.org/2000/svg" width="32" height="32" viewBox="0 0 32 32">
<title>js1</title>
<path d="M21.904 26.667h-4.118c-0.003 0-0.006 0-0.010 0-0.416 0-0.754-0.338-0.754-0.754 0-0.005 0-0.009 0-0.014v0.001-6.593h-2.358v6.596c0 0.004 0 0.010 0 0.015 0 0.415-0.337 0.752-0.752 0.752-0.004 0-0.008 0-0.011 0h-4.053c-1.267-0.004-2.292-1.032-2.293-2.299v-6.731h-0.427c-0.002 0-0.005 0-0.008 0-0.987 0-1.787-0.8-1.787-1.787 0-0.005 0-0.011 0-0.016v0.001c0-0.008 0-0.018 0-0.028 0-0.471 0.19-0.897 0.498-1.205v0l7.738-8.229c0.61-0.643 1.47-1.043 2.424-1.043 0.887 0 1.694 0.346 2.292 0.911l-0.002-0.002c0.027 0.060 0.074 0.106 0.132 0.133l0.002 0.001 7.738 8.229c0.316 0.321 0.511 0.763 0.511 1.249 0 0.984-0.798 1.782-1.782 1.782-0.008 0-0.017 0-0.025 0h-0.663v6.731c-0.001 1.267-1.027 2.294-2.293 2.299v0z"></path>
</svg>
