<!-- Generated by IcoMoon.io -->
<svg version="1.1" xmlns="http://www.w3.org/2000/svg" width="32" height="32" viewBox="0 0 32 32">
<title>jt</title>
<path d="M20.528 16.576l-7.632 7.152c-0.173 0.169-0.409 0.273-0.67 0.273-0.379 0-0.707-0.22-0.863-0.539l-0.002-0.006c-0.047-0.1-0.075-0.217-0.075-0.341 0-0.239 0.103-0.453 0.266-0.602l0.001-0.001 6.976-6.544-7.056-6.48c-0.17-0.152-0.276-0.372-0.276-0.616s0.106-0.464 0.275-0.615l0.001-0.001c0.175-0.159 0.408-0.256 0.664-0.256s0.489 0.097 0.665 0.257l-0.001-0.001 7.712 7.072v0.016c0.174 0.152 0.284 0.375 0.284 0.623 0 0.241-0.103 0.457-0.267 0.608l-0.001 0.001z"></path>
</svg>
