<!-- Generated by IcoMoon.io -->
<svg version="1.1" xmlns="http://www.w3.org/2000/svg" width="32" height="32" viewBox="0 0 32 32">
<title>laoshi1</title>
<path d="M17.887 20.25v-1.736h12.458v1.736h-5.23v11.75h-1.865l0.088-11.748h-5.451zM15.272 0c-4.293 0.076-7.748 3.553-7.79 7.847v0.004c0 0.027 0 0.058 0 0.090 0 2.493 1.133 4.722 2.911 6.199l0.013 0.011 0.552 0.339-0.563 0.214c-5.092 1.946-8.658 6.756-8.739 12.409v0.1c0 0.003 0 0.007 0 0.011 0 2.068 1.673 3.745 3.74 3.752h0.012l10.13 0.125c0.032 0.004 0.069 0.007 0.106 0.007 0.445 0 0.806-0.359 0.81-0.803v0c0.004-0.031 0.007-0.067 0.007-0.104 0-0.433-0.351-0.785-0.785-0.785-0.033 0-0.066 0.002-0.098 0.006h0.004l-10.141-0.127c-1.103-0.126-1.97-0.993-2.096-2.086l-0.001-0.011v-0.053c0.077-5.924 4.855-11.034 10.516-11.277l1.556 0.018c1.582-0.016 3.049-0.493 4.278-1.303l-0.030 0.018 0.441-0.34c1.887-1.47 3.090-3.743 3.090-6.296 0-4.383-3.543-7.939-7.921-7.96h-0.002zM15.327 14.193c-3.425-0.032-6.19-2.816-6.19-6.245 0-3.449 2.796-6.246 6.246-6.246s6.246 2.796 6.246 6.246c0 0.030 0 0.060-0.001 0.090v-0.005c-0.055 3.413-2.834 6.16-6.256 6.16-0.016 0-0.032 0-0.047 0h0.002z"></path>
</svg>
