<!-- Generated by IcoMoon.io -->
<svg version="1.1" xmlns="http://www.w3.org/2000/svg" width="32" height="32" viewBox="0 0 32 32">
<title>lskb</title>
<path fill="#808080" d="M30.042 32.282l-0.282 0.565h-28.838l0.019-0.866c0.030-2.12 0.317-4.158 0.83-6.105l-0.039 0.176c0.535-2.33 1.724-4.327 3.362-5.848l0.007-0.007 0.245-0.207h0.32l3.821-0.038v1.751l-3.501-0.038c-1.246 1.293-2.156 2.919-2.584 4.731l-0.014 0.069c-0.366 1.385-0.615 2.996-0.694 4.652l-0.002 0.054 25.656-0.019c-0.058-1.881-0.425-3.658-1.054-5.307l0.037 0.112c-0.515-1.676-1.341-3.123-2.42-4.342l0.011 0.012h-4.009v-1.675h4.574l0.339 0.113c1.428 1.467 2.513 3.276 3.12 5.292l0.024 0.092c0.688 1.822 1.087 3.928 1.087 6.127 0 0.248-0.005 0.495-0.015 0.741l0.001-0.035zM15.774 30.042l-2.278-1.694 1.468-5.816-0.546-0.904 0.038-0.904c0.367-0.036 0.793-0.056 1.224-0.056s0.857 0.020 1.277 0.061l-0.054-0.004 0.038 0.904-0.546 0.904 1.656 5.816-2.278 1.694zM22.381 13.158c-0.455 1.773-1.305 3.307-2.454 4.563l0.007-0.008c-1.169 1.159-2.682 1.972-4.374 2.27l-0.050 0.007-0.151 0.038-0.132-0.038c-1.69-0.249-3.166-1.022-4.292-2.146v0c-1.211-1.262-2.114-2.83-2.581-4.575l-0.017-0.074c-0.53-0.3-0.937-0.762-1.161-1.319l-0.006-0.018c-0.256-0.674-0.404-1.453-0.404-2.266 0-0.117 0.003-0.233 0.009-0.348l-0.001 0.016v-0.395l0.339-0.226c0.1-0.067 0.217-0.136 0.338-0.198l0.020-0.009c-0.527-3.125-0.395-5.779 1.544-7.548 1.525-1.092 4.216-0.339 6.701-0.696 7.040-1.035 7.002 2.447 7.699 8.376 0.050 0.019 0.094 0.045 0.133 0.076l-0.001-0.001 0.339 0.226v0.395c0.005 0.094 0.008 0.205 0.008 0.316 0 0.798-0.141 1.563-0.399 2.271l0.015-0.046c-0.217 0.577-0.612 1.045-1.117 1.349l-0.012 0.007zM21.534 10.033l-0.094-0.339h-0.245l-0.132-0.678c-0.094-0.527-0.245-3.256-0.452-3.689-0.094 0.013-0.203 0.020-0.313 0.020-0.614 0-1.176-0.221-1.611-0.587l0.004 0.003-0.301 0.96-0.508-0.075 0.056-0.584-0.527 0.847-0.471-0.094 0.471-1.242c-2.504 1.694-6.795 1.6-7.36 0.847-0.074 0.113-0.127 0.246-0.15 0.389l-0.001 0.006c-0.113 0.452-0.245 3.294-0.358 3.746l-0.038 0.169h-0.019c-0.019 0.075-0.056 0.169-0.075 0.226-0.135-0.033-0.29-0.052-0.449-0.052-0.209 0-0.411 0.033-0.601 0.093l0.014-0.004c0.027 0.46 0.122 0.89 0.273 1.291l-0.010-0.030c0.097 0.29 0.316 0.516 0.596 0.619l0.007 0.002 0.414 0.132 0.113 0.414c0.413 1.695 1.221 3.162 2.321 4.355l-0.006-0.007c0.863 0.848 1.976 1.445 3.219 1.67l0.038 0.006c1.346-0.261 2.514-0.895 3.427-1.789l-0.001 0.001c1.036-1.166 1.793-2.603 2.153-4.19l0.012-0.064 0.113-0.395 0.395-0.132c0.273-0.127 0.482-0.353 0.581-0.632l0.002-0.008c0.14-0.366 0.234-0.789 0.263-1.229l0.001-0.013c-0.245 0-0.471 0.019-0.753 0.038v0z"></path>
</svg>
