<!-- Generated by IcoMoon.io -->
<svg version="1.1" xmlns="http://www.w3.org/2000/svg" width="32" height="32" viewBox="0 0 32 32">
<title>rwgl</title>
<path d="M24 27.2h-16c-1.767 0-3.2-1.433-3.2-3.2v0-16c0-1.767 1.433-3.2 3.2-3.2v0h16c1.767 0 3.2 1.433 3.2 3.2v0 16c0 1.767-1.433 3.2-3.2 3.2v0zM24 9.6c0-0.884-0.716-1.6-1.6-1.6v0h-12.8c-0.884 0-1.6 0.716-1.6 1.6v0 3.2c0 0.884 0.716 1.6 1.6 1.6h12.8c0.884 0 1.6-0.716 1.6-1.6v0-3.2zM24 19.2c0-0.884-0.716-1.6-1.6-1.6v0h-12.8c-0.884 0-1.6 0.716-1.6 1.6v0 3.2c0 0.884 0.716 1.6 1.6 1.6h12.8c0.884 0 1.6-0.716 1.6-1.6v0-3.2zM12.8 22.4c-0.884 0-1.6-0.716-1.6-1.6s0.716-1.6 1.6-1.6c0.884 0 1.6 0.716 1.6 1.6v0c0 0.884-0.716 1.6-1.6 1.6v0zM12.8 12.8c-0.884 0-1.6-0.716-1.6-1.6s0.716-1.6 1.6-1.6c0.884 0 1.6 0.716 1.6 1.6v0c0 0.884-0.716 1.6-1.6 1.6v0z"></path>
</svg>
