<!-- Generated by IcoMoon.io -->
<svg version="1.1" xmlns="http://www.w3.org/2000/svg" width="32" height="32" viewBox="0 0 32 32">
<title>rwgz</title>
<path d="M28.8 17.6h-3.344c-0.703 4.020-3.833 7.145-7.799 7.832l-0.057 0.008v3.36h-3.2v-3.36c-4.023-0.695-7.153-3.82-7.848-7.782l-0.008-0.058h-3.344v-3.2h3.344c0.703-4.020 3.833-7.145 7.799-7.832l0.057-0.008v-3.36h3.2v3.36c4.023 0.695 7.153 3.82 7.848 7.782l0.008 0.057h3.344v3.2zM16 9.6c-3.535 0-6.4 2.865-6.4 6.4s2.865 6.4 6.4 6.4c3.535 0 6.4-2.865 6.4-6.4v0c0-3.535-2.865-6.4-6.4-6.4v0zM16 19.2c-1.767 0-3.2-1.433-3.2-3.2s1.433-3.2 3.2-3.2c1.767 0 3.2 1.433 3.2 3.2v0c0 1.767-1.433 3.2-3.2 3.2v0z"></path>
</svg>
