<!-- Generated by IcoMoon.io -->
<svg version="1.1" xmlns="http://www.w3.org/2000/svg" width="32" height="32" viewBox="0 0 32 32">
<title>sc1</title>
<path d="M16 28.8c-7.069 0-12.8-5.731-12.8-12.8s5.731-12.8 12.8-12.8c7.069 0 12.8 5.731 12.8 12.8v0c0 7.069-5.731 12.8-12.8 12.8v0zM21.28 10.72l-0.064-0.054c-0.217-0.216-0.517-0.35-0.848-0.35s-0.631 0.134-0.848 0.35v0l-3.552 3.566-3.552-3.57c-0.217-0.217-0.517-0.352-0.848-0.352s-0.631 0.134-0.848 0.352v0l-0.048 0.051c-0.218 0.218-0.352 0.519-0.352 0.851s0.135 0.633 0.352 0.851l3.552 3.555-3.552 3.555c-0.215 0.219-0.348 0.52-0.348 0.851s0.133 0.632 0.348 0.851v0l0.048 0.050c0.217 0.216 0.517 0.35 0.848 0.35s0.631-0.134 0.848-0.35l3.552-3.554 3.552 3.554c0.217 0.216 0.517 0.35 0.848 0.35s0.631-0.134 0.848-0.35v0l0.048-0.051c0.222-0.216 0.36-0.517 0.36-0.851s-0.138-0.635-0.36-0.851v0l-3.536-3.55 3.552-3.55c0.216-0.219 0.35-0.52 0.35-0.852s-0.134-0.633-0.35-0.852v0z"></path>
</svg>
