<!-- Generated by IcoMoon.io -->
<svg version="1.1" xmlns="http://www.w3.org/2000/svg" width="32" height="32" viewBox="0 0 32 32">
<title>sz</title>
<path d="M24.512 17.104c0.032-0.275 0.050-0.595 0.050-0.918 0-0.071-0.001-0.142-0.003-0.213v0.010c0-0.384-0.048-0.736-0.048-1.12l2.4-1.856c0.128-0.1 0.21-0.254 0.21-0.427 0-0.116-0.037-0.223-0.099-0.311l0.001 0.002-2.288-3.856c-0.096-0.16-0.268-0.265-0.465-0.265-0.075 0-0.146 0.015-0.211 0.043l0.004-0.001-2.88 1.12c-0.557-0.443-1.196-0.82-1.884-1.101l-0.052-0.019-0.4-2.976c-0.093-0.243-0.322-0.413-0.592-0.416h-4.576c-0.273 0.010-0.5 0.194-0.575 0.444l-0.001 0.004-0.464 2.976c-0.739 0.309-1.377 0.685-1.955 1.134l0.019-0.014-2.88-1.12c-0.064-0.030-0.139-0.048-0.218-0.048-0.196 0-0.366 0.109-0.453 0.27l-0.001 0.003-2.304 3.84c-0.032 0.076-0.051 0.165-0.051 0.259 0 0.178 0.068 0.34 0.179 0.462v-0.001l2.464 1.856c0 0.384-0.048 0.736-0.048 1.12s0.048 0.736 0.048 1.12l-2.416 1.84c-0.127 0.1-0.208 0.254-0.208 0.427 0 0.115 0.036 0.222 0.098 0.31l-0.001-0.002 2.288 3.872c0.105 0.158 0.282 0.261 0.483 0.261 0.074 0 0.144-0.014 0.209-0.039l-0.004 0.001 2.864-1.12c0.56 0.429 1.197 0.804 1.878 1.098l0.058 0.022 0.464 2.976c0.048 0.257 0.271 0.449 0.538 0.449 0.013 0 0.026 0 0.039-0.001h4.59c0.269-0.020 0.491-0.2 0.575-0.443l0.001-0.005 0.448-2.976c0.746-0.33 1.387-0.704 1.981-1.14l-0.029 0.020 2.864 1.12c0.063 0.028 0.137 0.044 0.215 0.044 0.2 0 0.375-0.106 0.472-0.265l0.001-0.002 2.288-3.872c0.038-0.081 0.059-0.175 0.059-0.274 0-0.18-0.072-0.343-0.188-0.462v0c0.016 0-2.496-1.84-2.496-1.84zM16 20.8c-0.009 0-0.021 0-0.032 0-2.651 0-4.8-2.149-4.8-4.8s2.149-4.8 4.8-4.8c2.651 0 4.8 2.149 4.8 4.8 0 0.006 0 0.011 0 0.017v-0.001c0 0.008 0 0.018 0 0.027 0 2.627-2.13 4.757-4.757 4.757-0.004 0-0.008 0-0.012 0h0.001z"></path>
</svg>
