<!-- Generated by IcoMoon.io -->
<svg version="1.1" xmlns="http://www.w3.org/2000/svg" width="32" height="32" viewBox="0 0 32 32">
<title>user1</title>
<path fill="#6dbef7" d="M20.369 15.754c2.675-1.406 4.476-4.15 4.513-7.319v-0.005c-0.257-4.709-4.138-8.43-8.888-8.43s-8.631 3.721-8.887 8.407l-0.001 0.023c0.038 3.174 1.839 5.918 4.468 7.302l0.046 0.022c-6.634 1.68-11.487 7.537-11.618 14.549v0.015c0.028 0.935 0.793 1.682 1.732 1.682 0.016 0 0.032 0 0.048-0.001h28.44c0.013 0 0.028 0.001 0.044 0.001 0.94 0 1.705-0.747 1.734-1.679v-0.003c-0.132-7.029-4.988-12.887-11.52-14.541l-0.106-0.023z"></path>
</svg>
