<!-- Generated by IcoMoon.io -->
<svg version="1.1" xmlns="http://www.w3.org/2000/svg" width="32" height="32" viewBox="0 0 32 32">
<title>wc</title>
<path d="M16 28c-6.627 0-12-5.373-12-12s5.373-12 12-12c6.627 0 12 5.373 12 12v0c0 6.627-5.373 12-12 12v0zM16 5.6c-5.744 0-10.4 4.656-10.4 10.4s4.656 10.4 10.4 10.4c5.744 0 10.4-4.656 10.4-10.4v0c0-5.744-4.656-10.4-10.4-10.4v0zM21.368 13.451l-5.72 6.282c-0.145 0.164-0.355 0.267-0.59 0.267-0.197 0-0.377-0.073-0.515-0.193l0.001 0.001-0.064-0.060-3.040-3.185c-0.149-0.159-0.241-0.373-0.241-0.61 0-0.219 0.079-0.42 0.21-0.575l-0.001 0.001c0.147-0.174 0.365-0.283 0.608-0.283 0.199 0 0.381 0.073 0.521 0.194l-0.001-0.001 0.064 0.059 2.448 2.56 5.136-5.645c0.146-0.165 0.358-0.268 0.594-0.268 0.206 0 0.394 0.079 0.535 0.208l-0.001-0.001c0.177 0.162 0.288 0.393 0.288 0.651 0 0.199-0.066 0.383-0.178 0.53l0.002-0.002z"></path>
</svg>
