<!-- Generated by IcoMoon.io -->
<svg version="1.1" xmlns="http://www.w3.org/2000/svg" width="32" height="32" viewBox="0 0 32 32">
<title>xs</title>
<path fill="#808080" d="M9.12 12.302c0.052-0.464 0.442-0.822 0.916-0.822s0.864 0.358 0.915 0.818v0.004c0.294 2.295 2.236 4.050 4.587 4.050s4.292-1.755 4.584-4.027l0.002-0.023c0.038-0.46 0.42-0.819 0.886-0.819 0.013 0 0.027 0 0.040 0.001h-0.002c0.014-0.001 0.031-0.001 0.048-0.001 0.464 0 0.844 0.36 0.876 0.816v0.003c-0.37 3.252-3.106 5.756-6.427 5.756s-6.057-2.503-6.424-5.726l-0.003-0.030zM29.209 13.813c-0.833 4.867-4.358 8.737-8.96 10.058l-0.089 0.022 3.040 7.751c0.028 0.078 0.044 0.169 0.044 0.263 0 0.377-0.258 0.695-0.607 0.785l-0.006 0.001c-0.090 0.032-0.193 0.051-0.301 0.053h-0.001c-0.011 0-0.024 0.001-0.037 0.001-0.373 0-0.693-0.225-0.832-0.546l-0.002-0.006-3.342-8.551c-0.036-0.082-0.057-0.178-0.057-0.278 0-0.141 0.041-0.272 0.112-0.383l-0.002 0.003c0.128-0.203 0.328-0.35 0.563-0.408l0.006-0.001c4.447-0.946 7.864-4.465 8.648-8.893l0.010-0.067c0.054-0.393 0.086-0.849 0.089-1.312v-0.003c0-5.867-5.369-10.667-11.947-10.667s-11.929 4.8-11.929 10.667c0.259 5.289 4.192 9.588 9.288 10.409l0.064 0.008c0.256 0.049 0.469 0.199 0.602 0.405l0.002 0.004c0.069 0.108 0.11 0.239 0.11 0.38 0 0.1-0.021 0.196-0.058 0.283l0.002-0.005-3.289 8.409c-0.14 0.327-0.458 0.551-0.829 0.551-0.008 0-0.017 0-0.025 0h0.001c-0.003 0-0.006 0-0.009 0-0.105 0-0.206-0.020-0.299-0.055l0.006 0.002c-0.356-0.085-0.617-0.401-0.617-0.777 0-0.097 0.017-0.191 0.049-0.277l-0.002 0.006 2.951-7.556c-5.481-1.3-9.539-6.035-9.795-11.76l-0.001-0.027c0-6.773 6.187-12.302 13.778-12.302s13.778 5.529 13.778 12.302c0 0.003 0 0.007 0 0.010 0 0.529-0.039 1.050-0.114 1.558l0.007-0.058z"></path>
</svg>
