<!-- Generated by IcoMoon.io -->
<svg version="1.1" xmlns="http://www.w3.org/2000/svg" width="32" height="32" viewBox="0 0 32 32">
<title>xs1</title>
<path d="M25.589 26.976c-1.098-2.884-3.383-5.1-6.243-6.080l-0.072-0.021c3.043-1.386 5.12-4.4 5.12-7.9 0-0.020 0-0.040 0-0.060v0.003c0.003-0.080 0.004-0.174 0.004-0.268 0-4.639-3.76-8.399-8.399-8.399s-8.399 3.76-8.399 8.399c0 0.094 0.002 0.188 0.005 0.281v-0.014c0 0.017 0 0.037 0 0.057 0 3.5 2.077 6.514 5.066 7.878l0.054 0.022c-2.931 1.001-5.217 3.217-6.291 6.031l-0.023 0.070c-0.007 0.037-0.011 0.079-0.011 0.123 0 0.15 0.048 0.289 0.13 0.402l-0.001-0.002c0.109 0.142 0.278 0.233 0.469 0.235h9.014c5.024 0 8.971 0.021 9.12-0.011 0.274-0.080 0.471-0.328 0.471-0.623 0-0.044-0.004-0.087-0.013-0.128l0.001 0.004zM8.8 12.917v-0.096c1.142 0.834 2.574 1.334 4.123 1.334 0.024 0 0.048 0 0.073 0h-0.004c2.078-0.039 3.917-1.026 5.109-2.546l0.011-0.014c1.071 1.653 2.842 2.774 4.883 2.942l0.023 0.002c-0.676 3.32-3.572 5.782-7.042 5.782-3.965 0-7.18-3.214-7.18-7.18 0-0.079 0.001-0.157 0.004-0.235v0.011z"></path>
</svg>
