<!-- Generated by IcoMoon.io -->
<svg version="1.1" xmlns="http://www.w3.org/2000/svg" width="32" height="32" viewBox="0 0 32 32">
<title>xz</title>
<path d="M31.6 15.008l-12.8-12.224c-0.245-0.259-0.592-0.42-0.976-0.42s-0.73 0.161-0.975 0.419l-0.001 0.001c-0.259 0.249-0.42 0.597-0.42 0.984s0.161 0.735 0.419 0.984l10.304 9.824h-25.744c-0.778 0-1.408 0.63-1.408 1.408s0.63 1.408 1.408 1.408h25.744l-10.304 9.824c-0.259 0.249-0.42 0.597-0.42 0.984s0.161 0.735 0.419 0.984v0c0.247 0.256 0.593 0.416 0.976 0.416s0.729-0.159 0.976-0.415v0l12.8-12.224c0.256-0.247 0.416-0.593 0.416-0.976s-0.159-0.729-0.415-0.976v0z"></path>
</svg>
