<!-- Generated by IcoMoon.io -->
<svg version="1.1" xmlns="http://www.w3.org/2000/svg" width="32" height="32" viewBox="0 0 32 32">
<title>ycl</title>
<path d="M16 26.667c-5.891 0-10.667-4.776-10.667-10.667s4.776-10.667 10.667-10.667c5.891 0 10.667 4.776 10.667 10.667v0c0 5.891-4.776 10.667-10.667 10.667v0zM21.28 12.221c-0.161-0.137-0.371-0.221-0.601-0.221-0.263 0-0.5 0.109-0.668 0.285v0l-5.803 6.022-2.763-2.734-0.075-0.063c-0.158-0.129-0.362-0.207-0.584-0.207-0.271 0-0.515 0.116-0.685 0.302l-0.001 0.001c-0.147 0.162-0.236 0.377-0.236 0.614 0 0.253 0.102 0.482 0.268 0.648v0l3.435 3.396 0.075 0.064c0.157 0.127 0.36 0.204 0.58 0.204 0.262 0 0.499-0.109 0.668-0.284v0l6.517-6.772c0.12-0.153 0.192-0.348 0.192-0.561 0-0.278-0.124-0.526-0.319-0.694l-0.001-0.001z"></path>
</svg>
