<!-- Generated by IcoMoon.io -->
<svg version="1.1" xmlns="http://www.w3.org/2000/svg" width="32" height="32" viewBox="0 0 32 32">
<title>yq</title>
<path d="M17.824 4.8c-6.075 0.061-10.977 5-10.977 11.084 0 0.041 0 0.081 0.001 0.122v-0.006h-3.648l4.736 4.832 0.096 0.176 4.912-5.008h-3.344c0-4.418 3.582-8 8-8s8 3.582 8 8c0 4.418-3.582 8-8 8v0c-2.528-0.341-4.737-1.5-6.398-3.198l-0.002-0.002-1.12 3.12c1.965 2.020 4.707 3.275 7.743 3.28h0.001c6.186 0 11.2-5.014 11.2-11.2s-5.014-11.2-11.2-11.2v0zM16 11.168v5.84l5.12 2.192 1.248-2.144-3.76-1.376v-4.512h-2.608z"></path>
</svg>
