<!-- Generated by IcoMoon.io -->
<svg version="1.1" xmlns="http://www.w3.org/2000/svg" width="32" height="32" viewBox="0 0 32 32">
<title>zu</title>
<path d="M30.796 5.999h-14.798v-2c0-1.276-0.48-1.6-1.2-1.6h-13.198c-1.4 0-1.6 0.424-1.6 1.6v23.997c0 1.176 0.44 1.6 1.6 1.6h28.796c0.032 0.003 0.070 0.004 0.108 0.004 0.826 0 1.495-0.67 1.495-1.495 0-0.038-0.001-0.076-0.004-0.113v0.005-20.398c0-1.176-0.44-1.6-1.6-1.6h0.4zM2.4 3.196l11.599 0.004c0.96 0 1.2 0.124 1.2 1.2v2.4h14.798c1.080 0 1.2 0.424 1.2 1.6v3.2h-30.396v-7.199c0-0.7-0.080-1.2 0.8-1.2zM30.396 28.796h-28.396c-0.019 0.001-0.042 0.002-0.064 0.002-0.628 0-1.137-0.509-1.137-1.137 0-0.023 0.001-0.045 0.002-0.067v0.003-15.198h30.396s-0.080 14.694 0 15.198c0 0.004 0 0.009 0 0.014 0 0.655-0.531 1.186-1.186 1.186-0.005 0-0.010 0-0.014 0h0.401z"></path>
</svg>
