<!-- Generated by IcoMoon.io -->
<svg version="1.1" xmlns="http://www.w3.org/2000/svg" width="32" height="32" viewBox="0 0 32 32">
<title>zxpk</title>
<path d="M25.003 22.179l0.541 2.642c0.011 0.052 0.017 0.111 0.017 0.172 0 0.232-0.092 0.443-0.242 0.598v0c-0.146 0.152-0.351 0.247-0.578 0.247-0.060 0-0.118-0.007-0.175-0.019l0.005 0.001-3.214-0.696c-1.56 0.805-3.404 1.277-5.358 1.277v0c-5.418-0.414-9.658-4.912-9.658-10.4 0-5.76 4.669-10.429 10.429-10.429s10.429 4.669 10.429 10.429c0 0 0 0 0 0v0c-0.001 2.351-0.83 4.509-2.211 6.197l0.014-0.017zM12 13.6c-1.325 0-2.4 1.075-2.4 2.4s1.075 2.4 2.4 2.4c1.325 0 2.4-1.075 2.4-2.4v0c0-1.325-1.075-2.4-2.4-2.4v0zM20 13.6c-1.325 0-2.4 1.075-2.4 2.4s1.075 2.4 2.4 2.4c1.325 0 2.4-1.075 2.4-2.4v0c0-1.325-1.075-2.4-2.4-2.4v0z"></path>
</svg>
