<!-- Generated by IcoMoon.io -->
<svg version="1.1" xmlns="http://www.w3.org/2000/svg" width="32" height="32" viewBox="0 0 32 32">
<title>zxxk</title>
<path d="M27.104 14.288l-2.208-0.528-2.96-0.72c-0.089-0.018-0.158-0.087-0.176-0.175v-0.001c-0.003-0.012-0.004-0.026-0.004-0.040 0-0.081 0.047-0.15 0.115-0.183l0.001-0.001 1.776-0.992c0.057-0.028 0.099-0.080 0.112-0.143v-0.001c0.003-0.014 0.005-0.030 0.005-0.047 0-0.048-0.014-0.092-0.037-0.13l0.001 0.001c-1.631-2.599-4.481-4.302-7.729-4.302-4.299 0-7.902 2.983-8.85 6.993l-0.012 0.062c-0.006 0.062-0.043 0.115-0.095 0.144h-0.001c-0.035 0.024-0.078 0.038-0.124 0.038-0.018 0-0.036-0.002-0.053-0.006h0.002l-1.76-0.432c-0.095-0.024-0.165-0.109-0.165-0.21 0-0.016 0.002-0.032 0.005-0.048v0.001c1.22-5.059 5.707-8.759 11.058-8.759 5.421 0 9.954 3.797 11.088 8.876l0.014 0.076c0.016 0.080 0.032 0.176 0.048 0.272s0.032 0.192 0.048 0.272zM13.728 19.872c-1.368-0.798-2.272-2.259-2.272-3.931 0-2.505 2.031-4.536 4.536-4.536s4.536 2.031 4.536 4.536c0 1.672-0.904 3.132-2.25 3.919l-0.021 0.012c-0.65 0.377-1.431 0.6-2.264 0.6s-1.614-0.223-2.286-0.612l0.022 0.012zM10.064 18.944c0.085 0.018 0.15 0.088 0.16 0.175v0.001c0.002 0.011 0.003 0.023 0.003 0.036 0 0.086-0.046 0.161-0.114 0.203l-0.001 0.001-1.776 0.976c-0.053 0.029-0.090 0.082-0.096 0.143v0.001c-0.007 0.020-0.010 0.044-0.010 0.069 0 0.039 0.010 0.076 0.027 0.109l-0.001-0.001c1.637 2.598 4.491 4.299 7.741 4.299 0.526 0 1.042-0.045 1.545-0.13l-0.054 0.008c3.657-0.602 6.54-3.339 7.348-6.867l0.012-0.061c0.013-0.060 0.048-0.11 0.095-0.143h0.001c0.045-0.021 0.098-0.033 0.153-0.033 0.008 0 0.016 0 0.024 0.001h-0.001l1.76 0.432c0.103 0.017 0.181 0.105 0.181 0.212 0 0.016-0.002 0.031-0.005 0.046v-0.001c-1.217 5.063-5.706 8.767-11.060 8.767-5.418 0-9.949-3.792-11.086-8.867l-0.014-0.076-0.048-0.288c-0.016-0.096-0.032-0.192-0.048-0.272l0.096 0.016 2.208 0.528z"></path>
</svg>
