<!-- Generated by IcoMoon.io -->
<svg version="1.1" xmlns="http://www.w3.org/2000/svg" width="32" height="32" viewBox="0 0 32 32">
<title>aqjc</title>
<path d="M16 4l10.4 4.347v6.586c0 0.003 0 0.008 0 0.012 0 1.576-0.29 3.083-0.819 4.473l0.029-0.086c-0.545 1.475-1.272 2.75-2.172 3.881l0.022-0.028c-0.939 1.183-2.034 2.189-3.265 3.008l-0.052 0.032c-1.046 1.091-2.516 1.769-4.144 1.769s-3.098-0.678-4.142-1.767l-0.002-0.002c-2.488-1.656-4.39-4.020-5.435-6.802l-0.032-0.097c-0.498-1.301-0.787-2.805-0.787-4.378 0-0.007 0-0.015 0-0.022v0.001-6.586zM16 15.974v-9.6l-8.101 3.411v6.195h8.101v9.734c1.141-0.31 2.139-0.788 3.026-1.412l-0.030 0.020c0.919-0.646 1.709-1.389 2.383-2.23l0.017-0.023c0.686-0.815 1.275-1.745 1.73-2.749l0.030-0.075c0.436-0.948 0.763-2.048 0.928-3.201l0.008-0.065h-8.091z"></path>
</svg>
