<!-- Generated by IcoMoon.io -->
<svg version="1.1" xmlns="http://www.w3.org/2000/svg" width="32" height="32" viewBox="0 0 32 32">
<title>bj</title>
<path d="M17.4 12.544l-8.608 8.592 0.992 1.008 8.624-8.608zM19.464 14.608l-8.608 8.592 2 2 8.608-8.592zM16.392 11.536l-1.008-0.992-8.608 8.592 1.008 1.008zM26.776 9.296l-4.064-4.048c-0.25-0.276-0.609-0.448-1.008-0.448s-0.758 0.172-1.007 0.447l-0.001 0.001-2.48 2.464 6.080 6.064 2.48-2.464c0.245-0.264 0.396-0.618 0.396-1.008s-0.151-0.744-0.397-1.009l0.001 0.001zM4.776 27.2h4.304l-4.304-4.304v4.304zM14.856 27.2h10.096v-1.408h-10.096v1.408z"></path>
</svg>
