<!-- Generated by IcoMoon.io -->
<svg version="1.1" xmlns="http://www.w3.org/2000/svg" width="32" height="32" viewBox="0 0 32 32">
<title>dc</title>
<path d="M7.056 14.432h2.56c0.005 0 0.010 0 0.016 0 0.866 0 1.568 0.702 1.568 1.568 0 0 0 0 0 0v0 3.2c0.065 0.856 0.744 1.535 1.594 1.6h6.406c0.879-0.012 1.588-0.721 1.6-1.599v-3.201c-0.011-0.066-0.017-0.141-0.017-0.218 0-0.756 0.613-1.37 1.37-1.37 0.082 0 0.162 0.007 0.24 0.021l-0.008-0.001h2.56c0.704 0 0.864-0.336 0.368-0.752l-8.416-6.976c-0.246-0.187-0.558-0.3-0.896-0.3s-0.65 0.113-0.9 0.303l0.004-0.003-8.416 6.976c-0.496 0.416-0.336 0.752 0.368 0.752zM12.4 22.416c-0.699 0.205-1.2 0.84-1.2 1.592s0.502 1.387 1.188 1.589l0.012 0.003h7.216c0.699-0.205 1.2-0.84 1.2-1.592s-0.502-1.387-1.188-1.589l-0.012-0.003h-7.216z"></path>
</svg>
