<!-- Generated by IcoMoon.io -->
<svg version="1.1" xmlns="http://www.w3.org/2000/svg" width="32" height="32" viewBox="0 0 32 32">
<title>dianji</title>
<path d="M14.592 13.323l2.283 13.131s1.685-1.717 3.072-2.923l3.061 4.075c0.079 0.079 0.189 0.129 0.31 0.129 0.11 0 0.211-0.041 0.288-0.108h-0.001l1.312-0.949c0.124-0.072 0.206-0.205 0.206-0.357 0-0.077-0.021-0.149-0.058-0.21l0.001 0.002-2.976-3.957c1.547-0.629 4.117-1.333 4.117-1.333zM10.912 19.392l-3.403 2.464c-0.278 0.208-0.456 0.537-0.456 0.908 0 0.272 0.096 0.521 0.255 0.716l-0.002-0.002c0.227 0.307 0.587 0.504 0.994 0.504 0.254 0 0.49-0.077 0.686-0.208l-0.004 0.003 3.392-2.464c0.286-0.215 0.469-0.554 0.469-0.935 0-0.277-0.097-0.531-0.258-0.731l0.002 0.002c-0.223-0.295-0.573-0.484-0.968-0.484-0.266 0-0.511 0.086-0.711 0.231l0.003-0.002zM26.944 9.216c-0.224-0.294-0.575-0.482-0.969-0.482-0.265 0-0.509 0.085-0.709 0.228l0.004-0.002-3.381 2.453c-0.288 0.208-0.474 0.543-0.474 0.921 0 0.275 0.098 0.528 0.262 0.724l-0.001-0.002c0.228 0.301 0.585 0.494 0.987 0.494 0.261 0 0.503-0.081 0.702-0.219l-0.004 0.003 3.371-2.453c0.288-0.213 0.474-0.551 0.474-0.933 0-0.278-0.098-0.533-0.262-0.733l0.002 0.002zM11.179 6.688c-0.222-0.294-0.57-0.482-0.963-0.482-0.263 0-0.507 0.085-0.705 0.228l0.004-0.002c-0.277 0.21-0.454 0.54-0.454 0.91 0 0.265 0.090 0.509 0.242 0.703l-0.002-0.002 2.645 3.456c0.222 0.288 0.567 0.472 0.955 0.472 0.258 0 0.496-0.081 0.692-0.219l-0.004 0.003c0.29-0.207 0.477-0.543 0.477-0.922 0-0.265-0.091-0.509-0.244-0.702l0.002 0.002zM17.845 10.784c0.055 0.009 0.119 0.015 0.184 0.015 0.585 0 1.071-0.429 1.159-0.989l0.001-0.007 0.523-4.16c0.005-0.041 0.008-0.089 0.008-0.137 0-0.616-0.447-1.127-1.035-1.227l-0.007-0.001c-0.055-0.009-0.119-0.015-0.184-0.015-0.585 0-1.071 0.429-1.159 0.989l-0.001 0.007-0.533 4.16c-0.004 0.038-0.006 0.082-0.006 0.127 0 0.621 0.451 1.137 1.044 1.238l0.007 0.001zM11.445 15.435c0.003-0.034 0.005-0.073 0.005-0.112 0-0.624-0.45-1.144-1.043-1.252l-0.008-0.001-4.245-0.693c-0.060-0.011-0.13-0.018-0.2-0.018-0.583 0-1.064 0.432-1.143 0.993l-0.001 0.006c-0.008 0.050-0.012 0.109-0.012 0.168 0 0.611 0.459 1.115 1.052 1.186l0.006 0.001 4.245 0.693c0.059 0.010 0.126 0.016 0.195 0.016 0.58 0 1.061-0.425 1.148-0.98l0.001-0.007z"></path>
</svg>
