<!-- Generated by IcoMoon.io -->
<svg version="1.1" xmlns="http://www.w3.org/2000/svg" width="32" height="32" viewBox="0 0 32 32">
<title>dx02</title>
<path d="M24.832 4.8h-17.68c-1.298 0.002-2.35 1.054-2.352 2.352v17.696c0.002 1.298 1.054 2.35 2.352 2.352h17.696c1.298-0.002 2.35-1.054 2.352-2.352v-17.696c-0.005-1.3-1.059-2.352-2.36-2.352-0.003 0-0.006 0-0.008 0v0zM21.968 13.424l-5.904 6.992c-0.272 0.239-0.631 0.384-1.024 0.384s-0.752-0.146-1.026-0.386l0.002 0.002-4-3.728c-0.258-0.227-0.42-0.559-0.42-0.928s0.162-0.7 0.419-0.927l0.001-0.001c0.269-0.238 0.626-0.384 1.016-0.384s0.747 0.146 1.018 0.385l-0.002-0.001 2.992 2.8 4.896-6.064c0.269-0.238 0.626-0.384 1.016-0.384s0.747 0.146 1.018 0.385l-0.002-0.001c0.265 0.224 0.432 0.556 0.432 0.928s-0.167 0.704-0.43 0.927l-0.002 0.001z"></path>
</svg>
