<!-- Generated by IcoMoon.io -->
<svg version="1.1" xmlns="http://www.w3.org/2000/svg" width="32" height="32" viewBox="0 0 32 32">
<title>dz</title>
<path d="M22.784 20.64l-6.8 6.56-6.784-6.56c-1.731-1.651-2.808-3.976-2.808-6.552s1.077-4.901 2.804-6.549l0.004-0.003c1.763-1.684 4.156-2.72 6.792-2.72s5.029 1.036 6.796 2.724l-0.004-0.004c1.731 1.651 2.808 3.976 2.808 6.552s-1.077 4.901-2.804 6.549l-0.004 0.003zM18.8 11.504c-0.732-0.679-1.715-1.096-2.796-1.096-0.61 0-1.189 0.133-1.709 0.371l0.026-0.011c-1.338 0.584-2.255 1.895-2.255 3.421 0 0.119 0.006 0.238 0.017 0.354l-0.001-0.015c0.207 1.615 1.402 2.902 2.951 3.243l0.025 0.005c0.289 0.073 0.62 0.115 0.961 0.115 1.342 0 2.532-0.652 3.271-1.656l0.008-0.011c0.412-0.578 0.659-1.298 0.659-2.077 0-1.043-0.444-1.983-1.152-2.641l-0.002-0.002z"></path>
</svg>
