<!-- Generated by IcoMoon.io -->
<svg version="1.1" xmlns="http://www.w3.org/2000/svg" width="32" height="32" viewBox="0 0 32 32">
<title>fenzhi</title>
<path d="M24.424 26.064l-2.112-6.944 5.824-4.416c0.231-0.183 0.412-0.42 0.524-0.693l0.004-0.011c0.068-0.133 0.108-0.29 0.108-0.456s-0.040-0.323-0.111-0.462l0.003 0.006c-0.098-0.313-0.282-0.575-0.525-0.765l-0.003-0.003c-0.233-0.171-0.525-0.274-0.841-0.274-0.025 0-0.050 0.001-0.074 0.002h0.003l-7.36-0.192-2.448-6.816c-0.104-0.29-0.288-0.53-0.524-0.701l-0.004-0.003c-0.262-0.194-0.587-0.318-0.94-0.336h-0.004c-0.329 0.013-0.628 0.131-0.867 0.322l0.003-0.002c-0.247 0.192-0.446 0.433-0.586 0.708l-0.005 0.012-2.448 6.8-7.344 0.208c-0.326 0.039-0.62 0.153-0.871 0.324l0.007-0.004c-0.265 0.176-0.456 0.445-0.526 0.76l-0.002 0.008c-0.068 0.133-0.108 0.29-0.108 0.456s0.040 0.323 0.111 0.462l-0.003-0.006c0.087 0.289 0.248 0.533 0.462 0.718l0.002 0.002h0.064l5.824 4.416-2.112 6.928c-0.027 0.107-0.042 0.229-0.042 0.355 0 0.201 0.039 0.392 0.11 0.568l-0.004-0.010c0.098 0.298 0.282 0.544 0.524 0.717l0.004 0.003c0.222 0.161 0.501 0.257 0.801 0.257 0.022 0 0.044-0.001 0.066-0.002h0.061c0.007 0 0.016 0 0.025 0 0.313 0 0.604-0.096 0.844-0.26l-0.005 0.003 6.096-4.096 6.096 4.096c0.211 0.16 0.478 0.256 0.768 0.256 0.006 0 0.011 0 0.017 0h0.063c0.32-0.025 0.614-0.117 0.875-0.262l-0.011 0.006h0.064c0.222-0.217 0.401-0.478 0.522-0.769l0.006-0.015c0.053-0.133 0.084-0.287 0.084-0.448s-0.031-0.315-0.087-0.456l0.003 0.008z"></path>
</svg>
