<!-- Generated by IcoMoon.io -->
<svg version="1.1" xmlns="http://www.w3.org/2000/svg" width="32" height="32" viewBox="0 0 32 32">
<title>fx1</title>
<path d="M24.4 27.2h-16.8c-0.002 0-0.004 0-0.006 0-1.543 0-2.794-1.251-2.794-2.794 0-0.002 0-0.005 0-0.007v0-16.8c0-0.002 0-0.004 0-0.006 0-1.543 1.251-2.794 2.794-2.794 0.002 0 0.005 0 0.007 0h16.8c0.002 0 0.004 0 0.006 0 1.543 0 2.794 1.251 2.794 2.794 0 0.002 0 0.005 0 0.007v0 16.8c0 0.002 0 0.004 0 0.006 0 1.543-1.251 2.794-2.794 2.794-0.002 0-0.005 0-0.007 0v0zM22 11.504c-0.182-0.18-0.432-0.291-0.708-0.291-0.314 0-0.594 0.144-0.779 0.369l-0.001 0.002-5.616 6.288-3.536-3.664c-0.179-0.167-0.421-0.269-0.686-0.269-0.326 0-0.616 0.155-0.8 0.395l-0.002 0.002c-0.173 0.219-0.278 0.5-0.278 0.804 0 0.323 0.117 0.618 0.312 0.845l-0.002-0.002 4.32 4.528c0.18 0.169 0.424 0.272 0.691 0.272 0.314 0 0.594-0.143 0.78-0.366l0.001-0.002 6.384-7.184 0.080-0.080c0.143-0.204 0.228-0.457 0.228-0.73 0-0.36-0.149-0.685-0.388-0.918v0z"></path>
</svg>
