<!-- Generated by IcoMoon.io -->
<svg version="1.1" xmlns="http://www.w3.org/2000/svg" width="32" height="32" viewBox="0 0 32 32">
<title>gb</title>
<path d="M17.904 15.952l-1.904-1.888 7.312-7.328c0.238-0.237 0.566-0.384 0.928-0.384s0.69 0.147 0.928 0.384v0l0.048 0.064c0.237 0.235 0.384 0.56 0.384 0.92s-0.147 0.685-0.384 0.92v0zM25.216 25.12l-0.048 0.048c-0.238 0.237-0.566 0.384-0.928 0.384s-0.69-0.147-0.928-0.384l-7.312-7.312-7.312 7.312c-0.235 0.237-0.56 0.384-0.92 0.384s-0.685-0.147-0.92-0.384v0l-0.064-0.048c-0.23-0.241-0.372-0.568-0.372-0.928s0.142-0.687 0.372-0.928v0l7.312-7.312-7.312-7.312c-0.237-0.235-0.384-0.56-0.384-0.92s0.147-0.685 0.384-0.92l0.064-0.064c0.235-0.237 0.56-0.384 0.92-0.384s0.685 0.147 0.92 0.384v0l7.312 7.328 9.216 9.2c0.237 0.238 0.384 0.566 0.384 0.928s-0.147 0.69-0.384 0.928v0z"></path>
</svg>
