<!-- Generated by IcoMoon.io -->
<svg version="1.1" xmlns="http://www.w3.org/2000/svg" width="32" height="32" viewBox="0 0 32 32">
<title>icon25</title>
<path d="M27.995 6.306h-21.819c-1.738 0-3.152-1.415-3.152-3.153s1.414-3.153 3.152-3.153h18.748c0.543 0 0.982 0.44 0.982 0.982s-0.439 0.982-0.982 0.982h-18.748c-0.656 0-1.188 0.534-1.188 1.189s0.533 1.19 1.188 1.19h21.819c0.543 0 0.982 0.44 0.982 0.982s-0.439 0.982-0.982 0.982v0zM27.995 32h-21.819c-1.738 0-3.152-1.415-3.152-3.154 0-0.542 0.439-0.982 0.982-0.982s0.982 0.44 0.982 0.982c0 0.657 0.533 1.191 1.188 1.191h21.819c0.543 0 0.982 0.44 0.982 0.982s-0.439 0.982-0.982 0.982v0zM4.005 29.828c-0.543 0-0.982-0.44-0.982-0.982v-25.693c0-0.542 0.439-0.982 0.982-0.982s0.982 0.44 0.982 0.982v25.693c0 0.542-0.439 0.982-0.982 0.982v0zM27.995 32c-0.543 0-0.982-0.44-0.982-0.982v-25.694c0-0.542 0.439-0.982 0.982-0.982s0.982 0.44 0.982 0.982v25.694c0 0.542-0.439 0.982-0.982 0.982v0zM24.923 6.306c-0.543 0-0.982-0.44-0.982-0.982v-4.343c0-0.542 0.439-0.982 0.982-0.982s0.982 0.44 0.982 0.982v4.343c0 0.542-0.439 0.982-0.982 0.982v0zM21.688 12.689h-11.811c-0.541 0-0.98-0.44-0.98-0.982s0.439-0.982 0.98-0.982h11.811c0.541 0 0.982 0.44 0.982 0.982s-0.441 0.982-0.982 0.982v0zM16 17.14h-6.123c-0.541 0-0.98-0.44-0.98-0.982s0.439-0.982 0.98-0.982h6.123c0.543 0 0.982 0.44 0.982 0.982s-0.439 0.982-0.982 0.982v0z"></path>
</svg>
