<!-- Generated by IcoMoon.io -->
<svg version="1.1" xmlns="http://www.w3.org/2000/svg" width="32" height="32" viewBox="0 0 32 32">
<title>info</title>
<path fill="#30bf99" d="M13.2 25.179c-1.043 0-1.768-0.464-1.768-1.507 0.199-1.496 0.617-2.853 1.224-4.1l-0.035 0.079 2.029-4.819c0.203-0.493-0.059-0.739-0.291-0.739-1.067 0-2.464 2.381-2.984 2.381-0.197-0.007-0.357-0.16-0.376-0.353v-0.002c0-0.493 1.275-1.643 1.651-1.997 1.131-1.085 2.652-1.772 4.333-1.832h0.011c1.248 0 2.579 0.709 1.533 3.365l-2.085 5.333c-0.23 0.444-0.4 0.96-0.484 1.505l-0.004 0.028c-0.001 0.009-0.001 0.019-0.001 0.029 0 0.192 0.154 0.348 0.345 0.352v0c0.869 0 2.464-2.323 2.869-2.323 0.197 0.028 0.347 0.196 0.347 0.399 0 0.004 0 0.008 0 0.012v-0.001c-1.327 2.259-3.606 3.836-6.272 4.182l-0.043 0.005zM18.187 11.312v0c-0.049 0.005-0.106 0.007-0.164 0.007-0.999 0-1.808-0.809-1.808-1.808 0-0.023 0-0.046 0.001-0.069v0.003c0.069-1.224 1.079-2.19 2.314-2.19 0.022 0 0.044 0 0.065 0.001h-0.003c0.046-0.004 0.1-0.006 0.155-0.006 1.019 0 1.845 0.826 1.845 1.845 0 0.010 0 0.020 0 0.029v-0.001c-0.055 1.219-1.058 2.187-2.286 2.187-0.042 0-0.084-0.001-0.125-0.003h0.006z"></path>
<path fill="none" stroke="#30bf99" stroke-linejoin="miter" stroke-linecap="butt" stroke-miterlimit="4" stroke-width="3.2" d="M32 16c0 8.837-7.163 16-16 16s-16-7.163-16-16c0-8.837 7.163-16 16-16s16 7.163 16 16z"></path>
<path fill="none" stroke="#30bf99" stroke-linejoin="miter" stroke-linecap="butt" stroke-miterlimit="4" stroke-width="3.2" d="M30.4 16c0 7.953-6.447 14.4-14.4 14.4s-14.4-6.447-14.4-14.4c0-7.953 6.447-14.4 14.4-14.4s14.4 6.447 14.4 14.4z"></path>
</svg>
