<!-- Generated by IcoMoon.io -->
<svg version="1.1" xmlns="http://www.w3.org/2000/svg" width="32" height="32" viewBox="0 0 32 32">
<title>jd</title>
<path d="M22.112 18.171c1.448 1.897 2.327 4.296 2.347 6.899v0.005h1.141v1.593h-19.2v-1.593h1.131c0.024-2.609 0.906-5.008 2.378-6.931l-0.020 0.028c0.725-0.932 1.616-1.698 2.633-2.262l0.044-0.022c0.075-0.037 0.149-0.064 0.213-0.099-0.064-0.035-0.139-0.062-0.213-0.099-1.062-0.586-1.953-1.352-2.663-2.265l-0.014-0.019c-1.359-1.787-2.216-4.022-2.324-6.452l-0.001-0.025h-1.163v-1.593h19.2v1.593h-1.173c-0.1 2.454-0.954 4.691-2.335 6.505l0.021-0.028c-0.727 0.93-1.617 1.696-2.633 2.262l-0.044 0.023c-0.075 0.038-0.149 0.064-0.224 0.099 0.075 0.035 0.149 0.062 0.224 0.099 1.060 0.59 1.95 1.355 2.663 2.266l0.014 0.019zM9.344 6.944c0.067 1.062 0.277 2.053 0.61 2.984l-0.024-0.076c0.399 0.059 0.86 0.093 1.329 0.093 1.245 0 2.434-0.239 3.525-0.672l-0.064 0.023c1.007-0.571 2.212-0.907 3.496-0.907 1.461 0 2.821 0.436 3.955 1.185l-0.027-0.017c0.259-0.766 0.441-1.656 0.51-2.576l0.002-0.037h-13.312zM16 16.562c-1.902 0.067-3.568 1.020-4.607 2.456l-0.012 0.017c-1.154 1.511-1.895 3.393-2.025 5.44l-0.002 0.029 6.539-3.121 6.752 3.13c-0.132-2.079-0.873-3.963-2.045-5.501l0.018 0.025c-1.050-1.455-2.716-2.409-4.608-2.475h-0.010z"></path>
</svg>
