<!-- Generated by IcoMoon.io -->
<svg version="1.1" xmlns="http://www.w3.org/2000/svg" width="32" height="32" viewBox="0 0 32 32">
<title>jt1</title>
<path d="M25.896 16.944l-8.752 8.352c-0.215 0.209-0.51 0.339-0.834 0.339-0.101 0-0.2-0.013-0.294-0.036l0.008 0.002c-0.395-0.097-0.703-0.395-0.814-0.776l-0.002-0.008c-0.022-0.080-0.034-0.172-0.034-0.267 0-0.313 0.137-0.595 0.353-0.788l0.001-0.001 8.336-7.776-8.336-7.776c-0.195-0.194-0.316-0.463-0.316-0.76 0-0.305 0.127-0.58 0.332-0.775v0c0.21-0.193 0.491-0.312 0.8-0.312s0.59 0.118 0.801 0.312l-0.001-0.001 8.752 8.352c0.284 0.201 0.467 0.528 0.467 0.897 0 0.028-0.001 0.055-0.003 0.082v-0.004c-0.002 0.383-0.182 0.723-0.461 0.942l-0.003 0.002zM16.76 16c-0.002 0.379-0.175 0.718-0.446 0.942l-0.002 0.002-8.768 8.352c-0.215 0.209-0.51 0.339-0.834 0.339-0.101 0-0.2-0.013-0.294-0.036l0.008 0.002c-0.395-0.097-0.703-0.395-0.814-0.776l-0.002-0.008c-0.022-0.080-0.034-0.172-0.034-0.267 0-0.313 0.137-0.595 0.353-0.788l0.001-0.001 8.336-7.776-8.336-7.776c-0.195-0.194-0.316-0.463-0.316-0.76 0-0.305 0.127-0.58 0.332-0.775v0c0.21-0.193 0.491-0.312 0.8-0.312s0.59 0.118 0.801 0.312l-0.001-0.001 8.768 8.352c0.275 0.206 0.451 0.532 0.451 0.898 0 0.027-0.001 0.055-0.003 0.082v-0.004z"></path>
</svg>
