<!-- Generated by IcoMoon.io -->
<svg version="1.1" xmlns="http://www.w3.org/2000/svg" width="32" height="32" viewBox="0 0 32 32">
<title>kc</title>
<path d="M23.755 5.867h-1.973v8.523l-2.219-1.504-2.219 1.504v-8.523h-9.099c-0.023-0.001-0.051-0.001-0.079-0.001-1.239 0-2.249 0.979-2.3 2.205v15.856c0.051 1.231 1.061 2.209 2.3 2.209 0.028 0 0.055 0 0.083-0.001h15.505c0.023 0.001 0.051 0.001 0.079 0.001 1.239 0 2.249-0.979 2.3-2.205v-15.866c-0.056-1.226-1.063-2.199-2.298-2.199-0.029 0-0.057 0.001-0.085 0.002h0.004zM9.504 22.325c0.003 0.025 0.004 0.053 0.004 0.082 0 0.438-0.355 0.794-0.794 0.794s-0.794-0.355-0.794-0.794c0-0.029 0.002-0.058 0.005-0.086v0.003-12.651c-0.003-0.028-0.005-0.060-0.005-0.092 0-0.439 0.356-0.795 0.795-0.795s0.795 0.356 0.795 0.795c0 0.032-0.002 0.064-0.006 0.096v-0.004 12.651z"></path>
</svg>
