<!-- Generated by IcoMoon.io -->
<svg version="1.1" xmlns="http://www.w3.org/2000/svg" width="32" height="32" viewBox="0 0 32 32">
<title>kt</title>
<path d="M25.419 21.867h-3.413l2.133 3.509c0.245 0.416-0.971 0.939-1.408 1.184-0.127 0.068-0.278 0.108-0.438 0.108-0.334 0-0.628-0.173-0.797-0.435l-0.002-0.004-2.677-4.384h-5.387l-2.667 4.384c-0.174 0.265-0.47 0.438-0.806 0.438-0.162 0-0.314-0.040-0.447-0.11l0.005 0.003c-0.437-0.245-1.653-0.768-1.408-1.184l2.133-3.509h-3.659c-0.009 0-0.020 0-0.031 0-0.661 0-1.198-0.526-1.217-1.183v-14.167c0.018-0.658 0.556-1.184 1.217-1.184 0.011 0 0.022 0 0.033 0h18.835c0.009 0 0.020 0 0.031 0 0.661 0 1.198 0.526 1.217 1.183v14.157c-0.013 0.663-0.553 1.195-1.218 1.195-0.011 0-0.021 0-0.032 0h0.002zM18.624 13.045l-4.437-3.008c-0.148-0.131-0.343-0.212-0.557-0.212-0.464 0-0.839 0.376-0.839 0.839 0 0.046 0.004 0.091 0.011 0.134l-0.001-0.005v6.027c-0.007 0.040-0.011 0.086-0.011 0.134 0 0.465 0.377 0.843 0.843 0.843 0.213 0 0.407-0.079 0.556-0.209l-0.001 0.001 4.437-3.019c0.331-0.101 0.569-0.4 0.576-0.757v-0.001c-0.007-0.36-0.244-0.662-0.57-0.766l-0.006-0.002z"></path>
</svg>
