<!-- Generated by IcoMoon.io -->
<svg version="1.1" xmlns="http://www.w3.org/2000/svg" width="32" height="32" viewBox="0 0 32 32">
<title>laoshi</title>
<path d="M30.199 31.449l-0.284 0.551h-28.125l0.018-0.836c0.036-2.068 0.313-4.054 0.803-5.955l-0.039 0.177c0.527-2.27 1.687-4.216 3.282-5.701l0.007-0.006 0.249-0.196h0.32l3.716-0.036v1.689l-3.413-0.036c-1.222 1.263-2.113 2.853-2.529 4.626l-0.013 0.067c-0.36 1.347-0.602 2.912-0.674 4.521l-0.002 0.048h25.014c-0.053-1.839-0.407-3.579-1.014-5.195l0.036 0.11c-0.501-1.627-1.313-3.031-2.373-4.205l0.009 0.010h-3.893v-1.636h4.445l0.356 0.107c1.381 1.426 2.431 3.182 3.017 5.138l0.023 0.089c0.683 1.792 1.078 3.864 1.078 6.028 0 0.225-0.004 0.448-0.013 0.671l0.001-0.032zM16.279 29.262l-2.24-1.636 1.458-5.671-0.551-0.871 0.036-0.907c0.359-0.026 0.778-0.040 1.2-0.040s0.841 0.015 1.256 0.043l-0.056-0.003 0.036 0.907-0.551 0.871 1.636 5.671-2.222 1.636zM22.714 12.817c-0.439 1.73-1.267 3.228-2.389 4.452l0.007-0.008c-1.144 1.128-2.621 1.92-4.271 2.215l-0.049 0.007-0.142 0.018-0.124-0.018c-1.651-0.249-3.093-1.003-4.196-2.098h0.001c-1.17-1.236-2.046-2.763-2.507-4.46l-0.017-0.074c-0.524-0.288-0.925-0.746-1.132-1.299l-0.006-0.017c-0.254-0.642-0.401-1.386-0.401-2.164 0-0.12 0.004-0.24 0.011-0.359l-0.001 0.016v-0.391l0.338-0.231c0.094-0.063 0.205-0.128 0.319-0.187l0.019-0.009c-0.516-3.040-0.373-5.636 1.511-7.36 1.493-1.049 4.124-0.32 6.542-0.676 6.862-1.013 6.809 2.4 7.502 8.16 0.036 0.018 0.089 0.053 0.124 0.071l0.338 0.231v0.391c0.005 0.096 0.008 0.209 0.008 0.323 0 0.771-0.14 1.51-0.396 2.191l0.014-0.043c-0.211 0.561-0.597 1.016-1.090 1.309l-0.012 0.006zM21.896 9.777l-0.107-0.338-0.213 0.018-0.142-0.658c-0.089-0.516-0.249-3.182-0.444-3.627-0.105 0.017-0.225 0.026-0.348 0.026-0.581 0-1.113-0.212-1.522-0.562l0.003 0.003-0.302 0.924-0.498-0.053 0.071-0.569-0.516 0.8-0.462-0.089 0.444-1.191c-2.436 1.636-6.613 1.564-7.165 0.818-0.070 0.112-0.126 0.243-0.158 0.382l-0.002 0.009c-0.107 0.444-0.231 3.2-0.356 3.645l-0.018 0.16h-0.018c-0.018 0.089-0.053 0.16-0.071 0.231-0.132-0.031-0.283-0.049-0.439-0.049-0.205 0-0.402 0.031-0.588 0.088l0.014-0.004c0.022 0.447 0.118 0.865 0.276 1.252l-0.009-0.025c0.091 0.279 0.298 0.497 0.562 0.602l0.007 0.002 0.409 0.124 0.107 0.409c0.4 1.65 1.188 3.079 2.263 4.237l-0.005-0.006c0.842 0.831 1.931 1.415 3.146 1.63l0.036 0.005c1.313-0.254 2.453-0.872 3.343-1.743l-0.001 0.001c1.008-1.137 1.747-2.535 2.103-4.079l0.012-0.063 0.107-0.391 0.391-0.124c0.267-0.124 0.467-0.353 0.549-0.633l0.002-0.007c0.149-0.35 0.245-0.757 0.266-1.183v-0.008c-0.032-0.001-0.071-0.001-0.109-0.001-0.218 0-0.434 0.013-0.645 0.039l0.025-0.002z"></path>
</svg>
