<!-- Generated by IcoMoon.io -->
<svg version="1.1" xmlns="http://www.w3.org/2000/svg" width="32" height="32" viewBox="0 0 32 32">
<title>qp</title>
<path d="M28.48 28.48c-0.171 0.197-0.421 0.32-0.701 0.32-0.007 0-0.014 0-0.020 0h-7.951c-0.566 0-1.024-0.458-1.024-1.024s0.458-1.024 1.024-1.024v0l5.472 0.016-7.456-7.44 1.456-1.456 7.456 7.472v-5.536c0.004-0.564 0.46-1.020 1.024-1.024v0c0.001 0 0.002 0 0.003 0 0.564 0 1.021 0.457 1.021 1.021 0 0.001 0 0.002 0 0.003v0l0.016 7.936c-0.004 0.289-0.126 0.55-0.32 0.736v0zM27.76 13.216c-0.564-0.004-1.020-0.46-1.024-1.024v0l0.032-5.472-7.44 7.44-1.456-1.456 7.456-7.456h-5.52c-0.566 0-1.024-0.458-1.024-1.024s0.458-1.024 1.024-1.024v0h7.92c0.009 0 0.018 0 0.029 0 0.278 0 0.53 0.117 0.707 0.304v0c0.197 0.166 0.321 0.413 0.321 0.688 0 0.011 0 0.022-0.001 0.033v-0.002 7.968c0 0.001 0 0.002 0 0.003 0 0.564-0.457 1.021-1.021 1.021-0.001 0-0.002 0-0.003 0v0zM12.704 14.112l-7.456-7.456v5.536c-0.004 0.564-0.46 1.020-1.024 1.024v0c-0.001 0-0.002 0-0.003 0-0.564 0-1.021-0.457-1.021-1.021 0-0.001 0-0.002 0-0.003v0-7.936c0-0.002 0-0.004 0-0.006 0-0.285 0.116-0.543 0.304-0.729v0c0.171-0.197 0.421-0.32 0.701-0.32 0.007 0 0.014 0 0.020 0h7.951c0.566 0 1.024 0.458 1.024 1.024s-0.458 1.024-1.024 1.024v0l-5.472-0.032 7.456 7.456-1.456 1.44zM4.224 18.784c0.564 0.004 1.020 0.46 1.024 1.024v0l-0.032 5.472 7.44-7.44 1.456 1.44-7.456 7.472h5.52c0.566 0 1.024 0.458 1.024 1.024s-0.458 1.024-1.024 1.024h-7.92c-0.286-0.006-0.545-0.121-0.736-0.304v0c-0.197-0.177-0.32-0.432-0.32-0.716 0-0.002 0-0.003 0-0.005v0-7.968c0-0.001 0-0.002 0-0.003 0-0.564 0.457-1.021 1.021-1.021 0.001 0 0.002 0 0.003 0v0z"></path>
</svg>
