<!-- Generated by IcoMoon.io -->
<svg version="1.1" xmlns="http://www.w3.org/2000/svg" width="32" height="32" viewBox="0 0 32 32">
<title>qt</title>
<path d="M18.709 8.885c0 0.017 0 0.038 0 0.059 0 1.994 1.617 3.611 3.611 3.611s3.611-1.617 3.611-3.611c0-1.994-1.617-3.611-3.611-3.611-0.002 0-0.003 0-0.005 0v0c-0.007 0-0.015 0-0.023 0-1.968 0-3.565 1.587-3.583 3.55v0.002zM18.709 22.229c0 0.019 0 0.041 0 0.064 0 2.492 2.020 4.512 4.512 4.512s4.512-2.020 4.512-4.512c0-2.492-2.020-4.512-4.512-4.512v0c-0.010 0-0.021 0-0.032 0-2.463 0-4.462 1.988-4.48 4.446v0.002zM4.267 15.104c0.065 3.438 2.867 6.2 6.315 6.2s6.249-2.762 6.315-6.194v-0.006c-0.003-2.301-1.261-4.307-3.127-5.371l-0.030-0.016c-0.908-0.523-1.997-0.832-3.157-0.832s-2.249 0.309-3.188 0.849l0.031-0.017c-1.895 1.081-3.152 3.086-3.157 5.386v0.001z"></path>
</svg>
