<!-- Generated by IcoMoon.io -->
<svg version="1.1" xmlns="http://www.w3.org/2000/svg" width="32" height="32" viewBox="0 0 32 32">
<title>rq</title>
<path d="M14.080 8.048h3.84v-2.256h-3.84v2.256zM23.040 8.048h1.92c0.013 0 0.027-0.001 0.042-0.001 0.671 0 1.217 0.533 1.238 1.199v15.298c-0.029 0.669-0.578 1.201-1.252 1.201-0.016 0-0.031 0-0.047-0.001h-17.902c-0.013 0-0.027 0.001-0.042 0.001-0.671 0-1.217-0.533-1.238-1.199v-15.298c0.022-0.668 0.569-1.201 1.241-1.201 0.019 0 0.039 0 0.058 0.001h1.949v-2.256h-1.952c-0.058-0.003-0.126-0.005-0.195-0.005-1.953 0-3.549 1.526-3.661 3.451v15.306c0.11 1.934 1.705 3.461 3.657 3.461 0.064 0 0.128-0.002 0.192-0.005h17.895c0.058 0.003 0.126 0.005 0.195 0.005 1.953 0 3.549-1.526 3.661-3.451v-15.306c-0.11-1.934-1.705-3.461-3.657-3.461-0.064 0-0.128 0.002-0.192 0.005h-1.911v2.256zM10.24 5.12c0.087-0.636 0.627-1.122 1.28-1.122s1.193 0.485 1.279 1.115l0.001 0.007v3.616c-0.087 0.636-0.627 1.121-1.28 1.121s-1.193-0.485-1.279-1.115l-0.001-0.007v-3.616zM19.2 5.12c0.087-0.636 0.627-1.122 1.28-1.122s1.193 0.485 1.279 1.115l0.001 0.007v3.616c-0.087 0.636-0.627 1.121-1.28 1.121s-1.193-0.485-1.279-1.115l-0.001-0.007v-3.616zM10.24 15.504c0.044-0.637 0.572-1.138 1.216-1.138 0.022 0 0.045 0.001 0.067 0.002h8.941c0.048-0.007 0.103-0.011 0.159-0.011 0.629 0 1.139 0.51 1.139 1.139s-0.51 1.139-1.139 1.139c-0.056 0-0.111-0.004-0.166-0.012l0.006 0.001h-8.944c-0.023 0.002-0.050 0.002-0.077 0.002-0.637 0-1.158-0.493-1.203-1.119v-0.004zM10.24 19.904c0.045-0.629 0.567-1.122 1.203-1.122 0.027 0 0.054 0.001 0.080 0.003h8.94c0.048-0.007 0.103-0.011 0.159-0.011 0.629 0 1.139 0.51 1.139 1.139s-0.51 1.139-1.139 1.139c-0.056 0-0.111-0.004-0.166-0.012l0.006 0.001h-8.944c-0.022 0.001-0.048 0.002-0.074 0.002-0.643 0-1.168-0.502-1.206-1.135v-0.003z"></path>
</svg>
