<!-- Generated by IcoMoon.io -->
<svg version="1.1" xmlns="http://www.w3.org/2000/svg" width="32" height="32" viewBox="0 0 32 32">
<title>rs</title>
<path d="M28.645 21.888c-0.32-2.101-4.352-3.008-5.589-3.957-0.127-0.175-0.203-0.393-0.203-0.629v0c-0.003-0.035-0.005-0.075-0.005-0.116 0-0.212 0.045-0.415 0.126-0.597l-0.004 0.009c1.31-0.975 2.149-2.52 2.149-4.26 0-0.187-0.010-0.371-0.028-0.552l0.002 0.023c-0.117-1.461-0.96-4.064-3.797-4.064h-0.203c-0.021 0-0.046-0.001-0.071-0.001-0.549 0-1.071 0.114-1.544 0.32l0.025-0.010c0.629 1.984 1.355 5.739-1.685 8.107-1.152 1.771 2.88 2.805 2.24 2.485 3.595 1.664 4.672 2.805 4.875 4.149 0.192 1.024 0.32 1.781 0.32 1.781 1.293-0.181 2.461-0.513 3.556-0.984l-0.090 0.034c0.038-0.21 0.060-0.451 0.060-0.697 0-0.37-0.049-0.729-0.141-1.070l0.007 0.029zM15.621 17.931c-0.171-0.189-0.286-0.431-0.319-0.698l-0.001-0.006c-0.006-0.044-0.009-0.094-0.009-0.146 0-0.256 0.079-0.494 0.214-0.691l-0.003 0.004s2.635-1.461 2.635-5.931c-0.075-1.813-1.152-5.131-4.747-5.131h-0.203c-3.712 0-4.672 3.243-4.757 5.099 0 4.267 2.645 5.92 2.645 5.92 0.19 0.293 0.305 0.65 0.309 1.034v0.001c-0.081 0.257-0.233 0.472-0.434 0.627l-0.003 0.002c-1.472 1.141-6.869 2.411-7.264 4.896-0.32 1.035-1.92 2.805 3.477 3.435 1.649 0.207 3.557 0.325 5.493 0.325 0.229 0 0.458-0.002 0.686-0.005h-0.035c12.384 0 9.824-2.411 9.504-3.755-0.192-2.603-5.707-3.829-7.189-4.981z"></path>
</svg>
