<!-- Generated by IcoMoon.io -->
<svg version="1.1" xmlns="http://www.w3.org/2000/svg" width="32" height="32" viewBox="0 0 32 32">
<title>sc</title>
<path d="M6.4 9.6c-0.001-0.022-0.002-0.048-0.002-0.074 0-0.844 0.684-1.528 1.528-1.528 0.026 0 0.052 0.001 0.077 0.002h3.084l0.352-2.16c0.149-0.602 0.684-1.041 1.322-1.041 0.013 0 0.027 0 0.040 0.001h6.398c0.011 0 0.025-0.001 0.038-0.001 0.638 0 1.173 0.439 1.32 1.031l0.002 0.009 0.352 2.16h3.088c0.85 0.080 1.52 0.75 1.599 1.593l0.001 0.007v1.6h-19.2v-1.6zM19.2 6.4h-6.4v1.6h6.4v-1.6zM8 12.8h16c0.878 0.013 1.587 0.722 1.6 1.599v0.001l-1.6 11.2c-0.256 0.896-1.045 1.55-1.995 1.6h-12.405c-0.853-0.071-1.529-0.747-1.6-1.594v-0.006l-1.6-11.2c0.013-0.878 0.722-1.587 1.599-1.6h0.001zM19.2 24.4h2.4l0.8-9.808h-3.2v9.808zM14.4 24.4h3.2v-9.808h-3.2v9.808zM10.4 24.4h2.4v-9.808h-3.2z"></path>
</svg>
