<!-- Generated by IcoMoon.io -->
<svg version="1.1" xmlns="http://www.w3.org/2000/svg" width="32" height="32" viewBox="0 0 32 32">
<title>shijian</title>
<path d="M29.977 2.050h-3.993c0-0.016 0.001-0.034 0.001-0.053 0-1.103-0.894-1.997-1.997-1.997s-1.997 0.894-1.997 1.997c0 0.019 0 0.037 0.001 0.055v-0.003h-11.98c0-0.016 0.001-0.034 0.001-0.053 0-1.103-0.894-1.997-1.997-1.997s-1.997 0.894-1.997 1.997c0 0.019 0 0.037 0.001 0.055v-0.003h-3.993c-0.036-0.002-0.078-0.004-0.12-0.004-1.038 0-1.879 0.841-1.879 1.879 0 0.039 0.001 0.078 0.004 0.116v-0.005 25.96c-0.002 0.036-0.004 0.078-0.004 0.12 0 1.040 0.843 1.883 1.883 1.883 0.041 0 0.082-0.001 0.122-0.004h27.947c0.035 0.002 0.075 0.004 0.116 0.004 1.040 0 1.883-0.843 1.883-1.883 0-0.042-0.001-0.084-0.004-0.126v0.006-25.96c0.002-0.033 0.003-0.072 0.003-0.111 0-1.038-0.841-1.879-1.879-1.879-0.042 0-0.084 0.001-0.126 0.004h0.006zM29.845 29.871h-27.688v-19.168h27.688v19.168zM29.845 8.564h-27.688v-4.25h27.688v4.25zM23.986 18.023c0.001 0 0.003 0 0.004 0 1.105 0 2-0.895 2-2s-0.895-2-2-2c-1.105 0-2 0.895-2 2v0c-0.002 0.033-0.003 0.072-0.003 0.111 0 1.045 0.847 1.892 1.892 1.892 0.038 0 0.075-0.001 0.113-0.003h-0.005zM16.001 18.023c0.001 0 0.002 0 0.003 0 1.105 0 2-0.895 2-2s-0.895-2-2-2c-1.105 0-2 0.895-2 2v0c-0.002 0.034-0.003 0.073-0.003 0.113 0 1.044 0.846 1.89 1.89 1.89 0.039 0 0.077-0.001 0.116-0.003h-0.005zM16.001 26.010c0.001 0 0.002 0 0.003 0 1.105 0 2-0.895 2-2s-0.895-2-2-2c-1.105 0-2 0.895-2 2v0c-0.002 0.034-0.003 0.073-0.003 0.113 0 1.044 0.846 1.89 1.89 1.89 0.039 0 0.077-0.001 0.116-0.003h-0.005zM8.014 18.023c0.001 0 0.002 0 0.003 0 1.105 0 2-0.895 2-2s-0.896-2-2-2c-1.105 0-2 0.895-2 2v0c-0.002 0.034-0.003 0.073-0.003 0.113 0 1.044 0.846 1.89 1.89 1.89 0.039 0 0.077-0.001 0.116-0.003h-0.005zM8.014 26.010c0.001 0 0.002 0 0.003 0 1.105 0 2-0.895 2-2s-0.896-2-2-2c-1.105 0-2 0.895-2 2v0c-0.002 0.034-0.003 0.073-0.003 0.113 0 1.044 0.846 1.89 1.89 1.89 0.039 0 0.077-0.001 0.116-0.003h-0.005zM10.010 24.010c-0.002 1.102-0.895 1.995-1.997 1.995s-1.997-0.894-1.997-1.997 0.894-1.997 1.997-1.997c0.001 0 0.001 0 0.001 0v0c0.033-0.002 0.071-0.003 0.109-0.003 1.044 0 1.89 0.846 1.89 1.89 0 0.040-0.001 0.079-0.004 0.118v-0.005zM10.010 16.023c-0.002 1.102-0.895 1.995-1.997 1.995s-1.997-0.894-1.997-1.997 0.894-1.997 1.997-1.997c0.001 0 0.001 0 0.001 0v0c0.033-0.002 0.071-0.003 0.109-0.003 1.044 0 1.89 0.846 1.89 1.89 0 0.040-0.001 0.079-0.004 0.118v-0.005zM17.997 24.010c-0.002 1.102-0.895 1.995-1.997 1.995s-1.997-0.894-1.997-1.997 0.894-1.997 1.997-1.997c0.001 0 0.001 0 0.001 0v0c0.033-0.002 0.071-0.003 0.109-0.003 1.044 0 1.89 0.846 1.89 1.89 0 0.040-0.001 0.079-0.004 0.118v-0.005zM17.997 16.023c-0.002 1.102-0.895 1.995-1.997 1.995s-1.997-0.894-1.997-1.997 0.894-1.997 1.997-1.997c0.001 0 0.001 0 0.001 0v0c0.033-0.002 0.071-0.003 0.109-0.003 1.044 0 1.89 0.846 1.89 1.89 0 0.040-0.001 0.079-0.004 0.118v-0.005zM25.983 16.023c-0.002 1.102-0.895 1.995-1.997 1.995s-1.997-0.894-1.997-1.997 0.894-1.997 1.997-1.997v0c0.033-0.002 0.071-0.003 0.109-0.003 1.045 0 1.892 0.847 1.892 1.892 0 0.039-0.001 0.078-0.004 0.117v-0.005zM10.010 16.023c-0.002 1.102-0.895 1.995-1.997 1.995s-1.997-0.894-1.997-1.997 0.894-1.997 1.997-1.997c0.001 0 0.001 0 0.001 0v0c0.033-0.002 0.071-0.003 0.109-0.003 1.044 0 1.89 0.846 1.89 1.89 0 0.040-0.001 0.079-0.004 0.118v-0.005zM10.010 24.010c-0.002 1.102-0.895 1.995-1.997 1.995s-1.997-0.894-1.997-1.997 0.894-1.997 1.997-1.997c0.001 0 0.001 0 0.001 0v0c0.033-0.002 0.071-0.003 0.109-0.003 1.044 0 1.89 0.846 1.89 1.89 0 0.040-0.001 0.079-0.004 0.118v-0.005zM17.997 16.023c-0.002 1.102-0.895 1.995-1.997 1.995s-1.997-0.894-1.997-1.997 0.894-1.997 1.997-1.997c0.001 0 0.001 0 0.001 0v0c0.033-0.002 0.071-0.003 0.109-0.003 1.044 0 1.89 0.846 1.89 1.89 0 0.040-0.001 0.079-0.004 0.118v-0.005zM17.997 24.010c-0.002 1.102-0.895 1.995-1.997 1.995s-1.997-0.894-1.997-1.997 0.894-1.997 1.997-1.997c0.001 0 0.001 0 0.001 0v0c0.033-0.002 0.071-0.003 0.109-0.003 1.044 0 1.89 0.846 1.89 1.89 0 0.040-0.001 0.079-0.004 0.118v-0.005zM25.983 16.023c-0.002 1.102-0.895 1.995-1.997 1.995s-1.997-0.894-1.997-1.997 0.894-1.997 1.997-1.997v0c0.033-0.002 0.071-0.003 0.109-0.003 1.045 0 1.892 0.847 1.892 1.892 0 0.039-0.001 0.078-0.004 0.117v-0.005z"></path>
</svg>
