<!-- Generated by IcoMoon.io -->
<svg version="1.1" xmlns="http://www.w3.org/2000/svg" width="32" height="32" viewBox="0 0 32 32">
<title>shijian-2</title>
<path d="M27.272 4.71c-2.891-2.893-6.886-4.683-11.299-4.683-8.822 0-15.973 7.151-15.973 15.973s7.151 15.973 15.973 15.973c4.413 0 8.408-1.79 11.299-4.683v0c2.919-2.876 4.728-6.872 4.728-11.29s-1.808-8.415-4.726-11.288l-0.002-0.002zM25.8 25.818c-2.511 2.51-5.98 4.062-9.811 4.062-7.666 0-13.88-6.214-13.88-13.88s6.214-13.88 13.88-13.88c3.831 0 7.3 1.552 9.811 4.062v0c2.538 2.501 4.11 5.976 4.11 9.818s-1.572 7.317-4.108 9.816l-0.002 0.002zM22.891 19.911l-5.534-3.175v-8.709c0-0.735-0.596-1.33-1.33-1.33s-1.33 0.596-1.33 1.33v0 9.313c0.15 0.523 0.528 0.936 1.017 1.131l0.012 0.004c0.165 0.171 0.359 0.314 0.573 0.42l0.012 0.005 5.499 3.317c0.178 0.114 0.395 0.183 0.629 0.183 0.462 0 0.862-0.267 1.053-0.655l0.003-0.007c0.085-0.175 0.134-0.38 0.134-0.597 0-0.53-0.295-0.99-0.73-1.226l-0.007-0.004z"></path>
</svg>
