<!-- Generated by IcoMoon.io -->
<svg version="1.1" xmlns="http://www.w3.org/2000/svg" width="32" height="32" viewBox="0 0 32 32">
<title>shipin</title>
<path d="M30.938 7.635c-0.675-0.424-1.565-0.424-2.442 0l-6.454 3.117v-1.285c0-1.918-1.56-3.478-3.478-3.478h-15.086c-1.918 0-3.478 1.341-3.478 2.988v13.556c0 1.983 0.899 3.478 2.092 3.478h1.396v-1.391h-1.396c-0.138 0-0.7-0.671-0.7-2.087v-13.556c0-0.866 0.956-1.597 2.087-1.597h15.086c1.151 0 2.087 0.936 2.087 2.087v13.066c0 1.151-0.936 2.087-2.087 2.087h-10.723v1.391h10.723c1.918 0 3.478-1.56 3.478-3.478v-1.28l6.456 3.146c0.441 0.215 0.885 0.322 1.304 0.322 0.413 0 0.801-0.104 1.137-0.314 0.675-0.422 1.062-1.222 1.062-2.197v-12.376c-0.001-0.974-0.387-1.775-1.062-2.199zM30.608 22.21c0 0.484-0.149 0.855-0.408 1.017-0.26 0.161-0.658 0.133-1.093-0.079l-7.066-3.443v-7.409l7.059-3.409c0.436-0.21 0.837-0.238 1.097-0.074s0.41 0.536 0.41 1.021v12.376zM4.024 11.021c0 0.557 0.452 1.009 1.009 1.009s1.009-0.452 1.009-1.009v0c0-0.557-0.452-1.009-1.009-1.009s-1.009 0.452-1.009 1.009v0z"></path>
</svg>
