<!-- Generated by IcoMoon.io -->
<svg version="1.1" xmlns="http://www.w3.org/2000/svg" width="32" height="32" viewBox="0 0 32 32">
<title>sj</title>
<path d="M16 27.2c-0.002 0-0.005 0-0.008 0-6.19 0-11.208-5.018-11.208-11.208s5.018-11.208 11.208-11.208c6.19 0 11.208 5.018 11.208 11.208 0 0.003 0 0.006 0 0.008v0c0 6.186-5.014 11.2-11.2 11.2v0zM19.568 16.208h-3.344v-5.264c0-0.627-0.509-1.136-1.136-1.136s-1.136 0.509-1.136 1.136v0 6.4c0 0.002 0 0.004 0 0.006 0 0.624 0.506 1.13 1.13 1.13 0.002 0 0.005 0 0.007 0h4.48c0.004 0 0.009 0 0.014 0 0.415 0 0.778-0.223 0.975-0.555l0.003-0.005c0.097-0.163 0.155-0.359 0.155-0.568s-0.058-0.405-0.158-0.573l0.003 0.005c-0.201-0.346-0.57-0.575-0.992-0.576v0z"></path>
</svg>
