<!-- Generated by IcoMoon.io -->
<svg version="1.1" xmlns="http://www.w3.org/2000/svg" width="32" height="32" viewBox="0 0 32 32">
<title>sjkb</title>
<path fill="#808080" d="M27.3 4.682c-2.901-2.904-6.91-4.7-11.339-4.7-8.852 0-16.028 7.176-16.028 16.028s7.176 16.028 16.028 16.028c4.429 0 8.438-1.796 11.339-4.7v0c2.91-2.894 4.712-6.9 4.712-11.328s-1.801-8.434-4.711-11.327l-0.001-0.001zM25.831 25.868c-2.52 2.518-6 4.076-9.844 4.076-7.691 0-13.925-6.235-13.925-13.925s6.235-13.925 13.925-13.925c3.844 0 7.324 1.557 9.844 4.076v0c2.53 2.516 4.096 6 4.096 9.85s-1.566 7.333-4.096 9.849l-0.001 0.001zM22.894 19.938l-5.526-3.195v-8.739c-0.004-0.739-0.602-1.336-1.34-1.34v0c-0.731 0.006-1.322 0.601-1.322 1.333 0 0.003 0 0.005 0 0.008v0 9.345c0.14 0.523 0.513 0.939 0.998 1.134l0.011 0.004c0.165 0.171 0.36 0.313 0.576 0.417l0.012 0.005 5.508 3.341c0.179 0.111 0.396 0.177 0.628 0.177 0.471 0 0.879-0.271 1.076-0.666l0.003-0.007c0.083-0.172 0.131-0.374 0.131-0.588 0-0.534-0.304-0.997-0.748-1.226l-0.008-0.004zM22.894 19.938v0z"></path>
</svg>
