<!-- Generated by IcoMoon.io -->
<svg version="1.1" xmlns="http://www.w3.org/2000/svg" width="32" height="32" viewBox="0 0 32 32">
<title>sy</title>
<path d="M27.44 25.44c-0.202 0.169-0.464 0.272-0.751 0.272 0 0-0.001 0-0.001 0v0c0 0 0 0 0 0-0.305 0-0.582-0.122-0.784-0.32v0c-0.185-0.175-0.3-0.423-0.3-0.698 0-0.29 0.128-0.549 0.331-0.725l0.001-0.001c2.358-2.007 3.851-4.971 3.872-8.284v-0.004c-0.040-3.428-1.633-6.477-4.107-8.48l-0.021-0.016c-0.225-0.18-0.368-0.455-0.368-0.764 0-0.263 0.104-0.501 0.273-0.677v0c0.208-0.207 0.495-0.335 0.813-0.335 0.275 0 0.527 0.096 0.726 0.257l-0.002-0.002c2.949 2.376 4.833 5.971 4.88 10.008v0.008c-0.022 3.907-1.78 7.398-4.542 9.745l-0.018 0.015zM22.72 21.872c-0.179 0.12-0.4 0.192-0.637 0.192-0.001 0-0.002 0-0.003 0v0c-0.005 0-0.011 0-0.017 0-0.352 0-0.664-0.169-0.861-0.429l-0.002-0.003c-0.126-0.161-0.202-0.366-0.202-0.59 0-0.345 0.182-0.647 0.454-0.816l0.004-0.002c1.545-0.948 2.56-2.628 2.56-4.545 0-1.982-1.085-3.711-2.694-4.625l-0.026-0.014c-0.295-0.167-0.492-0.48-0.492-0.838 0-0.215 0.070-0.413 0.189-0.573l-0.002 0.003c0.206-0.275 0.532-0.45 0.898-0.45 0.225 0 0.435 0.066 0.611 0.181l-0.004-0.003c2.222 1.268 3.696 3.623 3.696 6.322 0 2.608-1.376 4.894-3.441 6.172l-0.031 0.018zM16.736 28.8c-0.002 0-0.005 0-0.008 0-0.354 0-0.68-0.12-0.94-0.323l0.003 0.003-7.888-5.744h-5.696c-0.030 0.002-0.065 0.002-0.1 0.002-1.139 0-2.066-0.902-2.107-2.031v-8.772c0.059-1.127 0.988-2.018 2.124-2.018 0.030 0 0.059 0.001 0.089 0.002h5.628l7.984-6.416c0.262-0.19 0.589-0.304 0.943-0.304 0 0 0 0 0.001 0v0c0.018-0.001 0.039-0.001 0.061-0.001 0.757 0 1.374 0.595 1.411 1.342v0.003l-0.032 22.912c-0.037 0.751-0.655 1.345-1.411 1.345-0.021 0-0.043 0-0.064-0.001h0.003zM9.264 11.44c-0.387 0.309-0.884 0.495-1.424 0.496h-5.632l-0.032 8.768h5.728c0.002 0 0.003 0 0.005 0 0.51 0 0.981 0.168 1.361 0.452l-0.006-0.004 6.768 4.928 0.032-20.080z"></path>
</svg>
