<!-- Generated by IcoMoon.io -->
<svg version="1.1" xmlns="http://www.w3.org/2000/svg" width="32" height="32" viewBox="0 0 32 32">
<title>td</title>
<path d="M26.24 16.747l-3.627 3.637c-0.074 0.069-0.173 0.112-0.283 0.112s-0.209-0.043-0.283-0.112v0l-0.565-0.576c-0.069-0.074-0.112-0.173-0.112-0.283s0.043-0.209 0.112-0.283v0l2.453-2.443h-7.136v7.136l2.443-2.453c0.074-0.069 0.173-0.112 0.283-0.112s0.209 0.043 0.283 0.112v0l0.576 0.565c0.069 0.074 0.112 0.173 0.112 0.283s-0.043 0.209-0.112 0.283v0l-3.637 3.637c-0.204 0.192-0.455 0.336-0.734 0.413l-0.012 0.003c-0.292-0.090-0.545-0.233-0.76-0.418l0.003 0.002-3.627-3.637c-0.069-0.074-0.112-0.173-0.112-0.283s0.043-0.209 0.112-0.283v0l0.565-0.565c0.074-0.069 0.173-0.112 0.283-0.112s0.209 0.043 0.283 0.112v0l2.453 2.453v-7.136h-7.136l2.443 2.443c0.074 0.073 0.12 0.175 0.12 0.288s-0.046 0.215-0.12 0.288l-0.565 0.565c-0.074 0.069-0.173 0.112-0.283 0.112s-0.209-0.043-0.283-0.112v0l-3.627-3.637c-0.192-0.204-0.336-0.455-0.413-0.734l-0.003-0.012c0.093-0.292 0.235-0.544 0.419-0.761l3.624-3.624c0.074-0.069 0.173-0.112 0.283-0.112s0.209 0.043 0.283 0.112v0l0.576 0.565c0.069 0.074 0.112 0.173 0.112 0.283s-0.043 0.209-0.112 0.283v0l-2.453 2.453h7.136v-7.136l-2.453 2.453c-0.074 0.069-0.173 0.112-0.283 0.112s-0.209-0.043-0.283-0.112v0l-0.565-0.576c-0.074-0.072-0.12-0.172-0.12-0.283s0.046-0.211 0.12-0.283l3.627-3.627c0.209-0.188 0.463-0.332 0.744-0.413l0.013-0.003c0.289 0.089 0.538 0.232 0.749 0.418l3.625 3.625c0.074 0.073 0.12 0.175 0.12 0.288s-0.046 0.214-0.12 0.288l-0.565 0.565c-0.074 0.069-0.173 0.112-0.283 0.112s-0.209-0.043-0.283-0.112v0l-2.443-2.453v7.136h7.136l-2.453-2.453c-0.069-0.074-0.112-0.173-0.112-0.283s0.043-0.209 0.112-0.283v0l0.565-0.565c0.074-0.069 0.173-0.112 0.283-0.112s0.209 0.043 0.283 0.112v0l3.637 3.627c0.188 0.209 0.332 0.463 0.413 0.744l0.003 0.013c-0.087 0.291-0.234 0.541-0.428 0.748l0.001-0.001z"></path>
</svg>
