<!-- Generated by IcoMoon.io -->
<svg version="1.1" xmlns="http://www.w3.org/2000/svg" width="32" height="32" viewBox="0 0 32 32">
<title>tj1</title>
<path d="M23.36 24h-14.72c-0.353 0-0.64-0.287-0.64-0.64v0-14.72c0-0.353 0.287-0.64 0.64-0.64v0h14.72c0.353 0 0.64 0.287 0.64 0.64v0 14.72c0 0.353-0.287 0.64-0.64 0.64v0zM18.707 15.187h-1.894v-1.894c0-0.449-0.364-0.813-0.813-0.813s-0.813 0.364-0.813 0.813v0 1.894h-1.894c-0.449 0-0.813 0.364-0.813 0.813s0.364 0.813 0.813 0.813h1.894v1.894c0 0.449 0.364 0.813 0.813 0.813s0.813-0.364 0.813-0.813v0-1.894h1.894c0.449 0 0.813-0.364 0.813-0.813s-0.364-0.813-0.813-0.813v0z"></path>
</svg>
