<!-- Generated by IcoMoon.io -->
<svg version="1.1" xmlns="http://www.w3.org/2000/svg" width="32" height="32" viewBox="0 0 32 32">
<title>ts</title>
<path d="M16 6.4c-5.302 0-9.6 4.298-9.6 9.6s4.298 9.6 9.6 9.6c5.302 0 9.6-4.298 9.6-9.6v0c0-5.302-4.298-9.6-9.6-9.6v0zM14.288 22.384c-0.050 0.009-0.108 0.014-0.167 0.014-0.563 0-1.019-0.456-1.019-1.019 0-0.023 0.001-0.047 0.002-0.070v0.003c0.131-1.063 0.412-2.030 0.825-2.925l-0.025 0.061 1.344-3.44c0.144-0.352-0.032-0.528-0.192-0.528-0.704 0-1.632 1.696-1.984 1.696-0.14-0.003-0.253-0.116-0.256-0.256v0c0.271-0.564 0.643-1.038 1.097-1.419l0.007-0.005c0.738-0.762 1.756-1.249 2.888-1.296h0.008c0.832 0 1.712 0.496 1.024 2.4l-1.392 3.808c-0.157 0.316-0.275 0.682-0.333 1.067l-0.003 0.021c0 0.006-0.001 0.013-0.001 0.020 0 0.135 0.106 0.246 0.24 0.253h0.001c0.576 0 1.648-1.664 1.904-1.664 0.138 0.029 0.24 0.15 0.24 0.295 0 0.003 0 0.007 0 0.010v0c-0.848 1.577-2.374 2.696-4.176 2.972l-0.032 0.004zM17.6 12.496c-0.020 0.001-0.044 0.002-0.068 0.002-0.688 0-1.246-0.558-1.246-1.246 0-0.029 0.001-0.059 0.003-0.087v0.004c0.018-0.864 0.718-1.559 1.583-1.568h0.001c0.019-0.001 0.042-0.002 0.065-0.002 0.707 0 1.28 0.573 1.28 1.28 0 0.017 0 0.035-0.001 0.052v-0.002c-0.007 0.868-0.712 1.568-1.581 1.568-0.012 0-0.025 0-0.037 0h0.002z"></path>
</svg>
