<!-- Generated by IcoMoon.io -->
<svg version="1.1" xmlns="http://www.w3.org/2000/svg" width="32" height="32" viewBox="0 0 32 32">
<title>users</title>
<path d="M1.079 30.050c-0.592 0-1.079-0.488-1.079-1.079 0-2.803 0.888-5.467 2.559-7.695 0.801-1.079 1.776-2.020 2.873-2.786 0.923-0.662 1.933-1.184 2.995-1.584-0.992-0.644-1.828-1.497-2.472-2.507-0.801-1.288-1.236-2.786-1.236-4.3 0-4.492 3.656-8.148 8.148-8.148s8.131 3.656 8.131 8.131c0 2.768-1.375 5.293-3.674 6.807 1.045 0.383 2.037 0.905 2.942 1.55 1.097 0.783 2.072 1.724 2.873 2.803 1.689 2.246 2.577 4.91 2.577 7.695 0 0.592-0.488 1.079-1.079 1.079s-1.079-0.488-1.079-1.079c0-2.855-1.114-5.536-3.134-7.573-1.95-1.967-4.544-3.082-7.277-3.134l-0.070 0.017c-0.070 0.017-0.157 0.017-0.226 0.017h-0.087c-2.82 0-5.484 1.114-7.504 3.134s-3.134 4.718-3.134 7.573c0.017 0.592-0.47 1.079-1.045 1.079zM12.866 4.091c-3.308 0-5.989 2.681-5.989 5.989s2.681 5.989 5.989 5.989 5.989-2.681 5.989-5.989-2.681-5.989-5.989-5.989zM30.921 27.647c-0.592 0-1.079-0.488-1.079-1.079 0-4.91-3.743-8.897-8.34-8.897-0.592 0-1.079-0.488-1.079-1.079s0.488-1.079 1.079-1.079c2.524 0 4.579-2.211 4.579-4.91s-2.054-4.91-4.579-4.91c-0.592 0-1.079-0.487-1.079-1.079s0.488-1.079 1.079-1.079c3.708 0 6.738 3.169 6.738 7.069 0 1.254-0.313 2.472-0.923 3.552-0.47 0.853-1.114 1.602-1.88 2.176 1.811 0.766 3.378 2.054 4.544 3.743 1.323 1.898 2.020 4.144 2.020 6.511 0 0.575-0.47 1.062-1.079 1.062z"></path>
</svg>
