<!-- Generated by IcoMoon.io -->
<svg version="1.1" xmlns="http://www.w3.org/2000/svg" width="32" height="32" viewBox="0 0 32 32">
<title>user11</title>
<path d="M16 28c-6.627 0-12-5.373-12-12s5.373-12 12-12c6.627 0 12 5.373 12 12v0c-0.002 6.627-5.373 11.998-12 12v0zM16 8.136c-0.055-0.003-0.12-0.005-0.185-0.005-2.059 0-3.729 1.669-3.729 3.729s1.669 3.729 3.729 3.729c2.058 0 3.727-1.667 3.729-3.725v0c0.001-0.027 0.001-0.058 0.001-0.090 0-1.977-1.576-3.585-3.54-3.638h-0.005zM22.208 20.424c0.001-0.024 0.001-0.053 0.001-0.082 0-2.078-1.658-3.769-3.724-3.822h-0.469c-0.588 0.293-1.282 0.464-2.015 0.464 0 0-0.001 0-0.001 0v0c-0.736-0.002-1.432-0.173-2.052-0.476l0.028 0.012h-0.456c-2.071 0.053-3.729 1.744-3.729 3.822 0 0.029 0 0.058 0.001 0.086v-0.004 1.216c0 0.008 0 0.018 0 0.028 0 0.741 0.59 1.344 1.326 1.364h9.762c0.738-0.020 1.328-0.623 1.328-1.364 0-0.010 0-0.019 0-0.029v0.001-1.216z"></path>
</svg>
