<!-- Generated by IcoMoon.io -->
<svg version="1.1" xmlns="http://www.w3.org/2000/svg" width="32" height="32" viewBox="0 0 32 32">
<title>wjbj</title>
<path d="M25.456 20.128c-1.001-1.033-2.388-1.687-3.928-1.728h-0.744l-1.6-1.6 6.4-6.4c0.745-0.851 1.2-1.972 1.2-3.2s-0.455-2.349-1.205-3.206l0.005 0.006-9.584 9.6-9.6-9.6c-0.745 0.851-1.2 1.972-1.2 3.2s0.455 2.349 1.205 3.206l-0.005-0.006 6.4 6.4-1.6 1.6h-0.736c-1.548 0.041-2.935 0.695-3.935 1.727l-0.001 0.002c-1.054 0.89-1.72 2.213-1.72 3.692 0 1.166 0.414 2.235 1.102 3.069l-0.007-0.008c0.709 0.693 1.68 1.121 2.751 1.121 0.028 0 0.057 0 0.085-0.001h-0.004c1.552-0.044 2.944-0.697 3.951-1.727l0.001-0.001c1.050-1.009 1.702-2.424 1.702-3.992 0-0.228-0.014-0.453-0.041-0.674l0.003 0.027 1.632-1.632 1.648 1.632c-0.024 0.194-0.038 0.42-0.038 0.648 0 1.568 0.652 2.984 1.7 3.99l0.002 0.002c1.008 1.031 2.4 1.684 3.944 1.728h0.008c0.024 0.001 0.052 0.001 0.081 0.001 1.071 0 2.042-0.428 2.752-1.122l-0.001 0.001c0.682-0.826 1.096-1.895 1.096-3.060 0-1.478-0.665-2.801-1.712-3.686l-0.007-0.006zM12.016 23.536c-0.417 0.924-1.14 1.647-2.038 2.054l-0.026 0.010c-0.357 0.163-0.774 0.262-1.212 0.272h-0.004c-0.017 0.001-0.037 0.001-0.058 0.001-0.491 0-0.938-0.189-1.271-0.498l0.001 0.001c-0.299-0.323-0.482-0.756-0.482-1.232 0-0.028 0.001-0.056 0.002-0.084v0.004c0.002-0.435 0.096-0.847 0.264-1.219l-0.008 0.019c0.429-0.915 1.149-1.635 2.038-2.053l0.026-0.011c0.357-0.163 0.774-0.262 1.212-0.272h0.004c0.017-0.001 0.037-0.001 0.058-0.001 0.491 0 0.938 0.189 1.271 0.498l-0.001-0.001c0.299 0.323 0.482 0.756 0.482 1.232 0 0.028-0.001 0.056-0.002 0.084v-0.004c-0.002 0.435-0.096 0.847-0.264 1.219l0.008-0.019zM16 19.072c-0.629-0.016-1.196-0.269-1.617-0.673l0.001 0.001c-0.405-0.412-0.655-0.977-0.656-1.6v0c0-1.25 1.014-2.264 2.264-2.264s2.264 1.014 2.264 2.264v0c-0.001 0.623-0.252 1.188-0.656 1.6v0c-0.412 0.407-0.975 0.661-1.598 0.672h-0.002zM24.576 25.376c-0.333 0.308-0.779 0.497-1.27 0.497-0.020 0-0.041 0-0.061-0.001h0.003c-0.442-0.010-0.859-0.109-1.236-0.28l0.020 0.008c-0.478-0.209-0.886-0.489-1.232-0.832v0c-0.347-0.343-0.628-0.753-0.823-1.207l-0.009-0.025c-0.162-0.352-0.261-0.763-0.272-1.196v-0.004c-0.003-0.034-0.004-0.075-0.004-0.115 0-0.93 0.754-1.683 1.683-1.683 0.051 0 0.101 0.002 0.151 0.007h-0.006c0.44 0.004 0.858 0.097 1.236 0.264l-0.020-0.008c0.915 0.429 1.635 1.149 2.053 2.038l0.011 0.026c0.16 0.353 0.254 0.765 0.256 1.199v0.001c0.001 0.024 0.002 0.052 0.002 0.080 0 0.476-0.183 0.909-0.483 1.233l0.001-0.001z"></path>
</svg>
