<!-- Generated by IcoMoon.io -->
<svg version="1.1" xmlns="http://www.w3.org/2000/svg" width="32" height="32" viewBox="0 0 32 32">
<title>xiazai</title>
<path d="M24.096 14.512l-7.344 6.976c-0.167 0.164-0.396 0.266-0.648 0.266-0.245 0-0.467-0.095-0.632-0.25v0l-7.536-6.992c-0.156-0.154-0.253-0.369-0.253-0.606 0-0.47 0.381-0.851 0.851-0.851 0.015 0 0.030 0 0.044 0.001h3.422c0.009 0 0.020 0.001 0.031 0.001 0.472 0 0.856-0.378 0.865-0.848v-5.921c0.015-0.383 0.329-0.688 0.715-0.688 0.008 0 0.015 0 0.022 0h4.799c0.006 0 0.014 0 0.021 0 0.474 0 0.86 0.377 0.875 0.847v5.761c0.017 0.472 0.403 0.849 0.878 0.849 0.012 0 0.024 0 0.036-0.001h3.214c0.014-0.001 0.030-0.001 0.046-0.001 0.469 0 0.85 0.38 0.85 0.85 0 0.238-0.098 0.453-0.256 0.607v0zM8.736 23.456h14.528c0.006 0 0.014 0 0.021 0 0.386 0 0.7 0.305 0.715 0.687v1.569c-0.015 0.383-0.329 0.688-0.715 0.688-0.008 0-0.015 0-0.022 0h-14.527c-0.006 0-0.014 0-0.021 0-0.386 0-0.7-0.305-0.715-0.687v-1.569c0.015-0.383 0.329-0.688 0.715-0.688 0.008 0 0.015 0 0.022 0h-0.001z"></path>
</svg>
