<!-- Generated by IcoMoon.io -->
<svg version="1.1" xmlns="http://www.w3.org/2000/svg" width="32" height="32" viewBox="0 0 32 32">
<title>xk</title>
<path fill="#7a7a7a" d="M31.339 32.037h-30.66c-0.37 0-0.67-0.3-0.67-0.67s0.3-0.67 0.67-0.67v0h2.001v-28.034c0.001-1.47 1.192-2.661 2.662-2.662h13.329c0 0 0 0 0 0 1.474 0 2.67 1.19 2.68 2.661v2.681h5.324c1.47 0.001 2.661 1.192 2.662 2.662v22.692h2.001c0.37 0 0.67 0.3 0.67 0.67s-0.3 0.67-0.67 0.67v0zM20.011 2.662c-0.006-0.731-0.601-1.322-1.333-1.322-0.003 0-0.005 0-0.008 0h-13.328c-0.002 0-0.005 0-0.007 0-0.732 0-1.327 0.591-1.333 1.321v28.035h16.009v-28.034zM28.016 8.005c-0.006-0.731-0.601-1.322-1.333-1.322-0.003 0-0.005 0-0.008 0h-5.324v24.014h6.664v-22.692zM7.344 5.343h9.326c0.015-0.001 0.031-0.002 0.049-0.002 0.349 0 0.632 0.283 0.632 0.632 0 0.011 0 0.022-0.001 0.033v-0.002c0.001 0.010 0.001 0.022 0.001 0.034 0 0.357-0.289 0.646-0.646 0.646-0.012 0-0.024 0-0.036-0.001h-9.324c-0.009 0-0.020 0.001-0.031 0.001-0.349 0-0.632-0.283-0.632-0.632 0-0.017 0.001-0.034 0.002-0.051v0.002c-0.001-0.014-0.002-0.030-0.002-0.046 0-0.341 0.276-0.617 0.617-0.617 0.016 0 0.032 0.001 0.048 0.002h-0.002zM7.344 10.685h9.326c0.365 0 0.661 0.296 0.661 0.661s-0.296 0.661-0.661 0.661h-9.326c-0.365 0-0.661-0.296-0.661-0.661s0.296-0.661 0.661-0.661v0zM7.344 17.349h9.326c0.37 0 0.67 0.3 0.67 0.67s-0.3 0.67-0.67 0.67v0h-9.326c-0.37 0-0.67-0.3-0.67-0.67s0.3-0.67 0.67-0.67v0zM7.344 24.032h9.326c0.365 0 0.661 0.296 0.661 0.661s-0.296 0.661-0.661 0.661h-9.326c-0.365 0-0.661-0.296-0.661-0.661s0.296-0.661 0.661-0.661v0z"></path>
</svg>
