<!-- Generated by IcoMoon.io -->
<svg version="1.1" xmlns="http://www.w3.org/2000/svg" width="32" height="32" viewBox="0 0 32 32">
<title>xkjg</title>
<path d="M27.136 25.952c-0.152 0.586-0.601 1.040-1.172 1.197l-0.012 0.003c-0.121 0.031-0.261 0.049-0.404 0.049-0.475 0-0.905-0.196-1.212-0.513v0l-2.912-2.912c-1.695 1.232-3.818 1.971-6.114 1.971-5.781 0-10.467-4.686-10.467-10.467s4.686-10.467 10.467-10.467c5.781 0 10.467 4.686 10.467 10.467 0 1.449-0.294 2.829-0.827 4.084l0.026-0.069c-0.348 0.813-0.755 1.513-1.235 2.155l0.019-0.027 2.928 2.912c0.311 0.301 0.504 0.722 0.504 1.189 0 0.152-0.021 0.299-0.059 0.439l0.003-0.012zM15.2 7.984c-0.002 0-0.005 0-0.008 0-3.981 0-7.208 3.227-7.208 7.208s3.227 7.208 7.208 7.208c3.978 0 7.203-3.223 7.208-7.2v0c-0.001-3.979-3.222-7.206-7.199-7.216h-0.001z"></path>
</svg>
