<!-- Generated by IcoMoon.io -->
<svg version="1.1" xmlns="http://www.w3.org/2000/svg" width="32" height="32" viewBox="0 0 32 32">
<title>xl</title>
<path d="M22.128 13.376l-5.488 6.384c-0.17 0.149-0.394 0.24-0.64 0.24s-0.47-0.091-0.641-0.241l0.001 0.001-5.488-6.384c-0.166-0.13-0.272-0.33-0.272-0.556 0-0.106 0.023-0.207 0.065-0.297l-0.002 0.004c0.171-0.31 0.492-0.519 0.863-0.528h10.945c0.371 0.013 0.69 0.221 0.861 0.523l0.003 0.005c0.037 0.084 0.059 0.182 0.059 0.286 0 0.226-0.103 0.428-0.265 0.561l-0.001 0.001z"></path>
</svg>
