<!-- Generated by IcoMoon.io -->
<svg version="1.1" xmlns="http://www.w3.org/2000/svg" width="32" height="32" viewBox="0 0 32 32">
<title>xueyuan1</title>
<path d="M30.926 28.533h-1.99v-17.76c0-2.767-1.592-3.948-2.587-4.146l-6.368-1.973v-2.171c-0.007-0.321-0.16-0.604-0.396-0.787l-0.002-0.002c-0.188-0.128-0.42-0.204-0.67-0.204-0.044 0-0.088 0.002-0.131 0.007h0.005l-13.334 3.75s-2.388 0.592-2.388 3.75v19.536h-1.99c-0.025-0.002-0.054-0.004-0.084-0.004-0.547 0-0.991 0.444-0.991 0.991s0.444 0.991 0.991 0.991c0.029 0 0.059-0.001 0.087-0.004h29.847c0.025 0.002 0.054 0.004 0.084 0.004 0.547 0 0.991-0.444 0.991-0.991s-0.444-0.991-0.991-0.991c-0.029 0-0.059 0.001-0.087 0.004h0.004zM17.99 28.533h-12.935v-19.536c0-1.383 0.796-1.777 0.995-1.777l11.94-3.355v24.668zM26.946 28.533h-6.965v-21.906l5.771 1.973h0.2c0.199 0 0.995 0.198 0.995 2.172v17.76zM10.627 8.6h-1.99v1.974h1.99v-1.974zM15.204 8.6h-1.99v1.974h1.99v-1.974zM10.627 11.756h-1.99v1.974h1.99v-1.974zM15.204 11.756h-1.99v1.974h1.99v-1.974zM10.627 15.11h-1.99v1.974h1.99v-1.974zM15.204 15.11h-1.99v1.974h1.99v-1.974zM10.627 18.471h-1.99v1.974h1.99v-1.974zM15.204 18.471h-1.99v1.974h1.99v-1.974zM10.627 21.627h-1.99v1.974h1.99v-1.974zM15.204 21.627h-1.99v1.974h1.99v-1.974zM10.627 24.981h-1.99v1.974h1.99v-1.974zM15.204 24.981h-1.99v1.974h1.99v-1.974zM22.567 13.73h1.99v-1.974h-1.99v1.974zM22.567 17.084h1.99v-1.974h-1.99v1.974zM22.567 20.445h1.99v-1.974h-1.99v1.974zM22.567 23.601h1.99v-1.974h-1.99v1.974zM22.567 26.955h1.99v-1.974h-1.99v1.974z"></path>
</svg>
