<!-- Generated by IcoMoon.io -->
<svg version="1.1" xmlns="http://www.w3.org/2000/svg" width="32" height="32" viewBox="0 0 32 32">
<title>xueyuan</title>
<path d="M16.667 5.333h-9.333c-0.4 0-0.667 0.267-0.667 0.667s0.267 0.667 0.667 0.667h9.333c0.4 0 0.667-0.267 0.667-0.667s-0.267-0.667-0.667-0.667zM16.667 10.667h-9.333c-0.4 0-0.667 0.267-0.667 0.667s0.267 0.667 0.667 0.667h9.333c0.4 0 0.667-0.267 0.667-0.667s-0.267-0.667-0.667-0.667zM16.667 17.333h-9.333c-0.4 0-0.667 0.267-0.667 0.667s0.267 0.667 0.667 0.667h9.333c0.4 0 0.667-0.267 0.667-0.667s-0.267-0.667-0.667-0.667zM16.667 24h-9.333c-0.4 0-0.667 0.267-0.667 0.667s0.267 0.667 0.667 0.667h9.333c0.4 0 0.667-0.267 0.667-0.667s-0.267-0.667-0.667-0.667zM31.333 30.667h-2v-22.667c0-1.467-1.2-2.667-2.667-2.667h-5.333v-2.667c0-1.467-1.2-2.667-2.667-2.667h-13.333c-1.467 0-2.667 1.2-2.667 2.667v28h-2c-0.4 0-0.667 0.267-0.667 0.667s0.267 0.667 0.667 0.667h30.667c0.4 0 0.667-0.267 0.667-0.667s-0.267-0.667-0.667-0.667zM4 30.667v-28c0-0.733 0.6-1.333 1.333-1.333h13.333c0.733 0 1.333 0.6 1.333 1.333v28h-16zM21.333 30.667v-24h5.333c0.733 0 1.333 0.6 1.333 1.333v22.667h-6.667z"></path>
</svg>
