<!-- Generated by IcoMoon.io -->
<svg version="1.1" xmlns="http://www.w3.org/2000/svg" width="32" height="32" viewBox="0 0 32 32">
<title>xy1</title>
<path fill="#59a6ee" d="M30.647 11.593v5.091l1.12 1.076-2.327 2.327-2.356-2.255 1.615-1.411v-4.029c-6.836 2.72-9.033 3.564-10.545 4.218-0.63 0.318-1.374 0.505-2.161 0.505-0.702 0-1.369-0.148-1.972-0.415l0.031 0.012c-1.513-0.538-8.669-3.055-12.218-4.684-2.371-1.091-2.531-1.789 0.044-2.705 3.345-1.236 8.873-3.185 11.811-4.262 1.731-0.669 2.647-1.033 4.247-0.262 2.836 1.12 9.338 3.476 12.582 4.756 2.807 1.178 0.916 1.571 0.131 2.036v0z"></path>
<path fill="#59a6ee" opacity="0.5" d="M18.342 19.127c1.658-0.655 3.884-1.745 6.327-2.749v8.044c-2.244 1.997-5.218 3.216-8.476 3.216-0.073 0-0.146-0.001-0.219-0.002h0.011c-0.126 0.004-0.273 0.007-0.421 0.007-3.35 0-6.414-1.219-8.776-3.237l0.019 0.015v-7.505c1.876 0.742 3.985 1.367 6.545 2.211 0.739 0.3 1.596 0.475 2.495 0.475s1.755-0.174 2.54-0.491l-0.046 0.016z"></path>
</svg>
