<!-- Generated by IcoMoon.io -->
<svg version="1.1" xmlns="http://www.w3.org/2000/svg" width="32" height="32" viewBox="0 0 32 32">
<title>xz1</title>
<path d="M28.267 29.333h-24.533c-0.589 0-1.067-0.478-1.067-1.067v-24.533c0-0.589 0.478-1.067 1.067-1.067h24.533c0.589 0 1.067 0.478 1.067 1.067v0 24.533c0 0.589-0.478 1.067-1.067 1.067v0zM20.512 14.645h-3.16v-3.157c0 0 0 0 0 0 0-0.747-0.606-1.353-1.353-1.353s-1.353 0.606-1.353 1.353c0 0 0 0 0 0v0 3.157h-3.157c-0.748 0-1.355 0.607-1.355 1.355s0.607 1.355 1.355 1.355v0h3.157v3.157c0 0 0 0 0 0 0 0.747 0.606 1.353 1.353 1.353s1.353-0.606 1.353-1.353c0 0 0 0 0 0v0-3.157h3.16c0.748 0 1.355-0.607 1.355-1.355s-0.607-1.355-1.355-1.355v0z"></path>
</svg>
