<!-- Generated by IcoMoon.io -->
<svg version="1.1" xmlns="http://www.w3.org/2000/svg" width="32" height="32" viewBox="0 0 32 32">
<title>Frame-120</title>
<path d="M8.363 7.4h-1.296c2.257-2.344 5.426-3.8 8.933-3.8 6.848 0 12.4 5.552 12.4 12.4s-5.552 12.4-12.4 12.4c-6.848 0-12.4-5.552-12.4-12.4 0-0.884-0.716-1.6-1.6-1.6s-1.6 0.716-1.6 1.6c0 8.616 6.984 15.6 15.6 15.6s15.6-6.984 15.6-15.6c0-8.616-6.984-15.6-15.6-15.6-4.359 0-8.299 1.788-11.129 4.668v-1.159c0-0.884-0.716-1.6-1.6-1.6s-1.6 0.716-1.6 1.6v5.091c0 0.884 0.716 1.6 1.6 1.6h5.091c0.884 0 1.6-0.716 1.6-1.6s-0.716-1.6-1.6-1.6z"></path>
<path d="M17.603 7.6c0-0.884-0.716-1.6-1.6-1.6s-1.6 0.716-1.6 1.6l-0.001 8.406c-0 0.424 0.169 0.831 0.469 1.132l5.936 5.936c0.625 0.625 1.638 0.625 2.263 0s0.625-1.638 0-2.263l-5.467-5.467 0.001-7.743z"></path>
</svg>
