<!-- Generated by IcoMoon.io -->
<svg version="1.1" xmlns="http://www.w3.org/2000/svg" width="32" height="32" viewBox="0 0 32 32">
<path d="M2 8c1.105 0 2-0.895 2-2s-0.895-2-2-2c-1.105 0-2 0.895-2 2s0.895 2 2 2z"></path>
<path d="M2 18c1.105 0 2-0.895 2-2s-0.895-2-2-2c-1.105 0-2 0.895-2 2s0.895 2 2 2z"></path>
<path d="M4 26c0 1.105-0.895 2-2 2s-2-0.895-2-2c0-1.105 0.895-2 2-2s2 0.895 2 2z"></path>
<path d="M10 4c-1.105 0-2 0.895-2 2s0.895 2 2 2h18c1.105 0 2-0.895 2-2s-0.895-2-2-2h-18z"></path>
<path d="M8 16c0-1.105 0.895-2 2-2h18c1.105 0 2 0.895 2 2s-0.895 2-2 2h-18c-1.105 0-2-0.895-2-2z"></path>
<path d="M10 24c-1.105 0-2 0.895-2 2s0.895 2 2 2h18c1.105 0 2-0.895 2-2s-0.895-2-2-2h-18z"></path>
</svg>
