<?xml version="1.0" standalone="no"?><!DOCTYPE svg PUBLIC "-//W3C//DTD SVG 1.1//EN" "http://www.w3.org/Graphics/SVG/1.1/DTD/svg11.dtd">
<svg t="1611036809089" class="icon" viewBox="0 0 1391 1024" version="1.1"
  xmlns="http://www.w3.org/2000/svg" p-id="9115"
  xmlns:xlink="http://www.w3.org/1999/xlink" width="271.6796875" height="200">
  <defs>
    <style type="text/css"></style>
  </defs>
  <path d="M399.172081 994.435058L29.488803 624.994779a101.087803 101.087803 0 0 1 0-142.640721 101.168802 101.168802 0 0 1 142.640721 0l297.431419 297.512419L1219.862478 29.483942a101.168802 101.168802 0 0 1 142.640721 0 101.087803 101.087803 0 0 1 0 142.640722L551.451783 983.25708a99.791805 99.791805 0 0 1-9.638981 11.177978 100.682803 100.682803 0 0 1-71.36086 29.564942 100.277804 100.277804 0 0 1-71.279861-29.564942z" fill="#fff" p-id="9116"></path>
</svg>