<?xml version="1.0" standalone="no"?><!DOCTYPE svg PUBLIC "-//W3C//DTD SVG 1.1//EN" "http://www.w3.org/Graphics/SVG/1.1/DTD/svg11.dtd"><svg t="1611036691491" class="icon" viewBox="0 0 1024 1024" version="1.1" xmlns="http://www.w3.org/2000/svg" p-id="5042" xmlns:xlink="http://www.w3.org/1999/xlink" width="200" height="200"><defs><style type="text/css"></style></defs><path d="M892.701749 1001.478987L512 620.777237l-380.701749 380.70175a76.928214 76.928214 0 0 1-108.740074 0 76.928214 76.928214 0 0 1 0-108.740074l380.701749-380.70175L22.558177 131.335414a76.928214 76.928214 0 0 1 0-108.740074 76.928214 76.928214 0 0 1 108.740074 0l380.627422 380.701749L892.553096 22.59534a76.928214 76.928214 0 0 1 108.740074 0 76.77956 76.77956 0 0 1 0 108.740074L620.59142 512.037163l380.70175 380.70175a76.928214 76.928214 0 0 1 0 108.740074 76.630907 76.630907 0 0 1-54.332874 22.298033 76.630907 76.630907 0 0 1-54.258547-22.298033z" fill="#fff" p-id="5043"></path></svg>