<!-- Generated by IcoMoon.io -->
<svg version="1.1" xmlns="http://www.w3.org/2000/svg" width="32" height="32" viewBox="0 0 32 32">
<path d="M21.704 0.477c-0.301-0.304-0.71-0.475-1.138-0.475s-0.837 0.171-1.138 0.475l-14.967 15.141c-0.296 0.3-0.462 0.704-0.462 1.125v5.32c0 0.884 0.716 1.6 1.6 1.6h5.292c0.427 0 0.837-0.171 1.137-0.475l14.958-15.12c0.617-0.623 0.617-1.627 0-2.251l-5.283-5.34zM7.2 17.4l13.367-13.523 3.032 3.065-13.375 13.52h-3.024v-3.062z"></path>
<path d="M5.6 26.599c-0.884 0-1.6 0.716-1.6 1.6s0.716 1.6 1.6 1.6h22.75c0.884 0 1.6-0.716 1.6-1.6s-0.716-1.6-1.6-1.6h-22.75z"></path>
</svg>
