<svg width="16" height="16" viewBox="0 0 16 16" fill="none" xmlns="http://www.w3.org/2000/svg">
<path d="M4.1814 3.70023H3.53346C4.66193 2.5282 6.24633 1.8002 8.0002 1.8002C11.4244 1.8002 14.2002 4.57603 14.2002 8.0002C14.2002 11.4244 11.4244 14.2002 8.0002 14.2002C4.57603 14.2002 1.8002 11.4244 1.8002 8.0002C1.8002 7.55837 1.44202 7.2002 1.0002 7.2002C0.558368 7.2002 0.200195 7.55837 0.200195 8.0002C0.200195 12.308 3.69237 15.8002 8.0002 15.8002C12.308 15.8002 15.8002 12.308 15.8002 8.0002C15.8002 3.69237 12.308 0.200195 8.0002 0.200195C5.82071 0.200195 3.85057 1.09434 2.43594 2.53417V1.95479C2.43594 1.51296 2.07777 1.15479 1.63594 1.15479C1.19411 1.15479 0.835938 1.51296 0.835938 1.95479V4.50023C0.835938 4.94206 1.19411 5.30023 1.63594 5.30023H4.1814C4.62323 5.30023 4.9814 4.94206 4.9814 4.50023C4.9814 4.05841 4.62323 3.70023 4.1814 3.70023Z" fill="#919599"/>
<path d="M8.80159 3.80008C8.80164 3.35825 8.4435 3.00004 8.00167 3C7.55984 2.99996 7.20164 3.35809 7.20159 3.79992L7.20117 8.003C7.20115 8.2152 7.28544 8.41872 7.43549 8.56877L10.4033 11.5366C10.7157 11.849 11.2222 11.849 11.5346 11.5366C11.8471 11.2241 11.8471 10.7176 11.5346 10.4052L8.8012 7.67174L8.80159 3.80008Z" fill="#919599"/>
</svg>
