<svg width="24" height="24" viewBox="0 0 24 24" fill="none" xmlns="http://www.w3.org/2000/svg">
<path fill-rule="evenodd" clip-rule="evenodd" d="M21.4189 12C21.4189 17.0643 17.2678 21.2 12.1095 21.2C6.95114 21.2 2.8 17.0643 2.8 12C2.8 6.93574 6.95114 2.8 12.1095 2.8C17.2678 2.8 21.4189 6.93574 21.4189 12ZM23.2189 12C23.2189 18.0751 18.245 23 12.1095 23C5.97387 23 1 18.0751 1 12C1 5.92487 5.97387 1 12.1095 1C18.245 1 23.2189 5.92487 23.2189 12ZM14.5946 8.05612C14.9478 7.70639 14.9507 7.13655 14.6009 6.78334C14.2512 6.43013 13.6814 6.42731 13.3282 6.77704L8.69922 11.3604C8.52851 11.5294 8.43246 11.7597 8.43246 11.9999C8.43246 12.2401 8.52851 12.4704 8.69922 12.6394L13.3282 17.2228C13.6814 17.5725 14.2512 17.5697 14.6009 17.2165C14.9507 16.8633 14.9478 16.2934 14.5946 15.9437L10.6116 11.9999L14.5946 8.05612Z" fill="#929599"/>
</svg>
