<svg width="32" height="32" viewBox="0 0 32 32" fill="none" xmlns="http://www.w3.org/2000/svg">
<path fill-rule="evenodd" clip-rule="evenodd" d="M16 25C20.9706 25 25 20.9706 25 16C25 11.0294 20.9706 7 16 7C11.0294 7 7 11.0294 7 16C7 20.9706 11.0294 25 16 25ZM19.4904 12.6519C19.8168 12.9783 19.8168 13.5074 19.4904 13.8338L17.2526 16.0716L19.49 18.3091C19.8164 18.6354 19.8164 19.1645 19.49 19.4909C19.1637 19.8173 18.6345 19.8173 18.3081 19.4909L16.0707 17.2535L13.8336 19.4907C13.5072 19.817 12.9781 19.817 12.6517 19.4907C12.3253 19.1643 12.3253 18.6351 12.6517 18.3088L14.8889 16.0716L12.6513 13.834C12.325 13.5077 12.325 12.9786 12.6513 12.6522C12.9777 12.3258 13.5068 12.3258 13.8332 12.6522L16.0707 14.8898L18.3086 12.6519C18.635 12.3256 19.1641 12.3256 19.4904 12.6519Z" fill="#F64646"/>
</svg>
