<!-- Generated by IcoMoon.io -->
<svg version="1.1" xmlns="http://www.w3.org/2000/svg" width="32" height="32" viewBox="0 0 32 32">
<path fill="#2abf8e" d="M6.869 14.744l8 8.268c0.624 0.644 1.639 0.644 2.262 0l8-8.268c0.624-0.645 0.624-1.693 0-2.338-0.627-0.647-1.639-0.647-2.262 0l-5.267 5.443v-14.197c0-0.914-0.717-1.652-1.602-1.652s-1.602 0.738-1.602 1.652v14.197l-5.267-5.443c-0.312-0.325-0.723-0.483-1.131-0.483-0.411 0-0.819 0.161-1.131 0.483-0.627 0.645-0.627 1.693 0 2.338zM28 28.245c0 0.97-0.76 1.755-1.701 1.755h-20.598c-0.941 0-1.701-0.788-1.701-1.755 0-0.973 0.76-1.758 1.701-1.758h20.601c0.938-0.003 1.698 0.785 1.698 1.758z"></path>
</svg>
