<!-- Generated by IcoMoon.io -->
<svg version="1.1" xmlns="http://www.w3.org/2000/svg" width="32" height="32" viewBox="0 0 32 32">
<path fill="#3dd6a3" d="M31.999 16.533c-0.040-2.228-0.506-4.427-1.373-6.48-0.855-2.018-2.093-3.851-3.647-5.396-1.521-1.515-3.33-2.712-5.319-3.52-1.96-0.793-4.061-1.178-6.174-1.133-2.089 0.044-4.172 0.513-6.075 1.379-1.911 0.87-3.63 2.111-5.057 3.651-1.432 1.546-2.55 3.355-3.294 5.326s-1.101 4.067-1.055 6.173c0.039 2.089 0.478 4.151 1.293 6.074 0.803 1.889 1.966 3.603 3.423 5.049 1.426 1.417 3.121 2.536 4.986 3.29 1.827 0.736 3.785 1.093 5.754 1.051s3.91-0.483 5.704-1.297c1.785-0.816 3.39-1.979 4.721-3.421 2.157-2.335 3.531-5.285 3.928-8.439 0.041 0.003 0.081 0.005 0.122 0.004 1.139 0 2.064-0.954 2.064-2.132 0-0.058-0.004-0.119-0.009-0.179h0.007zM28.718 22.197c-0.751 1.761-1.837 3.359-3.199 4.705-1.332 1.319-2.914 2.359-4.653 3.059-1.702 0.681-3.525 1.011-5.359 0.968s-3.639-0.456-5.308-1.215c-1.659-0.761-3.15-1.845-4.386-3.188-1.241-1.346-2.208-2.921-2.849-4.636-0.639-1.712-0.944-3.531-0.899-5.358 0.044-1.818 0.429-3.612 1.138-5.255 0.7-1.632 1.71-3.113 2.975-4.359 1.237-1.22 2.705-2.181 4.318-2.828 1.577-0.628 3.266-0.93 4.963-0.888s3.368 0.429 4.912 1.135c1.533 0.708 2.911 1.714 4.052 2.958 1.144 1.246 2.036 2.702 2.626 4.288 0.587 1.582 0.865 3.262 0.821 4.948h0.007c-0.004 0.060-0.007 0.118-0.007 0.179 0 1.1 0.806 2.004 1.84 2.121-0.199 1.156-0.532 2.285-0.992 3.364v0.001z"></path>
</svg>
