<!-- Generated by IcoMoon.io -->
<svg version="1.1" xmlns="http://www.w3.org/2000/svg" width="32" height="32" viewBox="0 0 32 32">
<path d="M13.933 2c1.068 0 1.601 0.54 1.601 1.618 0 1.512-1.392 1.582-1.579 1.584h-8.753v21.597h21.597v-8.799c0 0 0.012-1.642 1.601-1.642 1.058 0 1.591 0.547 1.601 1.642v8.799c0 1.769-1.433 3.201-3.201 3.201h-21.597c-0.42 0-0.837-0.082-1.226-0.243s-0.742-0.397-1.039-0.694c-0.297-0.297-0.533-0.65-0.694-1.039s-0.243-0.805-0.243-1.225v-21.597c0-1.769 1.433-3.201 3.201-3.201h8.731zM27.187 4.813c0.624 0.624 0.624 1.637 0 2.263l-10.527 10.523h3.745c0.802 0 1.466 0.593 1.582 1.366l0.017 0.235c0 0.424-0.168 0.831-0.468 1.131s-0.706 0.469-1.13 0.47h-7.007l-0.293-0.019c-0.49-0.027-0.952-0.236-1.296-0.586-0.442-0.444-0.571-0.907-0.6-1.517l-0.005-7.079c0.016-0.413 0.192-0.805 0.49-1.092s0.696-0.447 1.11-0.447c0.414 0 0.812 0.16 1.11 0.447s0.474 0.678 0.49 1.092l0.002 3.729 10.518-10.515c0.624-0.624 1.639-0.624 2.263 0z"></path>
</svg>
