<!-- Generated by IcoMoon.io -->
<svg version="1.1" xmlns="http://www.w3.org/2000/svg" width="32" height="32" viewBox="0 0 32 32">
<path d="M0 16c0-8.837 7.163-16 16-16s16 7.163 16 16c0 8.837-7.163 16-16 16s-16-7.163-16-16zM16 4c-6.627 0-12 5.373-12 12s5.373 12 12 12c6.627 0 12-5.373 12-12s-5.373-12-12-12z"></path>
<path d="M15.213 6.461c1.105 0 2 0.896 2 2l-0.001 6.869 3.865 4.799c0.693 0.86 0.557 2.119-0.303 2.812s-2.119 0.557-2.812-0.303l-4.308-5.348c-0.286-0.355-0.442-0.798-0.442-1.255l0.001-7.575c0-1.105 0.896-2 2-2z"></path>
</svg>
