<!-- Generated by IcoMoon.io -->
<svg version="1.1" xmlns="http://www.w3.org/2000/svg" width="48" height="32" viewBox="0 0 48 32">
<path d="M24 8c-4.418 0-8 3.582-8 8s3.582 8 8 8c4.418 0 8-3.582 8-8s-3.582-8-8-8zM21.333 16c0-1.473 1.194-2.667 2.667-2.667s2.667 1.194 2.667 2.667c0 1.473-1.194 2.667-2.667 2.667s-2.667-1.194-2.667-2.667z"></path>
<path d="M24 0c-6.857 0-12.805 3.842-16.828 7.315-2.052 1.772-3.706 3.537-4.847 4.859-0.572 0.662-1.020 1.218-1.328 1.614-0.154 0.198-0.274 0.356-0.358 0.468-0.042 0.056-0.075 0.101-0.098 0.133l-0.028 0.039-0.013 0.018c-0.665 0.928-0.666 2.179-0.001 3.107l2.168-1.553c-2.168 1.553-2.166 1.556-2.166 1.556l0.003 0.004 0.009 0.012 0.028 0.039c0.023 0.032 0.056 0.077 0.098 0.133 0.084 0.112 0.203 0.27 0.358 0.468 0.308 0.396 0.756 0.951 1.328 1.614 1.141 1.321 2.795 3.087 4.847 4.859 4.022 3.473 9.971 7.315 16.828 7.315s12.806-3.842 16.828-7.315c2.053-1.772 3.706-3.537 4.847-4.859 0.572-0.663 1.019-1.218 1.328-1.614 0.154-0.198 0.274-0.356 0.358-0.468 0.042-0.056 0.075-0.101 0.098-0.133l0.028-0.039 0.009-0.012 0.004-0.006c0.665-0.928 0.666-2.179 0.001-3.107l-2.168 1.553c2.168-1.553 2.166-1.556 2.166-1.556l-0.003-0.004-0.009-0.012-0.028-0.039c-0.023-0.032-0.056-0.077-0.098-0.133-0.083-0.112-0.203-0.27-0.358-0.468-0.309-0.396-0.756-0.951-1.328-1.614-1.141-1.321-2.795-3.087-4.847-4.859-4.022-3.473-9.971-7.315-16.828-7.315zM45.333 16l2.167 1.554c0 0 0.001-0.001-2.167-1.554zM2.666 16l-2.167-1.554c0 0-0.001 0.001 2.167 1.554zM6.361 16.34c-0.102-0.118-0.199-0.231-0.291-0.34 0.092-0.109 0.189-0.223 0.291-0.34 1.018-1.179 2.488-2.747 4.296-4.308 3.699-3.194 8.417-6.018 13.342-6.018s9.643 2.825 13.342 6.018c1.808 1.561 3.279 3.129 4.297 4.308 0.102 0.118 0.199 0.231 0.291 0.34-0.092 0.109-0.189 0.223-0.291 0.34-1.018 1.179-2.488 2.747-4.297 4.308-3.699 3.194-8.417 6.018-13.342 6.018s-9.643-2.825-13.342-6.018c-1.808-1.561-3.279-3.129-4.296-4.308z"></path>
</svg>
