<!-- Generated by IcoMoon.io -->
<svg version="1.1" xmlns="http://www.w3.org/2000/svg" width="32" height="32" viewBox="0 0 32 32">
<path d="M13.271 2.853c-0.349-0.66-1.107-0.991-1.828-0.798-2.438 0.652-4.638 1.862-6.443 3.483-0.54 0.485-0.686 1.272-0.356 1.918 0.164 0.322 0.256 0.681 0.256 1.064 0 1.304-1.111 2.455-2.6 2.455l-0.037-0c-0.701-0.010-1.327 0.438-1.544 1.105-0.468 1.438-0.72 2.967-0.72 4.551 0 1.045 0.11 2.067 0.319 3.055 0.168 0.796 0.907 1.338 1.716 1.261 0.086-0.008 0.175-0.012 0.265-0.012 1.489 0 2.6 1.152 2.6 2.455 0 0.588-0.217 1.131-0.593 1.561-0.553 0.633-0.522 1.587 0.072 2.182 1.844 1.85 4.17 3.244 6.778 3.993 0.825 0.237 1.691-0.219 1.961-1.035 0.321-0.971 1.289-1.722 2.482-1.722s2.161 0.752 2.482 1.722c0.27 0.815 1.136 1.272 1.961 1.035 2.609-0.75 4.934-2.143 6.778-3.993 0.594-0.596 0.625-1.549 0.072-2.182-0.376-0.43-0.593-0.973-0.593-1.561 0-1.304 1.111-2.455 2.6-2.455 0.090 0 0.178 0.004 0.265 0.012 0.81 0.077 1.548-0.466 1.716-1.261 0.209-0.988 0.319-2.010 0.319-3.055 0-1.584-0.252-3.113-0.72-4.551-0.217-0.667-0.842-1.115-1.544-1.105l-0.037 0c-1.489 0-2.6-1.152-2.6-2.455 0-0.383 0.092-0.742 0.256-1.064 0.33-0.646 0.184-1.433-0.356-1.918-1.805-1.62-4.005-2.831-6.443-3.483-0.721-0.193-1.479 0.139-1.828 0.798-0.419 0.792-1.291 1.362-2.329 1.362s-1.91-0.57-2.329-1.362zM8.1 8.519c0-0.437-0.051-0.862-0.147-1.271 0.982-0.741 2.084-1.343 3.273-1.774 1.069 1.196 2.64 1.941 4.374 1.941s3.305-0.745 4.374-1.941c1.189 0.431 2.291 1.033 3.273 1.774-0.096 0.409-0.147 0.835-0.147 1.271 0 2.766 2.010 5.004 4.61 5.535 0.19 0.828 0.29 1.69 0.29 2.576 0 0.399-0.020 0.793-0.060 1.181-2.71 0.443-4.84 2.731-4.84 5.578 0 0.834 0.186 1.624 0.516 2.334-0.961 0.784-2.049 1.43-3.23 1.905-1.052-1.497-2.816-2.46-4.786-2.46s-3.734 0.963-4.786 2.46c-1.181-0.475-2.268-1.121-3.23-1.905 0.33-0.71 0.516-1.501 0.516-2.334 0-2.847-2.13-5.134-4.84-5.578-0.040-0.388-0.060-0.782-0.060-1.181 0-0.885 0.1-1.747 0.29-2.576 2.6-0.532 4.61-2.769 4.61-5.535zM16 10.503c-3.092 0-5.6 2.506-5.6 5.598s2.508 5.598 5.6 5.598c3.092 0 5.6-2.506 5.6-5.598s-2.508-5.598-5.6-5.598zM13.6 16.101c0-1.324 1.074-2.398 2.4-2.398s2.4 1.074 2.4 2.398c0 1.324-1.074 2.398-2.4 2.398s-2.4-1.074-2.4-2.398z"></path>
</svg>
