<!-- Generated by IcoMoon.io -->
<svg version="1.1" xmlns="http://www.w3.org/2000/svg" width="32" height="32" viewBox="0 0 32 32">
<path d="M8.99 13.027c-1.095 0-1.982 0.884-1.982 1.974s0.888 1.974 1.982 1.974h7.71c1.095 0 1.982-0.884 1.982-1.974s-0.887-1.974-1.982-1.974h-7.71z"></path>
<path d="M7.008 21.131c0-1.090 0.888-1.974 1.982-1.974h14.018c1.095 0 1.982 0.884 1.982 1.974s-0.887 1.974-1.982 1.974h-14.018c-1.095 0-1.982-0.884-1.982-1.974z"></path>
<path d="M8.99 0c-1.095 0-1.982 0.884-1.982 1.974v1.091h-3.624c-2.039 0-3.384 1.748-3.384 3.506v19.923c0 1.759 1.345 3.506 3.384 3.506h25.232c2.039 0 3.384-1.748 3.384-3.506v-19.923c0-1.759-1.345-3.506-3.384-3.506h-3.624v-1.091c0-1.090-0.888-1.974-1.982-1.974s-1.982 0.884-1.982 1.974v1.091h-10.055v-1.091c0-1.090-0.887-1.974-1.982-1.974zM21.027 7.012v1.092c0 1.090 0.887 1.974 1.982 1.974s1.982-0.884 1.982-1.974v-1.092h3.044v19.041h-24.071v-19.041h3.043v1.092c0 1.090 0.888 1.974 1.982 1.974s1.982-0.884 1.982-1.974v-1.092h10.055z"></path>
</svg>
