<svg width="24" height="24" viewBox="0 0 24 24" fill="none" xmlns="http://www.w3.org/2000/svg">
<path fill-rule="evenodd" clip-rule="evenodd" d="M4.00003 7.00003C4.00003 6.44775 4.44775 6.00003 5.00003 6.00003H19C19.5523 6.00003 20 6.44775 20 7.00003V17.5C20 18.0523 19.5523 18.5 19 18.5H5.00003C4.44775 18.5 4.00003 18.0523 4.00003 17.5V7.00003ZM6.00003 8.00003V16.5H18V8.00003H6.00003Z" fill="#2ABF8E"/>
<path fill-rule="evenodd" clip-rule="evenodd" d="M4.24076 6.34923C4.60018 5.9299 5.23148 5.88134 5.65081 6.24076L12 11.6829L18.3492 6.24076C18.7686 5.88134 19.3999 5.9299 19.7593 6.34923C20.1187 6.76855 20.0701 7.39985 19.6508 7.75927L12.6508 13.7593C12.2763 14.0803 11.7237 14.0803 11.3492 13.7593L4.34923 7.75927C3.9299 7.39985 3.88134 6.76855 4.24076 6.34923Z" fill="#2ABF8E"/>
<path fill-rule="evenodd" clip-rule="evenodd" d="M4.00003 7.00003C4.00003 6.44775 4.44775 6.00003 5.00003 6.00003H12C12.5523 6.00003 13 6.44775 13 7.00003C13 7.55232 12.5523 8.00003 12 8.00003H6.00003V12.25C6.00003 12.8023 5.55232 13.25 5.00003 13.25C4.44775 13.25 4.00003 12.8023 4.00003 12.25V7.00003Z" fill="#2ABF8E"/>
<path fill-rule="evenodd" clip-rule="evenodd" d="M11 7.00003C11 6.44775 11.4477 6.00003 12 6.00003H19C19.5523 6.00003 20 6.44775 20 7.00003V12.25C20 12.8023 19.5523 13.25 19 13.25C18.4477 13.25 18 12.8023 18 12.25V8.00003H12C11.4477 8.00003 11 7.55232 11 7.00003Z" fill="#2ABF8E"/>
</svg>
