<svg width="16" height="16" viewBox="0 0 16 16" fill="none" xmlns="http://www.w3.org/2000/svg">
<path d="M1 4C1.55228 4 2 3.55228 2 3C2 2.44772 1.55228 2 1 2C0.447715 2 0 2.44772 0 3C0 3.55228 0.447715 4 1 4Z" fill="#929599"/>
<path d="M1 9C1.55228 9 2 8.55228 2 8C2 7.44772 1.55228 7 1 7C0.447715 7 0 7.44772 0 8C0 8.55228 0.447715 9 1 9Z" fill="#929599"/>
<path d="M2 13C2 13.5523 1.55228 14 1 14C0.447715 14 0 13.5523 0 13C0 12.4477 0.447715 12 1 12C1.55228 12 2 12.4477 2 13Z" fill="#929599"/>
<path d="M5 2C4.44772 2 4 2.44772 4 3C4 3.55228 4.44771 4 5 4H14C14.5523 4 15 3.55228 15 3C15 2.44772 14.5523 2 14 2H5Z" fill="#929599"/>
<path d="M4 8C4 7.44772 4.44772 7 5 7H14C14.5523 7 15 7.44772 15 8C15 8.55228 14.5523 9 14 9H5C4.44771 9 4 8.55228 4 8Z" fill="#929599"/>
<path d="M5 12C4.44772 12 4 12.4477 4 13C4 13.5523 4.44771 14 5 14H14C14.5523 14 15 13.5523 15 13C15 12.4477 14.5523 12 14 12H5Z" fill="#929599"/>
</svg>
