<!-- Generated by IcoMoon.io -->
<svg version="1.1" xmlns="http://www.w3.org/2000/svg" width="32" height="32" viewBox="0 0 32 32">
<path fill="#2abf8e" d="M16.279 7.533c0.247-0.102 0.512-0.152 0.779-0.149 0.266-0 0.528 0.052 0.774 0.154s0.469 0.251 0.657 0.439c0.188 0.188 0.337 0.411 0.439 0.657s0.154 0.509 0.154 0.775c0.004 0.266-0.046 0.53-0.149 0.776s-0.255 0.468-0.447 0.652c-0.382 0.376-0.896 0.587-1.432 0.587s-1.051-0.211-1.432-0.587c-0.19-0.187-0.341-0.409-0.444-0.655s-0.156-0.509-0.156-0.775c0-0.266 0.053-0.53 0.156-0.775s0.254-0.468 0.444-0.655c0.187-0.191 0.41-0.341 0.657-0.443z"></path>
<path fill="#2abf8e" d="M17.654 23.268c0.154-0.004 0.307-0.038 0.448-0.1 0.138-0.051 0.27-0.115 0.396-0.192l0.52-0.34-0.303 1.78-0.112 0.064c-0.554 0.316-0.976 0.544-1.289 0.696-0.382 0.18-0.8 0.271-1.223 0.264-0.327 0.015-0.653-0.047-0.951-0.182s-0.56-0.338-0.765-0.594c-0.407-0.544-0.616-1.209-0.594-1.888-0.001-0.286 0.012-0.571 0.040-0.856 0.026-0.28 0.072-0.608 0.132-0.968l0.666-3.392c0.059-0.316 0.107-0.62 0.147-0.904 0.036-0.249 0.056-0.5 0.058-0.752 0.029-0.254-0.017-0.512-0.134-0.74-0.067-0.057-0.146-0.1-0.231-0.126s-0.174-0.033-0.262-0.022c-0.145 0.001-0.288 0.034-0.419 0.096-0.15 0.059-0.296 0.129-0.437 0.208l-0.502 0.292 0.296-1.736 0.108-0.064c0.413-0.244 0.838-0.468 1.272-0.672 0.389-0.185 0.813-0.286 1.243-0.296 0.323-0.015 0.645 0.047 0.939 0.18s0.553 0.335 0.755 0.588c0.404 0.551 0.608 1.222 0.58 1.904 0 0.152-0.012 0.416-0.038 0.792-0.021 0.355-0.067 0.708-0.138 1.056l-0.662 3.364c-0.055 0.268-0.102 0.572-0.142 0.904-0.036 0.251-0.057 0.503-0.063 0.756-0.032 0.253 0.018 0.51 0.143 0.732 0.148 0.115 0.334 0.168 0.52 0.148z"></path>
<path fill="#2abf8e" d="M7.111 29.303c2.631 1.758 5.725 2.697 8.889 2.697 4.243 0 8.313-1.686 11.314-4.686s4.686-7.070 4.686-11.314c0-3.165-0.938-6.258-2.697-8.889s-4.257-4.682-7.181-5.893-6.141-1.528-9.244-0.91c-3.104 0.617-5.955 2.141-8.192 4.379s-3.761 5.089-4.379 8.192c-0.617 3.104-0.3 6.321 0.91 9.244s3.262 5.423 5.893 7.181zM8.889 5.357c2.105-1.406 4.58-2.157 7.111-2.157 3.395 0 6.651 1.349 9.051 3.749s3.749 5.656 3.749 9.051c0 2.532-0.751 5.006-2.157 7.111s-3.406 3.745-5.744 4.714c-2.339 0.969-4.913 1.222-7.396 0.728s-4.764-1.713-6.554-3.503-3.009-4.071-3.503-6.554c-0.494-2.483-0.24-5.057 0.728-7.396s2.609-4.338 4.714-5.744z"></path>
</svg>
