<?xml version="1.0" standalone="no"?><!DOCTYPE svg PUBLIC "-//W3C//DTD SVG 1.1//EN" "http://www.w3.org/Graphics/SVG/1.1/DTD/svg11.dtd"><svg t="1587522144216" class="icon" viewBox="0 0 1024 1024" version="1.1" xmlns="http://www.w3.org/2000/svg" p-id="1879" xmlns:xlink="http://www.w3.org/1999/xlink" width="200" height="200"><defs><style type="text/css"></style></defs><path d="M963.583118 423.967752C963.583118 189.876589 761.446753 0 512.06174 0 262.553247 0 60.416882 189.876589 60.416882 423.967752c0 7.425543 0.744407 14.623531 1.24009 21.935297C61.284768 449.44339 60.416882 452.985495 60.416882 456.640496c0 260.938308 416.797988 556.492403 416.797988 556.492403s34.72339 24.448992 69.445898 0c34.722508-24.448992 416.797988-295.554095 416.797988-556.492403 0-3.655883-0.867886-7.197106-1.240089-10.739211 0.496565-7.311766 1.364451-14.508872 1.364451-21.935297zM511.93826 621.645616c-95.984345 0-173.614305-77.298329-173.614305-172.739363 0-95.321964 77.754322-172.620293 173.614305-172.620293 95.859983 0 173.737785 77.298329 173.737785 172.619411 0 95.442798-77.754322 172.739363-173.737785 172.739363z" p-id="1880"></path></svg>