<svg xmlns="http://www.w3.org/2000/svg" width="23.969" height="23.97" viewBox="0 0 23.969 23.97">
  <defs>
    <style>
      .cls-1 {
        fill: #bc4343;
        fill-rule: evenodd;
      }
    </style>
  </defs>
  <path id="矩形_20_拷贝" data-name="矩形 20 拷贝" class="cls-1" d="M693.515,1237.51a12,12,0,1,1,0,16.98A12.011,12.011,0,0,1,693.515,1237.51Zm9.9,8.49,3.536,3.54a1,1,0,0,1-1.415,1.41L702,1247.41l-3.536,3.54a1,1,0,0,1-1.414-1.41l3.536-3.54-3.536-3.54a1,1,0,0,1,1.414-1.41l3.536,3.54,3.535-3.54a1,1,0,0,1,1.415,1.41Z" transform="translate(-690.031 -1234.03)"/>
</svg>
