<?xml version="1.0" standalone="no"?><!DOCTYPE svg PUBLIC "-//W3C//DTD SVG 1.1//EN" "http://www.w3.org/Graphics/SVG/1.1/DTD/svg11.dtd"><svg t="1586330428674" class="icon" viewBox="0 0 1024 1024" version="1.1" xmlns="http://www.w3.org/2000/svg" p-id="8003" xmlns:xlink="http://www.w3.org/1999/xlink" width="200" height="200"><defs><style type="text/css"></style></defs><path d="M770.526 716.8c-53.453 88.542-151.962 143.155-258.594 143.36-106.701-0.205-205.21-54.818-258.73-143.36a39.595 39.595 0 0 1-1.298-41.916 43.008 43.008 0 0 1 37.888-21.026c15.701 0.205 29.97 8.67 37.205 21.982 38.298 63.283 108.68 102.263 184.935 102.4 76.185-0.137 146.5-39.117 184.73-102.4a43.008 43.008 0 0 1 37-20.685 43.008 43.008 0 0 1 37.069 20.48 39.595 39.595 0 0 1-0.137 41.165m117.214-512H119.125c-46.899 0-84.923 36.523-84.992 81.579v655.906c0 45.056 38.093 81.715 84.992 81.715h768.683c46.967-0.068 84.924-36.59 84.992-81.647V286.447c0-45.056-38.093-81.579-84.992-81.647M503.467 81.92c70.587 0 128 55.16 128 122.88H716.8C716.8 91.887 621.09 0 503.467 0S290.133 91.887 290.133 204.8h85.334c0-67.72 57.412-122.88 128-122.88" p-id="8004"></path></svg>