<?xml version="1.0" standalone="no"?><!DOCTYPE svg PUBLIC "-//W3C//DTD SVG 1.1//EN" "http://www.w3.org/Graphics/SVG/1.1/DTD/svg11.dtd"><svg t="1586328748815" class="icon" viewBox="0 0 1147 1024" version="1.1" xmlns="http://www.w3.org/2000/svg" p-id="6081" xmlns:xlink="http://www.w3.org/1999/xlink" width="224.0234375" height="200"><defs><style type="text/css"></style></defs><path d="M1068.248282 945.16285h-70.894571V422.901071c0-43.520343-35.317787-78.7724-78.838131-78.7724h-271.358332V160.896066c0-43.454613-35.247152-78.701765-78.834207-78.701765H212.343291c-43.521324 0-78.839112 35.247152-78.839112 78.772401v784.266784H70.813145A39.490191 39.490191 0 0 0 31.393589 984.581425c0 21.727307 17.756999 39.418575 39.418574 39.418575h997.436119a39.424461 39.424461 0 0 0 0-78.7724v-0.065731zM750.209646 521.918412c0-5.513499 4.369595-9.817364 9.88898-9.817364h84.752879A9.747709 9.747709 0 0 1 854.674755 521.918412v35.449248a9.747709 9.747709 0 0 1-9.88898 9.88898h-84.752879a9.747709 9.747709 0 0 1-9.82325-9.685903V521.918412z m0 206.981854c0-5.513499 4.369595-9.818345 9.88898-9.818345h84.752879a9.747709 9.747709 0 0 1 9.82325 9.818345v35.449248a9.747709 9.747709 0 0 1-9.616248 9.888981h-85.025611a9.751633 9.751633 0 0 1-9.82325-9.685903V728.900266zM424.30201 319.242384c0-5.44875 4.369595-9.752615 9.88898-9.752614h84.757785a9.747709 9.747709 0 0 1 9.818345 9.818345v35.449248a9.747709 9.747709 0 0 1-9.686885 9.818345h-84.95988a9.747709 9.747709 0 0 1-9.818345-9.685904v-35.64742z m0 202.677009c0-5.51448 4.369595-9.818345 9.88898-9.818345h84.757785A9.747709 9.747709 0 0 1 528.766138 521.918412v35.449248a9.747709 9.747709 0 0 1-9.88898 9.88898h-84.757784a9.751633 9.751633 0 0 1-9.82325-9.685903V521.918412z m0 206.980873c0-5.513499 4.369595-9.818345 9.88898-9.818345h84.757785a9.747709 9.747709 0 0 1 9.818345 9.818345v35.449248a9.747709 9.747709 0 0 1-9.616249 9.888981h-85.030516a9.75752 9.75752 0 0 1-9.82325-9.685903V728.900266zM251.894307 319.242384c0-5.44875 4.303865-9.752615 9.818345-9.752614h84.76269a9.700619 9.700619 0 0 1 9.818344 9.818345v35.449248a9.747709 9.747709 0 0 1-9.686884 9.818345h-84.890226a9.747709 9.747709 0 0 1-9.817364-9.685904v-35.64742z m0 202.677009a9.700619 9.700619 0 0 1 9.818345-9.818345h84.76269A9.700619 9.700619 0 0 1 356.293686 521.918412v35.449248a9.747709 9.747709 0 0 1-9.616248 9.88898h-84.959881a9.747709 9.747709 0 0 1-9.818345-9.685903V521.918412z m0 206.980873a9.700619 9.700619 0 0 1 9.818345-9.818345h84.76269a9.700619 9.700619 0 0 1 9.818344 9.818345v35.449248a9.747709 9.747709 0 0 1-9.616248 9.888981h-84.959881a9.747709 9.747709 0 0 1-9.818345-9.685903V728.900266z" p-id="6082"></path></svg>