<?xml version="1.0" standalone="no"?><!DOCTYPE svg PUBLIC "-//W3C//DTD SVG 1.1//EN" "http://www.w3.org/Graphics/SVG/1.1/DTD/svg11.dtd"><svg t="1586330582955" class="icon" viewBox="0 0 1024 1024" version="1.1" xmlns="http://www.w3.org/2000/svg" p-id="8778" xmlns:xlink="http://www.w3.org/1999/xlink" width="200" height="200"><defs><style type="text/css"></style></defs><path d="M956.194568 903.485892h-50.149226v-655.3592c0-15.346703-10.117826-27.914003-22.485169-27.914003H568.637832c-12.367343 0-22.485169 12.557302-22.485169 27.914003V903.625862h-71.954542V27.914003c0-15.346703-10.117826-27.914003-22.485169-27.914003H136.900588c-12.367343 0-22.485169 12.557302-22.485169 27.914003v875.711859H67.975396c-12.367343 0-22.485169 12.557302-22.485169 27.914002v64.336178c0 15.346703 10.117826 27.914003 22.485169 27.914003h888.219172c12.367343 0 22.485169-12.557302 22.485169-27.914003v-64.336178c0.009998-15.496671-10.117826-28.053973-22.485169-28.053972zM619.686864 382.377849c0-15.346703 10.117826-27.914003 22.485169-27.914003h169.553573c12.367343 0 22.485169 12.557302 22.485169 27.914003v33.772744c0 15.346703-10.117826 27.914003-22.485169 27.914002H642.172033c-12.367343 0-22.485169-12.557302-22.485169-27.914002v-33.772744z m0 178.351682c0-15.346703 10.117826-27.914003 22.485169-27.914003h169.553573c12.367343 0 22.485169 12.557302 22.485169 27.914003v33.772744c0 15.346703-10.117826 27.914003-22.485169 27.914003H642.172033c-12.367343 0-22.485169-12.557302-22.485169-27.914003v-33.772744zM187.829646 158.53594c0-15.346703 10.117826-27.914003 22.485169-27.914003h169.553573c12.367343 0 22.485169 12.557302 22.485169 27.914003v33.772744c0 15.346703-10.117826 27.914003-22.485169 27.914003H210.314815c-12.367343 0-22.485169-12.557302-22.485169-27.914003v-33.772744z m0 178.351682c0-15.346703 10.117826-27.914003 22.485169-27.914003h169.553573c12.367343 0 22.485169 12.557302 22.485169 27.914003v33.772744c0 15.346703-10.117826 27.914003-22.485169 27.914003H210.314815c-12.367343 0-22.485169-12.557302-22.485169-27.914003v-33.772744z m0 179.471441c0-15.346703 10.117826-27.914003 22.485169-27.914002h169.553573c12.367343 0 22.485169 12.557302 22.485169 27.914002v33.772745c0 15.346703-10.117826 27.914003-22.485169 27.914002H210.314815c-12.367343 0-22.485169-12.557302-22.485169-27.914002v-33.772745z" p-id="8779"></path></svg>