<?xml version="1.0" standalone="no"?><!DOCTYPE svg PUBLIC "-//W3C//DTD SVG 1.1//EN" "http://www.w3.org/Graphics/SVG/1.1/DTD/svg11.dtd"><svg t="1586310680751" class="icon" viewBox="0 0 1024 1024" version="1.1" xmlns="http://www.w3.org/2000/svg" p-id="2443" xmlns:xlink="http://www.w3.org/1999/xlink" width="200" height="200"><defs><style type="text/css"></style></defs><path d="M548.571429 970.971429h272.274285a77.531429 77.531429 0 0 0 78.445715-76.617143V592.457143H548.571429zM146.285714 892.708571a78.628571 78.628571 0 0 0 78.445715 78.262858h248.137142V592.457143H146.285714zM912.64 261.485714h-179.748571a109.714286 109.714286 0 0 0 43.885714-74.605714 116.48 116.48 0 0 0-23.04-86.125714 119.954286 119.954286 0 0 0-164.571429-22.857143c-47.908571 32.365714-73.142857 152.868571-76.434285 175.725714-5.851429-22.857143-28.708571-141.348571-76.617143-177.737143a118.125714 118.125714 0 0 0-164.571429 23.04 107.885714 107.885714 0 0 0-22.857143 85.942857 107.337143 107.337143 0 0 0 42.057143 78.445715H117.211429A38.765714 38.765714 0 0 0 73.142857 296.411429V501.028571a42.605714 42.605714 0 0 0 43.52 42.057143h789.942857A42.788571 42.788571 0 0 0 950.857143 500.845714v-201.142857a38.217143 38.217143 0 0 0-38.217143-38.217143zM329.142857 215.771429a42.24 42.24 0 0 1-24.868571-38.034286 54.857143 54.857143 0 0 1 9.508571-47.908572 57.6 57.6 0 0 1 49.554286-24.868571 60.16 60.16 0 0 1 40.228571 13.348571c17.005714 11.52 35.291429 63.085714 48.274286 114.834286-47.908571 0-107.154286-1.828571-122.697143-17.371428z m388.388572-40.228572a68.754286 68.754286 0 0 1-24.868572 42.057143c-11.52 13.348571-66.925714 17.188571-118.491428 17.188571 10.971429-49.737143 29.257143-101.302857 45.714285-114.651428a60.525714 60.525714 0 0 1 85.211429 10.422857 54.857143 54.857143 0 0 1 12.434286 44.982857z" p-id="2444"></path></svg>