<?xml version="1.0" standalone="no"?><!DOCTYPE svg PUBLIC "-//W3C//DTD SVG 1.1//EN" "http://www.w3.org/Graphics/SVG/1.1/DTD/svg11.dtd"><svg t="1586315094143" class="icon" viewBox="0 0 1024 1024" version="1.1" xmlns="http://www.w3.org/2000/svg" p-id="2120" xmlns:xlink="http://www.w3.org/1999/xlink" width="200" height="200"><defs><style type="text/css"></style></defs><path d="M813.595239 764.17531c0-103.622392-88.676364-219.205987-193.303429-266.038822 50.818687-35.866576 84.196691-94.653316 84.196691-161.412973 0-109.106738-88.177676-197.28928-197.284415-197.28928s-197.28928 88.182542-197.28928 196.790592c0 67.258345 33.875475 127.037594 85.194066 162.410349-103.129787 48.328898-189.317578 173.876511-189.317579 262.551658 0 164.906218 607.803946 164.906218 607.803946 2.988476z m43.345673-284.467149c39.853644-27.89974 65.262379-73.735201 65.262378-125.546396 0-84.695378-68.749542-153.449786-153.44492-153.449786-21.422884 0-42.347081 4.484538-60.782706 12.457456 26.906014 33.875475 43.345672 76.72246 43.345673 123.056609 0 66.758441-33.376788 126.045084-84.196691 161.417838 104.6222 46.82797 193.303429 162.910252 193.303429 266.040039 0 3.980986-0.498687 7.968053-0.997375 11.455216 82.20559-11.953904 147.966656-41.349706 147.966656-88.177676 0-80.216921-68.754407-170.389348-150.456444-207.2533zM158.45977 761.186834c0-88.675148 86.192657-214.222761 189.317579-262.550442-51.313725-35.866576-85.1892-95.152003-85.189201-162.410348 0-47.331523 16.938346-91.171018 44.83687-125.052575-17.437033-6.974327-36.370129-10.46149-56.296951-10.46149-84.695378 0-153.44492 68.754407-153.444921 153.449786 0 52.3111 26.402461 98.639167 66.259754 126.538906C83.733276 518.068175 16.474931 616.21352 16.474931 684.963062c0 46.832836 63.272494 76.723676 142.983431 89.181133-0.498687-3.987067-0.998591-8.471606-0.998592-12.957361z m0 0" p-id="2121"></path></svg>