<?xml version="1.0" standalone="no"?><!DOCTYPE svg PUBLIC "-//W3C//DTD SVG 1.1//EN" "http://www.w3.org/Graphics/SVG/1.1/DTD/svg11.dtd"><svg t="1588816536492" class="icon" viewBox="0 0 1024 1024" version="1.1" xmlns="http://www.w3.org/2000/svg" p-id="2755" xmlns:xlink="http://www.w3.org/1999/xlink" width="200" height="200"><defs><style type="text/css"></style></defs><path d="M512 1024C229.236 1024 0 794.764 0 512S229.236 0 512 0s512 229.236 512 512-229.236 512-512 512z m0-62.06c248.49 0 449.94-201.45 449.94-449.94S760.49 62.06 512 62.06 62.06 263.51 62.06 512 263.51 961.94 512 961.94z m250.228-572.99L483.421 672.426a35.995 35.995 0 0 1-51.448 0l-157.557-160.24a37.066 37.066 0 0 1-10.658-26.128c0-20.434 16.29-36.957 36.352-36.957a35.995 35.995 0 0 1 25.724 10.83l131.878 134.05 253.1-257.365a36.088 36.088 0 0 1 25.723-10.799c20.061 0 36.368 16.57 36.368 36.957 0 10.225-4.08 19.472-10.675 26.174z" p-id="2756" fill="#BC4343"></path></svg>