<?xml version="1.0" standalone="no"?><!DOCTYPE svg PUBLIC "-//W3C//DTD SVG 1.1//EN" "http://www.w3.org/Graphics/SVG/1.1/DTD/svg11.dtd"><svg t="1586311094015" class="icon" viewBox="0 0 1024 1024" version="1.1" xmlns="http://www.w3.org/2000/svg" p-id="3198" xmlns:xlink="http://www.w3.org/1999/xlink" width="200" height="200"><defs><style type="text/css"></style></defs><path d="M670.564352 367.904768c10.274816 0 20.453376 0.751616 30.539776 1.878016-27.439104-127.772672-164.050944-222.703616-319.975424-222.703616-174.32576 0-317.126656 118.816768-317.126656 269.703168 0 87.095296 47.511552 158.611456 126.900224 214.081536L159.1808 726.26176l110.860288-55.59296c39.66976 7.856128 71.503872 15.9232 111.087616 15.9232 9.955328 0 19.820544-0.49152 29.607936-1.255424-6.201344-21.202944-9.787392-43.411456-9.787392-66.445312-0.002048-138.555392 118.976512-250.986496 269.615104-250.986496z m-170.512384-85.981184c23.877632 0 39.694336 15.712256 39.694336 39.571456 0 23.769088-15.816704 39.696384-39.694336 39.696384-23.775232 0-47.622144-15.925248-47.622144-39.696384 0-23.86944 23.851008-39.571456 47.622144-39.571456z m-221.949952 79.265792c-23.764992 0-47.753216-15.925248-47.753216-39.70048 0-23.863296 23.988224-39.56736 47.753216-39.56736 23.771136 0 39.58784 15.702016 39.58784 39.56736 0 23.775232-15.816704 39.70048-39.58784 39.70048z" p-id="3199"></path><path d="M960 615.069696c0-126.785536-126.871552-230.127616-269.365248-230.127616-150.888448 0-269.727744 103.340032-269.727744 230.127616 0 127.008768 118.837248 230.135808 269.727744 230.135808 31.578112 0 63.4368-7.964672 95.15008-15.919104l86.984704 47.634432-23.846912-79.251456c63.65184-47.755264 111.077376-111.079424 111.077376-182.59968z m-356.818944-39.677952c-15.792128 0-31.721472-15.70816-31.721472-31.735808 0-15.798272 15.929344-31.709184 31.721472-31.709184 23.988224 0 39.696384 15.910912 39.696384 31.709184 0 16.027648-15.70816 31.735808-39.696384 31.735808z m174.434304 0c-15.67744 0-31.496192-15.70816-31.496192-31.735808 0-15.798272 15.818752-31.709184 31.496192-31.709184 23.771136 0 39.696384 15.910912 39.696384 31.709184 0 16.027648-15.925248 31.735808-39.696384 31.735808z" p-id="3200"></path></svg>