<!-- Generated by IcoMoon.io -->
<svg version="1.1" xmlns="http://www.w3.org/2000/svg" width="32" height="32" viewBox="0 0 32 32">
<title>banxuan</title>
<path d="M28 32h-24c-2.209 0-4-1.791-4-4v0-24c0-2.209 1.791-4 4-4v0h24c2.209 0 4 1.791 4 4v0 24c0 2.209-1.791 4-4 4v0zM4.286 2.286c-1.105 0-2 0.895-2 2v0 23.428c0 1.105 0.895 2 2 2v0h23.428c1.105 0 2-0.895 2-2v0-23.428c0-1.105-0.895-2-2-2v0z"></path>
<path d="M10.858 6.858h10.286q4 0 4 4v10.286q0 4-4 4h-10.286q-4 0-4-4v-10.286q0-4 4-4z"></path>
</svg>
