<!-- Generated by IcoMoon.io -->
<svg version="1.1" xmlns="http://www.w3.org/2000/svg" width="32" height="32" viewBox="0 0 32 32">
<title>bianji</title>
<path d="M18.027 11.058l-12.296 12.28 1.43 1.428 12.296-12.275zM20.974 14.001l-12.298 12.273 2.863 2.861 12.303-12.277zM16.598 9.63l-1.437-1.43-12.296 12.275 1.43 1.433zM31.421 6.431l-5.811-5.804c-0.358-0.386-0.867-0.627-1.433-0.627s-1.075 0.241-1.432 0.625l-0.001 0.001-3.542 3.535 8.683 8.656 3.537-3.528c0.352-0.372 0.569-0.875 0.569-1.429s-0.217-1.058-0.57-1.43l0.001 0.001zM0.011 32.002h6.151l-6.151-6.147zM14.407 32.002h14.396v-2.015h-14.396z"></path>
</svg>
