<!-- Generated by IcoMoon.io -->
<svg version="1.1" xmlns="http://www.w3.org/2000/svg" width="32" height="32" viewBox="0 0 32 32">
<title>chuangkaobei4</title>
<path d="M28.7 31.984h-2.21c-0.004 0-0.010 0-0.015 0-0.087 0-0.166-0.036-0.223-0.093l-0-0c-0.058-0.056-0.093-0.135-0.093-0.221 0-0.006 0-0.013 0.001-0.019l-0 0.001v-3.704c-0-0.004-0-0.010-0-0.015 0-0.176 0.142-0.318 0.318-0.318 0.005 0 0.009 0 0.014 0l-0.001-0h2.21c0.179 0.013 0.321 0.157 0.331 0.336l0 0.001v3.699c0 0.004 0 0.009 0 0.014 0 0.088-0.036 0.168-0.093 0.226v0c-0.057 0.057-0.136 0.093-0.223 0.093-0 0-0 0-0 0v0zM5.493 31.984h-2.24c-0.004 0-0.010 0-0.015 0-0.178 0-0.322-0.144-0.322-0.322 0-0.004 0-0.007 0-0.011v0.001-3.703c-0-0.003-0-0.007-0-0.011 0-0.178 0.144-0.322 0.322-0.322 0.005 0 0.010 0 0.015 0l-0.001-0h2.24c0.225 0 0.391 0.168 0.335 0.332v3.699c0 0.004 0 0.009 0 0.014 0 0.088-0.036 0.168-0.095 0.225l-0 0c-0.058 0.057-0.138 0.093-0.226 0.093-0 0-0 0-0 0v0zM30.181 26.088h-28.713v-5.329c-0-0.003-0-0.007-0-0.011 0-0.101 0.035-0.193 0.094-0.266l-0.001 0.001c0.054-0.068 0.136-0.112 0.229-0.112 0 0 0 0 0 0h28.347c0.196 0.025 0.349 0.182 0.367 0.379l0 0.002v4.92c0 0.001 0 0.003 0 0.004 0 0.107-0.035 0.207-0.094 0.287l0.001-0.001c-0.051 0.069-0.13 0.115-0.22 0.119l-0.001 0zM1.758 18.918c-0.115-0.011-0.212-0.081-0.262-0.178l-0.001-0.002c-0.030-0.056-0.048-0.122-0.048-0.192 0-0.056 0.011-0.109 0.031-0.158l-0.001 0.003c2.305-5.694 7.79-9.637 14.196-9.637 0.105 0 0.209 0.001 0.313 0.003l-0.016-0c9.625 0 13.555 7.739 14.49 9.634 0.018 0.046 0.029 0.099 0.029 0.154 0 0.070-0.017 0.137-0.048 0.195l0.001-0.002c-0.051 0.099-0.148 0.168-0.261 0.18l-0.001 0zM3.108 11.597c-0.11-0.070-0.183-0.189-0.187-0.326l-0-0.001v-8.018c-0.001-0.009-0.001-0.020-0.001-0.030 0-0.152 0.074-0.286 0.187-0.37l0.001-0.001c3.293-1.795 7.211-2.85 11.377-2.85 0.519 0 1.034 0.016 1.545 0.049l-0.070-0.004h0.045c5.189 0 9.158 0.688 12.886 2.864 0.114 0.051 0.191 0.164 0.191 0.294 0 0.018-0.001 0.035-0.004 0.052l0-0.002v7.959c0 0.003 0 0.006 0 0.009 0 0.142-0.068 0.268-0.173 0.348l-0.001 0.001c-0.045 0.031-0.101 0.049-0.161 0.049-0.067 0-0.129-0.023-0.178-0.061l0.001 0.001c-0.749-0.805-1.593-1.506-2.519-2.090l-0.052-0.031c-0.073-0.031-0.13-0.089-0.159-0.161l-0.001-0.002c-0.018-0.044-0.029-0.096-0.029-0.149 0-0.038 0.005-0.074 0.015-0.109l-0.001 0.003 0.276-1.529c0.001-0.012 0.002-0.026 0.002-0.039 0-0.069-0.017-0.135-0.048-0.192l0.001 0.002c-1.368-3.204-5.7-4.236-7.709-1.597 0 0.060 0 0.060-0.045 0.115l-0.421 1.204c-0.016 0.081-0.060 0.15-0.123 0.197l-0.001 0.001c-0.036 0.026-0.082 0.042-0.131 0.042-0.025 0-0.050-0.004-0.072-0.012l0.002 0c-0.466 0-0.746-0.171-1.307-0.171h-0.187c-0.55 0.022-1.069 0.084-1.575 0.182l0.065-0.011c-0.011 0.001-0.023 0.002-0.036 0.002-0.141 0-0.259-0.097-0.291-0.228l-0-0.002-0.409-1.199c0-0.060 0-0.060-0.045-0.115-2.057-2.636-6.449-1.662-7.757 1.716l0.187 1.717c0.003 0.019 0.005 0.041 0.005 0.063 0 0.143-0.076 0.267-0.191 0.336l-0.002 0.001c-0.971 0.615-1.813 1.295-2.57 2.060l-0.001 0.001c-0.050 0.047-0.117 0.076-0.191 0.077h-0c-0.054-0-0.104-0.016-0.146-0.043l0.001 0.001z"></path>
</svg>
