<!-- Generated by IcoMoon.io -->
<svg version="1.1" xmlns="http://www.w3.org/2000/svg" width="32" height="32" viewBox="0 0 32 32">
<title>daochu</title>
<path d="M29.995 21.599c-0.034-0.002-0.073-0.003-0.113-0.003-1.044 0-1.89 0.846-1.89 1.89 0 0.040 0.001 0.079 0.004 0.118l-0-0.005v4.399h-23.995v-23.995h4.399c1.104-0 1.999-0.895 1.999-2s-0.895-1.999-1.999-2h-6.399c-0.034-0.002-0.073-0.003-0.113-0.003-1.044 0-1.89 0.846-1.89 1.89 0 0.040 0.001 0.079 0.004 0.118l-0-0.005v27.994c-0.002 0.034-0.003 0.073-0.003 0.113 0 1.044 0.846 1.89 1.89 1.89 0.040 0 0.079-0.001 0.118-0.004l-0.005 0h27.994c0.034 0.002 0.073 0.003 0.113 0.003 1.044 0 1.89-0.846 1.89-1.89 0-0.040-0.001-0.079-0.004-0.118l0 0.005v-6.399c0.002-0.034 0.003-0.073 0.003-0.113 0-1.044-0.846-1.89-1.89-1.89-0.040 0-0.079 0.001-0.118 0.004l0.005-0z"></path>
<path d="M29.995 0.003h-11.598c-1.104 0-1.999 0.895-1.999 2s0.895 1.999 1.999 2h6.799l-14.797 14.597c-0.421 0.366-0.685 0.902-0.685 1.5 0 1.096 0.889 1.985 1.985 1.985 0.498 0 0.954-0.184 1.302-0.487l-0.002 0.002 15-14.797v6.799c0 1.104 0.895 1.999 2 1.999s1.999-0.895 2-1.999v0-11.598c0.002-0.034 0.003-0.073 0.003-0.113 0-1.044-0.846-1.89-1.89-1.89-0.040 0-0.079 0.001-0.118 0.004l0.005-0z"></path>
</svg>
