<!-- Generated by IcoMoon.io -->
<svg version="1.1" xmlns="http://www.w3.org/2000/svg" width="32" height="32" viewBox="0 0 32 32">
<title>fenpei</title>
<path d="M30.121 28.697h-5.647c-0.037 0.003-0.080 0.004-0.123 0.004-0.974 0-1.764-0.79-1.764-1.764 0-0.043 0.002-0.086 0.005-0.129l-0 0.006v-3.765c-0-0.012-0-0.025-0-0.039 0-1.018 0.826-1.844 1.844-1.844 0.014 0 0.027 0 0.041 0l-0.002-0h1.882c0-0.020 0-0.045 0.008-0.075 0.035-0.285 0.055-0.614 0.055-0.948 0-2.33-0.973-4.433-2.534-5.925l-0.003-0.003c-0.213-0.187-0.459-0.345-0.725-0.463l-0.018-0.007c-0.404-0.148-0.735-0.417-0.958-0.761l-0.005-0.007c-0.313-0.006-0.61-0.064-0.886-0.167l0.019 0.006c-0.177-0.067-0.381-0.11-0.595-0.118l-0.004-0h-3.765v8.471h1.882c0.064-0.009 0.138-0.014 0.213-0.014 0.929 0 1.683 0.753 1.683 1.683 0 0.075-0.005 0.149-0.014 0.222l0.001-0.009v3.765c0.001 0.018 0.001 0.040 0.001 0.061 0 1.006-0.816 1.822-1.822 1.822-0.022 0-0.043-0-0.064-0.001l0.003 0h-5.647c-1.171 0-1.882-0.063-1.882-0.941v-4.706c-0-0.005-0-0.012-0-0.018 0-1.030 0.835-1.865 1.865-1.865 0.006 0 0.013 0 0.019 0h1.881v-8.471h-3.765c-0.233 0.021-0.446 0.083-0.641 0.177l0.011-0.005c-0.166 0.082-0.36 0.139-0.564 0.159l-0.007 0.001c-0.004 0-0.008 0-0.012 0-0.080 0-0.155-0.025-0.216-0.068l0.001 0.001c-0.667 0.357-1.241 0.774-1.751 1.258l0.004-0.003c-1.564 1.492-2.537 3.593-2.537 5.921 0 0.338 0.021 0.672 0.061 1l-0.004-0.039c0 0.029 0.006 0.052 0.008 0.071h1.882c0.054-0.006 0.116-0.009 0.179-0.009 0.946 0 1.713 0.767 1.713 1.713 0 0.063-0.003 0.125-0.010 0.186l0.001-0.008v3.765c0.001 0.024 0.002 0.052 0.002 0.080 0 0.997-0.808 1.804-1.804 1.804-0.028 0-0.056-0.001-0.084-0.002l0.004 0h-5.647c-1.040 0-1.882-0.843-1.882-1.882v0-3.765c-0-0.012-0-0.027-0-0.042 0-1.017 0.824-1.841 1.841-1.841 0.015 0 0.029 0 0.044 0.001l-0.002-0h1.882l-0.009-0.112c-0.038-0.33-0.059-0.712-0.059-1.099 0-0.759 0.083-1.5 0.24-2.212l-0.013 0.068c0.446-1.881 1.403-3.495 2.715-4.738l0.004-0.004c0.714-0.687 1.534-1.272 2.43-1.727l0.057-0.026v-6.306c0.071-0.971 0.876-1.731 1.859-1.731 0.041 0 0.082 0.001 0.123 0.004l-0.006-0h9.862c0.035-0.002 0.076-0.004 0.118-0.004 0.983 0 1.788 0.76 1.859 1.725l0 0.006v6.343c0.926 0.475 1.721 1.047 2.419 1.719l-0.003-0.003c1.317 1.247 2.275 2.861 2.709 4.678l0.013 0.065c0.146 0.647 0.23 1.39 0.23 2.153 0 0.384-0.021 0.763-0.063 1.136l0.004-0.046-0.018 0.111h1.882c1.040 0 1.882 0.843 1.882 1.882v0 3.765c-0.015 1.034-0.849 1.868-1.881 1.882h-0.001zM24.483 23.059v3.738h5.629v-3.738zM13.169 23.059v3.738h5.676v-3.738zM1.883 23.059v3.738h5.629v-3.738zM11.286 5.175v5.638h9.432v-5.638z"></path>
</svg>
