<!-- Generated by IcoMoon.io -->
<svg version="1.1" xmlns="http://www.w3.org/2000/svg" width="32" height="32" viewBox="0 0 32 32">
<title>fuxuankuang</title>
<path d="M28 31.998h-24c-2.209 0-4-1.791-4-4v0-24c0-2.209 1.791-4 4-4v0h24c2.209 0 4 1.791 4 4v0 24c0 2.209-1.791 4-4 4v0zM8.38 13.914c-0.001 0-0.003 0-0.004 0-0.4 0-0.763 0.159-1.030 0.416l0-0c-0.28 0.27-0.462 0.641-0.488 1.053l-0 0.005v0.2c0.023 0.373 0.171 0.708 0.401 0.968l-0.001-0.002 4.942 5.536 0.078 0.082c0.267 0.263 0.634 0.426 1.039 0.426 0.001 0 0.002 0 0.003 0h-0c0.47-0.001 0.889-0.217 1.164-0.555l0.002-0.003 9.142-11.164c0.182-0.257 0.291-0.578 0.291-0.923 0-0.478-0.208-0.908-0.539-1.203l-0.002-0.001c-0.245-0.215-0.563-0.352-0.912-0.37l-0.004-0h-0.198c-0.419 0.038-0.784 0.244-1.032 0.549l-0.002 0.003-7.952 9.72-3.778-4.228-0.078-0.080c-0.267-0.265-0.635-0.428-1.041-0.428-0 0-0.001 0-0.001 0h0z"></path>
</svg>
