<!-- Generated by IcoMoon.io -->
<svg version="1.1" xmlns="http://www.w3.org/2000/svg" width="32" height="32" viewBox="0 0 32 32">
<title>nv</title>
<path fill="#f7e2f6" d="M32 16c0 8.837-7.163 16-16 16s-16-7.163-16-16c0-8.837 7.163-16 16-16v0c0.006 0 0.013 0 0.019 0 8.826 0 15.981 7.155 15.981 15.981 0 0.007 0 0.014 0 0.020v-0.001z"></path>
<path fill="#fff" d="M15.025 22.755c0.242 0.033 0.527 0.055 0.816 0.060l0.007 0h0.2c0.517-0.003 1.020-0.058 1.506-0.16l-0.049 0.009c0.717-0.434 2.675-1.785 3.2-1.515 0.501-0.407 0.938-0.863 1.313-1.367l0.014-0.020c-0.088 0.009-0.203 0.018-0.319 0.023l-0.014 0.001c-0.067 0-0.133 0.005-0.2 0.005 0.893-1.305 1.427-2.918 1.427-4.655 0-0.491-0.043-0.973-0.124-1.44l0.007 0.050-6.825 0.033-6.716-0.029c-0.075 0.419-0.118 0.902-0.118 1.394 0 1.736 0.532 3.347 1.443 4.68l-0.018-0.029c-0.228-0.003-0.449-0.017-0.667-0.042l0.029 0.003c0.457 0.618 0.987 1.148 1.584 1.592l0.020 0.014c0.1-0.933 2.888 1.077 3.483 1.395z"></path>
<path fill="#e1aeed" d="M19.818 23.501l-0.021 0.031-3.611-0.004-3.607 0.004-0.1-0.153c-2.687 0.927-4.742 3.058-5.547 5.731l-0.016 0.062c2.538 1.769 5.687 2.827 9.083 2.827 3.388 0 6.53-1.053 9.118-2.849l-0.053 0.035c-0.783-2.631-2.709-4.701-5.188-5.664l-0.059-0.020z"></path>
<path fill="#db81e2" d="M16.187 23.529l3.611 0.003 0.021-0.031c1.031-1.56 1.176-2.2 0.886-2.35-0.527-0.267-2.485 1.081-3.2 1.515-0.074 0.055-0.159 0.1-0.251 0.131l-0.006 0.002q-0.699 0.029-1.4 0.019-0.36-0.004-0.719-0.019c-0.039-0.007-0.074-0.022-0.104-0.042l0.001 0.001c-0.595-0.318-3.383-2.326-3.483-1.396-0.033 0.305 0.223 0.924 0.937 2.021l0.1 0.153z"></path>
<path fill="#b171b5" d="M9.267 13.748l6.799 0.033 6.744-0.033c0.075 0.418 0.117 0.899 0.117 1.39 0 1.737-0.533 3.35-1.445 4.683l0.018-0.029q0.267 0 0.533-0.029c3.702-0.366 4.169-4.090 2.871-7.522-0.295 0.167-0.539 0.182-0.633-0.075l-0.537-1.471-0.541-1.471-3.078-0.573c-0.547-0.102-0.099-0.993 0.513-1.697-0.673-0.386-1.479-0.613-2.339-0.613-0.843 0-1.634 0.218-2.321 0.602l0.024-0.012c-7.185-3.777-13.874 11.93-6.057 12.823 0.188 0.023 0.41 0.037 0.634 0.039l0.004 0c-0.893-1.305-1.426-2.917-1.426-4.653 0-0.492 0.043-0.974 0.125-1.443l-0.007 0.050zM23.191 9.225l0.035 0.007-0.062-0.079z"></path>
<path fill="#e291e5" d="M23.191 9.225l0.541 1.471 0.537 1.471c0.095 0.257 0.339 0.242 0.633 0.075 0.867-0.491 2.16-2.299 1.371-2.447l-1.541-0.283-1.505-0.281zM20.113 8.652l3.078 0.573-0.027-0.073-0.511-1.4-0.541-1.471c-0.181-0.493-0.908 0.005-1.487 0.671-0.613 0.704-1.060 1.595-0.513 1.697z"></path>
</svg>
