<!-- Generated by IcoMoon.io -->
<svg version="1.1" xmlns="http://www.w3.org/2000/svg" width="32" height="32" viewBox="0 0 32 32">
<title>renyuanzu</title>
<path d="M15.59 17.552c1.896-1.423 3.11-3.667 3.11-6.194 0-0.004 0-0.008 0-0.013v0.001c0-0.025 0-0.055 0-0.085 0-4.16-3.345-7.539-7.492-7.594l-0.005-0c-4.152 0.055-7.497 3.434-7.497 7.594 0 0.030 0 0.059 0.001 0.089l-0-0.005c0 0.005-0 0.010-0 0.016 0 2.525 1.212 4.767 3.086 6.175l0.020 0.014c-4.048 1.839-6.811 5.847-6.811 10.5 0 0.020 0 0.040 0 0.060v-0.003c-0 0.006-0 0.013-0 0.020 0 0.646 0.52 1.171 1.165 1.179h0.001c0.645-0.008 1.165-0.533 1.165-1.179 0-0.007-0-0.014-0-0.021v0.001c-0-0.028-0-0.060-0-0.093 0-4.924 3.958-8.925 8.866-8.993l0.006-0c4.915 0.068 8.872 4.069 8.872 8.993 0 0.033-0 0.065-0.001 0.098l0-0.005c-0.001 0.014-0.001 0.031-0.001 0.048 0 0.644 0.522 1.165 1.165 1.165s1.165-0.522 1.165-1.165c0-0.017-0-0.034-0.001-0.051l0 0.002c0-0.018 0-0.039 0-0.060 0-4.653-2.765-8.66-6.741-10.467l-0.072-0.029zM11.193 16.635c-2.858-0.045-5.157-2.372-5.157-5.236 0-0.018 0-0.037 0-0.055l-0 0.003c-0-0.017-0-0.037-0-0.056 0-2.867 2.305-5.197 5.163-5.236l0.004-0c2.862 0.039 5.167 2.368 5.167 5.236 0 0.020-0 0.040-0 0.059l0-0.003c0 0.017 0 0.037 0 0.056 0 2.867-2.305 5.197-5.163 5.236l-0.004 0zM25.157 16.525c1.894-1.423 3.106-3.665 3.106-6.19 0-0.007 0-0.014-0-0.021v0.001c0-0.024 0-0.052 0-0.081 0-4.153-3.334-7.528-7.471-7.594l-0.006-0c-0.644 0.008-1.163 0.532-1.163 1.177 0 0.008 0 0.015 0 0.023l-0-0.001c-0 0.006-0 0.013-0 0.020 0 0.646 0.519 1.17 1.163 1.179h0.001c2.863 0.039 5.169 2.369 5.169 5.238 0 0.019-0 0.038-0 0.057l0-0.003c0 0.013 0 0.027 0 0.042 0 2.868-2.306 5.198-5.165 5.236l-0.004 0c-0.609 0.063-1.079 0.573-1.079 1.193s0.471 1.13 1.074 1.193l0.005 0c4.916 0.067 8.874 4.068 8.874 8.993 0 0.033-0 0.065-0.001 0.098l0-0.005c-0.001 0.014-0.001 0.031-0.001 0.048 0 0.644 0.522 1.165 1.165 1.165s1.165-0.522 1.165-1.165c0-0.017-0-0.034-0.001-0.051l0 0.002c0-0.015 0-0.033 0-0.051 0-4.656-2.769-8.666-6.749-10.472l-0.072-0.029z"></path>
</svg>
