<!-- Generated by IcoMoon.io -->
<svg version="1.1" xmlns="http://www.w3.org/2000/svg" width="32" height="32" viewBox="0 0 32 32">
<title>riqikaobei2</title>
<path d="M22.7 0.964c0.686 0.007 1.24 0.565 1.24 1.252 0 0.001 0 0.001 0 0.002v-0l0.014 1.474h4.063c2.144 0.029 3.884 1.72 3.991 3.841l0 0.010 0.010 0.24v19.101c0 0.007 0 0.016 0 0.025 0 2.141-1.655 3.895-3.755 4.053l-0.014 0.001h-24.238c-2.151-0.017-3.899-1.714-4.001-3.842l-0-0.009-0.010-0.24v-19.095c-0-0.011-0-0.024-0-0.036 0-2.129 1.641-3.876 3.727-4.044l0.014-0.001h4.345l0.020-1.474c0-0 0-0 0-0 0-0.687 0.557-1.244 1.244-1.244s1.244 0.557 1.244 1.244c0 0 0 0 0 0v0l0.012 1.474h10.831l0.020-1.474c0.001-0.689 0.556-1.248 1.244-1.254h0.001zM8.042 6.42h-4.031c-0.308 0.001-0.591 0.107-0.815 0.284l0.003-0.002-0.132 0.118c-0.201 0.207-0.337 0.478-0.375 0.779l-0.001 0.007-0.012 0.178v19.095c-0 0.005-0 0.010-0 0.015 0 0.685 0.509 1.251 1.169 1.34l0.007 0.001h24.164c0.686-0.009 1.248-0.528 1.326-1.194l0.001-0.006 0.012-0.158v-19.091c0-0.003 0-0.007 0-0.010 0-0.743-0.597-1.347-1.337-1.358h-4.028l0.016 1.358c0 0.003 0 0.007 0 0.011 0 0.368-0.146 0.702-0.383 0.947l0-0c-0.235 0.244-0.564 0.395-0.928 0.395s-0.694-0.151-0.928-0.395l-0-0c-0.236-0.244-0.382-0.577-0.382-0.944 0-0.001 0-0.002 0-0.003v0-0.020l0.018-1.356h-10.761l0.010 1.358c0 0.008 0 0.018 0 0.027 0 0.361-0.143 0.69-0.375 0.931l0-0c-0.235 0.244-0.565 0.395-0.93 0.395s-0.695-0.151-0.93-0.395l-0-0c-0.236-0.243-0.382-0.576-0.382-0.942 0-0.001 0-0.003 0-0.004v0-0.016l0.018-1.358zM17.338 20.061c0.739 0.020 1.331 0.624 1.331 1.366 0 0.687-0.507 1.255-1.167 1.352l-0.007 0.001h-10.825c-0.739-0.020-1.331-0.624-1.331-1.366 0-0.687 0.507-1.255 1.167-1.352l0.007-0.001h10.825zM24.006 13.241c0.738 0.021 1.329 0.624 1.329 1.366 0 0.687-0.507 1.256-1.167 1.352l-0.007 0.001-0.154 0.010h-17.338c-0.739-0.020-1.331-0.624-1.331-1.366 0-0.687 0.507-1.255 1.167-1.352l0.007-0.001 0.156-0.010z"></path>
</svg>
