<!-- Generated by IcoMoon.io -->
<svg version="1.1" xmlns="http://www.w3.org/2000/svg" width="32" height="32" viewBox="0 0 32 32">
<title>ruzhu</title>
<path d="M8.343 32l-0.219-0.013c-0.755-0.057-1.351-0.664-1.391-1.418l-0-0.004 0.014-0.196c0.152-0.716 0.78-1.246 1.531-1.246 0.023 0 0.046 0 0.069 0.002l-0.003-0h17.043v-19.768l0.014-0.196c0.020-0.126 0.055-0.239 0.103-0.345l-0.003 0.008-10.085-5.269-12.754 7.278-0.237 0.097c-0.187 0.069-0.404 0.108-0.629 0.108-0.688 0-1.29-0.369-1.618-0.92l-0.005-0.009c-0.099-0.194-0.156-0.424-0.156-0.667 0-0.62 0.376-1.152 0.912-1.38l0.010-0.004 14.477-8.060 15.896 8.188c0.421 0.263 0.696 0.723 0.696 1.248 0 0.287-0.083 0.556-0.226 0.782l0.004-0.006-0.146 0.199c-0.356 0.38-0.861 0.617-1.421 0.617-0.316 0-0.614-0.075-0.877-0.208l0.011 0.005-0.736-0.384v21.559zM6.452 26.062c-0.923-0.014-1.671-0.742-1.718-1.655l-0-0.004c-0.003-0.042-0.005-0.090-0.005-0.139 0-0.878 0.64-1.606 1.479-1.743l0.010-0.001 0.237-0.017h4.859c0.923 0.014 1.671 0.742 1.718 1.655l0 0.004c0.004 0.042 0.005 0.090 0.005 0.139 0 0.878-0.641 1.606-1.48 1.743l-0.010 0.001-0.237 0.017zM14.949 24.437c-0.273-0.274-0.442-0.652-0.442-1.069 0-0.395 0.151-0.755 0.399-1.025l-0.001 0.001 2.451-2.457h-12.35c-0.808-0.033-1.45-0.696-1.45-1.509s0.642-1.476 1.447-1.509l0.003-0 12.35-0.012-2.451-2.456c-0.23-0.264-0.37-0.611-0.37-0.991 0-0.835 0.677-1.512 1.512-1.512 0.38 0 0.727 0.14 0.993 0.371l-0.002-0.002 5.032 5.039c0.182 0.183 0.317 0.413 0.387 0.67l0.002 0.011 0.015 0.068 0.012 0.062c0.006 0.030 0.012 0.067 0.016 0.105l0 0.005v0.020c0 0.045 0.006 0.085 0.006 0.128-0 0.048-0.003 0.095-0.009 0.141l0.001-0.006v0.019c-0.002 0.041-0.008 0.079-0.017 0.116l0.001-0.004-0.009 0.059c0 0.024-0.012 0.044-0.017 0.069-0.078 0.282-0.227 0.523-0.427 0.71l-0.001 0.001-4.998 4.999c-0.267 0.246-0.626 0.398-1.020 0.398-0.417 0-0.795-0.17-1.068-0.444l-0-0zM7.814 14.21c-0.016 0.001-0.035 0.001-0.054 0.001-0.952 0-1.736-0.717-1.842-1.641l-0.001-0.009c-0.001-0.022-0.002-0.048-0.002-0.074 0-0.94 0.718-1.712 1.636-1.798l0.007-0.001 0.26-0.017h3.309c0.015-0 0.034-0.001 0.052-0.001 0.952 0 1.737 0.717 1.844 1.641l0.001 0.009c0.001 0.022 0.001 0.047 0.001 0.073 0 0.94-0.718 1.713-1.636 1.799l-0.007 0.001-0.261 0.017z"></path>
</svg>
