<!-- Generated by IcoMoon.io -->
<svg version="1.1" xmlns="http://www.w3.org/2000/svg" width="32" height="32" viewBox="0 0 32 32">
<title>shijiankaobei</title>
<path d="M15.997 0.004c8.835 0 15.998 7.163 15.998 15.998s-7.163 15.998-15.998 15.998c-8.835 0-15.998-7.163-15.998-15.998v0c0-8.835 7.163-15.998 15.998-15.998v0zM15.997 3.204c-7.068 0-12.798 5.73-12.798 12.798s5.73 12.798 12.798 12.798c7.068 0 12.798-5.73 12.798-12.798v0c0-7.068-5.73-12.798-12.798-12.798v0zM14.693 7.173c0.897 0 1.624 0.727 1.624 1.624v0 7.521h4.787c0.872 0.032 1.567 0.746 1.567 1.623s-0.695 1.591-1.564 1.623l-0.003 0h-6.409c-0.001 0-0.001 0-0.002 0-0.896 0-1.623-0.726-1.624-1.622v-9.145c0-0.897 0.727-1.624 1.624-1.624 0.001 0 0.001 0 0.002 0h-0z"></path>
</svg>
