<!-- Generated by IcoMoon.io -->
<svg version="1.1" xmlns="http://www.w3.org/2000/svg" width="32" height="32" viewBox="0 0 32 32">
<title>tishi</title>
<path d="M16.011 31.059c-0.032 0-0.070 0-0.108 0-8.376 0-15.166-6.79-15.166-15.166s6.79-15.166 15.166-15.166c8.376 0 15.166 6.79 15.166 15.166 0 4.189-1.698 7.981-4.443 10.725l-0 0c-2.707 2.738-6.462 4.436-10.614 4.44h-0.001zM14.656 15.368c0.111 0.002 0.209 0.059 0.267 0.146l0.001 0.001c0.046 0.087 0.073 0.19 0.073 0.299s-0.027 0.212-0.075 0.303l0.002-0.004c-1.11 2.085-2.139 4.536-2.946 7.085l-0.087 0.318c0 0.981 0.591 1.521 1.664 1.521 2.595-0.409 4.752-1.994 5.934-4.183l0.021-0.043c0-0.005 0-0.012 0-0.018 0-0.198-0.142-0.362-0.329-0.398l-0.003-0c-0.154 0-0.499 0.392-0.898 0.845-0.587 0.67-1.318 1.506-1.805 1.506-0.184-0.010-0.33-0.162-0.33-0.348 0-0.014 0.001-0.028 0.002-0.042l-0 0.002c0.068-0.529 0.214-1.009 0.426-1.451l-0.012 0.028 0.049-0.12 1.967-3.872c0.226-0.413 0.359-0.904 0.359-1.427 0-0.474-0.11-0.923-0.305-1.322l0.008 0.018c-0.326-0.408-0.823-0.667-1.381-0.667-0.044 0-0.087 0.002-0.13 0.005l0.006-0c-1.613 0.071-3.050 0.767-4.088 1.848l-0.002 0.002-0.068 0.068c-0.407 0.403-1.487 1.472-1.487 1.943 0.013 0.191 0.163 0.344 0.352 0.359l0.001 0c0.201 0 0.544-0.408 0.941-0.881 0.565-0.687 1.271-1.521 1.865-1.521zM19.976 6.967c-1.341 0.013-2.426 1.092-2.447 2.43l-0 0.002c-0.004 0.046-0.006 0.098-0.006 0.152 0 1.061 0.86 1.922 1.922 1.922 0.039 0 0.078-0.001 0.117-0.004l-0.005 0c0.012 0 0.027 0 0.041 0 1.342 0 2.43-1.088 2.43-2.43 0-0.006-0-0.012-0-0.018v0.001c0.001-0.025 0.002-0.055 0.002-0.085 0-1.090-0.883-1.973-1.973-1.973-0.032 0-0.065 0.001-0.097 0.002l0.005-0z"></path>
</svg>
