<!-- Generated by IcoMoon.io -->
<svg version="1.1" xmlns="http://www.w3.org/2000/svg" width="32" height="32" viewBox="0 0 32 32">
<title>wancheng</title>
<path d="M16 0.8c-0.006 0-0.013 0-0.021 0-4.191 0-7.984 1.702-10.727 4.452l-0 0c-2.75 2.743-4.452 6.537-4.452 10.727 0 0.007 0 0.014 0 0.022v-0.001c0 0.006 0 0.013 0 0.021 0 4.191 1.702 7.984 4.452 10.727l0 0c2.743 2.75 6.537 4.452 10.727 4.452 0.007 0 0.014 0 0.022 0h-0.001c0.006 0 0.013 0 0.021 0 4.191 0 7.984-1.702 10.727-4.452l0-0c2.75-2.743 4.452-6.537 4.452-10.727 0-0.007 0-0.014 0-0.022v0.001c0-0.006 0-0.013 0-0.021 0-4.191-1.702-7.984-4.452-10.727l-0-0c-2.743-2.75-6.537-4.452-10.727-4.452-0.007 0-0.014 0-0.022 0h0.001zM16 0c8.837 0 16 7.163 16 16s-7.163 16-16 16-16-7.163-16-16 7.163-16 16-16z"></path>
<path d="M13.42 21.098l-4.4-4.4c-0.135-0.101-0.221-0.261-0.221-0.44s0.086-0.339 0.219-0.439l0.001-0.001c0.101-0.134 0.261-0.22 0.44-0.22s0.339 0.086 0.439 0.219l0.001 0.001 3.959 3.96 8.359-8.359c0.102-0.133 0.261-0.218 0.44-0.218s0.338 0.085 0.439 0.217l0.001 0.001c0.133 0.102 0.217 0.261 0.217 0.44s-0.085 0.338-0.216 0.439l-0.001 0.001-8.8 8.8c-0.108 0.126-0.263 0.208-0.437 0.22l-0.002 0c-0.177-0.012-0.332-0.095-0.438-0.22l-0.001-0.001z"></path>
</svg>
