<!-- Generated by IcoMoon.io -->
<svg version="1.1" xmlns="http://www.w3.org/2000/svg" width="32" height="32" viewBox="0 0 32 32">
<title>zaiqinguanli</title>
<path d="M4.329 31.059c-1.869 0-3.388-2.059-3.388-4.597 0 0 0.028-8.785 6.933-11.671-0.965-1.121-1.553-2.591-1.553-4.199 0-3.564 2.889-6.453 6.453-6.453s6.453 2.889 6.453 6.453c0 1.607-0.588 3.078-1.56 4.207l0.007-0.008c6.906 2.895 6.935 11.68 6.935 11.68 0 2.537-1.519 4.599-3.388 4.599zM4.166 26.477c-0.001 0.024-0.001 0.053-0.001 0.082 0 0.475 0.145 0.916 0.394 1.281l-0.005-0.008h16.435c0.244-0.358 0.39-0.801 0.39-1.277 0-0.033-0.001-0.065-0.002-0.098l0 0.005c-0.015-1.555-0.503-9.387-8.604-9.387s-8.587 7.831-8.604 9.402zM9.545 10.622c0 0.001 0 0.001 0 0.002 0 1.783 1.445 3.228 3.228 3.228s3.228-1.445 3.228-3.228c0-1.783-1.445-3.228-3.228-3.228v0c-1.781 0.004-3.223 1.446-3.228 3.226v0.001zM26.933 27.831c-0.876-0.016-1.58-0.73-1.58-1.609 0-0.863 0.68-1.568 1.534-1.608l0.004-0 0.553-0.009c0.244-0.356 0.39-0.797 0.39-1.271 0-0.034-0.001-0.068-0.002-0.102l0 0.005c-0.070-4.149-2.636-7.681-6.258-9.167l-0.067-0.024c-0.987-0.182-1.725-1.036-1.725-2.062 0-0.811 0.461-1.515 1.135-1.863l0.012-0.005c0.879-0.608 1.464-1.588 1.524-2.707l0-0.009c-0.001-1.782-1.444-3.227-3.226-3.23h-0c-0.36 0.007-0.702 0.075-1.019 0.195l0.021-0.007-0.013-0.026c-0.215 0.13-0.474 0.211-0.75 0.22l-0.003 0c-0.011 0-0.023 0-0.036 0-0.883 0-1.598-0.716-1.598-1.598 0-0.693 0.441-1.283 1.058-1.505l0.011-0.004c0.685-0.31 1.484-0.494 2.325-0.503l0.003-0c3.565 0 6.455 2.89 6.455 6.455v0c-0.003 1.595-0.594 3.052-1.567 4.166l0.006-0.007c6.91 2.893 6.938 11.68 6.938 11.68 0 2.539-1.517 4.597-3.388 4.597z"></path>
</svg>
