<!-- Generated by IcoMoon.io -->
<svg version="1.1" xmlns="http://www.w3.org/2000/svg" width="32" height="32" viewBox="0 0 32 32">
<title>zaoqian</title>
<path fill="#fc8181" opacity="0.149" d="M0 16c0 8.837 7.163 16 16 16s16-7.163 16-16v0c0-8.837-7.163-16-16-16s-16 7.163-16 16v0z"></path>
<path fill="#fc7272" d="M9.091 21.777c0-0.001 0-0.002 0-0.003 0-0.489 0.397-0.886 0.886-0.886 0.004 0 0.007 0 0.011 0h12.693c0.491 0.003 0.889 0.398 0.896 0.888v0.001c0 0.001 0 0.002 0 0.003 0 0.489-0.397 0.886-0.886 0.886-0.004 0-0.008-0-0.011-0h-12.693c-0.491-0.003-0.889-0.398-0.896-0.888v-0.001zM15.455 9.382v-1.843c0-0.485 0.393-0.879 0.879-0.879s0.879 0.393 0.879 0.879v0 1.843c-0.264-0.031-0.569-0.049-0.879-0.049s-0.615 0.018-0.915 0.052l0.037-0.003zM10.154 12.339l-1.075-1.087c-0.152-0.161-0.246-0.378-0.246-0.617 0-0.245 0.098-0.467 0.257-0.629l-0 0c0.158-0.16 0.378-0.26 0.621-0.26 0.237 0 0.453 0.095 0.61 0.248l-0-0 1.075 1.087c-0.463 0.376-0.871 0.789-1.231 1.241l-0.013 0.016zM21.27 11.082l1.075-1.087c0.157-0.154 0.373-0.249 0.61-0.249 0.243 0 0.463 0.099 0.622 0.26l0 0c0.159 0.162 0.257 0.384 0.257 0.629 0 0.239-0.094 0.457-0.246 0.618l0-0-1.075 1.087c-0.372-0.469-0.78-0.881-1.228-1.246l-0.015-0.011zM22.485 17.333c0-0.019 0-0.042 0-0.064 0-3.398-2.754-6.152-6.152-6.152s-6.152 2.754-6.152 6.152c0 0.023 0 0.045 0 0.067l-0-0.003h-1.967c-0.491 0-0.889 0.398-0.889 0.889s0.398 0.889 0.889 0.889h16.238c0.491 0 0.889-0.398 0.889-0.889s-0.398-0.889-0.889-0.889v0z"></path>
</svg>
