<!-- Generated by IcoMoon.io -->
<svg version="1.1" xmlns="http://www.w3.org/2000/svg" width="32" height="32" viewBox="0 0 32 32">
<title>zhankaijiantou</title>
<path d="M18.107 24.142c-0.478 0.598-1.207 0.977-2.024 0.977-0.047 0-0.094-0.001-0.141-0.004l0.007 0c-0.762 0.126-1.483-0.465-2.074-0.974l-13.176-13.258c-0.391-0.425-0.631-0.995-0.631-1.621 0-1.323 1.073-2.396 2.396-2.396 0.626 0 1.196 0.24 1.622 0.633l-0.002-0.002 11.902 12.366 11.946-12.366c0.425-0.391 0.995-0.631 1.621-0.631 1.323 0 2.396 1.073 2.396 2.396 0 0.626-0.24 1.196-0.633 1.622l0.002-0.002z"></path>
</svg>
