<?xml version="1.0" standalone="no"?><!DOCTYPE svg PUBLIC "-//W3C//DTD SVG 1.1//EN" "http://www.w3.org/Graphics/SVG/1.1/DTD/svg11.dtd"><svg t="1617338192208" class="icon" viewBox="0 0 1228 1024" version="1.1" xmlns="http://www.w3.org/2000/svg" p-id="1495" xmlns:xlink="http://www.w3.org/1999/xlink" width="239.84375" height="200"><defs><style type="text/css"></style></defs><path d="M528.00000031 692.48a127.99999969 127.99999969 0 0 0 157.44 0l248.95999969-192a64.00000031 64.00000031 0 0 0-78.72-101.11999969L672.00000031 543.99999969V96.00000031a64.00000031 64.00000031 0 0 0-128.00000062 0v447.99999938L357.75999969 397.44000031a64.00000031 64.00000031 0 0 0-78.72 101.11999969z" fill="" p-id="1496"></path><path d="M1119.99999969 608a64.00000031 64.00000031 0 0 0-63.99999938 64.00000031v127.99999969a64.00000031 64.00000031 0 0 1-64.00000031 64.00000031H224a64.00000031 64.00000031 0 0 1-64.00000031-64.00000031v-127.99999969a64.00000031 64.00000031 0 0 0-127.99999969 0v192a127.99999969 127.99999969 0 0 0 127.99999969 127.99999969h896.00000062a127.99999969 127.99999969 0 0 0 127.99999969-127.99999969v-192a64.00000031 64.00000031 0 0 0-64.00000031-64.00000031z" fill="" p-id="1497"></path></svg>