<?xml version="1.0" standalone="no"?><!DOCTYPE svg PUBLIC "-//W3C//DTD SVG 1.1//EN" "http://www.w3.org/Graphics/SVG/1.1/DTD/svg11.dtd"><svg t="1589350554567" class="icon" viewBox="0 0 1024 1024" version="1.1" xmlns="http://www.w3.org/2000/svg" p-id="6743" xmlns:xlink="http://www.w3.org/1999/xlink" width="26" height="26"><defs><style type="text/css"></style></defs><path d="M874.496 841.045333a44.919467 44.919467 0 0 1-31.061333 12.288H180.565333a44.373333 44.373333 0 0 1-31.061333-12.288 41.2672 41.2672 0 0 1-12.970667-29.661866v-327.68a32.494933 32.494933 0 0 1 16.042667-27.648 35.84 35.84 0 0 1 33.109333-1.706667l31.402667 14.574933V170.666667h589.824v298.325333l31.402667-14.574933a35.84 35.84 0 0 1 33.109333 1.706666 32.494933 32.494933 0 0 1 16.042667 27.648v327.68a41.2672 41.2672 0 0 1-12.970667 29.5936z m-121.173333-617.813333H270.677333v270.677333L512 605.696l241.322667-111.8208V223.232z m-402.090667 210.056533a26.077867 26.077867 0 0 1 25.941333-26.248533h269.312a26.248533 26.248533 0 1 1 0 52.497067h-269.312a26.077867 26.077867 0 0 1-25.941333-26.3168z m295.253333-78.7456h-269.312a26.282667 26.282667 0 0 1 0-52.5312h269.312a26.282667 26.282667 0 1 1 0 52.462934z" p-id="6744"></path></svg>