<?xml version="1.0" standalone="no"?><!DOCTYPE svg PUBLIC "-//W3C//DTD SVG 1.1//EN" "http://www.w3.org/Graphics/SVG/1.1/DTD/svg11.dtd"><svg t="1589350526555" class="icon" viewBox="0 0 1024 1024" version="1.1" xmlns="http://www.w3.org/2000/svg" p-id="6609" xmlns:xlink="http://www.w3.org/1999/xlink" width="26" height="26"><defs><style type="text/css"></style></defs><path d="M288.768 843.5712H229.034667v-267.639467a282.897067 282.897067 0 0 1 565.589333 0v268.561067h-65.194667m-197.290666-433.493333l-138.922667 223.982933h111.957333l-27.989333 167.492267 139.264-223.9488h-112.298667z m214.016-245.76a26.487467 26.487467 0 0 1 10.24 36.420266l-50.517334 84.650667-47.445333-26.385067 50.176-84.6848a26.794667 26.794667 0 0 1 17.066667-12.731733 27.306667 27.306667 0 0 1 20.48 2.730667z m-234.496-62.805334a28.228267 28.228267 0 0 1 30.037333 27.306667v96.494933h-59.733333V128.8192a28.637867 28.637867 0 0 1 29.696-26.385067z m-234.154667 62.805334a27.306667 27.306667 0 0 1 20.48-2.730667 26.112 26.112 0 0 1 16.725333 12.731733l50.517334 84.6848-47.786667 26.385067-50.176-84.650667a26.180267 26.180267 0 0 1 10.24-36.420266zM106.496 332.765867a27.784533 27.784533 0 0 1 37.546667-10.0352l86.698666 49.152-26.965333 46.455466-87.04-49.186133a25.122133 25.122133 0 0 1-10.24-36.386133z m811.349333 0a26.453333 26.453333 0 0 1-10.24 36.386133l-86.698666 49.186133-27.306667-46.455466 87.04-49.152a27.306667 27.306667 0 0 1 20.48-2.730667 29.422933 29.422933 0 0 1 16.725333 12.765867z m-785.066666 530.7392h758.784a29.149867 29.149867 0 1 1 0 58.2656H132.778667a28.8768 28.8768 0 0 1-29.013334-29.115734 27.886933 27.886933 0 0 1 29.013334-29.149866z m0 0" p-id="6610"></path></svg>