<?xml version="1.0" standalone="no"?><!DOCTYPE svg PUBLIC "-//W3C//DTD SVG 1.1//EN" "http://www.w3.org/Graphics/SVG/1.1/DTD/svg11.dtd"><svg t="1589350505038" class="icon" viewBox="0 0 1024 1024" version="1.1" xmlns="http://www.w3.org/2000/svg" p-id="6475" xmlns:xlink="http://www.w3.org/1999/xlink" width="26" height="26"><defs><style type="text/css"></style></defs><path d="M796.330667 887.466667H227.669333a56.695467 56.695467 0 0 1-40.277333-16.452267A56.1152 56.1152 0 0 1 170.666667 831.351467V192.477867a56.6272 56.6272 0 0 1 57.002666-56.1152h568.661334a58.026667 58.026667 0 0 1 40.277333 16.452266A56.1152 56.1152 0 0 1 853.333333 192.477867v638.907733A56.6272 56.6272 0 0 1 796.330667 887.466667zM648.533333 393.489067l-125.952-139.946667a14.301867 14.301867 0 0 0-21.162666 0l-125.952 139.946667a13.653333 13.653333 0 0 0-2.389334 15.0528 13.858133 13.858133 0 0 0 12.970667 8.2944h97.28v106.0864a28.433067 28.433067 0 0 0 28.672 28.023466 28.16 28.16 0 0 0 28.330667-28.023466v-106.0864h97.621333a14.506667 14.506667 0 0 0 12.970667-8.260267 13.653333 13.653333 0 0 0-2.389334-15.086933z m62.464 213.572266H341.333333a28.0576 28.0576 0 1 0 0 56.081067h369.664a28.0576 28.0576 0 1 0 0-56.081067z m0 112.162134H341.333333a28.0576 28.0576 0 1 0 0 56.081066h369.664a28.0576 28.0576 0 1 0 0-56.081066z" p-id="6476"></path></svg>