<?xml version="1.0" standalone="no"?><!DOCTYPE svg PUBLIC "-//W3C//DTD SVG 1.1//EN" "http://www.w3.org/Graphics/SVG/1.1/DTD/svg11.dtd"><svg t="1589347942921" class="icon" viewBox="0 0 1024 1024" version="1.1" xmlns="http://www.w3.org/2000/svg" p-id="4169" width="26" height="26" xmlns:xlink="http://www.w3.org/1999/xlink"><defs><style type="text/css"></style></defs><path d="M823.808 511.488a122.2656 122.2656 0 0 0 34.56 84.992l12.032 12.8-5.632 16.384a358.4 358.4 0 0 1-74.1888 123.392l-11.776 12.8-17.3568-3.584a132.352 132.352 0 0 0-93.5424 13.824 126.3616 126.3616 0 0 0-59.2384 71.168l-5.376 16.384-17.4592 3.584a384 384 0 0 1-147.6608 0l-17.5616-3.584-5.376-16.384a126.208 126.208 0 0 0-59.136-71.168 132.4544 132.4544 0 0 0-93.5424-13.824l-17.408 3.584-11.7248-12.8a356.5568 356.5568 0 0 1-74.1888-123.392L153.6 609.28l11.9808-12.8a121.9072 121.9072 0 0 0 0-169.984L153.6 413.696l5.632-16.384a356.5568 356.5568 0 0 1 74.1888-123.392l11.7248-12.8 17.408 3.584a132.4032 132.4032 0 0 0 93.5424-13.824 126.7712 126.7712 0 0 0 59.2384-71.168l5.12-16.384 17.5616-3.584a377.1904 377.1904 0 0 1 147.6608 0l17.4592 3.584 5.376 16.384a130.9184 130.9184 0 0 0 152.7808 84.992l17.3568-3.584 11.776 12.8a358.912 358.912 0 0 1 74.1888 123.392l5.632 16.384-12.0832 12.8a122.4704 122.4704 0 0 0-34.5088 84.992zM512 366.08a145.5104 145.5104 0 1 0 150.8864 145.408A148.48 148.48 0 0 0 512 366.08z m0 0" p-id="4170" ></path></svg>