<?xml version="1.0" standalone="no"?><!DOCTYPE svg PUBLIC "-//W3C//DTD SVG 1.1//EN" "http://www.w3.org/Graphics/SVG/1.1/DTD/svg11.dtd"><svg t="1589354882831" class="icon" viewBox="0 0 1024 1024" version="1.1" xmlns="http://www.w3.org/2000/svg" p-id="7413" xmlns:xlink="http://www.w3.org/1999/xlink" width="26" height="26"><defs><style type="text/css"></style></defs><path d="M760.832 851.3536a63.8976 63.8976 0 0 0 90.624 0 64.512 64.512 0 0 0 0-91.0848l-89.6-90.8288c-25.088-25.1392-115.2 65.9456-90.112 91.0848zM460.8 819.2c185.344 0 358.4-121.7536 358.4-307.2s-144.384-358.4-329.728-358.4A335.9744 335.9744 0 0 0 153.6 489.4208c0 185.4976 121.856 329.8304 307.2 329.8304z m25.6-102.4A230.7072 230.7072 0 1 1 716.8 486.4 230.8096 230.8096 0 0 1 486.4 716.8z m0 0" p-id="7414"></path></svg>