<?xml version="1.0" standalone="no"?><!DOCTYPE svg PUBLIC "-//W3C//DTD SVG 1.1//EN" "http://www.w3.org/Graphics/SVG/1.1/DTD/svg11.dtd"><svg t="1589355079144" class="icon" viewBox="0 0 1024 1024" version="1.1" xmlns="http://www.w3.org/2000/svg" p-id="7547" xmlns:xlink="http://www.w3.org/1999/xlink" width="26" height="26"><defs><style type="text/css"></style></defs><path d="M512 1024a512 512 0 1 1 512-512 512 512 0 0 1-512 512z m0-853.333333a189.1328 189.1328 0 1 0 182.613333 188.996266A186.094933 186.094933 0 0 0 512 170.666667z m140.629333 373.6576a217.975467 217.975467 0 0 1-281.6 0A303.581867 303.581867 0 0 0 238.933333 777.454933a1047.278933 1047.278933 0 0 0 137.557334 7.543467h271.018666a1051.5456 1051.5456 0 0 0 137.557334-7.543467 303.786667 303.786667 0 0 0-132.437334-233.130666z" p-id="7548"></path></svg>