<svg xmlns="http://www.w3.org/2000/svg" width="14" height="15" viewBox="0 0 14 15">
  <metadata><?xpacket begin="﻿" id="W5M0MpCehiHzreSzNTczkc9d"?>
<x:xmpmeta xmlns:x="adobe:ns:meta/" x:xmptk="Adobe XMP Core 5.6-c142 79.160924, 2017/07/13-01:06:39        ">
   <rdf:RDF xmlns:rdf="http://www.w3.org/1999/02/22-rdf-syntax-ns#">
      <rdf:Description rdf:about=""/>
   </rdf:RDF>
</x:xmpmeta>
                                                                                                    
                                                                                                    
                                                                                                    
                                                                                                    
                                                                                                    
                                                                                                    
                                                                                                    
                                                                                                    
                                                                                                    
                                                                                                    
                                                                                                    
                                                                                                    
                                                                                                    
                                                                                                    
                                                                                                    
                                                                                                    
                                                                                                    
                                                                                                    
                                                                                                    
                                                                                                    
                           
<?xpacket end="w"?></metadata>
<defs>
    <style>
      .cls-1 {
        fill: #fff;
        fill-rule: evenodd;
      }
    </style>
  </defs>
  <path id="复查" class="cls-1" d="M293.32,2688.1v-3.19a0.939,0.939,0,0,0-.865-0.91h-4.072a0.87,0.87,0,0,0-.865.91v2.13a5.63,5.63,0,0,1,2.036-.35,5.7,5.7,0,0,1,3.766,1.41h0Zm-9.466,3.55a7.108,7.108,0,0,1,.254-1.11h-2.239a0.864,0.864,0,0,0-.865.91v4.05a0.948,0.948,0,0,0,.865.92h3.512a3.887,3.887,0,0,1-.407-0.46,5.983,5.983,0,0,1-1.12-4.31h0Zm10.993,6.13-1.578-2.02a0.477,0.477,0,0,0,.051-0.26v-0.2a4.706,4.706,0,0,0-.051-5.78l-0.051-.1a4.836,4.836,0,0,0-5.751-1.32,5.38,5.38,0,0,0-.661.36,0.7,0.7,0,0,0-.2.15,4.7,4.7,0,0,0-1.171,1.27,6.776,6.776,0,0,0-.356.66,4.853,4.853,0,0,0,.611,4.81,3.9,3.9,0,0,0,.814.81,4.855,4.855,0,0,0,5.446.36l1.68,2.18a0.865,0.865,0,0,0,.508.3,1.04,1.04,0,0,0,.56-0.15,0.879,0.879,0,0,0,.306-0.51,1.06,1.06,0,0,0-.153-0.56h0Zm-3.1-2.48a3.694,3.694,0,0,1-4.275.15,3.482,3.482,0,0,1-.661-0.55,1.07,1.07,0,0,1-.2-0.26,3.682,3.682,0,0,1-.3-4.05,3.441,3.441,0,0,1,.967-1.12,3.649,3.649,0,0,1,4.936.41,3.308,3.308,0,0,1,.509.71,3.62,3.62,0,0,1-.967,4.71h0Zm-9.873-5.42h2.494a6.421,6.421,0,0,1,1.629-2.03,5.011,5.011,0,0,1,.814-0.51v-2.43a0.861,0.861,0,0,0-.255-0.61,0.946,0.946,0,0,0-.61-0.25h-4.072a0.87,0.87,0,0,0-.865.91v4.06a0.827,0.827,0,0,0,.865.86h0Zm0,0" transform="translate(-281 -2684)"/>
</svg>
