<svg xmlns="http://www.w3.org/2000/svg" width="17" height="15" viewBox="0 0 17 15">
  <metadata><?xpacket begin="﻿" id="W5M0MpCehiHzreSzNTczkc9d"?>
<x:xmpmeta xmlns:x="adobe:ns:meta/" x:xmptk="Adobe XMP Core 5.6-c142 79.160924, 2017/07/13-01:06:39        ">
   <rdf:RDF xmlns:rdf="http://www.w3.org/1999/02/22-rdf-syntax-ns#">
      <rdf:Description rdf:about=""/>
   </rdf:RDF>
</x:xmpmeta>
                                                                                                    
                                                                                                    
                                                                                                    
                                                                                                    
                                                                                                    
                                                                                                    
                                                                                                    
                                                                                                    
                                                                                                    
                                                                                                    
                                                                                                    
                                                                                                    
                                                                                                    
                                                                                                    
                                                                                                    
                                                                                                    
                                                                                                    
                                                                                                    
                                                                                                    
                                                                                                    
                           
<?xpacket end="w"?></metadata>
<defs>
    <style>
      .cls-1 {
        <!-- fill: #1aa0ff; -->
        fill-rule: evenodd;
      }
    </style>
  </defs>
  <path id="肝" class="cls-1" d="M998.818,450.151a10.5,10.5,0,0,1-2.852,2.678,7.123,7.123,0,0,1-3.48,1.094,3.632,3.632,0,0,1-1.831,1.931,3.847,3.847,0,0,0-1.228,1.824c-0.4.97-.98,2.3-2.38,2.322a2.493,2.493,0,0,1-1.779-.854c-1.392-1.468-2.268-4.591-2.268-8.141a7.458,7.458,0,0,1,.576-2.793,5.2,5.2,0,0,1,1.538-2.047,5.034,5.034,0,0,1,3.007-1.032l0.24-.017c0.146-.009.3-0.018,0.447-0.018a1.718,1.718,0,0,0,.215-0.009h0.043c1.736-.08,3.119-0.089,4.27-0.089,0.671,0,1.366.018,2.08,0.062a14.322,14.322,0,0,1,2.9.4,1.9,1.9,0,0,1,1.667,1.45A5.133,5.133,0,0,1,998.818,450.151Zm-7.5,2.927c0-.347.009-1.4-0.1-2.562a6.733,6.733,0,0,0-1.2-3.7,1.276,1.276,0,0,0-.971-0.374h-0.077c-0.138.009-.249,0.018-0.361,0.018l-0.43.027a3.823,3.823,0,0,0-2.259.765,3.752,3.752,0,0,0-1.126,1.5,5.953,5.953,0,0,0-.464,2.207,17.883,17.883,0,0,0,.559,4.564,6.306,6.306,0,0,0,1.3,2.606,1.189,1.189,0,0,0,.825.437,0.634,0.634,0,0,0,.558-0.33,5.767,5.767,0,0,0,.6-1.156v-0.009l0.043-.1a4.579,4.579,0,0,1,1.821-2.42,2.51,2.51,0,0,0,1.212-1.237,1.072,1.072,0,0,1,.077-0.213v-0.027Zm4.056-6.663-0.241-.009c-0.516-.027-1.1-0.045-1.7-0.054a1.457,1.457,0,0,0-.6.267,1.754,1.754,0,0,0-.627,1.5,0.358,0.358,0,0,1-.017.089,13.888,13.888,0,0,1,.387,2.153c0.085,0.8.111,1.539,0.12,2.082a6.039,6.039,0,0,0,2.612-.89,9,9,0,0,0,2.457-2.3,3.913,3.913,0,0,0,.911-2.18C998.586,446.984,998.062,446.566,995.373,446.415Zm-8.2,1.174a0.118,0.118,0,0,1-.112.044,0.266,0.266,0,0,1-.258-0.151,0.292,0.292,0,0,1,.112-0.391,3.939,3.939,0,0,1,.627-0.285,0.284,0.284,0,0,1,.361.169,0.307,0.307,0,0,1-.172.365A2.648,2.648,0,0,0,987.176,447.589Zm-1.882,4.092c0.009,0.214.043,0.41,0.051,0.605a0.279,0.279,0,0,1-.249.312,0.29,0.29,0,0,1-.3-0.258c-0.025-.2-0.042-0.4-0.051-0.6a5.472,5.472,0,0,1,.1-1.486,4.69,4.69,0,0,1,1.366-2.66,0.3,0.3,0,0,1,.395.036,0.271,0.271,0,0,1-.017.391A4.932,4.932,0,0,0,985.294,451.681Z" transform="translate(-983 -445)"/>
</svg>
