<svg xmlns="http://www.w3.org/2000/svg" width="14" height="14" viewBox="0 0 14 14">
  <metadata><?xpacket begin="﻿" id="W5M0MpCehiHzreSzNTczkc9d"?>
<x:xmpmeta xmlns:x="adobe:ns:meta/" x:xmptk="Adobe XMP Core 5.6-c142 79.160924, 2017/07/13-01:06:39        ">
   <rdf:RDF xmlns:rdf="http://www.w3.org/1999/02/22-rdf-syntax-ns#">
      <rdf:Description rdf:about=""/>
   </rdf:RDF>
</x:xmpmeta>
                                                                                                    
                                                                                                    
                                                                                                    
                                                                                                    
                                                                                                    
                                                                                                    
                                                                                                    
                                                                                                    
                                                                                                    
                                                                                                    
                                                                                                    
                                                                                                    
                                                                                                    
                                                                                                    
                                                                                                    
                                                                                                    
                                                                                                    
                                                                                                    
                                                                                                    
                                                                                                    
                           
<?xpacket end="w"?></metadata>
<defs>
    <style>
      .cls-1 {
        fill: #fff;
        fill-rule: evenodd;
      }
    </style>
  </defs>
  <path id="校验" class="cls-1" d="M4384.15,1460.72a0.759,0.759,0,0,0,.78-0.73,0.751,0.751,0,0,0-.78-0.72h-3.44a0.751,0.751,0,0,0-.78.72,0.759,0.759,0,0,0,.78.73h3.44Zm-1.61,3.28a0.759,0.759,0,0,0,.78-0.73,0.751,0.751,0,0,0-.78-0.72h-1.89a0.757,0.757,0,0,0-.78.72,0.765,0.765,0,0,0,.78.73h1.89Zm-1.78-8.1a0.722,0.722,0,1,0,0,1.44h7.35a0.722,0.722,0,1,0,0-1.44h-7.35Zm4.23,7.71a3.427,3.427,0,0,0,1.78,2.97l-0.27.42h-6.89a1.472,1.472,0,0,1-1.61-1.35v-11.3a1.394,1.394,0,0,1,1.61-1.35h9.75a1.6,1.6,0,0,1,1.61,1.45v5.7l-0.3.46a4.017,4.017,0,0,0-3.78-.03,3.444,3.444,0,0,0-1.9,3.03h0Zm3.81,1.56a1.649,1.649,0,0,0,1.13-.44,1.4,1.4,0,0,0,0-2.09,1.649,1.649,0,0,0-1.13-.44,1.707,1.707,0,0,0-1.13.43,1.443,1.443,0,0,0-.47,1.05,1.546,1.546,0,0,0,1.6,1.49h0Zm3.04,0.64a0.479,0.479,0,0,1,.16.35,0.458,0.458,0,0,1-.16.34,0.514,0.514,0,0,1-.37.15,0.537,0.537,0,0,1-.38-0.15l-0.82-.76a2.767,2.767,0,0,1-1.47.42,2.482,2.482,0,1,1,2.67-2.48,2.364,2.364,0,0,1-.45,1.37Zm0,0" transform="translate(-4378 -1453)"/>
</svg>
