<svg xmlns="http://www.w3.org/2000/svg" width="14" height="14" viewBox="0 0 14 14">
  <metadata><?xpacket begin="﻿" id="W5M0MpCehiHzreSzNTczkc9d"?>
<x:xmpmeta xmlns:x="adobe:ns:meta/" x:xmptk="Adobe XMP Core 5.6-c142 79.160924, 2017/07/13-01:06:39        ">
   <rdf:RDF xmlns:rdf="http://www.w3.org/1999/02/22-rdf-syntax-ns#">
      <rdf:Description rdf:about=""/>
   </rdf:RDF>
</x:xmpmeta>
                                                                                                    
                                                                                                    
                                                                                                    
                                                                                                    
                                                                                                    
                                                                                                    
                                                                                                    
                                                                                                    
                                                                                                    
                                                                                                    
                                                                                                    
                                                                                                    
                                                                                                    
                                                                                                    
                                                                                                    
                                                                                                    
                                                                                                    
                                                                                                    
                                                                                                    
                                                                                                    
                           
<?xpacket end="w"?></metadata>
<defs>
    <style>
      .cls-1 {
        fill: #aaafb2;
        fill-rule: evenodd;
      }
    </style>
  </defs>
  <path id="日期" class="cls-1" d="M456.668,217.879h6.662a0.7,0.7,0,0,0,.56-0.78,0.94,0.94,0,0,0-.162-0.55,0.492,0.492,0,0,0-.4-0.227h-6.662a0.82,0.82,0,0,0,0,1.556h0Zm0-3.114h6.662a0.5,0.5,0,0,0,.4-0.23,1.014,1.014,0,0,0,0-1.1,0.5,0.5,0,0,0-.4-0.23h-6.662a0.507,0.507,0,0,0-.4.232,0.945,0.945,0,0,0-.162.55,0.7,0.7,0,0,0,.56.779h0Zm8.775-6.213H463.11v1.556h1.555a1,1,0,0,1,.778.777v7.778a1,1,0,0,1-.778.778h-9.332a1,1,0,0,1-.778-0.778v-7.778a1,1,0,0,1,.778-0.777h1.555v-1.556h-2.333c-0.9,0-1.556,1.119-1.556,2.041v8.729A1.647,1.647,0,0,0,454.617,221h10.764A1.647,1.647,0,0,0,467,219.322v-8.729c0-.921-0.661-2.041-1.556-2.041h0Zm-3.113,3.119a0.906,0.906,0,0,0,.556-0.185,0.566,0.566,0,0,0,.227-0.443V207.62A0.72,0.72,0,0,0,462.33,207a0.907,0.907,0,0,0-.556.183,0.57,0.57,0,0,0-.227.442v3.425a0.717,0.717,0,0,0,.783.624h0Zm-3.875-1.558h3.089v-1.557h-3.089v1.557Zm-0.787,1.56a1.057,1.057,0,0,0,.556-0.149,0.426,0.426,0,0,0,.227-0.353V207.5a0.692,0.692,0,0,0-.784-0.5,1.056,1.056,0,0,0-.555.147,0.429,0.429,0,0,0-.227.354v3.674a0.692,0.692,0,0,0,.782.5h0Zm0,0" transform="translate(-453 -207)"/>
</svg>
