<svg xmlns="http://www.w3.org/2000/svg" width="16" height="16" viewBox="0 0 16 16">
  <metadata><?xpacket begin="﻿" id="W5M0MpCehiHzreSzNTczkc9d"?>
<x:xmpmeta xmlns:x="adobe:ns:meta/" x:xmptk="Adobe XMP Core 5.6-c142 79.160924, 2017/07/13-01:06:39        ">
   <rdf:RDF xmlns:rdf="http://www.w3.org/1999/02/22-rdf-syntax-ns#">
      <rdf:Description rdf:about=""/>
   </rdf:RDF>
</x:xmpmeta>
                                                                                                    
                                                                                                    
                                                                                                    
                                                                                                    
                                                                                                    
                                                                                                    
                                                                                                    
                                                                                                    
                                                                                                    
                                                                                                    
                                                                                                    
                                                                                                    
                                                                                                    
                                                                                                    
                                                                                                    
                                                                                                    
                                                                                                    
                                                                                                    
                                                                                                    
                                                                                                    
                           
<?xpacket end="w"?></metadata>
<defs>
    <style>
      .cls-1 {
        <!-- fill: #1aa0ff; -->
        fill-rule: evenodd;
      }
    </style>
  </defs>
  <path id="胸透" class="cls-1" d="M990.305,443.4a3.4,3.4,0,0,1,2.326-.141c3.162,1.4,4.037,6.219,4.259,9.1,0.133,1.745.5,5.134-1.506,6.02a5.119,5.119,0,0,1-4.639-.325,5.193,5.193,0,0,0-2.011-.592,4.606,4.606,0,0,0-1.971.7c-1.368.718-2.751,1.444-4.546,0.161-2.381-1.707-.69-9.268.2-11.481a7.527,7.527,0,0,1,2.414-3.459,2.814,2.814,0,0,1,2.67-.04,3.6,3.6,0,0,0,2.8.054h0Zm-8.1,10a1.084,1.084,0,0,0,.288.569,2.236,2.236,0,0,0,1.195.644,4.97,4.97,0,0,0,2.118-.484,11.533,11.533,0,0,1,2.556-.692v-1.314c-0.664.036-1.34,0.132-1.977,0.222-1.079.154-1.564,0.84-2.374,0.676a7.914,7.914,0,0,1-1.694-.987l-0.041.418q-0.045.5-.071,0.948h0Zm7.287,0.037a10.265,10.265,0,0,1,2.659.811,4.721,4.721,0,0,0,2.06.555,2.119,2.119,0,0,0,1.621-1.364c-0.018-.4-0.046-0.793-0.078-1.188a3.239,3.239,0,0,1-.982.318,11.21,11.21,0,0,1-3.108-.186c-0.716-.1-1.465-0.21-2.172-0.255v1.309Zm6.34,1.811a3.331,3.331,0,0,1-1.426.632,5.28,5.28,0,0,1-2.693-.626,10.163,10.163,0,0,0-2.221-.715v1.911a8.344,8.344,0,0,1,1.722.613,4.177,4.177,0,0,0,3.707.33c0.74-.327.862-1.439,0.911-2.145h0Zm-7.47-.709a11.468,11.468,0,0,0-2.167.618,5.511,5.511,0,0,1-2.737.527,3.545,3.545,0,0,1-1.281-.538c0.028,0.683.125,1.878,0.712,2.3,1.22,0.872,2.289.311,3.345-.244a6.283,6.283,0,0,1,2.128-.807v-1.858Zm-5.791-4.171a0.664,0.664,0,0,0,.141.576,1.929,1.929,0,0,0,1.032.46,8.417,8.417,0,0,0,2.477-.141c0.679-.1,1.4-0.2,2.141-0.234V449.4a19.266,19.266,0,0,1-4.206-.046,2.77,2.77,0,0,1-1.2-.6c-0.151.523-.28,1.066-0.387,1.616h0Zm6.921,0.667c0.784,0.043,1.579.157,2.336,0.265a8.527,8.527,0,0,0,3.048.125,0.784,0.784,0,0,0,.7-0.671,18,18,0,0,0-.361-1.791,2.576,2.576,0,0,1-1.1.482,23.565,23.565,0,0,1-4.624-.044v1.634Zm0-6.309v1.207c1.4,0.035,2.941.334,4.253-.29a6.773,6.773,0,0,0-1.577-1.388,2.763,2.763,0,0,0-1.535.2,8.561,8.561,0,0,1-1.141.274h0Zm0,2.3v1.283a24.1,24.1,0,0,0,4.409.063,0.859,0.859,0,0,0,.857-0.85,5.648,5.648,0,0,0-.423-0.968c-1.212.816-3.379,0.515-4.843,0.472h0Zm-1.13,1.279v-1.268c-1.479.067-3.288,0.34-4.591-.445a3.658,3.658,0,0,0-.315.71,0.586,0.586,0,0,0,.112.481c0.689,0.942,3.55.547,4.794,0.522h0Zm0-2.361V444.7a8.691,8.691,0,0,1-1.2-.317,2.012,2.012,0,0,0-1.678-.1,3.205,3.205,0,0,0-1.127,1.36c0.445,0.574,3.1.333,4.01,0.3h0Zm0,0" transform="translate(-981 -443.031)"/>
</svg>
