<svg aria-hidden="true" style="position: absolute; width: 0; height: 0; overflow: hidden;" version="1.1" xmlns="http://www.w3.org/2000/svg" xmlns:xlink="http://www.w3.org/1999/xlink">
<defs>
<symbol id="icon-info" viewBox="0 0 32 32">
<path fill="#30bf99" style="fill: var(--color1, #30bf99)" d="M13.2 25.179c-1.043 0-1.768-0.464-1.768-1.507 0.199-1.496 0.617-2.853 1.224-4.1l-0.035 0.079 2.029-4.819c0.203-0.493-0.059-0.739-0.291-0.739-1.067 0-2.464 2.381-2.984 2.381-0.197-0.007-0.357-0.16-0.376-0.353v-0.002c0-0.493 1.275-1.643 1.651-1.997 1.131-1.085 2.652-1.772 4.333-1.832h0.011c1.248 0 2.579 0.709 1.533 3.365l-2.085 5.333c-0.23 0.444-0.4 0.96-0.484 1.505l-0.004 0.028c-0.001 0.009-0.001 0.019-0.001 0.029 0 0.192 0.154 0.348 0.345 0.352v0c0.869 0 2.464-2.323 2.869-2.323 0.197 0.028 0.347 0.196 0.347 0.399 0 0.004 0 0.008 0 0.012v-0.001c-1.327 2.259-3.606 3.836-6.272 4.182l-0.043 0.005zM18.187 11.312v0c-0.049 0.005-0.106 0.007-0.164 0.007-0.999 0-1.808-0.809-1.808-1.808 0-0.023 0-0.046 0.001-0.069v0.003c0.069-1.224 1.079-2.19 2.314-2.19 0.022 0 0.044 0 0.065 0.001h-0.003c0.046-0.004 0.1-0.006 0.155-0.006 1.019 0 1.845 0.826 1.845 1.845 0 0.010 0 0.020 0 0.029v-0.001c-0.055 1.219-1.058 2.187-2.286 2.187-0.042 0-0.084-0.001-0.125-0.003h0.006z"></path>
<path fill="none" stroke="#30bf99" style="stroke: var(--color1, #30bf99)" stroke-linejoin="miter" stroke-linecap="butt" stroke-miterlimit="4" stroke-width="3.2" d="M32 16c0 8.837-7.163 16-16 16s-16-7.163-16-16c0-8.837 7.163-16 16-16s16 7.163 16 16z"></path>
<path fill="none" stroke="#30bf99" style="stroke: var(--color1, #30bf99)" stroke-linejoin="miter" stroke-linecap="butt" stroke-miterlimit="4" stroke-width="3.2" d="M30.4 16c0 7.953-6.447 14.4-14.4 14.4s-14.4-6.447-14.4-14.4c0-7.953 6.447-14.4 14.4-14.4s14.4 6.447 14.4 14.4z"></path>
</symbol>
<symbol id="icon-aqjc" viewBox="0 0 32 32">
<path d="M16 4l10.4 4.347v6.586c0 0.003 0 0.008 0 0.012 0 1.576-0.29 3.083-0.819 4.473l0.029-0.086c-0.545 1.475-1.272 2.75-2.172 3.881l0.022-0.028c-0.939 1.183-2.034 2.189-3.265 3.008l-0.052 0.032c-1.046 1.091-2.516 1.769-4.144 1.769s-3.098-0.678-4.142-1.767l-0.002-0.002c-2.488-1.656-4.39-4.020-5.435-6.802l-0.032-0.097c-0.498-1.301-0.787-2.805-0.787-4.378 0-0.007 0-0.015 0-0.022v0.001-6.586zM16 15.974v-9.6l-8.101 3.411v6.195h8.101v9.734c1.141-0.31 2.139-0.788 3.026-1.412l-0.030 0.020c0.919-0.646 1.709-1.389 2.383-2.23l0.017-0.023c0.686-0.815 1.275-1.745 1.73-2.749l0.030-0.075c0.436-0.948 0.763-2.048 0.928-3.201l0.008-0.065h-8.091z"></path>
</symbol>
<symbol id="icon-bj" viewBox="0 0 32 32">
<path d="M17.4 12.544l-8.608 8.592 0.992 1.008 8.624-8.608zM19.464 14.608l-8.608 8.592 2 2 8.608-8.592zM16.392 11.536l-1.008-0.992-8.608 8.592 1.008 1.008zM26.776 9.296l-4.064-4.048c-0.25-0.276-0.609-0.448-1.008-0.448s-0.758 0.172-1.007 0.447l-0.001 0.001-2.48 2.464 6.080 6.064 2.48-2.464c0.245-0.264 0.396-0.618 0.396-1.008s-0.151-0.744-0.397-1.009l0.001 0.001zM4.776 27.2h4.304l-4.304-4.304v4.304zM14.856 27.2h10.096v-1.408h-10.096v1.408z"></path>
</symbol>
<symbol id="icon-bofang" viewBox="0 0 32 32">
<path d="M5.387 3.58v24.839l19.458-12.42-19.458-12.42zM3.807 0c0.186 0 0.377 0.042 0.56 0.133l24.388 14.888c0.836 0.418 0.836 1.539 0 1.957l-24.388 14.888c-0.182 0.091-0.373 0.133-0.56 0.133-0.622 0-1.189-0.466-1.189-1.112v-29.776c0-0.646 0.567-1.112 1.189-1.112v0z"></path>
</symbol>
<symbol id="icon-bofang1" viewBox="0 0 32 32">
<path d="M16 0c-8.837 0-16 7.163-16 16s7.163 16 16 16c8.837 0 16-7.163 16-16s-7.163-16-16-16v0zM16 30.4c-7.953 0-14.4-6.447-14.4-14.4s6.447-14.4 14.4-14.4 14.4 6.447 14.4 14.4c0 7.953-6.447 14.4-14.4 14.4v0zM23.263 14.866c-2.49-1.694-7.005-4.23-9.576-5.801-1.054-0.665-1.94-0.398-2.025 0.776-0.062 3.144 0 9.211 0 12.41 0.053 1.192 1.104 1.349 2.016 0.87 2.568-1.556 6.981-4.23 9.562-5.793-0.017-0.010 1.96-1.097 0.022-2.462v0z"></path>
</symbol>
<symbol id="icon-bq" viewBox="0 0 32 32">
<path d="M10.401 13.601h13.601v4.8h-13.601c-1.326 0-2.4-1.075-2.4-2.4v0c0-1.326 1.075-2.4 2.4-2.4v0z"></path>
</symbol>
<symbol id="icon-ck" viewBox="0 0 32 32">
<path d="M16 25.6c-10.288 0-14.4-9.6-14.4-9.6s4.112-9.6 14.4-9.6 14.4 9.6 14.4 9.6-4.112 9.6-14.4 9.6zM16 10.24c-0.046-0.001-0.101-0.002-0.156-0.002-2.199 0-4.136 1.123-5.269 2.827l-0.015 0.023c-0.527 0.826-0.84 1.832-0.84 2.912s0.313 2.086 0.853 2.934l-0.013-0.022c1.147 1.727 3.085 2.85 5.284 2.85 0.055 0 0.11-0.001 0.164-0.002h-0.008c3.181 0 5.76-2.579 5.76-5.76s-2.579-5.76-5.76-5.76v0zM16 19.712c-2.030-0.032-3.664-1.685-3.664-3.72 0-2.054 1.665-3.72 3.72-3.72s3.72 1.665 3.72 3.72c0 0.003 0 0.005 0 0.008v0c-0.015 2.053-1.683 3.712-3.739 3.712-0.013 0-0.026 0-0.039 0h0.002z"></path>
</symbol>
<symbol id="icon-dc" viewBox="0 0 32 32">
<path d="M7.056 14.432h2.56c0.005 0 0.010 0 0.016 0 0.866 0 1.568 0.702 1.568 1.568 0 0 0 0 0 0v0 3.2c0.065 0.856 0.744 1.535 1.594 1.6h6.406c0.879-0.012 1.588-0.721 1.6-1.599v-3.201c-0.011-0.066-0.017-0.141-0.017-0.218 0-0.756 0.613-1.37 1.37-1.37 0.082 0 0.162 0.007 0.24 0.021l-0.008-0.001h2.56c0.704 0 0.864-0.336 0.368-0.752l-8.416-6.976c-0.246-0.187-0.558-0.3-0.896-0.3s-0.65 0.113-0.9 0.303l0.004-0.003-8.416 6.976c-0.496 0.416-0.336 0.752 0.368 0.752zM12.4 22.416c-0.699 0.205-1.2 0.84-1.2 1.592s0.502 1.387 1.188 1.589l0.012 0.003h7.216c0.699-0.205 1.2-0.84 1.2-1.592s-0.502-1.387-1.188-1.589l-0.012-0.003h-7.216z"></path>
</symbol>
<symbol id="icon-dc1" viewBox="0 0 32 32">
<path d="M7.056 14.432h2.56c0.005 0 0.010 0 0.016 0 0.866 0 1.568 0.702 1.568 1.568 0 0 0 0 0 0v0 3.2c0.065 0.856 0.744 1.535 1.594 1.6h6.406c0.879-0.012 1.588-0.721 1.6-1.599v-3.201c-0.011-0.066-0.017-0.141-0.017-0.218 0-0.756 0.613-1.37 1.37-1.37 0.082 0 0.162 0.007 0.24 0.021l-0.008-0.001h2.56c0.704 0 0.864-0.336 0.368-0.752l-8.416-6.976c-0.246-0.195-0.561-0.312-0.904-0.312s-0.658 0.117-0.907 0.314l0.003-0.002-8.4 6.976c-0.512 0.416-0.336 0.752 0.368 0.752zM12.384 22.416c-0.699 0.205-1.2 0.84-1.2 1.592s0.502 1.387 1.188 1.589l0.012 0.003h7.232c0.699-0.205 1.2-0.84 1.2-1.592s-0.502-1.387-1.188-1.589l-0.012-0.003h-7.232z"></path>
</symbol>
<symbol id="icon-dh" viewBox="0 0 32 32">
<path d="M25.6 8h-8v17.6c0 0.884-0.716 1.6-1.6 1.6s-1.6-0.716-1.6-1.6v0-17.6h-8c-0.884 0-1.6-0.716-1.6-1.6s0.716-1.6 1.6-1.6v0h19.2c0.884 0 1.6 0.716 1.6 1.6s-0.716 1.6-1.6 1.6v0z"></path>
</symbol>
<symbol id="icon-dh1" viewBox="0 0 32 32">
<path d="M26.4 20.8h-6.4c-0.884 0-1.6-0.716-1.6-1.6s0.716-1.6 1.6-1.6h6.4c0.884 0 1.6 0.716 1.6 1.6s-0.716 1.6-1.6 1.6v0zM24.8 8h-8v17.6c0 0.884-0.716 1.6-1.6 1.6s-1.6-0.716-1.6-1.6v0-17.6h-8c-0.884 0-1.6-0.716-1.6-1.6s0.716-1.6 1.6-1.6v0h19.2c0.884 0 1.6 0.716 1.6 1.6s-0.716 1.6-1.6 1.6v0zM20 24h6.4c0.884 0 1.6 0.716 1.6 1.6s-0.716 1.6-1.6 1.6h-6.4c-0.884 0-1.6-0.716-1.6-1.6s0.716-1.6 1.6-1.6v0z"></path>
</symbol>
<symbol id="icon-dianji" viewBox="0 0 32 32">
<path d="M14.592 13.323l2.283 13.131s1.685-1.717 3.072-2.923l3.061 4.075c0.079 0.079 0.189 0.129 0.31 0.129 0.11 0 0.211-0.041 0.288-0.108h-0.001l1.312-0.949c0.124-0.072 0.206-0.205 0.206-0.357 0-0.077-0.021-0.149-0.058-0.21l0.001 0.002-2.976-3.957c1.547-0.629 4.117-1.333 4.117-1.333zM10.912 19.392l-3.403 2.464c-0.278 0.208-0.456 0.537-0.456 0.908 0 0.272 0.096 0.521 0.255 0.716l-0.002-0.002c0.227 0.307 0.587 0.504 0.994 0.504 0.254 0 0.49-0.077 0.686-0.208l-0.004 0.003 3.392-2.464c0.286-0.215 0.469-0.554 0.469-0.935 0-0.277-0.097-0.531-0.258-0.731l0.002 0.002c-0.223-0.295-0.573-0.484-0.968-0.484-0.266 0-0.511 0.086-0.711 0.231l0.003-0.002zM26.944 9.216c-0.224-0.294-0.575-0.482-0.969-0.482-0.265 0-0.509 0.085-0.709 0.228l0.004-0.002-3.381 2.453c-0.288 0.208-0.474 0.543-0.474 0.921 0 0.275 0.098 0.528 0.262 0.724l-0.001-0.002c0.228 0.301 0.585 0.494 0.987 0.494 0.261 0 0.503-0.081 0.702-0.219l-0.004 0.003 3.371-2.453c0.288-0.213 0.474-0.551 0.474-0.933 0-0.278-0.098-0.533-0.262-0.733l0.002 0.002zM11.179 6.688c-0.222-0.294-0.57-0.482-0.963-0.482-0.263 0-0.507 0.085-0.705 0.228l0.004-0.002c-0.277 0.21-0.454 0.54-0.454 0.91 0 0.265 0.090 0.509 0.242 0.703l-0.002-0.002 2.645 3.456c0.222 0.288 0.567 0.472 0.955 0.472 0.258 0 0.496-0.081 0.692-0.219l-0.004 0.003c0.29-0.207 0.477-0.543 0.477-0.922 0-0.265-0.091-0.509-0.244-0.702l0.002 0.002zM17.845 10.784c0.055 0.009 0.119 0.015 0.184 0.015 0.585 0 1.071-0.429 1.159-0.989l0.001-0.007 0.523-4.16c0.005-0.041 0.008-0.089 0.008-0.137 0-0.616-0.447-1.127-1.035-1.227l-0.007-0.001c-0.055-0.009-0.119-0.015-0.184-0.015-0.585 0-1.071 0.429-1.159 0.989l-0.001 0.007-0.533 4.16c-0.004 0.038-0.006 0.082-0.006 0.127 0 0.621 0.451 1.137 1.044 1.238l0.007 0.001zM11.445 15.435c0.003-0.034 0.005-0.073 0.005-0.112 0-0.624-0.45-1.144-1.043-1.252l-0.008-0.001-4.245-0.693c-0.060-0.011-0.13-0.018-0.2-0.018-0.583 0-1.064 0.432-1.143 0.993l-0.001 0.006c-0.008 0.050-0.012 0.109-0.012 0.168 0 0.611 0.459 1.115 1.052 1.186l0.006 0.001 4.245 0.693c0.059 0.010 0.126 0.016 0.195 0.016 0.58 0 1.061-0.425 1.148-0.98l0.001-0.007z"></path>
</symbol>
<symbol id="icon-dx" viewBox="0 0 32 32">
<path d="M16 27.2c-6.186 0-11.2-5.014-11.2-11.2s5.014-11.2 11.2-11.2c6.186 0 11.2 5.014 11.2 11.2v0c0 0.002 0 0.005 0 0.008 0 6.181-5.011 11.192-11.192 11.192-0.003 0-0.006 0-0.008 0v0zM16 6.4c-5.302 0-9.6 4.298-9.6 9.6s4.298 9.6 9.6 9.6c5.302 0 9.6-4.298 9.6-9.6v0c0-5.302-4.298-9.6-9.6-9.6v0z"></path>
</symbol>
<symbol id="icon-dx01" viewBox="0 0 32 32">
<path d="M16 27.2c-6.186 0-11.2-5.014-11.2-11.2s5.014-11.2 11.2-11.2c6.186 0 11.2 5.014 11.2 11.2v0c0 0.002 0 0.005 0 0.008 0 6.181-5.011 11.192-11.192 11.192-0.003 0-0.006 0-0.008 0v0zM16 7.584c-4.648 0-8.416 3.768-8.416 8.416s3.768 8.416 8.416 8.416v0-0.016c0.167 0.013 0.363 0.020 0.56 0.020 4.349 0 7.875-3.526 7.875-7.875 0-0.192-0.007-0.382-0.020-0.57l0.001 0.025c0-4.648-3.768-8.416-8.416-8.416v0zM16 21.584c0 0 0 0 0 0-3.087 0-5.591-2.498-5.6-5.583v-0.001c0-0.005 0-0.010 0-0.016 0-3.093 2.507-5.6 5.6-5.6s5.6 2.507 5.6 5.6c0 3.093-2.507 5.6-5.6 5.6v0z"></path>
</symbol>
<symbol id="icon-dx1" viewBox="0 0 32 32">
<path d="M16 27.2c-6.186 0-11.2-5.014-11.2-11.2s5.014-11.2 11.2-11.2c6.186 0 11.2 5.014 11.2 11.2v0c0 0.002 0 0.005 0 0.008 0 6.181-5.011 11.192-11.192 11.192-0.003 0-0.006 0-0.008 0v0zM16 6.4c-5.302 0-9.6 4.298-9.6 9.6s4.298 9.6 9.6 9.6c5.302 0 9.6-4.298 9.6-9.6v0c0-5.302-4.298-9.6-9.6-9.6v0zM16 22.4c-3.535 0-6.4-2.865-6.4-6.4s2.865-6.4 6.4-6.4c3.535 0 6.4 2.865 6.4 6.4v0c0 3.535-2.865 6.4-6.4 6.4v0z"></path>
</symbol>
<symbol id="icon-dx02" viewBox="0 0 32 32">
<path d="M24.832 4.8h-17.68c-1.298 0.002-2.35 1.054-2.352 2.352v17.696c0.002 1.298 1.054 2.35 2.352 2.352h17.696c1.298-0.002 2.35-1.054 2.352-2.352v-17.696c-0.005-1.3-1.059-2.352-2.36-2.352-0.003 0-0.006 0-0.008 0v0zM21.968 13.424l-5.904 6.992c-0.272 0.239-0.631 0.384-1.024 0.384s-0.752-0.146-1.026-0.386l0.002 0.002-4-3.728c-0.258-0.227-0.42-0.559-0.42-0.928s0.162-0.7 0.419-0.927l0.001-0.001c0.269-0.238 0.626-0.384 1.016-0.384s0.747 0.146 1.018 0.385l-0.002-0.001 2.992 2.8 4.896-6.064c0.269-0.238 0.626-0.384 1.016-0.384s0.747 0.146 1.018 0.385l-0.002-0.001c0.265 0.224 0.432 0.556 0.432 0.928s-0.167 0.704-0.43 0.927l-0.002 0.001z"></path>
</symbol>
<symbol id="icon-dz" viewBox="0 0 32 32">
<path d="M22.784 20.64l-6.8 6.56-6.784-6.56c-1.731-1.651-2.808-3.976-2.808-6.552s1.077-4.901 2.804-6.549l0.004-0.003c1.763-1.684 4.156-2.72 6.792-2.72s5.029 1.036 6.796 2.724l-0.004-0.004c1.731 1.651 2.808 3.976 2.808 6.552s-1.077 4.901-2.804 6.549l-0.004 0.003zM18.8 11.504c-0.732-0.679-1.715-1.096-2.796-1.096-0.61 0-1.189 0.133-1.709 0.371l0.026-0.011c-1.338 0.584-2.255 1.895-2.255 3.421 0 0.119 0.006 0.238 0.017 0.354l-0.001-0.015c0.207 1.615 1.402 2.902 2.951 3.243l0.025 0.005c0.289 0.073 0.62 0.115 0.961 0.115 1.342 0 2.532-0.652 3.271-1.656l0.008-0.011c0.412-0.578 0.659-1.298 0.659-2.077 0-1.043-0.444-1.983-1.152-2.641l-0.002-0.002z"></path>
</symbol>
<symbol id="icon-fanhui" viewBox="0 0 32 32">
<path d="M16 32c-8.837 0-16-7.163-16-16s7.163-16 16-16c8.837 0 16 7.163 16 16v0c-0.012 8.832-7.168 15.988-15.999 16h-0.001zM16 2.419c-7.5 0-13.581 6.080-13.581 13.581s6.080 13.581 13.581 13.581c7.5 0 13.581-6.080 13.581-13.581v0c-0.009-7.497-6.084-13.572-13.58-13.581h-0.001zM22.042 17.203h-9.165l3.84 3.853c0.22 0.222 0.356 0.527 0.356 0.865 0 0.163-0.032 0.319-0.090 0.462l0.003-0.008c-0.188 0.438-0.616 0.74-1.113 0.742v0c-0.335-0.001-0.639-0.138-0.857-0.358v0l-5.914-5.901c-0.214-0.222-0.346-0.524-0.346-0.858s0.132-0.636 0.346-0.858v0l5.914-5.901c0.218-0.218 0.519-0.353 0.851-0.353 0.665 0 1.204 0.539 1.204 1.204 0 0.332-0.135 0.633-0.353 0.851v0l-3.84 3.853h9.165c0.665 0 1.203 0.539 1.203 1.203s-0.539 1.203-1.203 1.203v0z"></path>
</symbol>
<symbol id="icon-fb" viewBox="0 0 32 32">
<path d="M25.704 4.936l-20.304 10.256c-0.304 0.103-0.528 0.364-0.575 0.683l-0.001 0.005c-0.004 0.029-0.006 0.062-0.006 0.096 0 0.299 0.161 0.56 0.402 0.701l0.004 0.002 4.832 2.992c0.149 0.070 0.324 0.111 0.508 0.111 0.309 0 0.591-0.115 0.806-0.304l-0.001 0.001 11.536-9.696 0.384 0.192-10.624 10.432c-0.113 0.121-0.183 0.284-0.183 0.464 0 0.034 0.002 0.067 0.007 0.1v-0.004 4.48c0 0.011-0.001 0.023-0.001 0.036 0 0.391 0.226 0.729 0.555 0.89l0.006 0.003c0.101 0.049 0.219 0.078 0.344 0.078 0.23 0 0.438-0.097 0.584-0.253v0l2.416-2.432 4.848 3.168c0.18 0.162 0.419 0.262 0.681 0.262 0.493 0 0.904-0.35 0.997-0.815l0.001-0.007 4.272-20.128c0.047-0.115 0.074-0.248 0.074-0.388 0-0.582-0.472-1.054-1.054-1.054-0.186 0-0.361 0.048-0.513 0.133l0.005-0.003z"></path>
</symbol>
<symbol id="icon-fenzhi" viewBox="0 0 32 32">
<path d="M24.424 26.064l-2.112-6.944 5.824-4.416c0.231-0.183 0.412-0.42 0.524-0.693l0.004-0.011c0.068-0.133 0.108-0.29 0.108-0.456s-0.040-0.323-0.111-0.462l0.003 0.006c-0.098-0.313-0.282-0.575-0.525-0.765l-0.003-0.003c-0.233-0.171-0.525-0.274-0.841-0.274-0.025 0-0.050 0.001-0.074 0.002h0.003l-7.36-0.192-2.448-6.816c-0.104-0.29-0.288-0.53-0.524-0.701l-0.004-0.003c-0.262-0.194-0.587-0.318-0.94-0.336h-0.004c-0.329 0.013-0.628 0.131-0.867 0.322l0.003-0.002c-0.247 0.192-0.446 0.433-0.586 0.708l-0.005 0.012-2.448 6.8-7.344 0.208c-0.326 0.039-0.62 0.153-0.871 0.324l0.007-0.004c-0.265 0.176-0.456 0.445-0.526 0.76l-0.002 0.008c-0.068 0.133-0.108 0.29-0.108 0.456s0.040 0.323 0.111 0.462l-0.003-0.006c0.087 0.289 0.248 0.533 0.462 0.718l0.002 0.002h0.064l5.824 4.416-2.112 6.928c-0.027 0.107-0.042 0.229-0.042 0.355 0 0.201 0.039 0.392 0.11 0.568l-0.004-0.010c0.098 0.298 0.282 0.544 0.524 0.717l0.004 0.003c0.222 0.161 0.501 0.257 0.801 0.257 0.022 0 0.044-0.001 0.066-0.002h0.061c0.007 0 0.016 0 0.025 0 0.313 0 0.604-0.096 0.844-0.26l-0.005 0.003 6.096-4.096 6.096 4.096c0.211 0.16 0.478 0.256 0.768 0.256 0.006 0 0.011 0 0.017 0h0.063c0.32-0.025 0.614-0.117 0.875-0.262l-0.011 0.006h0.064c0.222-0.217 0.401-0.478 0.522-0.769l0.006-0.015c0.053-0.133 0.084-0.287 0.084-0.448s-0.031-0.315-0.087-0.456l0.003 0.008z"></path>
</symbol>
<symbol id="icon-fx" viewBox="0 0 32 32">
<path d="M24 27.2h-16c-1.767 0-3.2-1.433-3.2-3.2v0-16c0-1.767 1.433-3.2 3.2-3.2v0h16c1.765 0.005 3.195 1.435 3.2 3.199v16.001c-0.005 1.765-1.435 3.195-3.199 3.2h-0.001zM25.6 9.6c-0.005-1.765-1.435-3.195-3.199-3.2h-12.801c-1.767 0-3.2 1.433-3.2 3.2v0 12.8c0 1.767 1.433 3.2 3.2 3.2v0h12.8c1.765-0.005 3.195-1.435 3.2-3.199v-12.801z"></path>
</symbol>
<symbol id="icon-fx1" viewBox="0 0 32 32">
<path d="M24.4 27.2h-16.8c-0.002 0-0.004 0-0.006 0-1.543 0-2.794-1.251-2.794-2.794 0-0.002 0-0.005 0-0.007v0-16.8c0-0.002 0-0.004 0-0.006 0-1.543 1.251-2.794 2.794-2.794 0.002 0 0.005 0 0.007 0h16.8c0.002 0 0.004 0 0.006 0 1.543 0 2.794 1.251 2.794 2.794 0 0.002 0 0.005 0 0.007v0 16.8c0 0.002 0 0.004 0 0.006 0 1.543-1.251 2.794-2.794 2.794-0.002 0-0.005 0-0.007 0v0zM22 11.504c-0.182-0.18-0.432-0.291-0.708-0.291-0.314 0-0.594 0.144-0.779 0.369l-0.001 0.002-5.616 6.288-3.536-3.664c-0.179-0.167-0.421-0.269-0.686-0.269-0.326 0-0.616 0.155-0.8 0.395l-0.002 0.002c-0.173 0.219-0.278 0.5-0.278 0.804 0 0.323 0.117 0.618 0.312 0.845l-0.002-0.002 4.32 4.528c0.18 0.169 0.424 0.272 0.691 0.272 0.314 0 0.594-0.143 0.78-0.366l0.001-0.002 6.384-7.184 0.080-0.080c0.143-0.204 0.228-0.457 0.228-0.73 0-0.36-0.149-0.685-0.388-0.918v0z"></path>
</symbol>
<symbol id="icon-fz" viewBox="0 0 32 32">
<path d="M23.2 23.2v-12.8c-0.187-0.797-0.803-1.413-1.586-1.597l-0.014-0.003h-11.2c0.016-0.048 0-1.552 0-1.6-0.001-0.017-0.001-0.037-0.001-0.057 0-0.853 0.691-1.544 1.544-1.544 0.020 0 0.040 0 0.060 0.001h11.197c0.108-0.014 0.233-0.023 0.36-0.023 1.581 0 2.862 1.282 2.862 2.862 0 0.127-0.008 0.252-0.024 0.375l0.002-0.014v11.2c-0.005 1.765-1.435 3.195-3.199 3.2h-0.001zM21.6 13.6v9.6c0 2.256-0.8 3.2-3.2 3.2h-9.6c-2.832 0-3.2-1.248-3.2-3.2v-9.6c-0.008-0.083-0.013-0.18-0.013-0.277 0-1.621 1.314-2.936 2.936-2.936 0.098 0 0.194 0.005 0.289 0.014l-0.012-0.001h9.6c2.88 0 3.040 1.536 3.2 3.2zM16.8 16.8h-1.6v-1.6c0-0.884-0.716-1.6-1.6-1.6s-1.6 0.716-1.6 1.6v0 1.6h-1.6c-0.884 0-1.6 0.716-1.6 1.6s0.716 1.6 1.6 1.6h1.6v1.6c0 0.884 0.716 1.6 1.6 1.6s1.6-0.716 1.6-1.6v0-1.6h1.6c0.884 0 1.6-0.716 1.6-1.6s-0.716-1.6-1.6-1.6v0z"></path>
</symbol>
<symbol id="icon-gb" viewBox="0 0 32 32">
<path d="M17.904 15.952l-1.904-1.888 7.312-7.328c0.238-0.237 0.566-0.384 0.928-0.384s0.69 0.147 0.928 0.384v0l0.048 0.064c0.237 0.235 0.384 0.56 0.384 0.92s-0.147 0.685-0.384 0.92v0zM25.216 25.12l-0.048 0.048c-0.238 0.237-0.566 0.384-0.928 0.384s-0.69-0.147-0.928-0.384l-7.312-7.312-7.312 7.312c-0.235 0.237-0.56 0.384-0.92 0.384s-0.685-0.147-0.92-0.384v0l-0.064-0.048c-0.23-0.241-0.372-0.568-0.372-0.928s0.142-0.687 0.372-0.928v0l7.312-7.312-7.312-7.312c-0.237-0.235-0.384-0.56-0.384-0.92s0.147-0.685 0.384-0.92l0.064-0.064c0.235-0.237 0.56-0.384 0.92-0.384s0.685 0.147 0.92 0.384v0l7.312 7.328 9.216 9.2c0.237 0.238 0.384 0.566 0.384 0.928s-0.147 0.69-0.384 0.928v0z"></path>
</symbol>
<symbol id="icon-gj" viewBox="0 0 32 32">
<path d="M25.856 25.105c0.003 0 0.006 0 0.010 0 0.31 0 0.562 0.249 0.566 0.558v0.98c-0.005 0.309-0.256 0.558-0.566 0.558-0.003 0-0.007 0-0.010 0h-19.626c0 0-0.001 0-0.001 0-0.309 0-0.561-0.249-0.564-0.558v-0.98c0.004-0.309 0.255-0.558 0.564-0.558 0 0 0.001 0 0.001 0h2.155c0.002 0 0.004 0 0.006 0 0.131 0 0.237-0.105 0.239-0.236v-7.983c-0.001-0.053-0.002-0.115-0.002-0.178 0-4.098 3.322-7.421 7.421-7.421s7.421 3.322 7.421 7.421c0 0.063-0.001 0.125-0.002 0.187v-0.009 7.983c0.001 0.13 0.105 0.235 0.235 0.236h2.155zM19.019 16.825h-2.197c-0.001 0-0.002 0-0.003 0-0.13 0-0.235-0.105-0.235-0.235 0-0.013 0.001-0.026 0.003-0.039v0.001l0.448-2.773v-0.037c0-0.142 0-0.142-0.16-0.142h-0.053c-0.076 0-0.144 0.032-0.192 0.083v0l-3.659 4.202c-0.032 0.042-0.052 0.095-0.053 0.152v0c0.001 0.13 0.105 0.235 0.235 0.236h1.952c0.003 0 0.006 0 0.009 0 0.127 0 0.229 0.103 0.229 0.229 0 0.015-0.001 0.030-0.004 0.044v-0.001l-0.437 2.773c-0.007 0.008-0.011 0.019-0.011 0.031 0 0.002 0 0.004 0 0.006v0c0 0.143 0.011 0.143 0.171 0.143h0.053c0.071 0 0.136-0.030 0.181-0.079v0l3.819-4.204c0.040-0.043 0.064-0.101 0.064-0.164 0-0.001 0-0.001 0-0.002v0c-0.011-0.123-0.032-0.225-0.16-0.225zM15.221 4.8h1.248c0 0 0.001 0 0.001 0 0.309 0 0.561 0.249 0.564 0.558v1.789c-0.004 0.309-0.255 0.558-0.564 0.558 0 0-0.001 0-0.001 0h-1.003c-0.003 0-0.006 0-0.009 0-0.31 0-0.562-0.249-0.567-0.557v-2.027c0.017-0.173 0.157-0.308 0.33-0.32h0.001zM9.451 6.734l1.301-0.794 0.032-0.028c0.16-0.128 0.309 0.007 0.459 0.155 0.018 0.013 0.032 0.029 0.042 0.047v0.001l1.12 1.89 0.032 0.033c0.030 0.048 0.048 0.106 0.048 0.168 0 0.132-0.080 0.246-0.195 0.295l-0.002 0.001c-0.032 0.009-0.061 0.023-0.086 0.040l0.001-0.001-1.269 0.931c-0.149 0.155-0.309 0.014-0.469-0.139l-0.032-0.048-1.141-1.9c0-0.001 0-0.001 0-0.002 0-0.007-0.004-0.013-0.011-0.015v0c-0.036-0.066-0.057-0.144-0.057-0.228 0-0.173 0.090-0.324 0.225-0.411l0.002-0.001zM5.333 11.407l0.8-1.255 0.032-0.062c0.083-0.087 0.199-0.141 0.328-0.141 0.031 0 0.062 0.003 0.091 0.009l-0.003-0.001c0 0 0 0 0 0 0.047 0 0.091 0.012 0.129 0.033l-0.001-0.001 1.888 1.078c0.024 0.015 0.045 0.032 0.064 0.050v0c0.081 0.091 0.13 0.211 0.13 0.342 0 0.016-0.001 0.031-0.002 0.047v-0.002c0.001 0.006 0.001 0.014 0.001 0.021 0 0.035-0.008 0.068-0.023 0.098l0.001-0.001-0.779 1.363c-0.013 0.026-0.031 0.048-0.053 0.065v0c-0.099 0.081-0.228 0.13-0.367 0.13-0.010 0-0.019 0-0.029-0.001h0.001c0 0 0 0 0 0-0.047 0-0.091-0.012-0.129-0.033l0.001 0.001-1.877-1.076c-0.029-0.014-0.054-0.034-0.074-0.057v0c-0.083-0.149-0.132-0.327-0.132-0.517 0-0.032 0.001-0.063 0.004-0.094v0.004zM23.467 11.087l1.952-1.116c0.017-0.007 0.031-0.016 0.043-0.028v0c0.149-0.126 0.299 0 0.448 0.149 0.019 0.017 0.033 0.037 0.042 0.061v0.001l0.64 1.236c0.003 0.014 0.011 0.026 0.021 0.034v0c0.030 0.048 0.048 0.106 0.048 0.168 0 0.132-0.080 0.246-0.195 0.295l-0.002 0.001c-0.024 0.006-0.046 0.014-0.065 0.025l0.001-0.001-1.92 1.095c-0.017 0.006-0.031 0.016-0.043 0.028v0c-0.149 0.126-0.299 0-0.448-0.149-0.018-0.017-0.033-0.037-0.042-0.061v-0.001l-0.619-1.199c-0.016-0.026-0.025-0.057-0.025-0.090 0-0.013 0.001-0.025 0.004-0.037v0.001c0.008-0.158 0.067-0.302 0.161-0.415l-0.001 0.001zM19.669 8.187l1.141-1.904c0.013-0.024 0.031-0.045 0.053-0.060h0.001c0.096-0.082 0.222-0.131 0.36-0.131 0.012 0 0.024 0 0.037 0.001h-0.002c0.002 0 0.005 0 0.008 0 0.040 0 0.078 0.009 0.111 0.025l-0.002-0.001 1.227 0.601c0.030 0.014 0.055 0.033 0.074 0.057v0c0.080 0.094 0.129 0.217 0.129 0.352 0 0.010 0 0.020-0.001 0.029v-0.001c0 0 0 0 0 0.001 0 0.044-0.012 0.086-0.033 0.122l0.001-0.001-1.099 1.847c-0.017 0.022-0.034 0.042-0.053 0.061v0c-0.097 0.081-0.223 0.131-0.361 0.131-0.008 0-0.016 0-0.024-0.001h0.001c-0.002 0-0.005 0-0.008 0-0.048 0-0.094-0.014-0.132-0.037l0.001 0.001-1.216-0.747c-0.025-0.013-0.053-0.023-0.084-0.028h-0.001c-0.149-0.023-0.277-0.172-0.128-0.32z"></path>
</symbol>
<symbol id="icon-hq" viewBox="0 0 32 32">
<path d="M6.4 25.6v-19.2h19.2v19.2h-19.2zM24 8h-16v16h16v-16zM14.4 11.2h3.2v3.2h3.2v3.2h-3.2v3.2h-3.2v-3.2h-3.2v-3.2h3.2v-3.2z"></path>
</symbol>
<symbol id="icon-icon25" viewBox="0 0 32 32">
<path d="M27.995 6.306h-21.819c-1.738 0-3.152-1.415-3.152-3.153s1.414-3.153 3.152-3.153h18.748c0.543 0 0.982 0.44 0.982 0.982s-0.439 0.982-0.982 0.982h-18.748c-0.656 0-1.188 0.534-1.188 1.189s0.533 1.19 1.188 1.19h21.819c0.543 0 0.982 0.44 0.982 0.982s-0.439 0.982-0.982 0.982v0zM27.995 32h-21.819c-1.738 0-3.152-1.415-3.152-3.154 0-0.542 0.439-0.982 0.982-0.982s0.982 0.44 0.982 0.982c0 0.657 0.533 1.191 1.188 1.191h21.819c0.543 0 0.982 0.44 0.982 0.982s-0.439 0.982-0.982 0.982v0zM4.005 29.828c-0.543 0-0.982-0.44-0.982-0.982v-25.693c0-0.542 0.439-0.982 0.982-0.982s0.982 0.44 0.982 0.982v25.693c0 0.542-0.439 0.982-0.982 0.982v0zM27.995 32c-0.543 0-0.982-0.44-0.982-0.982v-25.694c0-0.542 0.439-0.982 0.982-0.982s0.982 0.44 0.982 0.982v25.694c0 0.542-0.439 0.982-0.982 0.982v0zM24.923 6.306c-0.543 0-0.982-0.44-0.982-0.982v-4.343c0-0.542 0.439-0.982 0.982-0.982s0.982 0.44 0.982 0.982v4.343c0 0.542-0.439 0.982-0.982 0.982v0zM21.688 12.689h-11.811c-0.541 0-0.98-0.44-0.98-0.982s0.439-0.982 0.98-0.982h11.811c0.541 0 0.982 0.44 0.982 0.982s-0.441 0.982-0.982 0.982v0zM16 17.14h-6.123c-0.541 0-0.98-0.44-0.98-0.982s0.439-0.982 0.98-0.982h6.123c0.543 0 0.982 0.44 0.982 0.982s-0.439 0.982-0.982 0.982v0z"></path>
</symbol>
<symbol id="icon-jd" viewBox="0 0 32 32">
<path d="M22.112 18.171c1.448 1.897 2.327 4.296 2.347 6.899v0.005h1.141v1.593h-19.2v-1.593h1.131c0.024-2.609 0.906-5.008 2.378-6.931l-0.020 0.028c0.725-0.932 1.616-1.698 2.633-2.262l0.044-0.022c0.075-0.037 0.149-0.064 0.213-0.099-0.064-0.035-0.139-0.062-0.213-0.099-1.062-0.586-1.953-1.352-2.663-2.265l-0.014-0.019c-1.359-1.787-2.216-4.022-2.324-6.452l-0.001-0.025h-1.163v-1.593h19.2v1.593h-1.173c-0.1 2.454-0.954 4.691-2.335 6.505l0.021-0.028c-0.727 0.93-1.617 1.696-2.633 2.262l-0.044 0.023c-0.075 0.038-0.149 0.064-0.224 0.099 0.075 0.035 0.149 0.062 0.224 0.099 1.060 0.59 1.95 1.355 2.663 2.266l0.014 0.019zM9.344 6.944c0.067 1.062 0.277 2.053 0.61 2.984l-0.024-0.076c0.399 0.059 0.86 0.093 1.329 0.093 1.245 0 2.434-0.239 3.525-0.672l-0.064 0.023c1.007-0.571 2.212-0.907 3.496-0.907 1.461 0 2.821 0.436 3.955 1.185l-0.027-0.017c0.259-0.766 0.441-1.656 0.51-2.576l0.002-0.037h-13.312zM16 16.562c-1.902 0.067-3.568 1.020-4.607 2.456l-0.012 0.017c-1.154 1.511-1.895 3.393-2.025 5.44l-0.002 0.029 6.539-3.121 6.752 3.13c-0.132-2.079-0.873-3.963-2.045-5.501l0.018 0.025c-1.050-1.455-2.716-2.409-4.608-2.475h-0.010z"></path>
</symbol>
<symbol id="icon-jdpj" viewBox="0 0 32 32">
<path d="M8.656 8.656h3.488v5.6h5.6v5.6h5.6v3.488h-14.688v-14.688zM5.6 7.634v16.726c0 0 0 0.001 0 0.002 0 1.123 0.909 2.034 2.032 2.037h16.736c1.123-0.002 2.032-0.912 2.032-2.035 0-0.001 0-0.001 0-0.002v0-5.526c0 0 0-0.001 0-0.002 0-1.123-0.909-2.033-2.032-2.035h-3.568v-3.563c0 0 0-0.001 0-0.002 0-1.123-0.909-2.033-2.032-2.035h-3.568v-3.562c0 0 0-0.001 0-0.002 0-1.123-0.909-2.034-2.032-2.037h-5.536c-1.123 0.003-2.032 0.914-2.032 2.037 0 0.001 0 0.001 0 0.002v0z"></path>
</symbol>
<symbol id="icon-js" viewBox="0 0 32 32">
<path d="M22.080 10.848c0.075 0.043 0.149 0.085 0.235 0.139l0.224 0.139 0.011 0.256c0.004 0.067 0.006 0.146 0.006 0.226 0 0.583-0.112 1.139-0.315 1.65l0.011-0.030c-0.173 0.421-0.479 0.758-0.865 0.966l-0.010 0.005c-0.245 0.883-0.587 1.656-1.025 2.364l0.022-0.039c-0.487 0.781-1.218 1.37-2.084 1.666l-0.028 0.008c-0.597 0.132-1.282 0.207-1.985 0.207-0.191 0-0.381-0.006-0.569-0.017l0.026 0.001c-0.084 0.003-0.182 0.005-0.281 0.005-0.749 0-1.475-0.099-2.166-0.285l0.058 0.013c-0.816-0.363-1.475-0.957-1.909-1.698l-0.011-0.019c-0.356-0.626-0.665-1.352-0.888-2.114l-0.018-0.073c-0.404-0.205-0.718-0.539-0.891-0.948l-0.005-0.012c-0.201-0.478-0.317-1.034-0.317-1.617 0-0.092 0.003-0.183 0.009-0.273l-0.001 0.012v-0.256l0.235-0.149c0.053-0.032 0.117-0.064 0.171-0.096-0.256-2.965-0.16-4.053 1.045-5.312 2.336-1.749 7.712-1.685 10.080-0.096 1.621 1.397 1.728 2.965 1.237 5.376zM17.163 19.413l0.032 0.672-0.437 0.672 0.608 3.68 2.507-4.939 3.819-0.117c1.973 1.707 3.243 5.728 2.923 8.352h-21.28c0.053-2.304 0.512-6.24 3.019-8.245l3.456 0.032 3.232 4.875 0.608-3.648-0.448-0.661 0.043-0.672c0.287-0.020 0.622-0.032 0.96-0.032s0.673 0.012 1.005 0.034l-0.045-0.002zM20.011 9.803c-0.64 0.16-1.375 0.252-2.131 0.252-1.235 0-2.413-0.246-3.487-0.691l0.060 0.022c-0.693-0.352-1.696 0.373-2.517 0.299-0.247 0.434-0.439 0.937-0.549 1.47l-0.006 0.034-0.096 0.448-0.48-0.043c-0.022-0.002-0.047-0.004-0.072-0.004-0.077 0-0.152 0.013-0.221 0.037l0.005-0.001c-0.049 0.010-0.091 0.025-0.132 0.044l0.004-0.002c0 0.016 0 0.034 0 0.053 0 0.415 0.082 0.812 0.232 1.173l-0.007-0.020c0.086 0.24 0.272 0.426 0.506 0.51l0.006 0.002 0.288 0.085 0.085 0.256c0.221 0.84 0.52 1.574 0.9 2.257l-0.025-0.049c0.324 0.572 0.812 1.019 1.4 1.283l0.019 0.008c0.511 0.125 1.099 0.197 1.703 0.197 0.091 0 0.183-0.002 0.273-0.005h-0.013c0.139 0.007 0.302 0.012 0.466 0.012 0.593 0 1.173-0.055 1.736-0.159l-0.058 0.009c0.66-0.236 1.198-0.678 1.55-1.246l0.007-0.013c0.4-0.663 0.728-1.429 0.946-2.241l0.014-0.063 0.064-0.245 0.277-0.085c0.235-0.095 0.416-0.283 0.499-0.517l0.002-0.006c0.135-0.345 0.213-0.744 0.213-1.161 0-0.008 0-0.016 0-0.024v0.001c-0.034-0.019-0.073-0.034-0.115-0.042h-0.002c-0.079-0.027-0.169-0.043-0.264-0.043-0.005 0-0.009 0-0.014 0h0.001l-0.469 0.032-0.096-0.427c-0.107-0.527-0.281-0.994-0.515-1.424l0.013 0.027z"></path>
</symbol>
<symbol id="icon-js1" viewBox="0 0 32 32">
<path d="M21.904 26.667h-4.118c-0.003 0-0.006 0-0.010 0-0.416 0-0.754-0.338-0.754-0.754 0-0.005 0-0.009 0-0.014v0.001-6.593h-2.358v6.596c0 0.004 0 0.010 0 0.015 0 0.415-0.337 0.752-0.752 0.752-0.004 0-0.008 0-0.011 0h-4.053c-1.267-0.004-2.292-1.032-2.293-2.299v-6.731h-0.427c-0.002 0-0.005 0-0.008 0-0.987 0-1.787-0.8-1.787-1.787 0-0.005 0-0.011 0-0.016v0.001c0-0.008 0-0.018 0-0.028 0-0.471 0.19-0.897 0.498-1.205v0l7.738-8.229c0.61-0.643 1.47-1.043 2.424-1.043 0.887 0 1.694 0.346 2.292 0.911l-0.002-0.002c0.027 0.060 0.074 0.106 0.132 0.133l0.002 0.001 7.738 8.229c0.316 0.321 0.511 0.763 0.511 1.249 0 0.984-0.798 1.782-1.782 1.782-0.008 0-0.017 0-0.025 0h-0.663v6.731c-0.001 1.267-1.027 2.294-2.293 2.299v0z"></path>
</symbol>
<symbol id="icon-jspj" viewBox="0 0 32 32">
<path d="M16 27.2c-6.186 0-11.2-5.014-11.2-11.2s5.014-11.2 11.2-11.2c6.186 0 11.2 5.014 11.2 11.2v0c-0.007 6.183-5.017 11.193-11.199 11.2h-0.001zM16 8.018c-4.409 0-7.984 3.575-7.984 7.984s3.575 7.984 7.984 7.984c4.409 0 7.984-3.575 7.984-7.984v0c-0.008-4.406-3.578-7.976-7.983-7.986h-0.001zM13.36 22.4l1.392-6.259-1.936-0.022 1.856-4.912h3.664l-1.44 3.786h2.304z"></path>
</symbol>
<symbol id="icon-jt" viewBox="0 0 32 32">
<path d="M20.528 16.576l-7.632 7.152c-0.173 0.169-0.409 0.273-0.67 0.273-0.379 0-0.707-0.22-0.863-0.539l-0.002-0.006c-0.047-0.1-0.075-0.217-0.075-0.341 0-0.239 0.103-0.453 0.266-0.602l0.001-0.001 6.976-6.544-7.056-6.48c-0.17-0.152-0.276-0.372-0.276-0.616s0.106-0.464 0.275-0.615l0.001-0.001c0.175-0.159 0.408-0.256 0.664-0.256s0.489 0.097 0.665 0.257l-0.001-0.001 7.712 7.072v0.016c0.174 0.152 0.284 0.375 0.284 0.623 0 0.241-0.103 0.457-0.267 0.608l-0.001 0.001z"></path>
</symbol>
<symbol id="icon-jt1" viewBox="0 0 32 32">
<path d="M25.896 16.944l-8.752 8.352c-0.215 0.209-0.51 0.339-0.834 0.339-0.101 0-0.2-0.013-0.294-0.036l0.008 0.002c-0.395-0.097-0.703-0.395-0.814-0.776l-0.002-0.008c-0.022-0.080-0.034-0.172-0.034-0.267 0-0.313 0.137-0.595 0.353-0.788l0.001-0.001 8.336-7.776-8.336-7.776c-0.195-0.194-0.316-0.463-0.316-0.76 0-0.305 0.127-0.58 0.332-0.775v0c0.21-0.193 0.491-0.312 0.8-0.312s0.59 0.118 0.801 0.312l-0.001-0.001 8.752 8.352c0.284 0.201 0.467 0.528 0.467 0.897 0 0.028-0.001 0.055-0.003 0.082v-0.004c-0.002 0.383-0.182 0.723-0.461 0.942l-0.003 0.002zM16.76 16c-0.002 0.379-0.175 0.718-0.446 0.942l-0.002 0.002-8.768 8.352c-0.215 0.209-0.51 0.339-0.834 0.339-0.101 0-0.2-0.013-0.294-0.036l0.008 0.002c-0.395-0.097-0.703-0.395-0.814-0.776l-0.002-0.008c-0.022-0.080-0.034-0.172-0.034-0.267 0-0.313 0.137-0.595 0.353-0.788l0.001-0.001 8.336-7.776-8.336-7.776c-0.195-0.194-0.316-0.463-0.316-0.76 0-0.305 0.127-0.58 0.332-0.775v0c0.21-0.193 0.491-0.312 0.8-0.312s0.59 0.118 0.801 0.312l-0.001-0.001 8.768 8.352c0.275 0.206 0.451 0.532 0.451 0.898 0 0.027-0.001 0.055-0.003 0.082v-0.004z"></path>
</symbol>
<symbol id="icon-kc" viewBox="0 0 32 32">
<path d="M23.755 5.867h-1.973v8.523l-2.219-1.504-2.219 1.504v-8.523h-9.099c-0.023-0.001-0.051-0.001-0.079-0.001-1.239 0-2.249 0.979-2.3 2.205v15.856c0.051 1.231 1.061 2.209 2.3 2.209 0.028 0 0.055 0 0.083-0.001h15.505c0.023 0.001 0.051 0.001 0.079 0.001 1.239 0 2.249-0.979 2.3-2.205v-15.866c-0.056-1.226-1.063-2.199-2.298-2.199-0.029 0-0.057 0.001-0.085 0.002h0.004zM9.504 22.325c0.003 0.025 0.004 0.053 0.004 0.082 0 0.438-0.355 0.794-0.794 0.794s-0.794-0.355-0.794-0.794c0-0.029 0.002-0.058 0.005-0.086v0.003-12.651c-0.003-0.028-0.005-0.060-0.005-0.092 0-0.439 0.356-0.795 0.795-0.795s0.795 0.356 0.795 0.795c0 0.032-0.002 0.064-0.006 0.096v-0.004 12.651z"></path>
</symbol>
<symbol id="icon-kt" viewBox="0 0 32 32">
<path d="M25.419 21.867h-3.413l2.133 3.509c0.245 0.416-0.971 0.939-1.408 1.184-0.127 0.068-0.278 0.108-0.438 0.108-0.334 0-0.628-0.173-0.797-0.435l-0.002-0.004-2.677-4.384h-5.387l-2.667 4.384c-0.174 0.265-0.47 0.438-0.806 0.438-0.162 0-0.314-0.040-0.447-0.11l0.005 0.003c-0.437-0.245-1.653-0.768-1.408-1.184l2.133-3.509h-3.659c-0.009 0-0.020 0-0.031 0-0.661 0-1.198-0.526-1.217-1.183v-14.167c0.018-0.658 0.556-1.184 1.217-1.184 0.011 0 0.022 0 0.033 0h18.835c0.009 0 0.020 0 0.031 0 0.661 0 1.198 0.526 1.217 1.183v14.157c-0.013 0.663-0.553 1.195-1.218 1.195-0.011 0-0.021 0-0.032 0h0.002zM18.624 13.045l-4.437-3.008c-0.148-0.131-0.343-0.212-0.557-0.212-0.464 0-0.839 0.376-0.839 0.839 0 0.046 0.004 0.091 0.011 0.134l-0.001-0.005v6.027c-0.007 0.040-0.011 0.086-0.011 0.134 0 0.465 0.377 0.843 0.843 0.843 0.213 0 0.407-0.079 0.556-0.209l-0.001 0.001 4.437-3.019c0.331-0.101 0.569-0.4 0.576-0.757v-0.001c-0.007-0.36-0.244-0.662-0.57-0.766l-0.006-0.002z"></path>
</symbol>
<symbol id="icon-laoshi" viewBox="0 0 32 32">
<path d="M30.199 31.449l-0.284 0.551h-28.125l0.018-0.836c0.036-2.068 0.313-4.054 0.803-5.955l-0.039 0.177c0.527-2.27 1.687-4.216 3.282-5.701l0.007-0.006 0.249-0.196h0.32l3.716-0.036v1.689l-3.413-0.036c-1.222 1.263-2.113 2.853-2.529 4.626l-0.013 0.067c-0.36 1.347-0.602 2.912-0.674 4.521l-0.002 0.048h25.014c-0.053-1.839-0.407-3.579-1.014-5.195l0.036 0.11c-0.501-1.627-1.313-3.031-2.373-4.205l0.009 0.010h-3.893v-1.636h4.445l0.356 0.107c1.381 1.426 2.431 3.182 3.017 5.138l0.023 0.089c0.683 1.792 1.078 3.864 1.078 6.028 0 0.225-0.004 0.448-0.013 0.671l0.001-0.032zM16.279 29.262l-2.24-1.636 1.458-5.671-0.551-0.871 0.036-0.907c0.359-0.026 0.778-0.040 1.2-0.040s0.841 0.015 1.256 0.043l-0.056-0.003 0.036 0.907-0.551 0.871 1.636 5.671-2.222 1.636zM22.714 12.817c-0.439 1.73-1.267 3.228-2.389 4.452l0.007-0.008c-1.144 1.128-2.621 1.92-4.271 2.215l-0.049 0.007-0.142 0.018-0.124-0.018c-1.651-0.249-3.093-1.003-4.196-2.098h0.001c-1.17-1.236-2.046-2.763-2.507-4.46l-0.017-0.074c-0.524-0.288-0.925-0.746-1.132-1.299l-0.006-0.017c-0.254-0.642-0.401-1.386-0.401-2.164 0-0.12 0.004-0.24 0.011-0.359l-0.001 0.016v-0.391l0.338-0.231c0.094-0.063 0.205-0.128 0.319-0.187l0.019-0.009c-0.516-3.040-0.373-5.636 1.511-7.36 1.493-1.049 4.124-0.32 6.542-0.676 6.862-1.013 6.809 2.4 7.502 8.16 0.036 0.018 0.089 0.053 0.124 0.071l0.338 0.231v0.391c0.005 0.096 0.008 0.209 0.008 0.323 0 0.771-0.14 1.51-0.396 2.191l0.014-0.043c-0.211 0.561-0.597 1.016-1.090 1.309l-0.012 0.006zM21.896 9.777l-0.107-0.338-0.213 0.018-0.142-0.658c-0.089-0.516-0.249-3.182-0.444-3.627-0.105 0.017-0.225 0.026-0.348 0.026-0.581 0-1.113-0.212-1.522-0.562l0.003 0.003-0.302 0.924-0.498-0.053 0.071-0.569-0.516 0.8-0.462-0.089 0.444-1.191c-2.436 1.636-6.613 1.564-7.165 0.818-0.070 0.112-0.126 0.243-0.158 0.382l-0.002 0.009c-0.107 0.444-0.231 3.2-0.356 3.645l-0.018 0.16h-0.018c-0.018 0.089-0.053 0.16-0.071 0.231-0.132-0.031-0.283-0.049-0.439-0.049-0.205 0-0.402 0.031-0.588 0.088l0.014-0.004c0.022 0.447 0.118 0.865 0.276 1.252l-0.009-0.025c0.091 0.279 0.298 0.497 0.562 0.602l0.007 0.002 0.409 0.124 0.107 0.409c0.4 1.65 1.188 3.079 2.263 4.237l-0.005-0.006c0.842 0.831 1.931 1.415 3.146 1.63l0.036 0.005c1.313-0.254 2.453-0.872 3.343-1.743l-0.001 0.001c1.008-1.137 1.747-2.535 2.103-4.079l0.012-0.063 0.107-0.391 0.391-0.124c0.267-0.124 0.467-0.353 0.549-0.633l0.002-0.007c0.149-0.35 0.245-0.757 0.266-1.183v-0.008c-0.032-0.001-0.071-0.001-0.109-0.001-0.218 0-0.434 0.013-0.645 0.039l0.025-0.002z"></path>
</symbol>
<symbol id="icon-laoshi1" viewBox="0 0 32 32">
<path d="M17.887 20.25v-1.736h12.458v1.736h-5.23v11.75h-1.865l0.088-11.748h-5.451zM15.272 0c-4.293 0.076-7.748 3.553-7.79 7.847v0.004c0 0.027 0 0.058 0 0.090 0 2.493 1.133 4.722 2.911 6.199l0.013 0.011 0.552 0.339-0.563 0.214c-5.092 1.946-8.658 6.756-8.739 12.409v0.1c0 0.003 0 0.007 0 0.011 0 2.068 1.673 3.745 3.74 3.752h0.012l10.13 0.125c0.032 0.004 0.069 0.007 0.106 0.007 0.445 0 0.806-0.359 0.81-0.803v0c0.004-0.031 0.007-0.067 0.007-0.104 0-0.433-0.351-0.785-0.785-0.785-0.033 0-0.066 0.002-0.098 0.006h0.004l-10.141-0.127c-1.103-0.126-1.97-0.993-2.096-2.086l-0.001-0.011v-0.053c0.077-5.924 4.855-11.034 10.516-11.277l1.556 0.018c1.582-0.016 3.049-0.493 4.278-1.303l-0.030 0.018 0.441-0.34c1.887-1.47 3.090-3.743 3.090-6.296 0-4.383-3.543-7.939-7.921-7.96h-0.002zM15.327 14.193c-3.425-0.032-6.19-2.816-6.19-6.245 0-3.449 2.796-6.246 6.246-6.246s6.246 2.796 6.246 6.246c0 0.030 0 0.060-0.001 0.090v-0.005c-0.055 3.413-2.834 6.16-6.256 6.16-0.016 0-0.032 0-0.047 0h0.002z"></path>
</symbol>
<symbol id="icon-laoshi2" viewBox="0 0 32 32">
<path d="M30.199 31.449l-0.284 0.551h-28.125l0.018-0.836c0.036-2.068 0.313-4.054 0.803-5.955l-0.039 0.177c0.527-2.27 1.687-4.216 3.282-5.701l0.007-0.006 0.249-0.196h0.32l3.716-0.036v1.689l-3.413-0.036c-1.222 1.263-2.113 2.853-2.529 4.626l-0.013 0.067c-0.36 1.347-0.602 2.912-0.674 4.521l-0.002 0.048h25.014c-0.053-1.839-0.407-3.579-1.014-5.195l0.036 0.11c-0.501-1.627-1.313-3.031-2.373-4.205l0.009 0.010h-3.893v-1.636h4.445l0.356 0.107c1.381 1.426 2.431 3.182 3.017 5.138l0.023 0.089c0.683 1.792 1.078 3.864 1.078 6.028 0 0.225-0.004 0.448-0.013 0.671l0.001-0.032zM16.279 29.262l-2.24-1.636 1.458-5.671-0.551-0.871 0.036-0.907c0.359-0.026 0.778-0.040 1.2-0.040s0.841 0.015 1.256 0.043l-0.056-0.003 0.036 0.907-0.551 0.871 1.636 5.671-2.222 1.636zM22.714 12.817c-0.439 1.73-1.267 3.228-2.389 4.452l0.007-0.008c-1.144 1.128-2.621 1.92-4.271 2.215l-0.049 0.007-0.142 0.018-0.124-0.018c-1.651-0.249-3.093-1.003-4.196-2.098h0.001c-1.17-1.236-2.046-2.763-2.507-4.46l-0.017-0.074c-0.524-0.288-0.925-0.746-1.132-1.299l-0.006-0.017c-0.254-0.642-0.401-1.386-0.401-2.164 0-0.12 0.004-0.24 0.011-0.359l-0.001 0.016v-0.391l0.338-0.231c0.094-0.063 0.205-0.128 0.319-0.187l0.019-0.009c-0.516-3.040-0.373-5.636 1.511-7.36 1.493-1.049 4.124-0.32 6.542-0.676 6.862-1.013 6.809 2.4 7.502 8.16 0.036 0.018 0.089 0.053 0.124 0.071l0.338 0.231v0.391c0.005 0.096 0.008 0.209 0.008 0.323 0 0.771-0.14 1.51-0.396 2.191l0.014-0.043c-0.211 0.561-0.597 1.016-1.090 1.309l-0.012 0.006zM21.896 9.777l-0.107-0.338-0.213 0.018-0.142-0.658c-0.089-0.516-0.249-3.182-0.444-3.627-0.105 0.017-0.225 0.026-0.348 0.026-0.581 0-1.113-0.212-1.522-0.562l0.003 0.003-0.302 0.924-0.498-0.053 0.071-0.569-0.516 0.8-0.462-0.089 0.444-1.191c-2.436 1.636-6.613 1.564-7.165 0.818-0.070 0.112-0.126 0.243-0.158 0.382l-0.002 0.009c-0.107 0.444-0.231 3.2-0.356 3.645l-0.018 0.16h-0.018c-0.018 0.089-0.053 0.16-0.071 0.231-0.132-0.031-0.283-0.049-0.439-0.049-0.205 0-0.402 0.031-0.588 0.088l0.014-0.004c0.022 0.447 0.118 0.865 0.276 1.252l-0.009-0.025c0.091 0.279 0.298 0.497 0.562 0.602l0.007 0.002 0.409 0.124 0.107 0.409c0.4 1.65 1.188 3.079 2.263 4.237l-0.005-0.006c0.842 0.831 1.931 1.415 3.146 1.63l0.036 0.005c1.313-0.254 2.453-0.872 3.343-1.743l-0.001 0.001c1.008-1.137 1.747-2.535 2.103-4.079l0.012-0.063 0.107-0.391 0.391-0.124c0.267-0.124 0.467-0.353 0.549-0.633l0.002-0.007c0.149-0.35 0.245-0.757 0.266-1.183v-0.008c-0.032-0.001-0.071-0.001-0.109-0.001-0.218 0-0.434 0.013-0.645 0.039l0.025-0.002z"></path>
</symbol>
<symbol id="icon-lskb" viewBox="0 0 32 32">
<path fill="#808080" style="fill: var(--color2, #808080)" d="M30.042 32.282l-0.282 0.565h-28.838l0.019-0.866c0.030-2.12 0.317-4.158 0.83-6.105l-0.039 0.176c0.535-2.33 1.724-4.327 3.362-5.848l0.007-0.007 0.245-0.207h0.32l3.821-0.038v1.751l-3.501-0.038c-1.246 1.293-2.156 2.919-2.584 4.731l-0.014 0.069c-0.366 1.385-0.615 2.996-0.694 4.652l-0.002 0.054 25.656-0.019c-0.058-1.881-0.425-3.658-1.054-5.307l0.037 0.112c-0.515-1.676-1.341-3.123-2.42-4.342l0.011 0.012h-4.009v-1.675h4.574l0.339 0.113c1.428 1.467 2.513 3.276 3.12 5.292l0.024 0.092c0.688 1.822 1.087 3.928 1.087 6.127 0 0.248-0.005 0.495-0.015 0.741l0.001-0.035zM15.774 30.042l-2.278-1.694 1.468-5.816-0.546-0.904 0.038-0.904c0.367-0.036 0.793-0.056 1.224-0.056s0.857 0.020 1.277 0.061l-0.054-0.004 0.038 0.904-0.546 0.904 1.656 5.816-2.278 1.694zM22.381 13.158c-0.455 1.773-1.305 3.307-2.454 4.563l0.007-0.008c-1.169 1.159-2.682 1.972-4.374 2.27l-0.050 0.007-0.151 0.038-0.132-0.038c-1.69-0.249-3.166-1.022-4.292-2.146v0c-1.211-1.262-2.114-2.83-2.581-4.575l-0.017-0.074c-0.53-0.3-0.937-0.762-1.161-1.319l-0.006-0.018c-0.256-0.674-0.404-1.453-0.404-2.266 0-0.117 0.003-0.233 0.009-0.348l-0.001 0.016v-0.395l0.339-0.226c0.1-0.067 0.217-0.136 0.338-0.198l0.020-0.009c-0.527-3.125-0.395-5.779 1.544-7.548 1.525-1.092 4.216-0.339 6.701-0.696 7.040-1.035 7.002 2.447 7.699 8.376 0.050 0.019 0.094 0.045 0.133 0.076l-0.001-0.001 0.339 0.226v0.395c0.005 0.094 0.008 0.205 0.008 0.316 0 0.798-0.141 1.563-0.399 2.271l0.015-0.046c-0.217 0.577-0.612 1.045-1.117 1.349l-0.012 0.007zM21.534 10.033l-0.094-0.339h-0.245l-0.132-0.678c-0.094-0.527-0.245-3.256-0.452-3.689-0.094 0.013-0.203 0.020-0.313 0.020-0.614 0-1.176-0.221-1.611-0.587l0.004 0.003-0.301 0.96-0.508-0.075 0.056-0.584-0.527 0.847-0.471-0.094 0.471-1.242c-2.504 1.694-6.795 1.6-7.36 0.847-0.074 0.113-0.127 0.246-0.15 0.389l-0.001 0.006c-0.113 0.452-0.245 3.294-0.358 3.746l-0.038 0.169h-0.019c-0.019 0.075-0.056 0.169-0.075 0.226-0.135-0.033-0.29-0.052-0.449-0.052-0.209 0-0.411 0.033-0.601 0.093l0.014-0.004c0.027 0.46 0.122 0.89 0.273 1.291l-0.010-0.030c0.097 0.29 0.316 0.516 0.596 0.619l0.007 0.002 0.414 0.132 0.113 0.414c0.413 1.695 1.221 3.162 2.321 4.355l-0.006-0.007c0.863 0.848 1.976 1.445 3.219 1.67l0.038 0.006c1.346-0.261 2.514-0.895 3.427-1.789l-0.001 0.001c1.036-1.166 1.793-2.603 2.153-4.19l0.012-0.064 0.113-0.395 0.395-0.132c0.273-0.127 0.482-0.353 0.581-0.632l0.002-0.008c0.14-0.366 0.234-0.789 0.263-1.229l0.001-0.013c-0.245 0-0.471 0.019-0.753 0.038v0z"></path>
</symbol>
<symbol id="icon-mp3" viewBox="0 0 32 32">
<path d="M28.8 32h-25.6c-1.767 0-3.2-1.433-3.2-3.2v0-25.6c0-1.767 1.433-3.2 3.2-3.2v0h25.6c1.767 0 3.2 1.433 3.2 3.2v0 25.6c0 1.767-1.433 3.2-3.2 3.2v0zM28.8 4.8c0-0.884-0.716-1.6-1.6-1.6v0h-22.4c-0.884 0-1.6 0.716-1.6 1.6v0 22.4c0 0.884 0.716 1.6 1.6 1.6v0h22.4c0.884 0 1.6-0.716 1.6-1.6v0-22.4zM23.968 21.224c-0.027 1.539-1.281 2.777-2.824 2.777-0.020 0-0.040 0-0.059-0.001h-1.693c-0.003 0-0.006 0-0.010 0-0.378 0-0.685-0.302-0.694-0.678v-5.415c0.009-0.377 0.316-0.678 0.694-0.678 0.003 0 0.007 0 0.010 0h2.991v-1.92c-0.059-3.194-2.662-5.761-5.865-5.761-0.036 0-0.073 0-0.109 0.001h-0.827c-0.031-0.001-0.068-0.001-0.105-0.001-3.206 0-5.812 2.565-5.879 5.755v1.926h2.992c0.006 0 0.012 0 0.019 0 0.376 0 0.681 0.303 0.685 0.678v5.415c-0.003 0.376-0.309 0.679-0.685 0.679-0.007 0-0.014 0-0.020 0h-1.695c-0.014 0-0.030 0-0.047 0-1.545 0-2.801-1.236-2.833-2.773v-0.523h-0.016v-5.394c0-0.011 0-0.023 0-0.036 0-1.017 0.218-1.984 0.61-2.855l-0.018 0.044c0.215-0.476 0.45-0.884 0.72-1.265l-0.016 0.023c0.282-0.405 0.587-0.758 0.925-1.079l0.003-0.003c0.334-0.324 0.7-0.618 1.092-0.876l0.028-0.017c0.367-0.244 0.788-0.47 1.23-0.655l0.050-0.019c0.871-0.363 1.883-0.574 2.944-0.574 0.006 0 0.011 0 0.017 0h0.831c0.008 0 0.018 0 0.027 0 1.052 0 2.054 0.211 2.967 0.593l-0.051-0.019c0.501 0.209 0.927 0.435 1.329 0.694l-0.034-0.020c0.419 0.28 0.785 0.574 1.123 0.896l-0.003-0.003c0.335 0.326 0.639 0.68 0.912 1.058l0.016 0.024c0.249 0.357 0.479 0.765 0.669 1.194l0.019 0.047c0.384 0.837 0.608 1.815 0.608 2.846v5.394h-0.032v0.52z"></path>
</symbol>
<symbol id="icon-qp" viewBox="0 0 32 32">
<path d="M28.48 28.48c-0.171 0.197-0.421 0.32-0.701 0.32-0.007 0-0.014 0-0.020 0h-7.951c-0.566 0-1.024-0.458-1.024-1.024s0.458-1.024 1.024-1.024v0l5.472 0.016-7.456-7.44 1.456-1.456 7.456 7.472v-5.536c0.004-0.564 0.46-1.020 1.024-1.024v0c0.001 0 0.002 0 0.003 0 0.564 0 1.021 0.457 1.021 1.021 0 0.001 0 0.002 0 0.003v0l0.016 7.936c-0.004 0.289-0.126 0.55-0.32 0.736v0zM27.76 13.216c-0.564-0.004-1.020-0.46-1.024-1.024v0l0.032-5.472-7.44 7.44-1.456-1.456 7.456-7.456h-5.52c-0.566 0-1.024-0.458-1.024-1.024s0.458-1.024 1.024-1.024v0h7.92c0.009 0 0.018 0 0.029 0 0.278 0 0.53 0.117 0.707 0.304v0c0.197 0.166 0.321 0.413 0.321 0.688 0 0.011 0 0.022-0.001 0.033v-0.002 7.968c0 0.001 0 0.002 0 0.003 0 0.564-0.457 1.021-1.021 1.021-0.001 0-0.002 0-0.003 0v0zM12.704 14.112l-7.456-7.456v5.536c-0.004 0.564-0.46 1.020-1.024 1.024v0c-0.001 0-0.002 0-0.003 0-0.564 0-1.021-0.457-1.021-1.021 0-0.001 0-0.002 0-0.003v0-7.936c0-0.002 0-0.004 0-0.006 0-0.285 0.116-0.543 0.304-0.729v0c0.171-0.197 0.421-0.32 0.701-0.32 0.007 0 0.014 0 0.020 0h7.951c0.566 0 1.024 0.458 1.024 1.024s-0.458 1.024-1.024 1.024v0l-5.472-0.032 7.456 7.456-1.456 1.44zM4.224 18.784c0.564 0.004 1.020 0.46 1.024 1.024v0l-0.032 5.472 7.44-7.44 1.456 1.44-7.456 7.472h5.52c0.566 0 1.024 0.458 1.024 1.024s-0.458 1.024-1.024 1.024h-7.92c-0.286-0.006-0.545-0.121-0.736-0.304v0c-0.197-0.177-0.32-0.432-0.32-0.716 0-0.002 0-0.003 0-0.005v0-7.968c0-0.001 0-0.002 0-0.003 0-0.564 0.457-1.021 1.021-1.021 0.001 0 0.002 0 0.003 0v0z"></path>
</symbol>
<symbol id="icon-qt" viewBox="0 0 32 32">
<path d="M18.709 8.885c0 0.017 0 0.038 0 0.059 0 1.994 1.617 3.611 3.611 3.611s3.611-1.617 3.611-3.611c0-1.994-1.617-3.611-3.611-3.611-0.002 0-0.003 0-0.005 0v0c-0.007 0-0.015 0-0.023 0-1.968 0-3.565 1.587-3.583 3.55v0.002zM18.709 22.229c0 0.019 0 0.041 0 0.064 0 2.492 2.020 4.512 4.512 4.512s4.512-2.020 4.512-4.512c0-2.492-2.020-4.512-4.512-4.512v0c-0.010 0-0.021 0-0.032 0-2.463 0-4.462 1.988-4.48 4.446v0.002zM4.267 15.104c0.065 3.438 2.867 6.2 6.315 6.2s6.249-2.762 6.315-6.194v-0.006c-0.003-2.301-1.261-4.307-3.127-5.371l-0.030-0.016c-0.908-0.523-1.997-0.832-3.157-0.832s-2.249 0.309-3.188 0.849l0.031-0.017c-1.895 1.081-3.152 3.086-3.157 5.386v0.001z"></path>
</symbol>
<symbol id="icon-rq" viewBox="0 0 32 32">
<path d="M14.080 8.048h3.84v-2.256h-3.84v2.256zM23.040 8.048h1.92c0.013 0 0.027-0.001 0.042-0.001 0.671 0 1.217 0.533 1.238 1.199v15.298c-0.029 0.669-0.578 1.201-1.252 1.201-0.016 0-0.031 0-0.047-0.001h-17.902c-0.013 0-0.027 0.001-0.042 0.001-0.671 0-1.217-0.533-1.238-1.199v-15.298c0.022-0.668 0.569-1.201 1.241-1.201 0.019 0 0.039 0 0.058 0.001h1.949v-2.256h-1.952c-0.058-0.003-0.126-0.005-0.195-0.005-1.953 0-3.549 1.526-3.661 3.451v15.306c0.11 1.934 1.705 3.461 3.657 3.461 0.064 0 0.128-0.002 0.192-0.005h17.895c0.058 0.003 0.126 0.005 0.195 0.005 1.953 0 3.549-1.526 3.661-3.451v-15.306c-0.11-1.934-1.705-3.461-3.657-3.461-0.064 0-0.128 0.002-0.192 0.005h-1.911v2.256zM10.24 5.12c0.087-0.636 0.627-1.122 1.28-1.122s1.193 0.485 1.279 1.115l0.001 0.007v3.616c-0.087 0.636-0.627 1.121-1.28 1.121s-1.193-0.485-1.279-1.115l-0.001-0.007v-3.616zM19.2 5.12c0.087-0.636 0.627-1.122 1.28-1.122s1.193 0.485 1.279 1.115l0.001 0.007v3.616c-0.087 0.636-0.627 1.121-1.28 1.121s-1.193-0.485-1.279-1.115l-0.001-0.007v-3.616zM10.24 15.504c0.044-0.637 0.572-1.138 1.216-1.138 0.022 0 0.045 0.001 0.067 0.002h8.941c0.048-0.007 0.103-0.011 0.159-0.011 0.629 0 1.139 0.51 1.139 1.139s-0.51 1.139-1.139 1.139c-0.056 0-0.111-0.004-0.166-0.012l0.006 0.001h-8.944c-0.023 0.002-0.050 0.002-0.077 0.002-0.637 0-1.158-0.493-1.203-1.119v-0.004zM10.24 19.904c0.045-0.629 0.567-1.122 1.203-1.122 0.027 0 0.054 0.001 0.080 0.003h8.94c0.048-0.007 0.103-0.011 0.159-0.011 0.629 0 1.139 0.51 1.139 1.139s-0.51 1.139-1.139 1.139c-0.056 0-0.111-0.004-0.166-0.012l0.006 0.001h-8.944c-0.022 0.001-0.048 0.002-0.074 0.002-0.643 0-1.168-0.502-1.206-1.135v-0.003z"></path>
</symbol>
<symbol id="icon-rs" viewBox="0 0 32 32">
<path d="M28.645 21.888c-0.32-2.101-4.352-3.008-5.589-3.957-0.127-0.175-0.203-0.393-0.203-0.629v0c-0.003-0.035-0.005-0.075-0.005-0.116 0-0.212 0.045-0.415 0.126-0.597l-0.004 0.009c1.31-0.975 2.149-2.52 2.149-4.26 0-0.187-0.010-0.371-0.028-0.552l0.002 0.023c-0.117-1.461-0.96-4.064-3.797-4.064h-0.203c-0.021 0-0.046-0.001-0.071-0.001-0.549 0-1.071 0.114-1.544 0.32l0.025-0.010c0.629 1.984 1.355 5.739-1.685 8.107-1.152 1.771 2.88 2.805 2.24 2.485 3.595 1.664 4.672 2.805 4.875 4.149 0.192 1.024 0.32 1.781 0.32 1.781 1.293-0.181 2.461-0.513 3.556-0.984l-0.090 0.034c0.038-0.21 0.060-0.451 0.060-0.697 0-0.37-0.049-0.729-0.141-1.070l0.007 0.029zM15.621 17.931c-0.171-0.189-0.286-0.431-0.319-0.698l-0.001-0.006c-0.006-0.044-0.009-0.094-0.009-0.146 0-0.256 0.079-0.494 0.214-0.691l-0.003 0.004s2.635-1.461 2.635-5.931c-0.075-1.813-1.152-5.131-4.747-5.131h-0.203c-3.712 0-4.672 3.243-4.757 5.099 0 4.267 2.645 5.92 2.645 5.92 0.19 0.293 0.305 0.65 0.309 1.034v0.001c-0.081 0.257-0.233 0.472-0.434 0.627l-0.003 0.002c-1.472 1.141-6.869 2.411-7.264 4.896-0.32 1.035-1.92 2.805 3.477 3.435 1.649 0.207 3.557 0.325 5.493 0.325 0.229 0 0.458-0.002 0.686-0.005h-0.035c12.384 0 9.824-2.411 9.504-3.755-0.192-2.603-5.707-3.829-7.189-4.981z"></path>
</symbol>
<symbol id="icon-rwgl" viewBox="0 0 32 32">
<path d="M24 27.2h-16c-1.767 0-3.2-1.433-3.2-3.2v0-16c0-1.767 1.433-3.2 3.2-3.2v0h16c1.767 0 3.2 1.433 3.2 3.2v0 16c0 1.767-1.433 3.2-3.2 3.2v0zM24 9.6c0-0.884-0.716-1.6-1.6-1.6v0h-12.8c-0.884 0-1.6 0.716-1.6 1.6v0 3.2c0 0.884 0.716 1.6 1.6 1.6h12.8c0.884 0 1.6-0.716 1.6-1.6v0-3.2zM24 19.2c0-0.884-0.716-1.6-1.6-1.6v0h-12.8c-0.884 0-1.6 0.716-1.6 1.6v0 3.2c0 0.884 0.716 1.6 1.6 1.6h12.8c0.884 0 1.6-0.716 1.6-1.6v0-3.2zM12.8 22.4c-0.884 0-1.6-0.716-1.6-1.6s0.716-1.6 1.6-1.6c0.884 0 1.6 0.716 1.6 1.6v0c0 0.884-0.716 1.6-1.6 1.6v0zM12.8 12.8c-0.884 0-1.6-0.716-1.6-1.6s0.716-1.6 1.6-1.6c0.884 0 1.6 0.716 1.6 1.6v0c0 0.884-0.716 1.6-1.6 1.6v0z"></path>
</symbol>
<symbol id="icon-rwgz" viewBox="0 0 32 32">
<path d="M28.8 17.6h-3.344c-0.703 4.020-3.833 7.145-7.799 7.832l-0.057 0.008v3.36h-3.2v-3.36c-4.023-0.695-7.153-3.82-7.848-7.782l-0.008-0.058h-3.344v-3.2h3.344c0.703-4.020 3.833-7.145 7.799-7.832l0.057-0.008v-3.36h3.2v3.36c4.023 0.695 7.153 3.82 7.848 7.782l0.008 0.057h3.344v3.2zM16 9.6c-3.535 0-6.4 2.865-6.4 6.4s2.865 6.4 6.4 6.4c3.535 0 6.4-2.865 6.4-6.4v0c0-3.535-2.865-6.4-6.4-6.4v0zM16 19.2c-1.767 0-3.2-1.433-3.2-3.2s1.433-3.2 3.2-3.2c1.767 0 3.2 1.433 3.2 3.2v0c0 1.767-1.433 3.2-3.2 3.2v0z"></path>
</symbol>
<symbol id="icon-sc" viewBox="0 0 32 32">
<path d="M6.4 9.6c-0.001-0.022-0.002-0.048-0.002-0.074 0-0.844 0.684-1.528 1.528-1.528 0.026 0 0.052 0.001 0.077 0.002h3.084l0.352-2.16c0.149-0.602 0.684-1.041 1.322-1.041 0.013 0 0.027 0 0.040 0.001h6.398c0.011 0 0.025-0.001 0.038-0.001 0.638 0 1.173 0.439 1.32 1.031l0.002 0.009 0.352 2.16h3.088c0.85 0.080 1.52 0.75 1.599 1.593l0.001 0.007v1.6h-19.2v-1.6zM19.2 6.4h-6.4v1.6h6.4v-1.6zM8 12.8h16c0.878 0.013 1.587 0.722 1.6 1.599v0.001l-1.6 11.2c-0.256 0.896-1.045 1.55-1.995 1.6h-12.405c-0.853-0.071-1.529-0.747-1.6-1.594v-0.006l-1.6-11.2c0.013-0.878 0.722-1.587 1.599-1.6h0.001zM19.2 24.4h2.4l0.8-9.808h-3.2v9.808zM14.4 24.4h3.2v-9.808h-3.2v9.808zM10.4 24.4h2.4v-9.808h-3.2z"></path>
</symbol>
<symbol id="icon-sc1" viewBox="0 0 32 32">
<path d="M16 28.8c-7.069 0-12.8-5.731-12.8-12.8s5.731-12.8 12.8-12.8c7.069 0 12.8 5.731 12.8 12.8v0c0 7.069-5.731 12.8-12.8 12.8v0zM21.28 10.72l-0.064-0.054c-0.217-0.216-0.517-0.35-0.848-0.35s-0.631 0.134-0.848 0.35v0l-3.552 3.566-3.552-3.57c-0.217-0.217-0.517-0.352-0.848-0.352s-0.631 0.134-0.848 0.352v0l-0.048 0.051c-0.218 0.218-0.352 0.519-0.352 0.851s0.135 0.633 0.352 0.851l3.552 3.555-3.552 3.555c-0.215 0.219-0.348 0.52-0.348 0.851s0.133 0.632 0.348 0.851v0l0.048 0.050c0.217 0.216 0.517 0.35 0.848 0.35s0.631-0.134 0.848-0.35l3.552-3.554 3.552 3.554c0.217 0.216 0.517 0.35 0.848 0.35s0.631-0.134 0.848-0.35v0l0.048-0.051c0.222-0.216 0.36-0.517 0.36-0.851s-0.138-0.635-0.36-0.851v0l-3.536-3.55 3.552-3.55c0.216-0.219 0.35-0.52 0.35-0.852s-0.134-0.633-0.35-0.852v0z"></path>
</symbol>
<symbol id="icon-shijian" viewBox="0 0 32 32">
<path d="M29.977 2.050h-3.993c0-0.016 0.001-0.034 0.001-0.053 0-1.103-0.894-1.997-1.997-1.997s-1.997 0.894-1.997 1.997c0 0.019 0 0.037 0.001 0.055v-0.003h-11.98c0-0.016 0.001-0.034 0.001-0.053 0-1.103-0.894-1.997-1.997-1.997s-1.997 0.894-1.997 1.997c0 0.019 0 0.037 0.001 0.055v-0.003h-3.993c-0.036-0.002-0.078-0.004-0.12-0.004-1.038 0-1.879 0.841-1.879 1.879 0 0.039 0.001 0.078 0.004 0.116v-0.005 25.96c-0.002 0.036-0.004 0.078-0.004 0.12 0 1.040 0.843 1.883 1.883 1.883 0.041 0 0.082-0.001 0.122-0.004h27.947c0.035 0.002 0.075 0.004 0.116 0.004 1.040 0 1.883-0.843 1.883-1.883 0-0.042-0.001-0.084-0.004-0.126v0.006-25.96c0.002-0.033 0.003-0.072 0.003-0.111 0-1.038-0.841-1.879-1.879-1.879-0.042 0-0.084 0.001-0.126 0.004h0.006zM29.845 29.871h-27.688v-19.168h27.688v19.168zM29.845 8.564h-27.688v-4.25h27.688v4.25zM23.986 18.023c0.001 0 0.003 0 0.004 0 1.105 0 2-0.895 2-2s-0.895-2-2-2c-1.105 0-2 0.895-2 2v0c-0.002 0.033-0.003 0.072-0.003 0.111 0 1.045 0.847 1.892 1.892 1.892 0.038 0 0.075-0.001 0.113-0.003h-0.005zM16.001 18.023c0.001 0 0.002 0 0.003 0 1.105 0 2-0.895 2-2s-0.895-2-2-2c-1.105 0-2 0.895-2 2v0c-0.002 0.034-0.003 0.073-0.003 0.113 0 1.044 0.846 1.89 1.89 1.89 0.039 0 0.077-0.001 0.116-0.003h-0.005zM16.001 26.010c0.001 0 0.002 0 0.003 0 1.105 0 2-0.895 2-2s-0.895-2-2-2c-1.105 0-2 0.895-2 2v0c-0.002 0.034-0.003 0.073-0.003 0.113 0 1.044 0.846 1.89 1.89 1.89 0.039 0 0.077-0.001 0.116-0.003h-0.005zM8.014 18.023c0.001 0 0.002 0 0.003 0 1.105 0 2-0.895 2-2s-0.896-2-2-2c-1.105 0-2 0.895-2 2v0c-0.002 0.034-0.003 0.073-0.003 0.113 0 1.044 0.846 1.89 1.89 1.89 0.039 0 0.077-0.001 0.116-0.003h-0.005zM8.014 26.010c0.001 0 0.002 0 0.003 0 1.105 0 2-0.895 2-2s-0.896-2-2-2c-1.105 0-2 0.895-2 2v0c-0.002 0.034-0.003 0.073-0.003 0.113 0 1.044 0.846 1.89 1.89 1.89 0.039 0 0.077-0.001 0.116-0.003h-0.005zM10.010 24.010c-0.002 1.102-0.895 1.995-1.997 1.995s-1.997-0.894-1.997-1.997 0.894-1.997 1.997-1.997c0.001 0 0.001 0 0.001 0v0c0.033-0.002 0.071-0.003 0.109-0.003 1.044 0 1.89 0.846 1.89 1.89 0 0.040-0.001 0.079-0.004 0.118v-0.005zM10.010 16.023c-0.002 1.102-0.895 1.995-1.997 1.995s-1.997-0.894-1.997-1.997 0.894-1.997 1.997-1.997c0.001 0 0.001 0 0.001 0v0c0.033-0.002 0.071-0.003 0.109-0.003 1.044 0 1.89 0.846 1.89 1.89 0 0.040-0.001 0.079-0.004 0.118v-0.005zM17.997 24.010c-0.002 1.102-0.895 1.995-1.997 1.995s-1.997-0.894-1.997-1.997 0.894-1.997 1.997-1.997c0.001 0 0.001 0 0.001 0v0c0.033-0.002 0.071-0.003 0.109-0.003 1.044 0 1.89 0.846 1.89 1.89 0 0.040-0.001 0.079-0.004 0.118v-0.005zM17.997 16.023c-0.002 1.102-0.895 1.995-1.997 1.995s-1.997-0.894-1.997-1.997 0.894-1.997 1.997-1.997c0.001 0 0.001 0 0.001 0v0c0.033-0.002 0.071-0.003 0.109-0.003 1.044 0 1.89 0.846 1.89 1.89 0 0.040-0.001 0.079-0.004 0.118v-0.005zM25.983 16.023c-0.002 1.102-0.895 1.995-1.997 1.995s-1.997-0.894-1.997-1.997 0.894-1.997 1.997-1.997v0c0.033-0.002 0.071-0.003 0.109-0.003 1.045 0 1.892 0.847 1.892 1.892 0 0.039-0.001 0.078-0.004 0.117v-0.005zM10.010 16.023c-0.002 1.102-0.895 1.995-1.997 1.995s-1.997-0.894-1.997-1.997 0.894-1.997 1.997-1.997c0.001 0 0.001 0 0.001 0v0c0.033-0.002 0.071-0.003 0.109-0.003 1.044 0 1.89 0.846 1.89 1.89 0 0.040-0.001 0.079-0.004 0.118v-0.005zM10.010 24.010c-0.002 1.102-0.895 1.995-1.997 1.995s-1.997-0.894-1.997-1.997 0.894-1.997 1.997-1.997c0.001 0 0.001 0 0.001 0v0c0.033-0.002 0.071-0.003 0.109-0.003 1.044 0 1.89 0.846 1.89 1.89 0 0.040-0.001 0.079-0.004 0.118v-0.005zM17.997 16.023c-0.002 1.102-0.895 1.995-1.997 1.995s-1.997-0.894-1.997-1.997 0.894-1.997 1.997-1.997c0.001 0 0.001 0 0.001 0v0c0.033-0.002 0.071-0.003 0.109-0.003 1.044 0 1.89 0.846 1.89 1.89 0 0.040-0.001 0.079-0.004 0.118v-0.005zM17.997 24.010c-0.002 1.102-0.895 1.995-1.997 1.995s-1.997-0.894-1.997-1.997 0.894-1.997 1.997-1.997c0.001 0 0.001 0 0.001 0v0c0.033-0.002 0.071-0.003 0.109-0.003 1.044 0 1.89 0.846 1.89 1.89 0 0.040-0.001 0.079-0.004 0.118v-0.005zM25.983 16.023c-0.002 1.102-0.895 1.995-1.997 1.995s-1.997-0.894-1.997-1.997 0.894-1.997 1.997-1.997v0c0.033-0.002 0.071-0.003 0.109-0.003 1.045 0 1.892 0.847 1.892 1.892 0 0.039-0.001 0.078-0.004 0.117v-0.005z"></path>
</symbol>
<symbol id="icon-shijian-2" viewBox="0 0 32 32">
<path d="M27.272 4.71c-2.891-2.893-6.886-4.683-11.299-4.683-8.822 0-15.973 7.151-15.973 15.973s7.151 15.973 15.973 15.973c4.413 0 8.408-1.79 11.299-4.683v0c2.919-2.876 4.728-6.872 4.728-11.29s-1.808-8.415-4.726-11.288l-0.002-0.002zM25.8 25.818c-2.511 2.51-5.98 4.062-9.811 4.062-7.666 0-13.88-6.214-13.88-13.88s6.214-13.88 13.88-13.88c3.831 0 7.3 1.552 9.811 4.062v0c2.538 2.501 4.11 5.976 4.11 9.818s-1.572 7.317-4.108 9.816l-0.002 0.002zM22.891 19.911l-5.534-3.175v-8.709c0-0.735-0.596-1.33-1.33-1.33s-1.33 0.596-1.33 1.33v0 9.313c0.15 0.523 0.528 0.936 1.017 1.131l0.012 0.004c0.165 0.171 0.359 0.314 0.573 0.42l0.012 0.005 5.499 3.317c0.178 0.114 0.395 0.183 0.629 0.183 0.462 0 0.862-0.267 1.053-0.655l0.003-0.007c0.085-0.175 0.134-0.38 0.134-0.597 0-0.53-0.295-0.99-0.73-1.226l-0.007-0.004z"></path>
</symbol>
<symbol id="icon-shipin" viewBox="0 0 32 32">
<path d="M30.938 7.635c-0.675-0.424-1.565-0.424-2.442 0l-6.454 3.117v-1.285c0-1.918-1.56-3.478-3.478-3.478h-15.086c-1.918 0-3.478 1.341-3.478 2.988v13.556c0 1.983 0.899 3.478 2.092 3.478h1.396v-1.391h-1.396c-0.138 0-0.7-0.671-0.7-2.087v-13.556c0-0.866 0.956-1.597 2.087-1.597h15.086c1.151 0 2.087 0.936 2.087 2.087v13.066c0 1.151-0.936 2.087-2.087 2.087h-10.723v1.391h10.723c1.918 0 3.478-1.56 3.478-3.478v-1.28l6.456 3.146c0.441 0.215 0.885 0.322 1.304 0.322 0.413 0 0.801-0.104 1.137-0.314 0.675-0.422 1.062-1.222 1.062-2.197v-12.376c-0.001-0.974-0.387-1.775-1.062-2.199zM30.608 22.21c0 0.484-0.149 0.855-0.408 1.017-0.26 0.161-0.658 0.133-1.093-0.079l-7.066-3.443v-7.409l7.059-3.409c0.436-0.21 0.837-0.238 1.097-0.074s0.41 0.536 0.41 1.021v12.376zM4.024 11.021c0 0.557 0.452 1.009 1.009 1.009s1.009-0.452 1.009-1.009v0c0-0.557-0.452-1.009-1.009-1.009s-1.009 0.452-1.009 1.009v0z"></path>
</symbol>
<symbol id="icon-sj" viewBox="0 0 32 32">
<path d="M16 27.2c-0.002 0-0.005 0-0.008 0-6.19 0-11.208-5.018-11.208-11.208s5.018-11.208 11.208-11.208c6.19 0 11.208 5.018 11.208 11.208 0 0.003 0 0.006 0 0.008v0c0 6.186-5.014 11.2-11.2 11.2v0zM19.568 16.208h-3.344v-5.264c0-0.627-0.509-1.136-1.136-1.136s-1.136 0.509-1.136 1.136v0 6.4c0 0.002 0 0.004 0 0.006 0 0.624 0.506 1.13 1.13 1.13 0.002 0 0.005 0 0.007 0h4.48c0.004 0 0.009 0 0.014 0 0.415 0 0.778-0.223 0.975-0.555l0.003-0.005c0.097-0.163 0.155-0.359 0.155-0.568s-0.058-0.405-0.158-0.573l0.003 0.005c-0.201-0.346-0.57-0.575-0.992-0.576v0z"></path>
</symbol>
<symbol id="icon-sjb" viewBox="0 0 32 32">
<path d="M16.643 27.392l2.554 4.602h-6.4l2.566-4.608v-22.771l-2.566-4.608h6.4l-2.554 4.602v22.784z"></path>
</symbol>
<symbol id="icon-sjkb" viewBox="0 0 32 32">
<path fill="#808080" style="fill: var(--color2, #808080)" d="M27.3 4.682c-2.901-2.904-6.91-4.7-11.339-4.7-8.852 0-16.028 7.176-16.028 16.028s7.176 16.028 16.028 16.028c4.429 0 8.438-1.796 11.339-4.7v0c2.91-2.894 4.712-6.9 4.712-11.328s-1.801-8.434-4.711-11.327l-0.001-0.001zM25.831 25.868c-2.52 2.518-6 4.076-9.844 4.076-7.691 0-13.925-6.235-13.925-13.925s6.235-13.925 13.925-13.925c3.844 0 7.324 1.557 9.844 4.076v0c2.53 2.516 4.096 6 4.096 9.85s-1.566 7.333-4.096 9.849l-0.001 0.001zM22.894 19.938l-5.526-3.195v-8.739c-0.004-0.739-0.602-1.336-1.34-1.34v0c-0.731 0.006-1.322 0.601-1.322 1.333 0 0.003 0 0.005 0 0.008v0 9.345c0.14 0.523 0.513 0.939 0.998 1.134l0.011 0.004c0.165 0.171 0.36 0.313 0.576 0.417l0.012 0.005 5.508 3.341c0.179 0.111 0.396 0.177 0.628 0.177 0.471 0 0.879-0.271 1.076-0.666l0.003-0.007c0.083-0.172 0.131-0.374 0.131-0.588 0-0.534-0.304-0.997-0.748-1.226l-0.008-0.004zM22.894 19.938v0z"></path>
</symbol>
<symbol id="icon-skz" viewBox="0 0 32 32">
<path d="M22.4 23.2c-0.884 0-1.6-0.716-1.6-1.6v0-4.8c0-0.884 0.716-1.6 1.6-1.6s1.6 0.716 1.6 1.6v0 4.8c0 0.884-0.716 1.6-1.6 1.6v0zM16 23.2c-0.884 0-1.6-0.716-1.6-1.6v0-11.2c0-0.884 0.716-1.6 1.6-1.6s1.6 0.716 1.6 1.6v0 11.2c0 0.884-0.716 1.6-1.6 1.6v0zM9.6 23.2c-0.884 0-1.6-0.716-1.6-1.6v0-6.4c0-0.884 0.716-1.6 1.6-1.6s1.6 0.716 1.6 1.6v0 6.4c0 0.884-0.716 1.6-1.6 1.6v0z"></path>
</symbol>
<symbol id="icon-sy" viewBox="0 0 32 32">
<path d="M27.44 25.44c-0.202 0.169-0.464 0.272-0.751 0.272 0 0-0.001 0-0.001 0v0c0 0 0 0 0 0-0.305 0-0.582-0.122-0.784-0.32v0c-0.185-0.175-0.3-0.423-0.3-0.698 0-0.29 0.128-0.549 0.331-0.725l0.001-0.001c2.358-2.007 3.851-4.971 3.872-8.284v-0.004c-0.040-3.428-1.633-6.477-4.107-8.48l-0.021-0.016c-0.225-0.18-0.368-0.455-0.368-0.764 0-0.263 0.104-0.501 0.273-0.677v0c0.208-0.207 0.495-0.335 0.813-0.335 0.275 0 0.527 0.096 0.726 0.257l-0.002-0.002c2.949 2.376 4.833 5.971 4.88 10.008v0.008c-0.022 3.907-1.78 7.398-4.542 9.745l-0.018 0.015zM22.72 21.872c-0.179 0.12-0.4 0.192-0.637 0.192-0.001 0-0.002 0-0.003 0v0c-0.005 0-0.011 0-0.017 0-0.352 0-0.664-0.169-0.861-0.429l-0.002-0.003c-0.126-0.161-0.202-0.366-0.202-0.59 0-0.345 0.182-0.647 0.454-0.816l0.004-0.002c1.545-0.948 2.56-2.628 2.56-4.545 0-1.982-1.085-3.711-2.694-4.625l-0.026-0.014c-0.295-0.167-0.492-0.48-0.492-0.838 0-0.215 0.070-0.413 0.189-0.573l-0.002 0.003c0.206-0.275 0.532-0.45 0.898-0.45 0.225 0 0.435 0.066 0.611 0.181l-0.004-0.003c2.222 1.268 3.696 3.623 3.696 6.322 0 2.608-1.376 4.894-3.441 6.172l-0.031 0.018zM16.736 28.8c-0.002 0-0.005 0-0.008 0-0.354 0-0.68-0.12-0.94-0.323l0.003 0.003-7.888-5.744h-5.696c-0.030 0.002-0.065 0.002-0.1 0.002-1.139 0-2.066-0.902-2.107-2.031v-8.772c0.059-1.127 0.988-2.018 2.124-2.018 0.030 0 0.059 0.001 0.089 0.002h5.628l7.984-6.416c0.262-0.19 0.589-0.304 0.943-0.304 0 0 0 0 0.001 0v0c0.018-0.001 0.039-0.001 0.061-0.001 0.757 0 1.374 0.595 1.411 1.342v0.003l-0.032 22.912c-0.037 0.751-0.655 1.345-1.411 1.345-0.021 0-0.043 0-0.064-0.001h0.003zM9.264 11.44c-0.387 0.309-0.884 0.495-1.424 0.496h-5.632l-0.032 8.768h5.728c0.002 0 0.003 0 0.005 0 0.51 0 0.981 0.168 1.361 0.452l-0.006-0.004 6.768 4.928 0.032-20.080z"></path>
</symbol>
<symbol id="icon-sz" viewBox="0 0 32 32">
<path d="M24.512 17.104c0.032-0.275 0.050-0.595 0.050-0.918 0-0.071-0.001-0.142-0.003-0.213v0.010c0-0.384-0.048-0.736-0.048-1.12l2.4-1.856c0.128-0.1 0.21-0.254 0.21-0.427 0-0.116-0.037-0.223-0.099-0.311l0.001 0.002-2.288-3.856c-0.096-0.16-0.268-0.265-0.465-0.265-0.075 0-0.146 0.015-0.211 0.043l0.004-0.001-2.88 1.12c-0.557-0.443-1.196-0.82-1.884-1.101l-0.052-0.019-0.4-2.976c-0.093-0.243-0.322-0.413-0.592-0.416h-4.576c-0.273 0.010-0.5 0.194-0.575 0.444l-0.001 0.004-0.464 2.976c-0.739 0.309-1.377 0.685-1.955 1.134l0.019-0.014-2.88-1.12c-0.064-0.030-0.139-0.048-0.218-0.048-0.196 0-0.366 0.109-0.453 0.27l-0.001 0.003-2.304 3.84c-0.032 0.076-0.051 0.165-0.051 0.259 0 0.178 0.068 0.34 0.179 0.462v-0.001l2.464 1.856c0 0.384-0.048 0.736-0.048 1.12s0.048 0.736 0.048 1.12l-2.416 1.84c-0.127 0.1-0.208 0.254-0.208 0.427 0 0.115 0.036 0.222 0.098 0.31l-0.001-0.002 2.288 3.872c0.105 0.158 0.282 0.261 0.483 0.261 0.074 0 0.144-0.014 0.209-0.039l-0.004 0.001 2.864-1.12c0.56 0.429 1.197 0.804 1.878 1.098l0.058 0.022 0.464 2.976c0.048 0.257 0.271 0.449 0.538 0.449 0.013 0 0.026 0 0.039-0.001h4.59c0.269-0.020 0.491-0.2 0.575-0.443l0.001-0.005 0.448-2.976c0.746-0.33 1.387-0.704 1.981-1.14l-0.029 0.020 2.864 1.12c0.063 0.028 0.137 0.044 0.215 0.044 0.2 0 0.375-0.106 0.472-0.265l0.001-0.002 2.288-3.872c0.038-0.081 0.059-0.175 0.059-0.274 0-0.18-0.072-0.343-0.188-0.462v0c0.016 0-2.496-1.84-2.496-1.84zM16 20.8c-0.009 0-0.021 0-0.032 0-2.651 0-4.8-2.149-4.8-4.8s2.149-4.8 4.8-4.8c2.651 0 4.8 2.149 4.8 4.8 0 0.006 0 0.011 0 0.017v-0.001c0 0.008 0 0.018 0 0.027 0 2.627-2.13 4.757-4.757 4.757-0.004 0-0.008 0-0.012 0h0.001z"></path>
</symbol>
<symbol id="icon-szfw" viewBox="0 0 32 32">
<path d="M16 27.2c-6.186 0-11.2-5.014-11.2-11.2s5.014-11.2 11.2-11.2c6.186 0 11.2 5.014 11.2 11.2v0c0 0.002 0 0.005 0 0.008 0 6.181-5.011 11.192-11.192 11.192-0.003 0-0.006 0-0.008 0v0zM16 23.984c4.409 0 7.984-3.575 7.984-7.984s-3.575-7.984-7.984-7.984c-4.409 0-7.984 3.575-7.984 7.984v0c0.001 4.409 3.575 7.983 7.984 7.984v0zM16 21.904c-0.005 0-0.010 0-0.016 0-3.261 0-5.904-2.643-5.904-5.904s2.643-5.904 5.904-5.904c3.261 0 5.904 2.643 5.904 5.904v0c0 0.001 0 0.003 0 0.005 0 3.254-2.635 5.893-5.887 5.899h-0.001zM16 19.472c0.024 0.001 0.053 0.001 0.082 0.001 1.918 0 3.474-1.555 3.474-3.474s-1.555-3.474-3.474-3.474c-1.918 0-3.474 1.555-3.474 3.474 0 0 0 0 0 0.001v0c0 1.889 1.509 3.426 3.388 3.472h0.004z"></path>
</symbol>
<symbol id="icon-td" viewBox="0 0 32 32">
<path d="M26.24 16.747l-3.627 3.637c-0.074 0.069-0.173 0.112-0.283 0.112s-0.209-0.043-0.283-0.112v0l-0.565-0.576c-0.069-0.074-0.112-0.173-0.112-0.283s0.043-0.209 0.112-0.283v0l2.453-2.443h-7.136v7.136l2.443-2.453c0.074-0.069 0.173-0.112 0.283-0.112s0.209 0.043 0.283 0.112v0l0.576 0.565c0.069 0.074 0.112 0.173 0.112 0.283s-0.043 0.209-0.112 0.283v0l-3.637 3.637c-0.204 0.192-0.455 0.336-0.734 0.413l-0.012 0.003c-0.292-0.090-0.545-0.233-0.76-0.418l0.003 0.002-3.627-3.637c-0.069-0.074-0.112-0.173-0.112-0.283s0.043-0.209 0.112-0.283v0l0.565-0.565c0.074-0.069 0.173-0.112 0.283-0.112s0.209 0.043 0.283 0.112v0l2.453 2.453v-7.136h-7.136l2.443 2.443c0.074 0.073 0.12 0.175 0.12 0.288s-0.046 0.215-0.12 0.288l-0.565 0.565c-0.074 0.069-0.173 0.112-0.283 0.112s-0.209-0.043-0.283-0.112v0l-3.627-3.637c-0.192-0.204-0.336-0.455-0.413-0.734l-0.003-0.012c0.093-0.292 0.235-0.544 0.419-0.761l3.624-3.624c0.074-0.069 0.173-0.112 0.283-0.112s0.209 0.043 0.283 0.112v0l0.576 0.565c0.069 0.074 0.112 0.173 0.112 0.283s-0.043 0.209-0.112 0.283v0l-2.453 2.453h7.136v-7.136l-2.453 2.453c-0.074 0.069-0.173 0.112-0.283 0.112s-0.209-0.043-0.283-0.112v0l-0.565-0.576c-0.074-0.072-0.12-0.172-0.12-0.283s0.046-0.211 0.12-0.283l3.627-3.627c0.209-0.188 0.463-0.332 0.744-0.413l0.013-0.003c0.289 0.089 0.538 0.232 0.749 0.418l3.625 3.625c0.074 0.073 0.12 0.175 0.12 0.288s-0.046 0.214-0.12 0.288l-0.565 0.565c-0.074 0.069-0.173 0.112-0.283 0.112s-0.209-0.043-0.283-0.112v0l-2.443-2.453v7.136h7.136l-2.453-2.453c-0.069-0.074-0.112-0.173-0.112-0.283s0.043-0.209 0.112-0.283v0l0.565-0.565c0.074-0.069 0.173-0.112 0.283-0.112s0.209 0.043 0.283 0.112v0l3.637 3.627c0.188 0.209 0.332 0.463 0.413 0.744l0.003 0.013c-0.087 0.291-0.234 0.541-0.428 0.748l0.001-0.001z"></path>
</symbol>
<symbol id="icon-tj" viewBox="0 0 32 32">
<path d="M24 18.4h-5.6v5.6c0 1.325-1.075 2.4-2.4 2.4s-2.4-1.075-2.4-2.4v0-5.6h-5.6c-1.325 0-2.4-1.075-2.4-2.4s1.075-2.4 2.4-2.4h5.6v-5.6c0-1.325 1.075-2.4 2.4-2.4s2.4 1.075 2.4 2.4v0 5.6h5.6c1.325 0 2.4 1.075 2.4 2.4s-1.075 2.4-2.4 2.4v0z"></path>
</symbol>
<symbol id="icon-tj1" viewBox="0 0 32 32">
<path d="M23.36 24h-14.72c-0.353 0-0.64-0.287-0.64-0.64v0-14.72c0-0.353 0.287-0.64 0.64-0.64v0h14.72c0.353 0 0.64 0.287 0.64 0.64v0 14.72c0 0.353-0.287 0.64-0.64 0.64v0zM18.707 15.187h-1.894v-1.894c0-0.449-0.364-0.813-0.813-0.813s-0.813 0.364-0.813 0.813v0 1.894h-1.894c-0.449 0-0.813 0.364-0.813 0.813s0.364 0.813 0.813 0.813h1.894v1.894c0 0.449 0.364 0.813 0.813 0.813s0.813-0.364 0.813-0.813v0-1.894h1.894c0.449 0 0.813-0.364 0.813-0.813s-0.364-0.813-0.813-0.813v0z"></path>
</symbol>
<symbol id="icon-ts" viewBox="0 0 32 32">
<path d="M16 6.4c-5.302 0-9.6 4.298-9.6 9.6s4.298 9.6 9.6 9.6c5.302 0 9.6-4.298 9.6-9.6v0c0-5.302-4.298-9.6-9.6-9.6v0zM14.288 22.384c-0.050 0.009-0.108 0.014-0.167 0.014-0.563 0-1.019-0.456-1.019-1.019 0-0.023 0.001-0.047 0.002-0.070v0.003c0.131-1.063 0.412-2.030 0.825-2.925l-0.025 0.061 1.344-3.44c0.144-0.352-0.032-0.528-0.192-0.528-0.704 0-1.632 1.696-1.984 1.696-0.14-0.003-0.253-0.116-0.256-0.256v0c0.271-0.564 0.643-1.038 1.097-1.419l0.007-0.005c0.738-0.762 1.756-1.249 2.888-1.296h0.008c0.832 0 1.712 0.496 1.024 2.4l-1.392 3.808c-0.157 0.316-0.275 0.682-0.333 1.067l-0.003 0.021c0 0.006-0.001 0.013-0.001 0.020 0 0.135 0.106 0.246 0.24 0.253h0.001c0.576 0 1.648-1.664 1.904-1.664 0.138 0.029 0.24 0.15 0.24 0.295 0 0.003 0 0.007 0 0.010v0c-0.848 1.577-2.374 2.696-4.176 2.972l-0.032 0.004zM17.6 12.496c-0.020 0.001-0.044 0.002-0.068 0.002-0.688 0-1.246-0.558-1.246-1.246 0-0.029 0.001-0.059 0.003-0.087v0.004c0.018-0.864 0.718-1.559 1.583-1.568h0.001c0.019-0.001 0.042-0.002 0.065-0.002 0.707 0 1.28 0.573 1.28 1.28 0 0.017 0 0.035-0.001 0.052v-0.002c-0.007 0.868-0.712 1.568-1.581 1.568-0.012 0-0.025 0-0.037 0h0.002z"></path>
</symbol>
<symbol id="icon-user" viewBox="0 0 32 32">
<path d="M16 28c-6.627 0-12-5.373-12-12s5.373-12 12-12c6.627 0 12 5.373 12 12v0c-0.002 6.627-5.373 11.998-12 12v0zM16 8.136c-0.055-0.003-0.12-0.005-0.185-0.005-2.059 0-3.729 1.669-3.729 3.729s1.669 3.729 3.729 3.729c2.058 0 3.727-1.667 3.729-3.725v0c0.001-0.027 0.001-0.058 0.001-0.090 0-1.977-1.576-3.585-3.54-3.638h-0.005zM22.208 20.424c0.001-0.024 0.001-0.053 0.001-0.082 0-2.078-1.658-3.769-3.724-3.822h-0.469c-0.588 0.293-1.282 0.464-2.015 0.464 0 0-0.001 0-0.001 0v0c-0.736-0.002-1.432-0.173-2.052-0.476l0.028 0.012h-0.456c-2.071 0.053-3.729 1.744-3.729 3.822 0 0.029 0 0.058 0.001 0.086v-0.004 1.216c0 0.008 0 0.018 0 0.028 0 0.741 0.59 1.344 1.326 1.364h9.762c0.738-0.020 1.328-0.623 1.328-1.364 0-0.010 0-0.019 0-0.029v0.001-1.216z"></path>
</symbol>
<symbol id="icon-user1" viewBox="0 0 32 32">
<path fill="#6dbef7" style="fill: var(--color3, #6dbef7)" d="M20.369 15.754c2.675-1.406 4.476-4.15 4.513-7.319v-0.005c-0.257-4.709-4.138-8.43-8.888-8.43s-8.631 3.721-8.887 8.407l-0.001 0.023c0.038 3.174 1.839 5.918 4.468 7.302l0.046 0.022c-6.634 1.68-11.487 7.537-11.618 14.549v0.015c0.028 0.935 0.793 1.682 1.732 1.682 0.016 0 0.032 0 0.048-0.001h28.44c0.013 0 0.028 0.001 0.044 0.001 0.94 0 1.705-0.747 1.734-1.679v-0.003c-0.132-7.029-4.988-12.887-11.52-14.541l-0.106-0.023z"></path>
</symbol>
<symbol id="icon-user11" viewBox="0 0 32 32">
<path d="M16 28c-6.627 0-12-5.373-12-12s5.373-12 12-12c6.627 0 12 5.373 12 12v0c-0.002 6.627-5.373 11.998-12 12v0zM16 8.136c-0.055-0.003-0.12-0.005-0.185-0.005-2.059 0-3.729 1.669-3.729 3.729s1.669 3.729 3.729 3.729c2.058 0 3.727-1.667 3.729-3.725v0c0.001-0.027 0.001-0.058 0.001-0.090 0-1.977-1.576-3.585-3.54-3.638h-0.005zM22.208 20.424c0.001-0.024 0.001-0.053 0.001-0.082 0-2.078-1.658-3.769-3.724-3.822h-0.469c-0.588 0.293-1.282 0.464-2.015 0.464 0 0-0.001 0-0.001 0v0c-0.736-0.002-1.432-0.173-2.052-0.476l0.028 0.012h-0.456c-2.071 0.053-3.729 1.744-3.729 3.822 0 0.029 0 0.058 0.001 0.086v-0.004 1.216c0 0.008 0 0.018 0 0.028 0 0.741 0.59 1.344 1.326 1.364h9.762c0.738-0.020 1.328-0.623 1.328-1.364 0-0.010 0-0.019 0-0.029v0.001-1.216z"></path>
</symbol>
<symbol id="icon-users" viewBox="0 0 32 32">
<path d="M1.079 30.050c-0.592 0-1.079-0.488-1.079-1.079 0-2.803 0.888-5.467 2.559-7.695 0.801-1.079 1.776-2.020 2.873-2.786 0.923-0.662 1.933-1.184 2.995-1.584-0.992-0.644-1.828-1.497-2.472-2.507-0.801-1.288-1.236-2.786-1.236-4.3 0-4.492 3.656-8.148 8.148-8.148s8.131 3.656 8.131 8.131c0 2.768-1.375 5.293-3.674 6.807 1.045 0.383 2.037 0.905 2.942 1.55 1.097 0.783 2.072 1.724 2.873 2.803 1.689 2.246 2.577 4.91 2.577 7.695 0 0.592-0.488 1.079-1.079 1.079s-1.079-0.488-1.079-1.079c0-2.855-1.114-5.536-3.134-7.573-1.95-1.967-4.544-3.082-7.277-3.134l-0.070 0.017c-0.070 0.017-0.157 0.017-0.226 0.017h-0.087c-2.82 0-5.484 1.114-7.504 3.134s-3.134 4.718-3.134 7.573c0.017 0.592-0.47 1.079-1.045 1.079zM12.866 4.091c-3.308 0-5.989 2.681-5.989 5.989s2.681 5.989 5.989 5.989 5.989-2.681 5.989-5.989-2.681-5.989-5.989-5.989zM30.921 27.647c-0.592 0-1.079-0.488-1.079-1.079 0-4.91-3.743-8.897-8.34-8.897-0.592 0-1.079-0.488-1.079-1.079s0.488-1.079 1.079-1.079c2.524 0 4.579-2.211 4.579-4.91s-2.054-4.91-4.579-4.91c-0.592 0-1.079-0.487-1.079-1.079s0.488-1.079 1.079-1.079c3.708 0 6.738 3.169 6.738 7.069 0 1.254-0.313 2.472-0.923 3.552-0.47 0.853-1.114 1.602-1.88 2.176 1.811 0.766 3.378 2.054 4.544 3.743 1.323 1.898 2.020 4.144 2.020 6.511 0 0.575-0.47 1.062-1.079 1.062z"></path>
</symbol>
<symbol id="icon-wc" viewBox="0 0 32 32">
<path d="M16 28c-6.627 0-12-5.373-12-12s5.373-12 12-12c6.627 0 12 5.373 12 12v0c0 6.627-5.373 12-12 12v0zM16 5.6c-5.744 0-10.4 4.656-10.4 10.4s4.656 10.4 10.4 10.4c5.744 0 10.4-4.656 10.4-10.4v0c0-5.744-4.656-10.4-10.4-10.4v0zM21.368 13.451l-5.72 6.282c-0.145 0.164-0.355 0.267-0.59 0.267-0.197 0-0.377-0.073-0.515-0.193l0.001 0.001-0.064-0.060-3.040-3.185c-0.149-0.159-0.241-0.373-0.241-0.61 0-0.219 0.079-0.42 0.21-0.575l-0.001 0.001c0.147-0.174 0.365-0.283 0.608-0.283 0.199 0 0.381 0.073 0.521 0.194l-0.001-0.001 0.064 0.059 2.448 2.56 5.136-5.645c0.146-0.165 0.358-0.268 0.594-0.268 0.206 0 0.394 0.079 0.535 0.208l-0.001-0.001c0.177 0.162 0.288 0.393 0.288 0.651 0 0.199-0.066 0.383-0.178 0.53l0.002-0.002z"></path>
</symbol>
<symbol id="icon-wjbj" viewBox="0 0 32 32">
<path d="M25.456 20.128c-1.001-1.033-2.388-1.687-3.928-1.728h-0.744l-1.6-1.6 6.4-6.4c0.745-0.851 1.2-1.972 1.2-3.2s-0.455-2.349-1.205-3.206l0.005 0.006-9.584 9.6-9.6-9.6c-0.745 0.851-1.2 1.972-1.2 3.2s0.455 2.349 1.205 3.206l-0.005-0.006 6.4 6.4-1.6 1.6h-0.736c-1.548 0.041-2.935 0.695-3.935 1.727l-0.001 0.002c-1.054 0.89-1.72 2.213-1.72 3.692 0 1.166 0.414 2.235 1.102 3.069l-0.007-0.008c0.709 0.693 1.68 1.121 2.751 1.121 0.028 0 0.057 0 0.085-0.001h-0.004c1.552-0.044 2.944-0.697 3.951-1.727l0.001-0.001c1.050-1.009 1.702-2.424 1.702-3.992 0-0.228-0.014-0.453-0.041-0.674l0.003 0.027 1.632-1.632 1.648 1.632c-0.024 0.194-0.038 0.42-0.038 0.648 0 1.568 0.652 2.984 1.7 3.99l0.002 0.002c1.008 1.031 2.4 1.684 3.944 1.728h0.008c0.024 0.001 0.052 0.001 0.081 0.001 1.071 0 2.042-0.428 2.752-1.122l-0.001 0.001c0.682-0.826 1.096-1.895 1.096-3.060 0-1.478-0.665-2.801-1.712-3.686l-0.007-0.006zM12.016 23.536c-0.417 0.924-1.14 1.647-2.038 2.054l-0.026 0.010c-0.357 0.163-0.774 0.262-1.212 0.272h-0.004c-0.017 0.001-0.037 0.001-0.058 0.001-0.491 0-0.938-0.189-1.271-0.498l0.001 0.001c-0.299-0.323-0.482-0.756-0.482-1.232 0-0.028 0.001-0.056 0.002-0.084v0.004c0.002-0.435 0.096-0.847 0.264-1.219l-0.008 0.019c0.429-0.915 1.149-1.635 2.038-2.053l0.026-0.011c0.357-0.163 0.774-0.262 1.212-0.272h0.004c0.017-0.001 0.037-0.001 0.058-0.001 0.491 0 0.938 0.189 1.271 0.498l-0.001-0.001c0.299 0.323 0.482 0.756 0.482 1.232 0 0.028-0.001 0.056-0.002 0.084v-0.004c-0.002 0.435-0.096 0.847-0.264 1.219l0.008-0.019zM16 19.072c-0.629-0.016-1.196-0.269-1.617-0.673l0.001 0.001c-0.405-0.412-0.655-0.977-0.656-1.6v0c0-1.25 1.014-2.264 2.264-2.264s2.264 1.014 2.264 2.264v0c-0.001 0.623-0.252 1.188-0.656 1.6v0c-0.412 0.407-0.975 0.661-1.598 0.672h-0.002zM24.576 25.376c-0.333 0.308-0.779 0.497-1.27 0.497-0.020 0-0.041 0-0.061-0.001h0.003c-0.442-0.010-0.859-0.109-1.236-0.28l0.020 0.008c-0.478-0.209-0.886-0.489-1.232-0.832v0c-0.347-0.343-0.628-0.753-0.823-1.207l-0.009-0.025c-0.162-0.352-0.261-0.763-0.272-1.196v-0.004c-0.003-0.034-0.004-0.075-0.004-0.115 0-0.93 0.754-1.683 1.683-1.683 0.051 0 0.101 0.002 0.151 0.007h-0.006c0.44 0.004 0.858 0.097 1.236 0.264l-0.020-0.008c0.915 0.429 1.635 1.149 2.053 2.038l0.011 0.026c0.16 0.353 0.254 0.765 0.256 1.199v0.001c0.001 0.024 0.002 0.052 0.002 0.080 0 0.476-0.183 0.909-0.483 1.233l0.001-0.001z"></path>
</symbol>
<symbol id="icon-xiazai" viewBox="0 0 32 32">
<path d="M24.096 14.512l-7.344 6.976c-0.167 0.164-0.396 0.266-0.648 0.266-0.245 0-0.467-0.095-0.632-0.25v0l-7.536-6.992c-0.156-0.154-0.253-0.369-0.253-0.606 0-0.47 0.381-0.851 0.851-0.851 0.015 0 0.030 0 0.044 0.001h3.422c0.009 0 0.020 0.001 0.031 0.001 0.472 0 0.856-0.378 0.865-0.848v-5.921c0.015-0.383 0.329-0.688 0.715-0.688 0.008 0 0.015 0 0.022 0h4.799c0.006 0 0.014 0 0.021 0 0.474 0 0.86 0.377 0.875 0.847v5.761c0.017 0.472 0.403 0.849 0.878 0.849 0.012 0 0.024 0 0.036-0.001h3.214c0.014-0.001 0.030-0.001 0.046-0.001 0.469 0 0.85 0.38 0.85 0.85 0 0.238-0.098 0.453-0.256 0.607v0zM8.736 23.456h14.528c0.006 0 0.014 0 0.021 0 0.386 0 0.7 0.305 0.715 0.687v1.569c-0.015 0.383-0.329 0.688-0.715 0.688-0.008 0-0.015 0-0.022 0h-14.527c-0.006 0-0.014 0-0.021 0-0.386 0-0.7-0.305-0.715-0.687v-1.569c0.015-0.383 0.329-0.688 0.715-0.688 0.008 0 0.015 0 0.022 0h-0.001z"></path>
</symbol>
<symbol id="icon-xk" viewBox="0 0 32 32">
<path fill="#7a7a7a" style="fill: var(--color4, #7a7a7a)" d="M31.339 32.037h-30.66c-0.37 0-0.67-0.3-0.67-0.67s0.3-0.67 0.67-0.67v0h2.001v-28.034c0.001-1.47 1.192-2.661 2.662-2.662h13.329c0 0 0 0 0 0 1.474 0 2.67 1.19 2.68 2.661v2.681h5.324c1.47 0.001 2.661 1.192 2.662 2.662v22.692h2.001c0.37 0 0.67 0.3 0.67 0.67s-0.3 0.67-0.67 0.67v0zM20.011 2.662c-0.006-0.731-0.601-1.322-1.333-1.322-0.003 0-0.005 0-0.008 0h-13.328c-0.002 0-0.005 0-0.007 0-0.732 0-1.327 0.591-1.333 1.321v28.035h16.009v-28.034zM28.016 8.005c-0.006-0.731-0.601-1.322-1.333-1.322-0.003 0-0.005 0-0.008 0h-5.324v24.014h6.664v-22.692zM7.344 5.343h9.326c0.015-0.001 0.031-0.002 0.049-0.002 0.349 0 0.632 0.283 0.632 0.632 0 0.011 0 0.022-0.001 0.033v-0.002c0.001 0.010 0.001 0.022 0.001 0.034 0 0.357-0.289 0.646-0.646 0.646-0.012 0-0.024 0-0.036-0.001h-9.324c-0.009 0-0.020 0.001-0.031 0.001-0.349 0-0.632-0.283-0.632-0.632 0-0.017 0.001-0.034 0.002-0.051v0.002c-0.001-0.014-0.002-0.030-0.002-0.046 0-0.341 0.276-0.617 0.617-0.617 0.016 0 0.032 0.001 0.048 0.002h-0.002zM7.344 10.685h9.326c0.365 0 0.661 0.296 0.661 0.661s-0.296 0.661-0.661 0.661h-9.326c-0.365 0-0.661-0.296-0.661-0.661s0.296-0.661 0.661-0.661v0zM7.344 17.349h9.326c0.37 0 0.67 0.3 0.67 0.67s-0.3 0.67-0.67 0.67v0h-9.326c-0.37 0-0.67-0.3-0.67-0.67s0.3-0.67 0.67-0.67v0zM7.344 24.032h9.326c0.365 0 0.661 0.296 0.661 0.661s-0.296 0.661-0.661 0.661h-9.326c-0.365 0-0.661-0.296-0.661-0.661s0.296-0.661 0.661-0.661v0z"></path>
</symbol>
<symbol id="icon-xkjg" viewBox="0 0 32 32">
<path d="M27.136 25.952c-0.152 0.586-0.601 1.040-1.172 1.197l-0.012 0.003c-0.121 0.031-0.261 0.049-0.404 0.049-0.475 0-0.905-0.196-1.212-0.513v0l-2.912-2.912c-1.695 1.232-3.818 1.971-6.114 1.971-5.781 0-10.467-4.686-10.467-10.467s4.686-10.467 10.467-10.467c5.781 0 10.467 4.686 10.467 10.467 0 1.449-0.294 2.829-0.827 4.084l0.026-0.069c-0.348 0.813-0.755 1.513-1.235 2.155l0.019-0.027 2.928 2.912c0.311 0.301 0.504 0.722 0.504 1.189 0 0.152-0.021 0.299-0.059 0.439l0.003-0.012zM15.2 7.984c-0.002 0-0.005 0-0.008 0-3.981 0-7.208 3.227-7.208 7.208s3.227 7.208 7.208 7.208c3.978 0 7.203-3.223 7.208-7.2v0c-0.001-3.979-3.222-7.206-7.199-7.216h-0.001z"></path>
</symbol>
<symbol id="icon-xl" viewBox="0 0 32 32">
<path d="M22.128 13.376l-5.488 6.384c-0.17 0.149-0.394 0.24-0.64 0.24s-0.47-0.091-0.641-0.241l0.001 0.001-5.488-6.384c-0.166-0.13-0.272-0.33-0.272-0.556 0-0.106 0.023-0.207 0.065-0.297l-0.002 0.004c0.171-0.31 0.492-0.519 0.863-0.528h10.945c0.371 0.013 0.69 0.221 0.861 0.523l0.003 0.005c0.037 0.084 0.059 0.182 0.059 0.286 0 0.226-0.103 0.428-0.265 0.561l-0.001 0.001z"></path>
</symbol>
<symbol id="icon-xs" viewBox="0 0 32 32">
<path fill="#808080" style="fill: var(--color2, #808080)" d="M9.12 12.302c0.052-0.464 0.442-0.822 0.916-0.822s0.864 0.358 0.915 0.818v0.004c0.294 2.295 2.236 4.050 4.587 4.050s4.292-1.755 4.584-4.027l0.002-0.023c0.038-0.46 0.42-0.819 0.886-0.819 0.013 0 0.027 0 0.040 0.001h-0.002c0.014-0.001 0.031-0.001 0.048-0.001 0.464 0 0.844 0.36 0.876 0.816v0.003c-0.37 3.252-3.106 5.756-6.427 5.756s-6.057-2.503-6.424-5.726l-0.003-0.030zM29.209 13.813c-0.833 4.867-4.358 8.737-8.96 10.058l-0.089 0.022 3.040 7.751c0.028 0.078 0.044 0.169 0.044 0.263 0 0.377-0.258 0.695-0.607 0.785l-0.006 0.001c-0.090 0.032-0.193 0.051-0.301 0.053h-0.001c-0.011 0-0.024 0.001-0.037 0.001-0.373 0-0.693-0.225-0.832-0.546l-0.002-0.006-3.342-8.551c-0.036-0.082-0.057-0.178-0.057-0.278 0-0.141 0.041-0.272 0.112-0.383l-0.002 0.003c0.128-0.203 0.328-0.35 0.563-0.408l0.006-0.001c4.447-0.946 7.864-4.465 8.648-8.893l0.010-0.067c0.054-0.393 0.086-0.849 0.089-1.312v-0.003c0-5.867-5.369-10.667-11.947-10.667s-11.929 4.8-11.929 10.667c0.259 5.289 4.192 9.588 9.288 10.409l0.064 0.008c0.256 0.049 0.469 0.199 0.602 0.405l0.002 0.004c0.069 0.108 0.11 0.239 0.11 0.38 0 0.1-0.021 0.196-0.058 0.283l0.002-0.005-3.289 8.409c-0.14 0.327-0.458 0.551-0.829 0.551-0.008 0-0.017 0-0.025 0h0.001c-0.003 0-0.006 0-0.009 0-0.105 0-0.206-0.020-0.299-0.055l0.006 0.002c-0.356-0.085-0.617-0.401-0.617-0.777 0-0.097 0.017-0.191 0.049-0.277l-0.002 0.006 2.951-7.556c-5.481-1.3-9.539-6.035-9.795-11.76l-0.001-0.027c0-6.773 6.187-12.302 13.778-12.302s13.778 5.529 13.778 12.302c0 0.003 0 0.007 0 0.010 0 0.529-0.039 1.050-0.114 1.558l0.007-0.058z"></path>
</symbol>
<symbol id="icon-xs1" viewBox="0 0 32 32">
<path d="M25.589 26.976c-1.098-2.884-3.383-5.1-6.243-6.080l-0.072-0.021c3.043-1.386 5.12-4.4 5.12-7.9 0-0.020 0-0.040 0-0.060v0.003c0.003-0.080 0.004-0.174 0.004-0.268 0-4.639-3.76-8.399-8.399-8.399s-8.399 3.76-8.399 8.399c0 0.094 0.002 0.188 0.005 0.281v-0.014c0 0.017 0 0.037 0 0.057 0 3.5 2.077 6.514 5.066 7.878l0.054 0.022c-2.931 1.001-5.217 3.217-6.291 6.031l-0.023 0.070c-0.007 0.037-0.011 0.079-0.011 0.123 0 0.15 0.048 0.289 0.13 0.402l-0.001-0.002c0.109 0.142 0.278 0.233 0.469 0.235h9.014c5.024 0 8.971 0.021 9.12-0.011 0.274-0.080 0.471-0.328 0.471-0.623 0-0.044-0.004-0.087-0.013-0.128l0.001 0.004zM8.8 12.917v-0.096c1.142 0.834 2.574 1.334 4.123 1.334 0.024 0 0.048 0 0.073 0h-0.004c2.078-0.039 3.917-1.026 5.109-2.546l0.011-0.014c1.071 1.653 2.842 2.774 4.883 2.942l0.023 0.002c-0.676 3.32-3.572 5.782-7.042 5.782-3.965 0-7.18-3.214-7.18-7.18 0-0.079 0.001-0.157 0.004-0.235v0.011z"></path>
</symbol>
<symbol id="icon-xuanze1" viewBox="0 0 32 32">
<path d="M6.384 4.798l0.512 20.098s3.376-3.149 6.176-5.346l6.144 7.432c0.162 0.152 0.381 0.245 0.621 0.245 0.214 0 0.41-0.074 0.565-0.197l-0.002 0.001 2.624-1.733c0.247-0.121 0.413-0.37 0.413-0.657 0-0.142-0.041-0.275-0.111-0.387l0.002 0.003-5.968-7.229c3.104-1.136 8.256-2.432 8.256-2.432z"></path>
</symbol>
<symbol id="icon-xueshengchuqin" viewBox="0 0 32 32">
<path d="M29.276 32h-26.565c-1.095-0.006-1.981-0.894-1.986-1.989v-22.805c0.020-0.947 0.784-1.708 1.73-1.725h4.903v-4.638c0-0.009-0.001-0.019-0.001-0.029 0-0.351 0.285-0.636 0.636-0.636 0.014 0 0.027 0 0.041 0.001h-0.002c0.395 0 1.604-0.397 1.604 0v5.091h12.729v-5.091c0-0.401 1.209 0 1.604 0 0.010-0.001 0.022-0.001 0.034-0.001 0.347 0 0.629 0.281 0.629 0.629 0 0.013 0 0.026-0.001 0.038v-0.002 4.638h4.913c0.016-0.001 0.034-0.001 0.053-0.001 0.927 0 1.679 0.752 1.679 1.679 0 0.016 0 0.033-0.001 0.049v-0.002 22.805c-0.006 1.1-0.898 1.989-1.998 1.989v0zM4.544 29.454h22.912c0.19 0.012 0.413 0.019 0.636 0.019s0.446-0.007 0.667-0.020l-0.030 0.001v-15.432h-25.445l0.038 14.716c0.224 0.429 0.667 0.717 1.176 0.717 0.016 0 0.032 0 0.048-0.001h-0.002zM28.728 9.088c-0.207-0.601-0.672-1.066-1.259-1.269l-0.014-0.004h-22.912c-0.603 0.204-1.068 0.67-1.269 1.259l-0.004 0.014v2.546h25.457v-2.546zM10.908 21.817l3.819 2.546 6.364-6.364c0.101-0.051 0.22-0.080 0.346-0.080 0.253 0 0.477 0.12 0.62 0.305l0.001 0.002c0.11 0.107 0.178 0.256 0.178 0.421s-0.068 0.314-0.178 0.421v0l-7.586 7.49c-0.054 0.163-0.204 0.279-0.382 0.28v0c-0.179-0.022-0.339-0.089-0.474-0.188l0.003 0.002-3.653-3.564c-0.129-0.097-0.211-0.249-0.211-0.421s0.082-0.324 0.21-0.42l0.001-0.001c0.28-0.275 0.751-0.708 0.942-0.428z"></path>
</symbol>
<symbol id="icon-xueyuan" viewBox="0 0 32 32">
<path d="M16.667 5.333h-9.333c-0.4 0-0.667 0.267-0.667 0.667s0.267 0.667 0.667 0.667h9.333c0.4 0 0.667-0.267 0.667-0.667s-0.267-0.667-0.667-0.667zM16.667 10.667h-9.333c-0.4 0-0.667 0.267-0.667 0.667s0.267 0.667 0.667 0.667h9.333c0.4 0 0.667-0.267 0.667-0.667s-0.267-0.667-0.667-0.667zM16.667 17.333h-9.333c-0.4 0-0.667 0.267-0.667 0.667s0.267 0.667 0.667 0.667h9.333c0.4 0 0.667-0.267 0.667-0.667s-0.267-0.667-0.667-0.667zM16.667 24h-9.333c-0.4 0-0.667 0.267-0.667 0.667s0.267 0.667 0.667 0.667h9.333c0.4 0 0.667-0.267 0.667-0.667s-0.267-0.667-0.667-0.667zM31.333 30.667h-2v-22.667c0-1.467-1.2-2.667-2.667-2.667h-5.333v-2.667c0-1.467-1.2-2.667-2.667-2.667h-13.333c-1.467 0-2.667 1.2-2.667 2.667v28h-2c-0.4 0-0.667 0.267-0.667 0.667s0.267 0.667 0.667 0.667h30.667c0.4 0 0.667-0.267 0.667-0.667s-0.267-0.667-0.667-0.667zM4 30.667v-28c0-0.733 0.6-1.333 1.333-1.333h13.333c0.733 0 1.333 0.6 1.333 1.333v28h-16zM21.333 30.667v-24h5.333c0.733 0 1.333 0.6 1.333 1.333v22.667h-6.667z"></path>
</symbol>
<symbol id="icon-xueyuan1" viewBox="0 0 32 32">
<path d="M30.926 28.533h-1.99v-17.76c0-2.767-1.592-3.948-2.587-4.146l-6.368-1.973v-2.171c-0.007-0.321-0.16-0.604-0.396-0.787l-0.002-0.002c-0.188-0.128-0.42-0.204-0.67-0.204-0.044 0-0.088 0.002-0.131 0.007h0.005l-13.334 3.75s-2.388 0.592-2.388 3.75v19.536h-1.99c-0.025-0.002-0.054-0.004-0.084-0.004-0.547 0-0.991 0.444-0.991 0.991s0.444 0.991 0.991 0.991c0.029 0 0.059-0.001 0.087-0.004h29.847c0.025 0.002 0.054 0.004 0.084 0.004 0.547 0 0.991-0.444 0.991-0.991s-0.444-0.991-0.991-0.991c-0.029 0-0.059 0.001-0.087 0.004h0.004zM17.99 28.533h-12.935v-19.536c0-1.383 0.796-1.777 0.995-1.777l11.94-3.355v24.668zM26.946 28.533h-6.965v-21.906l5.771 1.973h0.2c0.199 0 0.995 0.198 0.995 2.172v17.76zM10.627 8.6h-1.99v1.974h1.99v-1.974zM15.204 8.6h-1.99v1.974h1.99v-1.974zM10.627 11.756h-1.99v1.974h1.99v-1.974zM15.204 11.756h-1.99v1.974h1.99v-1.974zM10.627 15.11h-1.99v1.974h1.99v-1.974zM15.204 15.11h-1.99v1.974h1.99v-1.974zM10.627 18.471h-1.99v1.974h1.99v-1.974zM15.204 18.471h-1.99v1.974h1.99v-1.974zM10.627 21.627h-1.99v1.974h1.99v-1.974zM15.204 21.627h-1.99v1.974h1.99v-1.974zM10.627 24.981h-1.99v1.974h1.99v-1.974zM15.204 24.981h-1.99v1.974h1.99v-1.974zM22.567 13.73h1.99v-1.974h-1.99v1.974zM22.567 17.084h1.99v-1.974h-1.99v1.974zM22.567 20.445h1.99v-1.974h-1.99v1.974zM22.567 23.601h1.99v-1.974h-1.99v1.974zM22.567 26.955h1.99v-1.974h-1.99v1.974z"></path>
</symbol>
<symbol id="icon-xy1" viewBox="0 0 32 32">
<path fill="#59a6ee" style="fill: var(--color5, #59a6ee)" d="M30.647 11.593v5.091l1.12 1.076-2.327 2.327-2.356-2.255 1.615-1.411v-4.029c-6.836 2.72-9.033 3.564-10.545 4.218-0.63 0.318-1.374 0.505-2.161 0.505-0.702 0-1.369-0.148-1.972-0.415l0.031 0.012c-1.513-0.538-8.669-3.055-12.218-4.684-2.371-1.091-2.531-1.789 0.044-2.705 3.345-1.236 8.873-3.185 11.811-4.262 1.731-0.669 2.647-1.033 4.247-0.262 2.836 1.12 9.338 3.476 12.582 4.756 2.807 1.178 0.916 1.571 0.131 2.036v0z"></path>
<path fill="#59a6ee" style="fill: var(--color5, #59a6ee)" opacity="0.5" d="M18.342 19.127c1.658-0.655 3.884-1.745 6.327-2.749v8.044c-2.244 1.997-5.218 3.216-8.476 3.216-0.073 0-0.146-0.001-0.219-0.002h0.011c-0.126 0.004-0.273 0.007-0.421 0.007-3.35 0-6.414-1.219-8.776-3.237l0.019 0.015v-7.505c1.876 0.742 3.985 1.367 6.545 2.211 0.739 0.3 1.596 0.475 2.495 0.475s1.755-0.174 2.54-0.491l-0.046 0.016z"></path>
</symbol>
<symbol id="icon-xz" viewBox="0 0 32 32">
<path d="M31.6 15.008l-12.8-12.224c-0.245-0.259-0.592-0.42-0.976-0.42s-0.73 0.161-0.975 0.419l-0.001 0.001c-0.259 0.249-0.42 0.597-0.42 0.984s0.161 0.735 0.419 0.984l10.304 9.824h-25.744c-0.778 0-1.408 0.63-1.408 1.408s0.63 1.408 1.408 1.408h25.744l-10.304 9.824c-0.259 0.249-0.42 0.597-0.42 0.984s0.161 0.735 0.419 0.984v0c0.247 0.256 0.593 0.416 0.976 0.416s0.729-0.159 0.976-0.415v0l12.8-12.224c0.256-0.247 0.416-0.593 0.416-0.976s-0.159-0.729-0.415-0.976v0z"></path>
</symbol>
<symbol id="icon-xz1" viewBox="0 0 32 32">
<path d="M28.267 29.333h-24.533c-0.589 0-1.067-0.478-1.067-1.067v-24.533c0-0.589 0.478-1.067 1.067-1.067h24.533c0.589 0 1.067 0.478 1.067 1.067v0 24.533c0 0.589-0.478 1.067-1.067 1.067v0zM20.512 14.645h-3.16v-3.157c0 0 0 0 0 0 0-0.747-0.606-1.353-1.353-1.353s-1.353 0.606-1.353 1.353c0 0 0 0 0 0v0 3.157h-3.157c-0.748 0-1.355 0.607-1.355 1.355s0.607 1.355 1.355 1.355v0h3.157v3.157c0 0 0 0 0 0 0 0.747 0.606 1.353 1.353 1.353s1.353-0.606 1.353-1.353c0 0 0 0 0 0v0-3.157h3.16c0.748 0 1.355-0.607 1.355-1.355s-0.607-1.355-1.355-1.355v0z"></path>
</symbol>
<symbol id="icon-ycl" viewBox="0 0 32 32">
<path d="M16 26.667c-5.891 0-10.667-4.776-10.667-10.667s4.776-10.667 10.667-10.667c5.891 0 10.667 4.776 10.667 10.667v0c0 5.891-4.776 10.667-10.667 10.667v0zM21.28 12.221c-0.161-0.137-0.371-0.221-0.601-0.221-0.263 0-0.5 0.109-0.668 0.285v0l-5.803 6.022-2.763-2.734-0.075-0.063c-0.158-0.129-0.362-0.207-0.584-0.207-0.271 0-0.515 0.116-0.685 0.302l-0.001 0.001c-0.147 0.162-0.236 0.377-0.236 0.614 0 0.253 0.102 0.482 0.268 0.648v0l3.435 3.396 0.075 0.064c0.157 0.127 0.36 0.204 0.58 0.204 0.262 0 0.499-0.109 0.668-0.284v0l6.517-6.772c0.12-0.153 0.192-0.348 0.192-0.561 0-0.278-0.124-0.526-0.319-0.694l-0.001-0.001z"></path>
</symbol>
<symbol id="icon-yq" viewBox="0 0 32 32">
<path d="M17.824 4.8c-6.075 0.061-10.977 5-10.977 11.084 0 0.041 0 0.081 0.001 0.122v-0.006h-3.648l4.736 4.832 0.096 0.176 4.912-5.008h-3.344c0-4.418 3.582-8 8-8s8 3.582 8 8c0 4.418-3.582 8-8 8v0c-2.528-0.341-4.737-1.5-6.398-3.198l-0.002-0.002-1.12 3.12c1.965 2.020 4.707 3.275 7.743 3.28h0.001c6.186 0 11.2-5.014 11.2-11.2s-5.014-11.2-11.2-11.2v0zM16 11.168v5.84l5.12 2.192 1.248-2.144-3.76-1.376v-4.512h-2.608z"></path>
</symbol>
<symbol id="icon-zk" viewBox="0 0 32 32">
<path d="M6.4 25.6v-19.2h19.2v19.2h-19.2zM24 8h-16v16h16v-16zM20.8 17.6h-9.6v-3.2h9.6v3.2z"></path>
</symbol>
<symbol id="icon-zu" viewBox="0 0 32 32">
<path d="M30.796 5.999h-14.798v-2c0-1.276-0.48-1.6-1.2-1.6h-13.198c-1.4 0-1.6 0.424-1.6 1.6v23.997c0 1.176 0.44 1.6 1.6 1.6h28.796c0.032 0.003 0.070 0.004 0.108 0.004 0.826 0 1.495-0.67 1.495-1.495 0-0.038-0.001-0.076-0.004-0.113v0.005-20.398c0-1.176-0.44-1.6-1.6-1.6h0.4zM2.4 3.196l11.599 0.004c0.96 0 1.2 0.124 1.2 1.2v2.4h14.798c1.080 0 1.2 0.424 1.2 1.6v3.2h-30.396v-7.199c0-0.7-0.080-1.2 0.8-1.2zM30.396 28.796h-28.396c-0.019 0.001-0.042 0.002-0.064 0.002-0.628 0-1.137-0.509-1.137-1.137 0-0.023 0.001-0.045 0.002-0.067v0.003-15.198h30.396s-0.080 14.694 0 15.198c0 0.004 0 0.009 0 0.014 0 0.655-0.531 1.186-1.186 1.186-0.005 0-0.010 0-0.014 0h0.401z"></path>
</symbol>
<symbol id="icon-zxpk" viewBox="0 0 32 32">
<path d="M25.003 22.179l0.541 2.642c0.011 0.052 0.017 0.111 0.017 0.172 0 0.232-0.092 0.443-0.242 0.598v0c-0.146 0.152-0.351 0.247-0.578 0.247-0.060 0-0.118-0.007-0.175-0.019l0.005 0.001-3.214-0.696c-1.56 0.805-3.404 1.277-5.358 1.277v0c-5.418-0.414-9.658-4.912-9.658-10.4 0-5.76 4.669-10.429 10.429-10.429s10.429 4.669 10.429 10.429c0 0 0 0 0 0v0c-0.001 2.351-0.83 4.509-2.211 6.197l0.014-0.017zM12 13.6c-1.325 0-2.4 1.075-2.4 2.4s1.075 2.4 2.4 2.4c1.325 0 2.4-1.075 2.4-2.4v0c0-1.325-1.075-2.4-2.4-2.4v0zM20 13.6c-1.325 0-2.4 1.075-2.4 2.4s1.075 2.4 2.4 2.4c1.325 0 2.4-1.075 2.4-2.4v0c0-1.325-1.075-2.4-2.4-2.4v0z"></path>
</symbol>
<symbol id="icon-zxxk" viewBox="0 0 32 32">
<path d="M27.104 14.288l-2.208-0.528-2.96-0.72c-0.089-0.018-0.158-0.087-0.176-0.175v-0.001c-0.003-0.012-0.004-0.026-0.004-0.040 0-0.081 0.047-0.15 0.115-0.183l0.001-0.001 1.776-0.992c0.057-0.028 0.099-0.080 0.112-0.143v-0.001c0.003-0.014 0.005-0.030 0.005-0.047 0-0.048-0.014-0.092-0.037-0.13l0.001 0.001c-1.631-2.599-4.481-4.302-7.729-4.302-4.299 0-7.902 2.983-8.85 6.993l-0.012 0.062c-0.006 0.062-0.043 0.115-0.095 0.144h-0.001c-0.035 0.024-0.078 0.038-0.124 0.038-0.018 0-0.036-0.002-0.053-0.006h0.002l-1.76-0.432c-0.095-0.024-0.165-0.109-0.165-0.21 0-0.016 0.002-0.032 0.005-0.048v0.001c1.22-5.059 5.707-8.759 11.058-8.759 5.421 0 9.954 3.797 11.088 8.876l0.014 0.076c0.016 0.080 0.032 0.176 0.048 0.272s0.032 0.192 0.048 0.272zM13.728 19.872c-1.368-0.798-2.272-2.259-2.272-3.931 0-2.505 2.031-4.536 4.536-4.536s4.536 2.031 4.536 4.536c0 1.672-0.904 3.132-2.25 3.919l-0.021 0.012c-0.65 0.377-1.431 0.6-2.264 0.6s-1.614-0.223-2.286-0.612l0.022 0.012zM10.064 18.944c0.085 0.018 0.15 0.088 0.16 0.175v0.001c0.002 0.011 0.003 0.023 0.003 0.036 0 0.086-0.046 0.161-0.114 0.203l-0.001 0.001-1.776 0.976c-0.053 0.029-0.090 0.082-0.096 0.143v0.001c-0.007 0.020-0.010 0.044-0.010 0.069 0 0.039 0.010 0.076 0.027 0.109l-0.001-0.001c1.637 2.598 4.491 4.299 7.741 4.299 0.526 0 1.042-0.045 1.545-0.13l-0.054 0.008c3.657-0.602 6.54-3.339 7.348-6.867l0.012-0.061c0.013-0.060 0.048-0.11 0.095-0.143h0.001c0.045-0.021 0.098-0.033 0.153-0.033 0.008 0 0.016 0 0.024 0.001h-0.001l1.76 0.432c0.103 0.017 0.181 0.105 0.181 0.212 0 0.016-0.002 0.031-0.005 0.046v-0.001c-1.217 5.063-5.706 8.767-11.060 8.767-5.418 0-9.949-3.792-11.086-8.867l-0.014-0.076-0.048-0.288c-0.016-0.096-0.032-0.192-0.048-0.272l0.096 0.016 2.208 0.528z"></path>
</symbol>
</defs>
</svg>
