<svg xmlns="http://www.w3.org/2000/svg" width="12" height="14" viewBox="0 0 12 14">
  <defs>
    <style>
      .cls-1 {
        fill: #fff;
        fill-rule: evenodd;
      }
    </style>
  </defs>
  <path id="详情" class="cls-1" d="M8442.25,1394.23l-4.08,4.28a0.056,0.056,0,0,1-.06.05,0.87,0.87,0,0,1-.74.41h-5.99a0.913,0.913,0,0,1-.85-0.99v-12.01a0.884,0.884,0,0,1,.85-0.99h10.32a0.881,0.881,0,0,1,.83.99v7.62A0.851,0.851,0,0,1,8442.25,1394.23Zm-4.02,3.08,2.73-2.79h-1.88a0.841,0.841,0,0,0-.85.84v1.95Zm3.56-11.34a0.314,0.314,0,0,0-.09-0.18h-10.32a0.174,0.174,0,0,0-.08.18v12.01a0.327,0.327,0,0,0,.08.18h6.02a0.088,0.088,0,0,0,.08-0.09v-2.76a1.663,1.663,0,0,1,1.66-1.63h2.56a0.1,0.1,0,0,0,.09-0.09v-7.62Zm-1.82,5.99h-6.85a0.417,0.417,0,0,1-.4-0.44,0.389,0.389,0,0,1,.4-0.4h6.85a0.413,0.413,0,0,1,.39.43A0.389,0.389,0,0,1,8439.97,1391.96Zm0-2.91h-6.85a0.405,0.405,0,0,1,0-.81h6.85A0.405,0.405,0,0,1,8439.97,1389.05Z" transform="translate(-8430.53 -1384.97)"/>
</svg>
