<svg xmlns="http://www.w3.org/2000/svg" width="12.03" height="12.031" viewBox="0 0 12.03 12.031">
  <defs>
    <style>
      .cls-1 {
        fill: #8a9199;
        fill-rule: evenodd;
      }
    </style>
  </defs>
  <path id="关闭" class="cls-1" d="M5599.24,620l4.51-4.517a0.852,0.852,0,0,0,0-1.2l-0.03-.036a0.853,0.853,0,0,0-1.2,0l-4.52,4.527-4.51-4.527a0.853,0.853,0,0,0-1.2,0l-0.04.036a0.835,0.835,0,0,0,0,1.2l4.52,4.517-4.52,4.517a0.852,0.852,0,0,0,0,1.2l0.04,0.035a0.853,0.853,0,0,0,1.2,0l4.51-4.517,4.52,4.517a0.853,0.853,0,0,0,1.2,0l0.03-.035a0.852,0.852,0,0,0,0-1.2Zm0,0" transform="translate(-5592 -614)"/>
</svg>
