<svg xmlns="http://www.w3.org/2000/svg" width="14" height="14" viewBox="0 0 14 14">
  <defs>
    <style>
      .cls-1 {
        fill: #35a4f2;
        fill-rule: evenodd;
      }
    </style>
  </defs>
  <path id="勾选" class="cls-1" d="M9038,1918h-10a2,2,0,0,1-2-2v-10a1.993,1.993,0,0,1,2-2h10a2,2,0,0,1,2,2v10A2.006,2.006,0,0,1,9038,1918Zm-1.78-10.12a0.636,0.636,0,0,0-.47.22l-3.86,4.26-1.64-1.85a0.644,0.644,0,0,0-.47-0.21,0.7,0.7,0,0,0-.67.72,0.772,0.772,0,0,0,.19.52l2.11,2.35a0.623,0.623,0,0,0,.48.22,0.654,0.654,0,0,0,.47-0.22l4.33-4.76a0.8,0.8,0,0,0,.2-0.52A0.7,0.7,0,0,0,9036.22,1907.88Z" transform="translate(-9026 -1904)"/>
</svg>
