<svg xmlns="http://www.w3.org/2000/svg" width="14" height="13.937" viewBox="0 0 14 13.937">
  <defs>
    <style>
      .cls-1 {
        fill: #fff;
        fill-rule: evenodd;
      }
    </style>
  </defs>
  <path id="录入" class="cls-1" d="M10483.7,209.488l-6.4,6.48a0.706,0.706,0,0,1-.4.146h-2.6a0.484,0.484,0,0,1-.5-0.5v-2.593a0.536,0.536,0,0,1,.2-0.353l6.4-6.48a0.493,0.493,0,0,1,.7,0v0l2.6,2.592A0.488,0.488,0,0,1,10483.7,209.488Zm-2.9-2.239-6,5.98v1.886h1.9l6-5.98Zm-5.6,1.089h-3.5a0.827,0.827,0,0,0-.8.8v9.071a0.827,0.827,0,0,0,.8.8h9.1a0.827,0.827,0,0,0,.8-0.8v-3.459a0.5,0.5,0,0,1,1,0v3.46a1.794,1.794,0,0,1-1.8,1.8h-9.1a1.793,1.793,0,0,1-1.8-1.8v-9.071a1.794,1.794,0,0,1,1.8-1.795h3.5A0.5,0.5,0,1,1,10475.2,208.338Z" transform="translate(-10469.9 -206.063)"/>
</svg>
