<svg xmlns="http://www.w3.org/2000/svg" width="14" height="14" viewBox="0 0 14 14">
  <defs>
    <style>
      .cls-1 {
        fill: #fff;
        fill-rule: evenodd;
      }
    </style>
  </defs>
  <path id="提交" class="cls-1" d="M10347,220a7,7,0,1,1,7-7A6.978,6.978,0,0,1,10347,220Zm0-13.077a6.078,6.078,0,1,0,0,12.156A6.078,6.078,0,1,0,10347,206.921Zm3.2,6.25-2.8-2.744v6.47a0.448,0.448,0,0,1-.4.461,0.467,0.467,0,0,1-.5-0.461v-6.5l-2.8,2.763a0.349,0.349,0,0,1-.4.13,0.335,0.335,0,0,1-.3-0.334,0.383,0.383,0,0,1,.1-0.45l3.6-3.53v-0.058c0.1-.016.1-0.03,0.1-0.043a0.5,0.5,0,0,1,.1-0.019,0.834,0.834,0,0,1,.1,0,0.15,0.15,0,0,0,.1.016,0.141,0.141,0,0,0,.1.018v0.052c0.1,0.014.1,0.031,0.1,0.05l3.5,3.529A0.443,0.443,0,0,1,10350.2,213.171Z" transform="translate(-10340 -206)"/>
</svg>
