<svg xmlns="http://www.w3.org/2000/svg" width="14" height="14" viewBox="0 0 14 14">
  <defs>
    <style>
      .cls-1 {
        fill: #c2c7cc;
        fill-rule: evenodd;
      }
    </style>
  </defs>
  <path id="日历" class="cls-1" d="M9173.26,2084h-10.53a1.733,1.733,0,0,1-1.73-1.74v-8.98a1.733,1.733,0,0,1,1.73-1.74h1.77v-1.12a0.416,0.416,0,0,1,.42-0.42,0.423,0.423,0,0,1,.42.42v1.12h5.32v-1.12a0.415,0.415,0,1,1,.83,0v1.12h1.77a1.741,1.741,0,0,1,1.74,1.74v8.98A1.741,1.741,0,0,1,9173.26,2084Zm-10.53-.84h10.53a0.894,0.894,0,0,0,.89-0.9v-6.39h-12.31v6.39A0.894,0.894,0,0,0,9162.73,2083.16Zm10.53-10.78h-1.77v1.12a0.415,0.415,0,1,1-.83,0v-1.12h-5.32v1.12a0.423,0.423,0,0,1-.42.42,0.416,0.416,0,0,1-.42-0.42v-1.12h-1.77a0.894,0.894,0,0,0-.89.9v1.75h12.31v-1.75A0.894,0.894,0,0,0,9173.26,2072.38Zm-9.61,5.66h1.26a0.423,0.423,0,0,1,.42.42h0a0.423,0.423,0,0,1-.42.42h-1.26a0.423,0.423,0,0,1-.42-0.42h0A0.423,0.423,0,0,1,9163.65,2078.04Zm0,2.12h1.26a0.414,0.414,0,0,1,.42.41v0.01a0.423,0.423,0,0,1-.42.42h-1.26a0.423,0.423,0,0,1-.42-0.42v-0.01A0.414,0.414,0,0,1,9163.65,2080.16Zm3.71-2.12h1.27a0.423,0.423,0,0,1,.42.42h0a0.423,0.423,0,0,1-.42.42h-1.27a0.414,0.414,0,0,1-.41-0.42h0A0.414,0.414,0,0,1,9167.36,2078.04Zm0,2.12h1.27a0.414,0.414,0,0,1,.42.41v0.01a0.423,0.423,0,0,1-.42.42h-1.27a0.414,0.414,0,0,1-.41-0.42v-0.01A0.406,0.406,0,0,1,9167.36,2080.16Zm3.72-2.12h1.26a0.423,0.423,0,0,1,.42.42h0a0.423,0.423,0,0,1-.42.42h-1.26a0.423,0.423,0,0,1-.42-0.42h0A0.423,0.423,0,0,1,9171.08,2078.04Zm0,2.12h1.26a0.414,0.414,0,0,1,.42.41v0.01a0.423,0.423,0,0,1-.42.42h-1.26a0.423,0.423,0,0,1-.42-0.42v-0.01A0.414,0.414,0,0,1,9171.08,2080.16Z" transform="translate(-9161 -2070)"/>
</svg>
