<svg xmlns="http://www.w3.org/2000/svg" width="16" height="16" viewBox="0 0 16 16">
  <defs>
    <style>
      .cls-1 {
        fill: #b6bbbf;
        fill-rule: evenodd;
      }
    </style>
  </defs>
  <path id="时间" class="cls-1" d="M3176.55,157a8,8,0,1,1-8.01,8,8.006,8.006,0,0,1,8.01-8h0Zm0,1.6a6.4,6.4,0,1,0,6.4,6.4,6.407,6.407,0,0,0-6.4-6.4h0Zm-0.66,1.984a0.811,0.811,0,0,1,.81.813v3.761h2.4a0.8,0.8,0,0,1,.7.406,0.789,0.789,0,0,1,0,.812,0.8,0.8,0,0,1-.7.4h-3.21a0.809,0.809,0,0,1-.81-0.811v-4.573a0.811,0.811,0,0,1,.81-0.813h0Zm0,0" transform="translate(-3168.53 -157)"/>
</svg>
