<svg xmlns="http://www.w3.org/2000/svg" width="8" height="13.969" viewBox="0 0 8 13.969">
  <defs>
    <style>
      .cls-1 {
        fill: #8a9199;
        fill-rule: evenodd;
      }
    </style>
  </defs>
  <path id="返回" class="cls-1" d="M8469.77,79.306l-5.88,5.669,5.82,5.72a0.751,0.751,0,0,1-.01,1.079,0.822,0.822,0,0,1-.55.224,0.787,0.787,0,0,1-.56-0.231l-6.37-6.267a0.751,0.751,0,0,1,.01-1.079c0.01-.007.02-0.008,0.03-0.015l6.41-6.189a0.8,0.8,0,0,1,1.11.007A0.753,0.753,0,0,1,8469.77,79.306Z" transform="translate(-8462.03 -78.031)"/>
</svg>
