<!-- Generated by IcoMoon.io -->
<svg version="1.1" xmlns="http://www.w3.org/2000/svg" width="32" height="32" viewBox="0 0 32 32">
<title>baocun</title>
<path fill="#333" d="M2.691 0.009h20.161l9.135 9.135v20.163c-0.007 1.473-1.203 2.664-2.677 2.664 0 0 0 0 0 0h-26.619c0 0 0 0 0 0-1.474 0-2.67-1.191-2.677-2.663v-26.634c0 0 0 0 0 0 0-1.471 1.193-2.664 2.664-2.664 0.004 0 0.009 0 0.013 0h-0.001zM29.309 10.244l-7.563-7.571h-19.056v26.632h26.619v-19.060zM21.322 2.672v13.316h-15.976v-13.316h2.655v10.654h10.665v-10.654h2.655zM13.334 5.337h2.655v5.326h-2.655v-5.326z"></path>
</svg>
