<!-- Generated by IcoMoon.io -->
<svg version="1.1" xmlns="http://www.w3.org/2000/svg" width="32" height="32" viewBox="0 0 32 32">
<title>da_jsxssyl</title>
<path fill="#ccf8dd" d="M32 16c0 8.837-7.163 16-16 16s-16-7.163-16-16c0-8.837 7.163-16 16-16s16 7.163 16 16z"></path>
<path fill="#00b845" d="M25.587 24.294h-0.794c0-4.86-3.94-8.8-8.8-8.8s-8.8 3.94-8.8 8.8v0h-0.794c0.006-4.489 3.091-8.256 7.255-9.304l0.066-0.014c-1.742-0.862-2.918-2.627-2.918-4.667 0-2.867 2.324-5.19 5.19-5.19s5.19 2.324 5.19 5.19c0 2.040-1.177 3.805-2.888 4.653l-0.030 0.014c4.231 1.062 7.315 4.829 7.322 9.318v0.001zM20.326 10.304c0-0.002 0-0.004 0-0.006 0-2.393-1.94-4.333-4.333-4.333s-4.333 1.94-4.333 4.333c0 2.391 1.936 4.329 4.326 4.333v0c0.002 0 0.005 0 0.008 0 2.39 0 4.329-1.936 4.332-4.326v0zM17.792 22.502l-1.805 1.805-1.792-1.805 1.792-5.325zM15.987 23.168l0.896-0.883-0.896-2.611-0.883 2.611z"></path>
</svg>
