<!-- Generated by IcoMoon.io -->
<svg version="1.1" xmlns="http://www.w3.org/2000/svg" width="32" height="32" viewBox="0 0 32 32">
<title>da_ktwjl</title>
<path fill="#ccf8dd" d="M32 16c0 8.837-7.163 16-16 16s-16-7.163-16-16c0-8.837 7.163-16 16-16s16 7.163 16 16z"></path>
<path fill="#00b845" d="M25.011 8.781h-17.024c-0.246 0.040-0.431 0.251-0.431 0.506s0.185 0.465 0.428 0.505h1.321v12.275l7.078 3.302 7.078-3.302v-12.275h1.549c0.246-0.040 0.431-0.251 0.431-0.506s-0.185-0.465-0.428-0.505h-0.003zM22.502 21.402l-6.118 2.867-6.118-2.867v-11.61h12.237v11.61zM22.502 21.402l-5.99-2.214h-0.026c-0.285-0.009-0.512-0.241-0.512-0.527 0-0.004 0-0.007 0-0.011v0.001-0.026c0-0.004 0-0.008 0-0.013 0-0.283 0.229-0.512 0.512-0.512 0 0 0 0 0 0h0.026c0.277 0.007 0.499 0.234 0.499 0.512 0 0.005 0 0.009 0 0.014v-0.001 0.026c0 0.008 0.001 0.017 0.001 0.026 0 0.279-0.222 0.505-0.499 0.512h-0.001zM22.502 21.402l-0.013-0.333c-0.27-0.008-0.487-0.229-0.487-0.5 0-0.004 0-0.008 0-0.012v0.001-4.429c0-0.265 0.215-0.48 0.48-0.48s0.48 0.215 0.48 0.48v0 4.429c0 0.004 0 0.009 0 0.015 0 0.267-0.209 0.484-0.473 0.497h-0.001zM22.502 23.296c-0.246-0.040-0.431-0.251-0.431-0.506s0.185-0.465 0.428-0.505h0.003c0.246 0.040 0.431 0.251 0.431 0.506s-0.185 0.465-0.428 0.505h-0.003z"></path>
</svg>
