<!-- Generated by IcoMoon.io -->
<svg version="1.1" xmlns="http://www.w3.org/2000/svg" width="32" height="32" viewBox="0 0 32 32">
<title>da_rjgzl</title>
<path fill="#ccf8dd" d="M32 16c0 8.837-7.163 16-16 16s-16-7.163-16-16c0-8.837 7.163-16 16-16s16 7.163 16 16z"></path>
<path fill="#00b845" d="M24.596 14.349h-5.376c-0.001 0-0.002 0-0.003 0-0.586 0-1.061-0.475-1.061-1.061 0 0 0-0.001 0-0.001v0-5.286c0 0 0-0.001 0-0.001 0-0.586 0.475-1.061 1.061-1.061 0.001 0 0.002 0 0.003 0v0c3.517 0.006 6.372 2.827 6.433 6.33v0.006c0 0.006 0 0.014 0 0.022 0 0.287-0.117 0.546-0.306 0.733v0c-0.191 0.196-0.457 0.318-0.751 0.32v0zM20.291 9.203v3.021h3.086c-0.428-1.485-1.589-2.624-3.056-3.014l-0.030-0.007zM16.406 8.474c-4.105 0.003-7.432 3.331-7.432 7.437s3.33 7.437 7.437 7.437c4.098 0 7.422-3.315 7.437-7.41v-0.001h2.136c-0.006 2.635-1.076 5.019-2.803 6.746v0c-1.731 1.733-4.123 2.804-6.766 2.804-3.99 0-7.409-2.443-8.843-5.915l-0.023-0.064c-0.44-1.061-0.696-2.294-0.696-3.587 0-3.992 2.439-7.414 5.907-8.857l0.063-0.023c1.062-0.437 2.294-0.691 3.586-0.691 0.009 0 0.017 0 0.026 0h-0.001v2.125h-0.018z"></path>
</svg>
