<!-- Generated by IcoMoon.io -->
<svg version="1.1" xmlns="http://www.w3.org/2000/svg" width="32" height="32" viewBox="0 0 32 32">
<title>da_xsdkl</title>
<path fill="#ccf8dd" d="M32 16c0 8.837-7.163 16-16 16s-16-7.163-16-16c0-8.837 7.163-16 16-16s16 7.163 16 16z"></path>
<path fill="#00b845" d="M25.92 12.582l-0.333 0.128c0 0.026 0.026 0.064 0.026 0.102v3.059c-0.013 0.335-0.288 0.602-0.625 0.602-0.005 0-0.010 0-0.015 0h0.001c-0.007 0-0.014 0-0.022 0-0.336 0-0.609-0.268-0.618-0.601v-2.702l-6.502 2.394c-0.296 0.114-0.638 0.181-0.996 0.181-0.032 0-0.065-0.001-0.097-0.002h0.005c-0.016 0-0.036 0-0.055 0-0.387 0-0.76-0.061-1.109-0.174l0.025 0.007-8.166-2.982c-0.562-0.079-0.989-0.557-0.989-1.134 0-0.573 0.421-1.047 0.97-1.131l0.006-0.001 8.090-2.97c0.347-0.11 0.745-0.173 1.158-0.173s0.812 0.063 1.186 0.18l-0.028-0.008 8.077 2.97c0.555 0.083 0.975 0.556 0.975 1.127 0 0.567-0.414 1.037-0.956 1.125l-0.007 0.001zM17.37 8.499c-0.209-0.061-0.449-0.096-0.698-0.096s-0.489 0.035-0.716 0.1l0.018-0.005-8.051 2.957 8.115 2.97c0.191 0.057 0.411 0.091 0.638 0.091 0.023 0 0.046 0 0.069-0.001h-0.003c0.029 0.002 0.063 0.003 0.097 0.003 0.176 0 0.345-0.029 0.503-0.083l-0.011 0.003 8.077-2.982zM10.278 14.643c0.002 0 0.004 0 0.007 0 0.076 0 0.148 0.014 0.215 0.040l-0.004-0.001h0.013c0.008 0.008 0.020 0.013 0.033 0.013 0.002 0 0.004 0 0.006 0v0l5.491 2.010c0.202 0.065 0.434 0.103 0.675 0.103 0.010 0 0.020 0 0.031 0h-0.002c0.021 0.001 0.046 0.002 0.071 0.002 0.186 0 0.364-0.033 0.529-0.095l-0.011 0.003 5.491-2.022 0.013 0.038c0.064-0.029 0.138-0.048 0.216-0.051h0.001c0.003 0 0.008 0 0.012 0 0.342 0 0.62 0.273 0.628 0.614v5.338c0.001 0.020 0.001 0.043 0.001 0.066 0 0.563-0.236 1.071-0.615 1.431l-0.001 0.001c-1.254 1.242-4.096 1.69-6.336 1.69-3.29 0-6.912-0.96-7.091-3.072v-5.491c0.001-0.34 0.277-0.614 0.617-0.614 0.004 0 0.007 0 0.011 0h-0.001zM16.742 22.605c2.406 0 4.634-0.55 5.414-1.318 0.156-0.138 0.255-0.339 0.256-0.563v-4.57l-4.582 1.69c-0.284 0.115-0.613 0.182-0.958 0.182-0.046 0-0.091-0.001-0.136-0.003h0.006c-0.014 0-0.031 0-0.047 0-0.39 0-0.766-0.061-1.118-0.174l0.026 0.007-4.685-1.715v4.493c0.090 1.075 2.752 1.971 5.824 1.971zM24.973 17.088c0.339 0 0.614 0.275 0.614 0.614s-0.275 0.614-0.614 0.614v0c-0.339 0-0.614-0.275-0.614-0.614s0.275-0.614 0.614-0.614v0z"></path>
</svg>
