<!-- Generated by IcoMoon.io -->
<svg version="1.1" xmlns="http://www.w3.org/2000/svg" width="32" height="32" viewBox="0 0 32 32">
<title>da_xsql</title>
<path fill="#ccf8dd" d="M32 16c0 8.837-7.163 16-16 16s-16-7.163-16-16c0-8.837 7.163-16 16-16s16 7.163 16 16z"></path>
<path fill="#00b845" d="M25.139 20.582h-7.155v-2.97c-0.001-0.104-0.029-0.201-0.078-0.284l0.001 0.003c0.323-0.573 0.513-1.258 0.513-1.988 0-0.030 0-0.060-0.001-0.091v0.005-0.294l2.189 1.677c0.105 0.082 0.238 0.132 0.384 0.132 0.093 0 0.181-0.020 0.26-0.057l-0.004 0.002c0.209-0.088 0.354-0.289 0.358-0.524v-0.001c0.004-0.026 0.006-0.057 0.006-0.088 0-0.2-0.098-0.377-0.248-0.487l-0.002-0.001-3.776-2.88c-0.071-0.062-0.134-0.129-0.19-0.202l-0.002-0.003c1.173-0.441 1.992-1.554 1.992-2.857 0-1.682-1.363-3.045-3.045-3.045s-3.045 1.363-3.045 3.045c0 1.447 1.010 2.659 2.363 2.968l0.020 0.004c-0.048 0.018-0.087 0.049-0.115 0.089l-0.001 0.001-4.224 3.251c-0.147 0.099-0.242 0.265-0.242 0.453 0 0.039 0.004 0.077 0.012 0.114l-0.001-0.004c0.030 0.231 0.165 0.425 0.355 0.536l0.003 0.002c0.067 0.024 0.145 0.038 0.226 0.038 0.15 0 0.29-0.048 0.404-0.129l-0.002 0.001 2.509-1.946c-0.074 0.251-0.116 0.539-0.116 0.837 0 0.528 0.133 1.024 0.367 1.458l-0.008-0.016c0 0 0 0.001 0 0.001 0 0.020 0.017 0.037 0.037 0.037 0 0 0.001 0 0.001 0v0c-0.025 0.059-0.040 0.127-0.040 0.199 0 0.016 0.001 0.031 0.002 0.046v-0.002 2.97h-6.362v1.626h6.362v1.498c0 0.329 0.266 0.595 0.595 0.595s0.595-0.266 0.595-0.595v0-1.498h0.794v1.498c0.008 0.332 0.271 0.599 0.6 0.614h0.001c0.327-0.016 0.587-0.285 0.589-0.614v-1.498h7.155v-1.626h-0.038zM16 20.582v-2.522c0.163 0.097 0.359 0.154 0.568 0.154 0.007 0 0.015 0 0.022 0h0.204v2.368h-0.794z"></path>
</svg>
