<!-- Generated by IcoMoon.io -->
<svg version="1.1" xmlns="http://www.w3.org/2000/svg" width="32" height="32" viewBox="0 0 32 32">
<title>de_drop</title>
<path fill="#333" d="M31.407 9.822l-14.134 14.941c-0.309 0.33-0.748 0.535-1.234 0.535s-0.925-0.205-1.233-0.535l-0.001-0.001-14.274-14.792c-0.328-0.334-0.53-0.791-0.531-1.296v0c0-0.001 0-0.003 0-0.005 0-0.497 0.193-0.949 0.508-1.285l-0.001 0.001c0.31-0.333 0.751-0.541 1.24-0.541 0.483 0 0.919 0.202 1.227 0.527l0.001 0.001 13.036 13.509 12.906-13.644c0.309-0.33 0.748-0.535 1.234-0.535s0.925 0.205 1.233 0.535l0.001 0.001c0.324 0.338 0.524 0.798 0.524 1.304 0 0.495-0.191 0.946-0.504 1.282l0.001-0.001z"></path>
</svg>
