<!-- Generated by IcoMoon.io -->
<svg version="1.1" xmlns="http://www.w3.org/2000/svg" width="32" height="32" viewBox="0 0 32 32">
<title>dizhi</title>
<path opacity="0.5" fill="#333" d="M25.697 22.629l-9.714 9.371-9.691-9.371c-2.473-2.359-4.011-5.68-4.011-9.36s1.538-7.001 4.006-9.355l0.005-0.005c2.518-2.405 5.938-3.886 9.703-3.886s7.185 1.48 9.708 3.891l-0.005-0.005c2.473 2.359 4.011 5.68 4.011 9.36s-1.538 7.001-4.006 9.355l-0.005 0.005zM20.006 9.577c-1.045-0.97-2.451-1.566-3.995-1.566-0.871 0-1.698 0.19-2.442 0.53l0.037-0.015c-1.911 0.834-3.222 2.707-3.222 4.887 0 0.171 0.008 0.339 0.024 0.506l-0.002-0.021c0.296 2.307 2.002 4.145 4.215 4.633l0.036 0.007c0.412 0.105 0.886 0.165 1.373 0.165 1.918 0 3.618-0.931 4.673-2.366l0.011-0.016c0.588-0.826 0.941-1.855 0.941-2.967 0-1.491-0.634-2.833-1.646-3.773l-0.003-0.003z"></path>
</svg>
