<!-- Generated by IcoMoon.io -->
<svg version="1.1" xmlns="http://www.w3.org/2000/svg" width="32" height="32" viewBox="0 0 32 32">
<title>img_dmt</title>
<path fill="#4ecb73" d="M29.991 3.804v24.391h-27.982v-24.391h27.982zM29.991 1.778h-27.982c-1.109 0.001-2.009 0.9-2.009 2.011 0 0.005 0 0.012 0 0.017v-0.001 24.391c0 0.004 0 0.011 0 0.016 0 1.11 0.9 2.010 2.009 2.011h27.982c1.109-0.001 2.009-0.9 2.009-2.011 0-0.005 0-0.012 0-0.017v0.001-24.391c0-0.004 0-0.011 0-0.016 0-1.11-0.9-2.010-2.009-2.011v0zM29.991 1.778l-17.191 9.28 8.107 4.942-8.107 4.942v-9.884zM12.8 9.013c-1.103 0.018-1.991 0.916-1.991 2.023 0 0.008 0 0.015 0 0.023v-0.001 9.884c0 0.006 0 0.014 0 0.021 0 1.106 0.888 2.005 1.989 2.023h0.002c0.383 0 0.74-0.113 1.038-0.307l-0.007 0.004 8.107-4.942c0.588-0.366 0.973-1.009 0.973-1.742s-0.385-1.376-0.964-1.737l-0.009-0.005-8.107-4.942c-0.292-0.189-0.648-0.302-1.031-0.302v0z"></path>
</svg>
