<!-- Generated by IcoMoon.io -->
<svg version="1.1" xmlns="http://www.w3.org/2000/svg" width="32" height="32" viewBox="0 0 32 32">
<title>img_zy</title>
<path fill="#f5bf2d" d="M27.9 32h-24c-1.33-0.019-2.4-1.101-2.4-2.433 0-0.011 0-0.022 0-0.032v0.002-27.072c0-0.002 0-0.004 0-0.006 0-0.676 0.268-1.289 0.703-1.739l-0.001 0.001c0.43-0.444 1.032-0.72 1.698-0.72h19.2c1.33 0.019 2.4 1.101 2.4 2.433 0 0.011 0 0.022 0 0.032v-0.002 22.144c0 0.001 0 0.002 0 0.004 0 0.34-0.134 0.649-0.352 0.877v0c-0.217 0.217-0.517 0.352-0.848 0.352h-18.6c-1.021 0-1.848 0.827-1.848 1.848s0.827 1.848 1.848 1.848h21.6c0.332-0.003 0.6-0.272 0.6-0.605 0-0.001 0-0.002 0-0.003v0-19.088c0-0.663 0.537-1.2 1.2-1.2s1.2 0.537 1.2 1.2v0 19.696c0 0.009 0 0.020 0 0.031 0 1.332-1.071 2.415-2.398 2.433h-0.002zM4.5 23.392h18c0.333-0.010 0.6-0.282 0.6-0.617 0-0.002 0-0.005 0-0.007v0-19.696c0-0.001 0-0.002 0-0.003 0-0.332-0.268-0.602-0.6-0.605h-18c-0.332 0.003-0.6 0.272-0.6 0.605 0 0.001 0 0.002 0 0.003v0 19.696c0 0.002 0 0.004 0 0.007 0 0.335 0.267 0.608 0.599 0.617h0.001zM7.5 8.608h9.6c0.666 0.016 1.2 0.56 1.2 1.228 0 0.001 0 0.002 0 0.004v0c0 0.001 0 0.002 0 0.004 0 0.34-0.134 0.649-0.352 0.877v0c-0.217 0.217-0.517 0.351-0.848 0.352h-9.6c-0.68 0-1.232-0.552-1.232-1.232s0.552-1.232 1.232-1.232v0zM7.5 14.8h7.2c0.665 0.013 1.2 0.555 1.2 1.222 0 0.003 0 0.007 0 0.010v-0.001c0 0.001 0 0.002 0 0.004 0 0.34-0.134 0.649-0.352 0.877v0c-0.217 0.217-0.517 0.352-0.848 0.352h-7.2c-0.68 0-1.232-0.552-1.232-1.232s0.552-1.232 1.232-1.232v0z"></path>
</svg>
