<!-- Generated by IcoMoon.io -->
<svg version="1.1" xmlns="http://www.w3.org/2000/svg" width="32" height="32" viewBox="0 0 32 32">
<title>img_xy</title>
<path fill="#f5bf2d" d="M30.797 29.017h-1.986v-18.439c0-2.878-1.59-4.1-2.584-4.317l-6.359-2.041v-2.259c-0.006-0.33-0.158-0.623-0.394-0.819l-0.002-0.002c-0.187-0.13-0.42-0.207-0.67-0.207-0.044 0-0.087 0.003-0.13 0.007l0.006-0.001-13.314 3.898c-1.418 0.523-2.411 1.864-2.411 3.435 0 0.157 0.010 0.312 0.029 0.465l-0.002-0.018v20.296h-1.986c-0.564 0-1.020 0.457-1.020 1.020s0.457 1.020 1.020 1.020v0h29.803c0.564 0 1.020-0.457 1.020-1.020s-0.457-1.020-1.020-1.020v0 0zM17.883 29.017h-12.916v-20.296c-0.021-0.097-0.032-0.208-0.032-0.322 0-0.684 0.42-1.27 1.015-1.514l0.011-0.004 11.922-3.48v25.617zM26.824 29.017h-6.953v-22.756l5.763 2.058h0.2c0.198 0 0.992 0.2 0.992 2.259v18.439zM10.531 8.32h-1.988v2.041h1.988v-2.041zM15.1 8.32h-1.986v2.041h1.986v-2.041zM10.531 11.599h-1.988v2.041h1.988v-2.041zM15.1 11.599h-1.986v2.041h1.986v-2.041zM10.531 15.080h-1.988v2.041h1.988v-2.041zM15.1 15.080h-1.986v2.041h1.986v-2.041zM10.531 18.56h-1.988v2.058h1.988v-2.058zM15.1 18.56h-1.986v2.058h1.986v-2.058zM10.531 21.839h-1.988v2.041h1.988v-2.041zM15.1 21.839h-1.986v2.041h1.986v-2.041zM10.531 25.32h-1.988v2.058h1.988v-2.058zM15.1 25.32h-1.986v2.058h1.986v-2.058zM22.453 13.64h1.986v-2.041h-1.986v2.041zM22.453 17.121h1.986v-2.041h-1.986v2.041zM22.453 20.618h1.986v-2.058h-1.986v2.058zM22.453 23.88h1.986v-2.041h-1.986v2.041zM22.453 27.378h1.986v-2.058h-1.986v2.058z"></path>
</svg>
