<!-- Generated by IcoMoon.io -->
<svg version="1.1" xmlns="http://www.w3.org/2000/svg" width="32" height="32" viewBox="0 0 32 32">
<title>img_js</title>
<path fill="#975fe5" d="M2.48 23.756c0.004 0.036 0.005 0.076 0.005 0.118 0 0.684-0.555 1.238-1.238 1.238s-1.238-0.555-1.238-1.238c0-0.042 0.002-0.083 0.006-0.124v0.005-11.928c0-6.428 0.045-10.051 6.201-10.051h19.831c6.154 0 6.199 3.622 6.199 10.051v11.928c0.004 0.036 0.005 0.076 0.005 0.118 0 0.684-0.555 1.238-1.238 1.238s-1.238-0.555-1.238-1.238c0-0.042 0.002-0.083 0.006-0.124v0.005-11.928c0-4.988 0.452-7.452-4.332-7.471h-18.405c-4.79 0-4.551 2.465-4.551 7.471v11.928zM6.199 10.823c0-0.005 0-0.012 0-0.018 0-0.691 0.55-1.253 1.236-1.272h17.351c0.683 0.038 1.221 0.601 1.221 1.29s-0.539 1.252-1.218 1.289h-17.353c-0.687-0.012-1.238-0.572-1.238-1.26 0-0.010 0-0.020 0-0.030v0.002zM6.199 18.598c0-0.010 0-0.021 0-0.033 0-0.692 0.55-1.255 1.236-1.276h17.351c0.688 0.038 1.23 0.605 1.23 1.299s-0.543 1.26-1.228 1.299h-17.353c-0.688-0.019-1.238-0.581-1.238-1.272 0-0.006 0-0.012 0-0.019v0.001zM0 28.932c0-0.007 0-0.016 0-0.025 0-0.692 0.555-1.253 1.244-1.265h29.737c0.683 0.038 1.221 0.601 1.221 1.29s-0.539 1.252-1.218 1.289h-29.74c-0.69-0.012-1.244-0.573-1.244-1.265 0-0.009 0-0.018 0-0.026v0.001zM6.199 26.335c0-0.004 0-0.008 0-0.012 0-0.687 0.542-1.248 1.222-1.277h4.984c0.683 0.038 1.221 0.601 1.221 1.29s-0.539 1.252-1.218 1.29h-4.985c-0.679-0.012-1.226-0.564-1.226-1.245 0-0.015 0-0.031 0.001-0.046v0.002z"></path>
</svg>
