<!-- Generated by IcoMoon.io -->
<svg version="1.1" xmlns="http://www.w3.org/2000/svg" width="32" height="32" viewBox="0 0 32 32">
<title>imgUp</title>
<path fill="#4ecb73" d="M14.26 30.133v-23.805l-8.641 8.98c-0.331 0.329-0.786 0.532-1.29 0.532-1.010 0-1.829-0.819-1.829-1.829 0-0.478 0.183-0.913 0.483-1.239l-0.001 0.001 11.769-12.216c0.335-0.341 0.801-0.552 1.317-0.552s0.982 0.211 1.317 0.552v0l11.832 12.291c0.31 0.322 0.502 0.761 0.502 1.244 0 0.004 0 0.007 0 0.011v-0.001c-0.003 0.521-0.218 0.991-0.562 1.329v0c-0.33 0.311-0.777 0.502-1.267 0.502-0.516 0-0.983-0.211-1.319-0.552v0l-8.644-8.98v23.779c-0.005 0.964-0.76 1.75-1.711 1.806h-0.005c-0.032 0.002-0.070 0.003-0.108 0.003-1.018 0-1.844-0.825-1.844-1.844 0-0.006 0-0.011 0-0.017v0.001z"></path>
</svg>
