<!-- Generated by IcoMoon.io -->
<svg version="1.1" xmlns="http://www.w3.org/2000/svg" width="32" height="32" viewBox="0 0 32 32">
<title>jindu</title>
<path fill="#e4fbed" d="M0 16c0 8.837 7.163 16 16 16s16-7.163 16-16v0c0-8.837-7.163-16-16-16s-16 7.163-16 16v0z"></path>
<path fill="#00b845" d="M25.587 15.987c0 0.004 0 0.008 0 0.013 0 5.302-4.298 9.6-9.6 9.6s-9.6-4.298-9.6-9.6c0-5.302 4.298-9.6 9.6-9.6v0c0.004 0 0.008 0 0.013 0 5.295 0 9.587 4.292 9.587 9.587v0zM15.987 7.77c-4.539 0.004-8.218 3.684-8.218 8.224 0 4.542 3.682 8.224 8.224 8.224s8.224-3.682 8.224-8.224c0-0.002 0-0.005 0-0.007v0c-0.005-4.54-3.686-8.218-8.227-8.218-0.001 0-0.003 0-0.004 0v0zM20.352 18.176h-5.235c-0.479-0.005-0.865-0.392-0.87-0.87v-5.236c0-0.002 0-0.005 0-0.007 0-0.319 0.173-0.597 0.431-0.746l0.004-0.002c0.124-0.078 0.274-0.125 0.435-0.125s0.312 0.046 0.439 0.127l-0.003-0.002c0.262 0.151 0.435 0.429 0.435 0.748 0 0.003 0 0.005 0 0.008v0 4.365h4.365c0.481 0 0.87 0.39 0.87 0.87s-0.39 0.87-0.87 0.87v0z"></path>
</svg>
