<!-- Generated by IcoMoon.io -->
<svg version="1.1" xmlns="http://www.w3.org/2000/svg" width="32" height="32" viewBox="0 0 32 32">
<title>kaoqinyichang</title>
<path fill="#333" d="M16 32c-8.837 0-16-7.163-16-16s7.163-16 16-16c8.837 0 16 7.163 16 16v0c0 8.837-7.163 16-16 16v0zM16 3.048c-7.153 0-12.952 5.799-12.952 12.952s5.799 12.952 12.952 12.952c7.153 0 12.952-5.799 12.952-12.952v0c0-7.153-5.799-12.952-12.952-12.952v0zM18.72 10.484l-1.196 7.802c0 0.842-0.682 1.524-1.524 1.524s-1.524-0.682-1.524-1.524v0l-1.204-7.802c-0.199-0.391-0.317-0.852-0.32-1.34v-0.001c0.003-0.164 0.020-0.322 0.049-0.475l-0.003 0.018-0.046-0.305h0.107c0.345-1.325 1.531-2.286 2.941-2.286s2.596 0.962 2.936 2.265l0.005 0.021h0.107l-0.046 0.305c0.026 0.136 0.042 0.293 0.046 0.454v0.003c-0.002 0.49-0.123 0.951-0.335 1.357l0.008-0.016zM16 21.333c1.262 0 2.286 1.023 2.286 2.286s-1.023 2.286-2.286 2.286c-1.262 0-2.286-1.023-2.286-2.286v0c0-1.262 1.023-2.286 2.286-2.286v0z"></path>
</svg>
