<!-- Generated by IcoMoon.io -->
<svg version="1.1" xmlns="http://www.w3.org/2000/svg" width="32" height="32" viewBox="0 0 32 32">
<title>kaoqinzhengchang</title>
<path fill="#333" d="M31.999 15.991c0 0.002 0 0.005 0 0.008 0 8.836-7.163 16-16 16s-16-7.163-16-16c0-8.836 7.163-16 16-16 3.274 0 6.319 0.984 8.855 2.672l-0.059-0.037-0.099 0.099c0.277 0.271 0.449 0.648 0.449 1.066 0 0.003 0 0.006 0 0.008v0c0 0.001 0 0.003 0 0.005 0 0.839-0.68 1.518-1.518 1.518-0.465 0-0.882-0.209-1.16-0.539l-0.002-0.002c-1.85-1.082-4.073-1.721-6.446-1.721-7.143 0-12.934 5.791-12.934 12.934s5.791 12.934 12.934 12.934c7.143 0 12.934-5.791 12.934-12.934 0-0.004 0-0.008 0-0.012v0.001c0-0.381-0.023-0.754-0.053-1.127l0.107-0.030c-0.032-0.109-0.051-0.235-0.053-0.364v-0.001c0-0.008 0-0.017 0-0.025 0-0.841 0.682-1.523 1.523-1.523s1.523 0.682 1.523 1.523c0 0.142-0.019 0.279-0.056 0.409l0.003-0.011c0.030 0.381 0.053 0.761 0.053 1.15zM28.869 10.493l0.084 0.168-14.468 14.468-7.615-6.854 0.137-0.137c-0.085-0.183-0.135-0.398-0.137-0.624v-0.001c0-0.841 0.682-1.523 1.523-1.523v0c0.227 0.002 0.441 0.052 0.634 0.141l-0.010-0.004 0.137-0.137 5.331 5.33 12.945-13.707 0.084 0.168c0.197-0.105 0.43-0.167 0.678-0.168v0c0.002 0 0.004 0 0.006 0 0.838 0 1.518 0.679 1.518 1.518 0 0.593-0.341 1.107-0.837 1.357l-0.009 0.004z"></path>
</svg>
