<!-- Generated by IcoMoon.io -->
<svg version="1.1" xmlns="http://www.w3.org/2000/svg" width="39" height="32" viewBox="0 0 39 32">
<title>kch</title>
<path fill="#d5f0ff" d="M38.241 11.84c-2.196 0.021-3.967 1.806-3.967 4.005 0 0.053 0.001 0.106 0.003 0.159v-0.008c0 0.021-0.001 0.046-0.001 0.071 0 2.215 1.761 4.018 3.959 4.087h0.753v8.178c0.001 0.025 0.001 0.053 0.001 0.082 0 1.939-1.552 3.515-3.482 3.555h-32.022c-1.933-0.039-3.485-1.616-3.485-3.555 0-0.029 0-0.058 0.001-0.087v0.004-8.178h0.871c2.196-0.023 3.967-1.808 3.967-4.007 0-0.053-0.001-0.106-0.003-0.159v0.008c0-0.021 0.001-0.045 0.001-0.069 0-2.215-1.761-4.018-3.959-4.087h-0.877v-8.055c0-0.011 0-0.025 0-0.038 0-1.934 1.464-3.525 3.344-3.728l0.017-0.001h32.267c1.933 0.039 3.485 1.616 3.485 3.555 0 0.029 0 0.058-0.001 0.087v-0.004 8.178h-0.871zM37.245 3.525c0.001-0.024 0.002-0.052 0.002-0.080 0-0.96-0.778-1.739-1.739-1.739-0.002 0-0.004 0-0.006 0h-32.017c-0.002 0-0.003 0-0.005 0-0.96 0-1.739 0.778-1.739 1.739 0 0.028 0.001 0.056 0.002 0.084v-0.004 6.496c2.77 0.528 4.836 2.93 4.836 5.815 0 0.011 0 0.021 0 0.032v-0.002c0.001 0.034 0.001 0.074 0.001 0.113 0 2.866-2.073 5.248-4.802 5.729l-0.035 0.005v6.364c-0.001 0.024-0.002 0.052-0.002 0.080 0 0.96 0.778 1.739 1.739 1.739 0.002 0 0.004 0 0.006 0h32.142c0.002 0 0.004 0 0.005 0 0.96 0 1.739-0.778 1.739-1.739 0-0.028-0.001-0.056-0.002-0.084v0.004-6.364c-2.838-0.519-4.962-2.973-4.962-5.923 0-2.905 2.059-5.33 4.798-5.893l0.039-0.007v-6.366zM30.419 20.933c-0.544-0.050-0.969-0.492-0.995-1.038v-0.003c0-0.011-0.001-0.023-0.001-0.036 0-0.551 0.445-0.999 0.996-1.003v0c0.556 0.024 0.997 0.48 0.997 1.039s-0.441 1.015-0.995 1.039h-0.002zM23.716 21.063c-3.236 0-4.587-2.208-4.587-5.067-0.003-0.066-0.005-0.143-0.005-0.221 0-2.536 2.056-4.592 4.592-4.592s4.592 2.056 4.592 4.592c0 0.078-0.002 0.155-0.006 0.232v-0.011c0.015 0.139 0.023 0.301 0.023 0.464 0 2.542-2.061 4.603-4.603 4.603-0.003 0-0.005 0-0.008 0v0zM23.716 12.885c-1.412 0.067-2.531 1.228-2.531 2.65 0 0.166 0.015 0.328 0.044 0.485l-0.003-0.016c0 1.819 0.622 3.378 2.489 3.378s2.489-1.559 2.489-3.378c0.027-0.143 0.043-0.307 0.043-0.476 0-1.422-1.12-2.583-2.526-2.649h-0.006zM16.392 20.94c-0.056 0.010-0.12 0.016-0.186 0.016-0.396 0-0.743-0.213-0.931-0.53l-0.003-0.005-3.484-5.847v5.458c0.005 0.035 0.008 0.076 0.008 0.118 0 0.51-0.413 0.923-0.923 0.923-0.022 0-0.044-0.001-0.066-0.002h0.003c-0.019 0.001-0.042 0.002-0.064 0.002-0.517 0-0.937-0.419-0.937-0.937 0-0.036 0.002-0.072 0.006-0.108v0.004-7.536c-0.002-0.023-0.002-0.050-0.002-0.077 0-0.675 0.548-1.223 1.223-1.223 0.413 0 0.777 0.204 0.999 0.517l0.003 0.004 3.609 6.105v-5.586c-0.001-0.018-0.002-0.039-0.002-0.060 0-0.551 0.447-0.997 0.997-0.997s0.997 0.447 0.997 0.997c0 0.021-0.001 0.042-0.002 0.062v-0.003 7.404c0.013 0.064 0.021 0.137 0.021 0.213 0 0.604-0.489 1.093-1.093 1.093-0.061 0-0.12-0.005-0.178-0.014l0.006 0.001z"></path>
</svg>
