<!-- Generated by IcoMoon.io -->
<svg version="1.1" xmlns="http://www.w3.org/2000/svg" width="32" height="32" viewBox="0 0 32 32">
<title>kechenghao</title>
<path fill="#8f9094" d="M19.406 13.531c-1.146 0.024-2.066 0.958-2.066 2.107 0 0.128 0.011 0.253 0.033 0.374l-0.002-0.013c-0.042 0.157-0.066 0.337-0.066 0.524 0 1.16 0.94 2.101 2.101 2.101s2.101-0.94 2.101-2.101c0-0.186-0.024-0.366-0.070-0.538l0.003 0.015c0.020-0.109 0.031-0.234 0.031-0.362 0-1.149-0.92-2.083-2.063-2.107h-0.002zM19.406 13.531c-1.146 0.024-2.066 0.958-2.066 2.107 0 0.128 0.011 0.253 0.033 0.374l-0.002-0.013c-0.042 0.157-0.066 0.337-0.066 0.524 0 1.16 0.94 2.101 2.101 2.101s2.101-0.94 2.101-2.101c0-0.186-0.024-0.366-0.070-0.538l0.003 0.015c0.020-0.109 0.031-0.234 0.031-0.362 0-1.149-0.92-2.083-2.063-2.107h-0.002zM31.291 12.709h0.709v-6.446c0-1.565-1.269-2.834-2.834-2.834v0h-26.423c-1.535 0.122-2.735 1.394-2.743 2.948v6.332h0.709c1.797 0.021 3.246 1.482 3.246 3.282 0 0.003 0 0.007 0 0.010v-0.001c0 0.014 0 0.030 0 0.046 0 1.767-1.433 3.2-3.2 3.2-0.016 0-0.032 0-0.048 0h-0.707v6.446c0 0.001 0 0.003 0 0.005 0 1.569 1.267 2.842 2.833 2.852h26.218c1.574-0.009 2.848-1.283 2.857-2.856v-6.447h-0.617c-1.79-0.006-3.239-1.456-3.246-3.245v-0.001c0-0.020-0.001-0.043-0.001-0.066 0-1.781 1.444-3.225 3.225-3.225 0.007 0 0.015 0 0.022 0h-0.001zM14.423 18.834c0.009 0.048 0.015 0.103 0.015 0.159 0 0.476-0.386 0.862-0.862 0.862-0.056 0-0.111-0.005-0.164-0.016l0.005 0.001c-0.051 0.010-0.11 0.016-0.17 0.016-0.311 0-0.584-0.16-0.742-0.402l-0.002-0.003-2.857-4.594v4.274c0 0.448-0.363 0.811-0.811 0.811s-0.811-0.363-0.811-0.811v-5.897c-0.011-0.051-0.017-0.11-0.017-0.17 0-0.483 0.392-0.875 0.875-0.875 0.060 0 0.119 0.006 0.175 0.018l-0.006-0.001c0.007 0 0.016 0 0.024 0 0.321 0 0.605 0.162 0.774 0.409l0.002 0.003 2.949 4.8v-4.389c0-0.448 0.363-0.811 0.811-0.811s0.811 0.363 0.811 0.811v5.806zM19.406 19.977c-0.041 0.002-0.088 0.002-0.136 0.002-2.146 0-3.886-1.74-3.886-3.886s1.74-3.886 3.886-3.886c2.113 0 3.832 1.687 3.884 3.787v0.005c0.007 0.086 0.011 0.187 0.011 0.289 0 2.037-1.652 3.689-3.689 3.689-0.025 0-0.050 0-0.074-0.001h0.004zM24.891 19.84c-0.438-0.020-0.79-0.364-0.823-0.797v-0.003c0-0.001 0-0.003 0-0.005 0-0.452 0.366-0.818 0.818-0.818 0.002 0 0.003 0 0.005 0v0c0.436 0.033 0.78 0.385 0.8 0.821v0.002c-0.022 0.433-0.367 0.778-0.798 0.8h-0.002zM19.406 13.531c-1.146 0.024-2.066 0.958-2.066 2.107 0 0.128 0.011 0.253 0.033 0.374l-0.002-0.013c-0.042 0.157-0.066 0.337-0.066 0.524 0 1.16 0.94 2.101 2.101 2.101s2.101-0.94 2.101-2.101c0-0.186-0.024-0.366-0.070-0.538l0.003 0.015c0.020-0.109 0.031-0.234 0.031-0.362 0-1.149-0.92-2.083-2.063-2.107h-0.002z"></path>
</svg>
