<!-- Generated by IcoMoon.io -->
<svg version="1.1" xmlns="http://www.w3.org/2000/svg" width="32" height="32" viewBox="0 0 32 32">
<title>noData</title>
<path fill="#00fefb" opacity="0.65" d="M29.839 25.299c-0.098 0.328-0.272 0.607-0.502 0.829l-0.001 0.001c-0.061 0.063-0.138 0.108-0.227 0.129l-0.003 0.001c-2.522 0.67-3.14 1.482-3.288 1.906-0.030 0.090-0.048 0.193-0.048 0.301 0 0.211 0.067 0.407 0.182 0.566l-0.002-0.003c0.063 0.082 0.101 0.187 0.101 0.3 0 0.155-0.071 0.292-0.183 0.383l-0.001 0.001c-0.082 0.065-0.187 0.105-0.301 0.105-0.155 0-0.293-0.073-0.382-0.185l-0.001-0.001c-0.245-0.316-0.393-0.717-0.393-1.154 0-0.217 0.036-0.425 0.104-0.618l-0.004 0.013c0.359-1.075 1.643-1.906 3.824-2.491 0.138-0.14 0.229-0.327 0.245-0.535v-0.003c-0.018-0.236-0.15-0.438-0.34-0.553l-0.003-0.002h-0.016c-0.066-0.048-0.148-0.098-0.227-0.145-0.016-0.018-0.032-0.018-0.048-0.034-0.1-0.032-0.198-0.082-0.311-0.113-0.249-0.063-0.535-0.099-0.829-0.099-0.041 0-0.082 0.001-0.123 0.002h0.006c-1.048 0.024-2.047 0.201-2.986 0.509l0.073-0.021c-0.18 0.082-0.373 0.18-0.57 0.278-0.048 0.034-0.095 0.050-0.145 0.082-0.3 0.163-0.55 0.32-0.791 0.489l0.025-0.016c-3.71 2.604-3.27 3.908-3.27 3.927 0.028 0.060 0.044 0.13 0.044 0.203 0 0.185-0.103 0.347-0.255 0.429l-0.003 0.001c-0.062 0.029-0.134 0.047-0.211 0.048v0c-0.001 0-0.003 0-0.004 0-0.188 0-0.35-0.104-0.435-0.257l-0.002-0.003c-0.145-0.279-0.649-1.727 2.411-4.235h-8.514c3.045 2.509 2.538 3.94 2.393 4.235-0.079 0.155-0.237 0.259-0.419 0.259-0.001 0-0.002 0-0.003 0v0c-0.003 0-0.007 0-0.010 0-0.079 0-0.153-0.017-0.22-0.049l0.003 0.002c-0.152-0.084-0.253-0.244-0.253-0.427 0-0.082 0.021-0.16 0.056-0.228l-0.001 0.003s0.406-1.304-3.272-3.893c-0.024-0.008-0.046-0.019-0.064-0.035v0c-0.195-0.138-0.425-0.284-0.662-0.418l-0.041-0.021c-0.048-0.032-0.113-0.064-0.162-0.098-0.195-0.098-0.375-0.18-0.554-0.261-0.871-0.285-1.875-0.461-2.916-0.486h-0.013c-0.006 0-0.013 0-0.020 0-0.328 0-0.648 0.035-0.956 0.101l0.029-0.005c-0.119 0.032-0.222 0.071-0.319 0.119l0.010-0.004c-0.016 0.018-0.032 0.018-0.048 0.034-0.081 0.036-0.152 0.080-0.215 0.131l0.002-0.002-0.016 0.018c-0.188 0.12-0.317 0.319-0.341 0.549v0.003c0.008 0.21 0.093 0.398 0.227 0.539v0c2.181 0.584 3.467 1.431 3.824 2.491 0.057 0.176 0.090 0.38 0.090 0.59 0 0.439-0.143 0.845-0.385 1.174l0.003-0.005c-0.090 0.113-0.228 0.185-0.383 0.185-0.114 0-0.219-0.039-0.302-0.104l0.001 0.001c-0.113-0.087-0.185-0.221-0.185-0.373 0-0.112 0.039-0.214 0.104-0.294l-0.001 0.001c0.111-0.161 0.176-0.361 0.176-0.575 0-0.11-0.017-0.215-0.049-0.314l0.002 0.007c-0.145-0.423-0.765-1.236-3.286-1.891-0.091-0.020-0.169-0.065-0.229-0.127v0c-0.217-0.232-0.388-0.509-0.499-0.815l-0.005-0.016h-1.515c-1.115-0.001-2.018-0.905-2.018-2.019 0 0 0 0 0-0.001v0-19.121c0-0.001 0-0.002 0-0.002 0-1.115 0.903-2.018 2.018-2.018h27.773c1.113 0.007 2.013 0.907 2.020 2.019v19.103c-0.001 1.096-0.88 1.986-1.97 2.006h-0.002zM30.848 4.189c-0.003-0.574-0.467-1.039-1.040-1.043h-27.774c-0.573 0.005-1.037 0.47-1.040 1.043v19.103c0 0.002 0 0.003 0 0.005 0 0.574 0.465 1.040 1.040 1.040 0 0 0.001 0 0.001 0h1.515c0.057-0.126 0.112-0.228 0.17-0.327l-0.009 0.016c0.048-0.080 0.098-0.15 0.151-0.215l-0.003 0.003c0.019-0.025 0.041-0.048 0.065-0.066l0.033-0.033c0.069-0.067 0.144-0.131 0.221-0.191l0.006-0.004c0.034-0.016 0.066-0.048 0.1-0.064 0.064-0.050 0.145-0.082 0.211-0.131 0.032-0.016 0.064-0.048 0.098-0.066 0.009-0.008 0.020-0.012 0.032-0.014v0c0.311-0.161 0.673-0.281 1.055-0.341l0.020-0.003c0.048 0 0.080-0.016 0.113-0.016 0.048 0 0.098-0.016 0.148-0.016 0.177-0.016 0.356-0.032 0.552-0.032h0.148c0.253 0.001 0.502 0.018 0.745 0.051l-0.029-0.003c0.032 0 0.080 0.016 0.13 0.016 0.619 0.083 1.179 0.231 1.707 0.439l-0.048-0.017c0.050 0.016 0.082 0.032 0.131 0.050 0.354 0.139 0.643 0.276 0.923 0.428l-0.043-0.022 0.098 0.050c0.303 0.156 0.558 0.312 0.801 0.486l-0.020-0.013 0.098 0.048h11.087c0.28-0.201 0.6-0.396 0.935-0.567l0.042-0.020c0.325-0.163 0.586-0.293 0.88-0.409 0.789-0.327 1.704-0.523 2.662-0.536h0.087c0.003 0 0.005 0 0.008 0 0.221 0 0.439 0.018 0.651 0.053l-0.023-0.003c0.024 0.010 0.052 0.016 0.081 0.016 0.006 0 0.012 0 0.017-0.001h-0.001c0.050 0 0.082 0.016 0.113 0.016 0.403 0.069 0.764 0.189 1.098 0.354l-0.023-0.010c0.016 0 0.016 0.014 0.032 0.014 0.032 0.018 0.066 0.050 0.098 0.066 0.087 0.035 0.162 0.080 0.229 0.133l-0.002-0.002c0.032 0.016 0.050 0.048 0.082 0.064 0.091 0.064 0.17 0.133 0.242 0.21l0.001 0.001c0 0 0 0 0 0 0.009 0 0.016 0.007 0.016 0.016 0 0 0 0 0 0v0l0.066 0.066c0.129 0.153 0.233 0.331 0.305 0.526l0.004 0.012c0.557-0.029 0.999-0.483 1.008-1.042v-19.122zM20.918 12.201c-1.662-0.003-3.010-1.35-3.011-3.013v0c0-0.278 0.226-0.504 0.504-0.504s0.504 0.226 0.504 0.504v0c0 1.105 0.896 2.002 2.002 2.002s2.002-0.896 2.002-2.002v0c0.002-0.278 0.228-0.503 0.507-0.504v0c0.276 0.007 0.497 0.228 0.504 0.504v0.001c-0.002 1.663-1.349 3.011-3.013 3.013v0zM20.823 19.891c0.068 0.085 0.11 0.194 0.11 0.312 0 0.275-0.223 0.498-0.498 0.498-0.151 0-0.286-0.067-0.377-0.173l-0.262-0.262c-1.012-0.951-2.372-1.542-3.87-1.564h-0.004c-1.141 0.003-2.2 0.349-3.081 0.94l0.020-0.013c-0.304 0.206-0.57 0.414-0.819 0.642l0.006-0.005c-0.097 0.079-0.182 0.164-0.259 0.258l-0.003 0.003c-0.092 0.106-0.227 0.174-0.378 0.174-0.275 0-0.498-0.223-0.498-0.498 0-0.119 0.041-0.227 0.111-0.313l-0.001 0.001c0.368-0.431 0.791-0.797 1.264-1.096l0.023-0.013c1.011-0.683 2.257-1.091 3.598-1.091s2.587 0.407 3.621 1.105l-0.023-0.015c0.5 0.325 0.933 0.692 1.316 1.104l0.004 0.004zM10.89 12.201c-1.663-0.002-3.011-1.35-3.011-3.013v0c0-0.278 0.226-0.504 0.504-0.504s0.504 0.226 0.504 0.504v0c0 1.106 0.897 2.003 2.003 2.003s2.003-0.897 2.003-2.003v0c0-0.278 0.226-0.504 0.504-0.504s0.504 0.226 0.504 0.504v0c-0.007 1.661-1.352 3.005-3.012 3.013h-0.001z"></path>
</svg>
