<!-- Generated by IcoMoon.io -->
<svg version="1.1" xmlns="http://www.w3.org/2000/svg" width="32" height="32" viewBox="0 0 32 32">
<title>pdf</title>
<path fill="#ff3f3f" d="M29.384 31.374c-0.385 0.385-0.917 0.623-1.503 0.626h-23.809c-1.151-0.029-2.073-0.969-2.073-2.124 0-0.018 0-0.036 0.001-0.055v0.003-27.674c0-0.002 0-0.004 0-0.006 0-1.177 0.949-2.132 2.123-2.142h19.521l6.356 6.402v23.47c0 0.003 0 0.006 0 0.010 0 0.582-0.235 1.108-0.616 1.49v0zM21.416 16.81c-0.996 0.018-1.955 0.134-2.88 0.338l0.096-0.018c-1.091-1.032-2.007-2.235-2.708-3.569l-0.036-0.075c0.748-2.556 0.792-4.286 0.22-5.103-0.261-0.358-0.677-0.589-1.147-0.594h-0.001c-0.040-0.004-0.086-0.006-0.133-0.006-0.531 0-0.993 0.295-1.231 0.73l-0.004 0.007c-0.792 1.368 0.356 4.055 0.884 5.148-0.682 2.181-1.477 4.051-2.43 5.823l0.086-0.175c-4.2 1.868-4.284 3.006-4.284 3.417 0 0.008 0 0.018 0 0.028 0 0.524 0.3 0.977 0.737 1.199l0.008 0.004c0.177 0.115 0.394 0.184 0.627 0.184 0.014 0 0.029 0 0.043-0.001h-0.002c1.104 0 2.388-1.276 3.756-3.781 1.477-0.659 3.232-1.253 5.048-1.687l0.212-0.043c0.876 0.773 2.008 1.276 3.254 1.367l0.018 0.001c0.748 0 2.204 0 2.208-1.555 0.044-0.587-0.264-1.594-2.34-1.638zM21.46 18.586c-0.489-0.039-0.939-0.169-1.345-0.373l0.021 0.009c0.287-0.062 0.617-0.097 0.954-0.097 0.067 0 0.133 0.001 0.199 0.004h-0.009c0.884 0 1.060 0.232 1.068 0.363-0.191 0.070-0.411 0.11-0.64 0.11-0.087 0-0.173-0.006-0.258-0.017l0.010 0.001zM16.988 17.644c-1.212 0.293-2.216 0.607-3.193 0.976l0.185-0.061v-0.094l-0.088 0.044q0.732-1.526 1.332-3.108l0.044 0.049 0.040-0.094c0.545 0.843 1.127 1.577 1.773 2.25l-0.005-0.005h-0.132zM14.74 9.303c0.042-0.028 0.093-0.045 0.148-0.045 0.010 0 0.019 0.001 0.029 0.002h0.127c0.103 0.337 0.162 0.725 0.162 1.126 0 0.444-0.073 0.871-0.207 1.27l0.008-0.028c-0.216-0.464-0.342-1.006-0.342-1.579 0-0.264 0.027-0.522 0.078-0.771l-0.004 0.025zM9.288 22.688l-0.156 0.052c0.459-0.694 1.102-1.233 1.861-1.553l0.027-0.010c-0.388 0.686-0.988 1.215-1.709 1.503l-0.023 0.008z"></path>
<path fill="#fff" opacity="0.5" d="M29.944 6.408h-4.176c-1.17-0.004-2.116-0.953-2.116-2.124 0-0.002 0-0.005 0-0.007v0-4.277z"></path>
</svg>
