<!-- Generated by IcoMoon.io -->
<svg version="1.1" xmlns="http://www.w3.org/2000/svg" width="32" height="32" viewBox="0 0 32 32">
<title>quxiao</title>
<path fill="#333" d="M16 32c-8.837 0-16-7.163-16-16s7.163-16 16-16c8.837 0 16 7.163 16 16v0c0 8.837-7.163 16-16 16v0zM16 1.78c-7.854 0-14.22 6.366-14.22 14.22s6.367 14.22 14.22 14.22c7.854 0 14.22-6.367 14.22-14.22v0c0-0.002 0-0.005 0-0.008 0-7.849-6.363-14.212-14.212-14.212-0.003 0-0.006 0-0.008 0v0zM17.26 16l5.34 5.34c0.154 0.159 0.25 0.376 0.25 0.616 0 0.124-0.026 0.243-0.072 0.35l0.002-0.006c-0.138 0.314-0.443 0.531-0.799 0.54h-0.001v0.020c-0.248-0.005-0.473-0.103-0.641-0.261h0.001l-5.34-5.34-5.34 5.34c-0.166 0.16-0.391 0.259-0.64 0.26v0c-0.37-0.002-0.687-0.231-0.818-0.554l-0.002-0.006c-0.044-0.099-0.069-0.215-0.069-0.337 0-0.245 0.103-0.467 0.269-0.623l5.34-5.34-5.34-5.34c-0.161-0.161-0.261-0.384-0.261-0.63 0-0.492 0.399-0.891 0.891-0.891 0.246 0 0.469 0.1 0.63 0.261l5.34 5.34 5.34-5.34c0.161-0.161 0.384-0.261 0.63-0.261 0.492 0 0.891 0.399 0.891 0.891 0 0.246-0.1 0.469-0.261 0.63v0z"></path>
</svg>
