<!-- Generated by IcoMoon.io -->
<svg version="1.1" xmlns="http://www.w3.org/2000/svg" width="32" height="32" viewBox="0 0 32 32">
<title>shanchu</title>
<path fill="#ff3f3f" d="M16 32c-8.837 0-16-7.163-16-16s7.163-16 16-16c8.837 0 16 7.163 16 16v0c0 8.837-7.163 16-16 16v0z"></path>
<path fill="#fff" d="M22 21.94l-0.060 0.060c-0.244 0.25-0.584 0.405-0.96 0.405s-0.716-0.155-0.96-0.405l-4.020-4.020-4.020 4.020c-0.244 0.25-0.584 0.405-0.96 0.405s-0.716-0.155-0.96-0.405l-0.060-0.060c-0.241-0.244-0.39-0.58-0.39-0.95s0.149-0.706 0.39-0.95l4.040-4.040-4.040-4.020c-0.247-0.245-0.4-0.585-0.4-0.96s0.153-0.715 0.4-0.96l0.060-0.060c0.248-0.241 0.586-0.39 0.96-0.39s0.712 0.149 0.96 0.39v0l4.020 4.040 4.040-4.040c0.248-0.241 0.586-0.39 0.96-0.39s0.712 0.149 0.96 0.39v0l0.040 0.060c0.25 0.244 0.405 0.584 0.405 0.96s-0.155 0.716-0.405 0.96l-4.020 4.020 4.020 4.020c0.25 0.244 0.405 0.584 0.405 0.96s-0.155 0.716-0.405 0.96v0z"></path>
</svg>
