<!-- Generated by IcoMoon.io -->
<svg version="1.1" xmlns="http://www.w3.org/2000/svg" width="32" height="32" viewBox="0 0 32 32">
<title>student</title>
<path fill="#9fd2e3" d="M30.552 11.156l-0.513 0.193c0.015 0.049 0.026 0.107 0.032 0.167v5.095c0 0.553-0.448 1-1 1s-1-0.448-1-1v0-4.491l-10.212 3.989c-0.461 0.191-0.996 0.302-1.557 0.302-0.055 0-0.108-0.001-0.162-0.003h0.008c-0.011 0-0.024 0-0.037 0-0.623 0-1.219-0.105-1.776-0.3l0.038 0.011-12.833-4.962c-0.884-0.179-1.539-0.95-1.539-1.873 0-0.916 0.645-1.681 1.505-1.867l0.013-0.003 12.704-4.962c0.543-0.183 1.168-0.289 1.818-0.289s1.275 0.106 1.859 0.301l-0.041-0.012 12.683 4.951c0.884 0.182 1.539 0.953 1.539 1.878 0 0.92-0.649 1.69-1.515 1.873l-0.012 0.003zM17.142 4.355c-0.33-0.097-0.709-0.152-1.102-0.152s-0.771 0.055-1.13 0.159l0.029-0.007-12.63 4.93 12.736 4.919c0.299 0.103 0.644 0.162 1.002 0.162 0.035 0 0.069-0.001 0.104-0.002h-0.005c0.041 0.003 0.089 0.004 0.137 0.004 0.289 0 0.565-0.053 0.82-0.149l-0.016 0.005 12.672-4.941zM6.010 14.577c0.003 0 0.007 0 0.011 0 0.119 0 0.234 0.023 0.337 0.067l-0.006-0.002h0.022c0.015 0.011 0.033 0.019 0.053 0.022h0.001l8.619 3.337c0.307 0.109 0.662 0.172 1.031 0.172 0.025 0 0.049 0 0.074-0.001h-0.003c0.035 0.002 0.075 0.003 0.116 0.003 0.293 0 0.573-0.056 0.829-0.158l-0.016 0.005 8.63-3.358 0.010 0.054c0.1-0.044 0.218-0.071 0.341-0.075h0.002c0.556 0.006 1.005 0.458 1.005 1.016 0 0.003 0 0.008 0 0.011v-0.001 8.865c0.002 0.038 0.003 0.083 0.003 0.128 0 0.919-0.373 1.751-0.976 2.353v0c-1.968 2.085-6.427 2.823-9.945 2.823-5.165 0-10.844-1.604-11.133-5.123v-9.122c0-0.003 0-0.008 0-0.012 0-0.551 0.445-0.999 0.994-1.004h0.001zM16.148 27.806c3.785 0 7.282-0.909 8.502-2.192 0.25-0.231 0.407-0.56 0.407-0.926 0-0.005 0-0.010 0-0.016v0.001-7.582l-7.197 2.813c-0.461 0.191-0.996 0.302-1.557 0.302-0.055 0-0.108-0.001-0.162-0.003h0.008c-0.011 0-0.024 0-0.037 0-0.623 0-1.219-0.105-1.776-0.3l0.038 0.011-7.357-2.845v7.465c0.139 1.776 4.32 3.273 9.133 3.273zM29.077 18.641c0.004 0 0.010 0 0.016 0 0.564 0 1.021 0.457 1.021 1.021s-0.457 1.021-1.021 1.021c-0.564 0-1.021-0.457-1.021-1.021 0-0.002 0-0.003 0-0.005v0c0-0.001 0-0.003 0-0.004 0-0.556 0.449-1.008 1.005-1.012v0z"></path>
</svg>
