<!-- Generated by IcoMoon.io -->
<svg version="1.1" xmlns="http://www.w3.org/2000/svg" width="32" height="32" viewBox="0 0 32 32">
<title>teaBuild</title>
<path fill="#d5f0ff" d="M30.894 32h-29.789c-0.612-0.027-1.098-0.529-1.098-1.145 0-0.005 0-0.009 0-0.014v0.001c0.003-0.605 0.492-1.095 1.097-1.098h1.25v-27.747c0.003-1.102 0.896-1.994 1.997-1.997h14.224c1.102 0.003 1.994 0.896 1.997 1.997v7.242h7.165c1.11 0.004 2.008 0.903 2.012 2.012v18.493h1.189c0.59 0.041 1.053 0.53 1.053 1.127 0 0.613-0.488 1.112-1.097 1.129h-0.002zM18.332 2.241h-13.782v27.548h13.782v-27.548zM27.495 11.449h-6.921v18.294h6.921v-18.294zM8.163 10.001h7.714c0.006 0 0.013 0 0.020 0 0.621 0 1.124 0.503 1.124 1.124 0 0.007 0 0.014 0 0.021v-0.001c0 0.007 0 0.015 0 0.023 0 0.627-0.509 1.136-1.136 1.136-0.003 0-0.006 0-0.008 0h-7.714c-0.006 0-0.013 0-0.020 0-0.629 0-1.139-0.51-1.139-1.139 0-0.007 0-0.014 0-0.021v0.001c0-0.005 0-0.011 0-0.017 0-0.622 0.504-1.127 1.127-1.127 0.011 0 0.023 0 0.034 0.001h-0.002zM8.163 15.352h7.714c0.631 0 1.143 0.512 1.143 1.143s-0.512 1.143-1.143 1.143v0h-7.714c-0.631 0-1.143-0.512-1.143-1.143s0.512-1.143 1.143-1.143v0zM8.163 20.703h7.714c0.631 0 1.143 0.512 1.143 1.143s-0.512 1.143-1.143 1.143v0h-7.714c-0.631 0-1.143-0.512-1.143-1.143s0.512-1.143 1.143-1.143v0z"></path>
</svg>
