<!-- Generated by IcoMoon.io -->
<svg version="1.1" xmlns="http://www.w3.org/2000/svg" width="32" height="32" viewBox="0 0 32 32">
<title>teacher</title>
<path fill="#9fd2e3" d="M20.355 4.361c0-2.409-1.953-4.361-4.361-4.361s-4.361 1.952-4.361 4.361c0 2.409 1.953 4.361 4.361 4.361v0c2.405-0.008 4.353-1.956 4.361-4.36v-0.001zM15.994 7.272c-1.608 0-2.911-1.303-2.911-2.911s1.303-2.911 2.911-2.911c1.608 0 2.911 1.303 2.911 2.911v0c-0.007 1.605-1.306 2.904-2.91 2.911h-0.001zM31.269 20.367h-5.092l-4.578-10.629c-0.243-0.601-0.822-1.017-1.498-1.017-0.023 0-0.047 0.001-0.070 0.001h-8.068c-0.024-0.001-0.053-0.002-0.081-0.002-0.672 0-1.247 0.417-1.479 1.007l-0.004 0.011-4.589 10.629h-5.092c-0.001 0-0.002 0-0.003 0-0.395 0-0.716 0.32-0.716 0.716 0 0.001 0 0.002 0 0.004v0c0 0.001 0 0.003 0 0.005 0 0.399 0.321 0.722 0.719 0.726h2.181v9.453c0.003 0.402 0.328 0.728 0.73 0.731h24.728c0.402-0.003 0.728-0.328 0.731-0.73v-9.453h2.181c0.402-0.003 0.728-0.328 0.731-0.73v0c-0.004-0.398-0.327-0.719-0.726-0.719-0.002 0-0.003 0-0.005 0v0zM11.702 10.32c0-0.034 0.034-0.034 0.034-0.069 0.059-0.043 0.132-0.069 0.212-0.069 0.006 0 0.011 0 0.017 0h8.070c0.081 0.009 0.154 0.034 0.22 0.070l-0.003-0.002c0 0.034 0.034 0.034 0.034 0.069l4.293 10.046h-2.877l-2.866-6.77c-0.082-0.293-0.347-0.504-0.661-0.504-0.078 0-0.153 0.013-0.223 0.037l0.005-0.001c-0.292 0.1-0.498 0.373-0.498 0.694 0 0.074 0.011 0.146 0.032 0.214l-0.001-0.005 2.683 6.336h-8.357l2.694-6.336c0.023-0.066 0.036-0.143 0.036-0.222 0-0.322-0.216-0.594-0.511-0.678l-0.005-0.001c-0.065-0.023-0.14-0.037-0.218-0.037-0.311 0-0.573 0.212-0.648 0.5l-0.001 0.005-2.877 6.77h-2.877l4.293-10.046zM27.628 30.539h-23.266v-8.722h23.266v8.722z"></path>
</svg>
