<!-- Generated by IcoMoon.io -->
<svg version="1.1" xmlns="http://www.w3.org/2000/svg" width="32" height="32" viewBox="0 0 32 32">
<title>time</title>
<path fill="#d5f0ff" d="M27.271 27.297c-2.891 2.891-6.884 4.678-11.296 4.678-8.823 0-15.975-7.152-15.975-15.975s7.152-15.975 15.975-15.975c4.411 0 8.405 1.788 11.296 4.678v0c2.92 2.878 4.729 6.876 4.729 11.297s-1.809 8.419-4.727 11.295l-0.002 0.002zM25.795 6.164c-2.517-2.519-5.995-4.077-9.837-4.077-7.68 0-13.906 6.226-13.906 13.906s6.226 13.906 13.906 13.906c3.842 0 7.321-1.558 9.837-4.077v0c2.529-2.509 4.094-5.986 4.094-9.829s-1.565-7.319-4.093-9.828l-0.001-0.001zM21.961 22.428l-5.66-3.438c-0.234-0.119-0.435-0.266-0.608-0.441v0c-0.508-0.213-0.892-0.637-1.047-1.159l-0.003-0.013v-9.615c0-0.76 0.616-1.377 1.377-1.377s1.377 0.616 1.377 1.377v8.976l5.69 3.302c0.459 0.237 0.768 0.708 0.768 1.252 0 0.226-0.053 0.439-0.148 0.628l0.004-0.008c-0.202 0.417-0.622 0.699-1.107 0.699-0.238 0-0.46-0.068-0.648-0.185l0.005 0.003z"></path>
</svg>
