<!-- Generated by IcoMoon.io -->
<svg version="1.1" xmlns="http://www.w3.org/2000/svg" width="32" height="32" viewBox="0 0 32 32">
<title>Word</title>
<path fill="#3f7af2" d="M29.382 31.374c-0.385 0.385-0.915 0.624-1.501 0.626h-23.809c-1.151-0.029-2.073-0.968-2.073-2.123 0-0.019 0-0.037 0.001-0.056v0.003-27.673c0-0.002 0-0.004 0-0.006 0-1.176 0.948-2.131 2.122-2.142h19.521l6.357 6.402v23.47c0 0.003 0 0.006 0 0.009 0 0.582-0.236 1.11-0.618 1.491v0zM22.404 11.203l-2.742 8.33-2.46-7.472-0.28-0.858h-1.835l-0.28 0.858-2.46 7.472-2.742-8.33h-2.4l3.688 11.2h2.905l2.207-6.7 2.206 6.697h2.905l3.688-11.2h-2.4z"></path>
<path fill="#fff" opacity="0.5" d="M29.943 6.408h-4.174c-1.169-0.003-2.115-0.951-2.115-2.12 0-0.004 0-0.007 0-0.011v0.001-4.277z"></path>
</svg>
