<!-- Generated by IcoMoon.io -->
<svg version="1.1" xmlns="http://www.w3.org/2000/svg" width="32" height="32" viewBox="0 0 32 32">
<title>xuesheng</title>
<path fill="#8f9094" d="M30.58 11.48v5.060l1.24 1.4-2.36 2.020-2.16-2.020 1.3-1.44v-4.18c-6.98 2.82-8.86 3.7-10.42 4.38-0.644 0.337-1.407 0.534-2.216 0.534-0.711 0-1.386-0.152-1.995-0.426l0.031 0.012c-1.54-0.56-8.5-3.18-12.12-4.88-2.42-1.14-2.58-1.86 0.040-2.82 3.42-1.28 8.72-3.3 11.7-4.42 0.686-0.443 1.525-0.707 2.425-0.707 0.696 0 1.354 0.157 1.943 0.438l-0.027-0.012c2.9 1.16 9.18 3.62 12.48 4.94 2.88 1.24 0.94 1.64 0.14 2.14v-0.020zM18.52 18.8c1.7-0.68 3.96-1.8 6.44-2.84v8.36c-2.272 2.072-5.308 3.342-8.64 3.342-0.070 0-0.14-0.001-0.21-0.002h0.011c-0.118 0.004-0.256 0.006-0.394 0.006-3.431 0-6.566-1.267-8.962-3.359l0.016 0.014v-7.82c1.9 0.78 4.060 1.44 6.66 2.3 0.751 0.313 1.624 0.495 2.54 0.495s1.789-0.182 2.585-0.512l-0.045 0.016z"></path>
</svg>
