<!-- Generated by IcoMoon.io -->
<svg version="1.1" xmlns="http://www.w3.org/2000/svg" width="32" height="32" viewBox="0 0 32 32">
<title>xuhao</title>
<path fill="#8f9094" d="M9.143 2.286h20.526c1.262 0 2.286 1.023 2.286 2.286s-1.023 2.286-2.286 2.286v0h-20.526c-1.262 0-2.286-1.023-2.286-2.286s1.023-2.286 2.286-2.286v0 0zM2.309 6.857c-1.262 0-2.286-1.023-2.286-2.286s1.023-2.286 2.286-2.286c1.262 0 2.286 1.023 2.286 2.286v0c0 1.262-1.023 2.286-2.286 2.286v0 0zM9.143 13.714h20.526c1.262 0 2.286 1.023 2.286 2.286s-1.023 2.286-2.286 2.286v0h-20.526c-1.262 0-2.286-1.023-2.286-2.286s1.023-2.286 2.286-2.286v0 0zM2.309 18.286c-1.262 0-2.286-1.023-2.286-2.286s1.023-2.286 2.286-2.286v0c1.262 0 2.286 1.023 2.286 2.286s-1.023 2.286-2.286 2.286v0 0zM9.143 25.143h20.526c1.262 0 2.286 1.023 2.286 2.286s-1.023 2.286-2.286 2.286v0h-20.526c-1.262 0-2.286-1.023-2.286-2.286s1.023-2.286 2.286-2.286v0 0zM2.309 29.714c-1.262 0-2.286-1.023-2.286-2.286s1.023-2.286 2.286-2.286c1.262 0 2.286 1.023 2.286 2.286v0c0 1.262-1.023 2.286-2.286 2.286v0 0z"></path>
</svg>
