<!-- Generated by IcoMoon.io -->
<svg version="1.1" xmlns="http://www.w3.org/2000/svg" width="32" height="32" viewBox="0 0 32 32">
<title>yckc</title>
<path fill="#fff5ea" d="M0 16c0 8.837 7.163 16 16 16s16-7.163 16-16v0c0-8.837-7.163-16-16-16s-16 7.163-16 16v0z"></path>
<path fill="#f93" d="M15.987 25.587c-0.004 0-0.008 0-0.013 0-5.302 0-9.6-4.298-9.6-9.6s4.298-9.6 9.6-9.6c5.302 0 9.6 4.298 9.6 9.6v0c-0.016 5.291-4.297 9.577-9.585 9.6h-0.002zM15.987 7.757c-0.004 0-0.008 0-0.013 0-4.546 0-8.23 3.685-8.23 8.23s3.685 8.23 8.23 8.23c4.546 0 8.23-3.685 8.23-8.23v0c-0.015-4.535-3.684-8.208-8.215-8.23h-0.002zM15.987 21.478c-0.024 0.002-0.051 0.003-0.079 0.003-0.609 0-1.103-0.494-1.103-1.103s0.494-1.103 1.103-1.103c0.609 0 1.103 0.494 1.103 1.103v0c0 0.007 0 0.014 0 0.022 0 0.577-0.452 1.048-1.021 1.079h-0.003zM16.32 18.176h-0.678c-0.013 0.001-0.028 0.001-0.043 0.001-0.358 0-0.649-0.291-0.649-0.649 0-0.011 0-0.022 0.001-0.032v0.002-6.31c0-0.009-0.001-0.020-0.001-0.031 0-0.358 0.291-0.649 0.649-0.649 0.015 0 0.030 0.001 0.045 0.002h0.676c0.013-0.001 0.028-0.001 0.043-0.001 0.358 0 0.649 0.291 0.649 0.649 0 0.011 0 0.022-0.001 0.032v-0.002 6.31c0 0.009 0.001 0.020 0.001 0.031 0 0.358-0.291 0.649-0.649 0.649-0.015 0-0.030-0.001-0.045-0.002h0.002z"></path>
</svg>
