<!-- Generated by IcoMoon.io -->
<svg version="1.1" xmlns="http://www.w3.org/2000/svg" width="32" height="32" viewBox="0 0 32 32">
<title>yujing</title>
<path fill="#fff5ea" d="M0 16c0 8.837 7.163 16 16 16s16-7.163 16-16v0c0-8.837-7.163-16-16-16s-16 7.163-16 16v0z"></path>
<path fill="#f93" d="M25.139 14.861l-2.227 0.384h-0.077c-0.001 0-0.003 0-0.004 0-0.236 0-0.431-0.178-0.457-0.408v-0.002c-0.001-0.009-0.001-0.019-0.001-0.030 0-0.225 0.166-0.412 0.383-0.443h0.002l2.214-0.384c0.025-0.005 0.054-0.008 0.083-0.008 0.248 0 0.449 0.201 0.449 0.449 0 0.219-0.156 0.401-0.363 0.441h-0.003zM20.8 11.059c-0.085 0.095-0.208 0.154-0.345 0.154-0.005 0-0.009 0-0.014 0h0.001c-0.003 0-0.006 0-0.009 0-0.177 0-0.329-0.104-0.4-0.253l-0.001-0.003c-0.028-0.055-0.044-0.12-0.044-0.189 0-0.109 0.041-0.209 0.108-0.285v0l1.446-1.69c0.086-0.105 0.216-0.172 0.362-0.172 0.026 0 0.051 0.002 0.076 0.006h-0.003c0.167 0.025 0.302 0.139 0.357 0.291l0.001 0.003c0.017 0.045 0.027 0.096 0.027 0.15 0 0.115-0.044 0.22-0.116 0.298v0zM21.158 22.349h2.56c0.002 0 0.003 0 0.005 0 0.249 0 0.451 0.2 0.456 0.448v0c0 0 0 0 0 0 0 0.247-0.201 0.448-0.448 0.448-0.005 0-0.009 0-0.013 0h-15.411c-0.004 0-0.008 0-0.013 0-0.247 0-0.448-0.201-0.448-0.448 0 0 0 0 0 0v0c0.004-0.248 0.207-0.448 0.456-0.448 0.002 0 0.004 0 0.005 0h2.432v-6.464c0.091-2.807 2.388-5.049 5.21-5.049s5.119 2.241 5.209 5.040v6.472zM20.237 15.885c-0.082-2.305-1.971-4.142-4.288-4.142s-4.206 1.837-4.288 4.135v6.472h8.576v-6.464zM13.645 16.23c0.002 0 0.003 0 0.005 0 0.249 0 0.451 0.2 0.456 0.448v4.186c-0.002 0.12-0.050 0.228-0.128 0.307v0c-0.084 0.087-0.202 0.141-0.333 0.141v0c-0.126-0.003-0.239-0.056-0.32-0.141v0c-0.086-0.075-0.14-0.185-0.141-0.307v-4.186c0.004-0.248 0.207-0.448 0.456-0.448 0.002 0 0.004 0 0.005 0v0zM15.949 9.626c-0.128-0.002-0.244-0.050-0.333-0.128h0.001c-0.076-0.085-0.123-0.197-0.128-0.319v-2.203c0-0.255 0.206-0.461 0.461-0.461s0.461 0.206 0.461 0.461v0 2.202c-0.003 0.126-0.056 0.239-0.141 0.32v0c-0.084 0.078-0.196 0.126-0.32 0.128v0zM11.456 11.213c-0.004 0-0.008 0-0.013 0-0.137 0-0.26-0.059-0.345-0.153v0l-1.446-1.69c-0.062-0.074-0.099-0.171-0.099-0.276 0-0.137 0.063-0.259 0.162-0.338l0.001-0.001c0.081-0.066 0.185-0.106 0.299-0.106 0.134 0 0.255 0.055 0.341 0.145v0l1.446 1.69c0.067 0.075 0.108 0.175 0.108 0.284 0 0.069-0.016 0.134-0.045 0.192l0.001-0.002c-0.076 0.153-0.231 0.256-0.41 0.256v0zM9.062 15.245h-0.090l-2.214-0.384c-0.216-0.045-0.376-0.233-0.376-0.459 0-0.023 0.002-0.046 0.005-0.068v0.003c0.044-0.211 0.228-0.367 0.449-0.367 0.031 0 0.062 0.003 0.091 0.009l-0.003-0.001 2.214 0.384c0.212 0.033 0.373 0.214 0.373 0.433 0 0.014-0.001 0.028-0.002 0.042v-0.002c-0.020 0.23-0.212 0.41-0.445 0.41-0.001 0-0.002 0-0.003 0v0z"></path>
</svg>
