<svg xmlns="http://www.w3.org/2000/svg" width="35" height="27" viewBox="0 0 35 27">
  <defs>
    <style>
      .cls-1 {
        fill: #fff;
        fill-rule: evenodd;
      }
    </style>
  </defs>
  <path id="gonglue1" class="cls-1" d="M113.8,160.143l1.126,8.928-6.768-3.149,0.176-.065a5.082,5.082,0,0,1,0-3.215c1.1-1.37,6.482-6.428,6.482-6.428,2.03-2.289-.648-2.571-0.648-2.571l-9.075-1.286-2.14-1.592L106.713,144l4.379,7.879,8.908,1.7Zm-5.466,2.5-0.12.15Zm-2.96-.57L106.5,171l-8.212-3.82L90.075,171l1.126-8.927L85,155.505l8.907-1.7,4.38-7.879,4.379,7.879,8.908,1.7Z" transform="translate(-85 -144)"/>
</svg>
