<svg xmlns="http://www.w3.org/2000/svg" width="30" height="29" viewBox="0 0 30 29">
  <defs>
    <style>
      .cls-1 {
        fill: #1d2532;
        fill-rule: evenodd;
      }
    </style>
  </defs>
  <path id="faxian" class="cls-1" d="M114.954,302.088c2.987,1.2,3.2-3.828,2.987-.5S112.963,306,112.963,306H109.04v-3.9h2.572c2.062-.922.711-2.856,0.711-2.856l-8.035-8.01c-0.995-.993-2.56,0-2.56,0s-7.466,6.805-8.248,8.435a1.664,1.664,0,0,0,.711,2.34l3.727,0.142-0.056,3.848H93.266c-6.969-1.489-5.262-8.6-4.622-6.684s2.915,1.7,1.92.922-2.2-5.884.569-7.586,0.853-5.813,1.351-5.813a4.038,4.038,0,0,1,2.133,3.049c0,1.347,1.92,2.623,1.707.992S94.76,288.9,98.671,286s3.839-5.813,3.839-5.813c5.262,1.488,3.982,8.081,5.191,7.939s1.494-2.41,1.494-2.41c0.355-.071,2.062-0.071,2.2,4.041s1.209,3.9,1.778,4.182,0.426-.141.426-0.141c-0.213-1.844,1.92-2.836,1.92-2.836-0.213,4.324,1.209,3.9,1.209,3.9C119.932,301.237,111.968,300.883,114.954,302.088ZM105.5,279.4c-0.782-.142-0.142-1.134.284-2.41,0,0,3.485,1.843,1.351,4.324C107.132,281.317,106.279,279.545,105.5,279.4ZM88.289,291.667c0-1.772,1-3.19.5-3.545,0,0,2.062,1.206.356,4.821C89.142,292.943,88.289,293.439,88.289,291.667Zm8.391,7.514,5.475-5.81h2.062l5.475,6.094s0.285,1.559-.924,1.559H107.45v3.9a0.957,0.957,0,0,1-1.224,1.05s-0.446.284-1.157-1.05v-2.068h-3.19v2.21s-1.213,2.1-2.351,0v-3.757H97.9S95.969,300.6,96.68,299.181Zm6.577,1.418a1.922,1.922,0,1,0-2.1-1.914A2.012,2.012,0,0,0,103.257,300.6Z" transform="translate(-88 -277)"/>
</svg>
