<!-- Generated by IcoMoon.io -->
<svg version="1.1" xmlns="http://www.w3.org/2000/svg" width="32" height="32" viewBox="0 0 32 32">
<title>--4</title>
<path fill="#fafafa" stroke="#e6e8eb" stroke-linejoin="miter" stroke-linecap="butt" stroke-miterlimit="4" stroke-width="1" d="M4 31.5h24c1.933 0 3.5-1.567 3.5-3.5v-24c0-1.933-1.567-3.5-3.5-3.5h-24c-1.933 0-3.5 1.567-3.5 3.5v24c0 1.933 1.567 3.5 3.5 3.5z"></path>
<path fill="#c1c7cc" d="M18.748 16.476c0.149-0.135 0.286-0.317 0.244-0.49 0.032-0.173-0.116-0.336-0.244-0.471l-4.725-4.357c-0.233-0.211-0.615-0.211-0.848 0s-0.233 0.558 0 0.769l4.503 4.069-4.503 4.078c-0.233 0.211-0.233 0.558 0 0.769s0.615 0.211 0.848 0l4.725-4.366z"></path>
</svg>
