<!-- Generated by IcoMoon.io -->
<svg version="1.1" xmlns="http://www.w3.org/2000/svg" width="32" height="32" viewBox="0 0 32 32">
<title>11</title>
<path d="M29.6 16c0-7.511-6.089-13.6-13.6-13.6s-13.6 6.089-13.6 13.6c0 7.511 6.089 13.6 13.6 13.6s13.6-6.089 13.6-13.6zM32 16c0 8.836-7.164 16-16 16s-16-7.164-16-16c0-8.837 7.163-16 16-16s16 7.163 16 16zM19.571 10.238l-5.762 5.762 5.762 5.762c0.5 0.5 0.5 1.31 0 1.81s-1.31 0.5-1.81 0l-6.667-6.667c-0.5-0.5-0.5-1.31 0-1.81l6.667-6.667c0.5-0.5 1.31-0.5 1.81 0s0.5 1.31 0 1.81z"></path>
</svg>
