<!-- Generated by IcoMoon.io -->
<svg version="1.1" xmlns="http://www.w3.org/2000/svg" width="30" height="32" viewBox="0 0 30 32">
<title>12</title>
<path d="M24.599 0h-19.439c-4.745 0-5.16 5.503-5.16 5.503v21.63c0 3.243 5.16 4.867 5.16 4.867h13.495l11.345-11.227v-15.694c0-4.090-5.401-5.079-5.401-5.079zM26.732 19.449c0 1.666-1.746 1.754-1.746 1.754h-3.818c-1.945 0-1.927 1.483-1.927 1.483v3.817c0 2.095-1.054 2.184-1.054 2.184h-12.265c-2.39 0-2.648-2.048-2.648-2.048v-20.358c0-2.684 2.648-3.172 2.648-3.172s15.327 0.135 17.828 0.135c2.495 0 2.987 3.002 2.987 3.002v13.204l-0.006 0zM23.242 10.366c0 0.906-0.726 1.636-1.628 1.636h-13.397c-0.902 0-1.628-0.73-1.628-1.636s0.726-1.636 1.628-1.636h13.403c0.896 0 1.622 0.73 1.622 1.636zM19.769 16.682c0 0.871-0.709 1.583-1.582 1.583h-10.023c-0.867 0-1.576-0.712-1.576-1.583 0-0.883 0.709-1.589 1.576-1.589h10.023c0.873-0.006 1.582 0.706 1.582 1.589z"></path>
</svg>
