<!-- Generated by IcoMoon.io -->
<svg version="1.1" xmlns="http://www.w3.org/2000/svg" width="32" height="32" viewBox="0 0 32 32">
<title>14</title>
<path d="M31.13 4.509c0.26-0.23 0.471-0.51 0.619-0.822s0.233-0.652 0.248-0.998c0.014-0.346-0.041-0.691-0.163-1.015s-0.309-0.62-0.548-0.871c-0.24-0.251-0.528-0.451-0.847-0.589s-0.663-0.211-1.011-0.214-0.693 0.063-1.015 0.195c-0.322 0.132-0.613 0.327-0.858 0.573l-11.507 11.563-11.507-11.376c-0.247-0.246-0.54-0.44-0.863-0.573s-0.669-0.201-1.018-0.201c-0.706 0-1.382 0.279-1.881 0.775s-0.779 1.169-0.779 1.87c0 0.702 0.28 1.374 0.779 1.87l11.47 11.413-11.47 11.376c-0.499 0.496-0.779 1.169-0.779 1.87s0.28 1.374 0.779 1.87 1.176 0.775 1.881 0.775c0.706 0 1.382-0.279 1.881-0.775l11.507-11.75 11.507 11.413c0.503 0.446 1.161 0.679 1.835 0.651s1.31-0.315 1.774-0.801c0.464-0.486 0.72-1.132 0.714-1.802s-0.275-1.311-0.748-1.789l-11.47-11.376 11.47-11.264z"></path>
</svg>
