<!-- Generated by IcoMoon.io -->
<svg version="1.1" xmlns="http://www.w3.org/2000/svg" width="31" height="32" viewBox="0 0 31 32">
<title>2</title>
<path fill="#dae0e6" d="M31.289 20.197l-6.901-8.535c-0.16-0.199-0.362-0.36-0.591-0.471s-0.48-0.171-0.734-0.174h-14.837c-0.254 0.003-0.505 0.063-0.734 0.174s-0.431 0.272-0.591 0.471l-6.901 8.535v4.46h31.288v-4.46z"></path>
<path fill="#fafbfc" d="M5.847 0h19.594c0.151-0 0.301 0.030 0.442 0.088s0.267 0.143 0.375 0.251 0.192 0.235 0.251 0.376c0.058 0.141 0.088 0.291 0.088 0.443v27.060c0 0.308-0.122 0.603-0.338 0.82s-0.51 0.34-0.816 0.34h-19.596c-0.306 0-0.599-0.122-0.816-0.34s-0.338-0.512-0.338-0.82v-27.056c-0-0.152 0.029-0.303 0.087-0.444s0.142-0.269 0.249-0.377c0.107-0.108 0.234-0.194 0.374-0.252s0.29-0.089 0.441-0.089h0.003z"></path>
<path fill="#edf1f5" d="M8.399 2.885h14.49c0.318 0 0.577 0.259 0.577 0.579v7.235c0 0.154-0.061 0.301-0.169 0.41s-0.255 0.17-0.408 0.17h-14.49c-0.076 0-0.151-0.015-0.221-0.044s-0.134-0.072-0.187-0.126c-0.054-0.054-0.096-0.118-0.125-0.188s-0.044-0.146-0.044-0.222v-7.235c0-0.154 0.061-0.301 0.169-0.41s0.255-0.17 0.408-0.17zM8.475 14.426h14.339c0.173 0 0.339 0.069 0.461 0.192s0.191 0.29 0.191 0.464c0 0.174-0.069 0.341-0.191 0.464s-0.288 0.192-0.461 0.192h-14.339c-0.173 0-0.339-0.069-0.461-0.192s-0.191-0.29-0.191-0.464c0-0.174 0.069-0.341 0.191-0.464s0.288-0.192 0.461-0.192v-0zM8.475 17.836h14.339c0.17 0.005 0.331 0.076 0.45 0.199s0.185 0.287 0.185 0.457-0.066 0.335-0.185 0.457c-0.118 0.122-0.28 0.194-0.45 0.199h-14.339c-0.17-0.005-0.331-0.076-0.45-0.199s-0.185-0.287-0.185-0.457 0.066-0.335 0.185-0.457c0.118-0.122 0.28-0.194 0.45-0.199zM31.225 30.447c-0.224 0.89-1.009 1.553-1.943 1.553h-27.276c-0.934 0-1.719-0.664-1.942-1.553-0.043-0.17-0.064-0.344-0.064-0.519v-9.73h7.592c0.838 0 1.514 0.71 1.514 1.571v0.011c-0.004 0.409 0.155 0.803 0.44 1.095s0.675 0.458 1.082 0.462h10.033c0.839 0 1.522-0.699 1.522-1.564v-0.003c0-0.861 0.676-1.573 1.514-1.573h7.592v9.731c-0 0.175-0.021 0.349-0.064 0.519v0z"></path>
</svg>
