<!-- Generated by IcoMoon.io -->
<svg version="1.1" xmlns="http://www.w3.org/2000/svg" width="32" height="32" viewBox="0 0 32 32">
<title>25</title>
<path d="M28.343 16c0-6.817-5.526-12.343-12.343-12.343s-12.343 5.526-12.343 12.343c0 6.817 5.526 12.343 12.343 12.343s12.343-5.526 12.343-12.343zM32 16c0 8.837-7.163 16-16 16s-16-7.163-16-16c0-8.837 7.163-16 16-16s16 7.163 16 16zM17.267 23.398c-0.201 0.024-0.372 0.045-0.542 0.12-0.461 0.146-0.953 0.22-1.449 0.219-0.824 0-1.451-0.219-1.902-0.574-0.45-0.435-0.803-0.934-0.803-1.509 0-0.109 0.020-0.233 0.039-0.357s0.039-0.249 0.039-0.358c0.050-0.111 0.075-0.354 0.1-0.601 0.024-0.236 0.048-0.476 0.096-0.612l1.191-3.615c0.056-0.159 0.080-0.299 0.105-0.441 0.018-0.107 0.037-0.215 0.070-0.335 0.099-0.281 0.099-0.281 0.099-0.499 0-0.373-0.176-0.652-0.372-0.792-0.157-0.139-0.803-0.217-1.254-0.217-0.176 0-0.352 0-0.629 0.077-0.22 0.051-0.43 0.124-0.627 0.217l0.078-1.088c0.626-0.217 1.627-0.56 2.176-0.715 0.528-0.139 0.999-0.217 1.429-0.217 0.824 0 1.453 0.217 1.922 0.592 0.432 0.419 0.98 0.995 0.98 1.647 0 0.018-0.007 0.050-0.017 0.095-0.024 0.107-0.064 0.29-0.064 0.542 0 0.28-0.096 0.575-0.195 0.855l-1.209 3.598c-0.039 0.106-0.059 0.229-0.080 0.359-0.023 0.14-0.047 0.289-0.098 0.434-0.099 0.28-0.099 0.934-0.099 1.073 0 0.357 0.099 0.637 0.277 0.792 0.034 0.024 0.067 0.050 0.1 0.077 0.159 0.127 0.334 0.266 0.721 0.266 0.176 0 0.295 0.016 0.388 0.028 0.196 0.026 0.273 0.037 0.512-0.154l-0.195 0.931c-0.323 0.106-0.574 0.136-0.789 0.161zM15.985 10.153c-0.468 0-0.822-0.217-1.175-0.498-0.372-0.295-0.549-0.715-0.549-1.151 0-0.434 0.177-0.87 0.549-1.15 0.253-0.279 0.706-0.497 1.175-0.497 0.432 0 0.805 0.14 1.158 0.434 0.273 0.342 0.449 0.777 0.548 1.212 0.001 0.437-0.176 0.856-0.548 1.151-0.257 0.28-0.725 0.498-1.158 0.498z"></path>
</svg>
