<!-- Generated by IcoMoon.io -->
<svg version="1.1" xmlns="http://www.w3.org/2000/svg" width="34" height="32" viewBox="0 0 34 32">
<title>35</title>
<path d="M16.372 32c9.042 0 16.372-7.163 16.372-16s-7.33-16-16.372-16c-9.042 0-16.372 7.163-16.372 16s7.33 16 16.372 16zM18.632 23.394c0 1.007-0.832 1.82-1.854 1.82-1.025 0-1.854-0.813-1.854-1.82 0-1.003 0.829-1.816 1.854-1.816s1.854 0.813 1.854 1.816zM18.007 16.861c0 1.33-0.552 2.41-1.23 2.41s-1.23-1.081-1.222-2.41l-1.23-8.45c0-1.33 1.097-2.41 2.456-2.41 1.355 0 2.456 1.077 2.456 2.41l-1.23 8.45z"></path>
</svg>
