<!-- Generated by IcoMoon.io -->
<svg version="1.1" xmlns="http://www.w3.org/2000/svg" width="42" height="32" viewBox="0 0 42 32">
<title>43</title>
<path d="M41.6 6.268c0 0.723-0.25 1.335-0.751 1.838l-23.101 23.14c-0.501 0.503-1.104 0.754-1.808 0.754s-1.307-0.251-1.808-0.754l-13.382-13.431c-0.501-0.503-0.751-1.108-0.751-1.815s0.25-1.312 0.751-1.815l3.662-3.676c0.501-0.503 1.111-0.754 1.831-0.754s1.33 0.251 1.831 0.754l7.888 7.965 17.56-17.72c0.501-0.503 1.111-0.754 1.831-0.754s1.33 0.251 1.831 0.754l3.662 3.676c0.501 0.503 0.751 1.115 0.751 1.838z"></path>
</svg>
