<!-- Generated by IcoMoon.io -->
<svg version="1.1" xmlns="http://www.w3.org/2000/svg" width="34" height="32" viewBox="0 0 34 32">
<title>45</title>
<path d="M32.597 28.901h-31.041c-0.411-0.001-0.805 0.162-1.097 0.453s-0.457 0.686-0.459 1.098c0 0.854 0.7 1.548 1.556 1.548h31.021c0.41 0.001 0.804-0.161 1.095-0.451s0.457-0.684 0.461-1.096c0.001-0.203-0.038-0.405-0.115-0.593s-0.19-0.359-0.333-0.503c-0.143-0.144-0.312-0.259-0.499-0.337s-0.387-0.118-0.589-0.118zM3.196 10.535l6.087 4.331c0.18 0.127 0.327 0.295 0.429 0.491s0.155 0.414 0.155 0.634c0 0.221-0.053 0.439-0.155 0.634s-0.249 0.364-0.429 0.491l-6.087 4.328c-0.624 0.447-1.491 0.302-1.939-0.319-0.168-0.234-0.259-0.516-0.258-0.805v-8.659c-0.001-0.257 0.070-0.509 0.203-0.728s0.324-0.397 0.552-0.514c0.228-0.117 0.483-0.168 0.737-0.148s0.499 0.111 0.705 0.262zM1.556 3.102h31.021c0.411 0.001 0.805-0.162 1.097-0.453s0.457-0.686 0.46-1.099c-0.003-0.413-0.168-0.808-0.46-1.099s-0.686-0.453-1.097-0.453h-31.021c-0.411-0.001-0.805 0.162-1.097 0.453s-0.457 0.686-0.459 1.099c0 0.854 0.7 1.551 1.556 1.551zM32.597 9.635h-16.255c-0.411-0.001-0.805 0.162-1.097 0.453s-0.457 0.686-0.459 1.099c0 0.854 0.7 1.551 1.556 1.551h16.232c0.411 0.002 0.806-0.161 1.099-0.451s0.458-0.686 0.461-1.1c0.001-0.203-0.038-0.405-0.115-0.593s-0.19-0.359-0.333-0.503c-0.143-0.144-0.312-0.258-0.499-0.336s-0.387-0.118-0.589-0.118zM32.597 19.266h-16.255c-0.411-0.001-0.805 0.162-1.097 0.453s-0.457 0.686-0.459 1.099c0 0.855 0.7 1.551 1.556 1.551h16.232c0.411 0.002 0.806-0.161 1.099-0.451s0.458-0.686 0.461-1.1c0.001-0.203-0.038-0.405-0.115-0.593s-0.19-0.359-0.333-0.503c-0.143-0.144-0.312-0.258-0.499-0.337s-0.387-0.118-0.589-0.118z"></path>
</svg>
