<!-- Generated by IcoMoon.io -->
<svg version="1.1" xmlns="http://www.w3.org/2000/svg" width="30" height="32" viewBox="0 0 30 32">
<title>48</title>
<path d="M4.39 0.898v0.207l-1.756 6.266c-0.114 0.394-0.075 0.818 0.11 1.183s0.5 0.643 0.881 0.775h0.225l5.898 1.175c0.4 0.105 0.825 0.044 1.182-0.168s0.618-0.56 0.728-0.968c0.109-0.408 0.058-0.843-0.144-1.212s-0.536-0.643-0.933-0.761h-0.225l-2.139-0.438c2.158-1.524 4.752-2.265 7.37-2.103s5.106 1.216 7.069 2.995c1.963 1.779 3.287 4.18 3.76 6.819s0.069 5.364-1.149 7.74-3.179 4.266-5.569 5.368c-2.391 1.102-5.073 1.352-7.619 0.711s-4.809-2.137-6.427-4.248c-1.618-2.111-2.498-4.717-2.499-7.4 0-0.428-0.166-0.838-0.462-1.14s-0.696-0.472-1.114-0.472c-0.418 0-0.819 0.17-1.114 0.472s-0.462 0.713-0.462 1.14c0.009 3.38 1.119 6.66 3.153 9.322s4.878 4.555 8.081 5.38c3.203 0.824 6.583 0.533 9.606-0.828s5.517-3.714 7.088-6.687c1.57-2.973 2.128-6.397 1.585-9.731s-2.157-6.387-4.585-8.678c-2.428-2.291-5.533-3.688-8.825-3.971s-6.581 0.564-9.349 2.407l0.585-2.073c0.109-0.371 0.083-0.769-0.075-1.121s-0.435-0.633-0.781-0.791h-0.225c-0.357-0.11-0.741-0.088-1.083 0.064s-0.62 0.423-0.786 0.765z"></path>
</svg>
