<!-- Generated by IcoMoon.io -->
<svg version="1.1" xmlns="http://www.w3.org/2000/svg" width="30" height="32" viewBox="0 0 30 32">
<title>5</title>
<path d="M26.88 19.91c0.707 0 1.28 0.573 1.28 1.28v6.982c0 1.38-1.002 2.832-2.619 2.832h-4.35c-0.707 0-1.28-0.573-1.28-1.28s0.573-1.28 1.28-1.28h4.318c0.003-0.003 0.006-0.006 0.010-0.010 0.035-0.040 0.081-0.128 0.081-0.261v-6.982c0-0.707 0.573-1.28 1.28-1.28z"></path>
<path d="M0 2.702c0-1.63 1.435-2.702 2.88-2.702h22.4c1.445 0 2.88 1.072 2.88 2.702v7.111c0 0.707-0.573 1.28-1.28 1.28s-1.28-0.573-1.28-1.28v-7.111c0-0 0-0 0-0s-0.001-0.002-0.002-0.003c-0.003-0.007-0.013-0.024-0.038-0.045-0.050-0.045-0.146-0.093-0.281-0.093h-22.4c-0.135 0-0.231 0.049-0.281 0.093-0.024 0.022-0.034 0.039-0.037 0.045-0.001 0.002-0.001 0.003-0.002 0.004v25.6c0 0 0 0 0 0s0.001 0.002 0.002 0.004c0.003 0.007 0.013 0.024 0.037 0.045 0.050 0.045 0.146 0.093 0.281 0.093h4.8c0.707 0 1.28 0.573 1.28 1.28s-0.573 1.28-1.28 1.28h-4.8c-1.445 0-2.88-1.072-2.88-2.702v-25.6z"></path>
<path d="M8.533 9.813c0-0.707 0.573-1.28 1.28-1.28h8.533c0.707 0 1.28 0.573 1.28 1.28s-0.573 1.28-1.28 1.28h-8.533c-0.707 0-1.28-0.573-1.28-1.28z"></path>
<path d="M27.785 14.598c0.5 0.5 0.5 1.31 0 1.81l-14.222 14.222c-0.5 0.5-1.31 0.5-1.81 0s-0.5-1.31 0-1.81l14.222-14.222c0.5-0.5 1.31-0.5 1.81 0z"></path>
<path d="M8.533 15.503c0-0.707 0.573-1.28 1.28-1.28h5.689c0.707 0 1.28 0.573 1.28 1.28s-0.573 1.28-1.28 1.28h-5.689c-0.707 0-1.28-0.573-1.28-1.28z"></path>
</svg>
