<!-- Generated by IcoMoon.io -->
<svg version="1.1" xmlns="http://www.w3.org/2000/svg" width="32" height="32" viewBox="0 0 32 32">
<title>_3</title>
<path fill="none" stroke="#b6babf" stroke-linejoin="miter" stroke-linecap="butt" stroke-miterlimit="4" stroke-width="2" d="M4 1h24c1.657 0 3 1.343 3 3v24c0 1.657-1.343 3-3 3h-24c-1.657 0-3-1.343-3-3v-24c0-1.657 1.343-3 3-3z"></path>
<path fill="#b7bbbf" d="M10 8h12c1.105 0 2 0.895 2 2v12c0 1.105-0.895 2-2 2h-12c-1.105 0-2-0.895-2-2v-12c0-1.105 0.895-2 2-2z"></path>
</svg>
