<!-- Generated by IcoMoon.io -->
<svg version="1.1" xmlns="http://www.w3.org/2000/svg" width="32" height="32" viewBox="0 0 32 32">
<title>8</title>
<path d="M13.637 0c1.221 0 1.829 0.617 1.829 1.849 0 1.728-1.591 1.807-1.805 1.81h-10.003v24.682h24.682v-10.056c0 0 0.014-1.876 1.829-1.876 1.21 0 1.819 0.625 1.83 1.876v10.056c0 2.021-1.637 3.659-3.659 3.659h-24.682c-0.481 0-0.957-0.094-1.401-0.278s-0.848-0.453-1.187-0.793c-0.34-0.34-0.609-0.743-0.793-1.187s-0.278-0.92-0.278-1.4v-24.682c0-2.021 1.637-3.659 3.659-3.659h9.979zM28.786 3.214c0.713 0.713 0.713 1.871 0 2.586l-12.031 12.026h4.28c0.916 0 1.676 0.677 1.807 1.561l0.019 0.269c0 0.485-0.192 0.95-0.535 1.293s-0.807 0.536-1.292 0.537h-8.008l-0.335-0.022c-0.56-0.031-1.088-0.27-1.481-0.669-0.505-0.507-0.653-1.037-0.686-1.733l-0.005-8.090c0.018-0.473 0.219-0.92 0.56-1.248s0.795-0.511 1.268-0.511c0.473 0 0.927 0.183 1.268 0.511s0.541 0.775 0.56 1.248l0.003 4.261 12.020-12.018c0.713-0.713 1.873-0.713 2.587 0z"></path>
</svg>
