<svg width="56" height="54" viewBox="0 0 56 54" fill="none" xmlns="http://www.w3.org/2000/svg">
<path fill-rule="evenodd" clip-rule="evenodd" d="M5.17719 53.0894L5.2425 53.0908L50.59 53.09C51.1357 53.09 53.025 52.9927 54.4285 51.7364C55.9105 50.4088 56.0063 48.6223 55.9997 48.1017V34.9377L55.9982 34.8585C55.9875 34.6267 55.9176 33.413 55.6274 32.3148C55.3335 31.2048 54.7533 30.0634 54.6409 29.8474C54.618 29.8035 54.5925 29.7607 54.5675 29.7198L48.6977 20.4186C48.6657 20.368 48.6314 20.3189 48.5949 20.2715C48.4149 20.0399 47.4564 18.8481 46.2656 18.1661C45.0185 17.4527 43.4071 17.3167 43.0967 17.2968C43.0557 17.2942 43.0159 17.293 42.9758 17.293H11.757C11.3419 17.293 9.8953 17.3506 8.70011 18.0949C7.56425 18.8016 6.73585 19.9783 6.58176 20.2069C6.55375 20.2482 6.52762 20.2906 6.50292 20.3345L1.56066 29.078C1.40506 29.3364 0.861725 30.2942 0.421927 31.7529C-0.0370957 33.2744 -0.0108866 34.6443 0.0086264 35.0498V48.2124C0.00856944 48.2453 0.00943406 48.2782 0.0112188 48.3111C0.0296517 48.661 0.189644 50.4685 1.53006 51.7256C2.83736 52.9511 4.79967 53.0771 5.17719 53.0894ZM4.69295 31.1583C4.71131 31.124 4.72702 31.0956 4.73962 31.0732C4.73962 31.0732 4.76101 31.0351 4.76245 31.0307L4.76173 31.033L4.8148 30.9438L9.72609 22.2552L9.74085 22.2349C9.91229 22.0008 10.3292 21.4995 10.6813 21.2801C10.9313 21.1238 11.4724 21.0467 11.7636 21.0441H42.8829L42.9223 21.046C43.302 21.0814 44.0393 21.2141 44.4014 21.4213C44.8194 21.6609 45.3429 22.2228 45.5612 22.4856L45.5792 22.5074L51.0381 31.1585L35.1055 31.1685C34.6083 31.1698 34.1318 31.3679 33.7803 31.7196C33.4288 32.0712 33.2309 32.5478 33.2298 33.045C33.2298 35.9935 30.8874 38.3028 27.8972 38.3028C24.8963 38.3028 22.5457 35.9935 22.5457 33.0449C22.5449 32.5478 22.3472 32.0712 21.9959 31.7196C21.6445 31.3679 21.1682 31.1698 20.6711 31.1685L4.69295 31.1583ZM3.75807 34.9098L18.986 34.9189L19.0681 35.2422C20.0871 39.2528 23.7181 42.0546 27.8972 42.0546C32.0681 42.0546 35.6914 39.2531 36.7092 35.2425L36.7914 34.9192L52.2418 34.9099C52.2437 34.9401 52.2454 34.9687 52.2468 34.9953V48.1139L52.2504 48.2278C52.2504 48.2934 52.1907 48.7033 51.9242 48.9423C51.6264 49.2092 50.969 49.3345 50.593 49.3389L5.26791 49.3382C5.04233 49.3246 4.39645 49.2144 4.1358 49.0223L4.10628 49.0006L4.08122 48.9739C3.89502 48.7805 3.78702 48.3517 3.76376 48.1747L3.76009 48.1475V34.9865C3.75976 34.9609 3.75909 34.9353 3.75807 34.9098ZM26.4991 13.9922C26.8508 14.3439 27.3276 14.5416 27.825 14.5421C28.3223 14.5416 28.7991 14.3437 29.1508 13.9921C29.5024 13.6404 29.7002 13.1636 29.7007 12.6663V1.87569C29.7 1.37832 29.5021 0.901514 29.1503 0.549881C28.7985 0.198248 28.3216 0.000495267 27.8243 0C27.327 0.000685972 26.8504 0.198535 26.4988 0.550158C26.1473 0.90178 25.9495 1.37847 25.9489 1.87569V12.6664C25.9495 13.1638 26.1474 13.6406 26.4991 13.9922ZM39.0757 13.9207C39.4273 14.2724 39.9041 14.4703 40.4014 14.471L40.4043 14.4706C40.6834 14.4713 40.9591 14.4092 41.211 14.289C41.4628 14.1688 41.6845 13.9935 41.8595 13.7761L46.1473 8.48764C46.303 8.29668 46.4193 8.07671 46.4894 7.84046C46.5594 7.60422 46.5819 7.35642 46.5554 7.11144C46.5306 6.86617 46.4574 6.62827 46.3398 6.41157C46.2223 6.19487 46.0629 6.00369 45.8708 5.84914C45.5331 5.57524 45.125 5.43037 44.6915 5.43037C44.4119 5.4297 44.1357 5.49175 43.8833 5.61195C43.6308 5.73215 43.4085 5.90744 43.2327 6.12492L38.9448 11.4133C38.674 11.7476 38.5261 12.1647 38.5257 12.5949C38.5263 13.0922 38.7241 13.569 39.0757 13.9207ZM14.6456 14.1428C14.8994 14.2652 15.1777 14.3283 15.4594 14.3276H15.4625C15.887 14.3268 16.2988 14.1826 16.6311 13.9184C17.0196 13.6079 17.269 13.1559 17.3246 12.6617C17.3802 12.1676 17.2375 11.6715 16.9278 11.2824L12.7122 5.99444C12.3542 5.54536 11.8193 5.28773 11.2442 5.28773C10.8196 5.28649 10.4073 5.43092 10.0763 5.69693C9.68772 6.00737 9.43815 6.45929 9.38238 6.95353C9.3266 7.44777 9.46917 7.94395 9.7788 8.33319L13.994 13.6212C14.169 13.8421 14.3917 14.0205 14.6456 14.1428Z" fill="#59ACFF"/>
</svg>
