<!-- Generated by IcoMoon.io -->
<svg version="1.1" xmlns="http://www.w3.org/2000/svg" width="32" height="32" viewBox="0 0 32 32">
<title>9</title>
<path d="M30.647 0.927c0.464 0.464 0.621 1.152 0.404 1.771l-9.707 27.733c-0.231 0.66-0.842 1.113-1.541 1.142s-1.345-0.373-1.629-1.012l-5.28-11.88-11.88-5.28c-0.639-0.284-1.041-0.93-1.012-1.629s0.481-1.31 1.141-1.541l27.733-9.707c0.619-0.217 1.307-0.060 1.771 0.404zM6.334 12.029l8.546 3.798c0.386 0.172 0.695 0.48 0.866 0.866l3.798 8.546 7.114-20.325-20.325 7.114z"></path>
<path d="M30.647 0.927c0.666 0.666 0.666 1.747 0 2.414l-14.933 14.933c-0.666 0.666-1.747 0.666-2.414 0s-0.666-1.747 0-2.414l14.933-14.933c0.666-0.666 1.747-0.666 2.414 0z"></path>
</svg>
