<!-- Generated by IcoMoon.io -->
<svg version="1.1" xmlns="http://www.w3.org/2000/svg" width="28" height="32" viewBox="0 0 28 32">
<title>27</title>
<path d="M17.4 22.2h-6.8c-3.596 0-6.51 2.614-6.944 5.939 0.008 0.001 0.016 0.003 0.024 0.004 1.585 0.247 3.906 0.257 6.921 0.257h6.8c2.95 0 5.297-0.058 6.876-0.325 0.020-0.003 0.039-0.007 0.059-0.010-0.467-3.29-3.365-5.865-6.934-5.865zM17.595 15.001c-0.064 0.035-0.13 0.069-0.195 0.102-1.13 0.572-2.42 0.896-3.8 0.896-1.064 0-2.075-0.193-3-0.543-0.325-0.123-0.639-0.266-0.941-0.426-2.558-1.359-4.259-4.006-4.259-7.031 0-4.4 3.6-8 8.2-8s8.2 3.6 8.2 8c0 3.003-1.677 5.634-4.205 7.001zM9.045 18.712c0.508-0.074 1.028-0.112 1.555-0.112h6.8c0.312 0 0.622 0.013 0.928 0.040 5.375 0.46 9.672 4.873 9.672 10.36v0.6c0 2.2-4.8 2.4-10.6 2.4h-6.8c-5.8 0-10.6 0-10.6-2.4v-0.6c0-5.272 3.966-9.553 9.045-10.288zM18.2 8c0-2.354-1.93-4.4-4.6-4.4s-4.6 2.046-4.6 4.4c0 2.354 1.93 4.4 4.6 4.4s4.6-2.046 4.6-4.4z"></path>
</svg>
