<!-- Generated by IcoMoon.io -->
<svg version="1.1" xmlns="http://www.w3.org/2000/svg" width="32" height="32" viewBox="0 0 32 32">
<title>24</title>
<path d="M4.114 4.114h23.771v23.771h-23.771v-23.771zM3.429 0c-1.894 0-3.429 1.535-3.429 3.429v25.143c0 1.893 1.535 3.429 3.429 3.429h25.143c1.893 0 3.429-1.535 3.429-3.429v-25.143c0-1.894-1.535-3.429-3.429-3.429h-25.143zM8 11.8c0 0.994 0.806 1.8 1.8 1.8h12.4c0.994 0 1.8-0.806 1.8-1.8s-0.806-1.8-1.8-1.8h-12.4c-0.994 0-1.8 0.806-1.8 1.8zM11.8 18h6.4c0.994 0 1.8 0.806 1.8 1.8s-0.806 1.8-1.8 1.8h-6.4c-0.994 0-1.8-0.806-1.8-1.8s0.806-1.8 1.8-1.8z"></path>
</svg>
