<!-- Generated by IcoMoon.io -->
<svg version="1.1" xmlns="http://www.w3.org/2000/svg" width="32" height="32" viewBox="0 0 32 32">
<title>_11</title>
<path d="M15.065 15.81c-0.291-0.125-0.544-0.307-0.74-0.531l-9.896-12.36c-1.047-1.199-0.060-2.918 1.675-2.918h19.792c1.735 0 2.721 1.719 1.675 2.92l-9.896 12.358c-0.196 0.224-0.449 0.406-0.74 0.531s-0.611 0.19-0.935 0.19c-0.325 0-0.645-0.065-0.935-0.19zM20.691 3.64h-9.382c-0.091 0-0.179 0.022-0.256 0.064s-0.139 0.101-0.179 0.171c-0.040 0.070-0.057 0.149-0.049 0.227s0.041 0.153 0.096 0.216l4.691 6.399c0.046 0.052 0.104 0.094 0.172 0.123s0.142 0.044 0.217 0.044c0.075 0 0.15-0.015 0.217-0.044s0.126-0.071 0.172-0.123l4.693-6.399c0.054-0.063 0.088-0.138 0.096-0.216s-0.009-0.157-0.050-0.227c-0.041-0.070-0.103-0.129-0.18-0.171s-0.166-0.063-0.257-0.063zM27.755 10h2.503c0.462 0 0.905 0.19 1.232 0.528s0.51 0.797 0.51 1.275v16.394c0 0.478-0.183 0.937-0.51 1.275s-0.77 0.528-1.232 0.528h-28.516c-0.462 0-0.905-0.19-1.232-0.528s-0.51-0.797-0.51-1.275v-16.393c0-0.478 0.183-0.937 0.51-1.275s0.77-0.528 1.232-0.528h2.43c0.956 0 1.755 0.784 1.771 1.772 0.004 0.239-0.038 0.477-0.124 0.7s-0.213 0.425-0.376 0.596c-0.162 0.171-0.356 0.306-0.569 0.399s-0.442 0.14-0.674 0.14h-0.313c-0.107 0-0.21 0.044-0.286 0.123s-0.119 0.185-0.119 0.296v11.948c0 0.111 0.043 0.218 0.119 0.297s0.179 0.123 0.286 0.123h24.223c0.108 0 0.211-0.044 0.287-0.123s0.119-0.185 0.119-0.297v-11.948c0-0.111-0.043-0.218-0.119-0.296s-0.179-0.123-0.287-0.123h-0.327c-0.955 0-1.754-0.784-1.77-1.772-0.004-0.239 0.038-0.477 0.124-0.7s0.214-0.425 0.376-0.596c0.162-0.171 0.355-0.306 0.569-0.399s0.442-0.14 0.674-0.14z"></path>
</svg>
