<!-- Generated by IcoMoon.io -->
<svg version="1.1" xmlns="http://www.w3.org/2000/svg" width="32" height="32" viewBox="0 0 32 32">
<title>user</title>
<path fill="#4ba5ff" opacity="0.2" d="M32 16c0 8.837-7.163 16-16 16s-16-7.163-16-16c0-8.837 7.163-16 16-16s16 7.163 16 16z"></path>
<path fill="#4da6ff" d="M19.801 13.111c0.502-0.752 0.77-1.636 0.77-2.54 0-1.212-0.482-2.375-1.339-3.232s-2.020-1.339-3.233-1.339c-0.904 0-1.788 0.268-2.54 0.77s-1.338 1.216-1.684 2.052c-0.346 0.835-0.437 1.754-0.26 2.641s0.612 1.701 1.251 2.341c0.639 0.639 1.454 1.075 2.341 1.251s1.806 0.086 2.641-0.26c0.835-0.346 1.549-0.932 2.052-1.684zM18.604 16.286h0.596c1.273 0 2.494 0.506 3.394 1.406s1.406 2.121 1.406 3.394v1.486c0 0.455-0.181 0.891-0.502 1.212s-0.758 0.502-1.212 0.502h-12.571c-0.455 0-0.891-0.181-1.212-0.502s-0.502-0.758-0.502-1.212v-1.486c0-1.273 0.506-2.494 1.406-3.394s2.121-1.406 3.394-1.406h0.596c0.816 0.376 1.705 0.571 2.604 0.571s1.787-0.195 2.604-0.571z"></path>
</svg>
